  0
SECTION
  2
HEADER
  9
$ACADVER
  1
AC1009
  9
$EXTMIN
 10
0.0
 20
0.0
 30
0.0
  9
$EXTMAX
 10
1000.0
 20
1000.0
 30
0.0
  9
$FILLMODE
 70
 0
  9
$SPLFRAME
 70
 1
  0
ENDSEC
  0
SECTION
  2
TABLES
  0
TABLE
  2
LAYER
 70
1
  0
LAYER
  2
0
 70
     0
 62
     7
  6
CONTINUOUS
  0
ENDTAB
  0
ENDSEC
  0
SECTION
  2
ENTITIES
  0
LINE
  8
0
 62
     0
 10
270.794
 20
84.3125
 30
0.0
 11
271.108
 21
84.3001
 31
0.0
  0
LINE
  8
0
 62
     0
 10
271.108
 20
84.3001
 30
0.0
 11
271.42
 21
84.2627
 31
0.0
  0
LINE
  8
0
 62
     0
 10
271.42
 20
84.2627
 30
0.0
 11
271.727
 21
84.2024
 31
0.0
  0
LINE
  8
0
 62
     0
 10
271.727
 20
84.2024
 30
0.0
 11
272.03
 21
84.1167
 31
0.0
  0
LINE
  8
0
 62
     0
 10
272.03
 20
84.1167
 30
0.0
 11
272.325
 21
84.008
 31
0.0
  0
LINE
  8
0
 62
     0
 10
272.325
 20
84.008
 30
0.0
 11
272.61
 21
83.8771
 31
0.0
  0
LINE
  8
0
 62
     0
 10
272.61
 20
83.8771
 30
0.0
 11
272.883
 21
83.724
 31
0.0
  0
LINE
  8
0
 62
     0
 10
272.883
 20
83.724
 30
0.0
 11
273.145
 21
83.5491
 31
0.0
  0
LINE
  8
0
 62
     0
 10
273.145
 20
83.5491
 30
0.0
 11
273.392
 21
83.3547
 31
0.0
  0
LINE
  8
0
 62
     0
 10
273.392
 20
83.3547
 30
0.0
 11
273.623
 21
83.1413
 31
0.0
  0
LINE
  8
0
 62
     0
 10
273.623
 20
83.1413
 30
0.0
 11
273.836
 21
82.9109
 31
0.0
  0
LINE
  8
0
 62
     0
 10
273.836
 20
82.9109
 30
0.0
 11
274.031
 21
82.6643
 31
0.0
  0
LINE
  8
0
 62
     0
 10
274.031
 20
82.6643
 30
0.0
 11
274.205
 21
82.4025
 31
0.0
  0
LINE
  8
0
 62
     0
 10
274.205
 20
82.4025
 30
0.0
 11
274.359
 21
82.1284
 31
0.0
  0
LINE
  8
0
 62
     0
 10
274.359
 20
82.1284
 30
0.0
 11
274.49
 21
81.843
 31
0.0
  0
LINE
  8
0
 62
     0
 10
274.49
 20
81.843
 30
0.0
 11
274.599
 21
81.5495
 31
0.0
  0
LINE
  8
0
 62
     0
 10
274.599
 20
81.5495
 30
0.0
 11
274.684
 21
81.2465
 31
0.0
  0
LINE
  8
0
 62
     0
 10
274.684
 20
81.2465
 30
0.0
 11
274.745
 21
80.9392
 31
0.0
  0
LINE
  8
0
 62
     0
 10
274.745
 20
80.9392
 30
0.0
 11
274.782
 21
80.6263
 31
0.0
  0
LINE
  8
0
 62
     0
 10
274.782
 20
80.6263
 30
0.0
 11
274.794
 21
80.312
 31
0.0
  0
LINE
  8
0
 62
     0
 10
274.794
 20
80.312
 30
0.0
 11
274.794
 21
4.11208
 31
0.0
  0
LINE
  8
0
 62
     0
 10
274.794
 20
4.11208
 30
0.0
 11
274.782
 21
3.79786
 31
0.0
  0
LINE
  8
0
 62
     0
 10
274.782
 20
3.79786
 30
0.0
 11
274.745
 21
3.48644
 31
0.0
  0
LINE
  8
0
 62
     0
 10
274.745
 20
3.48644
 30
0.0
 11
274.684
 21
3.17913
 31
0.0
  0
LINE
  8
0
 62
     0
 10
274.684
 20
3.17913
 30
0.0
 11
274.599
 21
2.87596
 31
0.0
  0
LINE
  8
0
 62
     0
 10
274.599
 20
2.87596
 30
0.0
 11
274.49
 21
2.58107
 31
0.0
  0
LINE
  8
0
 62
     0
 10
274.49
 20
2.58107
 30
0.0
 11
274.359
 21
2.29581
 31
0.0
  0
LINE
  8
0
 62
     0
 10
274.359
 20
2.29581
 30
0.0
 11
274.205
 21
2.02296
 31
0.0
  0
LINE
  8
0
 62
     0
 10
274.205
 20
2.02296
 30
0.0
 11
274.031
 21
1.76113
 31
0.0
  0
LINE
  8
0
 62
     0
 10
274.031
 20
1.76113
 30
0.0
 11
273.836
 21
1.51446
 31
0.0
  0
LINE
  8
0
 62
     0
 10
273.836
 20
1.51446
 30
0.0
 11
273.623
 21
1.28295
 31
0.0
  0
LINE
  8
0
 62
     0
 10
273.623
 20
1.28295
 30
0.0
 11
273.392
 21
1.07074
 31
0.0
  0
LINE
  8
0
 62
     0
 10
273.392
 20
1.07074
 30
0.0
 11
273.145
 21
0.875055
 31
0.0
  0
LINE
  8
0
 62
     0
 10
273.145
 20
0.875055
 30
0.0
 11
272.883
 21
0.701421
 31
0.0
  0
LINE
  8
0
 62
     0
 10
272.883
 20
0.701421
 30
0.0
 11
272.61
 21
0.547081
 31
0.0
  0
LINE
  8
0
 62
     0
 10
272.61
 20
0.547081
 30
0.0
 11
272.325
 21
0.416168
 31
0.0
  0
LINE
  8
0
 62
     0
 10
272.325
 20
0.416168
 30
0.0
 11
272.03
 21
0.307303
 31
0.0
  0
LINE
  8
0
 62
     0
 10
272.03
 20
0.307303
 30
0.0
 11
271.727
 21
0.221864
 31
0.0
  0
LINE
  8
0
 62
     0
 10
271.727
 20
0.221864
 30
0.0
 11
271.42
 21
0.16123
 31
0.0
  0
LINE
  8
0
 62
     0
 10
271.42
 20
0.16123
 30
0.0
 11
271.108
 21
0.124024
 31
0.0
  0
LINE
  8
0
 62
     0
 10
271.108
 20
0.124024
 30
0.0
 11
270.794
 21
0.111621
 31
0.0
  0
LINE
  8
0
 62
     0
 10
270.794
 20
0.111621
 30
0.0
 11
4.09416
 21
0.111621
 31
0.0
  0
LINE
  8
0
 62
     0
 10
4.09416
 20
0.111621
 30
0.0
 11
3.77994
 21
0.124024
 31
0.0
  0
LINE
  8
0
 62
     0
 10
3.77994
 20
0.124024
 30
0.0
 11
3.46715
 21
0.16123
 31
0.0
  0
LINE
  8
0
 62
     0
 10
3.46715
 20
0.16123
 30
0.0
 11
3.15984
 21
0.221864
 31
0.0
  0
LINE
  8
0
 62
     0
 10
3.15984
 20
0.221864
 30
0.0
 11
2.85667
 21
0.307303
 31
0.0
  0
LINE
  8
0
 62
     0
 10
2.85667
 20
0.307303
 30
0.0
 11
2.56315
 21
0.416168
 31
0.0
  0
LINE
  8
0
 62
     0
 10
2.56315
 20
0.416168
 30
0.0
 11
2.2779
 21
0.547081
 31
0.0
  0
LINE
  8
0
 62
     0
 10
2.2779
 20
0.547081
 30
0.0
 11
2.00367
 21
0.701421
 31
0.0
  0
LINE
  8
0
 62
     0
 10
2.00367
 20
0.701421
 30
0.0
 11
1.74184
 21
0.875055
 31
0.0
  0
LINE
  8
0
 62
     0
 10
1.74184
 20
0.875055
 30
0.0
 11
1.49517
 21
1.07074
 31
0.0
  0
LINE
  8
0
 62
     0
 10
1.49517
 20
1.07074
 30
0.0
 11
1.26504
 21
1.28295
 31
0.0
  0
LINE
  8
0
 62
     0
 10
1.26504
 20
1.28295
 30
0.0
 11
1.05144
 21
1.51446
 31
0.0
  0
LINE
  8
0
 62
     0
 10
1.05144
 20
1.51446
 30
0.0
 11
0.857141
 21
1.76113
 31
0.0
  0
LINE
  8
0
 62
     0
 10
0.857141
 20
1.76113
 30
0.0
 11
0.682128
 21
2.02296
 31
0.0
  0
LINE
  8
0
 62
     0
 10
0.682128
 20
2.02296
 30
0.0
 11
0.529167
 21
2.29581
 31
0.0
  0
LINE
  8
0
 62
     0
 10
0.529167
 20
2.29581
 30
0.0
 11
0.398254
 21
2.58107
 31
0.0
  0
LINE
  8
0
 62
     0
 10
0.398254
 20
2.58107
 30
0.0
 11
0.289388
 21
2.87596
 31
0.0
  0
LINE
  8
0
 62
     0
 10
0.289388
 20
2.87596
 30
0.0
 11
0.20395
 21
3.17913
 31
0.0
  0
LINE
  8
0
 62
     0
 10
0.20395
 20
3.17913
 30
0.0
 11
0.143316
 21
3.48644
 31
0.0
  0
LINE
  8
0
 62
     0
 10
0.143316
 20
3.48644
 30
0.0
 11
0.106109
 21
3.79786
 31
0.0
  0
LINE
  8
0
 62
     0
 10
0.106109
 20
3.79786
 30
0.0
 11
0.0923286
 21
4.11208
 31
0.0
  0
LINE
  8
0
 62
     0
 10
0.0923286
 20
4.11208
 30
0.0
 11
0.0937066
 21
80.312
 31
0.0
  0
LINE
  8
0
 62
     0
 10
0.0937066
 20
80.312
 30
0.0
 11
0.106109
 21
80.6263
 31
0.0
  0
LINE
  8
0
 62
     0
 10
0.106109
 20
80.6263
 30
0.0
 11
0.143316
 21
80.9392
 31
0.0
  0
LINE
  8
0
 62
     0
 10
0.143316
 20
80.9392
 30
0.0
 11
0.20395
 21
81.2465
 31
0.0
  0
LINE
  8
0
 62
     0
 10
0.20395
 20
81.2465
 30
0.0
 11
0.289388
 21
81.5495
 31
0.0
  0
LINE
  8
0
 62
     0
 10
0.289388
 20
81.5495
 30
0.0
 11
0.398254
 21
81.843
 31
0.0
  0
LINE
  8
0
 62
     0
 10
0.398254
 20
81.843
 30
0.0
 11
0.529167
 21
82.1284
 31
0.0
  0
LINE
  8
0
 62
     0
 10
0.529167
 20
82.1284
 30
0.0
 11
0.682128
 21
82.4025
 31
0.0
  0
LINE
  8
0
 62
     0
 10
0.682128
 20
82.4025
 30
0.0
 11
0.857141
 21
82.6643
 31
0.0
  0
LINE
  8
0
 62
     0
 10
0.857141
 20
82.6643
 30
0.0
 11
1.05144
 21
82.9109
 31
0.0
  0
LINE
  8
0
 62
     0
 10
1.05144
 20
82.9109
 30
0.0
 11
1.26504
 21
83.1413
 31
0.0
  0
LINE
  8
0
 62
     0
 10
1.26504
 20
83.1413
 30
0.0
 11
1.49517
 21
83.3547
 31
0.0
  0
LINE
  8
0
 62
     0
 10
1.49517
 20
83.3547
 30
0.0
 11
1.74184
 21
83.5491
 31
0.0
  0
LINE
  8
0
 62
     0
 10
1.74184
 20
83.5491
 30
0.0
 11
2.00367
 21
83.724
 31
0.0
  0
LINE
  8
0
 62
     0
 10
2.00367
 20
83.724
 30
0.0
 11
2.2779
 21
83.8771
 31
0.0
  0
LINE
  8
0
 62
     0
 10
2.2779
 20
83.8771
 30
0.0
 11
2.56315
 21
84.008
 31
0.0
  0
LINE
  8
0
 62
     0
 10
2.56315
 20
84.008
 30
0.0
 11
2.85667
 21
84.1167
 31
0.0
  0
LINE
  8
0
 62
     0
 10
2.85667
 20
84.1167
 30
0.0
 11
3.15984
 21
84.2024
 31
0.0
  0
LINE
  8
0
 62
     0
 10
3.15984
 20
84.2024
 30
0.0
 11
3.46715
 21
84.2627
 31
0.0
  0
LINE
  8
0
 62
     0
 10
3.46715
 20
84.2627
 30
0.0
 11
3.77994
 21
84.3001
 31
0.0
  0
LINE
  8
0
 62
     0
 10
3.77994
 20
84.3001
 30
0.0
 11
4.09416
 21
84.3139
 31
0.0
  0
LINE
  8
0
 62
     0
 10
4.09416
 20
84.3139
 30
0.0
 11
270.794
 21
84.3125
 31
0.0
  0
LINE
  8
0
 62
     0
 10
87.5813
 20
20.6375
 30
0.0
 11
87.5813
 21
19.6371
 31
0.0
  0
LINE
  8
0
 62
     0
 10
87.5813
 20
19.6371
 30
0.0
 11
86.7805
 21
19.6371
 31
0.0
  0
LINE
  8
0
 62
     0
 10
86.7805
 20
19.6371
 30
0.0
 11
86.7805
 21
16.5378
 31
0.0
  0
LINE
  8
0
 62
     0
 10
86.7805
 20
16.5378
 30
0.0
 11
87.5813
 21
16.5378
 31
0.0
  0
LINE
  8
0
 62
     0
 10
87.5813
 20
16.5378
 30
0.0
 11
87.5813
 21
15.937
 31
0.0
  0
LINE
  8
0
 62
     0
 10
87.5813
 20
15.937
 30
0.0
 11
86.0062
 21
15.937
 31
0.0
  0
LINE
  8
0
 62
     0
 10
86.0062
 20
15.937
 30
0.0
 11
86.0062
 21
19.1671
 31
0.0
  0
LINE
  8
0
 62
     0
 10
86.0062
 20
19.1671
 30
0.0
 11
84.3305
 21
19.1671
 31
0.0
  0
LINE
  8
0
 62
     0
 10
84.3305
 20
19.1671
 30
0.0
 11
84.3305
 21
20.0877
 31
0.0
  0
LINE
  8
0
 62
     0
 10
84.3305
 20
20.0877
 30
0.0
 11
81.0313
 21
20.0877
 31
0.0
  0
LINE
  8
0
 62
     0
 10
81.0313
 20
20.0877
 30
0.0
 11
81.0313
 21
19.1671
 31
0.0
  0
LINE
  8
0
 62
     0
 10
81.0313
 20
19.1671
 30
0.0
 11
79.3556
 21
19.1671
 31
0.0
  0
LINE
  8
0
 62
     0
 10
79.3556
 20
19.1671
 30
0.0
 11
79.3556
 21
15.937
 31
0.0
  0
LINE
  8
0
 62
     0
 10
79.3556
 20
15.937
 30
0.0
 11
78.4807
 21
15.937
 31
0.0
  0
LINE
  8
0
 62
     0
 10
78.4807
 20
15.937
 30
0.0
 11
78.4807
 21
13.1368
 31
0.0
  0
LINE
  8
0
 62
     0
 10
78.4807
 20
13.1368
 30
0.0
 11
79.3556
 21
13.1368
 31
0.0
  0
LINE
  8
0
 62
     0
 10
79.3556
 20
13.1368
 30
0.0
 11
79.3556
 21
6.86816
 31
0.0
  0
LINE
  8
0
 62
     0
 10
79.3556
 20
6.86816
 30
0.0
 11
81.0313
 21
6.86816
 31
0.0
  0
LINE
  8
0
 62
     0
 10
81.0313
 20
6.86816
 30
0.0
 11
81.0313
 21
5.88698
 31
0.0
  0
LINE
  8
0
 62
     0
 10
81.0313
 20
5.88698
 30
0.0
 11
84.3305
 21
5.88698
 31
0.0
  0
LINE
  8
0
 62
     0
 10
84.3305
 20
5.88698
 30
0.0
 11
84.3305
 21
6.86816
 31
0.0
  0
LINE
  8
0
 62
     0
 10
84.3305
 20
6.86816
 30
0.0
 11
86.0062
 21
6.86816
 31
0.0
  0
LINE
  8
0
 62
     0
 10
86.0062
 20
6.86816
 30
0.0
 11
86.0062
 21
11.3371
 31
0.0
  0
LINE
  8
0
 62
     0
 10
86.0062
 20
11.3371
 30
0.0
 11
87.5813
 21
11.3371
 31
0.0
  0
LINE
  8
0
 62
     0
 10
87.5813
 20
11.3371
 30
0.0
 11
87.5813
 21
10.7377
 31
0.0
  0
LINE
  8
0
 62
     0
 10
87.5813
 20
10.7377
 30
0.0
 11
86.7805
 21
10.7377
 31
0.0
  0
LINE
  8
0
 62
     0
 10
86.7805
 20
10.7377
 30
0.0
 11
86.7805
 21
7.63707
 31
0.0
  0
LINE
  8
0
 62
     0
 10
86.7805
 20
7.63707
 30
0.0
 11
87.5813
 21
7.63707
 31
0.0
  0
LINE
  8
0
 62
     0
 10
87.5813
 20
7.63707
 30
0.0
 11
87.5813
 21
6.63801
 31
0.0
  0
LINE
  8
0
 62
     0
 10
87.5813
 20
6.63801
 30
0.0
 11
101.581
 21
6.63801
 31
0.0
  0
LINE
  8
0
 62
     0
 10
101.581
 20
6.63801
 30
0.0
 11
101.581
 21
7.63707
 31
0.0
  0
LINE
  8
0
 62
     0
 10
101.581
 20
7.63707
 30
0.0
 11
102.381
 21
7.63707
 31
0.0
  0
LINE
  8
0
 62
     0
 10
102.381
 20
7.63707
 30
0.0
 11
102.381
 21
10.7377
 31
0.0
  0
LINE
  8
0
 62
     0
 10
102.381
 20
10.7377
 30
0.0
 11
101.581
 21
10.7377
 31
0.0
  0
LINE
  8
0
 62
     0
 10
101.581
 20
10.7377
 30
0.0
 11
101.581
 21
11.3371
 31
0.0
  0
LINE
  8
0
 62
     0
 10
101.581
 20
11.3371
 30
0.0
 11
103.156
 21
11.3371
 31
0.0
  0
LINE
  8
0
 62
     0
 10
103.156
 20
11.3371
 30
0.0
 11
103.156
 21
6.86816
 31
0.0
  0
LINE
  8
0
 62
     0
 10
103.156
 20
6.86816
 30
0.0
 11
104.83
 21
6.86816
 31
0.0
  0
LINE
  8
0
 62
     0
 10
104.83
 20
6.86816
 30
0.0
 11
104.83
 21
5.88698
 31
0.0
  0
LINE
  8
0
 62
     0
 10
104.83
 20
5.88698
 30
0.0
 11
108.131
 21
5.88698
 31
0.0
  0
LINE
  8
0
 62
     0
 10
108.131
 20
5.88698
 30
0.0
 11
108.131
 21
6.86816
 31
0.0
  0
LINE
  8
0
 62
     0
 10
108.131
 20
6.86816
 30
0.0
 11
109.806
 21
6.86816
 31
0.0
  0
LINE
  8
0
 62
     0
 10
109.806
 20
6.86816
 30
0.0
 11
109.806
 21
13.1368
 31
0.0
  0
LINE
  8
0
 62
     0
 10
109.806
 20
13.1368
 30
0.0
 11
110.681
 21
13.1368
 31
0.0
  0
LINE
  8
0
 62
     0
 10
110.681
 20
13.1368
 30
0.0
 11
110.681
 21
15.937
 31
0.0
  0
LINE
  8
0
 62
     0
 10
110.681
 20
15.937
 30
0.0
 11
109.806
 21
15.937
 31
0.0
  0
LINE
  8
0
 62
     0
 10
109.806
 20
15.937
 30
0.0
 11
109.806
 21
19.1671
 31
0.0
  0
LINE
  8
0
 62
     0
 10
109.806
 20
19.1671
 30
0.0
 11
108.131
 21
19.1671
 31
0.0
  0
LINE
  8
0
 62
     0
 10
108.131
 20
19.1671
 30
0.0
 11
108.131
 21
20.0877
 31
0.0
  0
LINE
  8
0
 62
     0
 10
108.131
 20
20.0877
 30
0.0
 11
104.83
 21
20.0877
 31
0.0
  0
LINE
  8
0
 62
     0
 10
104.83
 20
20.0877
 30
0.0
 11
104.83
 21
19.1671
 31
0.0
  0
LINE
  8
0
 62
     0
 10
104.83
 20
19.1671
 30
0.0
 11
103.156
 21
19.1671
 31
0.0
  0
LINE
  8
0
 62
     0
 10
103.156
 20
19.1671
 30
0.0
 11
103.156
 21
15.937
 31
0.0
  0
LINE
  8
0
 62
     0
 10
103.156
 20
15.937
 30
0.0
 11
101.581
 21
15.937
 31
0.0
  0
LINE
  8
0
 62
     0
 10
101.581
 20
15.937
 30
0.0
 11
101.581
 21
16.5378
 31
0.0
  0
LINE
  8
0
 62
     0
 10
101.581
 20
16.5378
 30
0.0
 11
102.381
 21
16.5378
 31
0.0
  0
LINE
  8
0
 62
     0
 10
102.381
 20
16.5378
 30
0.0
 11
102.381
 21
19.6371
 31
0.0
  0
LINE
  8
0
 62
     0
 10
102.381
 20
19.6371
 30
0.0
 11
101.581
 21
19.6371
 31
0.0
  0
LINE
  8
0
 62
     0
 10
101.581
 20
19.6371
 30
0.0
 11
101.581
 21
20.6375
 31
0.0
  0
LINE
  8
0
 62
     0
 10
101.581
 20
20.6375
 30
0.0
 11
87.5813
 21
20.6375
 31
0.0
  0
LINE
  8
0
 62
     0
 10
144.731
 20
20.6375
 30
0.0
 11
144.731
 21
19.6371
 31
0.0
  0
LINE
  8
0
 62
     0
 10
144.731
 20
19.6371
 30
0.0
 11
143.931
 21
19.6371
 31
0.0
  0
LINE
  8
0
 62
     0
 10
143.931
 20
19.6371
 30
0.0
 11
143.931
 21
16.5378
 31
0.0
  0
LINE
  8
0
 62
     0
 10
143.931
 20
16.5378
 30
0.0
 11
144.731
 21
16.5378
 31
0.0
  0
LINE
  8
0
 62
     0
 10
144.731
 20
16.5378
 30
0.0
 11
144.731
 21
15.937
 31
0.0
  0
LINE
  8
0
 62
     0
 10
144.731
 20
15.937
 30
0.0
 11
143.156
 21
15.937
 31
0.0
  0
LINE
  8
0
 62
     0
 10
143.156
 20
15.937
 30
0.0
 11
143.156
 21
19.1671
 31
0.0
  0
LINE
  8
0
 62
     0
 10
143.156
 20
19.1671
 30
0.0
 11
141.48
 21
19.1671
 31
0.0
  0
LINE
  8
0
 62
     0
 10
141.48
 20
19.1671
 30
0.0
 11
141.48
 21
20.0877
 31
0.0
  0
LINE
  8
0
 62
     0
 10
141.48
 20
20.0877
 30
0.0
 11
138.181
 21
20.0877
 31
0.0
  0
LINE
  8
0
 62
     0
 10
138.181
 20
20.0877
 30
0.0
 11
138.181
 21
19.1671
 31
0.0
  0
LINE
  8
0
 62
     0
 10
138.181
 20
19.1671
 30
0.0
 11
136.506
 21
19.1671
 31
0.0
  0
LINE
  8
0
 62
     0
 10
136.506
 20
19.1671
 30
0.0
 11
136.506
 21
15.937
 31
0.0
  0
LINE
  8
0
 62
     0
 10
136.506
 20
15.937
 30
0.0
 11
135.631
 21
15.937
 31
0.0
  0
LINE
  8
0
 62
     0
 10
135.631
 20
15.937
 30
0.0
 11
135.631
 21
13.1368
 31
0.0
  0
LINE
  8
0
 62
     0
 10
135.631
 20
13.1368
 30
0.0
 11
136.506
 21
13.1368
 31
0.0
  0
LINE
  8
0
 62
     0
 10
136.506
 20
13.1368
 30
0.0
 11
136.506
 21
6.86816
 31
0.0
  0
LINE
  8
0
 62
     0
 10
136.506
 20
6.86816
 30
0.0
 11
138.181
 21
6.86816
 31
0.0
  0
LINE
  8
0
 62
     0
 10
138.181
 20
6.86816
 30
0.0
 11
138.181
 21
5.88698
 31
0.0
  0
LINE
  8
0
 62
     0
 10
138.181
 20
5.88698
 30
0.0
 11
141.48
 21
5.88698
 31
0.0
  0
LINE
  8
0
 62
     0
 10
141.48
 20
5.88698
 30
0.0
 11
141.48
 21
6.86816
 31
0.0
  0
LINE
  8
0
 62
     0
 10
141.48
 20
6.86816
 30
0.0
 11
143.156
 21
6.86816
 31
0.0
  0
LINE
  8
0
 62
     0
 10
143.156
 20
6.86816
 30
0.0
 11
143.156
 21
11.3371
 31
0.0
  0
LINE
  8
0
 62
     0
 10
143.156
 20
11.3371
 30
0.0
 11
144.731
 21
11.3371
 31
0.0
  0
LINE
  8
0
 62
     0
 10
144.731
 20
11.3371
 30
0.0
 11
144.731
 21
10.7377
 31
0.0
  0
LINE
  8
0
 62
     0
 10
144.731
 20
10.7377
 30
0.0
 11
143.931
 21
10.7377
 31
0.0
  0
LINE
  8
0
 62
     0
 10
143.931
 20
10.7377
 30
0.0
 11
143.931
 21
7.63707
 31
0.0
  0
LINE
  8
0
 62
     0
 10
143.931
 20
7.63707
 30
0.0
 11
144.731
 21
7.63707
 31
0.0
  0
LINE
  8
0
 62
     0
 10
144.731
 20
7.63707
 30
0.0
 11
144.731
 21
6.63801
 31
0.0
  0
LINE
  8
0
 62
     0
 10
144.731
 20
6.63801
 30
0.0
 11
158.731
 21
6.63801
 31
0.0
  0
LINE
  8
0
 62
     0
 10
158.731
 20
6.63801
 30
0.0
 11
158.731
 21
7.63707
 31
0.0
  0
LINE
  8
0
 62
     0
 10
158.731
 20
7.63707
 30
0.0
 11
159.531
 21
7.63707
 31
0.0
  0
LINE
  8
0
 62
     0
 10
159.531
 20
7.63707
 30
0.0
 11
159.531
 21
10.7377
 31
0.0
  0
LINE
  8
0
 62
     0
 10
159.531
 20
10.7377
 30
0.0
 11
158.731
 21
10.7377
 31
0.0
  0
LINE
  8
0
 62
     0
 10
158.731
 20
10.7377
 30
0.0
 11
158.731
 21
11.3371
 31
0.0
  0
LINE
  8
0
 62
     0
 10
158.731
 20
11.3371
 30
0.0
 11
160.306
 21
11.3371
 31
0.0
  0
LINE
  8
0
 62
     0
 10
160.306
 20
11.3371
 30
0.0
 11
160.306
 21
6.86816
 31
0.0
  0
LINE
  8
0
 62
     0
 10
160.306
 20
6.86816
 30
0.0
 11
161.98
 21
6.86816
 31
0.0
  0
LINE
  8
0
 62
     0
 10
161.98
 20
6.86816
 30
0.0
 11
161.98
 21
5.88698
 31
0.0
  0
LINE
  8
0
 62
     0
 10
161.98
 20
5.88698
 30
0.0
 11
165.281
 21
5.88698
 31
0.0
  0
LINE
  8
0
 62
     0
 10
165.281
 20
5.88698
 30
0.0
 11
165.281
 21
6.86816
 31
0.0
  0
LINE
  8
0
 62
     0
 10
165.281
 20
6.86816
 30
0.0
 11
166.956
 21
6.86816
 31
0.0
  0
LINE
  8
0
 62
     0
 10
166.956
 20
6.86816
 30
0.0
 11
166.956
 21
13.1368
 31
0.0
  0
LINE
  8
0
 62
     0
 10
166.956
 20
13.1368
 30
0.0
 11
167.831
 21
13.1368
 31
0.0
  0
LINE
  8
0
 62
     0
 10
167.831
 20
13.1368
 30
0.0
 11
167.831
 21
15.937
 31
0.0
  0
LINE
  8
0
 62
     0
 10
167.831
 20
15.937
 30
0.0
 11
166.956
 21
15.937
 31
0.0
  0
LINE
  8
0
 62
     0
 10
166.956
 20
15.937
 30
0.0
 11
166.956
 21
19.1671
 31
0.0
  0
LINE
  8
0
 62
     0
 10
166.956
 20
19.1671
 30
0.0
 11
165.281
 21
19.1671
 31
0.0
  0
LINE
  8
0
 62
     0
 10
165.281
 20
19.1671
 30
0.0
 11
165.281
 21
20.0877
 31
0.0
  0
LINE
  8
0
 62
     0
 10
165.281
 20
20.0877
 30
0.0
 11
161.98
 21
20.0877
 31
0.0
  0
LINE
  8
0
 62
     0
 10
161.98
 20
20.0877
 30
0.0
 11
161.98
 21
19.1671
 31
0.0
  0
LINE
  8
0
 62
     0
 10
161.98
 20
19.1671
 30
0.0
 11
160.306
 21
19.1671
 31
0.0
  0
LINE
  8
0
 62
     0
 10
160.306
 20
19.1671
 30
0.0
 11
160.306
 21
15.937
 31
0.0
  0
LINE
  8
0
 62
     0
 10
160.306
 20
15.937
 30
0.0
 11
158.731
 21
15.937
 31
0.0
  0
LINE
  8
0
 62
     0
 10
158.731
 20
15.937
 30
0.0
 11
158.731
 21
16.5378
 31
0.0
  0
LINE
  8
0
 62
     0
 10
158.731
 20
16.5378
 30
0.0
 11
159.531
 21
16.5378
 31
0.0
  0
LINE
  8
0
 62
     0
 10
159.531
 20
16.5378
 30
0.0
 11
159.531
 21
19.6371
 31
0.0
  0
LINE
  8
0
 62
     0
 10
159.531
 20
19.6371
 30
0.0
 11
158.731
 21
19.6371
 31
0.0
  0
LINE
  8
0
 62
     0
 10
158.731
 20
19.6371
 30
0.0
 11
158.731
 21
20.6375
 31
0.0
  0
LINE
  8
0
 62
     0
 10
158.731
 20
20.6375
 30
0.0
 11
144.731
 21
20.6375
 31
0.0
  0
LINE
  8
0
 62
     0
 10
8.99996
 20
20.6375
 30
0.0
 11
8.99996
 21
19.6371
 31
0.0
  0
LINE
  8
0
 62
     0
 10
8.99996
 20
19.6371
 30
0.0
 11
8.19933
 21
19.6371
 31
0.0
  0
LINE
  8
0
 62
     0
 10
8.19933
 20
19.6371
 30
0.0
 11
8.19933
 21
16.5378
 31
0.0
  0
LINE
  8
0
 62
     0
 10
8.19933
 20
16.5378
 30
0.0
 11
8.99996
 21
16.5378
 31
0.0
  0
LINE
  8
0
 62
     0
 10
8.99996
 20
16.5378
 30
0.0
 11
8.99996
 21
10.7377
 31
0.0
  0
LINE
  8
0
 62
     0
 10
8.99996
 20
10.7377
 30
0.0
 11
8.19933
 21
10.7377
 31
0.0
  0
LINE
  8
0
 62
     0
 10
8.19933
 20
10.7377
 30
0.0
 11
8.19933
 21
7.63707
 31
0.0
  0
LINE
  8
0
 62
     0
 10
8.19933
 20
7.63707
 30
0.0
 11
8.99996
 21
7.63707
 31
0.0
  0
LINE
  8
0
 62
     0
 10
8.99996
 20
7.63707
 30
0.0
 11
8.99996
 21
6.63801
 31
0.0
  0
LINE
  8
0
 62
     0
 10
8.99996
 20
6.63801
 30
0.0
 11
22.9995
 21
6.63801
 31
0.0
  0
LINE
  8
0
 62
     0
 10
22.9995
 20
6.63801
 30
0.0
 11
22.9995
 21
7.63707
 31
0.0
  0
LINE
  8
0
 62
     0
 10
22.9995
 20
7.63707
 30
0.0
 11
23.8001
 21
7.63707
 31
0.0
  0
LINE
  8
0
 62
     0
 10
23.8001
 20
7.63707
 30
0.0
 11
23.8001
 21
10.7377
 31
0.0
  0
LINE
  8
0
 62
     0
 10
23.8001
 20
10.7377
 30
0.0
 11
22.9995
 21
10.7377
 31
0.0
  0
LINE
  8
0
 62
     0
 10
22.9995
 20
10.7377
 30
0.0
 11
22.9995
 21
16.5378
 31
0.0
  0
LINE
  8
0
 62
     0
 10
22.9995
 20
16.5378
 30
0.0
 11
23.8001
 21
16.5378
 31
0.0
  0
LINE
  8
0
 62
     0
 10
23.8001
 20
16.5378
 30
0.0
 11
23.8001
 21
19.6371
 31
0.0
  0
LINE
  8
0
 62
     0
 10
23.8001
 20
19.6371
 30
0.0
 11
22.9995
 21
19.6371
 31
0.0
  0
LINE
  8
0
 62
     0
 10
22.9995
 20
19.6371
 30
0.0
 11
22.9995
 21
20.6375
 31
0.0
  0
LINE
  8
0
 62
     0
 10
22.9995
 20
20.6375
 30
0.0
 11
8.99996
 21
20.6375
 31
0.0
  0
LINE
  8
0
 62
     0
 10
32.8111
 20
20.6375
 30
0.0
 11
32.8111
 21
19.6371
 31
0.0
  0
LINE
  8
0
 62
     0
 10
32.8111
 20
19.6371
 30
0.0
 11
32.0118
 21
19.6371
 31
0.0
  0
LINE
  8
0
 62
     0
 10
32.0118
 20
19.6371
 30
0.0
 11
32.0118
 21
16.5378
 31
0.0
  0
LINE
  8
0
 62
     0
 10
32.0118
 20
16.5378
 30
0.0
 11
32.8111
 21
16.5378
 31
0.0
  0
LINE
  8
0
 62
     0
 10
32.8111
 20
16.5378
 30
0.0
 11
32.8111
 21
10.7377
 31
0.0
  0
LINE
  8
0
 62
     0
 10
32.8111
 20
10.7377
 30
0.0
 11
32.0118
 21
10.7377
 31
0.0
  0
LINE
  8
0
 62
     0
 10
32.0118
 20
10.7377
 30
0.0
 11
32.0118
 21
7.63707
 31
0.0
  0
LINE
  8
0
 62
     0
 10
32.0118
 20
7.63707
 30
0.0
 11
32.8111
 21
7.63707
 31
0.0
  0
LINE
  8
0
 62
     0
 10
32.8111
 20
7.63707
 30
0.0
 11
32.8111
 21
6.63801
 31
0.0
  0
LINE
  8
0
 62
     0
 10
32.8111
 20
6.63801
 30
0.0
 11
46.8118
 21
6.63801
 31
0.0
  0
LINE
  8
0
 62
     0
 10
46.8118
 20
6.63801
 30
0.0
 11
46.8118
 21
7.63707
 31
0.0
  0
LINE
  8
0
 62
     0
 10
46.8118
 20
7.63707
 30
0.0
 11
47.6112
 21
7.63707
 31
0.0
  0
LINE
  8
0
 62
     0
 10
47.6112
 20
7.63707
 30
0.0
 11
47.6112
 21
10.7377
 31
0.0
  0
LINE
  8
0
 62
     0
 10
47.6112
 20
10.7377
 30
0.0
 11
46.8118
 21
10.7377
 31
0.0
  0
LINE
  8
0
 62
     0
 10
46.8118
 20
10.7377
 30
0.0
 11
46.8118
 21
16.5378
 31
0.0
  0
LINE
  8
0
 62
     0
 10
46.8118
 20
16.5378
 30
0.0
 11
47.6112
 21
16.5378
 31
0.0
  0
LINE
  8
0
 62
     0
 10
47.6112
 20
16.5378
 30
0.0
 11
47.6112
 21
19.6371
 31
0.0
  0
LINE
  8
0
 62
     0
 10
47.6112
 20
19.6371
 30
0.0
 11
46.8118
 21
19.6371
 31
0.0
  0
LINE
  8
0
 62
     0
 10
46.8118
 20
19.6371
 30
0.0
 11
46.8118
 21
20.6375
 31
0.0
  0
LINE
  8
0
 62
     0
 10
46.8118
 20
20.6375
 30
0.0
 11
32.8111
 21
20.6375
 31
0.0
  0
LINE
  8
0
 62
     0
 10
56.6251
 20
20.6375
 30
0.0
 11
56.6251
 21
19.6371
 31
0.0
  0
LINE
  8
0
 62
     0
 10
56.6251
 20
19.6371
 30
0.0
 11
55.8243
 21
19.6371
 31
0.0
  0
LINE
  8
0
 62
     0
 10
55.8243
 20
19.6371
 30
0.0
 11
55.8243
 21
16.5378
 31
0.0
  0
LINE
  8
0
 62
     0
 10
55.8243
 20
16.5378
 30
0.0
 11
56.6251
 21
16.5378
 31
0.0
  0
LINE
  8
0
 62
     0
 10
56.6251
 20
16.5378
 30
0.0
 11
56.6251
 21
10.7377
 31
0.0
  0
LINE
  8
0
 62
     0
 10
56.6251
 20
10.7377
 30
0.0
 11
55.8243
 21
10.7377
 31
0.0
  0
LINE
  8
0
 62
     0
 10
55.8243
 20
10.7377
 30
0.0
 11
55.8243
 21
7.63707
 31
0.0
  0
LINE
  8
0
 62
     0
 10
55.8243
 20
7.63707
 30
0.0
 11
56.6251
 21
7.63707
 31
0.0
  0
LINE
  8
0
 62
     0
 10
56.6251
 20
7.63707
 30
0.0
 11
56.6251
 21
6.63801
 31
0.0
  0
LINE
  8
0
 62
     0
 10
56.6251
 20
6.63801
 30
0.0
 11
70.6244
 21
6.63801
 31
0.0
  0
LINE
  8
0
 62
     0
 10
70.6244
 20
6.63801
 30
0.0
 11
70.6244
 21
7.63707
 31
0.0
  0
LINE
  8
0
 62
     0
 10
70.6244
 20
7.63707
 30
0.0
 11
71.4252
 21
7.63707
 31
0.0
  0
LINE
  8
0
 62
     0
 10
71.4252
 20
7.63707
 30
0.0
 11
71.4252
 21
10.7377
 31
0.0
  0
LINE
  8
0
 62
     0
 10
71.4252
 20
10.7377
 30
0.0
 11
70.6244
 21
10.7377
 31
0.0
  0
LINE
  8
0
 62
     0
 10
70.6244
 20
10.7377
 30
0.0
 11
70.6244
 21
16.5378
 31
0.0
  0
LINE
  8
0
 62
     0
 10
70.6244
 20
16.5378
 30
0.0
 11
71.4252
 21
16.5378
 31
0.0
  0
LINE
  8
0
 62
     0
 10
71.4252
 20
16.5378
 30
0.0
 11
71.4252
 21
19.6371
 31
0.0
  0
LINE
  8
0
 62
     0
 10
71.4252
 20
19.6371
 30
0.0
 11
70.6244
 21
19.6371
 31
0.0
  0
LINE
  8
0
 62
     0
 10
70.6244
 20
19.6371
 30
0.0
 11
70.6244
 21
20.6375
 31
0.0
  0
LINE
  8
0
 62
     0
 10
70.6244
 20
20.6375
 30
0.0
 11
56.6251
 21
20.6375
 31
0.0
  0
LINE
  8
0
 62
     0
 10
116.156
 20
20.6375
 30
0.0
 11
116.156
 21
19.6371
 31
0.0
  0
LINE
  8
0
 62
     0
 10
116.156
 20
19.6371
 30
0.0
 11
115.356
 21
19.6371
 31
0.0
  0
LINE
  8
0
 62
     0
 10
115.356
 20
19.6371
 30
0.0
 11
115.356
 21
16.5378
 31
0.0
  0
LINE
  8
0
 62
     0
 10
115.356
 20
16.5378
 30
0.0
 11
116.156
 21
16.5378
 31
0.0
  0
LINE
  8
0
 62
     0
 10
116.156
 20
16.5378
 30
0.0
 11
116.156
 21
10.7377
 31
0.0
  0
LINE
  8
0
 62
     0
 10
116.156
 20
10.7377
 30
0.0
 11
115.356
 21
10.7377
 31
0.0
  0
LINE
  8
0
 62
     0
 10
115.356
 20
10.7377
 30
0.0
 11
115.356
 21
7.63707
 31
0.0
  0
LINE
  8
0
 62
     0
 10
115.356
 20
7.63707
 30
0.0
 11
116.156
 21
7.63707
 31
0.0
  0
LINE
  8
0
 62
     0
 10
116.156
 20
7.63707
 30
0.0
 11
116.156
 21
6.63801
 31
0.0
  0
LINE
  8
0
 62
     0
 10
116.156
 20
6.63801
 30
0.0
 11
130.156
 21
6.63801
 31
0.0
  0
LINE
  8
0
 62
     0
 10
130.156
 20
6.63801
 30
0.0
 11
130.156
 21
7.63707
 31
0.0
  0
LINE
  8
0
 62
     0
 10
130.156
 20
7.63707
 30
0.0
 11
130.956
 21
7.63707
 31
0.0
  0
LINE
  8
0
 62
     0
 10
130.956
 20
7.63707
 30
0.0
 11
130.956
 21
10.7377
 31
0.0
  0
LINE
  8
0
 62
     0
 10
130.956
 20
10.7377
 30
0.0
 11
130.156
 21
10.7377
 31
0.0
  0
LINE
  8
0
 62
     0
 10
130.156
 20
10.7377
 30
0.0
 11
130.156
 21
16.5378
 31
0.0
  0
LINE
  8
0
 62
     0
 10
130.156
 20
16.5378
 30
0.0
 11
130.956
 21
16.5378
 31
0.0
  0
LINE
  8
0
 62
     0
 10
130.956
 20
16.5378
 30
0.0
 11
130.956
 21
19.6371
 31
0.0
  0
LINE
  8
0
 62
     0
 10
130.956
 20
19.6371
 30
0.0
 11
130.156
 21
19.6371
 31
0.0
  0
LINE
  8
0
 62
     0
 10
130.156
 20
19.6371
 30
0.0
 11
130.156
 21
20.6375
 31
0.0
  0
LINE
  8
0
 62
     0
 10
130.156
 20
20.6375
 30
0.0
 11
116.156
 21
20.6375
 31
0.0
  0
LINE
  8
0
 62
     0
 10
173.306
 20
20.6375
 30
0.0
 11
173.306
 21
19.6371
 31
0.0
  0
LINE
  8
0
 62
     0
 10
173.306
 20
19.6371
 30
0.0
 11
172.506
 21
19.6371
 31
0.0
  0
LINE
  8
0
 62
     0
 10
172.506
 20
19.6371
 30
0.0
 11
172.506
 21
16.5378
 31
0.0
  0
LINE
  8
0
 62
     0
 10
172.506
 20
16.5378
 30
0.0
 11
173.306
 21
16.5378
 31
0.0
  0
LINE
  8
0
 62
     0
 10
173.306
 20
16.5378
 30
0.0
 11
173.306
 21
10.7377
 31
0.0
  0
LINE
  8
0
 62
     0
 10
173.306
 20
10.7377
 30
0.0
 11
172.506
 21
10.7377
 31
0.0
  0
LINE
  8
0
 62
     0
 10
172.506
 20
10.7377
 30
0.0
 11
172.506
 21
7.63707
 31
0.0
  0
LINE
  8
0
 62
     0
 10
172.506
 20
7.63707
 30
0.0
 11
173.306
 21
7.63707
 31
0.0
  0
LINE
  8
0
 62
     0
 10
173.306
 20
7.63707
 30
0.0
 11
173.306
 21
6.63801
 31
0.0
  0
LINE
  8
0
 62
     0
 10
173.306
 20
6.63801
 30
0.0
 11
187.306
 21
6.63801
 31
0.0
  0
LINE
  8
0
 62
     0
 10
187.306
 20
6.63801
 30
0.0
 11
187.306
 21
7.63707
 31
0.0
  0
LINE
  8
0
 62
     0
 10
187.306
 20
7.63707
 30
0.0
 11
188.106
 21
7.63707
 31
0.0
  0
LINE
  8
0
 62
     0
 10
188.106
 20
7.63707
 30
0.0
 11
188.106
 21
10.7377
 31
0.0
  0
LINE
  8
0
 62
     0
 10
188.106
 20
10.7377
 30
0.0
 11
187.306
 21
10.7377
 31
0.0
  0
LINE
  8
0
 62
     0
 10
187.306
 20
10.7377
 30
0.0
 11
187.306
 21
16.5378
 31
0.0
  0
LINE
  8
0
 62
     0
 10
187.306
 20
16.5378
 30
0.0
 11
188.106
 21
16.5378
 31
0.0
  0
LINE
  8
0
 62
     0
 10
188.106
 20
16.5378
 30
0.0
 11
188.106
 21
19.6371
 31
0.0
  0
LINE
  8
0
 62
     0
 10
188.106
 20
19.6371
 30
0.0
 11
187.306
 21
19.6371
 31
0.0
  0
LINE
  8
0
 62
     0
 10
187.306
 20
19.6371
 30
0.0
 11
187.306
 21
20.6375
 31
0.0
  0
LINE
  8
0
 62
     0
 10
187.306
 20
20.6375
 30
0.0
 11
173.306
 21
20.6375
 31
0.0
  0
LINE
  8
0
 62
     0
 10
192.356
 20
20.6375
 30
0.0
 11
192.356
 21
19.6371
 31
0.0
  0
LINE
  8
0
 62
     0
 10
192.356
 20
19.6371
 30
0.0
 11
191.556
 21
19.6371
 31
0.0
  0
LINE
  8
0
 62
     0
 10
191.556
 20
19.6371
 30
0.0
 11
191.556
 21
16.5378
 31
0.0
  0
LINE
  8
0
 62
     0
 10
191.556
 20
16.5378
 30
0.0
 11
192.356
 21
16.5378
 31
0.0
  0
LINE
  8
0
 62
     0
 10
192.356
 20
16.5378
 30
0.0
 11
192.356
 21
10.7377
 31
0.0
  0
LINE
  8
0
 62
     0
 10
192.356
 20
10.7377
 30
0.0
 11
191.556
 21
10.7377
 31
0.0
  0
LINE
  8
0
 62
     0
 10
191.556
 20
10.7377
 30
0.0
 11
191.556
 21
7.63707
 31
0.0
  0
LINE
  8
0
 62
     0
 10
191.556
 20
7.63707
 30
0.0
 11
192.356
 21
7.63707
 31
0.0
  0
LINE
  8
0
 62
     0
 10
192.356
 20
7.63707
 30
0.0
 11
192.356
 21
6.63801
 31
0.0
  0
LINE
  8
0
 62
     0
 10
192.356
 20
6.63801
 30
0.0
 11
206.356
 21
6.63801
 31
0.0
  0
LINE
  8
0
 62
     0
 10
206.356
 20
6.63801
 30
0.0
 11
206.356
 21
7.63707
 31
0.0
  0
LINE
  8
0
 62
     0
 10
206.356
 20
7.63707
 30
0.0
 11
207.156
 21
7.63707
 31
0.0
  0
LINE
  8
0
 62
     0
 10
207.156
 20
7.63707
 30
0.0
 11
207.156
 21
10.7377
 31
0.0
  0
LINE
  8
0
 62
     0
 10
207.156
 20
10.7377
 30
0.0
 11
206.356
 21
10.7377
 31
0.0
  0
LINE
  8
0
 62
     0
 10
206.356
 20
10.7377
 30
0.0
 11
206.356
 21
16.5378
 31
0.0
  0
LINE
  8
0
 62
     0
 10
206.356
 20
16.5378
 30
0.0
 11
207.156
 21
16.5378
 31
0.0
  0
LINE
  8
0
 62
     0
 10
207.156
 20
16.5378
 30
0.0
 11
207.156
 21
19.6371
 31
0.0
  0
LINE
  8
0
 62
     0
 10
207.156
 20
19.6371
 30
0.0
 11
206.356
 21
19.6371
 31
0.0
  0
LINE
  8
0
 62
     0
 10
206.356
 20
19.6371
 30
0.0
 11
206.356
 21
20.6375
 31
0.0
  0
LINE
  8
0
 62
     0
 10
206.356
 20
20.6375
 30
0.0
 11
192.356
 21
20.6375
 31
0.0
  0
LINE
  8
0
 62
     0
 10
211.406
 20
20.6375
 30
0.0
 11
211.406
 21
19.6371
 31
0.0
  0
LINE
  8
0
 62
     0
 10
211.406
 20
19.6371
 30
0.0
 11
210.606
 21
19.6371
 31
0.0
  0
LINE
  8
0
 62
     0
 10
210.606
 20
19.6371
 30
0.0
 11
210.606
 21
16.5378
 31
0.0
  0
LINE
  8
0
 62
     0
 10
210.606
 20
16.5378
 30
0.0
 11
211.406
 21
16.5378
 31
0.0
  0
LINE
  8
0
 62
     0
 10
211.406
 20
16.5378
 30
0.0
 11
211.406
 21
10.7377
 31
0.0
  0
LINE
  8
0
 62
     0
 10
211.406
 20
10.7377
 30
0.0
 11
210.606
 21
10.7377
 31
0.0
  0
LINE
  8
0
 62
     0
 10
210.606
 20
10.7377
 30
0.0
 11
210.606
 21
7.63707
 31
0.0
  0
LINE
  8
0
 62
     0
 10
210.606
 20
7.63707
 30
0.0
 11
211.406
 21
7.63707
 31
0.0
  0
LINE
  8
0
 62
     0
 10
211.406
 20
7.63707
 30
0.0
 11
211.406
 21
6.63801
 31
0.0
  0
LINE
  8
0
 62
     0
 10
211.406
 20
6.63801
 30
0.0
 11
225.406
 21
6.63801
 31
0.0
  0
LINE
  8
0
 62
     0
 10
225.406
 20
6.63801
 30
0.0
 11
225.406
 21
7.63707
 31
0.0
  0
LINE
  8
0
 62
     0
 10
225.406
 20
7.63707
 30
0.0
 11
226.206
 21
7.63707
 31
0.0
  0
LINE
  8
0
 62
     0
 10
226.206
 20
7.63707
 30
0.0
 11
226.206
 21
10.7377
 31
0.0
  0
LINE
  8
0
 62
     0
 10
226.206
 20
10.7377
 30
0.0
 11
225.406
 21
10.7377
 31
0.0
  0
LINE
  8
0
 62
     0
 10
225.406
 20
10.7377
 30
0.0
 11
225.406
 21
16.5378
 31
0.0
  0
LINE
  8
0
 62
     0
 10
225.406
 20
16.5378
 30
0.0
 11
226.206
 21
16.5378
 31
0.0
  0
LINE
  8
0
 62
     0
 10
226.206
 20
16.5378
 30
0.0
 11
226.206
 21
19.6371
 31
0.0
  0
LINE
  8
0
 62
     0
 10
226.206
 20
19.6371
 30
0.0
 11
225.406
 21
19.6371
 31
0.0
  0
LINE
  8
0
 62
     0
 10
225.406
 20
19.6371
 30
0.0
 11
225.406
 21
20.6375
 31
0.0
  0
LINE
  8
0
 62
     0
 10
225.406
 20
20.6375
 30
0.0
 11
211.406
 21
20.6375
 31
0.0
  0
LINE
  8
0
 62
     0
 10
230.456
 20
20.6375
 30
0.0
 11
230.456
 21
19.6371
 31
0.0
  0
LINE
  8
0
 62
     0
 10
230.456
 20
19.6371
 30
0.0
 11
229.656
 21
19.6371
 31
0.0
  0
LINE
  8
0
 62
     0
 10
229.656
 20
19.6371
 30
0.0
 11
229.656
 21
16.5378
 31
0.0
  0
LINE
  8
0
 62
     0
 10
229.656
 20
16.5378
 30
0.0
 11
230.456
 21
16.5378
 31
0.0
  0
LINE
  8
0
 62
     0
 10
230.456
 20
16.5378
 30
0.0
 11
230.456
 21
10.7377
 31
0.0
  0
LINE
  8
0
 62
     0
 10
230.456
 20
10.7377
 30
0.0
 11
229.656
 21
10.7377
 31
0.0
  0
LINE
  8
0
 62
     0
 10
229.656
 20
10.7377
 30
0.0
 11
229.656
 21
7.63707
 31
0.0
  0
LINE
  8
0
 62
     0
 10
229.656
 20
7.63707
 30
0.0
 11
230.456
 21
7.63707
 31
0.0
  0
LINE
  8
0
 62
     0
 10
230.456
 20
7.63707
 30
0.0
 11
230.456
 21
6.63801
 31
0.0
  0
LINE
  8
0
 62
     0
 10
230.456
 20
6.63801
 30
0.0
 11
244.456
 21
6.63801
 31
0.0
  0
LINE
  8
0
 62
     0
 10
244.456
 20
6.63801
 30
0.0
 11
244.456
 21
7.63707
 31
0.0
  0
LINE
  8
0
 62
     0
 10
244.456
 20
7.63707
 30
0.0
 11
245.256
 21
7.63707
 31
0.0
  0
LINE
  8
0
 62
     0
 10
245.256
 20
7.63707
 30
0.0
 11
245.256
 21
10.7377
 31
0.0
  0
LINE
  8
0
 62
     0
 10
245.256
 20
10.7377
 30
0.0
 11
244.456
 21
10.7377
 31
0.0
  0
LINE
  8
0
 62
     0
 10
244.456
 20
10.7377
 30
0.0
 11
244.456
 21
16.5378
 31
0.0
  0
LINE
  8
0
 62
     0
 10
244.456
 20
16.5378
 30
0.0
 11
245.256
 21
16.5378
 31
0.0
  0
LINE
  8
0
 62
     0
 10
245.256
 20
16.5378
 30
0.0
 11
245.256
 21
19.6371
 31
0.0
  0
LINE
  8
0
 62
     0
 10
245.256
 20
19.6371
 30
0.0
 11
244.456
 21
19.6371
 31
0.0
  0
LINE
  8
0
 62
     0
 10
244.456
 20
19.6371
 30
0.0
 11
244.456
 21
20.6375
 31
0.0
  0
LINE
  8
0
 62
     0
 10
244.456
 20
20.6375
 30
0.0
 11
230.456
 21
20.6375
 31
0.0
  0
LINE
  8
0
 62
     0
 10
251.886
 20
20.6375
 30
0.0
 11
251.886
 21
19.6371
 31
0.0
  0
LINE
  8
0
 62
     0
 10
251.886
 20
19.6371
 30
0.0
 11
251.087
 21
19.6371
 31
0.0
  0
LINE
  8
0
 62
     0
 10
251.087
 20
19.6371
 30
0.0
 11
251.087
 21
16.5378
 31
0.0
  0
LINE
  8
0
 62
     0
 10
251.087
 20
16.5378
 30
0.0
 11
251.886
 21
16.5378
 31
0.0
  0
LINE
  8
0
 62
     0
 10
251.886
 20
16.5378
 30
0.0
 11
251.886
 21
10.7377
 31
0.0
  0
LINE
  8
0
 62
     0
 10
251.886
 20
10.7377
 30
0.0
 11
251.087
 21
10.7377
 31
0.0
  0
LINE
  8
0
 62
     0
 10
251.087
 20
10.7377
 30
0.0
 11
251.087
 21
7.63707
 31
0.0
  0
LINE
  8
0
 62
     0
 10
251.087
 20
7.63707
 30
0.0
 11
251.886
 21
7.63707
 31
0.0
  0
LINE
  8
0
 62
     0
 10
251.886
 20
7.63707
 30
0.0
 11
251.886
 21
6.63801
 31
0.0
  0
LINE
  8
0
 62
     0
 10
251.886
 20
6.63801
 30
0.0
 11
265.887
 21
6.63801
 31
0.0
  0
LINE
  8
0
 62
     0
 10
265.887
 20
6.63801
 30
0.0
 11
265.887
 21
7.63707
 31
0.0
  0
LINE
  8
0
 62
     0
 10
265.887
 20
7.63707
 30
0.0
 11
266.686
 21
7.63707
 31
0.0
  0
LINE
  8
0
 62
     0
 10
266.686
 20
7.63707
 30
0.0
 11
266.686
 21
10.7377
 31
0.0
  0
LINE
  8
0
 62
     0
 10
266.686
 20
10.7377
 30
0.0
 11
265.887
 21
10.7377
 31
0.0
  0
LINE
  8
0
 62
     0
 10
265.887
 20
10.7377
 30
0.0
 11
265.887
 21
16.5378
 31
0.0
  0
LINE
  8
0
 62
     0
 10
265.887
 20
16.5378
 30
0.0
 11
266.686
 21
16.5378
 31
0.0
  0
LINE
  8
0
 62
     0
 10
266.686
 20
16.5378
 30
0.0
 11
266.686
 21
19.6371
 31
0.0
  0
LINE
  8
0
 62
     0
 10
266.686
 20
19.6371
 30
0.0
 11
265.887
 21
19.6371
 31
0.0
  0
LINE
  8
0
 62
     0
 10
265.887
 20
19.6371
 30
0.0
 11
265.887
 21
20.6375
 31
0.0
  0
LINE
  8
0
 62
     0
 10
265.887
 20
20.6375
 30
0.0
 11
251.886
 21
20.6375
 31
0.0
  0
LINE
  8
0
 62
     0
 10
242.361
 20
39.6875
 30
0.0
 11
242.361
 21
38.687
 31
0.0
  0
LINE
  8
0
 62
     0
 10
242.361
 20
38.687
 30
0.0
 11
241.562
 21
38.687
 31
0.0
  0
LINE
  8
0
 62
     0
 10
241.562
 20
38.687
 30
0.0
 11
241.562
 21
35.5879
 31
0.0
  0
LINE
  8
0
 62
     0
 10
241.562
 20
35.5879
 30
0.0
 11
242.361
 21
35.5879
 31
0.0
  0
LINE
  8
0
 62
     0
 10
242.361
 20
35.5879
 30
0.0
 11
242.361
 21
34.987
 31
0.0
  0
LINE
  8
0
 62
     0
 10
242.361
 20
34.987
 30
0.0
 11
240.787
 21
34.987
 31
0.0
  0
LINE
  8
0
 62
     0
 10
240.787
 20
34.987
 30
0.0
 11
240.787
 21
38.2171
 31
0.0
  0
LINE
  8
0
 62
     0
 10
240.787
 20
38.2171
 30
0.0
 11
239.112
 21
38.2171
 31
0.0
  0
LINE
  8
0
 62
     0
 10
239.112
 20
38.2171
 30
0.0
 11
239.112
 21
39.1375
 31
0.0
  0
LINE
  8
0
 62
     0
 10
239.112
 20
39.1375
 30
0.0
 11
235.811
 21
39.1375
 31
0.0
  0
LINE
  8
0
 62
     0
 10
235.811
 20
39.1375
 30
0.0
 11
235.811
 21
38.2171
 31
0.0
  0
LINE
  8
0
 62
     0
 10
235.811
 20
38.2171
 30
0.0
 11
234.137
 21
38.2171
 31
0.0
  0
LINE
  8
0
 62
     0
 10
234.137
 20
38.2171
 30
0.0
 11
234.137
 21
34.987
 31
0.0
  0
LINE
  8
0
 62
     0
 10
234.137
 20
34.987
 30
0.0
 11
233.262
 21
34.987
 31
0.0
  0
LINE
  8
0
 62
     0
 10
233.262
 20
34.987
 30
0.0
 11
233.262
 21
32.1868
 31
0.0
  0
LINE
  8
0
 62
     0
 10
233.262
 20
32.1868
 30
0.0
 11
234.137
 21
32.1868
 31
0.0
  0
LINE
  8
0
 62
     0
 10
234.137
 20
32.1868
 30
0.0
 11
234.137
 21
25.9182
 31
0.0
  0
LINE
  8
0
 62
     0
 10
234.137
 20
25.9182
 30
0.0
 11
235.811
 21
25.9182
 31
0.0
  0
LINE
  8
0
 62
     0
 10
235.811
 20
25.9182
 30
0.0
 11
235.811
 21
24.937
 31
0.0
  0
LINE
  8
0
 62
     0
 10
235.811
 20
24.937
 30
0.0
 11
239.112
 21
24.937
 31
0.0
  0
LINE
  8
0
 62
     0
 10
239.112
 20
24.937
 30
0.0
 11
239.112
 21
25.9182
 31
0.0
  0
LINE
  8
0
 62
     0
 10
239.112
 20
25.9182
 30
0.0
 11
240.787
 21
25.9182
 31
0.0
  0
LINE
  8
0
 62
     0
 10
240.787
 20
25.9182
 30
0.0
 11
240.787
 21
30.3871
 31
0.0
  0
LINE
  8
0
 62
     0
 10
240.787
 20
30.3871
 30
0.0
 11
242.361
 21
30.3871
 31
0.0
  0
LINE
  8
0
 62
     0
 10
242.361
 20
30.3871
 30
0.0
 11
242.361
 21
29.7877
 31
0.0
  0
LINE
  8
0
 62
     0
 10
242.361
 20
29.7877
 30
0.0
 11
241.562
 21
29.7877
 31
0.0
  0
LINE
  8
0
 62
     0
 10
241.562
 20
29.7877
 30
0.0
 11
241.562
 21
26.6871
 31
0.0
  0
LINE
  8
0
 62
     0
 10
241.562
 20
26.6871
 30
0.0
 11
242.361
 21
26.6871
 31
0.0
  0
LINE
  8
0
 62
     0
 10
242.361
 20
26.6871
 30
0.0
 11
242.361
 21
25.688
 31
0.0
  0
LINE
  8
0
 62
     0
 10
242.361
 20
25.688
 30
0.0
 11
256.36
 21
25.688
 31
0.0
  0
LINE
  8
0
 62
     0
 10
256.36
 20
25.688
 30
0.0
 11
256.36
 21
26.6871
 31
0.0
  0
LINE
  8
0
 62
     0
 10
256.36
 20
26.6871
 30
0.0
 11
257.161
 21
26.6871
 31
0.0
  0
LINE
  8
0
 62
     0
 10
257.161
 20
26.6871
 30
0.0
 11
257.161
 21
29.7877
 31
0.0
  0
LINE
  8
0
 62
     0
 10
257.161
 20
29.7877
 30
0.0
 11
256.36
 21
29.7877
 31
0.0
  0
LINE
  8
0
 62
     0
 10
256.36
 20
29.7877
 30
0.0
 11
256.36
 21
30.3871
 31
0.0
  0
LINE
  8
0
 62
     0
 10
256.36
 20
30.3871
 30
0.0
 11
257.937
 21
30.3871
 31
0.0
  0
LINE
  8
0
 62
     0
 10
257.937
 20
30.3871
 30
0.0
 11
257.937
 21
25.9182
 31
0.0
  0
LINE
  8
0
 62
     0
 10
257.937
 20
25.9182
 30
0.0
 11
259.611
 21
25.9182
 31
0.0
  0
LINE
  8
0
 62
     0
 10
259.611
 20
25.9182
 30
0.0
 11
259.611
 21
24.937
 31
0.0
  0
LINE
  8
0
 62
     0
 10
259.611
 20
24.937
 30
0.0
 11
262.912
 21
24.937
 31
0.0
  0
LINE
  8
0
 62
     0
 10
262.912
 20
24.937
 30
0.0
 11
262.912
 21
25.9182
 31
0.0
  0
LINE
  8
0
 62
     0
 10
262.912
 20
25.9182
 30
0.0
 11
264.586
 21
25.9182
 31
0.0
  0
LINE
  8
0
 62
     0
 10
264.586
 20
25.9182
 30
0.0
 11
264.586
 21
32.1868
 31
0.0
  0
LINE
  8
0
 62
     0
 10
264.586
 20
32.1868
 30
0.0
 11
265.461
 21
32.1868
 31
0.0
  0
LINE
  8
0
 62
     0
 10
265.461
 20
32.1868
 30
0.0
 11
265.461
 21
34.987
 31
0.0
  0
LINE
  8
0
 62
     0
 10
265.461
 20
34.987
 30
0.0
 11
264.586
 21
34.987
 31
0.0
  0
LINE
  8
0
 62
     0
 10
264.586
 20
34.987
 30
0.0
 11
264.586
 21
38.2171
 31
0.0
  0
LINE
  8
0
 62
     0
 10
264.586
 20
38.2171
 30
0.0
 11
262.912
 21
38.2171
 31
0.0
  0
LINE
  8
0
 62
     0
 10
262.912
 20
38.2171
 30
0.0
 11
262.912
 21
39.1375
 31
0.0
  0
LINE
  8
0
 62
     0
 10
262.912
 20
39.1375
 30
0.0
 11
259.611
 21
39.1375
 31
0.0
  0
LINE
  8
0
 62
     0
 10
259.611
 20
39.1375
 30
0.0
 11
259.611
 21
38.2171
 31
0.0
  0
LINE
  8
0
 62
     0
 10
259.611
 20
38.2171
 30
0.0
 11
257.937
 21
38.2171
 31
0.0
  0
LINE
  8
0
 62
     0
 10
257.937
 20
38.2171
 30
0.0
 11
257.937
 21
34.987
 31
0.0
  0
LINE
  8
0
 62
     0
 10
257.937
 20
34.987
 30
0.0
 11
256.36
 21
34.987
 31
0.0
  0
LINE
  8
0
 62
     0
 10
256.36
 20
34.987
 30
0.0
 11
256.36
 21
35.5879
 31
0.0
  0
LINE
  8
0
 62
     0
 10
256.36
 20
35.5879
 30
0.0
 11
257.161
 21
35.5879
 31
0.0
  0
LINE
  8
0
 62
     0
 10
257.161
 20
35.5879
 30
0.0
 11
257.161
 21
38.687
 31
0.0
  0
LINE
  8
0
 62
     0
 10
257.161
 20
38.687
 30
0.0
 11
256.36
 21
38.687
 31
0.0
  0
LINE
  8
0
 62
     0
 10
256.36
 20
38.687
 30
0.0
 11
256.36
 21
39.6875
 31
0.0
  0
LINE
  8
0
 62
     0
 10
256.36
 20
39.6875
 30
0.0
 11
242.361
 21
39.6875
 31
0.0
  0
LINE
  8
0
 62
     0
 10
13.7611
 20
39.6875
 30
0.0
 11
13.7611
 21
38.687
 31
0.0
  0
LINE
  8
0
 62
     0
 10
13.7611
 20
38.687
 30
0.0
 11
12.9618
 21
38.687
 31
0.0
  0
LINE
  8
0
 62
     0
 10
12.9618
 20
38.687
 30
0.0
 11
12.9618
 21
35.5879
 31
0.0
  0
LINE
  8
0
 62
     0
 10
12.9618
 20
35.5879
 30
0.0
 11
13.7611
 21
35.5879
 31
0.0
  0
LINE
  8
0
 62
     0
 10
13.7611
 20
35.5879
 30
0.0
 11
13.7611
 21
29.7877
 31
0.0
  0
LINE
  8
0
 62
     0
 10
13.7611
 20
29.7877
 30
0.0
 11
12.9618
 21
29.7877
 31
0.0
  0
LINE
  8
0
 62
     0
 10
12.9618
 20
29.7877
 30
0.0
 11
12.9618
 21
26.6871
 31
0.0
  0
LINE
  8
0
 62
     0
 10
12.9618
 20
26.6871
 30
0.0
 11
13.7611
 21
26.6871
 31
0.0
  0
LINE
  8
0
 62
     0
 10
13.7611
 20
26.6871
 30
0.0
 11
13.7611
 21
25.688
 31
0.0
  0
LINE
  8
0
 62
     0
 10
13.7611
 20
25.688
 30
0.0
 11
27.762
 21
25.688
 31
0.0
  0
LINE
  8
0
 62
     0
 10
27.762
 20
25.688
 30
0.0
 11
27.762
 21
26.6871
 31
0.0
  0
LINE
  8
0
 62
     0
 10
27.762
 20
26.6871
 30
0.0
 11
28.5612
 21
26.6871
 31
0.0
  0
LINE
  8
0
 62
     0
 10
28.5612
 20
26.6871
 30
0.0
 11
28.5612
 21
29.7877
 31
0.0
  0
LINE
  8
0
 62
     0
 10
28.5612
 20
29.7877
 30
0.0
 11
27.762
 21
29.7877
 31
0.0
  0
LINE
  8
0
 62
     0
 10
27.762
 20
29.7877
 30
0.0
 11
27.762
 21
35.5879
 31
0.0
  0
LINE
  8
0
 62
     0
 10
27.762
 20
35.5879
 30
0.0
 11
28.5612
 21
35.5879
 31
0.0
  0
LINE
  8
0
 62
     0
 10
28.5612
 20
35.5879
 30
0.0
 11
28.5612
 21
38.687
 31
0.0
  0
LINE
  8
0
 62
     0
 10
28.5612
 20
38.687
 30
0.0
 11
27.762
 21
38.687
 31
0.0
  0
LINE
  8
0
 62
     0
 10
27.762
 20
38.687
 30
0.0
 11
27.762
 21
39.6875
 31
0.0
  0
LINE
  8
0
 62
     0
 10
27.762
 20
39.6875
 30
0.0
 11
13.7611
 21
39.6875
 31
0.0
  0
LINE
  8
0
 62
     0
 10
39.9563
 20
39.6875
 30
0.0
 11
39.9563
 21
38.687
 31
0.0
  0
LINE
  8
0
 62
     0
 10
39.9563
 20
38.687
 30
0.0
 11
39.1555
 21
38.687
 31
0.0
  0
LINE
  8
0
 62
     0
 10
39.1555
 20
38.687
 30
0.0
 11
39.1555
 21
35.5879
 31
0.0
  0
LINE
  8
0
 62
     0
 10
39.1555
 20
35.5879
 30
0.0
 11
39.9563
 21
35.5879
 31
0.0
  0
LINE
  8
0
 62
     0
 10
39.9563
 20
35.5879
 30
0.0
 11
39.9563
 21
29.7877
 31
0.0
  0
LINE
  8
0
 62
     0
 10
39.9563
 20
29.7877
 30
0.0
 11
39.1555
 21
29.7877
 31
0.0
  0
LINE
  8
0
 62
     0
 10
39.1555
 20
29.7877
 30
0.0
 11
39.1555
 21
26.6871
 31
0.0
  0
LINE
  8
0
 62
     0
 10
39.1555
 20
26.6871
 30
0.0
 11
39.9563
 21
26.6871
 31
0.0
  0
LINE
  8
0
 62
     0
 10
39.9563
 20
26.6871
 30
0.0
 11
39.9563
 21
25.688
 31
0.0
  0
LINE
  8
0
 62
     0
 10
39.9563
 20
25.688
 30
0.0
 11
53.9556
 21
25.688
 31
0.0
  0
LINE
  8
0
 62
     0
 10
53.9556
 20
25.688
 30
0.0
 11
53.9556
 21
26.6871
 31
0.0
  0
LINE
  8
0
 62
     0
 10
53.9556
 20
26.6871
 30
0.0
 11
54.7564
 21
26.6871
 31
0.0
  0
LINE
  8
0
 62
     0
 10
54.7564
 20
26.6871
 30
0.0
 11
54.7564
 21
29.7877
 31
0.0
  0
LINE
  8
0
 62
     0
 10
54.7564
 20
29.7877
 30
0.0
 11
53.9556
 21
29.7877
 31
0.0
  0
LINE
  8
0
 62
     0
 10
53.9556
 20
29.7877
 30
0.0
 11
53.9556
 21
35.5879
 31
0.0
  0
LINE
  8
0
 62
     0
 10
53.9556
 20
35.5879
 30
0.0
 11
54.7564
 21
35.5879
 31
0.0
  0
LINE
  8
0
 62
     0
 10
54.7564
 20
35.5879
 30
0.0
 11
54.7564
 21
38.687
 31
0.0
  0
LINE
  8
0
 62
     0
 10
54.7564
 20
38.687
 30
0.0
 11
53.9556
 21
38.687
 31
0.0
  0
LINE
  8
0
 62
     0
 10
53.9556
 20
38.687
 30
0.0
 11
53.9556
 21
39.6875
 31
0.0
  0
LINE
  8
0
 62
     0
 10
53.9556
 20
39.6875
 30
0.0
 11
39.9563
 21
39.6875
 31
0.0
  0
LINE
  8
0
 62
     0
 10
59.0063
 20
39.6875
 30
0.0
 11
59.0063
 21
38.687
 31
0.0
  0
LINE
  8
0
 62
     0
 10
59.0063
 20
38.687
 30
0.0
 11
58.2055
 21
38.687
 31
0.0
  0
LINE
  8
0
 62
     0
 10
58.2055
 20
38.687
 30
0.0
 11
58.2055
 21
35.5879
 31
0.0
  0
LINE
  8
0
 62
     0
 10
58.2055
 20
35.5879
 30
0.0
 11
59.0063
 21
35.5879
 31
0.0
  0
LINE
  8
0
 62
     0
 10
59.0063
 20
35.5879
 30
0.0
 11
59.0063
 21
29.7877
 31
0.0
  0
LINE
  8
0
 62
     0
 10
59.0063
 20
29.7877
 30
0.0
 11
58.2055
 21
29.7877
 31
0.0
  0
LINE
  8
0
 62
     0
 10
58.2055
 20
29.7877
 30
0.0
 11
58.2055
 21
26.6871
 31
0.0
  0
LINE
  8
0
 62
     0
 10
58.2055
 20
26.6871
 30
0.0
 11
59.0063
 21
26.6871
 31
0.0
  0
LINE
  8
0
 62
     0
 10
59.0063
 20
26.6871
 30
0.0
 11
59.0063
 21
25.688
 31
0.0
  0
LINE
  8
0
 62
     0
 10
59.0063
 20
25.688
 30
0.0
 11
73.0056
 21
25.688
 31
0.0
  0
LINE
  8
0
 62
     0
 10
73.0056
 20
25.688
 30
0.0
 11
73.0056
 21
26.6871
 31
0.0
  0
LINE
  8
0
 62
     0
 10
73.0056
 20
26.6871
 30
0.0
 11
73.8064
 21
26.6871
 31
0.0
  0
LINE
  8
0
 62
     0
 10
73.8064
 20
26.6871
 30
0.0
 11
73.8064
 21
29.7877
 31
0.0
  0
LINE
  8
0
 62
     0
 10
73.8064
 20
29.7877
 30
0.0
 11
73.0056
 21
29.7877
 31
0.0
  0
LINE
  8
0
 62
     0
 10
73.0056
 20
29.7877
 30
0.0
 11
73.0056
 21
35.5879
 31
0.0
  0
LINE
  8
0
 62
     0
 10
73.0056
 20
35.5879
 30
0.0
 11
73.8064
 21
35.5879
 31
0.0
  0
LINE
  8
0
 62
     0
 10
73.8064
 20
35.5879
 30
0.0
 11
73.8064
 21
38.687
 31
0.0
  0
LINE
  8
0
 62
     0
 10
73.8064
 20
38.687
 30
0.0
 11
73.0056
 21
38.687
 31
0.0
  0
LINE
  8
0
 62
     0
 10
73.0056
 20
38.687
 30
0.0
 11
73.0056
 21
39.6875
 31
0.0
  0
LINE
  8
0
 62
     0
 10
73.0056
 20
39.6875
 30
0.0
 11
59.0063
 21
39.6875
 31
0.0
  0
LINE
  8
0
 62
     0
 10
78.0563
 20
39.6875
 30
0.0
 11
78.0563
 21
38.687
 31
0.0
  0
LINE
  8
0
 62
     0
 10
78.0563
 20
38.687
 30
0.0
 11
77.2555
 21
38.687
 31
0.0
  0
LINE
  8
0
 62
     0
 10
77.2555
 20
38.687
 30
0.0
 11
77.2555
 21
35.5879
 31
0.0
  0
LINE
  8
0
 62
     0
 10
77.2555
 20
35.5879
 30
0.0
 11
78.0563
 21
35.5879
 31
0.0
  0
LINE
  8
0
 62
     0
 10
78.0563
 20
35.5879
 30
0.0
 11
78.0563
 21
29.7877
 31
0.0
  0
LINE
  8
0
 62
     0
 10
78.0563
 20
29.7877
 30
0.0
 11
77.2555
 21
29.7877
 31
0.0
  0
LINE
  8
0
 62
     0
 10
77.2555
 20
29.7877
 30
0.0
 11
77.2555
 21
26.6871
 31
0.0
  0
LINE
  8
0
 62
     0
 10
77.2555
 20
26.6871
 30
0.0
 11
78.0563
 21
26.6871
 31
0.0
  0
LINE
  8
0
 62
     0
 10
78.0563
 20
26.6871
 30
0.0
 11
78.0563
 21
25.688
 31
0.0
  0
LINE
  8
0
 62
     0
 10
78.0563
 20
25.688
 30
0.0
 11
92.0556
 21
25.688
 31
0.0
  0
LINE
  8
0
 62
     0
 10
92.0556
 20
25.688
 30
0.0
 11
92.0556
 21
26.6871
 31
0.0
  0
LINE
  8
0
 62
     0
 10
92.0556
 20
26.6871
 30
0.0
 11
92.8564
 21
26.6871
 31
0.0
  0
LINE
  8
0
 62
     0
 10
92.8564
 20
26.6871
 30
0.0
 11
92.8564
 21
29.7877
 31
0.0
  0
LINE
  8
0
 62
     0
 10
92.8564
 20
29.7877
 30
0.0
 11
92.0556
 21
29.7877
 31
0.0
  0
LINE
  8
0
 62
     0
 10
92.0556
 20
29.7877
 30
0.0
 11
92.0556
 21
35.5879
 31
0.0
  0
LINE
  8
0
 62
     0
 10
92.0556
 20
35.5879
 30
0.0
 11
92.8564
 21
35.5879
 31
0.0
  0
LINE
  8
0
 62
     0
 10
92.8564
 20
35.5879
 30
0.0
 11
92.8564
 21
38.687
 31
0.0
  0
LINE
  8
0
 62
     0
 10
92.8564
 20
38.687
 30
0.0
 11
92.0556
 21
38.687
 31
0.0
  0
LINE
  8
0
 62
     0
 10
92.0556
 20
38.687
 30
0.0
 11
92.0556
 21
39.6875
 31
0.0
  0
LINE
  8
0
 62
     0
 10
92.0556
 20
39.6875
 30
0.0
 11
78.0563
 21
39.6875
 31
0.0
  0
LINE
  8
0
 62
     0
 10
97.1063
 20
39.6875
 30
0.0
 11
97.1063
 21
38.687
 31
0.0
  0
LINE
  8
0
 62
     0
 10
97.1063
 20
38.687
 30
0.0
 11
96.3055
 21
38.687
 31
0.0
  0
LINE
  8
0
 62
     0
 10
96.3055
 20
38.687
 30
0.0
 11
96.3055
 21
35.5879
 31
0.0
  0
LINE
  8
0
 62
     0
 10
96.3055
 20
35.5879
 30
0.0
 11
97.1063
 21
35.5879
 31
0.0
  0
LINE
  8
0
 62
     0
 10
97.1063
 20
35.5879
 30
0.0
 11
97.1063
 21
29.7877
 31
0.0
  0
LINE
  8
0
 62
     0
 10
97.1063
 20
29.7877
 30
0.0
 11
96.3055
 21
29.7877
 31
0.0
  0
LINE
  8
0
 62
     0
 10
96.3055
 20
29.7877
 30
0.0
 11
96.3055
 21
26.6871
 31
0.0
  0
LINE
  8
0
 62
     0
 10
96.3055
 20
26.6871
 30
0.0
 11
97.1063
 21
26.6871
 31
0.0
  0
LINE
  8
0
 62
     0
 10
97.1063
 20
26.6871
 30
0.0
 11
97.1063
 21
25.688
 31
0.0
  0
LINE
  8
0
 62
     0
 10
97.1063
 20
25.688
 30
0.0
 11
111.106
 21
25.688
 31
0.0
  0
LINE
  8
0
 62
     0
 10
111.106
 20
25.688
 30
0.0
 11
111.106
 21
26.6871
 31
0.0
  0
LINE
  8
0
 62
     0
 10
111.106
 20
26.6871
 30
0.0
 11
111.906
 21
26.6871
 31
0.0
  0
LINE
  8
0
 62
     0
 10
111.906
 20
26.6871
 30
0.0
 11
111.906
 21
29.7877
 31
0.0
  0
LINE
  8
0
 62
     0
 10
111.906
 20
29.7877
 30
0.0
 11
111.106
 21
29.7877
 31
0.0
  0
LINE
  8
0
 62
     0
 10
111.106
 20
29.7877
 30
0.0
 11
111.106
 21
35.5879
 31
0.0
  0
LINE
  8
0
 62
     0
 10
111.106
 20
35.5879
 30
0.0
 11
111.906
 21
35.5879
 31
0.0
  0
LINE
  8
0
 62
     0
 10
111.906
 20
35.5879
 30
0.0
 11
111.906
 21
38.687
 31
0.0
  0
LINE
  8
0
 62
     0
 10
111.906
 20
38.687
 30
0.0
 11
111.106
 21
38.687
 31
0.0
  0
LINE
  8
0
 62
     0
 10
111.106
 20
38.687
 30
0.0
 11
111.106
 21
39.6875
 31
0.0
  0
LINE
  8
0
 62
     0
 10
111.106
 20
39.6875
 30
0.0
 11
97.1063
 21
39.6875
 31
0.0
  0
LINE
  8
0
 62
     0
 10
116.156
 20
39.6875
 30
0.0
 11
116.156
 21
38.687
 31
0.0
  0
LINE
  8
0
 62
     0
 10
116.156
 20
38.687
 30
0.0
 11
115.356
 21
38.687
 31
0.0
  0
LINE
  8
0
 62
     0
 10
115.356
 20
38.687
 30
0.0
 11
115.356
 21
35.5879
 31
0.0
  0
LINE
  8
0
 62
     0
 10
115.356
 20
35.5879
 30
0.0
 11
116.156
 21
35.5879
 31
0.0
  0
LINE
  8
0
 62
     0
 10
116.156
 20
35.5879
 30
0.0
 11
116.156
 21
29.7877
 31
0.0
  0
LINE
  8
0
 62
     0
 10
116.156
 20
29.7877
 30
0.0
 11
115.356
 21
29.7877
 31
0.0
  0
LINE
  8
0
 62
     0
 10
115.356
 20
29.7877
 30
0.0
 11
115.356
 21
26.6871
 31
0.0
  0
LINE
  8
0
 62
     0
 10
115.356
 20
26.6871
 30
0.0
 11
116.156
 21
26.6871
 31
0.0
  0
LINE
  8
0
 62
     0
 10
116.156
 20
26.6871
 30
0.0
 11
116.156
 21
25.688
 31
0.0
  0
LINE
  8
0
 62
     0
 10
116.156
 20
25.688
 30
0.0
 11
130.156
 21
25.688
 31
0.0
  0
LINE
  8
0
 62
     0
 10
130.156
 20
25.688
 30
0.0
 11
130.156
 21
26.6871
 31
0.0
  0
LINE
  8
0
 62
     0
 10
130.156
 20
26.6871
 30
0.0
 11
130.956
 21
26.6871
 31
0.0
  0
LINE
  8
0
 62
     0
 10
130.956
 20
26.6871
 30
0.0
 11
130.956
 21
29.7877
 31
0.0
  0
LINE
  8
0
 62
     0
 10
130.956
 20
29.7877
 30
0.0
 11
130.156
 21
29.7877
 31
0.0
  0
LINE
  8
0
 62
     0
 10
130.156
 20
29.7877
 30
0.0
 11
130.156
 21
35.5879
 31
0.0
  0
LINE
  8
0
 62
     0
 10
130.156
 20
35.5879
 30
0.0
 11
130.956
 21
35.5879
 31
0.0
  0
LINE
  8
0
 62
     0
 10
130.956
 20
35.5879
 30
0.0
 11
130.956
 21
38.687
 31
0.0
  0
LINE
  8
0
 62
     0
 10
130.956
 20
38.687
 30
0.0
 11
130.156
 21
38.687
 31
0.0
  0
LINE
  8
0
 62
     0
 10
130.156
 20
38.687
 30
0.0
 11
130.156
 21
39.6875
 31
0.0
  0
LINE
  8
0
 62
     0
 10
130.156
 20
39.6875
 30
0.0
 11
116.156
 21
39.6875
 31
0.0
  0
LINE
  8
0
 62
     0
 10
135.206
 20
39.6875
 30
0.0
 11
135.206
 21
38.687
 31
0.0
  0
LINE
  8
0
 62
     0
 10
135.206
 20
38.687
 30
0.0
 11
134.406
 21
38.687
 31
0.0
  0
LINE
  8
0
 62
     0
 10
134.406
 20
38.687
 30
0.0
 11
134.406
 21
35.5879
 31
0.0
  0
LINE
  8
0
 62
     0
 10
134.406
 20
35.5879
 30
0.0
 11
135.206
 21
35.5879
 31
0.0
  0
LINE
  8
0
 62
     0
 10
135.206
 20
35.5879
 30
0.0
 11
135.206
 21
29.7877
 31
0.0
  0
LINE
  8
0
 62
     0
 10
135.206
 20
29.7877
 30
0.0
 11
134.406
 21
29.7877
 31
0.0
  0
LINE
  8
0
 62
     0
 10
134.406
 20
29.7877
 30
0.0
 11
134.406
 21
26.6871
 31
0.0
  0
LINE
  8
0
 62
     0
 10
134.406
 20
26.6871
 30
0.0
 11
135.206
 21
26.6871
 31
0.0
  0
LINE
  8
0
 62
     0
 10
135.206
 20
26.6871
 30
0.0
 11
135.206
 21
25.688
 31
0.0
  0
LINE
  8
0
 62
     0
 10
135.206
 20
25.688
 30
0.0
 11
149.206
 21
25.688
 31
0.0
  0
LINE
  8
0
 62
     0
 10
149.206
 20
25.688
 30
0.0
 11
149.206
 21
26.6871
 31
0.0
  0
LINE
  8
0
 62
     0
 10
149.206
 20
26.6871
 30
0.0
 11
150.006
 21
26.6871
 31
0.0
  0
LINE
  8
0
 62
     0
 10
150.006
 20
26.6871
 30
0.0
 11
150.006
 21
29.7877
 31
0.0
  0
LINE
  8
0
 62
     0
 10
150.006
 20
29.7877
 30
0.0
 11
149.206
 21
29.7877
 31
0.0
  0
LINE
  8
0
 62
     0
 10
149.206
 20
29.7877
 30
0.0
 11
149.206
 21
35.5879
 31
0.0
  0
LINE
  8
0
 62
     0
 10
149.206
 20
35.5879
 30
0.0
 11
150.006
 21
35.5879
 31
0.0
  0
LINE
  8
0
 62
     0
 10
150.006
 20
35.5879
 30
0.0
 11
150.006
 21
38.687
 31
0.0
  0
LINE
  8
0
 62
     0
 10
150.006
 20
38.687
 30
0.0
 11
149.206
 21
38.687
 31
0.0
  0
LINE
  8
0
 62
     0
 10
149.206
 20
38.687
 30
0.0
 11
149.206
 21
39.6875
 31
0.0
  0
LINE
  8
0
 62
     0
 10
149.206
 20
39.6875
 30
0.0
 11
135.206
 21
39.6875
 31
0.0
  0
LINE
  8
0
 62
     0
 10
154.256
 20
39.6875
 30
0.0
 11
154.256
 21
38.687
 31
0.0
  0
LINE
  8
0
 62
     0
 10
154.256
 20
38.687
 30
0.0
 11
153.456
 21
38.687
 31
0.0
  0
LINE
  8
0
 62
     0
 10
153.456
 20
38.687
 30
0.0
 11
153.456
 21
35.5879
 31
0.0
  0
LINE
  8
0
 62
     0
 10
153.456
 20
35.5879
 30
0.0
 11
154.256
 21
35.5879
 31
0.0
  0
LINE
  8
0
 62
     0
 10
154.256
 20
35.5879
 30
0.0
 11
154.256
 21
29.7877
 31
0.0
  0
LINE
  8
0
 62
     0
 10
154.256
 20
29.7877
 30
0.0
 11
153.456
 21
29.7877
 31
0.0
  0
LINE
  8
0
 62
     0
 10
153.456
 20
29.7877
 30
0.0
 11
153.456
 21
26.6871
 31
0.0
  0
LINE
  8
0
 62
     0
 10
153.456
 20
26.6871
 30
0.0
 11
154.256
 21
26.6871
 31
0.0
  0
LINE
  8
0
 62
     0
 10
154.256
 20
26.6871
 30
0.0
 11
154.256
 21
25.688
 31
0.0
  0
LINE
  8
0
 62
     0
 10
154.256
 20
25.688
 30
0.0
 11
168.256
 21
25.688
 31
0.0
  0
LINE
  8
0
 62
     0
 10
168.256
 20
25.688
 30
0.0
 11
168.256
 21
26.6871
 31
0.0
  0
LINE
  8
0
 62
     0
 10
168.256
 20
26.6871
 30
0.0
 11
169.056
 21
26.6871
 31
0.0
  0
LINE
  8
0
 62
     0
 10
169.056
 20
26.6871
 30
0.0
 11
169.056
 21
29.7877
 31
0.0
  0
LINE
  8
0
 62
     0
 10
169.056
 20
29.7877
 30
0.0
 11
168.256
 21
29.7877
 31
0.0
  0
LINE
  8
0
 62
     0
 10
168.256
 20
29.7877
 30
0.0
 11
168.256
 21
35.5879
 31
0.0
  0
LINE
  8
0
 62
     0
 10
168.256
 20
35.5879
 30
0.0
 11
169.056
 21
35.5879
 31
0.0
  0
LINE
  8
0
 62
     0
 10
169.056
 20
35.5879
 30
0.0
 11
169.056
 21
38.687
 31
0.0
  0
LINE
  8
0
 62
     0
 10
169.056
 20
38.687
 30
0.0
 11
168.256
 21
38.687
 31
0.0
  0
LINE
  8
0
 62
     0
 10
168.256
 20
38.687
 30
0.0
 11
168.256
 21
39.6875
 31
0.0
  0
LINE
  8
0
 62
     0
 10
168.256
 20
39.6875
 30
0.0
 11
154.256
 21
39.6875
 31
0.0
  0
LINE
  8
0
 62
     0
 10
173.306
 20
39.6875
 30
0.0
 11
173.306
 21
38.687
 31
0.0
  0
LINE
  8
0
 62
     0
 10
173.306
 20
38.687
 30
0.0
 11
172.506
 21
38.687
 31
0.0
  0
LINE
  8
0
 62
     0
 10
172.506
 20
38.687
 30
0.0
 11
172.506
 21
35.5879
 31
0.0
  0
LINE
  8
0
 62
     0
 10
172.506
 20
35.5879
 30
0.0
 11
173.306
 21
35.5879
 31
0.0
  0
LINE
  8
0
 62
     0
 10
173.306
 20
35.5879
 30
0.0
 11
173.306
 21
29.7877
 31
0.0
  0
LINE
  8
0
 62
     0
 10
173.306
 20
29.7877
 30
0.0
 11
172.506
 21
29.7877
 31
0.0
  0
LINE
  8
0
 62
     0
 10
172.506
 20
29.7877
 30
0.0
 11
172.506
 21
26.6871
 31
0.0
  0
LINE
  8
0
 62
     0
 10
172.506
 20
26.6871
 30
0.0
 11
173.306
 21
26.6871
 31
0.0
  0
LINE
  8
0
 62
     0
 10
173.306
 20
26.6871
 30
0.0
 11
173.306
 21
25.688
 31
0.0
  0
LINE
  8
0
 62
     0
 10
173.306
 20
25.688
 30
0.0
 11
187.306
 21
25.688
 31
0.0
  0
LINE
  8
0
 62
     0
 10
187.306
 20
25.688
 30
0.0
 11
187.306
 21
26.6871
 31
0.0
  0
LINE
  8
0
 62
     0
 10
187.306
 20
26.6871
 30
0.0
 11
188.106
 21
26.6871
 31
0.0
  0
LINE
  8
0
 62
     0
 10
188.106
 20
26.6871
 30
0.0
 11
188.106
 21
29.7877
 31
0.0
  0
LINE
  8
0
 62
     0
 10
188.106
 20
29.7877
 30
0.0
 11
187.306
 21
29.7877
 31
0.0
  0
LINE
  8
0
 62
     0
 10
187.306
 20
29.7877
 30
0.0
 11
187.306
 21
35.5879
 31
0.0
  0
LINE
  8
0
 62
     0
 10
187.306
 20
35.5879
 30
0.0
 11
188.106
 21
35.5879
 31
0.0
  0
LINE
  8
0
 62
     0
 10
188.106
 20
35.5879
 30
0.0
 11
188.106
 21
38.687
 31
0.0
  0
LINE
  8
0
 62
     0
 10
188.106
 20
38.687
 30
0.0
 11
187.306
 21
38.687
 31
0.0
  0
LINE
  8
0
 62
     0
 10
187.306
 20
38.687
 30
0.0
 11
187.306
 21
39.6875
 31
0.0
  0
LINE
  8
0
 62
     0
 10
187.306
 20
39.6875
 30
0.0
 11
173.306
 21
39.6875
 31
0.0
  0
LINE
  8
0
 62
     0
 10
192.356
 20
39.6875
 30
0.0
 11
192.356
 21
38.687
 31
0.0
  0
LINE
  8
0
 62
     0
 10
192.356
 20
38.687
 30
0.0
 11
191.556
 21
38.687
 31
0.0
  0
LINE
  8
0
 62
     0
 10
191.556
 20
38.687
 30
0.0
 11
191.556
 21
35.5879
 31
0.0
  0
LINE
  8
0
 62
     0
 10
191.556
 20
35.5879
 30
0.0
 11
192.356
 21
35.5879
 31
0.0
  0
LINE
  8
0
 62
     0
 10
192.356
 20
35.5879
 30
0.0
 11
192.356
 21
29.7877
 31
0.0
  0
LINE
  8
0
 62
     0
 10
192.356
 20
29.7877
 30
0.0
 11
191.556
 21
29.7877
 31
0.0
  0
LINE
  8
0
 62
     0
 10
191.556
 20
29.7877
 30
0.0
 11
191.556
 21
26.6871
 31
0.0
  0
LINE
  8
0
 62
     0
 10
191.556
 20
26.6871
 30
0.0
 11
192.356
 21
26.6871
 31
0.0
  0
LINE
  8
0
 62
     0
 10
192.356
 20
26.6871
 30
0.0
 11
192.356
 21
25.688
 31
0.0
  0
LINE
  8
0
 62
     0
 10
192.356
 20
25.688
 30
0.0
 11
206.356
 21
25.688
 31
0.0
  0
LINE
  8
0
 62
     0
 10
206.356
 20
25.688
 30
0.0
 11
206.356
 21
26.6871
 31
0.0
  0
LINE
  8
0
 62
     0
 10
206.356
 20
26.6871
 30
0.0
 11
207.156
 21
26.6871
 31
0.0
  0
LINE
  8
0
 62
     0
 10
207.156
 20
26.6871
 30
0.0
 11
207.156
 21
29.7877
 31
0.0
  0
LINE
  8
0
 62
     0
 10
207.156
 20
29.7877
 30
0.0
 11
206.356
 21
29.7877
 31
0.0
  0
LINE
  8
0
 62
     0
 10
206.356
 20
29.7877
 30
0.0
 11
206.356
 21
35.5879
 31
0.0
  0
LINE
  8
0
 62
     0
 10
206.356
 20
35.5879
 30
0.0
 11
207.156
 21
35.5879
 31
0.0
  0
LINE
  8
0
 62
     0
 10
207.156
 20
35.5879
 30
0.0
 11
207.156
 21
38.687
 31
0.0
  0
LINE
  8
0
 62
     0
 10
207.156
 20
38.687
 30
0.0
 11
206.356
 21
38.687
 31
0.0
  0
LINE
  8
0
 62
     0
 10
206.356
 20
38.687
 30
0.0
 11
206.356
 21
39.6875
 31
0.0
  0
LINE
  8
0
 62
     0
 10
206.356
 20
39.6875
 30
0.0
 11
192.356
 21
39.6875
 31
0.0
  0
LINE
  8
0
 62
     0
 10
211.406
 20
39.6875
 30
0.0
 11
211.406
 21
38.687
 31
0.0
  0
LINE
  8
0
 62
     0
 10
211.406
 20
38.687
 30
0.0
 11
210.606
 21
38.687
 31
0.0
  0
LINE
  8
0
 62
     0
 10
210.606
 20
38.687
 30
0.0
 11
210.606
 21
35.5879
 31
0.0
  0
LINE
  8
0
 62
     0
 10
210.606
 20
35.5879
 30
0.0
 11
211.406
 21
35.5879
 31
0.0
  0
LINE
  8
0
 62
     0
 10
211.406
 20
35.5879
 30
0.0
 11
211.406
 21
29.7877
 31
0.0
  0
LINE
  8
0
 62
     0
 10
211.406
 20
29.7877
 30
0.0
 11
210.606
 21
29.7877
 31
0.0
  0
LINE
  8
0
 62
     0
 10
210.606
 20
29.7877
 30
0.0
 11
210.606
 21
26.6871
 31
0.0
  0
LINE
  8
0
 62
     0
 10
210.606
 20
26.6871
 30
0.0
 11
211.406
 21
26.6871
 31
0.0
  0
LINE
  8
0
 62
     0
 10
211.406
 20
26.6871
 30
0.0
 11
211.406
 21
25.688
 31
0.0
  0
LINE
  8
0
 62
     0
 10
211.406
 20
25.688
 30
0.0
 11
225.406
 21
25.688
 31
0.0
  0
LINE
  8
0
 62
     0
 10
225.406
 20
25.688
 30
0.0
 11
225.406
 21
26.6871
 31
0.0
  0
LINE
  8
0
 62
     0
 10
225.406
 20
26.6871
 30
0.0
 11
226.206
 21
26.6871
 31
0.0
  0
LINE
  8
0
 62
     0
 10
226.206
 20
26.6871
 30
0.0
 11
226.206
 21
29.7877
 31
0.0
  0
LINE
  8
0
 62
     0
 10
226.206
 20
29.7877
 30
0.0
 11
225.406
 21
29.7877
 31
0.0
  0
LINE
  8
0
 62
     0
 10
225.406
 20
29.7877
 30
0.0
 11
225.406
 21
35.5879
 31
0.0
  0
LINE
  8
0
 62
     0
 10
225.406
 20
35.5879
 30
0.0
 11
226.206
 21
35.5879
 31
0.0
  0
LINE
  8
0
 62
     0
 10
226.206
 20
35.5879
 30
0.0
 11
226.206
 21
38.687
 31
0.0
  0
LINE
  8
0
 62
     0
 10
226.206
 20
38.687
 30
0.0
 11
225.406
 21
38.687
 31
0.0
  0
LINE
  8
0
 62
     0
 10
225.406
 20
38.687
 30
0.0
 11
225.406
 21
39.6875
 31
0.0
  0
LINE
  8
0
 62
     0
 10
225.406
 20
39.6875
 30
0.0
 11
211.406
 21
39.6875
 31
0.0
  0
LINE
  8
0
 62
     0
 10
8.99996
 20
58.7375
 30
0.0
 11
8.99996
 21
57.737
 31
0.0
  0
LINE
  8
0
 62
     0
 10
8.99996
 20
57.737
 30
0.0
 11
8.19933
 21
57.737
 31
0.0
  0
LINE
  8
0
 62
     0
 10
8.19933
 20
57.737
 30
0.0
 11
8.19933
 21
54.6379
 31
0.0
  0
LINE
  8
0
 62
     0
 10
8.19933
 20
54.6379
 30
0.0
 11
8.99996
 21
54.6379
 31
0.0
  0
LINE
  8
0
 62
     0
 10
8.99996
 20
54.6379
 30
0.0
 11
8.99996
 21
48.8379
 31
0.0
  0
LINE
  8
0
 62
     0
 10
8.99996
 20
48.8379
 30
0.0
 11
8.19933
 21
48.8379
 31
0.0
  0
LINE
  8
0
 62
     0
 10
8.19933
 20
48.8379
 30
0.0
 11
8.19933
 21
45.7369
 31
0.0
  0
LINE
  8
0
 62
     0
 10
8.19933
 20
45.7369
 30
0.0
 11
8.99996
 21
45.7369
 31
0.0
  0
LINE
  8
0
 62
     0
 10
8.99996
 20
45.7369
 30
0.0
 11
8.99996
 21
44.7379
 31
0.0
  0
LINE
  8
0
 62
     0
 10
8.99996
 20
44.7379
 30
0.0
 11
22.9995
 21
44.7379
 31
0.0
  0
LINE
  8
0
 62
     0
 10
22.9995
 20
44.7379
 30
0.0
 11
22.9995
 21
45.7369
 31
0.0
  0
LINE
  8
0
 62
     0
 10
22.9995
 20
45.7369
 30
0.0
 11
23.8001
 21
45.7369
 31
0.0
  0
LINE
  8
0
 62
     0
 10
23.8001
 20
45.7369
 30
0.0
 11
23.8001
 21
48.8379
 31
0.0
  0
LINE
  8
0
 62
     0
 10
23.8001
 20
48.8379
 30
0.0
 11
22.9995
 21
48.8379
 31
0.0
  0
LINE
  8
0
 62
     0
 10
22.9995
 20
48.8379
 30
0.0
 11
22.9995
 21
54.6379
 31
0.0
  0
LINE
  8
0
 62
     0
 10
22.9995
 20
54.6379
 30
0.0
 11
23.8001
 21
54.6379
 31
0.0
  0
LINE
  8
0
 62
     0
 10
23.8001
 20
54.6379
 30
0.0
 11
23.8001
 21
57.737
 31
0.0
  0
LINE
  8
0
 62
     0
 10
23.8001
 20
57.737
 30
0.0
 11
22.9995
 21
57.737
 31
0.0
  0
LINE
  8
0
 62
     0
 10
22.9995
 20
57.737
 30
0.0
 11
22.9995
 21
58.7375
 31
0.0
  0
LINE
  8
0
 62
     0
 10
22.9995
 20
58.7375
 30
0.0
 11
8.99996
 21
58.7375
 31
0.0
  0
LINE
  8
0
 62
     0
 10
30.4312
 20
58.7375
 30
0.0
 11
30.4312
 21
57.737
 31
0.0
  0
LINE
  8
0
 62
     0
 10
30.4312
 20
57.737
 30
0.0
 11
29.6306
 21
57.737
 31
0.0
  0
LINE
  8
0
 62
     0
 10
29.6306
 20
57.737
 30
0.0
 11
29.6306
 21
54.6379
 31
0.0
  0
LINE
  8
0
 62
     0
 10
29.6306
 20
54.6379
 30
0.0
 11
30.4312
 21
54.6379
 31
0.0
  0
LINE
  8
0
 62
     0
 10
30.4312
 20
54.6379
 30
0.0
 11
30.4312
 21
48.8379
 31
0.0
  0
LINE
  8
0
 62
     0
 10
30.4312
 20
48.8379
 30
0.0
 11
29.6306
 21
48.8379
 31
0.0
  0
LINE
  8
0
 62
     0
 10
29.6306
 20
48.8379
 30
0.0
 11
29.6306
 21
45.7369
 31
0.0
  0
LINE
  8
0
 62
     0
 10
29.6306
 20
45.7369
 30
0.0
 11
30.4312
 21
45.7369
 31
0.0
  0
LINE
  8
0
 62
     0
 10
30.4312
 20
45.7369
 30
0.0
 11
30.4312
 21
44.7379
 31
0.0
  0
LINE
  8
0
 62
     0
 10
30.4312
 20
44.7379
 30
0.0
 11
44.4306
 21
44.7379
 31
0.0
  0
LINE
  8
0
 62
     0
 10
44.4306
 20
44.7379
 30
0.0
 11
44.4306
 21
45.7369
 31
0.0
  0
LINE
  8
0
 62
     0
 10
44.4306
 20
45.7369
 30
0.0
 11
45.2314
 21
45.7369
 31
0.0
  0
LINE
  8
0
 62
     0
 10
45.2314
 20
45.7369
 30
0.0
 11
45.2314
 21
48.8379
 31
0.0
  0
LINE
  8
0
 62
     0
 10
45.2314
 20
48.8379
 30
0.0
 11
44.4306
 21
48.8379
 31
0.0
  0
LINE
  8
0
 62
     0
 10
44.4306
 20
48.8379
 30
0.0
 11
44.4306
 21
54.6379
 31
0.0
  0
LINE
  8
0
 62
     0
 10
44.4306
 20
54.6379
 30
0.0
 11
45.2314
 21
54.6379
 31
0.0
  0
LINE
  8
0
 62
     0
 10
45.2314
 20
54.6379
 30
0.0
 11
45.2314
 21
57.737
 31
0.0
  0
LINE
  8
0
 62
     0
 10
45.2314
 20
57.737
 30
0.0
 11
44.4306
 21
57.737
 31
0.0
  0
LINE
  8
0
 62
     0
 10
44.4306
 20
57.737
 30
0.0
 11
44.4306
 21
58.7375
 31
0.0
  0
LINE
  8
0
 62
     0
 10
44.4306
 20
58.7375
 30
0.0
 11
30.4312
 21
58.7375
 31
0.0
  0
LINE
  8
0
 62
     0
 10
49.4813
 20
58.7375
 30
0.0
 11
49.4813
 21
57.737
 31
0.0
  0
LINE
  8
0
 62
     0
 10
49.4813
 20
57.737
 30
0.0
 11
48.6805
 21
57.737
 31
0.0
  0
LINE
  8
0
 62
     0
 10
48.6805
 20
57.737
 30
0.0
 11
48.6805
 21
54.6379
 31
0.0
  0
LINE
  8
0
 62
     0
 10
48.6805
 20
54.6379
 30
0.0
 11
49.4813
 21
54.6379
 31
0.0
  0
LINE
  8
0
 62
     0
 10
49.4813
 20
54.6379
 30
0.0
 11
49.4813
 21
48.8379
 31
0.0
  0
LINE
  8
0
 62
     0
 10
49.4813
 20
48.8379
 30
0.0
 11
48.6805
 21
48.8379
 31
0.0
  0
LINE
  8
0
 62
     0
 10
48.6805
 20
48.8379
 30
0.0
 11
48.6805
 21
45.7369
 31
0.0
  0
LINE
  8
0
 62
     0
 10
48.6805
 20
45.7369
 30
0.0
 11
49.4813
 21
45.7369
 31
0.0
  0
LINE
  8
0
 62
     0
 10
49.4813
 20
45.7369
 30
0.0
 11
49.4813
 21
44.7379
 31
0.0
  0
LINE
  8
0
 62
     0
 10
49.4813
 20
44.7379
 30
0.0
 11
63.4806
 21
44.7379
 31
0.0
  0
LINE
  8
0
 62
     0
 10
63.4806
 20
44.7379
 30
0.0
 11
63.4806
 21
45.7369
 31
0.0
  0
LINE
  8
0
 62
     0
 10
63.4806
 20
45.7369
 30
0.0
 11
64.2814
 21
45.7369
 31
0.0
  0
LINE
  8
0
 62
     0
 10
64.2814
 20
45.7369
 30
0.0
 11
64.2814
 21
48.8379
 31
0.0
  0
LINE
  8
0
 62
     0
 10
64.2814
 20
48.8379
 30
0.0
 11
63.4806
 21
48.8379
 31
0.0
  0
LINE
  8
0
 62
     0
 10
63.4806
 20
48.8379
 30
0.0
 11
63.4806
 21
54.6379
 31
0.0
  0
LINE
  8
0
 62
     0
 10
63.4806
 20
54.6379
 30
0.0
 11
64.2814
 21
54.6379
 31
0.0
  0
LINE
  8
0
 62
     0
 10
64.2814
 20
54.6379
 30
0.0
 11
64.2814
 21
57.737
 31
0.0
  0
LINE
  8
0
 62
     0
 10
64.2814
 20
57.737
 30
0.0
 11
63.4806
 21
57.737
 31
0.0
  0
LINE
  8
0
 62
     0
 10
63.4806
 20
57.737
 30
0.0
 11
63.4806
 21
58.7375
 31
0.0
  0
LINE
  8
0
 62
     0
 10
63.4806
 20
58.7375
 30
0.0
 11
49.4813
 21
58.7375
 31
0.0
  0
LINE
  8
0
 62
     0
 10
68.5313
 20
58.7375
 30
0.0
 11
68.5313
 21
57.737
 31
0.0
  0
LINE
  8
0
 62
     0
 10
68.5313
 20
57.737
 30
0.0
 11
67.7305
 21
57.737
 31
0.0
  0
LINE
  8
0
 62
     0
 10
67.7305
 20
57.737
 30
0.0
 11
67.7305
 21
54.6379
 31
0.0
  0
LINE
  8
0
 62
     0
 10
67.7305
 20
54.6379
 30
0.0
 11
68.5313
 21
54.6379
 31
0.0
  0
LINE
  8
0
 62
     0
 10
68.5313
 20
54.6379
 30
0.0
 11
68.5313
 21
48.8379
 31
0.0
  0
LINE
  8
0
 62
     0
 10
68.5313
 20
48.8379
 30
0.0
 11
67.7305
 21
48.8379
 31
0.0
  0
LINE
  8
0
 62
     0
 10
67.7305
 20
48.8379
 30
0.0
 11
67.7305
 21
45.7369
 31
0.0
  0
LINE
  8
0
 62
     0
 10
67.7305
 20
45.7369
 30
0.0
 11
68.5313
 21
45.7369
 31
0.0
  0
LINE
  8
0
 62
     0
 10
68.5313
 20
45.7369
 30
0.0
 11
68.5313
 21
44.7379
 31
0.0
  0
LINE
  8
0
 62
     0
 10
68.5313
 20
44.7379
 30
0.0
 11
82.5306
 21
44.7379
 31
0.0
  0
LINE
  8
0
 62
     0
 10
82.5306
 20
44.7379
 30
0.0
 11
82.5306
 21
45.7369
 31
0.0
  0
LINE
  8
0
 62
     0
 10
82.5306
 20
45.7369
 30
0.0
 11
83.3314
 21
45.7369
 31
0.0
  0
LINE
  8
0
 62
     0
 10
83.3314
 20
45.7369
 30
0.0
 11
83.3314
 21
48.8379
 31
0.0
  0
LINE
  8
0
 62
     0
 10
83.3314
 20
48.8379
 30
0.0
 11
82.5306
 21
48.8379
 31
0.0
  0
LINE
  8
0
 62
     0
 10
82.5306
 20
48.8379
 30
0.0
 11
82.5306
 21
54.6379
 31
0.0
  0
LINE
  8
0
 62
     0
 10
82.5306
 20
54.6379
 30
0.0
 11
83.3314
 21
54.6379
 31
0.0
  0
LINE
  8
0
 62
     0
 10
83.3314
 20
54.6379
 30
0.0
 11
83.3314
 21
57.737
 31
0.0
  0
LINE
  8
0
 62
     0
 10
83.3314
 20
57.737
 30
0.0
 11
82.5306
 21
57.737
 31
0.0
  0
LINE
  8
0
 62
     0
 10
82.5306
 20
57.737
 30
0.0
 11
82.5306
 21
58.7375
 31
0.0
  0
LINE
  8
0
 62
     0
 10
82.5306
 20
58.7375
 30
0.0
 11
68.5313
 21
58.7375
 31
0.0
  0
LINE
  8
0
 62
     0
 10
87.5813
 20
58.7375
 30
0.0
 11
87.5813
 21
57.737
 31
0.0
  0
LINE
  8
0
 62
     0
 10
87.5813
 20
57.737
 30
0.0
 11
86.7805
 21
57.737
 31
0.0
  0
LINE
  8
0
 62
     0
 10
86.7805
 20
57.737
 30
0.0
 11
86.7805
 21
54.6379
 31
0.0
  0
LINE
  8
0
 62
     0
 10
86.7805
 20
54.6379
 30
0.0
 11
87.5813
 21
54.6379
 31
0.0
  0
LINE
  8
0
 62
     0
 10
87.5813
 20
54.6379
 30
0.0
 11
87.5813
 21
48.8379
 31
0.0
  0
LINE
  8
0
 62
     0
 10
87.5813
 20
48.8379
 30
0.0
 11
86.7805
 21
48.8379
 31
0.0
  0
LINE
  8
0
 62
     0
 10
86.7805
 20
48.8379
 30
0.0
 11
86.7805
 21
45.7369
 31
0.0
  0
LINE
  8
0
 62
     0
 10
86.7805
 20
45.7369
 30
0.0
 11
87.5813
 21
45.7369
 31
0.0
  0
LINE
  8
0
 62
     0
 10
87.5813
 20
45.7369
 30
0.0
 11
87.5813
 21
44.7379
 31
0.0
  0
LINE
  8
0
 62
     0
 10
87.5813
 20
44.7379
 30
0.0
 11
101.581
 21
44.7379
 31
0.0
  0
LINE
  8
0
 62
     0
 10
101.581
 20
44.7379
 30
0.0
 11
101.581
 21
45.7369
 31
0.0
  0
LINE
  8
0
 62
     0
 10
101.581
 20
45.7369
 30
0.0
 11
102.381
 21
45.7369
 31
0.0
  0
LINE
  8
0
 62
     0
 10
102.381
 20
45.7369
 30
0.0
 11
102.381
 21
48.8379
 31
0.0
  0
LINE
  8
0
 62
     0
 10
102.381
 20
48.8379
 30
0.0
 11
101.581
 21
48.8379
 31
0.0
  0
LINE
  8
0
 62
     0
 10
101.581
 20
48.8379
 30
0.0
 11
101.581
 21
54.6379
 31
0.0
  0
LINE
  8
0
 62
     0
 10
101.581
 20
54.6379
 30
0.0
 11
102.381
 21
54.6379
 31
0.0
  0
LINE
  8
0
 62
     0
 10
102.381
 20
54.6379
 30
0.0
 11
102.381
 21
57.737
 31
0.0
  0
LINE
  8
0
 62
     0
 10
102.381
 20
57.737
 30
0.0
 11
101.581
 21
57.737
 31
0.0
  0
LINE
  8
0
 62
     0
 10
101.581
 20
57.737
 30
0.0
 11
101.581
 21
58.7375
 31
0.0
  0
LINE
  8
0
 62
     0
 10
101.581
 20
58.7375
 30
0.0
 11
87.5813
 21
58.7375
 31
0.0
  0
LINE
  8
0
 62
     0
 10
106.631
 20
58.7375
 30
0.0
 11
106.631
 21
57.737
 31
0.0
  0
LINE
  8
0
 62
     0
 10
106.631
 20
57.737
 30
0.0
 11
105.831
 21
57.737
 31
0.0
  0
LINE
  8
0
 62
     0
 10
105.831
 20
57.737
 30
0.0
 11
105.831
 21
54.6379
 31
0.0
  0
LINE
  8
0
 62
     0
 10
105.831
 20
54.6379
 30
0.0
 11
106.631
 21
54.6379
 31
0.0
  0
LINE
  8
0
 62
     0
 10
106.631
 20
54.6379
 30
0.0
 11
106.631
 21
48.8379
 31
0.0
  0
LINE
  8
0
 62
     0
 10
106.631
 20
48.8379
 30
0.0
 11
105.831
 21
48.8379
 31
0.0
  0
LINE
  8
0
 62
     0
 10
105.831
 20
48.8379
 30
0.0
 11
105.831
 21
45.7369
 31
0.0
  0
LINE
  8
0
 62
     0
 10
105.831
 20
45.7369
 30
0.0
 11
106.631
 21
45.7369
 31
0.0
  0
LINE
  8
0
 62
     0
 10
106.631
 20
45.7369
 30
0.0
 11
106.631
 21
44.7379
 31
0.0
  0
LINE
  8
0
 62
     0
 10
106.631
 20
44.7379
 30
0.0
 11
120.631
 21
44.7379
 31
0.0
  0
LINE
  8
0
 62
     0
 10
120.631
 20
44.7379
 30
0.0
 11
120.631
 21
45.7369
 31
0.0
  0
LINE
  8
0
 62
     0
 10
120.631
 20
45.7369
 30
0.0
 11
121.431
 21
45.7369
 31
0.0
  0
LINE
  8
0
 62
     0
 10
121.431
 20
45.7369
 30
0.0
 11
121.431
 21
48.8379
 31
0.0
  0
LINE
  8
0
 62
     0
 10
121.431
 20
48.8379
 30
0.0
 11
120.631
 21
48.8379
 31
0.0
  0
LINE
  8
0
 62
     0
 10
120.631
 20
48.8379
 30
0.0
 11
120.631
 21
54.6379
 31
0.0
  0
LINE
  8
0
 62
     0
 10
120.631
 20
54.6379
 30
0.0
 11
121.431
 21
54.6379
 31
0.0
  0
LINE
  8
0
 62
     0
 10
121.431
 20
54.6379
 30
0.0
 11
121.431
 21
57.737
 31
0.0
  0
LINE
  8
0
 62
     0
 10
121.431
 20
57.737
 30
0.0
 11
120.631
 21
57.737
 31
0.0
  0
LINE
  8
0
 62
     0
 10
120.631
 20
57.737
 30
0.0
 11
120.631
 21
58.7375
 31
0.0
  0
LINE
  8
0
 62
     0
 10
120.631
 20
58.7375
 30
0.0
 11
106.631
 21
58.7375
 31
0.0
  0
LINE
  8
0
 62
     0
 10
125.68
 20
58.7375
 30
0.0
 11
125.68
 21
57.737
 31
0.0
  0
LINE
  8
0
 62
     0
 10
125.68
 20
57.737
 30
0.0
 11
124.881
 21
57.737
 31
0.0
  0
LINE
  8
0
 62
     0
 10
124.881
 20
57.737
 30
0.0
 11
124.881
 21
54.6379
 31
0.0
  0
LINE
  8
0
 62
     0
 10
124.881
 20
54.6379
 30
0.0
 11
125.68
 21
54.6379
 31
0.0
  0
LINE
  8
0
 62
     0
 10
125.68
 20
54.6379
 30
0.0
 11
125.68
 21
48.8379
 31
0.0
  0
LINE
  8
0
 62
     0
 10
125.68
 20
48.8379
 30
0.0
 11
124.881
 21
48.8379
 31
0.0
  0
LINE
  8
0
 62
     0
 10
124.881
 20
48.8379
 30
0.0
 11
124.881
 21
45.7369
 31
0.0
  0
LINE
  8
0
 62
     0
 10
124.881
 20
45.7369
 30
0.0
 11
125.68
 21
45.7369
 31
0.0
  0
LINE
  8
0
 62
     0
 10
125.68
 20
45.7369
 30
0.0
 11
125.68
 21
44.7379
 31
0.0
  0
LINE
  8
0
 62
     0
 10
125.68
 20
44.7379
 30
0.0
 11
139.681
 21
44.7379
 31
0.0
  0
LINE
  8
0
 62
     0
 10
139.681
 20
44.7379
 30
0.0
 11
139.681
 21
45.7369
 31
0.0
  0
LINE
  8
0
 62
     0
 10
139.681
 20
45.7369
 30
0.0
 11
140.481
 21
45.7369
 31
0.0
  0
LINE
  8
0
 62
     0
 10
140.481
 20
45.7369
 30
0.0
 11
140.481
 21
48.8379
 31
0.0
  0
LINE
  8
0
 62
     0
 10
140.481
 20
48.8379
 30
0.0
 11
139.681
 21
48.8379
 31
0.0
  0
LINE
  8
0
 62
     0
 10
139.681
 20
48.8379
 30
0.0
 11
139.681
 21
54.6379
 31
0.0
  0
LINE
  8
0
 62
     0
 10
139.681
 20
54.6379
 30
0.0
 11
140.481
 21
54.6379
 31
0.0
  0
LINE
  8
0
 62
     0
 10
140.481
 20
54.6379
 30
0.0
 11
140.481
 21
57.737
 31
0.0
  0
LINE
  8
0
 62
     0
 10
140.481
 20
57.737
 30
0.0
 11
139.681
 21
57.737
 31
0.0
  0
LINE
  8
0
 62
     0
 10
139.681
 20
57.737
 30
0.0
 11
139.681
 21
58.7375
 31
0.0
  0
LINE
  8
0
 62
     0
 10
139.681
 20
58.7375
 30
0.0
 11
125.68
 21
58.7375
 31
0.0
  0
LINE
  8
0
 62
     0
 10
144.731
 20
58.7375
 30
0.0
 11
144.731
 21
57.737
 31
0.0
  0
LINE
  8
0
 62
     0
 10
144.731
 20
57.737
 30
0.0
 11
143.931
 21
57.737
 31
0.0
  0
LINE
  8
0
 62
     0
 10
143.931
 20
57.737
 30
0.0
 11
143.931
 21
54.6379
 31
0.0
  0
LINE
  8
0
 62
     0
 10
143.931
 20
54.6379
 30
0.0
 11
144.731
 21
54.6379
 31
0.0
  0
LINE
  8
0
 62
     0
 10
144.731
 20
54.6379
 30
0.0
 11
144.731
 21
48.8379
 31
0.0
  0
LINE
  8
0
 62
     0
 10
144.731
 20
48.8379
 30
0.0
 11
143.931
 21
48.8379
 31
0.0
  0
LINE
  8
0
 62
     0
 10
143.931
 20
48.8379
 30
0.0
 11
143.931
 21
45.7369
 31
0.0
  0
LINE
  8
0
 62
     0
 10
143.931
 20
45.7369
 30
0.0
 11
144.731
 21
45.7369
 31
0.0
  0
LINE
  8
0
 62
     0
 10
144.731
 20
45.7369
 30
0.0
 11
144.731
 21
44.7379
 31
0.0
  0
LINE
  8
0
 62
     0
 10
144.731
 20
44.7379
 30
0.0
 11
158.731
 21
44.7379
 31
0.0
  0
LINE
  8
0
 62
     0
 10
158.731
 20
44.7379
 30
0.0
 11
158.731
 21
45.7369
 31
0.0
  0
LINE
  8
0
 62
     0
 10
158.731
 20
45.7369
 30
0.0
 11
159.531
 21
45.7369
 31
0.0
  0
LINE
  8
0
 62
     0
 10
159.531
 20
45.7369
 30
0.0
 11
159.531
 21
48.8379
 31
0.0
  0
LINE
  8
0
 62
     0
 10
159.531
 20
48.8379
 30
0.0
 11
158.731
 21
48.8379
 31
0.0
  0
LINE
  8
0
 62
     0
 10
158.731
 20
48.8379
 30
0.0
 11
158.731
 21
54.6379
 31
0.0
  0
LINE
  8
0
 62
     0
 10
158.731
 20
54.6379
 30
0.0
 11
159.531
 21
54.6379
 31
0.0
  0
LINE
  8
0
 62
     0
 10
159.531
 20
54.6379
 30
0.0
 11
159.531
 21
57.737
 31
0.0
  0
LINE
  8
0
 62
     0
 10
159.531
 20
57.737
 30
0.0
 11
158.731
 21
57.737
 31
0.0
  0
LINE
  8
0
 62
     0
 10
158.731
 20
57.737
 30
0.0
 11
158.731
 21
58.7375
 31
0.0
  0
LINE
  8
0
 62
     0
 10
158.731
 20
58.7375
 30
0.0
 11
144.731
 21
58.7375
 31
0.0
  0
LINE
  8
0
 62
     0
 10
163.781
 20
58.7375
 30
0.0
 11
163.781
 21
57.737
 31
0.0
  0
LINE
  8
0
 62
     0
 10
163.781
 20
57.737
 30
0.0
 11
162.981
 21
57.737
 31
0.0
  0
LINE
  8
0
 62
     0
 10
162.981
 20
57.737
 30
0.0
 11
162.981
 21
54.6379
 31
0.0
  0
LINE
  8
0
 62
     0
 10
162.981
 20
54.6379
 30
0.0
 11
163.781
 21
54.6379
 31
0.0
  0
LINE
  8
0
 62
     0
 10
163.781
 20
54.6379
 30
0.0
 11
163.781
 21
48.8379
 31
0.0
  0
LINE
  8
0
 62
     0
 10
163.781
 20
48.8379
 30
0.0
 11
162.981
 21
48.8379
 31
0.0
  0
LINE
  8
0
 62
     0
 10
162.981
 20
48.8379
 30
0.0
 11
162.981
 21
45.7369
 31
0.0
  0
LINE
  8
0
 62
     0
 10
162.981
 20
45.7369
 30
0.0
 11
163.781
 21
45.7369
 31
0.0
  0
LINE
  8
0
 62
     0
 10
163.781
 20
45.7369
 30
0.0
 11
163.781
 21
44.7379
 31
0.0
  0
LINE
  8
0
 62
     0
 10
163.781
 20
44.7379
 30
0.0
 11
177.781
 21
44.7379
 31
0.0
  0
LINE
  8
0
 62
     0
 10
177.781
 20
44.7379
 30
0.0
 11
177.781
 21
45.7369
 31
0.0
  0
LINE
  8
0
 62
     0
 10
177.781
 20
45.7369
 30
0.0
 11
178.581
 21
45.7369
 31
0.0
  0
LINE
  8
0
 62
     0
 10
178.581
 20
45.7369
 30
0.0
 11
178.581
 21
48.8379
 31
0.0
  0
LINE
  8
0
 62
     0
 10
178.581
 20
48.8379
 30
0.0
 11
177.781
 21
48.8379
 31
0.0
  0
LINE
  8
0
 62
     0
 10
177.781
 20
48.8379
 30
0.0
 11
177.781
 21
54.6379
 31
0.0
  0
LINE
  8
0
 62
     0
 10
177.781
 20
54.6379
 30
0.0
 11
178.581
 21
54.6379
 31
0.0
  0
LINE
  8
0
 62
     0
 10
178.581
 20
54.6379
 30
0.0
 11
178.581
 21
57.737
 31
0.0
  0
LINE
  8
0
 62
     0
 10
178.581
 20
57.737
 30
0.0
 11
177.781
 21
57.737
 31
0.0
  0
LINE
  8
0
 62
     0
 10
177.781
 20
57.737
 30
0.0
 11
177.781
 21
58.7375
 31
0.0
  0
LINE
  8
0
 62
     0
 10
177.781
 20
58.7375
 30
0.0
 11
163.781
 21
58.7375
 31
0.0
  0
LINE
  8
0
 62
     0
 10
182.831
 20
58.7375
 30
0.0
 11
182.831
 21
57.737
 31
0.0
  0
LINE
  8
0
 62
     0
 10
182.831
 20
57.737
 30
0.0
 11
182.031
 21
57.737
 31
0.0
  0
LINE
  8
0
 62
     0
 10
182.031
 20
57.737
 30
0.0
 11
182.031
 21
54.6379
 31
0.0
  0
LINE
  8
0
 62
     0
 10
182.031
 20
54.6379
 30
0.0
 11
182.831
 21
54.6379
 31
0.0
  0
LINE
  8
0
 62
     0
 10
182.831
 20
54.6379
 30
0.0
 11
182.831
 21
48.8379
 31
0.0
  0
LINE
  8
0
 62
     0
 10
182.831
 20
48.8379
 30
0.0
 11
182.031
 21
48.8379
 31
0.0
  0
LINE
  8
0
 62
     0
 10
182.031
 20
48.8379
 30
0.0
 11
182.031
 21
45.7369
 31
0.0
  0
LINE
  8
0
 62
     0
 10
182.031
 20
45.7369
 30
0.0
 11
182.831
 21
45.7369
 31
0.0
  0
LINE
  8
0
 62
     0
 10
182.831
 20
45.7369
 30
0.0
 11
182.831
 21
44.7379
 31
0.0
  0
LINE
  8
0
 62
     0
 10
182.831
 20
44.7379
 30
0.0
 11
196.831
 21
44.7379
 31
0.0
  0
LINE
  8
0
 62
     0
 10
196.831
 20
44.7379
 30
0.0
 11
196.831
 21
45.7369
 31
0.0
  0
LINE
  8
0
 62
     0
 10
196.831
 20
45.7369
 30
0.0
 11
197.631
 21
45.7369
 31
0.0
  0
LINE
  8
0
 62
     0
 10
197.631
 20
45.7369
 30
0.0
 11
197.631
 21
48.8379
 31
0.0
  0
LINE
  8
0
 62
     0
 10
197.631
 20
48.8379
 30
0.0
 11
196.831
 21
48.8379
 31
0.0
  0
LINE
  8
0
 62
     0
 10
196.831
 20
48.8379
 30
0.0
 11
196.831
 21
54.6379
 31
0.0
  0
LINE
  8
0
 62
     0
 10
196.831
 20
54.6379
 30
0.0
 11
197.631
 21
54.6379
 31
0.0
  0
LINE
  8
0
 62
     0
 10
197.631
 20
54.6379
 30
0.0
 11
197.631
 21
57.737
 31
0.0
  0
LINE
  8
0
 62
     0
 10
197.631
 20
57.737
 30
0.0
 11
196.831
 21
57.737
 31
0.0
  0
LINE
  8
0
 62
     0
 10
196.831
 20
57.737
 30
0.0
 11
196.831
 21
58.7375
 31
0.0
  0
LINE
  8
0
 62
     0
 10
196.831
 20
58.7375
 30
0.0
 11
182.831
 21
58.7375
 31
0.0
  0
LINE
  8
0
 62
     0
 10
201.881
 20
58.7375
 30
0.0
 11
201.881
 21
57.737
 31
0.0
  0
LINE
  8
0
 62
     0
 10
201.881
 20
57.737
 30
0.0
 11
201.081
 21
57.737
 31
0.0
  0
LINE
  8
0
 62
     0
 10
201.081
 20
57.737
 30
0.0
 11
201.081
 21
54.6379
 31
0.0
  0
LINE
  8
0
 62
     0
 10
201.081
 20
54.6379
 30
0.0
 11
201.881
 21
54.6379
 31
0.0
  0
LINE
  8
0
 62
     0
 10
201.881
 20
54.6379
 30
0.0
 11
201.881
 21
48.8379
 31
0.0
  0
LINE
  8
0
 62
     0
 10
201.881
 20
48.8379
 30
0.0
 11
201.081
 21
48.8379
 31
0.0
  0
LINE
  8
0
 62
     0
 10
201.081
 20
48.8379
 30
0.0
 11
201.081
 21
45.7369
 31
0.0
  0
LINE
  8
0
 62
     0
 10
201.081
 20
45.7369
 30
0.0
 11
201.881
 21
45.7369
 31
0.0
  0
LINE
  8
0
 62
     0
 10
201.881
 20
45.7369
 30
0.0
 11
201.881
 21
44.7379
 31
0.0
  0
LINE
  8
0
 62
     0
 10
201.881
 20
44.7379
 30
0.0
 11
215.881
 21
44.7379
 31
0.0
  0
LINE
  8
0
 62
     0
 10
215.881
 20
44.7379
 30
0.0
 11
215.881
 21
45.7369
 31
0.0
  0
LINE
  8
0
 62
     0
 10
215.881
 20
45.7369
 30
0.0
 11
216.681
 21
45.7369
 31
0.0
  0
LINE
  8
0
 62
     0
 10
216.681
 20
45.7369
 30
0.0
 11
216.681
 21
48.8379
 31
0.0
  0
LINE
  8
0
 62
     0
 10
216.681
 20
48.8379
 30
0.0
 11
215.881
 21
48.8379
 31
0.0
  0
LINE
  8
0
 62
     0
 10
215.881
 20
48.8379
 30
0.0
 11
215.881
 21
54.6379
 31
0.0
  0
LINE
  8
0
 62
     0
 10
215.881
 20
54.6379
 30
0.0
 11
216.681
 21
54.6379
 31
0.0
  0
LINE
  8
0
 62
     0
 10
216.681
 20
54.6379
 30
0.0
 11
216.681
 21
57.737
 31
0.0
  0
LINE
  8
0
 62
     0
 10
216.681
 20
57.737
 30
0.0
 11
215.881
 21
57.737
 31
0.0
  0
LINE
  8
0
 62
     0
 10
215.881
 20
57.737
 30
0.0
 11
215.881
 21
58.7375
 31
0.0
  0
LINE
  8
0
 62
     0
 10
215.881
 20
58.7375
 30
0.0
 11
201.881
 21
58.7375
 31
0.0
  0
LINE
  8
0
 62
     0
 10
220.931
 20
58.7375
 30
0.0
 11
220.931
 21
57.737
 31
0.0
  0
LINE
  8
0
 62
     0
 10
220.931
 20
57.737
 30
0.0
 11
220.131
 21
57.737
 31
0.0
  0
LINE
  8
0
 62
     0
 10
220.131
 20
57.737
 30
0.0
 11
220.131
 21
54.6379
 31
0.0
  0
LINE
  8
0
 62
     0
 10
220.131
 20
54.6379
 30
0.0
 11
220.931
 21
54.6379
 31
0.0
  0
LINE
  8
0
 62
     0
 10
220.931
 20
54.6379
 30
0.0
 11
220.931
 21
48.8379
 31
0.0
  0
LINE
  8
0
 62
     0
 10
220.931
 20
48.8379
 30
0.0
 11
220.131
 21
48.8379
 31
0.0
  0
LINE
  8
0
 62
     0
 10
220.131
 20
48.8379
 30
0.0
 11
220.131
 21
45.7369
 31
0.0
  0
LINE
  8
0
 62
     0
 10
220.131
 20
45.7369
 30
0.0
 11
220.931
 21
45.7369
 31
0.0
  0
LINE
  8
0
 62
     0
 10
220.931
 20
45.7369
 30
0.0
 11
220.931
 21
44.7379
 31
0.0
  0
LINE
  8
0
 62
     0
 10
220.931
 20
44.7379
 30
0.0
 11
234.931
 21
44.7379
 31
0.0
  0
LINE
  8
0
 62
     0
 10
234.931
 20
44.7379
 30
0.0
 11
234.931
 21
45.7369
 31
0.0
  0
LINE
  8
0
 62
     0
 10
234.931
 20
45.7369
 30
0.0
 11
235.731
 21
45.7369
 31
0.0
  0
LINE
  8
0
 62
     0
 10
235.731
 20
45.7369
 30
0.0
 11
235.731
 21
48.8379
 31
0.0
  0
LINE
  8
0
 62
     0
 10
235.731
 20
48.8379
 30
0.0
 11
234.931
 21
48.8379
 31
0.0
  0
LINE
  8
0
 62
     0
 10
234.931
 20
48.8379
 30
0.0
 11
234.931
 21
54.6379
 31
0.0
  0
LINE
  8
0
 62
     0
 10
234.931
 20
54.6379
 30
0.0
 11
235.731
 21
54.6379
 31
0.0
  0
LINE
  8
0
 62
     0
 10
235.731
 20
54.6379
 30
0.0
 11
235.731
 21
57.737
 31
0.0
  0
LINE
  8
0
 62
     0
 10
235.731
 20
57.737
 30
0.0
 11
234.931
 21
57.737
 31
0.0
  0
LINE
  8
0
 62
     0
 10
234.931
 20
57.737
 30
0.0
 11
234.931
 21
58.7375
 31
0.0
  0
LINE
  8
0
 62
     0
 10
234.931
 20
58.7375
 30
0.0
 11
220.931
 21
58.7375
 31
0.0
  0
LINE
  8
0
 62
     0
 10
247.125
 20
58.7375
 30
0.0
 11
247.125
 21
57.737
 31
0.0
  0
LINE
  8
0
 62
     0
 10
247.125
 20
57.737
 30
0.0
 11
246.324
 21
57.737
 31
0.0
  0
LINE
  8
0
 62
     0
 10
246.324
 20
57.737
 30
0.0
 11
246.324
 21
54.6379
 31
0.0
  0
LINE
  8
0
 62
     0
 10
246.324
 20
54.6379
 30
0.0
 11
247.125
 21
54.6379
 31
0.0
  0
LINE
  8
0
 62
     0
 10
247.125
 20
54.6379
 30
0.0
 11
247.125
 21
48.8379
 31
0.0
  0
LINE
  8
0
 62
     0
 10
247.125
 20
48.8379
 30
0.0
 11
246.324
 21
48.8379
 31
0.0
  0
LINE
  8
0
 62
     0
 10
246.324
 20
48.8379
 30
0.0
 11
246.324
 21
45.7369
 31
0.0
  0
LINE
  8
0
 62
     0
 10
246.324
 20
45.7369
 30
0.0
 11
247.125
 21
45.7369
 31
0.0
  0
LINE
  8
0
 62
     0
 10
247.125
 20
45.7369
 30
0.0
 11
247.125
 21
44.7379
 31
0.0
  0
LINE
  8
0
 62
     0
 10
247.125
 20
44.7379
 30
0.0
 11
261.124
 21
44.7379
 31
0.0
  0
LINE
  8
0
 62
     0
 10
261.124
 20
44.7379
 30
0.0
 11
261.124
 21
45.7369
 31
0.0
  0
LINE
  8
0
 62
     0
 10
261.124
 20
45.7369
 30
0.0
 11
261.925
 21
45.7369
 31
0.0
  0
LINE
  8
0
 62
     0
 10
261.925
 20
45.7369
 30
0.0
 11
261.925
 21
48.8379
 31
0.0
  0
LINE
  8
0
 62
     0
 10
261.925
 20
48.8379
 30
0.0
 11
261.124
 21
48.8379
 31
0.0
  0
LINE
  8
0
 62
     0
 10
261.124
 20
48.8379
 30
0.0
 11
261.124
 21
54.6379
 31
0.0
  0
LINE
  8
0
 62
     0
 10
261.124
 20
54.6379
 30
0.0
 11
261.925
 21
54.6379
 31
0.0
  0
LINE
  8
0
 62
     0
 10
261.925
 20
54.6379
 30
0.0
 11
261.925
 21
57.737
 31
0.0
  0
LINE
  8
0
 62
     0
 10
261.925
 20
57.737
 30
0.0
 11
261.124
 21
57.737
 31
0.0
  0
LINE
  8
0
 62
     0
 10
261.124
 20
57.737
 30
0.0
 11
261.124
 21
58.7375
 31
0.0
  0
LINE
  8
0
 62
     0
 10
261.124
 20
58.7375
 30
0.0
 11
247.125
 21
58.7375
 31
0.0
  0
LINE
  8
0
 62
     0
 10
6.61733
 20
77.7889
 30
0.0
 11
6.61733
 21
76.7884
 31
0.0
  0
LINE
  8
0
 62
     0
 10
6.61733
 20
76.7884
 30
0.0
 11
5.81808
 21
76.7884
 31
0.0
  0
LINE
  8
0
 62
     0
 10
5.81808
 20
76.7884
 30
0.0
 11
5.81808
 21
73.6879
 31
0.0
  0
LINE
  8
0
 62
     0
 10
5.81808
 20
73.6879
 30
0.0
 11
6.61733
 21
73.6879
 31
0.0
  0
LINE
  8
0
 62
     0
 10
6.61733
 20
73.6879
 30
0.0
 11
6.61733
 21
67.8889
 31
0.0
  0
LINE
  8
0
 62
     0
 10
6.61733
 20
67.8889
 30
0.0
 11
5.81808
 21
67.8889
 31
0.0
  0
LINE
  8
0
 62
     0
 10
5.81808
 20
67.8889
 30
0.0
 11
5.81808
 21
64.7869
 31
0.0
  0
LINE
  8
0
 62
     0
 10
5.81808
 20
64.7869
 30
0.0
 11
6.61733
 21
64.7869
 31
0.0
  0
LINE
  8
0
 62
     0
 10
6.61733
 20
64.7869
 30
0.0
 11
6.61733
 21
63.7879
 31
0.0
  0
LINE
  8
0
 62
     0
 10
6.61733
 20
63.7879
 30
0.0
 11
20.6182
 21
63.7879
 31
0.0
  0
LINE
  8
0
 62
     0
 10
20.6182
 20
63.7879
 30
0.0
 11
20.6182
 21
64.7869
 31
0.0
  0
LINE
  8
0
 62
     0
 10
20.6182
 20
64.7869
 30
0.0
 11
21.4188
 21
64.7869
 31
0.0
  0
LINE
  8
0
 62
     0
 10
21.4188
 20
64.7869
 30
0.0
 11
21.4188
 21
67.8889
 31
0.0
  0
LINE
  8
0
 62
     0
 10
21.4188
 20
67.8889
 30
0.0
 11
20.6182
 21
67.8889
 31
0.0
  0
LINE
  8
0
 62
     0
 10
20.6182
 20
67.8889
 30
0.0
 11
20.6182
 21
73.6879
 31
0.0
  0
LINE
  8
0
 62
     0
 10
20.6182
 20
73.6879
 30
0.0
 11
21.4188
 21
73.6879
 31
0.0
  0
LINE
  8
0
 62
     0
 10
21.4188
 20
73.6879
 30
0.0
 11
21.4188
 21
76.7884
 31
0.0
  0
LINE
  8
0
 62
     0
 10
21.4188
 20
76.7884
 30
0.0
 11
20.6182
 21
76.7884
 31
0.0
  0
LINE
  8
0
 62
     0
 10
20.6182
 20
76.7884
 30
0.0
 11
20.6182
 21
77.7889
 31
0.0
  0
LINE
  8
0
 62
     0
 10
20.6182
 20
77.7889
 30
0.0
 11
6.61733
 21
77.7889
 31
0.0
  0
LINE
  8
0
 62
     0
 10
25.6687
 20
77.7889
 30
0.0
 11
25.6687
 21
76.7884
 31
0.0
  0
LINE
  8
0
 62
     0
 10
25.6687
 20
76.7884
 30
0.0
 11
24.8681
 21
76.7884
 31
0.0
  0
LINE
  8
0
 62
     0
 10
24.8681
 20
76.7884
 30
0.0
 11
24.8681
 21
73.6879
 31
0.0
  0
LINE
  8
0
 62
     0
 10
24.8681
 20
73.6879
 30
0.0
 11
25.6687
 21
73.6879
 31
0.0
  0
LINE
  8
0
 62
     0
 10
25.6687
 20
73.6879
 30
0.0
 11
25.6687
 21
67.8889
 31
0.0
  0
LINE
  8
0
 62
     0
 10
25.6687
 20
67.8889
 30
0.0
 11
24.8681
 21
67.8889
 31
0.0
  0
LINE
  8
0
 62
     0
 10
24.8681
 20
67.8889
 30
0.0
 11
24.8681
 21
64.7869
 31
0.0
  0
LINE
  8
0
 62
     0
 10
24.8681
 20
64.7869
 30
0.0
 11
25.6687
 21
64.7869
 31
0.0
  0
LINE
  8
0
 62
     0
 10
25.6687
 20
64.7869
 30
0.0
 11
25.6687
 21
63.7879
 31
0.0
  0
LINE
  8
0
 62
     0
 10
25.6687
 20
63.7879
 30
0.0
 11
39.6681
 21
63.7879
 31
0.0
  0
LINE
  8
0
 62
     0
 10
39.6681
 20
63.7879
 30
0.0
 11
39.6681
 21
64.7869
 31
0.0
  0
LINE
  8
0
 62
     0
 10
39.6681
 20
64.7869
 30
0.0
 11
40.4689
 21
64.7869
 31
0.0
  0
LINE
  8
0
 62
     0
 10
40.4689
 20
64.7869
 30
0.0
 11
40.4689
 21
67.8889
 31
0.0
  0
LINE
  8
0
 62
     0
 10
40.4689
 20
67.8889
 30
0.0
 11
39.6681
 21
67.8889
 31
0.0
  0
LINE
  8
0
 62
     0
 10
39.6681
 20
67.8889
 30
0.0
 11
39.6681
 21
73.6879
 31
0.0
  0
LINE
  8
0
 62
     0
 10
39.6681
 20
73.6879
 30
0.0
 11
40.4689
 21
73.6879
 31
0.0
  0
LINE
  8
0
 62
     0
 10
40.4689
 20
73.6879
 30
0.0
 11
40.4689
 21
76.7884
 31
0.0
  0
LINE
  8
0
 62
     0
 10
40.4689
 20
76.7884
 30
0.0
 11
39.6681
 21
76.7884
 31
0.0
  0
LINE
  8
0
 62
     0
 10
39.6681
 20
76.7884
 30
0.0
 11
39.6681
 21
77.7889
 31
0.0
  0
LINE
  8
0
 62
     0
 10
39.6681
 20
77.7889
 30
0.0
 11
25.6687
 21
77.7889
 31
0.0
  0
LINE
  8
0
 62
     0
 10
44.7188
 20
77.7889
 30
0.0
 11
44.7188
 21
76.7884
 31
0.0
  0
LINE
  8
0
 62
     0
 10
44.7188
 20
76.7884
 30
0.0
 11
43.918
 21
76.7884
 31
0.0
  0
LINE
  8
0
 62
     0
 10
43.918
 20
76.7884
 30
0.0
 11
43.918
 21
73.6879
 31
0.0
  0
LINE
  8
0
 62
     0
 10
43.918
 20
73.6879
 30
0.0
 11
44.7188
 21
73.6879
 31
0.0
  0
LINE
  8
0
 62
     0
 10
44.7188
 20
73.6879
 30
0.0
 11
44.7188
 21
67.8889
 31
0.0
  0
LINE
  8
0
 62
     0
 10
44.7188
 20
67.8889
 30
0.0
 11
43.918
 21
67.8889
 31
0.0
  0
LINE
  8
0
 62
     0
 10
43.918
 20
67.8889
 30
0.0
 11
43.918
 21
64.7869
 31
0.0
  0
LINE
  8
0
 62
     0
 10
43.918
 20
64.7869
 30
0.0
 11
44.7188
 21
64.7869
 31
0.0
  0
LINE
  8
0
 62
     0
 10
44.7188
 20
64.7869
 30
0.0
 11
44.7188
 21
63.7879
 31
0.0
  0
LINE
  8
0
 62
     0
 10
44.7188
 20
63.7879
 30
0.0
 11
58.7181
 21
63.7879
 31
0.0
  0
LINE
  8
0
 62
     0
 10
58.7181
 20
63.7879
 30
0.0
 11
58.7181
 21
64.7869
 31
0.0
  0
LINE
  8
0
 62
     0
 10
58.7181
 20
64.7869
 30
0.0
 11
59.5189
 21
64.7869
 31
0.0
  0
LINE
  8
0
 62
     0
 10
59.5189
 20
64.7869
 30
0.0
 11
59.5189
 21
67.8889
 31
0.0
  0
LINE
  8
0
 62
     0
 10
59.5189
 20
67.8889
 30
0.0
 11
58.7181
 21
67.8889
 31
0.0
  0
LINE
  8
0
 62
     0
 10
58.7181
 20
67.8889
 30
0.0
 11
58.7181
 21
73.6879
 31
0.0
  0
LINE
  8
0
 62
     0
 10
58.7181
 20
73.6879
 30
0.0
 11
59.5189
 21
73.6879
 31
0.0
  0
LINE
  8
0
 62
     0
 10
59.5189
 20
73.6879
 30
0.0
 11
59.5189
 21
76.7884
 31
0.0
  0
LINE
  8
0
 62
     0
 10
59.5189
 20
76.7884
 30
0.0
 11
58.7181
 21
76.7884
 31
0.0
  0
LINE
  8
0
 62
     0
 10
58.7181
 20
76.7884
 30
0.0
 11
58.7181
 21
77.7889
 31
0.0
  0
LINE
  8
0
 62
     0
 10
58.7181
 20
77.7889
 30
0.0
 11
44.7188
 21
77.7889
 31
0.0
  0
LINE
  8
0
 62
     0
 10
63.7688
 20
77.7889
 30
0.0
 11
63.7688
 21
76.7884
 31
0.0
  0
LINE
  8
0
 62
     0
 10
63.7688
 20
76.7884
 30
0.0
 11
62.968
 21
76.7884
 31
0.0
  0
LINE
  8
0
 62
     0
 10
62.968
 20
76.7884
 30
0.0
 11
62.968
 21
73.6879
 31
0.0
  0
LINE
  8
0
 62
     0
 10
62.968
 20
73.6879
 30
0.0
 11
63.7688
 21
73.6879
 31
0.0
  0
LINE
  8
0
 62
     0
 10
63.7688
 20
73.6879
 30
0.0
 11
63.7688
 21
67.8889
 31
0.0
  0
LINE
  8
0
 62
     0
 10
63.7688
 20
67.8889
 30
0.0
 11
62.968
 21
67.8889
 31
0.0
  0
LINE
  8
0
 62
     0
 10
62.968
 20
67.8889
 30
0.0
 11
62.968
 21
64.7869
 31
0.0
  0
LINE
  8
0
 62
     0
 10
62.968
 20
64.7869
 30
0.0
 11
63.7688
 21
64.7869
 31
0.0
  0
LINE
  8
0
 62
     0
 10
63.7688
 20
64.7869
 30
0.0
 11
63.7688
 21
63.7879
 31
0.0
  0
LINE
  8
0
 62
     0
 10
63.7688
 20
63.7879
 30
0.0
 11
77.7681
 21
63.7879
 31
0.0
  0
LINE
  8
0
 62
     0
 10
77.7681
 20
63.7879
 30
0.0
 11
77.7681
 21
64.7869
 31
0.0
  0
LINE
  8
0
 62
     0
 10
77.7681
 20
64.7869
 30
0.0
 11
78.5689
 21
64.7869
 31
0.0
  0
LINE
  8
0
 62
     0
 10
78.5689
 20
64.7869
 30
0.0
 11
78.5689
 21
67.8889
 31
0.0
  0
LINE
  8
0
 62
     0
 10
78.5689
 20
67.8889
 30
0.0
 11
77.7681
 21
67.8889
 31
0.0
  0
LINE
  8
0
 62
     0
 10
77.7681
 20
67.8889
 30
0.0
 11
77.7681
 21
73.6879
 31
0.0
  0
LINE
  8
0
 62
     0
 10
77.7681
 20
73.6879
 30
0.0
 11
78.5689
 21
73.6879
 31
0.0
  0
LINE
  8
0
 62
     0
 10
78.5689
 20
73.6879
 30
0.0
 11
78.5689
 21
76.7884
 31
0.0
  0
LINE
  8
0
 62
     0
 10
78.5689
 20
76.7884
 30
0.0
 11
77.7681
 21
76.7884
 31
0.0
  0
LINE
  8
0
 62
     0
 10
77.7681
 20
76.7884
 30
0.0
 11
77.7681
 21
77.7889
 31
0.0
  0
LINE
  8
0
 62
     0
 10
77.7681
 20
77.7889
 30
0.0
 11
63.7688
 21
77.7889
 31
0.0
  0
LINE
  8
0
 62
     0
 10
82.8188
 20
77.7889
 30
0.0
 11
82.8188
 21
76.7884
 31
0.0
  0
LINE
  8
0
 62
     0
 10
82.8188
 20
76.7884
 30
0.0
 11
82.018
 21
76.7884
 31
0.0
  0
LINE
  8
0
 62
     0
 10
82.018
 20
76.7884
 30
0.0
 11
82.018
 21
73.6879
 31
0.0
  0
LINE
  8
0
 62
     0
 10
82.018
 20
73.6879
 30
0.0
 11
82.8188
 21
73.6879
 31
0.0
  0
LINE
  8
0
 62
     0
 10
82.8188
 20
73.6879
 30
0.0
 11
82.8188
 21
67.8889
 31
0.0
  0
LINE
  8
0
 62
     0
 10
82.8188
 20
67.8889
 30
0.0
 11
82.018
 21
67.8889
 31
0.0
  0
LINE
  8
0
 62
     0
 10
82.018
 20
67.8889
 30
0.0
 11
82.018
 21
64.7869
 31
0.0
  0
LINE
  8
0
 62
     0
 10
82.018
 20
64.7869
 30
0.0
 11
82.8188
 21
64.7869
 31
0.0
  0
LINE
  8
0
 62
     0
 10
82.8188
 20
64.7869
 30
0.0
 11
82.8188
 21
63.7879
 31
0.0
  0
LINE
  8
0
 62
     0
 10
82.8188
 20
63.7879
 30
0.0
 11
96.8181
 21
63.7879
 31
0.0
  0
LINE
  8
0
 62
     0
 10
96.8181
 20
63.7879
 30
0.0
 11
96.8181
 21
64.7869
 31
0.0
  0
LINE
  8
0
 62
     0
 10
96.8181
 20
64.7869
 30
0.0
 11
97.6175
 21
64.7869
 31
0.0
  0
LINE
  8
0
 62
     0
 10
97.6175
 20
64.7869
 30
0.0
 11
97.6175
 21
67.8889
 31
0.0
  0
LINE
  8
0
 62
     0
 10
97.6175
 20
67.8889
 30
0.0
 11
96.8181
 21
67.8889
 31
0.0
  0
LINE
  8
0
 62
     0
 10
96.8181
 20
67.8889
 30
0.0
 11
96.8181
 21
73.6879
 31
0.0
  0
LINE
  8
0
 62
     0
 10
96.8181
 20
73.6879
 30
0.0
 11
97.6175
 21
73.6879
 31
0.0
  0
LINE
  8
0
 62
     0
 10
97.6175
 20
73.6879
 30
0.0
 11
97.6175
 21
76.7884
 31
0.0
  0
LINE
  8
0
 62
     0
 10
97.6175
 20
76.7884
 30
0.0
 11
96.8181
 21
76.7884
 31
0.0
  0
LINE
  8
0
 62
     0
 10
96.8181
 20
76.7884
 30
0.0
 11
96.8181
 21
77.7889
 31
0.0
  0
LINE
  8
0
 62
     0
 10
96.8181
 20
77.7889
 30
0.0
 11
82.8188
 21
77.7889
 31
0.0
  0
LINE
  8
0
 62
     0
 10
101.867
 20
77.7889
 30
0.0
 11
101.867
 21
76.7884
 31
0.0
  0
LINE
  8
0
 62
     0
 10
101.867
 20
76.7884
 30
0.0
 11
101.068
 21
76.7884
 31
0.0
  0
LINE
  8
0
 62
     0
 10
101.068
 20
76.7884
 30
0.0
 11
101.068
 21
73.6879
 31
0.0
  0
LINE
  8
0
 62
     0
 10
101.068
 20
73.6879
 30
0.0
 11
101.867
 21
73.6879
 31
0.0
  0
LINE
  8
0
 62
     0
 10
101.867
 20
73.6879
 30
0.0
 11
101.867
 21
67.8889
 31
0.0
  0
LINE
  8
0
 62
     0
 10
101.867
 20
67.8889
 30
0.0
 11
101.068
 21
67.8889
 31
0.0
  0
LINE
  8
0
 62
     0
 10
101.068
 20
67.8889
 30
0.0
 11
101.068
 21
64.7869
 31
0.0
  0
LINE
  8
0
 62
     0
 10
101.068
 20
64.7869
 30
0.0
 11
101.867
 21
64.7869
 31
0.0
  0
LINE
  8
0
 62
     0
 10
101.867
 20
64.7869
 30
0.0
 11
101.867
 21
63.7879
 31
0.0
  0
LINE
  8
0
 62
     0
 10
101.867
 20
63.7879
 30
0.0
 11
115.868
 21
63.7879
 31
0.0
  0
LINE
  8
0
 62
     0
 10
115.868
 20
63.7879
 30
0.0
 11
115.868
 21
64.7869
 31
0.0
  0
LINE
  8
0
 62
     0
 10
115.868
 20
64.7869
 30
0.0
 11
116.667
 21
64.7869
 31
0.0
  0
LINE
  8
0
 62
     0
 10
116.667
 20
64.7869
 30
0.0
 11
116.667
 21
67.8889
 31
0.0
  0
LINE
  8
0
 62
     0
 10
116.667
 20
67.8889
 30
0.0
 11
115.868
 21
67.8889
 31
0.0
  0
LINE
  8
0
 62
     0
 10
115.868
 20
67.8889
 30
0.0
 11
115.868
 21
73.6879
 31
0.0
  0
LINE
  8
0
 62
     0
 10
115.868
 20
73.6879
 30
0.0
 11
116.667
 21
73.6879
 31
0.0
  0
LINE
  8
0
 62
     0
 10
116.667
 20
73.6879
 30
0.0
 11
116.667
 21
76.7884
 31
0.0
  0
LINE
  8
0
 62
     0
 10
116.667
 20
76.7884
 30
0.0
 11
115.868
 21
76.7884
 31
0.0
  0
LINE
  8
0
 62
     0
 10
115.868
 20
76.7884
 30
0.0
 11
115.868
 21
77.7889
 31
0.0
  0
LINE
  8
0
 62
     0
 10
115.868
 20
77.7889
 30
0.0
 11
101.867
 21
77.7889
 31
0.0
  0
LINE
  8
0
 62
     0
 10
120.917
 20
77.7889
 30
0.0
 11
120.917
 21
76.7884
 31
0.0
  0
LINE
  8
0
 62
     0
 10
120.917
 20
76.7884
 30
0.0
 11
120.118
 21
76.7884
 31
0.0
  0
LINE
  8
0
 62
     0
 10
120.118
 20
76.7884
 30
0.0
 11
120.118
 21
73.6879
 31
0.0
  0
LINE
  8
0
 62
     0
 10
120.118
 20
73.6879
 30
0.0
 11
120.917
 21
73.6879
 31
0.0
  0
LINE
  8
0
 62
     0
 10
120.917
 20
73.6879
 30
0.0
 11
120.917
 21
67.8889
 31
0.0
  0
LINE
  8
0
 62
     0
 10
120.917
 20
67.8889
 30
0.0
 11
120.118
 21
67.8889
 31
0.0
  0
LINE
  8
0
 62
     0
 10
120.118
 20
67.8889
 30
0.0
 11
120.118
 21
64.7869
 31
0.0
  0
LINE
  8
0
 62
     0
 10
120.118
 20
64.7869
 30
0.0
 11
120.917
 21
64.7869
 31
0.0
  0
LINE
  8
0
 62
     0
 10
120.917
 20
64.7869
 30
0.0
 11
120.917
 21
63.7879
 31
0.0
  0
LINE
  8
0
 62
     0
 10
120.917
 20
63.7879
 30
0.0
 11
134.918
 21
63.7879
 31
0.0
  0
LINE
  8
0
 62
     0
 10
134.918
 20
63.7879
 30
0.0
 11
134.918
 21
64.7869
 31
0.0
  0
LINE
  8
0
 62
     0
 10
134.918
 20
64.7869
 30
0.0
 11
135.719
 21
64.7869
 31
0.0
  0
LINE
  8
0
 62
     0
 10
135.719
 20
64.7869
 30
0.0
 11
135.719
 21
67.8889
 31
0.0
  0
LINE
  8
0
 62
     0
 10
135.719
 20
67.8889
 30
0.0
 11
134.918
 21
67.8889
 31
0.0
  0
LINE
  8
0
 62
     0
 10
134.918
 20
67.8889
 30
0.0
 11
134.918
 21
73.6879
 31
0.0
  0
LINE
  8
0
 62
     0
 10
134.918
 20
73.6879
 30
0.0
 11
135.719
 21
73.6879
 31
0.0
  0
LINE
  8
0
 62
     0
 10
135.719
 20
73.6879
 30
0.0
 11
135.719
 21
76.7884
 31
0.0
  0
LINE
  8
0
 62
     0
 10
135.719
 20
76.7884
 30
0.0
 11
134.918
 21
76.7884
 31
0.0
  0
LINE
  8
0
 62
     0
 10
134.918
 20
76.7884
 30
0.0
 11
134.918
 21
77.7889
 31
0.0
  0
LINE
  8
0
 62
     0
 10
134.918
 20
77.7889
 30
0.0
 11
120.917
 21
77.7889
 31
0.0
  0
LINE
  8
0
 62
     0
 10
139.969
 20
77.7889
 30
0.0
 11
139.969
 21
76.7884
 31
0.0
  0
LINE
  8
0
 62
     0
 10
139.969
 20
76.7884
 30
0.0
 11
139.168
 21
76.7884
 31
0.0
  0
LINE
  8
0
 62
     0
 10
139.168
 20
76.7884
 30
0.0
 11
139.168
 21
73.6879
 31
0.0
  0
LINE
  8
0
 62
     0
 10
139.168
 20
73.6879
 30
0.0
 11
139.969
 21
73.6879
 31
0.0
  0
LINE
  8
0
 62
     0
 10
139.969
 20
73.6879
 30
0.0
 11
139.969
 21
67.8889
 31
0.0
  0
LINE
  8
0
 62
     0
 10
139.969
 20
67.8889
 30
0.0
 11
139.168
 21
67.8889
 31
0.0
  0
LINE
  8
0
 62
     0
 10
139.168
 20
67.8889
 30
0.0
 11
139.168
 21
64.7869
 31
0.0
  0
LINE
  8
0
 62
     0
 10
139.168
 20
64.7869
 30
0.0
 11
139.969
 21
64.7869
 31
0.0
  0
LINE
  8
0
 62
     0
 10
139.969
 20
64.7869
 30
0.0
 11
139.969
 21
63.7879
 31
0.0
  0
LINE
  8
0
 62
     0
 10
139.969
 20
63.7879
 30
0.0
 11
153.968
 21
63.7879
 31
0.0
  0
LINE
  8
0
 62
     0
 10
153.968
 20
63.7879
 30
0.0
 11
153.968
 21
64.7869
 31
0.0
  0
LINE
  8
0
 62
     0
 10
153.968
 20
64.7869
 30
0.0
 11
154.769
 21
64.7869
 31
0.0
  0
LINE
  8
0
 62
     0
 10
154.769
 20
64.7869
 30
0.0
 11
154.769
 21
67.8889
 31
0.0
  0
LINE
  8
0
 62
     0
 10
154.769
 20
67.8889
 30
0.0
 11
153.968
 21
67.8889
 31
0.0
  0
LINE
  8
0
 62
     0
 10
153.968
 20
67.8889
 30
0.0
 11
153.968
 21
73.6879
 31
0.0
  0
LINE
  8
0
 62
     0
 10
153.968
 20
73.6879
 30
0.0
 11
154.769
 21
73.6879
 31
0.0
  0
LINE
  8
0
 62
     0
 10
154.769
 20
73.6879
 30
0.0
 11
154.769
 21
76.7884
 31
0.0
  0
LINE
  8
0
 62
     0
 10
154.769
 20
76.7884
 30
0.0
 11
153.968
 21
76.7884
 31
0.0
  0
LINE
  8
0
 62
     0
 10
153.968
 20
76.7884
 30
0.0
 11
153.968
 21
77.7889
 31
0.0
  0
LINE
  8
0
 62
     0
 10
153.968
 20
77.7889
 30
0.0
 11
139.969
 21
77.7889
 31
0.0
  0
LINE
  8
0
 62
     0
 10
159.019
 20
77.7889
 30
0.0
 11
159.019
 21
76.7884
 31
0.0
  0
LINE
  8
0
 62
     0
 10
159.019
 20
76.7884
 30
0.0
 11
158.218
 21
76.7884
 31
0.0
  0
LINE
  8
0
 62
     0
 10
158.218
 20
76.7884
 30
0.0
 11
158.218
 21
73.6879
 31
0.0
  0
LINE
  8
0
 62
     0
 10
158.218
 20
73.6879
 30
0.0
 11
159.019
 21
73.6879
 31
0.0
  0
LINE
  8
0
 62
     0
 10
159.019
 20
73.6879
 30
0.0
 11
159.019
 21
67.8889
 31
0.0
  0
LINE
  8
0
 62
     0
 10
159.019
 20
67.8889
 30
0.0
 11
158.218
 21
67.8889
 31
0.0
  0
LINE
  8
0
 62
     0
 10
158.218
 20
67.8889
 30
0.0
 11
158.218
 21
64.7869
 31
0.0
  0
LINE
  8
0
 62
     0
 10
158.218
 20
64.7869
 30
0.0
 11
159.019
 21
64.7869
 31
0.0
  0
LINE
  8
0
 62
     0
 10
159.019
 20
64.7869
 30
0.0
 11
159.019
 21
63.7879
 31
0.0
  0
LINE
  8
0
 62
     0
 10
159.019
 20
63.7879
 30
0.0
 11
173.018
 21
63.7879
 31
0.0
  0
LINE
  8
0
 62
     0
 10
173.018
 20
63.7879
 30
0.0
 11
173.018
 21
64.7869
 31
0.0
  0
LINE
  8
0
 62
     0
 10
173.018
 20
64.7869
 30
0.0
 11
173.819
 21
64.7869
 31
0.0
  0
LINE
  8
0
 62
     0
 10
173.819
 20
64.7869
 30
0.0
 11
173.819
 21
67.8889
 31
0.0
  0
LINE
  8
0
 62
     0
 10
173.819
 20
67.8889
 30
0.0
 11
173.018
 21
67.8889
 31
0.0
  0
LINE
  8
0
 62
     0
 10
173.018
 20
67.8889
 30
0.0
 11
173.018
 21
73.6879
 31
0.0
  0
LINE
  8
0
 62
     0
 10
173.018
 20
73.6879
 30
0.0
 11
173.819
 21
73.6879
 31
0.0
  0
LINE
  8
0
 62
     0
 10
173.819
 20
73.6879
 30
0.0
 11
173.819
 21
76.7884
 31
0.0
  0
LINE
  8
0
 62
     0
 10
173.819
 20
76.7884
 30
0.0
 11
173.018
 21
76.7884
 31
0.0
  0
LINE
  8
0
 62
     0
 10
173.018
 20
76.7884
 30
0.0
 11
173.018
 21
77.7889
 31
0.0
  0
LINE
  8
0
 62
     0
 10
173.018
 20
77.7889
 30
0.0
 11
159.019
 21
77.7889
 31
0.0
  0
LINE
  8
0
 62
     0
 10
178.069
 20
77.7889
 30
0.0
 11
178.069
 21
76.7884
 31
0.0
  0
LINE
  8
0
 62
     0
 10
178.069
 20
76.7884
 30
0.0
 11
177.268
 21
76.7884
 31
0.0
  0
LINE
  8
0
 62
     0
 10
177.268
 20
76.7884
 30
0.0
 11
177.268
 21
73.6879
 31
0.0
  0
LINE
  8
0
 62
     0
 10
177.268
 20
73.6879
 30
0.0
 11
178.069
 21
73.6879
 31
0.0
  0
LINE
  8
0
 62
     0
 10
178.069
 20
73.6879
 30
0.0
 11
178.069
 21
67.8889
 31
0.0
  0
LINE
  8
0
 62
     0
 10
178.069
 20
67.8889
 30
0.0
 11
177.268
 21
67.8889
 31
0.0
  0
LINE
  8
0
 62
     0
 10
177.268
 20
67.8889
 30
0.0
 11
177.268
 21
64.7869
 31
0.0
  0
LINE
  8
0
 62
     0
 10
177.268
 20
64.7869
 30
0.0
 11
178.069
 21
64.7869
 31
0.0
  0
LINE
  8
0
 62
     0
 10
178.069
 20
64.7869
 30
0.0
 11
178.069
 21
63.7879
 31
0.0
  0
LINE
  8
0
 62
     0
 10
178.069
 20
63.7879
 30
0.0
 11
192.068
 21
63.7879
 31
0.0
  0
LINE
  8
0
 62
     0
 10
192.068
 20
63.7879
 30
0.0
 11
192.068
 21
64.7869
 31
0.0
  0
LINE
  8
0
 62
     0
 10
192.068
 20
64.7869
 30
0.0
 11
192.869
 21
64.7869
 31
0.0
  0
LINE
  8
0
 62
     0
 10
192.869
 20
64.7869
 30
0.0
 11
192.869
 21
67.8889
 31
0.0
  0
LINE
  8
0
 62
     0
 10
192.869
 20
67.8889
 30
0.0
 11
192.068
 21
67.8889
 31
0.0
  0
LINE
  8
0
 62
     0
 10
192.068
 20
67.8889
 30
0.0
 11
192.068
 21
73.6879
 31
0.0
  0
LINE
  8
0
 62
     0
 10
192.068
 20
73.6879
 30
0.0
 11
192.869
 21
73.6879
 31
0.0
  0
LINE
  8
0
 62
     0
 10
192.869
 20
73.6879
 30
0.0
 11
192.869
 21
76.7884
 31
0.0
  0
LINE
  8
0
 62
     0
 10
192.869
 20
76.7884
 30
0.0
 11
192.068
 21
76.7884
 31
0.0
  0
LINE
  8
0
 62
     0
 10
192.068
 20
76.7884
 30
0.0
 11
192.068
 21
77.7889
 31
0.0
  0
LINE
  8
0
 62
     0
 10
192.068
 20
77.7889
 30
0.0
 11
178.069
 21
77.7889
 31
0.0
  0
LINE
  8
0
 62
     0
 10
197.119
 20
77.7889
 30
0.0
 11
197.119
 21
76.7884
 31
0.0
  0
LINE
  8
0
 62
     0
 10
197.119
 20
76.7884
 30
0.0
 11
196.318
 21
76.7884
 31
0.0
  0
LINE
  8
0
 62
     0
 10
196.318
 20
76.7884
 30
0.0
 11
196.318
 21
73.6879
 31
0.0
  0
LINE
  8
0
 62
     0
 10
196.318
 20
73.6879
 30
0.0
 11
197.119
 21
73.6879
 31
0.0
  0
LINE
  8
0
 62
     0
 10
197.119
 20
73.6879
 30
0.0
 11
197.119
 21
67.8889
 31
0.0
  0
LINE
  8
0
 62
     0
 10
197.119
 20
67.8889
 30
0.0
 11
196.318
 21
67.8889
 31
0.0
  0
LINE
  8
0
 62
     0
 10
196.318
 20
67.8889
 30
0.0
 11
196.318
 21
64.7869
 31
0.0
  0
LINE
  8
0
 62
     0
 10
196.318
 20
64.7869
 30
0.0
 11
197.119
 21
64.7869
 31
0.0
  0
LINE
  8
0
 62
     0
 10
197.119
 20
64.7869
 30
0.0
 11
197.119
 21
63.7879
 31
0.0
  0
LINE
  8
0
 62
     0
 10
197.119
 20
63.7879
 30
0.0
 11
211.118
 21
63.7879
 31
0.0
  0
LINE
  8
0
 62
     0
 10
211.118
 20
63.7879
 30
0.0
 11
211.118
 21
64.7869
 31
0.0
  0
LINE
  8
0
 62
     0
 10
211.118
 20
64.7869
 30
0.0
 11
211.919
 21
64.7869
 31
0.0
  0
LINE
  8
0
 62
     0
 10
211.919
 20
64.7869
 30
0.0
 11
211.919
 21
67.8889
 31
0.0
  0
LINE
  8
0
 62
     0
 10
211.919
 20
67.8889
 30
0.0
 11
211.118
 21
67.8889
 31
0.0
  0
LINE
  8
0
 62
     0
 10
211.118
 20
67.8889
 30
0.0
 11
211.118
 21
73.6879
 31
0.0
  0
LINE
  8
0
 62
     0
 10
211.118
 20
73.6879
 30
0.0
 11
211.919
 21
73.6879
 31
0.0
  0
LINE
  8
0
 62
     0
 10
211.919
 20
73.6879
 30
0.0
 11
211.919
 21
76.7884
 31
0.0
  0
LINE
  8
0
 62
     0
 10
211.919
 20
76.7884
 30
0.0
 11
211.118
 21
76.7884
 31
0.0
  0
LINE
  8
0
 62
     0
 10
211.118
 20
76.7884
 30
0.0
 11
211.118
 21
77.7889
 31
0.0
  0
LINE
  8
0
 62
     0
 10
211.118
 20
77.7889
 30
0.0
 11
197.119
 21
77.7889
 31
0.0
  0
LINE
  8
0
 62
     0
 10
216.169
 20
77.7889
 30
0.0
 11
216.169
 21
76.7884
 31
0.0
  0
LINE
  8
0
 62
     0
 10
216.169
 20
76.7884
 30
0.0
 11
215.368
 21
76.7884
 31
0.0
  0
LINE
  8
0
 62
     0
 10
215.368
 20
76.7884
 30
0.0
 11
215.368
 21
73.6879
 31
0.0
  0
LINE
  8
0
 62
     0
 10
215.368
 20
73.6879
 30
0.0
 11
216.169
 21
73.6879
 31
0.0
  0
LINE
  8
0
 62
     0
 10
216.169
 20
73.6879
 30
0.0
 11
216.169
 21
67.8889
 31
0.0
  0
LINE
  8
0
 62
     0
 10
216.169
 20
67.8889
 30
0.0
 11
215.368
 21
67.8889
 31
0.0
  0
LINE
  8
0
 62
     0
 10
215.368
 20
67.8889
 30
0.0
 11
215.368
 21
64.7869
 31
0.0
  0
LINE
  8
0
 62
     0
 10
215.368
 20
64.7869
 30
0.0
 11
216.169
 21
64.7869
 31
0.0
  0
LINE
  8
0
 62
     0
 10
216.169
 20
64.7869
 30
0.0
 11
216.169
 21
63.7879
 31
0.0
  0
LINE
  8
0
 62
     0
 10
216.169
 20
63.7879
 30
0.0
 11
230.168
 21
63.7879
 31
0.0
  0
LINE
  8
0
 62
     0
 10
230.168
 20
63.7879
 30
0.0
 11
230.168
 21
64.7869
 31
0.0
  0
LINE
  8
0
 62
     0
 10
230.168
 20
64.7869
 30
0.0
 11
230.969
 21
64.7869
 31
0.0
  0
LINE
  8
0
 62
     0
 10
230.969
 20
64.7869
 30
0.0
 11
230.969
 21
67.8889
 31
0.0
  0
LINE
  8
0
 62
     0
 10
230.969
 20
67.8889
 30
0.0
 11
230.168
 21
67.8889
 31
0.0
  0
LINE
  8
0
 62
     0
 10
230.168
 20
67.8889
 30
0.0
 11
230.168
 21
73.6879
 31
0.0
  0
LINE
  8
0
 62
     0
 10
230.168
 20
73.6879
 30
0.0
 11
230.969
 21
73.6879
 31
0.0
  0
LINE
  8
0
 62
     0
 10
230.969
 20
73.6879
 30
0.0
 11
230.969
 21
76.7884
 31
0.0
  0
LINE
  8
0
 62
     0
 10
230.969
 20
76.7884
 30
0.0
 11
230.168
 21
76.7884
 31
0.0
  0
LINE
  8
0
 62
     0
 10
230.168
 20
76.7884
 30
0.0
 11
230.168
 21
77.7889
 31
0.0
  0
LINE
  8
0
 62
     0
 10
230.168
 20
77.7889
 30
0.0
 11
216.169
 21
77.7889
 31
0.0
  0
LINE
  8
0
 62
     0
 10
235.219
 20
77.7889
 30
0.0
 11
235.219
 21
76.7884
 31
0.0
  0
LINE
  8
0
 62
     0
 10
235.219
 20
76.7884
 30
0.0
 11
234.418
 21
76.7884
 31
0.0
  0
LINE
  8
0
 62
     0
 10
234.418
 20
76.7884
 30
0.0
 11
234.418
 21
73.6879
 31
0.0
  0
LINE
  8
0
 62
     0
 10
234.418
 20
73.6879
 30
0.0
 11
235.219
 21
73.6879
 31
0.0
  0
LINE
  8
0
 62
     0
 10
235.219
 20
73.6879
 30
0.0
 11
235.219
 21
67.8889
 31
0.0
  0
LINE
  8
0
 62
     0
 10
235.219
 20
67.8889
 30
0.0
 11
234.418
 21
67.8889
 31
0.0
  0
LINE
  8
0
 62
     0
 10
234.418
 20
67.8889
 30
0.0
 11
234.418
 21
64.7869
 31
0.0
  0
LINE
  8
0
 62
     0
 10
234.418
 20
64.7869
 30
0.0
 11
235.219
 21
64.7869
 31
0.0
  0
LINE
  8
0
 62
     0
 10
235.219
 20
64.7869
 30
0.0
 11
235.219
 21
63.7879
 31
0.0
  0
LINE
  8
0
 62
     0
 10
235.219
 20
63.7879
 30
0.0
 11
249.218
 21
63.7879
 31
0.0
  0
LINE
  8
0
 62
     0
 10
249.218
 20
63.7879
 30
0.0
 11
249.218
 21
64.7869
 31
0.0
  0
LINE
  8
0
 62
     0
 10
249.218
 20
64.7869
 30
0.0
 11
250.019
 21
64.7869
 31
0.0
  0
LINE
  8
0
 62
     0
 10
250.019
 20
64.7869
 30
0.0
 11
250.019
 21
67.8889
 31
0.0
  0
LINE
  8
0
 62
     0
 10
250.019
 20
67.8889
 30
0.0
 11
249.218
 21
67.8889
 31
0.0
  0
LINE
  8
0
 62
     0
 10
249.218
 20
67.8889
 30
0.0
 11
249.218
 21
73.6879
 31
0.0
  0
LINE
  8
0
 62
     0
 10
249.218
 20
73.6879
 30
0.0
 11
250.019
 21
73.6879
 31
0.0
  0
LINE
  8
0
 62
     0
 10
250.019
 20
73.6879
 30
0.0
 11
250.019
 21
76.7884
 31
0.0
  0
LINE
  8
0
 62
     0
 10
250.019
 20
76.7884
 30
0.0
 11
249.218
 21
76.7884
 31
0.0
  0
LINE
  8
0
 62
     0
 10
249.218
 20
76.7884
 30
0.0
 11
249.218
 21
77.7889
 31
0.0
  0
LINE
  8
0
 62
     0
 10
249.218
 20
77.7889
 30
0.0
 11
235.219
 21
77.7889
 31
0.0
  0
LINE
  8
0
 62
     0
 10
254.269
 20
77.7889
 30
0.0
 11
254.269
 21
76.7884
 31
0.0
  0
LINE
  8
0
 62
     0
 10
254.269
 20
76.7884
 30
0.0
 11
253.468
 21
76.7884
 31
0.0
  0
LINE
  8
0
 62
     0
 10
253.468
 20
76.7884
 30
0.0
 11
253.468
 21
73.6879
 31
0.0
  0
LINE
  8
0
 62
     0
 10
253.468
 20
73.6879
 30
0.0
 11
254.269
 21
73.6879
 31
0.0
  0
LINE
  8
0
 62
     0
 10
254.269
 20
73.6879
 30
0.0
 11
254.269
 21
67.8889
 31
0.0
  0
LINE
  8
0
 62
     0
 10
254.269
 20
67.8889
 30
0.0
 11
253.468
 21
67.8889
 31
0.0
  0
LINE
  8
0
 62
     0
 10
253.468
 20
67.8889
 30
0.0
 11
253.468
 21
64.7869
 31
0.0
  0
LINE
  8
0
 62
     0
 10
253.468
 20
64.7869
 30
0.0
 11
254.269
 21
64.7869
 31
0.0
  0
LINE
  8
0
 62
     0
 10
254.269
 20
64.7869
 30
0.0
 11
254.269
 21
63.7879
 31
0.0
  0
LINE
  8
0
 62
     0
 10
254.269
 20
63.7879
 30
0.0
 11
268.268
 21
63.7879
 31
0.0
  0
LINE
  8
0
 62
     0
 10
268.268
 20
63.7879
 30
0.0
 11
268.268
 21
64.7869
 31
0.0
  0
LINE
  8
0
 62
     0
 10
268.268
 20
64.7869
 30
0.0
 11
269.069
 21
64.7869
 31
0.0
  0
LINE
  8
0
 62
     0
 10
269.069
 20
64.7869
 30
0.0
 11
269.069
 21
67.8889
 31
0.0
  0
LINE
  8
0
 62
     0
 10
269.069
 20
67.8889
 30
0.0
 11
268.268
 21
67.8889
 31
0.0
  0
LINE
  8
0
 62
     0
 10
268.268
 20
67.8889
 30
0.0
 11
268.268
 21
73.6879
 31
0.0
  0
LINE
  8
0
 62
     0
 10
268.268
 20
73.6879
 30
0.0
 11
269.069
 21
73.6879
 31
0.0
  0
LINE
  8
0
 62
     0
 10
269.069
 20
73.6879
 30
0.0
 11
269.069
 21
76.7884
 31
0.0
  0
LINE
  8
0
 62
     0
 10
269.069
 20
76.7884
 30
0.0
 11
268.268
 21
76.7884
 31
0.0
  0
LINE
  8
0
 62
     0
 10
268.268
 20
76.7884
 30
0.0
 11
268.268
 21
77.7889
 31
0.0
  0
LINE
  8
0
 62
     0
 10
268.268
 20
77.7889
 30
0.0
 11
254.269
 21
77.7889
 31
0.0
  0
ENDSEC
  0
EOF
