M48
INCH,TZ
T1C0.067
T2C0.120
T3C0.157
%
G90
G05
T1
X13000Y-31875
X13000Y-39375
X13938Y-69375
X14875Y-46875
X15813Y-54375
X17000Y-31875
X17000Y-31875
X17000Y-39375
X17000Y-39375
X17688Y-61875
X17938Y-69375
X18875Y-46875
X19813Y-54375
X20500Y-31875
X20500Y-39375
X21687Y-61875
X23313Y-69375
X24250Y-46875
X24500Y-31875
X24500Y-31875
X24500Y-39375
X24500Y-39375
X26125Y-54375
X27312Y-69375
X28000Y-31875
X28000Y-39375
X28250Y-46875
X28250Y-46875
X29875Y-61875
X30125Y-54375
X30125Y-54375
X31750Y-46875
X32000Y-31875
X32000Y-31875
X32000Y-39375
X32000Y-39375
X32688Y-69375
X33625Y-54375
X33875Y-61875
X33875Y-61875
X35500Y-31875
X35500Y-39375
X35750Y-46875
X35750Y-46875
X36688Y-69375
X37375Y-61875
X37625Y-54375
X37625Y-54375
X39250Y-46875
X39500Y-31875
X39500Y-31875
X39500Y-39375
X39500Y-39375
X41125Y-54375
X41375Y-61875
X41375Y-61875
X43000Y-31875
X43000Y-39375
X43250Y-46875
X43250Y-46875
X44875Y-61875
X44875Y-69375
X45125Y-54375
X45125Y-54375
X46750Y-46875
X47000Y-31875
X47000Y-31875
X47000Y-39375
X47000Y-39375
X48625Y-54375
X48875Y-61875
X48875Y-61875
X48875Y-69375
X50500Y-31875
X50500Y-39375
X50750Y-46875
X50750Y-46875
X52375Y-61875
X52625Y-54375
X52625Y-54375
X54250Y-46875
X54500Y-31875
X54500Y-31875
X54500Y-39375
X54500Y-39375
X56125Y-54375
X56375Y-61875
X56375Y-61875
X58000Y-31875
X58000Y-39375
X58250Y-46875
X58250Y-46875
X59875Y-61875
X59875Y-69375
X60125Y-54375
X60125Y-54375
X61750Y-46875
X62000Y-31875
X62000Y-31875
X62000Y-39375
X62000Y-39375
X63625Y-54375
X63875Y-61875
X63875Y-61875
X63875Y-69375
X65500Y-31875
X65500Y-39375
X65750Y-46875
X65750Y-46875
X67375Y-61875
X67625Y-54375
X67625Y-54375
X69250Y-46875
X69500Y-31875
X69500Y-31875
X69500Y-39375
X69500Y-39375
X71125Y-54375
X71375Y-61875
X71375Y-61875
X73000Y-31875
X73000Y-39375
X73250Y-46875
X73250Y-46875
X74875Y-61875
X74875Y-69375
X75125Y-54375
X75125Y-54375
X76750Y-46875
X77000Y-31875
X77000Y-31875
X77000Y-39375
X77000Y-39375
X78625Y-54375
X78875Y-61875
X78875Y-61875
X78875Y-69375
X80500Y-31875
X80500Y-39375
X80750Y-46875
X80750Y-46875
X82375Y-61875
X82625Y-54375
X82625Y-54375
X84250Y-46875
X84500Y-31875
X84500Y-31875
X84500Y-39375
X84500Y-39375
X86125Y-54375
X86125Y-69375
X86375Y-61875
X86375Y-61875
X88000Y-31875
X88000Y-39375
X88250Y-46875
X88250Y-46875
X89875Y-61875
X90125Y-54375
X90125Y-54375
X90125Y-69375
X90125Y-69375
X91750Y-46875
X92000Y-31875
X92000Y-31875
X92000Y-39375
X92000Y-39375
X93625Y-54375
X93625Y-69375
X93875Y-61875
X93875Y-61875
X95500Y-31875
X95500Y-39375
X95750Y-46875
X95750Y-46875
X97375Y-61875
X97625Y-54375
X97625Y-54375
X97625Y-69375
X97625Y-69375
X99250Y-46875
X99500Y-31875
X99500Y-31875
X99500Y-39375
X99500Y-39375
X101125Y-54375
X101375Y-61875
X101375Y-61875
X102062Y-69375
X103000Y-31875
X103000Y-39375
X103250Y-46875
X103250Y-46875
X105125Y-54375
X105125Y-54375
X106063Y-69375
X106750Y-46875
X107000Y-31875
X107000Y-31875
X107000Y-39375
X107000Y-39375
X107687Y-61875
X110500Y-31875
X110500Y-69375
X110750Y-46875
X110750Y-46875
X111688Y-61875
X113312Y-54375
X114250Y-39375
X114500Y-31875
X114500Y-31875
X114500Y-69375
X114500Y-69375
X116125Y-46875
X117313Y-54375
X118000Y-31875
X118000Y-61875
X118000Y-69375
X118250Y-39375
X120125Y-46875
X122000Y-31875
X122000Y-31875
X122000Y-61875
X122000Y-61875
X122000Y-69375
X122000Y-69375
X125500Y-31875
X125500Y-39375
X125500Y-46875
X125500Y-54375
X125500Y-61875
X125500Y-69375
X129500Y-31875
X129500Y-31875
X129500Y-39375
X129500Y-39375
X129500Y-46875
X129500Y-46875
X129500Y-54375
X129500Y-54375
X129500Y-61875
X129500Y-61875
X129500Y-69375
X129500Y-69375
X133000Y-31875
X133000Y-39375
X133000Y-46875
X133000Y-54375
X133000Y-61875
X133000Y-69375
X137000Y-31875
X137000Y-31875
X137000Y-39375
X137000Y-39375
X137000Y-46875
X137000Y-46875
X137000Y-54375
X137000Y-54375
X137000Y-61875
X137000Y-61875
X137000Y-69375
X137000Y-69375
X140500Y-31875
X140500Y-39375
X140500Y-46875
X140500Y-54375
X140500Y-61875
X140500Y-69375
X144500Y-31875
X144500Y-31875
X144500Y-39375
X144500Y-39375
X144500Y-46875
X144500Y-46875
X144500Y-54375
X144500Y-54375
X144500Y-61875
X144500Y-61875
X144500Y-69375
X144500Y-69375
X148000Y-31875
X148000Y-39375
X148000Y-50625
X148000Y-65625
X152000Y-31875
X152000Y-31875
X152000Y-39375
X152000Y-39375
X152000Y-50625
X152000Y-65625
T2
X11250Y-28125
X11250Y-73125
X14988Y-59125
X24387Y-59125
X42175Y-66625
X51575Y-66625
X54375Y-73125
X56250Y-28125
X57175Y-66625
X60000Y-50625
X66575Y-66625
X72175Y-66625
X81575Y-66625
X97500Y-50625
X99375Y-73125
X101250Y-28125
X110613Y-51625
X111550Y-36625
X120013Y-51625
X120950Y-36625
X147250Y-45925
X147250Y-55325
X147250Y-60925
X147250Y-70325
X153750Y-28125
X153750Y-73125
T3
X14988Y-65125
X15000Y-31875
X15000Y-39375
X15938Y-69375
X16875Y-46875
X17813Y-54375
X19688Y-61875
X22500Y-31875
X22500Y-39375
X24387Y-65125
X25313Y-69375
X26250Y-46875
X28125Y-54375
X30000Y-31875
X30000Y-39375
X31875Y-61875
X33750Y-46875
X34688Y-69375
X35625Y-54375
X37500Y-31875
X37500Y-39375
X39375Y-61875
X41250Y-46875
X42175Y-72625
X43125Y-54375
X45000Y-31875
X45000Y-39375
X46875Y-61875
X46875Y-69375
X48750Y-46875
X50625Y-54375
X51575Y-72625
X52500Y-31875
X52500Y-39375
X54375Y-61875
X56250Y-46875
X57175Y-72625
X58125Y-54375
X60000Y-31875
X60000Y-39375
X61875Y-61875
X61875Y-69375
X63750Y-46875
X65625Y-54375
X66575Y-72625
X67500Y-31875
X67500Y-39375
X69375Y-61875
X71250Y-46875
X72175Y-72625
X73125Y-54375
X75000Y-31875
X75000Y-39375
X76875Y-61875
X76875Y-69375
X78750Y-46875
X80625Y-54375
X81575Y-72625
X82500Y-31875
X82500Y-39375
X84375Y-61875
X86250Y-46875
X88125Y-54375
X88125Y-69375
X90000Y-31875
X90000Y-39375
X91875Y-61875
X93750Y-46875
X95625Y-54375
X95625Y-69375
X97500Y-31875
X97500Y-39375
X99375Y-61875
X101250Y-46875
X103125Y-54375
X104063Y-69375
X105000Y-31875
X105000Y-39375
X108750Y-46875
X109688Y-61875
X110613Y-57625
X111550Y-42625
X112500Y-31875
X112500Y-69375
X115313Y-54375
X116250Y-39375
X118125Y-46875
X120000Y-31875
X120000Y-61875
X120000Y-69375
X120013Y-57625
X120950Y-42625
X127500Y-31875
X127500Y-39375
X127500Y-46875
X127500Y-54375
X127500Y-61875
X127500Y-69375
X135000Y-31875
X135000Y-39375
X135000Y-46875
X135000Y-54375
X135000Y-61875
X135000Y-69375
X142500Y-31875
X142500Y-39375
X142500Y-46875
X142500Y-54375
X142500Y-61875
X142500Y-69375
X150000Y-31875
X150000Y-39375
X150000Y-50625
X150000Y-65625
X153250Y-45925
X153250Y-55325
X153250Y-60925
X153250Y-70325
T0
M30
