M48
INCH,TZ
T1C0.039
T2C0.039
T3C0.059
%
G90
G05
T1
X13500Y-33875
X13500Y-41375
X14437Y-71375
X14500Y-33875
X14500Y-41375
X15375Y-48875
X15438Y-71375
X15500Y-33875
X15500Y-41375
X16313Y-56375
X16375Y-48875
X16438Y-71375
X16500Y-33875
X16500Y-41375
X17313Y-56375
X17375Y-48875
X17438Y-71375
X18188Y-63875
X18313Y-56375
X18375Y-48875
X19188Y-63875
X19313Y-56375
X20188Y-63875
X21000Y-33875
X21000Y-41375
X21188Y-63875
X22000Y-33875
X22000Y-41375
X23000Y-33875
X23000Y-41375
X23813Y-71375
X24000Y-33875
X24000Y-41375
X24750Y-48875
X24812Y-71375
X25750Y-48875
X25813Y-71375
X26625Y-56375
X26750Y-48875
X26813Y-71375
X27625Y-56375
X27750Y-48875
X28500Y-33875
X28500Y-41375
X28625Y-56375
X29500Y-33875
X29500Y-41375
X29625Y-56375
X30375Y-63875
X30500Y-33875
X30500Y-41375
X31375Y-63875
X31500Y-33875
X31500Y-41375
X32250Y-48875
X32375Y-63875
X33188Y-71375
X33250Y-48875
X33375Y-63875
X34125Y-56375
X34188Y-71375
X34250Y-48875
X35125Y-56375
X35188Y-71375
X35250Y-48875
X36000Y-33875
X36000Y-41375
X36125Y-56375
X36188Y-71375
X37000Y-33875
X37000Y-41375
X37125Y-56375
X37875Y-63875
X38000Y-33875
X38000Y-41375
X38875Y-63875
X39000Y-33875
X39000Y-41375
X39750Y-48875
X39875Y-63875
X40750Y-48875
X40875Y-63875
X41625Y-56375
X41750Y-48875
X42625Y-56375
X42750Y-48875
X43500Y-33875
X43500Y-41375
X43625Y-56375
X44500Y-33875
X44500Y-41375
X44625Y-56375
X45375Y-63875
X45375Y-71375
X45500Y-33875
X45500Y-41375
X46375Y-63875
X46375Y-71375
X46500Y-33875
X46500Y-41375
X47250Y-48875
X47375Y-63875
X47375Y-71375
X48250Y-48875
X48375Y-63875
X48375Y-71375
X49125Y-56375
X49250Y-48875
X50125Y-56375
X50250Y-48875
X51000Y-33875
X51000Y-41375
X51125Y-56375
X52000Y-33875
X52000Y-41375
X52125Y-56375
X52875Y-63875
X53000Y-33875
X53000Y-41375
X53875Y-63875
X54000Y-33875
X54000Y-41375
X54750Y-48875
X54875Y-63875
X55750Y-48875
X55875Y-63875
X56625Y-56375
X56750Y-48875
X57625Y-56375
X57750Y-48875
X58500Y-33875
X58500Y-41375
X58625Y-56375
X59500Y-33875
X59500Y-41375
X59625Y-56375
X60375Y-63875
X60375Y-71375
X60500Y-33875
X60500Y-41375
X61375Y-63875
X61375Y-71375
X61500Y-33875
X61500Y-41375
X62250Y-48875
X62375Y-63875
X62375Y-71375
X63250Y-48875
X63375Y-63875
X63375Y-71375
X64125Y-56375
X64250Y-48875
X65125Y-56375
X65250Y-48875
X66000Y-33875
X66000Y-41375
X66125Y-56375
X67000Y-33875
X67000Y-41375
X67125Y-56375
X67875Y-63875
X68000Y-33875
X68000Y-41375
X68875Y-63875
X69000Y-33875
X69000Y-41375
X69750Y-48875
X69875Y-63875
X70750Y-48875
X70875Y-63875
X71625Y-56375
X71750Y-48875
X72625Y-56375
X72750Y-48875
X73500Y-33875
X73500Y-41375
X73625Y-56375
X74500Y-33875
X74500Y-41375
X74625Y-56375
X75375Y-63875
X75375Y-71375
X75500Y-33875
X75500Y-41375
X76375Y-63875
X76375Y-71375
X76500Y-33875
X76500Y-41375
X77250Y-48875
X77375Y-63875
X77375Y-71375
X78250Y-48875
X78375Y-63875
X78375Y-71375
X79125Y-56375
X79250Y-48875
X80125Y-56375
X80250Y-48875
X81000Y-33875
X81000Y-41375
X81125Y-56375
X82000Y-33875
X82000Y-41375
X82125Y-56375
X82875Y-63875
X83000Y-33875
X83000Y-41375
X83875Y-63875
X84000Y-33875
X84000Y-41375
X84750Y-48875
X84875Y-63875
X85750Y-48875
X85875Y-63875
X86625Y-56375
X86625Y-71375
X86750Y-48875
X87625Y-56375
X87625Y-71375
X87750Y-48875
X88500Y-33875
X88500Y-41375
X88625Y-56375
X88625Y-71375
X89500Y-33875
X89500Y-41375
X89625Y-56375
X89625Y-71375
X90375Y-63875
X90500Y-33875
X90500Y-41375
X91375Y-63875
X91500Y-33875
X91500Y-41375
X92250Y-48875
X92375Y-63875
X93250Y-48875
X93375Y-63875
X94125Y-56375
X94125Y-71375
X94250Y-48875
X95125Y-56375
X95125Y-71375
X95250Y-48875
X96000Y-33875
X96000Y-41375
X96125Y-56375
X96125Y-71375
X97000Y-33875
X97000Y-41375
X97125Y-56375
X97125Y-71375
X97875Y-63875
X98000Y-33875
X98000Y-41375
X98875Y-63875
X99000Y-33875
X99000Y-41375
X99750Y-48875
X99875Y-63875
X100750Y-48875
X100875Y-63875
X101625Y-56375
X101750Y-48875
X102563Y-71375
X102625Y-56375
X102750Y-48875
X103500Y-33875
X103500Y-41375
X103563Y-71375
X103625Y-56375
X104500Y-33875
X104500Y-41375
X104562Y-71375
X104625Y-56375
X105500Y-33875
X105500Y-41375
X105563Y-71375
X106500Y-33875
X106500Y-41375
X107250Y-48875
X108188Y-63875
X108250Y-48875
X109188Y-63875
X109250Y-48875
X110187Y-63875
X110250Y-48875
X111000Y-33875
X111000Y-71375
X111188Y-63875
X112000Y-33875
X112000Y-71375
X113000Y-33875
X113000Y-71375
X113813Y-56375
X114000Y-33875
X114000Y-71375
X114750Y-41375
X114813Y-56375
X115750Y-41375
X115812Y-56375
X116625Y-48875
X116750Y-41375
X116813Y-56375
X117625Y-48875
X117750Y-41375
X118500Y-33875
X118500Y-63875
X118500Y-71375
X118625Y-48875
X119500Y-33875
X119500Y-63875
X119500Y-71375
X119625Y-48875
X120500Y-33875
X120500Y-63875
X120500Y-71375
X121500Y-33875
X121500Y-63875
X121500Y-71375
X126000Y-33875
X126000Y-41375
X126000Y-48875
X126000Y-56375
X126000Y-63875
X126000Y-71375
X127000Y-33875
X127000Y-41375
X127000Y-48875
X127000Y-56375
X127000Y-63875
X127000Y-71375
X128000Y-33875
X128000Y-41375
X128000Y-48875
X128000Y-56375
X128000Y-63875
X128000Y-71375
X129000Y-33875
X129000Y-41375
X129000Y-48875
X129000Y-56375
X129000Y-63875
X129000Y-71375
X133500Y-33875
X133500Y-41375
X133500Y-48875
X133500Y-56375
X133500Y-63875
X133500Y-71375
X134500Y-33875
X134500Y-41375
X134500Y-48875
X134500Y-56375
X134500Y-63875
X134500Y-71375
X135500Y-33875
X135500Y-41375
X135500Y-48875
X135500Y-56375
X135500Y-63875
X135500Y-71375
X136500Y-33875
X136500Y-41375
X136500Y-48875
X136500Y-56375
X136500Y-63875
X136500Y-71375
X136750Y-27188
X140750Y-27188
X141000Y-33875
X141000Y-41375
X141000Y-48875
X141000Y-56375
X141000Y-63875
X141000Y-71375
X142000Y-33875
X142000Y-41375
X142000Y-48875
X142000Y-56375
X142000Y-63875
X142000Y-71375
X142020Y-27165
X143000Y-33875
X143000Y-41375
X143000Y-48875
X143000Y-56375
X143000Y-63875
X143000Y-71375
X143020Y-27165
X144000Y-33875
X144000Y-41375
X144000Y-48875
X144000Y-56375
X144000Y-63875
X144000Y-71375
X144250Y-27188
X148250Y-27188
X148500Y-33875
X148500Y-41375
X148500Y-52625
X148500Y-67625
X149500Y-27165
X149500Y-33875
X149500Y-41375
X149500Y-52625
X149500Y-67625
X150500Y-27165
X150500Y-33875
X150500Y-41375
X150500Y-52625
X150500Y-67625
X151500Y-33875
X151500Y-41375
X151500Y-52625
X151500Y-67625
T2
X10313Y-48125
X10313Y-49125
X10313Y-50125
X10313Y-51125
X10313Y-52125
X10313Y-53125
X31250Y-27188
X32250Y-27188
X33250Y-27188
X34250Y-27188
X35250Y-27188
X36250Y-27188
X76250Y-27188
X77250Y-27188
X78250Y-27188
X79250Y-27188
X80250Y-27188
X81250Y-27188
X121250Y-27188
X122250Y-27188
X123250Y-27188
X124250Y-27188
X125250Y-27188
X126250Y-27188
T3
X13500Y-30875
X13500Y-38375
X14437Y-68375
X15375Y-45875
X16000Y-29875
X16000Y-37375
X16313Y-53375
X16938Y-67375
X17875Y-44875
X18188Y-60875
X18813Y-52375
X20688Y-59875
X21000Y-30875
X21000Y-38375
X23500Y-29875
X23500Y-37375
X23813Y-68375
X24750Y-45875
X26313Y-67375
X26625Y-53375
X27250Y-44875
X28500Y-30875
X28500Y-38375
X29125Y-52375
X30375Y-60875
X31000Y-29875
X31000Y-37375
X32250Y-45875
X32875Y-59875
X33188Y-68375
X34125Y-53375
X34750Y-44875
X35688Y-67375
X36000Y-30875
X36000Y-38375
X36625Y-52375
X37875Y-60875
X38500Y-29875
X38500Y-37375
X39750Y-45875
X40375Y-59875
X41625Y-53375
X42250Y-44875
X43500Y-30875
X43500Y-38375
X44125Y-52375
X45375Y-60875
X45375Y-68375
X46000Y-29875
X46000Y-37375
X47250Y-45875
X47875Y-59875
X47875Y-67375
X49125Y-53375
X49750Y-44875
X51000Y-30875
X51000Y-38375
X51625Y-52375
X52875Y-60875
X53500Y-29875
X53500Y-37375
X54750Y-45875
X55375Y-59875
X56625Y-53375
X57250Y-44875
X58500Y-30875
X58500Y-38375
X59125Y-52375
X60375Y-60875
X60375Y-68375
X61000Y-29875
X61000Y-37375
X62250Y-45875
X62875Y-59875
X62875Y-67375
X64125Y-53375
X64750Y-44875
X66000Y-30875
X66000Y-38375
X66625Y-52375
X67875Y-60875
X68500Y-29875
X68500Y-37375
X69750Y-45875
X70375Y-59875
X71625Y-53375
X72250Y-44875
X73500Y-30875
X73500Y-38375
X74125Y-52375
X75375Y-60875
X75375Y-68375
X76000Y-29875
X76000Y-37375
X77250Y-45875
X77875Y-59875
X77875Y-67375
X79125Y-53375
X79750Y-44875
X81000Y-30875
X81000Y-38375
X81625Y-52375
X82875Y-60875
X83500Y-29875
X83500Y-37375
X84750Y-45875
X85375Y-59875
X86625Y-53375
X86625Y-68375
X87250Y-44875
X88500Y-30875
X88500Y-38375
X89125Y-52375
X89125Y-67375
X90375Y-60875
X91000Y-29875
X91000Y-37375
X92250Y-45875
X92875Y-59875
X94125Y-53375
X94125Y-68375
X94750Y-44875
X96000Y-30875
X96000Y-38375
X96625Y-52375
X96625Y-67375
X97875Y-60875
X98500Y-29875
X98500Y-37375
X99750Y-45875
X100375Y-59875
X101625Y-53375
X102250Y-44875
X102563Y-68375
X103500Y-30875
X103500Y-38375
X104125Y-52375
X105063Y-67375
X106000Y-29875
X106000Y-37375
X107250Y-45875
X108188Y-60875
X109750Y-44875
X110688Y-59875
X111000Y-30875
X111000Y-68375
X113500Y-29875
X113500Y-67375
X113813Y-53375
X114750Y-38375
X116313Y-52375
X116625Y-45875
X117250Y-37375
X118500Y-30875
X118500Y-60875
X118500Y-68375
X119125Y-44875
X121000Y-29875
X121000Y-59875
X121000Y-67375
X126000Y-30875
X126000Y-38375
X126000Y-45875
X126000Y-53375
X126000Y-60875
X126000Y-68375
X128500Y-29875
X128500Y-37375
X128500Y-44875
X128500Y-52375
X128500Y-59875
X128500Y-67375
X133500Y-30875
X133500Y-38375
X133500Y-45875
X133500Y-53375
X133500Y-60875
X133500Y-68375
X136000Y-29875
X136000Y-37375
X136000Y-44875
X136000Y-52375
X136000Y-59875
X136000Y-67375
X141000Y-30875
X141000Y-38375
X141000Y-45875
X141000Y-53375
X141000Y-60875
X141000Y-68375
X143500Y-29875
X143500Y-37375
X143500Y-44875
X143500Y-52375
X143500Y-59875
X143500Y-67375
X148500Y-30875
X148500Y-38375
X148500Y-49625
X148500Y-64625
X151000Y-29875
X151000Y-37375
X151000Y-48625
X151000Y-63625
T0
M30
