  0
SECTION
  2
HEADER
  9
$ANGBASE
  50
0.0
  9
$ANGDIR
  70
  1
  9
$MEASUREMENT
  70
0
  0
ENDSEC
  0
SECTION
  2
TABLES
  0
TABLE
  2
LTYPE
  70
1
  0
LTYPE
  2
CONTINUOUS
  70
0
  3
Solid line
  72
65
  73
0
  40
0.0
  0
ENDTAB
  0
TABLE
  2
STYLE
  70
4
  0
STYLE
  2
KICAD
  70
0
  40
0
  41
1
  42
1
  50
0
  71
0
  3
isocp.shx
  0
STYLE
  2
KICADB
  70
0
  40
0
  41
1
  42
1
  50
0
  71
0
  3
isocp.shx
  0
STYLE
  2
KICADI
  70
0
  40
0
  41
1
  42
1
  50
15
  71
0
  3
isocp.shx
  0
STYLE
  2
KICADBI
  70
0
  40
0
  41
1
  42
1
  50
15
  71
0
  3
isocp.shx
  0
ENDTAB
  0
TABLE
  2
LAYER
  70
30
  0
LAYER
  2
BLACK
  70
0
  62
7
  6
CONTINUOUS
  0
LAYER
  2
GRAY1
  70
0
  62
251
  6
CONTINUOUS
  0
LAYER
  2
GRAY2
  70
0
  62
8
  6
CONTINUOUS
  0
LAYER
  2
GRAY3
  70
0
  62
9
  6
CONTINUOUS
  0
LAYER
  2
WHITE
  70
0
  62
7
  6
CONTINUOUS
  0
LAYER
  2
LYELLOW
  70
0
  62
51
  6
CONTINUOUS
  0
LAYER
  2
BLUE1
  70
0
  62
178
  6
CONTINUOUS
  0
LAYER
  2
GREEN1
  70
0
  62
98
  6
CONTINUOUS
  0
LAYER
  2
CYAN1
  70
0
  62
138
  6
CONTINUOUS
  0
LAYER
  2
RED1
  70
0
  62
18
  6
CONTINUOUS
  0
LAYER
  2
MAGENTA1
  70
0
  62
228
  6
CONTINUOUS
  0
LAYER
  2
BROWN1
  70
0
  62
58
  6
CONTINUOUS
  0
LAYER
  2
BLUE2
  70
0
  62
5
  6
CONTINUOUS
  0
LAYER
  2
GREEN2
  70
0
  62
3
  6
CONTINUOUS
  0
LAYER
  2
CYAN2
  70
0
  62
4
  6
CONTINUOUS
  0
LAYER
  2
RED2
  70
0
  62
1
  6
CONTINUOUS
  0
LAYER
  2
MAGENTA2
  70
0
  62
6
  6
CONTINUOUS
  0
LAYER
  2
BROWN2
  70
0
  62
54
  6
CONTINUOUS
  0
LAYER
  2
BLUE3
  70
0
  62
171
  6
CONTINUOUS
  0
LAYER
  2
GREEN3
  70
0
  62
91
  6
CONTINUOUS
  0
LAYER
  2
CYAN3
  70
0
  62
131
  6
CONTINUOUS
  0
LAYER
  2
RED3
  70
0
  62
11
  6
CONTINUOUS
  0
LAYER
  2
MAGENTA3
  70
0
  62
221
  6
CONTINUOUS
  0
LAYER
  2
YELLOW3
  70
0
  62
2
  6
CONTINUOUS
  0
LAYER
  2
BLUE4
  70
0
  62
5
  6
CONTINUOUS
  0
LAYER
  2
GREEN4
  70
0
  62
3
  6
CONTINUOUS
  0
LAYER
  2
CYAN4
  70
0
  62
4
  6
CONTINUOUS
  0
LAYER
  2
RED4
  70
0
  62
1
  6
CONTINUOUS
  0
LAYER
  2
MAGENTA4
  70
0
  62
6
  6
CONTINUOUS
  0
LAYER
  2
YELLOW4
  70
0
  62
2
  6
CONTINUOUS
  0
ENDTAB
  0
ENDSEC
  0
SECTION
  2
ENTITIES
0
LINE
8
Black
10
278.139
20
-71.0215
11
278.147
21
-71.0215
0
LINE
8
Black
10
278.147
20
-71.0215
11
279.016
21
-71.1747
0
LINE
8
Black
10
279.016
20
-71.1747
11
279.049
21
-71.1866
0
LINE
8
Black
10
279.049
20
-71.1866
11
279.813
21
-71.6276
0
LINE
8
Black
10
279.813
20
-71.6276
11
279.837
21
-71.6478
0
LINE
8
Black
10
279.837
20
-71.6478
11
279.839
21
-71.65
0
LINE
8
Black
10
279.839
20
-71.65
11
280.406
21
-72.3257
0
LINE
8
Black
10
280.406
20
-72.3257
11
280.424
21
-72.3558
0
LINE
8
Black
10
280.424
20
-72.3558
11
280.725
21
-73.1847
0
LINE
8
Black
10
280.725
20
-73.1847
11
280.728
21
-73.1976
0
LINE
8
Black
10
280.728
20
-73.1976
11
280.731
21
-73.2102
0
LINE
8
Black
10
280.731
20
-73.2102
11
280.77
21
-73.6513
0
LINE
8
Black
10
280.77
20
-73.6513
11
280.769
21
-73.6557
0
LINE
8
Black
10
280.769
20
-73.6557
11
280.77
21
-73.66
0
LINE
8
Black
10
280.77
20
-73.66
11
280.77
21
-156.21
0
LINE
8
Black
10
280.77
20
-156.21
11
280.768
21
-156.219
0
LINE
8
Black
10
280.768
20
-156.219
11
280.768
21
-156.227
0
LINE
8
Black
10
280.768
20
-156.227
11
280.539
21
-157.53
0
LINE
8
Black
10
280.539
20
-157.53
11
280.527
21
-157.563
0
LINE
8
Black
10
280.527
20
-157.563
11
279.865
21
-158.709
0
LINE
8
Black
10
279.865
20
-158.709
11
279.845
21
-158.733
0
LINE
8
Black
10
279.845
20
-158.733
11
279.843
21
-158.736
0
LINE
8
Black
10
279.843
20
-158.736
11
278.829
21
-159.586
0
LINE
8
Black
10
278.829
20
-159.586
11
278.799
21
-159.604
0
LINE
8
Black
10
278.799
20
-159.604
11
277.556
21
-160.056
0
LINE
8
Black
10
277.556
20
-160.056
11
277.543
21
-160.058
0
LINE
8
Black
10
277.543
20
-160.058
11
277.53
21
-160.062
0
LINE
8
Black
10
277.53
20
-160.062
11
276.869
21
-160.12
0
LINE
8
Black
10
276.869
20
-160.12
11
276.864
21
-160.119
0
LINE
8
Black
10
276.864
20
-160.119
11
276.86
21
-160.12
0
LINE
8
Black
10
276.86
20
-160.12
11
17.78
21
-160.12
0
LINE
8
Black
10
17.78
20
-160.12
11
17.7714
21
-160.118
0
LINE
8
Black
10
17.7714
20
-160.118
11
17.7626
21
-160.118
0
LINE
8
Black
10
17.7626
20
-160.118
11
16.4595
21
-159.889
0
LINE
8
Black
10
16.4595
20
-159.889
11
16.4269
21
-159.877
0
LINE
8
Black
10
16.4269
20
-159.877
11
15.281
21
-159.215
0
LINE
8
Black
10
15.281
20
-159.215
11
15.2544
21
-159.193
0
LINE
8
Black
10
15.2544
20
-159.193
11
14.4038
21
-158.179
0
LINE
8
Black
10
14.4038
20
-158.179
11
14.3865
21
-158.149
0
LINE
8
Black
10
14.3865
20
-158.149
11
13.9339
21
-156.906
0
LINE
8
Black
10
13.9339
20
-156.906
11
13.9316
21
-156.893
0
LINE
8
Black
10
13.9316
20
-156.893
11
13.9283
21
-156.88
0
LINE
8
Black
10
13.9283
20
-156.88
11
13.8704
21
-156.219
0
LINE
8
Black
10
13.8704
20
-156.219
11
13.8708
21
-156.214
0
LINE
8
Black
10
13.8708
20
-156.214
11
13.87
21
-156.21
0
LINE
8
Black
10
13.87
20
-156.21
11
13.87
21
-74.93
0
LINE
8
Black
10
13.87
20
-74.93
11
13.8715
21
-74.9214
0
LINE
8
Black
10
13.8715
20
-74.9214
11
13.8715
21
-74.9126
0
LINE
8
Black
10
13.8715
20
-74.9126
11
14.1013
21
-73.6095
0
LINE
8
Black
10
14.1013
20
-73.6095
11
14.1013
21
-73.6095
0
LINE
8
Black
10
14.1013
20
-73.6095
11
14.1132
21
-73.5769
0
LINE
8
Black
10
14.1132
20
-73.5769
11
14.7748
21
-72.431
0
LINE
8
Black
10
14.7748
20
-72.431
11
14.7971
21
-72.4044
0
LINE
8
Black
10
14.7971
20
-72.4044
11
15.8107
21
-71.5538
0
LINE
8
Black
10
15.8107
20
-71.5538
11
15.8408
21
-71.5365
0
LINE
8
Black
10
15.8408
20
-71.5365
11
17.0842
21
-71.0839
0
LINE
8
Black
10
17.0842
20
-71.0839
11
17.0971
21
-71.0816
0
LINE
8
Black
10
17.0971
20
-71.0816
11
17.1097
21
-71.0783
0
LINE
8
Black
10
17.1097
20
-71.0783
11
17.7713
21
-71.0204
0
LINE
8
Black
10
17.7713
20
-71.0204
11
17.7757
21
-71.0208
0
LINE
8
Black
10
17.7757
20
-71.0208
11
17.78
21
-71.02
0
LINE
8
Black
10
17.78
20
-71.02
11
278.13
21
-71.02
0
LINE
8
Black
10
278.13
20
-71.02
11
278.139
21
-71.0215
0
LINE
8
Black
10
14.07
20
-156.206
11
14.1264
21
-156.85
0
LINE
8
Black
10
14.1264
20
-156.85
11
14.5684
21
-158.064
0
LINE
8
Black
10
14.5684
20
-158.064
11
15.3962
21
-159.051
0
LINE
8
Black
10
15.3962
20
-159.051
11
16.5116
21
-159.695
0
LINE
8
Black
10
16.5116
20
-159.695
11
17.7887
21
-159.92
0
LINE
8
Black
10
17.7887
20
-159.92
11
276.856
21
-159.92
0
LINE
8
Black
10
276.856
20
-159.92
11
277.5
21
-159.864
0
LINE
8
Black
10
277.5
20
-159.864
11
278.714
21
-159.422
0
LINE
8
Black
10
278.714
20
-159.422
11
279.701
21
-158.594
0
LINE
8
Black
10
279.701
20
-158.594
11
280.345
21
-157.478
0
LINE
8
Black
10
280.345
20
-157.478
11
280.57
21
-156.201
0
LINE
8
Black
10
280.57
20
-156.201
11
280.57
21
-135.99
0
LINE
8
Black
10
280.57
20
-135.99
11
279.5
21
-135.99
0
LINE
8
Black
10
279.5
20
-135.99
11
279.5
21
-151.13
0
LINE
8
Black
10
279.5
20
-151.13
11
279.498
21
-151.139
0
LINE
8
Black
10
279.498
20
-151.139
11
279.498
21
-151.147
0
LINE
8
Black
10
279.498
20
-151.147
11
279.495
21
-151.156
0
LINE
8
Black
10
279.495
20
-151.156
11
279.494
21
-151.164
0
LINE
8
Black
10
279.494
20
-151.164
11
279.49
21
-151.172
0
LINE
8
Black
10
279.49
20
-151.172
11
279.487
21
-151.18
0
LINE
8
Black
10
279.487
20
-151.18
11
279.481
21
-151.187
0
LINE
8
Black
10
279.481
20
-151.187
11
279.477
21
-151.194
0
LINE
8
Black
10
279.477
20
-151.194
11
279.47
21
-151.2
0
LINE
8
Black
10
279.47
20
-151.2
11
279.464
21
-151.207
0
LINE
8
Black
10
279.464
20
-151.207
11
279.457
21
-151.211
0
LINE
8
Black
10
279.457
20
-151.211
11
279.45
21
-151.217
0
LINE
8
Black
10
279.45
20
-151.217
11
279.442
21
-151.22
0
LINE
8
Black
10
279.442
20
-151.22
11
279.434
21
-151.224
0
LINE
8
Black
10
279.434
20
-151.224
11
279.426
21
-151.225
0
LINE
8
Black
10
279.426
20
-151.225
11
279.417
21
-151.228
0
LINE
8
Black
10
279.417
20
-151.228
11
279.409
21
-151.228
0
LINE
8
Black
10
279.409
20
-151.228
11
279.4
21
-151.23
0
LINE
8
Black
10
279.4
20
-151.23
11
271.88
21
-151.23
0
LINE
8
Black
10
271.88
20
-151.23
11
271.88
21
-158.75
0
LINE
8
Black
10
271.88
20
-158.75
11
271.878
21
-158.759
0
LINE
8
Black
10
271.878
20
-158.759
11
271.878
21
-158.767
0
LINE
8
Black
10
271.878
20
-158.767
11
271.875
21
-158.776
0
LINE
8
Black
10
271.875
20
-158.776
11
271.874
21
-158.784
0
LINE
8
Black
10
271.874
20
-158.784
11
271.87
21
-158.792
0
LINE
8
Black
10
271.87
20
-158.792
11
271.867
21
-158.8
0
LINE
8
Black
10
271.867
20
-158.8
11
271.861
21
-158.807
0
LINE
8
Black
10
271.861
20
-158.807
11
271.857
21
-158.814
0
LINE
8
Black
10
271.857
20
-158.814
11
271.85
21
-158.82
0
LINE
8
Black
10
271.85
20
-158.82
11
271.844
21
-158.827
0
LINE
8
Black
10
271.844
20
-158.827
11
271.837
21
-158.831
0
LINE
8
Black
10
271.837
20
-158.831
11
271.83
21
-158.837
0
LINE
8
Black
10
271.83
20
-158.837
11
271.822
21
-158.84
0
LINE
8
Black
10
271.822
20
-158.84
11
271.814
21
-158.844
0
LINE
8
Black
10
271.814
20
-158.844
11
271.806
21
-158.845
0
LINE
8
Black
10
271.806
20
-158.845
11
271.797
21
-158.848
0
LINE
8
Black
10
271.797
20
-158.848
11
271.789
21
-158.848
0
LINE
8
Black
10
271.789
20
-158.848
11
271.78
21
-158.85
0
LINE
8
Black
10
271.78
20
-158.85
11
22.86
21
-158.85
0
LINE
8
Black
10
22.86
20
-158.85
11
22.8514
21
-158.848
0
LINE
8
Black
10
22.8514
20
-158.848
11
22.8426
21
-158.848
0
LINE
8
Black
10
22.8426
20
-158.848
11
22.8344
21
-158.845
0
LINE
8
Black
10
22.8344
20
-158.845
11
22.8258
21
-158.844
0
LINE
8
Black
10
22.8258
20
-158.844
11
22.8182
21
-158.84
0
LINE
8
Black
10
22.8182
20
-158.84
11
22.81
21
-158.837
0
LINE
8
Black
10
22.81
20
-158.837
11
22.8033
21
-158.831
0
LINE
8
Black
10
22.8033
20
-158.831
11
22.7957
21
-158.827
0
LINE
8
Black
10
22.7957
20
-158.827
11
22.7901
21
-158.82
0
LINE
8
Black
10
22.7901
20
-158.82
11
22.7834
21
-158.814
0
LINE
8
Black
10
22.7834
20
-158.814
11
22.779
21
-158.807
0
LINE
8
Black
10
22.779
20
-158.807
11
22.7734
21
-158.8
0
LINE
8
Black
10
22.7734
20
-158.8
11
22.7704
21
-158.792
0
LINE
8
Black
10
22.7704
20
-158.792
11
22.766
21
-158.784
0
LINE
8
Black
10
22.766
20
-158.784
11
22.7645
21
-158.776
0
LINE
8
Black
10
22.7645
20
-158.776
11
22.7615
21
-158.767
0
LINE
8
Black
10
22.7615
20
-158.767
11
22.7615
21
-158.759
0
LINE
8
Black
10
22.7615
20
-158.759
11
22.76
21
-158.75
0
LINE
8
Black
10
22.76
20
-158.75
11
22.76
21
-151.23
0
LINE
8
Black
10
22.76
20
-151.23
11
15.24
21
-151.23
0
LINE
8
Black
10
15.24
20
-151.23
11
14.07
21
-151.23
0
LINE
8
Black
10
14.07
20
-151.23
11
14.07
21
-156.206
0
LINE
8
Black
10
148.581
20
-151.228
11
148.573
21
-151.228
0
LINE
8
Black
10
148.573
20
-151.228
11
148.564
21
-151.225
0
LINE
8
Black
10
148.564
20
-151.225
11
148.556
21
-151.224
0
LINE
8
Black
10
148.556
20
-151.224
11
148.548
21
-151.22
0
LINE
8
Black
10
148.548
20
-151.22
11
148.54
21
-151.217
0
LINE
8
Black
10
148.54
20
-151.217
11
148.533
21
-151.211
0
LINE
8
Black
10
148.533
20
-151.211
11
148.526
21
-151.207
0
LINE
8
Black
10
148.526
20
-151.207
11
148.52
21
-151.2
0
LINE
8
Black
10
148.52
20
-151.2
11
148.513
21
-151.194
0
LINE
8
Black
10
148.513
20
-151.194
11
148.509
21
-151.187
0
LINE
8
Black
10
148.509
20
-151.187
11
148.503
21
-151.18
0
LINE
8
Black
10
148.503
20
-151.18
11
148.5
21
-151.172
0
LINE
8
Black
10
148.5
20
-151.172
11
148.496
21
-151.164
0
LINE
8
Black
10
148.496
20
-151.164
11
148.495
21
-151.156
0
LINE
8
Black
10
148.495
20
-151.156
11
148.492
21
-151.147
0
LINE
8
Black
10
148.492
20
-151.147
11
148.492
21
-151.139
0
LINE
8
Black
10
148.492
20
-151.139
11
148.49
21
-151.13
0
LINE
8
Black
10
148.49
20
-151.13
11
148.49
21
-135.99
0
LINE
8
Black
10
148.49
20
-135.99
11
144.78
21
-135.99
0
LINE
8
Black
10
144.78
20
-135.99
11
144.771
21
-135.988
0
LINE
8
Black
10
144.771
20
-135.988
11
144.763
21
-135.988
0
LINE
8
Black
10
144.763
20
-135.988
11
144.754
21
-135.985
0
LINE
8
Black
10
144.754
20
-135.985
11
144.746
21
-135.984
0
LINE
8
Black
10
144.746
20
-135.984
11
144.738
21
-135.98
0
LINE
8
Black
10
144.738
20
-135.98
11
144.73
21
-135.977
0
LINE
8
Black
10
144.73
20
-135.977
11
144.723
21
-135.971
0
LINE
8
Black
10
144.723
20
-135.971
11
144.716
21
-135.967
0
LINE
8
Black
10
144.716
20
-135.967
11
144.71
21
-135.96
0
LINE
8
Black
10
144.71
20
-135.96
11
144.703
21
-135.954
0
LINE
8
Black
10
144.703
20
-135.954
11
144.699
21
-135.947
0
LINE
8
Black
10
144.699
20
-135.947
11
144.693
21
-135.94
0
LINE
8
Black
10
144.693
20
-135.94
11
144.69
21
-135.932
0
LINE
8
Black
10
144.69
20
-135.932
11
144.686
21
-135.924
0
LINE
8
Black
10
144.686
20
-135.924
11
144.685
21
-135.916
0
LINE
8
Black
10
144.685
20
-135.916
11
144.682
21
-135.907
0
LINE
8
Black
10
144.682
20
-135.907
11
144.682
21
-135.899
0
LINE
8
Black
10
144.682
20
-135.899
11
144.68
21
-135.89
0
LINE
8
Black
10
144.68
20
-135.89
11
144.68
21
-134.62
0
LINE
8
Black
10
144.68
20
-134.62
11
144.682
21
-134.611
0
LINE
8
Black
10
144.682
20
-134.611
11
144.682
21
-134.603
0
LINE
8
Black
10
144.682
20
-134.603
11
144.685
21
-134.594
0
LINE
8
Black
10
144.685
20
-134.594
11
144.686
21
-134.586
0
LINE
8
Black
10
144.686
20
-134.586
11
144.69
21
-134.578
0
LINE
8
Black
10
144.69
20
-134.578
11
144.693
21
-134.57
0
LINE
8
Black
10
144.693
20
-134.57
11
144.699
21
-134.563
0
LINE
8
Black
10
144.699
20
-134.563
11
144.703
21
-134.556
0
LINE
8
Black
10
144.703
20
-134.556
11
144.71
21
-134.55
0
LINE
8
Black
10
144.71
20
-134.55
11
144.716
21
-134.543
0
LINE
8
Black
10
144.716
20
-134.543
11
144.723
21
-134.539
0
LINE
8
Black
10
144.723
20
-134.539
11
144.73
21
-134.533
0
LINE
8
Black
10
144.73
20
-134.533
11
144.738
21
-134.53
0
LINE
8
Black
10
144.738
20
-134.53
11
144.746
21
-134.526
0
LINE
8
Black
10
144.746
20
-134.526
11
144.754
21
-134.525
0
LINE
8
Black
10
144.754
20
-134.525
11
144.763
21
-134.522
0
LINE
8
Black
10
144.763
20
-134.522
11
144.771
21
-134.522
0
LINE
8
Black
10
144.771
20
-134.522
11
144.78
21
-134.52
0
LINE
8
Black
10
144.78
20
-134.52
11
279.3
21
-134.52
0
LINE
8
Black
10
279.3
20
-134.52
11
279.3
21
-114.4
0
LINE
8
Black
10
279.3
20
-114.4
11
15.34
21
-114.4
0
LINE
8
Black
10
15.34
20
-114.4
11
15.34
21
-134.52
0
LINE
8
Black
10
15.34
20
-134.52
11
137.16
21
-134.52
0
LINE
8
Black
10
137.16
20
-134.52
11
137.169
21
-134.522
0
LINE
8
Black
10
137.169
20
-134.522
11
137.177
21
-134.522
0
LINE
8
Black
10
137.177
20
-134.522
11
137.186
21
-134.525
0
LINE
8
Black
10
137.186
20
-134.525
11
137.194
21
-134.526
0
LINE
8
Black
10
137.194
20
-134.526
11
137.202
21
-134.53
0
LINE
8
Black
10
137.202
20
-134.53
11
137.21
21
-134.533
0
LINE
8
Black
10
137.21
20
-134.533
11
137.217
21
-134.539
0
LINE
8
Black
10
137.217
20
-134.539
11
137.224
21
-134.543
0
LINE
8
Black
10
137.224
20
-134.543
11
137.23
21
-134.55
0
LINE
8
Black
10
137.23
20
-134.55
11
137.237
21
-134.556
0
LINE
8
Black
10
137.237
20
-134.556
11
137.241
21
-134.563
0
LINE
8
Black
10
137.241
20
-134.563
11
137.247
21
-134.57
0
LINE
8
Black
10
137.247
20
-134.57
11
137.25
21
-134.578
0
LINE
8
Black
10
137.25
20
-134.578
11
137.254
21
-134.586
0
LINE
8
Black
10
137.254
20
-134.586
11
137.255
21
-134.594
0
LINE
8
Black
10
137.255
20
-134.594
11
137.258
21
-134.603
0
LINE
8
Black
10
137.258
20
-134.603
11
137.258
21
-134.611
0
LINE
8
Black
10
137.258
20
-134.611
11
137.26
21
-134.62
0
LINE
8
Black
10
137.26
20
-134.62
11
137.26
21
-135.89
0
LINE
8
Black
10
137.26
20
-135.89
11
137.258
21
-135.899
0
LINE
8
Black
10
137.258
20
-135.899
11
137.258
21
-135.907
0
LINE
8
Black
10
137.258
20
-135.907
11
137.255
21
-135.916
0
LINE
8
Black
10
137.255
20
-135.916
11
137.254
21
-135.924
0
LINE
8
Black
10
137.254
20
-135.924
11
137.25
21
-135.932
0
LINE
8
Black
10
137.25
20
-135.932
11
137.247
21
-135.94
0
LINE
8
Black
10
137.247
20
-135.94
11
137.241
21
-135.947
0
LINE
8
Black
10
137.241
20
-135.947
11
137.237
21
-135.954
0
LINE
8
Black
10
137.237
20
-135.954
11
137.23
21
-135.96
0
LINE
8
Black
10
137.23
20
-135.96
11
137.224
21
-135.967
0
LINE
8
Black
10
137.224
20
-135.967
11
137.217
21
-135.971
0
LINE
8
Black
10
137.217
20
-135.971
11
137.21
21
-135.977
0
LINE
8
Black
10
137.21
20
-135.977
11
137.202
21
-135.98
0
LINE
8
Black
10
137.202
20
-135.98
11
137.194
21
-135.984
0
LINE
8
Black
10
137.194
20
-135.984
11
137.186
21
-135.985
0
LINE
8
Black
10
137.186
20
-135.985
11
137.177
21
-135.988
0
LINE
8
Black
10
137.177
20
-135.988
11
137.169
21
-135.988
0
LINE
8
Black
10
137.169
20
-135.988
11
137.16
21
-135.99
0
LINE
8
Black
10
137.16
20
-135.99
11
15.34
21
-135.99
0
LINE
8
Black
10
15.34
20
-135.99
11
15.34
21
-149.76
0
LINE
8
Black
10
15.34
20
-149.76
11
116.84
21
-149.76
0
LINE
8
Black
10
116.84
20
-149.76
11
116.849
21
-149.762
0
LINE
8
Black
10
116.849
20
-149.762
11
116.857
21
-149.762
0
LINE
8
Black
10
116.857
20
-149.762
11
116.866
21
-149.765
0
LINE
8
Black
10
116.866
20
-149.765
11
116.874
21
-149.766
0
LINE
8
Black
10
116.874
20
-149.766
11
116.882
21
-149.77
0
LINE
8
Black
10
116.882
20
-149.77
11
116.89
21
-149.773
0
LINE
8
Black
10
116.89
20
-149.773
11
116.897
21
-149.779
0
LINE
8
Black
10
116.897
20
-149.779
11
116.904
21
-149.783
0
LINE
8
Black
10
116.904
20
-149.783
11
116.91
21
-149.79
0
LINE
8
Black
10
116.91
20
-149.79
11
116.917
21
-149.796
0
LINE
8
Black
10
116.917
20
-149.796
11
116.921
21
-149.803
0
LINE
8
Black
10
116.921
20
-149.803
11
116.927
21
-149.81
0
LINE
8
Black
10
116.927
20
-149.81
11
116.93
21
-149.818
0
LINE
8
Black
10
116.93
20
-149.818
11
116.934
21
-149.826
0
LINE
8
Black
10
116.934
20
-149.826
11
116.935
21
-149.834
0
LINE
8
Black
10
116.935
20
-149.834
11
116.938
21
-149.843
0
LINE
8
Black
10
116.938
20
-149.843
11
116.938
21
-149.851
0
LINE
8
Black
10
116.938
20
-149.851
11
116.94
21
-149.86
0
LINE
8
Black
10
116.94
20
-149.86
11
116.94
21
-151.13
0
LINE
8
Black
10
116.94
20
-151.13
11
116.938
21
-151.139
0
LINE
8
Black
10
116.938
20
-151.139
11
116.938
21
-151.147
0
LINE
8
Black
10
116.938
20
-151.147
11
116.935
21
-151.156
0
LINE
8
Black
10
116.935
20
-151.156
11
116.934
21
-151.164
0
LINE
8
Black
10
116.934
20
-151.164
11
116.93
21
-151.172
0
LINE
8
Black
10
116.93
20
-151.172
11
116.927
21
-151.18
0
LINE
8
Black
10
116.927
20
-151.18
11
116.921
21
-151.187
0
LINE
8
Black
10
116.921
20
-151.187
11
116.917
21
-151.194
0
LINE
8
Black
10
116.917
20
-151.194
11
116.91
21
-151.2
0
LINE
8
Black
10
116.91
20
-151.2
11
116.904
21
-151.207
0
LINE
8
Black
10
116.904
20
-151.207
11
116.897
21
-151.211
0
LINE
8
Black
10
116.897
20
-151.211
11
116.89
21
-151.217
0
LINE
8
Black
10
116.89
20
-151.217
11
116.882
21
-151.22
0
LINE
8
Black
10
116.882
20
-151.22
11
116.874
21
-151.224
0
LINE
8
Black
10
116.874
20
-151.224
11
116.866
21
-151.225
0
LINE
8
Black
10
116.866
20
-151.225
11
116.857
21
-151.228
0
LINE
8
Black
10
116.857
20
-151.228
11
116.849
21
-151.228
0
LINE
8
Black
10
116.849
20
-151.228
11
116.84
21
-151.23
0
LINE
8
Black
10
116.84
20
-151.23
11
22.96
21
-151.23
0
LINE
8
Black
10
22.96
20
-151.23
11
22.96
21
-158.65
0
LINE
8
Black
10
22.96
20
-158.65
11
271.68
21
-158.65
0
LINE
8
Black
10
271.68
20
-158.65
11
271.68
21
-151.13
0
LINE
8
Black
10
271.68
20
-151.13
11
271.682
21
-151.121
0
LINE
8
Black
10
271.682
20
-151.121
11
271.682
21
-151.113
0
LINE
8
Black
10
271.682
20
-151.113
11
271.685
21
-151.104
0
LINE
8
Black
10
271.685
20
-151.104
11
271.686
21
-151.096
0
LINE
8
Black
10
271.686
20
-151.096
11
271.69
21
-151.088
0
LINE
8
Black
10
271.69
20
-151.088
11
271.693
21
-151.08
0
LINE
8
Black
10
271.693
20
-151.08
11
271.699
21
-151.073
0
LINE
8
Black
10
271.699
20
-151.073
11
271.703
21
-151.066
0
LINE
8
Black
10
271.703
20
-151.066
11
271.71
21
-151.06
0
LINE
8
Black
10
271.71
20
-151.06
11
271.716
21
-151.053
0
LINE
8
Black
10
271.716
20
-151.053
11
271.723
21
-151.049
0
LINE
8
Black
10
271.723
20
-151.049
11
271.73
21
-151.043
0
LINE
8
Black
10
271.73
20
-151.043
11
271.738
21
-151.04
0
LINE
8
Black
10
271.738
20
-151.04
11
271.746
21
-151.036
0
LINE
8
Black
10
271.746
20
-151.036
11
271.754
21
-151.035
0
LINE
8
Black
10
271.754
20
-151.035
11
271.763
21
-151.032
0
LINE
8
Black
10
271.763
20
-151.032
11
271.771
21
-151.032
0
LINE
8
Black
10
271.771
20
-151.032
11
271.78
21
-151.03
0
LINE
8
Black
10
271.78
20
-151.03
11
279.3
21
-151.03
0
LINE
8
Black
10
279.3
20
-151.03
11
279.3
21
-135.99
0
LINE
8
Black
10
279.3
20
-135.99
11
156.31
21
-135.99
0
LINE
8
Black
10
156.31
20
-135.99
11
156.31
21
-149.76
0
LINE
8
Black
10
156.31
20
-149.76
11
262.89
21
-149.76
0
LINE
8
Black
10
262.89
20
-149.76
11
262.899
21
-149.762
0
LINE
8
Black
10
262.899
20
-149.762
11
262.907
21
-149.762
0
LINE
8
Black
10
262.907
20
-149.762
11
262.916
21
-149.765
0
LINE
8
Black
10
262.916
20
-149.765
11
262.924
21
-149.766
0
LINE
8
Black
10
262.924
20
-149.766
11
262.932
21
-149.77
0
LINE
8
Black
10
262.932
20
-149.77
11
262.94
21
-149.773
0
LINE
8
Black
10
262.94
20
-149.773
11
262.947
21
-149.779
0
LINE
8
Black
10
262.947
20
-149.779
11
262.954
21
-149.783
0
LINE
8
Black
10
262.954
20
-149.783
11
262.96
21
-149.79
0
LINE
8
Black
10
262.96
20
-149.79
11
262.967
21
-149.796
0
LINE
8
Black
10
262.967
20
-149.796
11
262.971
21
-149.803
0
LINE
8
Black
10
262.971
20
-149.803
11
262.977
21
-149.81
0
LINE
8
Black
10
262.977
20
-149.81
11
262.98
21
-149.818
0
LINE
8
Black
10
262.98
20
-149.818
11
262.984
21
-149.826
0
LINE
8
Black
10
262.984
20
-149.826
11
262.985
21
-149.834
0
LINE
8
Black
10
262.985
20
-149.834
11
262.988
21
-149.843
0
LINE
8
Black
10
262.988
20
-149.843
11
262.988
21
-149.851
0
LINE
8
Black
10
262.988
20
-149.851
11
262.99
21
-149.86
0
LINE
8
Black
10
262.99
20
-149.86
11
262.99
21
-151.13
0
LINE
8
Black
10
262.99
20
-151.13
11
262.988
21
-151.139
0
LINE
8
Black
10
262.988
20
-151.139
11
262.988
21
-151.147
0
LINE
8
Black
10
262.988
20
-151.147
11
262.985
21
-151.156
0
LINE
8
Black
10
262.985
20
-151.156
11
262.984
21
-151.164
0
LINE
8
Black
10
262.984
20
-151.164
11
262.98
21
-151.172
0
LINE
8
Black
10
262.98
20
-151.172
11
262.977
21
-151.18
0
LINE
8
Black
10
262.977
20
-151.18
11
262.971
21
-151.187
0
LINE
8
Black
10
262.971
20
-151.187
11
262.967
21
-151.194
0
LINE
8
Black
10
262.967
20
-151.194
11
262.96
21
-151.2
0
LINE
8
Black
10
262.96
20
-151.2
11
262.954
21
-151.207
0
LINE
8
Black
10
262.954
20
-151.207
11
262.947
21
-151.211
0
LINE
8
Black
10
262.947
20
-151.211
11
262.94
21
-151.217
0
LINE
8
Black
10
262.94
20
-151.217
11
262.932
21
-151.22
0
LINE
8
Black
10
262.932
20
-151.22
11
262.924
21
-151.224
0
LINE
8
Black
10
262.924
20
-151.224
11
262.916
21
-151.225
0
LINE
8
Black
10
262.916
20
-151.225
11
262.907
21
-151.228
0
LINE
8
Black
10
262.907
20
-151.228
11
262.899
21
-151.228
0
LINE
8
Black
10
262.899
20
-151.228
11
262.89
21
-151.23
0
LINE
8
Black
10
262.89
20
-151.23
11
156.21
21
-151.23
0
LINE
8
Black
10
156.21
20
-151.23
11
148.59
21
-151.23
0
LINE
8
Black
10
148.59
20
-151.23
11
148.581
21
-151.228
0
LINE
8
Black
10
156.31
20
-149.96
11
156.31
21
-151.03
0
LINE
8
Black
10
156.31
20
-151.03
11
262.79
21
-151.03
0
LINE
8
Black
10
262.79
20
-151.03
11
262.79
21
-149.96
0
LINE
8
Black
10
262.79
20
-149.96
11
156.31
21
-149.96
0
LINE
8
Black
10
148.69
20
-135.99
11
148.69
21
-151.03
0
LINE
8
Black
10
148.69
20
-151.03
11
156.11
21
-151.03
0
LINE
8
Black
10
156.11
20
-151.03
11
156.11
21
-135.99
0
LINE
8
Black
10
156.11
20
-135.99
11
148.69
21
-135.99
0
LINE
8
Black
10
14.07
20
-149.96
11
14.07
21
-151.03
0
LINE
8
Black
10
14.07
20
-151.03
11
15.14
21
-151.03
0
LINE
8
Black
10
15.14
20
-151.03
11
15.14
21
-149.96
0
LINE
8
Black
10
15.14
20
-149.96
11
14.07
21
-149.96
0
LINE
8
Black
10
15.34
20
-149.96
11
15.34
21
-151.03
0
LINE
8
Black
10
15.34
20
-151.03
11
116.74
21
-151.03
0
LINE
8
Black
10
116.74
20
-151.03
11
116.74
21
-149.96
0
LINE
8
Black
10
116.74
20
-149.96
11
15.34
21
-149.96
0
LINE
8
Black
10
14.07
20
-135.99
11
14.07
21
-149.76
0
LINE
8
Black
10
14.07
20
-149.76
11
15.14
21
-149.76
0
LINE
8
Black
10
15.14
20
-149.76
11
15.14
21
-135.99
0
LINE
8
Black
10
15.14
20
-135.99
11
14.07
21
-135.99
0
LINE
8
Black
10
144.88
20
-134.72
11
144.88
21
-135.79
0
LINE
8
Black
10
144.88
20
-135.79
11
279.3
21
-135.79
0
LINE
8
Black
10
279.3
20
-135.79
11
279.3
21
-134.72
0
LINE
8
Black
10
279.3
20
-134.72
11
144.88
21
-134.72
0
LINE
8
Black
10
279.5
20
-134.72
11
279.5
21
-135.79
0
LINE
8
Black
10
279.5
20
-135.79
11
280.57
21
-135.79
0
LINE
8
Black
10
280.57
20
-135.79
11
280.57
21
-134.72
0
LINE
8
Black
10
280.57
20
-134.72
11
279.5
21
-134.72
0
LINE
8
Black
10
14.07
20
-134.72
11
14.07
21
-135.79
0
LINE
8
Black
10
14.07
20
-135.79
11
15.14
21
-135.79
0
LINE
8
Black
10
15.14
20
-135.79
11
15.14
21
-134.72
0
LINE
8
Black
10
15.14
20
-134.72
11
14.07
21
-134.72
0
LINE
8
Black
10
15.34
20
-134.72
11
15.34
21
-135.79
0
LINE
8
Black
10
15.34
20
-135.79
11
137.06
21
-135.79
0
LINE
8
Black
10
137.06
20
-135.79
11
137.06
21
-134.72
0
LINE
8
Black
10
137.06
20
-134.72
11
15.34
21
-134.72
0
LINE
8
Black
10
279.5
20
-114.4
11
279.5
21
-134.52
0
LINE
8
Black
10
279.5
20
-134.52
11
280.57
21
-134.52
0
LINE
8
Black
10
280.57
20
-134.52
11
280.57
21
-114.4
0
LINE
8
Black
10
280.57
20
-114.4
11
279.5
21
-114.4
0
LINE
8
Black
10
14.07
20
-114.4
11
14.07
21
-134.52
0
LINE
8
Black
10
14.07
20
-134.52
11
15.14
21
-134.52
0
LINE
8
Black
10
15.14
20
-134.52
11
15.14
21
-114.4
0
LINE
8
Black
10
15.14
20
-114.4
11
14.07
21
-114.4
0
LINE
8
Black
10
14.07
20
-113.13
11
14.07
21
-114.2
0
LINE
8
Black
10
14.07
20
-114.2
11
15.14
21
-114.2
0
LINE
8
Black
10
15.14
20
-114.2
11
15.14
21
-113.13
0
LINE
8
Black
10
15.14
20
-113.13
11
14.07
21
-113.13
0
LINE
8
Black
10
15.34
20
-113.13
11
15.34
21
-114.2
0
LINE
8
Black
10
15.34
20
-114.2
11
279.3
21
-114.2
0
LINE
8
Black
10
279.3
20
-114.2
11
279.3
21
-113.13
0
LINE
8
Black
10
279.3
20
-113.13
11
15.34
21
-113.13
0
LINE
8
Black
10
279.5
20
-113.13
11
279.5
21
-114.2
0
LINE
8
Black
10
279.5
20
-114.2
11
280.57
21
-114.2
0
LINE
8
Black
10
280.57
20
-114.2
11
280.57
21
-113.13
0
LINE
8
Black
10
280.57
20
-113.13
11
279.5
21
-113.13
0
LINE
8
Black
10
14.07
20
-95.35
11
14.07
21
-112.93
0
LINE
8
Black
10
14.07
20
-112.93
11
15.14
21
-112.93
0
LINE
8
Black
10
15.14
20
-112.93
11
15.14
21
-95.35
0
LINE
8
Black
10
15.14
20
-95.35
11
14.07
21
-95.35
0
LINE
8
Black
10
15.34
20
-95.35
11
15.34
21
-112.93
0
LINE
8
Black
10
15.34
20
-112.93
11
279.3
21
-112.93
0
LINE
8
Black
10
279.3
20
-112.93
11
279.3
21
-95.35
0
LINE
8
Black
10
279.3
20
-95.35
11
15.34
21
-95.35
0
LINE
8
Black
10
279.5
20
-95.35
11
279.5
21
-112.93
0
LINE
8
Black
10
279.5
20
-112.93
11
280.57
21
-112.93
0
LINE
8
Black
10
280.57
20
-112.93
11
280.57
21
-95.35
0
LINE
8
Black
10
280.57
20
-95.35
11
279.5
21
-95.35
0
LINE
8
Black
10
14.07
20
-94.08
11
14.07
21
-95.15
0
LINE
8
Black
10
14.07
20
-95.15
11
15.14
21
-95.15
0
LINE
8
Black
10
15.14
20
-95.15
11
15.14
21
-94.08
0
LINE
8
Black
10
15.14
20
-94.08
11
14.07
21
-94.08
0
LINE
8
Black
10
15.34
20
-94.08
11
15.34
21
-95.15
0
LINE
8
Black
10
15.34
20
-95.15
11
279.3
21
-95.15
0
LINE
8
Black
10
279.3
20
-95.15
11
279.3
21
-94.08
0
LINE
8
Black
10
279.3
20
-94.08
11
15.34
21
-94.08
0
LINE
8
Black
10
279.5
20
-94.08
11
279.5
21
-95.15
0
LINE
8
Black
10
279.5
20
-95.15
11
280.57
21
-95.15
0
LINE
8
Black
10
280.57
20
-95.15
11
280.57
21
-94.08
0
LINE
8
Black
10
280.57
20
-94.08
11
279.5
21
-94.08
0
LINE
8
Black
10
17.7844
20
-71.22
11
17.1402
21
-71.2764
0
LINE
8
Black
10
17.1402
20
-71.2764
11
15.9258
21
-71.7184
0
LINE
8
Black
10
15.9258
20
-71.7184
11
14.9392
21
-72.5463
0
LINE
8
Black
10
14.9392
20
-72.5463
11
14.2952
21
-73.6616
0
LINE
8
Black
10
14.2952
20
-73.6616
11
14.07
21
-74.9387
0
LINE
8
Black
10
14.07
20
-74.9387
11
14.07
21
-93.88
0
LINE
8
Black
10
14.07
20
-93.88
11
15.14
21
-93.88
0
LINE
8
Black
10
15.14
20
-93.88
11
15.14
21
-80.01
0
LINE
8
Black
10
15.14
20
-80.01
11
15.1415
21
-80.0014
0
LINE
8
Black
10
15.1415
20
-80.0014
11
15.1415
21
-79.9926
0
LINE
8
Black
10
15.1415
20
-79.9926
11
15.1445
21
-79.9844
0
LINE
8
Black
10
15.1445
20
-79.9844
11
15.146
21
-79.9758
0
LINE
8
Black
10
15.146
20
-79.9758
11
15.1504
21
-79.9682
0
LINE
8
Black
10
15.1504
20
-79.9682
11
15.1534
21
-79.96
0
LINE
8
Black
10
15.1534
20
-79.96
11
15.159
21
-79.9533
0
LINE
8
Black
10
15.159
20
-79.9533
11
15.1634
21
-79.9457
0
LINE
8
Black
10
15.1634
20
-79.9457
11
15.1701
21
-79.9401
0
LINE
8
Black
10
15.1701
20
-79.9401
11
15.1757
21
-79.9334
0
LINE
8
Black
10
15.1757
20
-79.9334
11
15.1833
21
-79.929
0
LINE
8
Black
10
15.1833
20
-79.929
11
15.19
21
-79.9234
0
LINE
8
Black
10
15.19
20
-79.9234
11
15.1982
21
-79.9204
0
LINE
8
Black
10
15.1982
20
-79.9204
11
15.2058
21
-79.916
0
LINE
8
Black
10
15.2058
20
-79.916
11
15.2144
21
-79.9145
0
LINE
8
Black
10
15.2144
20
-79.9145
11
15.2226
21
-79.9115
0
LINE
8
Black
10
15.2226
20
-79.9115
11
15.2314
21
-79.9115
0
LINE
8
Black
10
15.2314
20
-79.9115
11
15.24
21
-79.91
0
LINE
8
Black
10
15.24
20
-79.91
11
22.76
21
-79.91
0
LINE
8
Black
10
22.76
20
-79.91
11
22.76
21
-72.39
0
LINE
8
Black
10
22.76
20
-72.39
11
22.7615
21
-72.3814
0
LINE
8
Black
10
22.7615
20
-72.3814
11
22.7615
21
-72.3726
0
LINE
8
Black
10
22.7615
20
-72.3726
11
22.7645
21
-72.3644
0
LINE
8
Black
10
22.7645
20
-72.3644
11
22.766
21
-72.3558
0
LINE
8
Black
10
22.766
20
-72.3558
11
22.7704
21
-72.3482
0
LINE
8
Black
10
22.7704
20
-72.3482
11
22.7734
21
-72.34
0
LINE
8
Black
10
22.7734
20
-72.34
11
22.779
21
-72.3333
0
LINE
8
Black
10
22.779
20
-72.3333
11
22.7834
21
-72.3257
0
LINE
8
Black
10
22.7834
20
-72.3257
11
22.7901
21
-72.3201
0
LINE
8
Black
10
22.7901
20
-72.3201
11
22.7957
21
-72.3134
0
LINE
8
Black
10
22.7957
20
-72.3134
11
22.8033
21
-72.309
0
LINE
8
Black
10
22.8033
20
-72.309
11
22.81
21
-72.3034
0
LINE
8
Black
10
22.81
20
-72.3034
11
22.8182
21
-72.3004
0
LINE
8
Black
10
22.8182
20
-72.3004
11
22.8258
21
-72.296
0
LINE
8
Black
10
22.8258
20
-72.296
11
22.8344
21
-72.2945
0
LINE
8
Black
10
22.8344
20
-72.2945
11
22.8426
21
-72.2915
0
LINE
8
Black
10
22.8426
20
-72.2915
11
22.8514
21
-72.2915
0
LINE
8
Black
10
22.8514
20
-72.2915
11
22.86
21
-72.29
0
LINE
8
Black
10
22.86
20
-72.29
11
83.82
21
-72.29
0
LINE
8
Black
10
83.82
20
-72.29
11
83.8243
21
-72.2908
0
LINE
8
Black
10
83.8243
20
-72.2908
11
83.8287
21
-72.2904
0
LINE
8
Black
10
83.8287
20
-72.2904
11
83.8413
21
-72.2938
0
LINE
8
Black
10
83.8413
20
-72.2938
11
83.8542
21
-72.296
0
LINE
8
Black
10
83.8542
20
-72.296
11
83.858
21
-72.2982
0
LINE
8
Black
10
83.858
20
-72.2982
11
83.8623
21
-72.2994
0
LINE
8
Black
10
83.8623
20
-72.2994
11
83.873
21
-72.3069
0
LINE
8
Black
10
83.873
20
-72.3069
11
83.8843
21
-72.3134
0
LINE
8
Black
10
83.8843
20
-72.3134
11
83.8871
21
-72.3168
0
LINE
8
Black
10
83.8871
20
-72.3168
11
83.8907
21
-72.3193
0
LINE
8
Black
10
83.8907
20
-72.3193
11
86.4014
21
-74.83
0
LINE
8
Black
10
86.4014
20
-74.83
11
200.56
21
-74.83
0
LINE
8
Black
10
200.56
20
-74.83
11
200.56
21
-72.39
0
LINE
8
Black
10
200.56
20
-72.39
11
200.562
21
-72.3814
0
LINE
8
Black
10
200.562
20
-72.3814
11
200.562
21
-72.3726
0
LINE
8
Black
10
200.562
20
-72.3726
11
200.565
21
-72.3644
0
LINE
8
Black
10
200.565
20
-72.3644
11
200.566
21
-72.3558
0
LINE
8
Black
10
200.566
20
-72.3558
11
200.57
21
-72.3482
0
LINE
8
Black
10
200.57
20
-72.3482
11
200.573
21
-72.34
0
LINE
8
Black
10
200.573
20
-72.34
11
200.579
21
-72.3333
0
LINE
8
Black
10
200.579
20
-72.3333
11
200.583
21
-72.3257
0
LINE
8
Black
10
200.583
20
-72.3257
11
200.59
21
-72.3201
0
LINE
8
Black
10
200.59
20
-72.3201
11
200.596
21
-72.3134
0
LINE
8
Black
10
200.596
20
-72.3134
11
200.603
21
-72.309
0
LINE
8
Black
10
200.603
20
-72.309
11
200.61
21
-72.3034
0
LINE
8
Black
10
200.61
20
-72.3034
11
200.618
21
-72.3004
0
LINE
8
Black
10
200.618
20
-72.3004
11
200.626
21
-72.296
0
LINE
8
Black
10
200.626
20
-72.296
11
200.634
21
-72.2945
0
LINE
8
Black
10
200.634
20
-72.2945
11
200.643
21
-72.2915
0
LINE
8
Black
10
200.643
20
-72.2915
11
200.651
21
-72.2915
0
LINE
8
Black
10
200.651
20
-72.2915
11
200.66
21
-72.29
0
LINE
8
Black
10
200.66
20
-72.29
11
207.545
21
-72.29
0
LINE
8
Black
10
207.545
20
-72.29
11
207.545
21
-71.22
0
LINE
8
Black
10
207.545
20
-71.22
11
17.7844
21
-71.22
0
LINE
8
Black
10
207.745
20
-71.22
11
207.745
21
-72.39
0
LINE
8
Black
10
207.745
20
-72.39
11
207.743
21
-72.3986
0
LINE
8
Black
10
207.743
20
-72.3986
11
207.743
21
-72.4074
0
LINE
8
Black
10
207.743
20
-72.4074
11
207.74
21
-72.4156
0
LINE
8
Black
10
207.74
20
-72.4156
11
207.739
21
-72.4242
0
LINE
8
Black
10
207.739
20
-72.4242
11
207.735
21
-72.4318
0
LINE
8
Black
10
207.735
20
-72.4318
11
207.732
21
-72.44
0
LINE
8
Black
10
207.732
20
-72.44
11
207.726
21
-72.4467
0
LINE
8
Black
10
207.726
20
-72.4467
11
207.722
21
-72.4543
0
LINE
8
Black
10
207.722
20
-72.4543
11
207.715
21
-72.4599
0
LINE
8
Black
10
207.715
20
-72.4599
11
207.709
21
-72.4666
0
LINE
8
Black
10
207.709
20
-72.4666
11
207.702
21
-72.471
0
LINE
8
Black
10
207.702
20
-72.471
11
207.695
21
-72.4766
0
LINE
8
Black
10
207.695
20
-72.4766
11
207.687
21
-72.4796
0
LINE
8
Black
10
207.687
20
-72.4796
11
207.679
21
-72.484
0
LINE
8
Black
10
207.679
20
-72.484
11
207.671
21
-72.4855
0
LINE
8
Black
10
207.671
20
-72.4855
11
207.662
21
-72.4885
0
LINE
8
Black
10
207.662
20
-72.4885
11
207.654
21
-72.4885
0
LINE
8
Black
10
207.654
20
-72.4885
11
207.645
21
-72.49
0
LINE
8
Black
10
207.645
20
-72.49
11
200.76
21
-72.49
0
LINE
8
Black
10
200.76
20
-72.49
11
200.76
21
-74.93
0
LINE
8
Black
10
200.76
20
-74.93
11
200.758
21
-74.9386
0
LINE
8
Black
10
200.758
20
-74.9386
11
200.758
21
-74.9474
0
LINE
8
Black
10
200.758
20
-74.9474
11
200.755
21
-74.9556
0
LINE
8
Black
10
200.755
20
-74.9556
11
200.754
21
-74.9642
0
LINE
8
Black
10
200.754
20
-74.9642
11
200.75
21
-74.9718
0
LINE
8
Black
10
200.75
20
-74.9718
11
200.747
21
-74.98
0
LINE
8
Black
10
200.747
20
-74.98
11
200.741
21
-74.9867
0
LINE
8
Black
10
200.741
20
-74.9867
11
200.737
21
-74.9943
0
LINE
8
Black
10
200.737
20
-74.9943
11
200.73
21
-74.9999
0
LINE
8
Black
10
200.73
20
-74.9999
11
200.724
21
-75.0066
0
LINE
8
Black
10
200.724
20
-75.0066
11
200.717
21
-75.011
0
LINE
8
Black
10
200.717
20
-75.011
11
200.71
21
-75.0166
0
LINE
8
Black
10
200.71
20
-75.0166
11
200.702
21
-75.0196
0
LINE
8
Black
10
200.702
20
-75.0196
11
200.694
21
-75.024
0
LINE
8
Black
10
200.694
20
-75.024
11
200.686
21
-75.0255
0
LINE
8
Black
10
200.686
20
-75.0255
11
200.677
21
-75.0285
0
LINE
8
Black
10
200.677
20
-75.0285
11
200.669
21
-75.0285
0
LINE
8
Black
10
200.669
20
-75.0285
11
200.66
21
-75.03
0
LINE
8
Black
10
200.66
20
-75.03
11
86.36
21
-75.03
0
LINE
8
Black
10
86.36
20
-75.03
11
86.3557
21
-75.0292
0
LINE
8
Black
10
86.3557
20
-75.0292
11
86.3513
21
-75.0296
0
LINE
8
Black
10
86.3513
20
-75.0296
11
86.3387
21
-75.0262
0
LINE
8
Black
10
86.3387
20
-75.0262
11
86.3258
21
-75.024
0
LINE
8
Black
10
86.3258
20
-75.024
11
86.322
21
-75.0218
0
LINE
8
Black
10
86.322
20
-75.0218
11
86.3177
21
-75.0206
0
LINE
8
Black
10
86.3177
20
-75.0206
11
86.307
21
-75.0131
0
LINE
8
Black
10
86.307
20
-75.0131
11
86.2957
21
-75.0066
0
LINE
8
Black
10
86.2957
20
-75.0066
11
86.2929
21
-75.0032
0
LINE
8
Black
10
86.2929
20
-75.0032
11
86.2893
21
-75.0007
0
LINE
8
Black
10
86.2893
20
-75.0007
11
83.7786
21
-72.49
0
LINE
8
Black
10
83.7786
20
-72.49
11
22.96
21
-72.49
0
LINE
8
Black
10
22.96
20
-72.49
11
22.96
21
-80.01
0
LINE
8
Black
10
22.96
20
-80.01
11
22.9585
21
-80.0186
0
LINE
8
Black
10
22.9585
20
-80.0186
11
22.9585
21
-80.0274
0
LINE
8
Black
10
22.9585
20
-80.0274
11
22.9555
21
-80.0356
0
LINE
8
Black
10
22.9555
20
-80.0356
11
22.954
21
-80.0442
0
LINE
8
Black
10
22.954
20
-80.0442
11
22.9496
21
-80.0518
0
LINE
8
Black
10
22.9496
20
-80.0518
11
22.9466
21
-80.06
0
LINE
8
Black
10
22.9466
20
-80.06
11
22.941
21
-80.0667
0
LINE
8
Black
10
22.941
20
-80.0667
11
22.9366
21
-80.0743
0
LINE
8
Black
10
22.9366
20
-80.0743
11
22.9299
21
-80.0799
0
LINE
8
Black
10
22.9299
20
-80.0799
11
22.9243
21
-80.0866
0
LINE
8
Black
10
22.9243
20
-80.0866
11
22.9167
21
-80.091
0
LINE
8
Black
10
22.9167
20
-80.091
11
22.91
21
-80.0966
0
LINE
8
Black
10
22.91
20
-80.0966
11
22.9018
21
-80.0996
0
LINE
8
Black
10
22.9018
20
-80.0996
11
22.8942
21
-80.104
0
LINE
8
Black
10
22.8942
20
-80.104
11
22.8856
21
-80.1055
0
LINE
8
Black
10
22.8856
20
-80.1055
11
22.8774
21
-80.1085
0
LINE
8
Black
10
22.8774
20
-80.1085
11
22.8686
21
-80.1085
0
LINE
8
Black
10
22.8686
20
-80.1085
11
22.86
21
-80.11
0
LINE
8
Black
10
22.86
20
-80.11
11
15.34
21
-80.11
0
LINE
8
Black
10
15.34
20
-80.11
11
15.34
21
-93.88
0
LINE
8
Black
10
15.34
20
-93.88
11
279.3
21
-93.88
0
LINE
8
Black
10
279.3
20
-93.88
11
279.3
21
-80.11
0
LINE
8
Black
10
279.3
20
-80.11
11
271.78
21
-80.11
0
LINE
8
Black
10
271.78
20
-80.11
11
271.771
21
-80.1085
0
LINE
8
Black
10
271.771
20
-80.1085
11
271.763
21
-80.1085
0
LINE
8
Black
10
271.763
20
-80.1085
11
271.754
21
-80.1055
0
LINE
8
Black
10
271.754
20
-80.1055
11
271.746
21
-80.104
0
LINE
8
Black
10
271.746
20
-80.104
11
271.738
21
-80.0996
0
LINE
8
Black
10
271.738
20
-80.0996
11
271.73
21
-80.0966
0
LINE
8
Black
10
271.73
20
-80.0966
11
271.723
21
-80.091
0
LINE
8
Black
10
271.723
20
-80.091
11
271.716
21
-80.0866
0
LINE
8
Black
10
271.716
20
-80.0866
11
271.71
21
-80.0799
0
LINE
8
Black
10
271.71
20
-80.0799
11
271.703
21
-80.0743
0
LINE
8
Black
10
271.703
20
-80.0743
11
271.699
21
-80.0667
0
LINE
8
Black
10
271.699
20
-80.0667
11
271.693
21
-80.06
0
LINE
8
Black
10
271.693
20
-80.06
11
271.69
21
-80.0518
0
LINE
8
Black
10
271.69
20
-80.0518
11
271.686
21
-80.0442
0
LINE
8
Black
10
271.686
20
-80.0442
11
271.685
21
-80.0356
0
LINE
8
Black
10
271.685
20
-80.0356
11
271.682
21
-80.0274
0
LINE
8
Black
10
271.682
20
-80.0274
11
271.682
21
-80.0186
0
LINE
8
Black
10
271.682
20
-80.0186
11
271.68
21
-80.01
0
LINE
8
Black
10
271.68
20
-80.01
11
271.68
21
-72.49
0
LINE
8
Black
10
271.68
20
-72.49
11
215.9
21
-72.49
0
LINE
8
Black
10
215.9
20
-72.49
11
215.891
21
-72.4885
0
LINE
8
Black
10
215.891
20
-72.4885
11
215.883
21
-72.4885
0
LINE
8
Black
10
215.883
20
-72.4885
11
215.874
21
-72.4855
0
LINE
8
Black
10
215.874
20
-72.4855
11
215.866
21
-72.484
0
LINE
8
Black
10
215.866
20
-72.484
11
215.858
21
-72.4796
0
LINE
8
Black
10
215.858
20
-72.4796
11
215.85
21
-72.4766
0
LINE
8
Black
10
215.85
20
-72.4766
11
215.843
21
-72.471
0
LINE
8
Black
10
215.843
20
-72.471
11
215.836
21
-72.4666
0
LINE
8
Black
10
215.836
20
-72.4666
11
215.83
21
-72.4599
0
LINE
8
Black
10
215.83
20
-72.4599
11
215.823
21
-72.4543
0
LINE
8
Black
10
215.823
20
-72.4543
11
215.819
21
-72.4467
0
LINE
8
Black
10
215.819
20
-72.4467
11
215.813
21
-72.44
0
LINE
8
Black
10
215.813
20
-72.44
11
215.81
21
-72.4318
0
LINE
8
Black
10
215.81
20
-72.4318
11
215.806
21
-72.4242
0
LINE
8
Black
10
215.806
20
-72.4242
11
215.805
21
-72.4156
0
LINE
8
Black
10
215.805
20
-72.4156
11
215.802
21
-72.4074
0
LINE
8
Black
10
215.802
20
-72.4074
11
215.802
21
-72.3986
0
LINE
8
Black
10
215.802
20
-72.3986
11
215.8
21
-72.39
0
LINE
8
Black
10
215.8
20
-72.39
11
215.8
21
-71.22
0
LINE
8
Black
10
215.8
20
-71.22
11
207.745
21
-71.22
0
LINE
8
Black
10
216
20
-71.22
11
216
21
-72.29
0
LINE
8
Black
10
216
20
-72.29
11
271.78
21
-72.29
0
LINE
8
Black
10
271.78
20
-72.29
11
271.789
21
-72.2915
0
LINE
8
Black
10
271.789
20
-72.2915
11
271.797
21
-72.2915
0
LINE
8
Black
10
271.797
20
-72.2915
11
271.806
21
-72.2945
0
LINE
8
Black
10
271.806
20
-72.2945
11
271.814
21
-72.296
0
LINE
8
Black
10
271.814
20
-72.296
11
271.822
21
-72.3004
0
LINE
8
Black
10
271.822
20
-72.3004
11
271.83
21
-72.3034
0
LINE
8
Black
10
271.83
20
-72.3034
11
271.837
21
-72.309
0
LINE
8
Black
10
271.837
20
-72.309
11
271.844
21
-72.3134
0
LINE
8
Black
10
271.844
20
-72.3134
11
271.85
21
-72.3201
0
LINE
8
Black
10
271.85
20
-72.3201
11
271.857
21
-72.3257
0
LINE
8
Black
10
271.857
20
-72.3257
11
271.861
21
-72.3333
0
LINE
8
Black
10
271.861
20
-72.3333
11
271.867
21
-72.34
0
LINE
8
Black
10
271.867
20
-72.34
11
271.87
21
-72.3482
0
LINE
8
Black
10
271.87
20
-72.3482
11
271.874
21
-72.3558
0
LINE
8
Black
10
271.874
20
-72.3558
11
271.875
21
-72.3644
0
LINE
8
Black
10
271.875
20
-72.3644
11
271.878
21
-72.3726
0
LINE
8
Black
10
271.878
20
-72.3726
11
271.878
21
-72.3814
0
LINE
8
Black
10
271.878
20
-72.3814
11
271.88
21
-72.39
0
LINE
8
Black
10
271.88
20
-72.39
11
271.88
21
-79.91
0
LINE
8
Black
10
271.88
20
-79.91
11
279.4
21
-79.91
0
LINE
8
Black
10
279.4
20
-79.91
11
279.409
21
-79.9115
0
LINE
8
Black
10
279.409
20
-79.9115
11
279.417
21
-79.9115
0
LINE
8
Black
10
279.417
20
-79.9115
11
279.426
21
-79.9145
0
LINE
8
Black
10
279.426
20
-79.9145
11
279.434
21
-79.916
0
LINE
8
Black
10
279.434
20
-79.916
11
279.442
21
-79.9204
0
LINE
8
Black
10
279.442
20
-79.9204
11
279.45
21
-79.9234
0
LINE
8
Black
10
279.45
20
-79.9234
11
279.457
21
-79.929
0
LINE
8
Black
10
279.457
20
-79.929
11
279.464
21
-79.9334
0
LINE
8
Black
10
279.464
20
-79.9334
11
279.47
21
-79.9401
0
LINE
8
Black
10
279.47
20
-79.9401
11
279.477
21
-79.9457
0
LINE
8
Black
10
279.477
20
-79.9457
11
279.481
21
-79.9533
0
LINE
8
Black
10
279.481
20
-79.9533
11
279.487
21
-79.96
0
LINE
8
Black
10
279.487
20
-79.96
11
279.49
21
-79.9682
0
LINE
8
Black
10
279.49
20
-79.9682
11
279.494
21
-79.9758
0
LINE
8
Black
10
279.494
20
-79.9758
11
279.495
21
-79.9844
0
LINE
8
Black
10
279.495
20
-79.9844
11
279.498
21
-79.9926
0
LINE
8
Black
10
279.498
20
-79.9926
11
279.498
21
-80.0014
0
LINE
8
Black
10
279.498
20
-80.0014
11
279.5
21
-80.01
0
LINE
8
Black
10
279.5
20
-80.01
11
279.5
21
-93.88
0
LINE
8
Black
10
279.5
20
-93.88
11
280.57
21
-93.88
0
LINE
8
Black
10
280.57
20
-93.88
11
280.57
21
-73.6644
0
LINE
8
Black
10
280.57
20
-73.6644
11
280.533
21
-73.2408
0
LINE
8
Black
10
280.533
20
-73.2408
11
280.242
21
-72.4408
0
LINE
8
Black
10
280.242
20
-72.4408
11
279.697
21
-71.792
0
LINE
8
Black
10
279.697
20
-71.792
11
278.964
21
-71.3686
0
LINE
8
Black
10
278.964
20
-71.3686
11
278.121
21
-71.22
0
LINE
8
Black
10
278.121
20
-71.22
11
216
21
-71.22
0
LINE
8
Black
10
19.8053
20
-152.865
11
20.4695
21
-153.248
0
LINE
8
Black
10
20.4695
20
-153.248
11
20.9625
21
-153.836
0
LINE
8
Black
10
20.9625
20
-153.836
11
21.2249
21
-154.557
0
LINE
8
Black
10
21.2249
20
-154.557
11
21.2249
21
-155.323
0
LINE
8
Black
10
21.2249
20
-155.323
11
20.9625
21
-156.044
0
LINE
8
Black
10
20.9625
20
-156.044
11
20.4695
21
-156.632
0
LINE
8
Black
10
20.4695
20
-156.632
11
19.8053
21
-157.015
0
LINE
8
Black
10
19.8053
20
-157.015
11
19.05
21
-157.148
0
LINE
8
Black
10
19.05
20
-157.148
11
18.2947
21
-157.015
0
LINE
8
Black
10
18.2947
20
-157.015
11
17.6305
21
-156.632
0
LINE
8
Black
10
17.6305
20
-156.632
11
17.1375
21
-156.044
0
LINE
8
Black
10
17.1375
20
-156.044
11
16.8751
21
-155.323
0
LINE
8
Black
10
16.8751
20
-155.323
11
16.8751
21
-154.557
0
LINE
8
Black
10
16.8751
20
-154.557
11
17.1375
21
-153.836
0
LINE
8
Black
10
17.1375
20
-153.836
11
17.6305
21
-153.248
0
LINE
8
Black
10
17.6305
20
-153.248
11
18.2947
21
-152.865
0
LINE
8
Black
10
18.2947
20
-152.865
11
19.05
21
-152.732
0
LINE
8
Black
10
19.05
20
-152.732
11
19.8053
21
-152.865
0
LINE
8
Black
10
276.345
20
-152.865
11
277.01
21
-153.248
0
LINE
8
Black
10
277.01
20
-153.248
11
277.503
21
-153.836
0
LINE
8
Black
10
277.503
20
-153.836
11
277.765
21
-154.557
0
LINE
8
Black
10
277.765
20
-154.557
11
277.765
21
-155.323
0
LINE
8
Black
10
277.765
20
-155.323
11
277.503
21
-156.044
0
LINE
8
Black
10
277.503
20
-156.044
11
277.01
21
-156.632
0
LINE
8
Black
10
277.01
20
-156.632
11
276.345
21
-157.015
0
LINE
8
Black
10
276.345
20
-157.015
11
275.59
21
-157.148
0
LINE
8
Black
10
275.59
20
-157.148
11
274.835
21
-157.015
0
LINE
8
Black
10
274.835
20
-157.015
11
274.17
21
-156.632
0
LINE
8
Black
10
274.17
20
-156.632
11
273.677
21
-156.044
0
LINE
8
Black
10
273.677
20
-156.044
11
273.415
21
-155.323
0
LINE
8
Black
10
273.415
20
-155.323
11
273.415
21
-154.557
0
LINE
8
Black
10
273.415
20
-154.557
11
273.677
21
-153.836
0
LINE
8
Black
10
273.677
20
-153.836
11
274.17
21
-153.248
0
LINE
8
Black
10
274.17
20
-153.248
11
274.835
21
-152.865
0
LINE
8
Black
10
274.835
20
-152.865
11
275.59
21
-152.732
0
LINE
8
Black
10
275.59
20
-152.732
11
276.345
21
-152.865
0
LINE
8
Black
10
19.8053
20
-74.1248
11
20.4695
21
-74.5083
0
LINE
8
Black
10
20.4695
20
-74.5083
11
20.9625
21
-75.0958
0
LINE
8
Black
10
20.9625
20
-75.0958
11
21.2249
21
-75.8165
0
LINE
8
Black
10
21.2249
20
-75.8165
11
21.2249
21
-76.5835
0
LINE
8
Black
10
21.2249
20
-76.5835
11
20.9625
21
-77.3042
0
LINE
8
Black
10
20.9625
20
-77.3042
11
20.4695
21
-77.8917
0
LINE
8
Black
10
20.4695
20
-77.8917
11
19.8053
21
-78.2752
0
LINE
8
Black
10
19.8053
20
-78.2752
11
19.05
21
-78.4084
0
LINE
8
Black
10
19.05
20
-78.4084
11
18.2947
21
-78.2752
0
LINE
8
Black
10
18.2947
20
-78.2752
11
17.6305
21
-77.8917
0
LINE
8
Black
10
17.6305
20
-77.8917
11
17.1375
21
-77.3042
0
LINE
8
Black
10
17.1375
20
-77.3042
11
16.8751
21
-76.5835
0
LINE
8
Black
10
16.8751
20
-76.5835
11
16.8751
21
-75.8165
0
LINE
8
Black
10
16.8751
20
-75.8165
11
17.1375
21
-75.0958
0
LINE
8
Black
10
17.1375
20
-75.0958
11
17.6305
21
-74.5083
0
LINE
8
Black
10
17.6305
20
-74.5083
11
18.2947
21
-74.1248
0
LINE
8
Black
10
18.2947
20
-74.1248
11
19.05
21
-73.9916
0
LINE
8
Black
10
19.05
20
-73.9916
11
19.8053
21
-74.1248
0
LINE
8
Black
10
276.345
20
-74.1248
11
277.01
21
-74.5083
0
LINE
8
Black
10
277.01
20
-74.5083
11
277.503
21
-75.0958
0
LINE
8
Black
10
277.503
20
-75.0958
11
277.765
21
-75.8165
0
LINE
8
Black
10
277.765
20
-75.8165
11
277.765
21
-76.5835
0
LINE
8
Black
10
277.765
20
-76.5835
11
277.503
21
-77.3042
0
LINE
8
Black
10
277.503
20
-77.3042
11
277.01
21
-77.8917
0
LINE
8
Black
10
277.01
20
-77.8917
11
276.345
21
-78.2752
0
LINE
8
Black
10
276.345
20
-78.2752
11
275.59
21
-78.4084
0
LINE
8
Black
10
275.59
20
-78.4084
11
274.835
21
-78.2752
0
LINE
8
Black
10
274.835
20
-78.2752
11
274.17
21
-77.8917
0
LINE
8
Black
10
274.17
20
-77.8917
11
273.677
21
-77.3042
0
LINE
8
Black
10
273.677
20
-77.3042
11
273.415
21
-76.5835
0
LINE
8
Black
10
273.415
20
-76.5835
11
273.415
21
-75.8165
0
LINE
8
Black
10
273.415
20
-75.8165
11
273.677
21
-75.0958
0
LINE
8
Black
10
273.677
20
-75.0958
11
274.17
21
-74.5083
0
LINE
8
Black
10
274.17
20
-74.5083
11
274.835
21
-74.1248
0
LINE
8
Black
10
274.835
20
-74.1248
11
275.59
21
-73.9916
0
LINE
8
Black
10
275.59
20
-73.9916
11
276.345
21
-74.1248
  0
ENDSEC
  0
EOF
