M48
INCH,TZ
T1C0.067
T2C0.087
T3C0.120
T4C0.157
%
G90
G05
T1
X9500Y-35000
X9500Y-57500
X10500Y-42500
X12500Y-50000
X13500Y-35000
X13500Y-57500
X14500Y-42500
X16500Y-50000
X17000Y-35000
X17000Y-57500
X19000Y-42500
X21000Y-35000
X21000Y-57500
X22500Y-50000
X23000Y-42500
X24500Y-35000
X24500Y-57500
X26500Y-42500
X26500Y-50000
X28500Y-35000
X28500Y-57500
X30000Y-50000
X30500Y-42500
X32000Y-35000
X33000Y-57500
X34000Y-42500
X34000Y-50000
X36000Y-35000
X37000Y-57500
X37500Y-50000
X38000Y-42500
X39500Y-35000
X41500Y-42500
X41500Y-50000
X43500Y-35000
X45000Y-50000
X45500Y-42500
X47000Y-35000
X49000Y-42500
X49000Y-50000
X51000Y-35000
X52500Y-50000
X53000Y-42500
X53500Y-57500
X54500Y-35000
X56500Y-42500
X56500Y-50000
X57500Y-57500
X58500Y-35000
X60000Y-50000
X60500Y-42500
X62000Y-35000
X64000Y-42500
X64000Y-50000
X66000Y-35000
X67500Y-50000
X68000Y-42500
X69500Y-35000
X71500Y-42500
X71500Y-50000
X73500Y-35000
X74000Y-57500
X75000Y-50000
X75500Y-42500
X77000Y-35000
X78000Y-57500
X79000Y-42500
X79000Y-50000
X81000Y-35000
X82500Y-50000
X82500Y-57500
X83000Y-42500
X84500Y-35000
X86500Y-42500
X86500Y-50000
X86500Y-57500
X88500Y-35000
X90000Y-50000
X90000Y-57500
X90500Y-42500
X92000Y-35000
X94000Y-50000
X94000Y-57500
X96000Y-35000
X97500Y-57500
X98500Y-42500
X100500Y-50000
X101500Y-35000
X101500Y-57500
X102500Y-42500
X104500Y-50000
X105500Y-35000
T2
X7500Y-30000
X7500Y-61000
X43000Y-38500
X55500Y-53500
X73000Y-38500
X108500Y-30000
X108500Y-61000
T3
X43300Y-54750
X67700Y-54750
X95800Y-39750
X105200Y-39750
T4
X11500Y-35000
X11500Y-57500
X12500Y-42500
X14500Y-50000
X19000Y-35000
X19000Y-57500
X21000Y-42500
X24500Y-50000
X26500Y-35000
X26500Y-57500
X28500Y-42500
X32000Y-50000
X34000Y-35000
X35000Y-57500
X36000Y-42500
X39500Y-50000
X41500Y-35000
X43300Y-60750
X43500Y-42500
X47000Y-50000
X49000Y-35000
X51000Y-42500
X54500Y-50000
X55500Y-57500
X56500Y-35000
X58500Y-42500
X62000Y-50000
X64000Y-35000
X66000Y-42500
X67700Y-60750
X69500Y-50000
X71500Y-35000
X73500Y-42500
X76000Y-57500
X77000Y-50000
X79000Y-35000
X81000Y-42500
X84500Y-50000
X84500Y-57500
X86500Y-35000
X88500Y-42500
X92000Y-50000
X92000Y-57500
X94000Y-35000
X95800Y-45750
X99500Y-57500
X100500Y-42500
X102500Y-50000
X103500Y-35000
X105200Y-45750
T0
M30
