  0
SECTION
  2
HEADER
  9
$ANGBASE
  50
0.0
  9
$ANGDIR
  70
  1
  9
$MEASUREMENT
  70
0
  0
ENDSEC
  0
SECTION
  2
TABLES
  0
TABLE
  2
LTYPE
  70
1
  0
LTYPE
  2
CONTINUOUS
  70
0
  3
Solid line
  72
65
  73
0
  40
0.0
  0
ENDTAB
  0
TABLE
  2
STYLE
  70
4
  0
STYLE
  2
KICAD
  70
0
  40
0
  41
1
  42
1
  50
0
  71
0
  3
isocp.shx
  0
STYLE
  2
KICADB
  70
0
  40
0
  41
1
  42
1
  50
0
  71
0
  3
isocp.shx
  0
STYLE
  2
KICADI
  70
0
  40
0
  41
1
  42
1
  50
15
  71
0
  3
isocp.shx
  0
STYLE
  2
KICADBI
  70
0
  40
0
  41
1
  42
1
  50
15
  71
0
  3
isocp.shx
  0
ENDTAB
  0
TABLE
  2
LAYER
  70
30
  0
LAYER
  2
BLACK
  70
0
  62
7
  6
CONTINUOUS
  0
LAYER
  2
GRAY1
  70
0
  62
251
  6
CONTINUOUS
  0
LAYER
  2
GRAY2
  70
0
  62
8
  6
CONTINUOUS
  0
LAYER
  2
GRAY3
  70
0
  62
9
  6
CONTINUOUS
  0
LAYER
  2
WHITE
  70
0
  62
7
  6
CONTINUOUS
  0
LAYER
  2
LYELLOW
  70
0
  62
51
  6
CONTINUOUS
  0
LAYER
  2
BLUE1
  70
0
  62
178
  6
CONTINUOUS
  0
LAYER
  2
GREEN1
  70
0
  62
98
  6
CONTINUOUS
  0
LAYER
  2
CYAN1
  70
0
  62
138
  6
CONTINUOUS
  0
LAYER
  2
RED1
  70
0
  62
18
  6
CONTINUOUS
  0
LAYER
  2
MAGENTA1
  70
0
  62
228
  6
CONTINUOUS
  0
LAYER
  2
BROWN1
  70
0
  62
58
  6
CONTINUOUS
  0
LAYER
  2
BLUE2
  70
0
  62
5
  6
CONTINUOUS
  0
LAYER
  2
GREEN2
  70
0
  62
3
  6
CONTINUOUS
  0
LAYER
  2
CYAN2
  70
0
  62
4
  6
CONTINUOUS
  0
LAYER
  2
RED2
  70
0
  62
1
  6
CONTINUOUS
  0
LAYER
  2
MAGENTA2
  70
0
  62
6
  6
CONTINUOUS
  0
LAYER
  2
BROWN2
  70
0
  62
54
  6
CONTINUOUS
  0
LAYER
  2
BLUE3
  70
0
  62
171
  6
CONTINUOUS
  0
LAYER
  2
GREEN3
  70
0
  62
91
  6
CONTINUOUS
  0
LAYER
  2
CYAN3
  70
0
  62
131
  6
CONTINUOUS
  0
LAYER
  2
RED3
  70
0
  62
11
  6
CONTINUOUS
  0
LAYER
  2
MAGENTA3
  70
0
  62
221
  6
CONTINUOUS
  0
LAYER
  2
YELLOW3
  70
0
  62
2
  6
CONTINUOUS
  0
LAYER
  2
BLUE4
  70
0
  62
5
  6
CONTINUOUS
  0
LAYER
  2
GREEN4
  70
0
  62
3
  6
CONTINUOUS
  0
LAYER
  2
CYAN4
  70
0
  62
4
  6
CONTINUOUS
  0
LAYER
  2
RED4
  70
0
  62
1
  6
CONTINUOUS
  0
LAYER
  2
MAGENTA4
  70
0
  62
6
  6
CONTINUOUS
  0
LAYER
  2
YELLOW4
  70
0
  62
2
  6
CONTINUOUS
  0
ENDTAB
  0
ENDSEC
  0
SECTION
  2
ENTITIES
0
LINE
8
Black
10
390.529
20
-66.6258
11
390.534
21
-66.6258
0
LINE
8
Black
10
390.534
20
-66.6258
11
392.163
21
-66.913
0
LINE
8
Black
10
392.163
20
-66.913
11
392.163
21
-66.913
0
LINE
8
Black
10
392.163
20
-66.913
11
392.172
21
-66.9164
0
LINE
8
Black
10
392.172
20
-66.9164
11
392.179
21
-66.9189
0
LINE
8
Black
10
392.179
20
-66.9189
11
392.179
21
-66.9189
0
LINE
8
Black
10
392.179
20
-66.9189
11
393.611
21
-67.7459
0
LINE
8
Black
10
393.611
20
-67.7459
11
393.625
21
-67.7571
0
LINE
8
Black
10
393.625
20
-67.7571
11
393.625
21
-67.7571
0
LINE
8
Black
10
393.625
20
-67.7571
11
394.688
21
-69.0241
0
LINE
8
Black
10
394.688
20
-69.0241
11
394.688
21
-69.0241
0
LINE
8
Black
10
394.688
20
-69.0241
11
394.696
21
-69.0391
0
LINE
8
Black
10
394.696
20
-69.0391
11
395.262
21
-70.5934
0
LINE
8
Black
10
395.262
20
-70.5934
11
395.263
21
-70.5998
0
LINE
8
Black
10
395.263
20
-70.5998
11
395.265
21
-70.6061
0
LINE
8
Black
10
395.265
20
-70.6061
11
395.337
21
-71.4331
0
LINE
8
Black
10
395.337
20
-71.4331
11
395.337
21
-71.4353
0
LINE
8
Black
10
395.337
20
-71.4353
11
395.337
21
-71.4375
0
LINE
8
Black
10
395.337
20
-71.4375
11
395.337
21
-185.737
0
LINE
8
Black
10
395.337
20
-185.737
11
395.337
21
-185.742
0
LINE
8
Black
10
395.337
20
-185.742
11
395.337
21
-185.746
0
LINE
8
Black
10
395.337
20
-185.746
11
395.05
21
-187.375
0
LINE
8
Black
10
395.05
20
-187.375
11
395.05
21
-187.375
0
LINE
8
Black
10
395.05
20
-187.375
11
395.047
21
-187.383
0
LINE
8
Black
10
395.047
20
-187.383
11
395.044
21
-187.391
0
LINE
8
Black
10
395.044
20
-187.391
11
395.044
21
-187.391
0
LINE
8
Black
10
395.044
20
-187.391
11
394.217
21
-188.824
0
LINE
8
Black
10
394.217
20
-188.824
11
394.205
21
-188.837
0
LINE
8
Black
10
394.205
20
-188.837
11
394.205
21
-188.837
0
LINE
8
Black
10
394.205
20
-188.837
11
392.938
21
-189.9
0
LINE
8
Black
10
392.938
20
-189.9
11
392.938
21
-189.9
0
LINE
8
Black
10
392.938
20
-189.9
11
392.923
21
-189.909
0
LINE
8
Black
10
392.923
20
-189.909
11
391.369
21
-190.475
0
LINE
8
Black
10
391.369
20
-190.475
11
391.363
21
-190.476
0
LINE
8
Black
10
391.363
20
-190.476
11
391.356
21
-190.477
0
LINE
8
Black
10
391.356
20
-190.477
11
390.529
21
-190.55
0
LINE
8
Black
10
390.529
20
-190.55
11
390.527
21
-190.55
0
LINE
8
Black
10
390.527
20
-190.55
11
390.525
21
-190.55
0
LINE
8
Black
10
390.525
20
-190.55
11
28.575
21
-190.55
0
LINE
8
Black
10
28.575
20
-190.55
11
28.5707
21
-190.549
0
LINE
8
Black
10
28.5707
20
-190.549
11
28.5663
21
-190.549
0
LINE
8
Black
10
28.5663
20
-190.549
11
26.9375
21
-190.262
0
LINE
8
Black
10
26.9375
20
-190.262
11
26.9374
21
-190.262
0
LINE
8
Black
10
26.9374
20
-190.262
11
26.9293
21
-190.259
0
LINE
8
Black
10
26.9293
20
-190.259
11
26.9211
21
-190.256
0
LINE
8
Black
10
26.9211
20
-190.256
11
26.9211
21
-190.256
0
LINE
8
Black
10
26.9211
20
-190.256
11
25.4887
21
-189.429
0
LINE
8
Black
10
25.4887
20
-189.429
11
25.4754
21
-189.418
0
LINE
8
Black
10
25.4754
20
-189.418
11
25.4754
21
-189.418
0
LINE
8
Black
10
25.4754
20
-189.418
11
24.4123
21
-188.151
0
LINE
8
Black
10
24.4123
20
-188.151
11
24.4123
21
-188.151
0
LINE
8
Black
10
24.4123
20
-188.151
11
24.4036
21
-188.136
0
LINE
8
Black
10
24.4036
20
-188.136
11
23.8379
21
-186.582
0
LINE
8
Black
10
23.8379
20
-186.582
11
23.8367
21
-186.575
0
LINE
8
Black
10
23.8367
20
-186.575
11
23.835
21
-186.569
0
LINE
8
Black
10
23.835
20
-186.569
11
23.7627
21
-185.742
0
LINE
8
Black
10
23.7627
20
-185.742
11
23.7629
21
-185.74
0
LINE
8
Black
10
23.7629
20
-185.74
11
23.7625
21
-185.737
0
LINE
8
Black
10
23.7625
20
-185.737
11
23.7625
21
-71.4375
0
LINE
8
Black
10
23.7625
20
-71.4375
11
23.7633
21
-71.4332
0
LINE
8
Black
10
23.7633
20
-71.4332
11
23.7633
21
-71.4288
0
LINE
8
Black
10
23.7633
20
-71.4288
11
24.0505
21
-69.8
0
LINE
8
Black
10
24.0505
20
-69.8
11
24.0505
21
-69.7999
0
LINE
8
Black
10
24.0505
20
-69.7999
11
24.0539
21
-69.7905
0
LINE
8
Black
10
24.0539
20
-69.7905
11
24.0564
21
-69.7836
0
LINE
8
Black
10
24.0564
20
-69.7836
11
24.0564
21
-69.7836
0
LINE
8
Black
10
24.0564
20
-69.7836
11
24.8834
21
-68.3512
0
LINE
8
Black
10
24.8834
20
-68.3512
11
24.8946
21
-68.3379
0
LINE
8
Black
10
24.8946
20
-68.3379
11
24.8946
21
-68.3379
0
LINE
8
Black
10
24.8946
20
-68.3379
11
26.1616
21
-67.2748
0
LINE
8
Black
10
26.1616
20
-67.2748
11
26.1616
21
-67.2748
0
LINE
8
Black
10
26.1616
20
-67.2748
11
26.1766
21
-67.2661
0
LINE
8
Black
10
26.1766
20
-67.2661
11
27.7309
21
-66.7004
0
LINE
8
Black
10
27.7309
20
-66.7004
11
27.7373
21
-66.6992
0
LINE
8
Black
10
27.7373
20
-66.6992
11
27.7436
21
-66.6975
0
LINE
8
Black
10
27.7436
20
-66.6975
11
28.5706
21
-66.6252
0
LINE
8
Black
10
28.5706
20
-66.6252
11
28.5728
21
-66.6254
0
LINE
8
Black
10
28.5728
20
-66.6254
11
28.575
21
-66.625
0
LINE
8
Black
10
28.575
20
-66.625
11
390.525
21
-66.625
0
LINE
8
Black
10
390.525
20
-66.625
11
390.529
21
-66.6258
0
LINE
8
Black
10
28.5772
20
-66.725
11
27.7589
21
-66.7966
0
LINE
8
Black
10
27.7589
20
-66.7966
11
26.2191
21
-67.357
0
LINE
8
Black
10
26.2191
20
-67.357
11
24.9656
21
-68.4089
0
LINE
8
Black
10
24.9656
20
-68.4089
11
24.1474
21
-69.826
0
LINE
8
Black
10
24.1474
20
-69.826
11
23.8625
21
-71.4419
0
LINE
8
Black
10
23.8625
20
-71.4419
11
23.8625
21
-185.735
0
LINE
8
Black
10
23.8625
20
-185.735
11
23.9341
21
-186.554
0
LINE
8
Black
10
23.9341
20
-186.554
11
24.4945
21
-188.093
0
LINE
8
Black
10
24.4945
20
-188.093
11
25.5464
21
-189.347
0
LINE
8
Black
10
25.5464
20
-189.347
11
26.9635
21
-190.165
0
LINE
8
Black
10
26.9635
20
-190.165
11
28.5794
21
-190.45
0
LINE
8
Black
10
28.5794
20
-190.45
11
390.523
21
-190.45
0
LINE
8
Black
10
390.523
20
-190.45
11
391.341
21
-190.378
0
LINE
8
Black
10
391.341
20
-190.378
11
392.881
21
-189.818
0
LINE
8
Black
10
392.881
20
-189.818
11
394.134
21
-188.766
0
LINE
8
Black
10
394.134
20
-188.766
11
394.953
21
-187.349
0
LINE
8
Black
10
394.953
20
-187.349
11
395.237
21
-185.733
0
LINE
8
Black
10
395.237
20
-185.733
11
395.237
21
-71.4397
0
LINE
8
Black
10
395.237
20
-71.4397
11
395.166
21
-70.6214
0
LINE
8
Black
10
395.166
20
-70.6214
11
394.605
21
-69.0816
0
LINE
8
Black
10
394.605
20
-69.0816
11
393.554
21
-67.8281
0
LINE
8
Black
10
393.554
20
-67.8281
11
392.137
21
-67.0099
0
LINE
8
Black
10
392.137
20
-67.0099
11
390.521
21
-66.725
0
LINE
8
Black
10
390.521
20
-66.725
11
28.5772
21
-66.725
0
LINE
8
Black
10
29.2726
20
-183.821
11
29.8861
21
-184.175
0
LINE
8
Black
10
29.8861
20
-184.175
11
30.3415
21
-184.718
0
LINE
8
Black
10
30.3415
20
-184.718
11
30.5838
21
-185.383
0
LINE
8
Black
10
30.5838
20
-185.383
11
30.5838
21
-186.092
0
LINE
8
Black
10
30.5838
20
-186.092
11
30.3415
21
-186.757
0
LINE
8
Black
10
30.3415
20
-186.757
11
29.8861
21
-187.3
0
LINE
8
Black
10
29.8861
20
-187.3
11
29.2726
21
-187.654
0
LINE
8
Black
10
29.2726
20
-187.654
11
28.575
21
-187.777
0
LINE
8
Black
10
28.575
20
-187.777
11
27.8774
21
-187.654
0
LINE
8
Black
10
27.8774
20
-187.654
11
27.2639
21
-187.3
0
LINE
8
Black
10
27.2639
20
-187.3
11
26.8085
21
-186.757
0
LINE
8
Black
10
26.8085
20
-186.757
11
26.5662
21
-186.092
0
LINE
8
Black
10
26.5662
20
-186.092
11
26.5662
21
-185.383
0
LINE
8
Black
10
26.5662
20
-185.383
11
26.8085
21
-184.718
0
LINE
8
Black
10
26.8085
20
-184.718
11
27.2639
21
-184.175
0
LINE
8
Black
10
27.2639
20
-184.175
11
27.8774
21
-183.821
0
LINE
8
Black
10
27.8774
20
-183.821
11
28.575
21
-183.698
0
LINE
8
Black
10
28.575
20
-183.698
11
29.2726
21
-183.821
0
LINE
8
Black
10
138.81
20
-183.821
11
139.424
21
-184.175
0
LINE
8
Black
10
139.424
20
-184.175
11
139.879
21
-184.718
0
LINE
8
Black
10
139.879
20
-184.718
11
140.121
21
-185.383
0
LINE
8
Black
10
140.121
20
-185.383
11
140.121
21
-186.092
0
LINE
8
Black
10
140.121
20
-186.092
11
139.879
21
-186.757
0
LINE
8
Black
10
139.879
20
-186.757
11
139.424
21
-187.3
0
LINE
8
Black
10
139.424
20
-187.3
11
138.81
21
-187.654
0
LINE
8
Black
10
138.81
20
-187.654
11
138.112
21
-187.777
0
LINE
8
Black
10
138.112
20
-187.777
11
137.415
21
-187.654
0
LINE
8
Black
10
137.415
20
-187.654
11
136.801
21
-187.3
0
LINE
8
Black
10
136.801
20
-187.3
11
136.346
21
-186.757
0
LINE
8
Black
10
136.346
20
-186.757
11
136.104
21
-186.092
0
LINE
8
Black
10
136.104
20
-186.092
11
136.104
21
-185.383
0
LINE
8
Black
10
136.104
20
-185.383
11
136.346
21
-184.718
0
LINE
8
Black
10
136.346
20
-184.718
11
136.801
21
-184.175
0
LINE
8
Black
10
136.801
20
-184.175
11
137.415
21
-183.821
0
LINE
8
Black
10
137.415
20
-183.821
11
138.112
21
-183.698
0
LINE
8
Black
10
138.112
20
-183.698
11
138.81
21
-183.821
0
LINE
8
Black
10
253.11
20
-183.821
11
253.724
21
-184.175
0
LINE
8
Black
10
253.724
20
-184.175
11
254.179
21
-184.718
0
LINE
8
Black
10
254.179
20
-184.718
11
254.421
21
-185.383
0
LINE
8
Black
10
254.421
20
-185.383
11
254.421
21
-186.092
0
LINE
8
Black
10
254.421
20
-186.092
11
254.179
21
-186.757
0
LINE
8
Black
10
254.179
20
-186.757
11
253.724
21
-187.3
0
LINE
8
Black
10
253.724
20
-187.3
11
253.11
21
-187.654
0
LINE
8
Black
10
253.11
20
-187.654
11
252.412
21
-187.777
0
LINE
8
Black
10
252.412
20
-187.777
11
251.715
21
-187.654
0
LINE
8
Black
10
251.715
20
-187.654
11
251.101
21
-187.3
0
LINE
8
Black
10
251.101
20
-187.3
11
250.646
21
-186.757
0
LINE
8
Black
10
250.646
20
-186.757
11
250.404
21
-186.092
0
LINE
8
Black
10
250.404
20
-186.092
11
250.404
21
-185.383
0
LINE
8
Black
10
250.404
20
-185.383
11
250.646
21
-184.718
0
LINE
8
Black
10
250.646
20
-184.718
11
251.101
21
-184.175
0
LINE
8
Black
10
251.101
20
-184.175
11
251.715
21
-183.821
0
LINE
8
Black
10
251.715
20
-183.821
11
252.412
21
-183.698
0
LINE
8
Black
10
252.412
20
-183.698
11
253.11
21
-183.821
0
LINE
8
Black
10
391.223
20
-183.821
11
391.836
21
-184.175
0
LINE
8
Black
10
391.836
20
-184.175
11
392.291
21
-184.718
0
LINE
8
Black
10
392.291
20
-184.718
11
392.534
21
-185.383
0
LINE
8
Black
10
392.534
20
-185.383
11
392.534
21
-186.092
0
LINE
8
Black
10
392.534
20
-186.092
11
392.291
21
-186.757
0
LINE
8
Black
10
392.291
20
-186.757
11
391.836
21
-187.3
0
LINE
8
Black
10
391.836
20
-187.3
11
391.223
21
-187.654
0
LINE
8
Black
10
391.223
20
-187.654
11
390.525
21
-187.777
0
LINE
8
Black
10
390.525
20
-187.777
11
389.827
21
-187.654
0
LINE
8
Black
10
389.827
20
-187.654
11
389.214
21
-187.3
0
LINE
8
Black
10
389.214
20
-187.3
11
388.759
21
-186.757
0
LINE
8
Black
10
388.759
20
-186.757
11
388.516
21
-186.092
0
LINE
8
Black
10
388.516
20
-186.092
11
388.516
21
-185.383
0
LINE
8
Black
10
388.516
20
-185.383
11
388.759
21
-184.718
0
LINE
8
Black
10
388.759
20
-184.718
11
389.214
21
-184.175
0
LINE
8
Black
10
389.214
20
-184.175
11
389.827
21
-183.821
0
LINE
8
Black
10
389.827
20
-183.821
11
390.525
21
-183.698
0
LINE
8
Black
10
390.525
20
-183.698
11
391.223
21
-183.821
0
LINE
8
Black
10
248.348
20
-126.671
11
248.961
21
-127.025
0
LINE
8
Black
10
248.961
20
-127.025
11
249.416
21
-127.568
0
LINE
8
Black
10
249.416
20
-127.568
11
249.659
21
-128.233
0
LINE
8
Black
10
249.659
20
-128.233
11
249.659
21
-128.942
0
LINE
8
Black
10
249.659
20
-128.942
11
249.416
21
-129.607
0
LINE
8
Black
10
249.416
20
-129.607
11
248.961
21
-130.15
0
LINE
8
Black
10
248.961
20
-130.15
11
248.348
21
-130.504
0
LINE
8
Black
10
248.348
20
-130.504
11
247.65
21
-130.627
0
LINE
8
Black
10
247.65
20
-130.627
11
246.952
21
-130.504
0
LINE
8
Black
10
246.952
20
-130.504
11
246.339
21
-130.15
0
LINE
8
Black
10
246.339
20
-130.15
11
245.884
21
-129.607
0
LINE
8
Black
10
245.884
20
-129.607
11
245.641
21
-128.942
0
LINE
8
Black
10
245.641
20
-128.942
11
245.641
21
-128.233
0
LINE
8
Black
10
245.641
20
-128.233
11
245.884
21
-127.568
0
LINE
8
Black
10
245.884
20
-127.568
11
246.339
21
-127.025
0
LINE
8
Black
10
246.339
20
-127.025
11
246.952
21
-126.671
0
LINE
8
Black
10
246.952
20
-126.671
11
247.65
21
-126.548
0
LINE
8
Black
10
247.65
20
-126.548
11
248.348
21
-126.671
0
LINE
8
Black
10
153.098
20
-126.671
11
153.711
21
-127.025
0
LINE
8
Black
10
153.711
20
-127.025
11
154.166
21
-127.568
0
LINE
8
Black
10
154.166
20
-127.568
11
154.409
21
-128.233
0
LINE
8
Black
10
154.409
20
-128.233
11
154.409
21
-128.942
0
LINE
8
Black
10
154.409
20
-128.942
11
154.166
21
-129.607
0
LINE
8
Black
10
154.166
20
-129.607
11
153.711
21
-130.15
0
LINE
8
Black
10
153.711
20
-130.15
11
153.098
21
-130.504
0
LINE
8
Black
10
153.098
20
-130.504
11
152.4
21
-130.627
0
LINE
8
Black
10
152.4
20
-130.627
11
151.702
21
-130.504
0
LINE
8
Black
10
151.702
20
-130.504
11
151.089
21
-130.15
0
LINE
8
Black
10
151.089
20
-130.15
11
150.634
21
-129.607
0
LINE
8
Black
10
150.634
20
-129.607
11
150.391
21
-128.942
0
LINE
8
Black
10
150.391
20
-128.942
11
150.391
21
-128.233
0
LINE
8
Black
10
150.391
20
-128.233
11
150.634
21
-127.568
0
LINE
8
Black
10
150.634
20
-127.568
11
151.089
21
-127.025
0
LINE
8
Black
10
151.089
20
-127.025
11
151.702
21
-126.671
0
LINE
8
Black
10
151.702
20
-126.671
11
152.4
21
-126.548
0
LINE
8
Black
10
152.4
20
-126.548
11
153.098
21
-126.671
0
LINE
8
Black
10
391.223
20
-69.5208
11
391.836
21
-69.875
0
LINE
8
Black
10
391.836
20
-69.875
11
392.291
21
-70.4176
0
LINE
8
Black
10
392.291
20
-70.4176
11
392.534
21
-71.0833
0
LINE
8
Black
10
392.534
20
-71.0833
11
392.534
21
-71.7917
0
LINE
8
Black
10
392.534
20
-71.7917
11
392.291
21
-72.4574
0
LINE
8
Black
10
392.291
20
-72.4574
11
391.836
21
-73
0
LINE
8
Black
10
391.836
20
-73
11
391.223
21
-73.3542
0
LINE
8
Black
10
391.223
20
-73.3542
11
390.525
21
-73.4773
0
LINE
8
Black
10
390.525
20
-73.4773
11
389.827
21
-73.3542
0
LINE
8
Black
10
389.827
20
-73.3542
11
389.214
21
-73
0
LINE
8
Black
10
389.214
20
-73
11
388.759
21
-72.4574
0
LINE
8
Black
10
388.759
20
-72.4574
11
388.516
21
-71.7917
0
LINE
8
Black
10
388.516
20
-71.7917
11
388.516
21
-71.0833
0
LINE
8
Black
10
388.516
20
-71.0833
11
388.759
21
-70.4176
0
LINE
8
Black
10
388.759
20
-70.4176
11
389.214
21
-69.875
0
LINE
8
Black
10
389.214
20
-69.875
11
389.827
21
-69.5208
0
LINE
8
Black
10
389.827
20
-69.5208
11
390.525
21
-69.3977
0
LINE
8
Black
10
390.525
20
-69.3977
11
391.223
21
-69.5208
0
LINE
8
Black
10
29.2726
20
-69.5208
11
29.8861
21
-69.875
0
LINE
8
Black
10
29.8861
20
-69.875
11
30.3415
21
-70.4176
0
LINE
8
Black
10
30.3415
20
-70.4176
11
30.5838
21
-71.0833
0
LINE
8
Black
10
30.5838
20
-71.0833
11
30.5838
21
-71.7917
0
LINE
8
Black
10
30.5838
20
-71.7917
11
30.3415
21
-72.4574
0
LINE
8
Black
10
30.3415
20
-72.4574
11
29.8861
21
-73
0
LINE
8
Black
10
29.8861
20
-73
11
29.2726
21
-73.3542
0
LINE
8
Black
10
29.2726
20
-73.3542
11
28.575
21
-73.4773
0
LINE
8
Black
10
28.575
20
-73.4773
11
27.8774
21
-73.3542
0
LINE
8
Black
10
27.8774
20
-73.3542
11
27.2639
21
-73
0
LINE
8
Black
10
27.2639
20
-73
11
26.8085
21
-72.4574
0
LINE
8
Black
10
26.8085
20
-72.4574
11
26.5662
21
-71.7917
0
LINE
8
Black
10
26.5662
20
-71.7917
11
26.5662
21
-71.0833
0
LINE
8
Black
10
26.5662
20
-71.0833
11
26.8085
21
-70.4176
0
LINE
8
Black
10
26.8085
20
-70.4176
11
27.2639
21
-69.875
0
LINE
8
Black
10
27.2639
20
-69.875
11
27.8774
21
-69.5208
0
LINE
8
Black
10
27.8774
20
-69.5208
11
28.575
21
-69.3977
0
LINE
8
Black
10
28.575
20
-69.3977
11
29.2726
21
-69.5208
0
LINE
8
Black
10
257.873
20
-69.5208
11
258.486
21
-69.875
0
LINE
8
Black
10
258.486
20
-69.875
11
258.941
21
-70.4176
0
LINE
8
Black
10
258.941
20
-70.4176
11
259.184
21
-71.0833
0
LINE
8
Black
10
259.184
20
-71.0833
11
259.184
21
-71.7917
0
LINE
8
Black
10
259.184
20
-71.7917
11
258.941
21
-72.4574
0
LINE
8
Black
10
258.941
20
-72.4574
11
258.486
21
-73
0
LINE
8
Black
10
258.486
20
-73
11
257.873
21
-73.3542
0
LINE
8
Black
10
257.873
20
-73.3542
11
257.175
21
-73.4773
0
LINE
8
Black
10
257.175
20
-73.4773
11
256.477
21
-73.3542
0
LINE
8
Black
10
256.477
20
-73.3542
11
255.864
21
-73
0
LINE
8
Black
10
255.864
20
-73
11
255.409
21
-72.4574
0
LINE
8
Black
10
255.409
20
-72.4574
11
255.166
21
-71.7917
0
LINE
8
Black
10
255.166
20
-71.7917
11
255.166
21
-71.0833
0
LINE
8
Black
10
255.166
20
-71.0833
11
255.409
21
-70.4176
0
LINE
8
Black
10
255.409
20
-70.4176
11
255.864
21
-69.875
0
LINE
8
Black
10
255.864
20
-69.875
11
256.477
21
-69.5208
0
LINE
8
Black
10
256.477
20
-69.5208
11
257.175
21
-69.3977
0
LINE
8
Black
10
257.175
20
-69.3977
11
257.873
21
-69.5208
0
LINE
8
Black
10
143.573
20
-69.5208
11
144.186
21
-69.875
0
LINE
8
Black
10
144.186
20
-69.875
11
144.641
21
-70.4176
0
LINE
8
Black
10
144.641
20
-70.4176
11
144.884
21
-71.0833
0
LINE
8
Black
10
144.884
20
-71.0833
11
144.884
21
-71.7917
0
LINE
8
Black
10
144.884
20
-71.7917
11
144.641
21
-72.4574
0
LINE
8
Black
10
144.641
20
-72.4574
11
144.186
21
-73
0
LINE
8
Black
10
144.186
20
-73
11
143.573
21
-73.3542
0
LINE
8
Black
10
143.573
20
-73.3542
11
142.875
21
-73.4773
0
LINE
8
Black
10
142.875
20
-73.4773
11
142.177
21
-73.3542
0
LINE
8
Black
10
142.177
20
-73.3542
11
141.564
21
-73
0
LINE
8
Black
10
141.564
20
-73
11
141.109
21
-72.4574
0
LINE
8
Black
10
141.109
20
-72.4574
11
140.866
21
-71.7917
0
LINE
8
Black
10
140.866
20
-71.7917
11
140.866
21
-71.0833
0
LINE
8
Black
10
140.866
20
-71.0833
11
141.109
21
-70.4176
0
LINE
8
Black
10
141.109
20
-70.4176
11
141.564
21
-69.875
0
LINE
8
Black
10
141.564
20
-69.875
11
142.177
21
-69.5208
0
LINE
8
Black
10
142.177
20
-69.5208
11
142.875
21
-69.3977
0
LINE
8
Black
10
142.875
20
-69.3977
11
143.573
21
-69.5208
  0
ENDSEC
  0
EOF
