G04 #@! TF.FileFunction,Soldermask,Bot*
%FSLAX46Y46*%
G04 Gerber Fmt 4.6, Leading zero omitted, Abs format (unit mm)*
G04 Created by KiCad (PCBNEW 4.0.4-stable) date Wednesday, 23 November 2016 'AMt' 09:31:18 AM*
%MOMM*%
%LPD*%
G01*
G04 APERTURE LIST*
%ADD10C,0.100000*%
%ADD11C,5.400000*%
%ADD12R,2.127200X2.432000*%
%ADD13O,2.127200X2.432000*%
%ADD14R,2.432000X2.127200*%
%ADD15O,2.432000X2.127200*%
%ADD16C,2.686000*%
%ADD17C,2.305000*%
%ADD18R,2.305000X2.305000*%
%ADD19R,2.178000X2.178000*%
%ADD20C,2.178000*%
G04 APERTURE END LIST*
D10*
D11*
X182000000Y-124000000D03*
X106000000Y-123000000D03*
X17000000Y-142000000D03*
X281000000Y-142000000D03*
X281000000Y-66000000D03*
X149000000Y-69000000D03*
D12*
X75000000Y-65000000D03*
D13*
X77540000Y-65000000D03*
X80080000Y-65000000D03*
X82620000Y-65000000D03*
X85160000Y-65000000D03*
X87700000Y-65000000D03*
X90240000Y-65000000D03*
D12*
X208000000Y-65000000D03*
D13*
X210540000Y-65000000D03*
X213080000Y-65000000D03*
X215620000Y-65000000D03*
X218160000Y-65000000D03*
X220700000Y-65000000D03*
X223240000Y-65000000D03*
D14*
X18000000Y-117000000D03*
D15*
X18000000Y-114460000D03*
X18000000Y-111920000D03*
X18000000Y-109380000D03*
D16*
X27733750Y-71120000D03*
X21383750Y-73660000D03*
D17*
X23923750Y-81280000D03*
D18*
X26463750Y-81280000D03*
D19*
X21383750Y-81280000D03*
D20*
X29003750Y-81280000D03*
D16*
X30115000Y-90170000D03*
X23765000Y-92710000D03*
D17*
X26305000Y-100330000D03*
D18*
X28845000Y-100330000D03*
D19*
X23765000Y-100330000D03*
D20*
X31385000Y-100330000D03*
D16*
X34877500Y-109220000D03*
X28527500Y-111760000D03*
D17*
X31067500Y-119380000D03*
D18*
X33607500Y-119380000D03*
D19*
X28527500Y-119380000D03*
D20*
X36147500Y-119380000D03*
D16*
X30115000Y-128270000D03*
X23765000Y-130810000D03*
D17*
X26305000Y-138430000D03*
D18*
X28845000Y-138430000D03*
D19*
X23765000Y-138430000D03*
D20*
X31385000Y-138430000D03*
D16*
X46783750Y-71120000D03*
X40433750Y-73660000D03*
D17*
X42973750Y-81280000D03*
D18*
X45513750Y-81280000D03*
D19*
X40433750Y-81280000D03*
D20*
X48053750Y-81280000D03*
D16*
X51546250Y-90170000D03*
X45196250Y-92710000D03*
D17*
X47736250Y-100330000D03*
D18*
X50276250Y-100330000D03*
D19*
X45196250Y-100330000D03*
D20*
X52816250Y-100330000D03*
D16*
X61071250Y-109220000D03*
X54721250Y-111760000D03*
D17*
X57261250Y-119380000D03*
D18*
X59801250Y-119380000D03*
D19*
X54721250Y-119380000D03*
D20*
X62341250Y-119380000D03*
D16*
X53927500Y-128270000D03*
X47577500Y-130810000D03*
D17*
X50117500Y-138430000D03*
D18*
X52657500Y-138430000D03*
D19*
X47577500Y-138430000D03*
D20*
X55197500Y-138430000D03*
D16*
X65833750Y-71120000D03*
X59483750Y-73660000D03*
D17*
X62023750Y-81280000D03*
D18*
X64563750Y-81280000D03*
D19*
X59483750Y-81280000D03*
D20*
X67103750Y-81280000D03*
D16*
X70596250Y-90170000D03*
X64246250Y-92710000D03*
D17*
X66786250Y-100330000D03*
D18*
X69326250Y-100330000D03*
D19*
X64246250Y-100330000D03*
D20*
X71866250Y-100330000D03*
D16*
X80121250Y-109220000D03*
X73771250Y-111760000D03*
D17*
X76311250Y-119380000D03*
D18*
X78851250Y-119380000D03*
D19*
X73771250Y-119380000D03*
D20*
X81391250Y-119380000D03*
D16*
X77740000Y-128270000D03*
X71390000Y-130810000D03*
D17*
X73930000Y-138430000D03*
D18*
X76470000Y-138430000D03*
D19*
X71390000Y-138430000D03*
D20*
X79010000Y-138430000D03*
D16*
X84883750Y-71120000D03*
X78533750Y-73660000D03*
D17*
X81073750Y-81280000D03*
D18*
X83613750Y-81280000D03*
D19*
X78533750Y-81280000D03*
D20*
X86153750Y-81280000D03*
D16*
X89646250Y-90170000D03*
X83296250Y-92710000D03*
D17*
X85836250Y-100330000D03*
D18*
X88376250Y-100330000D03*
D19*
X83296250Y-100330000D03*
D20*
X90916250Y-100330000D03*
D16*
X99171250Y-109220000D03*
X92821250Y-111760000D03*
D17*
X95361250Y-119380000D03*
D18*
X97901250Y-119380000D03*
D19*
X92821250Y-119380000D03*
D20*
X100441250Y-119380000D03*
D16*
X103933750Y-71120000D03*
X97583750Y-73660000D03*
D17*
X100123750Y-81280000D03*
D18*
X102663750Y-81280000D03*
D19*
X97583750Y-81280000D03*
D20*
X105203750Y-81280000D03*
D16*
X108696250Y-90170000D03*
X102346250Y-92710000D03*
D17*
X104886250Y-100330000D03*
D18*
X107426250Y-100330000D03*
D19*
X102346250Y-100330000D03*
D20*
X109966250Y-100330000D03*
D16*
X118221250Y-109220000D03*
X111871250Y-111760000D03*
D17*
X114411250Y-119380000D03*
D18*
X116951250Y-119380000D03*
D19*
X111871250Y-119380000D03*
D20*
X119491250Y-119380000D03*
D16*
X108696250Y-128270000D03*
X102346250Y-130810000D03*
D17*
X104886250Y-138430000D03*
D18*
X107426250Y-138430000D03*
D19*
X102346250Y-138430000D03*
D20*
X109966250Y-138430000D03*
D16*
X122983750Y-71120000D03*
X116633750Y-73660000D03*
D17*
X119173750Y-81280000D03*
D18*
X121713750Y-81280000D03*
D19*
X116633750Y-81280000D03*
D20*
X124253750Y-81280000D03*
D16*
X127746250Y-90170000D03*
X121396250Y-92710000D03*
D17*
X123936250Y-100330000D03*
D18*
X126476250Y-100330000D03*
D19*
X121396250Y-100330000D03*
D20*
X129016250Y-100330000D03*
D16*
X137271250Y-109220000D03*
X130921250Y-111760000D03*
D17*
X133461250Y-119380000D03*
D18*
X136001250Y-119380000D03*
D19*
X130921250Y-119380000D03*
D20*
X138541250Y-119380000D03*
D16*
X137271250Y-128270000D03*
X130921250Y-130810000D03*
D17*
X133461250Y-138430000D03*
D18*
X136001250Y-138430000D03*
D19*
X130921250Y-138430000D03*
D20*
X138541250Y-138430000D03*
D16*
X142033750Y-71120000D03*
X135683750Y-73660000D03*
D17*
X138223750Y-81280000D03*
D18*
X140763750Y-81280000D03*
D19*
X135683750Y-81280000D03*
D20*
X143303750Y-81280000D03*
D16*
X146796250Y-90170000D03*
X140446250Y-92710000D03*
D17*
X142986250Y-100330000D03*
D18*
X145526250Y-100330000D03*
D19*
X140446250Y-100330000D03*
D20*
X148066250Y-100330000D03*
D16*
X156321250Y-109220000D03*
X149971250Y-111760000D03*
D17*
X152511250Y-119380000D03*
D18*
X155051250Y-119380000D03*
D19*
X149971250Y-119380000D03*
D20*
X157591250Y-119380000D03*
D16*
X165846250Y-128270000D03*
X159496250Y-130810000D03*
D17*
X162036250Y-138430000D03*
D18*
X164576250Y-138430000D03*
D19*
X159496250Y-138430000D03*
D20*
X167116250Y-138430000D03*
D16*
X161083750Y-71120000D03*
X154733750Y-73660000D03*
D17*
X157273750Y-81280000D03*
D18*
X159813750Y-81280000D03*
D19*
X154733750Y-81280000D03*
D20*
X162353750Y-81280000D03*
D16*
X165846250Y-90170000D03*
X159496250Y-92710000D03*
D17*
X162036250Y-100330000D03*
D18*
X164576250Y-100330000D03*
D19*
X159496250Y-100330000D03*
D20*
X167116250Y-100330000D03*
D16*
X175371250Y-109220000D03*
X169021250Y-111760000D03*
D17*
X171561250Y-119380000D03*
D18*
X174101250Y-119380000D03*
D19*
X169021250Y-119380000D03*
D20*
X176641250Y-119380000D03*
D16*
X180133750Y-71120000D03*
X173783750Y-73660000D03*
D17*
X176323750Y-81280000D03*
D18*
X178863750Y-81280000D03*
D19*
X173783750Y-81280000D03*
D20*
X181403750Y-81280000D03*
D16*
X184896250Y-90170000D03*
X178546250Y-92710000D03*
D17*
X181086250Y-100330000D03*
D18*
X183626250Y-100330000D03*
D19*
X178546250Y-100330000D03*
D20*
X186166250Y-100330000D03*
D16*
X194421250Y-109220000D03*
X188071250Y-111760000D03*
D17*
X190611250Y-119380000D03*
D18*
X193151250Y-119380000D03*
D19*
X188071250Y-119380000D03*
D20*
X195691250Y-119380000D03*
D16*
X194421250Y-128270000D03*
X188071250Y-130810000D03*
D17*
X190611250Y-138430000D03*
D18*
X193151250Y-138430000D03*
D19*
X188071250Y-138430000D03*
D20*
X195691250Y-138430000D03*
D16*
X199183750Y-71120000D03*
X192833750Y-73660000D03*
D17*
X195373750Y-81280000D03*
D18*
X197913750Y-81280000D03*
D19*
X192833750Y-81280000D03*
D20*
X200453750Y-81280000D03*
D16*
X203946250Y-90170000D03*
X197596250Y-92710000D03*
D17*
X200136250Y-100330000D03*
D18*
X202676250Y-100330000D03*
D19*
X197596250Y-100330000D03*
D20*
X205216250Y-100330000D03*
D16*
X213471250Y-109220000D03*
X207121250Y-111760000D03*
D17*
X209661250Y-119380000D03*
D18*
X212201250Y-119380000D03*
D19*
X207121250Y-119380000D03*
D20*
X214741250Y-119380000D03*
D16*
X213471250Y-128270000D03*
X207121250Y-130810000D03*
D17*
X209661250Y-138430000D03*
D18*
X212201250Y-138430000D03*
D19*
X207121250Y-138430000D03*
D20*
X214741250Y-138430000D03*
D16*
X218233750Y-71120000D03*
X211883750Y-73660000D03*
D17*
X214423750Y-81280000D03*
D18*
X216963750Y-81280000D03*
D19*
X211883750Y-81280000D03*
D20*
X219503750Y-81280000D03*
D16*
X222996250Y-90170000D03*
X216646250Y-92710000D03*
D17*
X219186250Y-100330000D03*
D18*
X221726250Y-100330000D03*
D19*
X216646250Y-100330000D03*
D20*
X224266250Y-100330000D03*
D16*
X232521250Y-109220000D03*
X226171250Y-111760000D03*
D17*
X228711250Y-119380000D03*
D18*
X231251250Y-119380000D03*
D19*
X226171250Y-119380000D03*
D20*
X233791250Y-119380000D03*
D16*
X232521250Y-128270000D03*
X226171250Y-130810000D03*
D17*
X228711250Y-138430000D03*
D18*
X231251250Y-138430000D03*
D19*
X226171250Y-138430000D03*
D20*
X233791250Y-138430000D03*
D16*
X237283750Y-71120000D03*
X230933750Y-73660000D03*
D17*
X233473750Y-81280000D03*
D18*
X236013750Y-81280000D03*
D19*
X230933750Y-81280000D03*
D20*
X238553750Y-81280000D03*
D16*
X242046250Y-90170000D03*
X235696250Y-92710000D03*
D17*
X238236250Y-100330000D03*
D18*
X240776250Y-100330000D03*
D19*
X235696250Y-100330000D03*
D20*
X243316250Y-100330000D03*
D16*
X251571250Y-128270000D03*
X245221250Y-130810000D03*
D17*
X247761250Y-138430000D03*
D18*
X250301250Y-138430000D03*
D19*
X245221250Y-138430000D03*
D20*
X252841250Y-138430000D03*
D16*
X256333750Y-71120000D03*
X249983750Y-73660000D03*
D17*
X252523750Y-81280000D03*
D18*
X255063750Y-81280000D03*
D19*
X249983750Y-81280000D03*
D20*
X257603750Y-81280000D03*
D16*
X268240000Y-90170000D03*
X261890000Y-92710000D03*
D17*
X264430000Y-100330000D03*
D18*
X266970000Y-100330000D03*
D19*
X261890000Y-100330000D03*
D20*
X269510000Y-100330000D03*
D16*
X263477500Y-109220000D03*
X257127500Y-111760000D03*
D17*
X259667500Y-119380000D03*
D18*
X262207500Y-119380000D03*
D19*
X257127500Y-119380000D03*
D20*
X264747500Y-119380000D03*
D16*
X273002500Y-128270000D03*
X266652500Y-130810000D03*
D17*
X269192500Y-138430000D03*
D18*
X271732500Y-138430000D03*
D19*
X266652500Y-138430000D03*
D20*
X274272500Y-138430000D03*
D16*
X275383750Y-71120000D03*
X269033750Y-73660000D03*
D17*
X271573750Y-81280000D03*
D18*
X274113750Y-81280000D03*
D19*
X269033750Y-81280000D03*
D20*
X276653750Y-81280000D03*
D11*
X17000000Y-66000000D03*
M02*
