G04 #@! TF.FileFunction,Legend,Top*
%FSLAX46Y46*%
G04 Gerber Fmt 4.6, Leading zero omitted, Abs format (unit mm)*
G04 Created by KiCad (PCBNEW 4.0.4-stable) date Wednesday, 23 November 2016 'AMt' 09:31:18 AM*
%MOMM*%
%LPD*%
G01*
G04 APERTURE LIST*
%ADD10C,0.100000*%
%ADD11C,0.500000*%
%ADD12C,0.375000*%
%ADD13C,0.150000*%
%ADD14C,0.381000*%
%ADD15C,0.203200*%
G04 APERTURE END LIST*
D10*
D11*
X272095238Y-63904762D02*
X273428572Y-63904762D01*
X272095238Y-65904762D01*
X273428572Y-65904762D01*
X275809524Y-65904762D02*
X275714286Y-65904762D01*
X275523810Y-65809524D01*
X275238096Y-65523810D01*
X274761905Y-64952381D01*
X274571429Y-64666667D01*
X274476191Y-64380952D01*
X274476191Y-64190476D01*
X274571429Y-64000000D01*
X274761905Y-63904762D01*
X274857143Y-63904762D01*
X275047619Y-64000000D01*
X275142857Y-64190476D01*
X275142857Y-64285714D01*
X275047619Y-64476190D01*
X274952381Y-64571429D01*
X274380953Y-64952381D01*
X274285715Y-65047619D01*
X274190476Y-65238095D01*
X274190476Y-65523810D01*
X274285715Y-65714286D01*
X274380953Y-65809524D01*
X274571429Y-65904762D01*
X274857143Y-65904762D01*
X275047619Y-65809524D01*
X275142857Y-65714286D01*
X275428572Y-65333333D01*
X275523810Y-65047619D01*
X275523810Y-64857143D01*
X276666666Y-65904762D02*
X276666666Y-63904762D01*
X277428571Y-63904762D01*
X277619047Y-64000000D01*
X277714286Y-64095238D01*
X277809524Y-64285714D01*
X277809524Y-64571429D01*
X277714286Y-64761905D01*
X277619047Y-64857143D01*
X277428571Y-64952381D01*
X276666666Y-64952381D01*
D12*
X21476189Y-64857143D02*
X21761903Y-64952381D01*
X21857142Y-65047619D01*
X21952380Y-65238095D01*
X21952380Y-65523810D01*
X21857142Y-65714286D01*
X21761903Y-65809524D01*
X21571427Y-65904762D01*
X20809522Y-65904762D01*
X20809522Y-63904762D01*
X21476189Y-63904762D01*
X21666665Y-64000000D01*
X21761903Y-64095238D01*
X21857142Y-64285714D01*
X21857142Y-64476190D01*
X21761903Y-64666667D01*
X21666665Y-64761905D01*
X21476189Y-64857143D01*
X20809522Y-64857143D01*
X23095237Y-65904762D02*
X22904761Y-65809524D01*
X22809522Y-65619048D01*
X22809522Y-63904762D01*
X24714284Y-65904762D02*
X24714284Y-64857143D01*
X24619046Y-64666667D01*
X24428570Y-64571429D01*
X24047618Y-64571429D01*
X23857141Y-64666667D01*
X24714284Y-65809524D02*
X24523808Y-65904762D01*
X24047618Y-65904762D01*
X23857141Y-65809524D01*
X23761903Y-65619048D01*
X23761903Y-65428571D01*
X23857141Y-65238095D01*
X24047618Y-65142857D01*
X24523808Y-65142857D01*
X24714284Y-65047619D01*
X26523808Y-65809524D02*
X26333332Y-65904762D01*
X25952380Y-65904762D01*
X25761904Y-65809524D01*
X25666665Y-65714286D01*
X25571427Y-65523810D01*
X25571427Y-64952381D01*
X25666665Y-64761905D01*
X25761904Y-64666667D01*
X25952380Y-64571429D01*
X26333332Y-64571429D01*
X26523808Y-64666667D01*
X27380951Y-65904762D02*
X27380951Y-63904762D01*
X27571428Y-65142857D02*
X28142856Y-65904762D01*
X28142856Y-64571429D02*
X27380951Y-65333333D01*
X30142857Y-65904762D02*
X29476190Y-64952381D01*
X28999999Y-65904762D02*
X28999999Y-63904762D01*
X29761904Y-63904762D01*
X29952380Y-64000000D01*
X30047619Y-64095238D01*
X30142857Y-64285714D01*
X30142857Y-64571429D01*
X30047619Y-64761905D01*
X29952380Y-64857143D01*
X29761904Y-64952381D01*
X28999999Y-64952381D01*
X31285714Y-65904762D02*
X31095238Y-65809524D01*
X30999999Y-65714286D01*
X30904761Y-65523810D01*
X30904761Y-64952381D01*
X30999999Y-64761905D01*
X31095238Y-64666667D01*
X31285714Y-64571429D01*
X31571428Y-64571429D01*
X31761904Y-64666667D01*
X31857142Y-64761905D01*
X31952380Y-64952381D01*
X31952380Y-65523810D01*
X31857142Y-65714286D01*
X31761904Y-65809524D01*
X31571428Y-65904762D01*
X31285714Y-65904762D01*
X32714285Y-65809524D02*
X32904762Y-65904762D01*
X33285714Y-65904762D01*
X33476190Y-65809524D01*
X33571428Y-65619048D01*
X33571428Y-65523810D01*
X33476190Y-65333333D01*
X33285714Y-65238095D01*
X33000000Y-65238095D01*
X32809523Y-65142857D01*
X32714285Y-64952381D01*
X32714285Y-64857143D01*
X32809523Y-64666667D01*
X33000000Y-64571429D01*
X33285714Y-64571429D01*
X33476190Y-64666667D01*
X35190476Y-65809524D02*
X35000000Y-65904762D01*
X34619048Y-65904762D01*
X34428571Y-65809524D01*
X34333333Y-65619048D01*
X34333333Y-64857143D01*
X34428571Y-64666667D01*
X34619048Y-64571429D01*
X35000000Y-64571429D01*
X35190476Y-64666667D01*
X35285714Y-64857143D01*
X35285714Y-65047619D01*
X34333333Y-65238095D01*
X37380953Y-63904762D02*
X38047620Y-65904762D01*
X38714287Y-63904762D01*
X39285715Y-64095238D02*
X39380953Y-64000000D01*
X39571430Y-63904762D01*
X40047620Y-63904762D01*
X40238096Y-64000000D01*
X40333334Y-64095238D01*
X40428573Y-64285714D01*
X40428573Y-64476190D01*
X40333334Y-64761905D01*
X39190477Y-65904762D01*
X40428573Y-65904762D01*
X41285715Y-65714286D02*
X41380954Y-65809524D01*
X41285715Y-65904762D01*
X41190477Y-65809524D01*
X41285715Y-65714286D01*
X41285715Y-65904762D01*
X43285716Y-65904762D02*
X42142858Y-65904762D01*
X42714287Y-65904762D02*
X42714287Y-63904762D01*
X42523811Y-64190476D01*
X42333335Y-64380952D01*
X42142858Y-64476190D01*
D13*
X76270000Y-63730000D02*
X91510000Y-63730000D01*
X91510000Y-63730000D02*
X91510000Y-66270000D01*
X91510000Y-66270000D02*
X76270000Y-66270000D01*
X73450000Y-63450000D02*
X75000000Y-63450000D01*
X76270000Y-63730000D02*
X76270000Y-66270000D01*
X75000000Y-66550000D02*
X73450000Y-66550000D01*
X73450000Y-66550000D02*
X73450000Y-63450000D01*
X209270000Y-63730000D02*
X224510000Y-63730000D01*
X224510000Y-63730000D02*
X224510000Y-66270000D01*
X224510000Y-66270000D02*
X209270000Y-66270000D01*
X206450000Y-63450000D02*
X208000000Y-63450000D01*
X209270000Y-63730000D02*
X209270000Y-66270000D01*
X208000000Y-66550000D02*
X206450000Y-66550000D01*
X206450000Y-66550000D02*
X206450000Y-63450000D01*
X19270000Y-115730000D02*
X19270000Y-108110000D01*
X16730000Y-115730000D02*
X16730000Y-108110000D01*
X16450000Y-118550000D02*
X16450000Y-117000000D01*
X19270000Y-108110000D02*
X16730000Y-108110000D01*
X16730000Y-115730000D02*
X19270000Y-115730000D01*
X19550000Y-117000000D02*
X19550000Y-118550000D01*
X19550000Y-118550000D02*
X16450000Y-118550000D01*
D14*
X31543750Y-80772000D02*
X31543750Y-82550000D01*
X31543750Y-69850000D02*
X31543750Y-71628000D01*
X18843750Y-69850000D02*
X20621750Y-69850000D01*
X29765750Y-69850000D02*
X31543750Y-69850000D01*
X31543750Y-69850000D02*
X31543750Y-71628000D01*
X31543750Y-80772000D02*
X31543750Y-82550000D01*
X31543750Y-82550000D02*
X29765750Y-82550000D01*
X20621750Y-82550000D02*
X18843750Y-82550000D01*
X18843750Y-82550000D02*
X18843750Y-80772000D01*
X18843750Y-71628000D02*
X18843750Y-69850000D01*
X21225000Y-88900000D02*
X23003000Y-88900000D01*
X32147000Y-88900000D02*
X33925000Y-88900000D01*
X33925000Y-88900000D02*
X33925000Y-90678000D01*
X33925000Y-99822000D02*
X33925000Y-101600000D01*
X33925000Y-101600000D02*
X32147000Y-101600000D01*
X23003000Y-101600000D02*
X21225000Y-101600000D01*
X21225000Y-101600000D02*
X21225000Y-99822000D01*
X21225000Y-90678000D02*
X21225000Y-88900000D01*
X25987500Y-107950000D02*
X27765500Y-107950000D01*
X36909500Y-107950000D02*
X38687500Y-107950000D01*
X38687500Y-107950000D02*
X38687500Y-109728000D01*
X38687500Y-118872000D02*
X38687500Y-120650000D01*
X38687500Y-120650000D02*
X36909500Y-120650000D01*
X27765500Y-120650000D02*
X25987500Y-120650000D01*
X25987500Y-120650000D02*
X25987500Y-118872000D01*
X25987500Y-109728000D02*
X25987500Y-107950000D01*
X21225000Y-127000000D02*
X23003000Y-127000000D01*
X32147000Y-127000000D02*
X33925000Y-127000000D01*
X33925000Y-127000000D02*
X33925000Y-128778000D01*
X33925000Y-137922000D02*
X33925000Y-139700000D01*
X33925000Y-139700000D02*
X32147000Y-139700000D01*
X23003000Y-139700000D02*
X21225000Y-139700000D01*
X21225000Y-139700000D02*
X21225000Y-137922000D01*
X21225000Y-128778000D02*
X21225000Y-127000000D01*
X50593750Y-80772000D02*
X50593750Y-82550000D01*
X50593750Y-69850000D02*
X50593750Y-71628000D01*
X37893750Y-69850000D02*
X39671750Y-69850000D01*
X48815750Y-69850000D02*
X50593750Y-69850000D01*
X50593750Y-69850000D02*
X50593750Y-71628000D01*
X50593750Y-80772000D02*
X50593750Y-82550000D01*
X50593750Y-82550000D02*
X48815750Y-82550000D01*
X39671750Y-82550000D02*
X37893750Y-82550000D01*
X37893750Y-82550000D02*
X37893750Y-80772000D01*
X37893750Y-71628000D02*
X37893750Y-69850000D01*
X55356250Y-99822000D02*
X55356250Y-101600000D01*
X55356250Y-88900000D02*
X55356250Y-90678000D01*
X42656250Y-88900000D02*
X44434250Y-88900000D01*
X53578250Y-88900000D02*
X55356250Y-88900000D01*
X55356250Y-88900000D02*
X55356250Y-90678000D01*
X55356250Y-99822000D02*
X55356250Y-101600000D01*
X55356250Y-101600000D02*
X53578250Y-101600000D01*
X44434250Y-101600000D02*
X42656250Y-101600000D01*
X42656250Y-101600000D02*
X42656250Y-99822000D01*
X42656250Y-90678000D02*
X42656250Y-88900000D01*
X64881250Y-118872000D02*
X64881250Y-120650000D01*
X64881250Y-107950000D02*
X64881250Y-109728000D01*
X52181250Y-107950000D02*
X53959250Y-107950000D01*
X63103250Y-107950000D02*
X64881250Y-107950000D01*
X64881250Y-107950000D02*
X64881250Y-109728000D01*
X64881250Y-118872000D02*
X64881250Y-120650000D01*
X64881250Y-120650000D02*
X63103250Y-120650000D01*
X53959250Y-120650000D02*
X52181250Y-120650000D01*
X52181250Y-120650000D02*
X52181250Y-118872000D01*
X52181250Y-109728000D02*
X52181250Y-107950000D01*
X45037500Y-127000000D02*
X46815500Y-127000000D01*
X55959500Y-127000000D02*
X57737500Y-127000000D01*
X57737500Y-127000000D02*
X57737500Y-128778000D01*
X57737500Y-137922000D02*
X57737500Y-139700000D01*
X57737500Y-139700000D02*
X55959500Y-139700000D01*
X46815500Y-139700000D02*
X45037500Y-139700000D01*
X45037500Y-139700000D02*
X45037500Y-137922000D01*
X45037500Y-128778000D02*
X45037500Y-127000000D01*
X69643750Y-80772000D02*
X69643750Y-82550000D01*
X69643750Y-69850000D02*
X69643750Y-71628000D01*
X56943750Y-69850000D02*
X58721750Y-69850000D01*
X67865750Y-69850000D02*
X69643750Y-69850000D01*
X69643750Y-69850000D02*
X69643750Y-71628000D01*
X69643750Y-80772000D02*
X69643750Y-82550000D01*
X69643750Y-82550000D02*
X67865750Y-82550000D01*
X58721750Y-82550000D02*
X56943750Y-82550000D01*
X56943750Y-82550000D02*
X56943750Y-80772000D01*
X56943750Y-71628000D02*
X56943750Y-69850000D01*
X74406250Y-99822000D02*
X74406250Y-101600000D01*
X74406250Y-88900000D02*
X74406250Y-90678000D01*
X61706250Y-88900000D02*
X63484250Y-88900000D01*
X72628250Y-88900000D02*
X74406250Y-88900000D01*
X74406250Y-88900000D02*
X74406250Y-90678000D01*
X74406250Y-99822000D02*
X74406250Y-101600000D01*
X74406250Y-101600000D02*
X72628250Y-101600000D01*
X63484250Y-101600000D02*
X61706250Y-101600000D01*
X61706250Y-101600000D02*
X61706250Y-99822000D01*
X61706250Y-90678000D02*
X61706250Y-88900000D01*
X83931250Y-118872000D02*
X83931250Y-120650000D01*
X83931250Y-107950000D02*
X83931250Y-109728000D01*
X71231250Y-107950000D02*
X73009250Y-107950000D01*
X82153250Y-107950000D02*
X83931250Y-107950000D01*
X83931250Y-107950000D02*
X83931250Y-109728000D01*
X83931250Y-118872000D02*
X83931250Y-120650000D01*
X83931250Y-120650000D02*
X82153250Y-120650000D01*
X73009250Y-120650000D02*
X71231250Y-120650000D01*
X71231250Y-120650000D02*
X71231250Y-118872000D01*
X71231250Y-109728000D02*
X71231250Y-107950000D01*
X68850000Y-127000000D02*
X70628000Y-127000000D01*
X79772000Y-127000000D02*
X81550000Y-127000000D01*
X81550000Y-127000000D02*
X81550000Y-128778000D01*
X81550000Y-137922000D02*
X81550000Y-139700000D01*
X81550000Y-139700000D02*
X79772000Y-139700000D01*
X70628000Y-139700000D02*
X68850000Y-139700000D01*
X68850000Y-139700000D02*
X68850000Y-137922000D01*
X68850000Y-128778000D02*
X68850000Y-127000000D01*
X88693750Y-80772000D02*
X88693750Y-82550000D01*
X88693750Y-69850000D02*
X88693750Y-71628000D01*
X75993750Y-69850000D02*
X77771750Y-69850000D01*
X86915750Y-69850000D02*
X88693750Y-69850000D01*
X88693750Y-69850000D02*
X88693750Y-71628000D01*
X88693750Y-80772000D02*
X88693750Y-82550000D01*
X88693750Y-82550000D02*
X86915750Y-82550000D01*
X77771750Y-82550000D02*
X75993750Y-82550000D01*
X75993750Y-82550000D02*
X75993750Y-80772000D01*
X75993750Y-71628000D02*
X75993750Y-69850000D01*
X93456250Y-99822000D02*
X93456250Y-101600000D01*
X93456250Y-88900000D02*
X93456250Y-90678000D01*
X80756250Y-88900000D02*
X82534250Y-88900000D01*
X91678250Y-88900000D02*
X93456250Y-88900000D01*
X93456250Y-88900000D02*
X93456250Y-90678000D01*
X93456250Y-99822000D02*
X93456250Y-101600000D01*
X93456250Y-101600000D02*
X91678250Y-101600000D01*
X82534250Y-101600000D02*
X80756250Y-101600000D01*
X80756250Y-101600000D02*
X80756250Y-99822000D01*
X80756250Y-90678000D02*
X80756250Y-88900000D01*
X102981250Y-118872000D02*
X102981250Y-120650000D01*
X102981250Y-107950000D02*
X102981250Y-109728000D01*
X90281250Y-107950000D02*
X92059250Y-107950000D01*
X101203250Y-107950000D02*
X102981250Y-107950000D01*
X102981250Y-107950000D02*
X102981250Y-109728000D01*
X102981250Y-118872000D02*
X102981250Y-120650000D01*
X102981250Y-120650000D02*
X101203250Y-120650000D01*
X92059250Y-120650000D02*
X90281250Y-120650000D01*
X90281250Y-120650000D02*
X90281250Y-118872000D01*
X90281250Y-109728000D02*
X90281250Y-107950000D01*
X107743750Y-80772000D02*
X107743750Y-82550000D01*
X107743750Y-69850000D02*
X107743750Y-71628000D01*
X95043750Y-69850000D02*
X96821750Y-69850000D01*
X105965750Y-69850000D02*
X107743750Y-69850000D01*
X107743750Y-69850000D02*
X107743750Y-71628000D01*
X107743750Y-80772000D02*
X107743750Y-82550000D01*
X107743750Y-82550000D02*
X105965750Y-82550000D01*
X96821750Y-82550000D02*
X95043750Y-82550000D01*
X95043750Y-82550000D02*
X95043750Y-80772000D01*
X95043750Y-71628000D02*
X95043750Y-69850000D01*
X112506250Y-99822000D02*
X112506250Y-101600000D01*
X112506250Y-88900000D02*
X112506250Y-90678000D01*
X99806250Y-88900000D02*
X101584250Y-88900000D01*
X110728250Y-88900000D02*
X112506250Y-88900000D01*
X112506250Y-88900000D02*
X112506250Y-90678000D01*
X112506250Y-99822000D02*
X112506250Y-101600000D01*
X112506250Y-101600000D02*
X110728250Y-101600000D01*
X101584250Y-101600000D02*
X99806250Y-101600000D01*
X99806250Y-101600000D02*
X99806250Y-99822000D01*
X99806250Y-90678000D02*
X99806250Y-88900000D01*
X122031250Y-118872000D02*
X122031250Y-120650000D01*
X122031250Y-107950000D02*
X122031250Y-109728000D01*
X109331250Y-107950000D02*
X111109250Y-107950000D01*
X120253250Y-107950000D02*
X122031250Y-107950000D01*
X122031250Y-107950000D02*
X122031250Y-109728000D01*
X122031250Y-118872000D02*
X122031250Y-120650000D01*
X122031250Y-120650000D02*
X120253250Y-120650000D01*
X111109250Y-120650000D02*
X109331250Y-120650000D01*
X109331250Y-120650000D02*
X109331250Y-118872000D01*
X109331250Y-109728000D02*
X109331250Y-107950000D01*
X99806250Y-127000000D02*
X101584250Y-127000000D01*
X110728250Y-127000000D02*
X112506250Y-127000000D01*
X112506250Y-127000000D02*
X112506250Y-128778000D01*
X112506250Y-137922000D02*
X112506250Y-139700000D01*
X112506250Y-139700000D02*
X110728250Y-139700000D01*
X101584250Y-139700000D02*
X99806250Y-139700000D01*
X99806250Y-139700000D02*
X99806250Y-137922000D01*
X99806250Y-128778000D02*
X99806250Y-127000000D01*
X126793750Y-80772000D02*
X126793750Y-82550000D01*
X126793750Y-69850000D02*
X126793750Y-71628000D01*
X114093750Y-69850000D02*
X115871750Y-69850000D01*
X125015750Y-69850000D02*
X126793750Y-69850000D01*
X126793750Y-69850000D02*
X126793750Y-71628000D01*
X126793750Y-80772000D02*
X126793750Y-82550000D01*
X126793750Y-82550000D02*
X125015750Y-82550000D01*
X115871750Y-82550000D02*
X114093750Y-82550000D01*
X114093750Y-82550000D02*
X114093750Y-80772000D01*
X114093750Y-71628000D02*
X114093750Y-69850000D01*
X131556250Y-99822000D02*
X131556250Y-101600000D01*
X131556250Y-88900000D02*
X131556250Y-90678000D01*
X118856250Y-88900000D02*
X120634250Y-88900000D01*
X129778250Y-88900000D02*
X131556250Y-88900000D01*
X131556250Y-88900000D02*
X131556250Y-90678000D01*
X131556250Y-99822000D02*
X131556250Y-101600000D01*
X131556250Y-101600000D02*
X129778250Y-101600000D01*
X120634250Y-101600000D02*
X118856250Y-101600000D01*
X118856250Y-101600000D02*
X118856250Y-99822000D01*
X118856250Y-90678000D02*
X118856250Y-88900000D01*
X141081250Y-118872000D02*
X141081250Y-120650000D01*
X141081250Y-107950000D02*
X141081250Y-109728000D01*
X128381250Y-107950000D02*
X130159250Y-107950000D01*
X139303250Y-107950000D02*
X141081250Y-107950000D01*
X141081250Y-107950000D02*
X141081250Y-109728000D01*
X141081250Y-118872000D02*
X141081250Y-120650000D01*
X141081250Y-120650000D02*
X139303250Y-120650000D01*
X130159250Y-120650000D02*
X128381250Y-120650000D01*
X128381250Y-120650000D02*
X128381250Y-118872000D01*
X128381250Y-109728000D02*
X128381250Y-107950000D01*
X141081250Y-137922000D02*
X141081250Y-139700000D01*
X141081250Y-127000000D02*
X141081250Y-128778000D01*
X128381250Y-127000000D02*
X130159250Y-127000000D01*
X139303250Y-127000000D02*
X141081250Y-127000000D01*
X141081250Y-127000000D02*
X141081250Y-128778000D01*
X141081250Y-137922000D02*
X141081250Y-139700000D01*
X141081250Y-139700000D02*
X139303250Y-139700000D01*
X130159250Y-139700000D02*
X128381250Y-139700000D01*
X128381250Y-139700000D02*
X128381250Y-137922000D01*
X128381250Y-128778000D02*
X128381250Y-127000000D01*
X145843750Y-80772000D02*
X145843750Y-82550000D01*
X145843750Y-69850000D02*
X145843750Y-71628000D01*
X133143750Y-69850000D02*
X134921750Y-69850000D01*
X144065750Y-69850000D02*
X145843750Y-69850000D01*
X145843750Y-69850000D02*
X145843750Y-71628000D01*
X145843750Y-80772000D02*
X145843750Y-82550000D01*
X145843750Y-82550000D02*
X144065750Y-82550000D01*
X134921750Y-82550000D02*
X133143750Y-82550000D01*
X133143750Y-82550000D02*
X133143750Y-80772000D01*
X133143750Y-71628000D02*
X133143750Y-69850000D01*
X150606250Y-99822000D02*
X150606250Y-101600000D01*
X150606250Y-88900000D02*
X150606250Y-90678000D01*
X137906250Y-88900000D02*
X139684250Y-88900000D01*
X148828250Y-88900000D02*
X150606250Y-88900000D01*
X150606250Y-88900000D02*
X150606250Y-90678000D01*
X150606250Y-99822000D02*
X150606250Y-101600000D01*
X150606250Y-101600000D02*
X148828250Y-101600000D01*
X139684250Y-101600000D02*
X137906250Y-101600000D01*
X137906250Y-101600000D02*
X137906250Y-99822000D01*
X137906250Y-90678000D02*
X137906250Y-88900000D01*
X160131250Y-118872000D02*
X160131250Y-120650000D01*
X160131250Y-107950000D02*
X160131250Y-109728000D01*
X147431250Y-107950000D02*
X149209250Y-107950000D01*
X158353250Y-107950000D02*
X160131250Y-107950000D01*
X160131250Y-107950000D02*
X160131250Y-109728000D01*
X160131250Y-118872000D02*
X160131250Y-120650000D01*
X160131250Y-120650000D02*
X158353250Y-120650000D01*
X149209250Y-120650000D02*
X147431250Y-120650000D01*
X147431250Y-120650000D02*
X147431250Y-118872000D01*
X147431250Y-109728000D02*
X147431250Y-107950000D01*
X156956250Y-127000000D02*
X158734250Y-127000000D01*
X167878250Y-127000000D02*
X169656250Y-127000000D01*
X169656250Y-127000000D02*
X169656250Y-128778000D01*
X169656250Y-137922000D02*
X169656250Y-139700000D01*
X169656250Y-139700000D02*
X167878250Y-139700000D01*
X158734250Y-139700000D02*
X156956250Y-139700000D01*
X156956250Y-139700000D02*
X156956250Y-137922000D01*
X156956250Y-128778000D02*
X156956250Y-127000000D01*
X164893750Y-80772000D02*
X164893750Y-82550000D01*
X164893750Y-69850000D02*
X164893750Y-71628000D01*
X152193750Y-69850000D02*
X153971750Y-69850000D01*
X163115750Y-69850000D02*
X164893750Y-69850000D01*
X164893750Y-69850000D02*
X164893750Y-71628000D01*
X164893750Y-80772000D02*
X164893750Y-82550000D01*
X164893750Y-82550000D02*
X163115750Y-82550000D01*
X153971750Y-82550000D02*
X152193750Y-82550000D01*
X152193750Y-82550000D02*
X152193750Y-80772000D01*
X152193750Y-71628000D02*
X152193750Y-69850000D01*
X169656250Y-99822000D02*
X169656250Y-101600000D01*
X169656250Y-88900000D02*
X169656250Y-90678000D01*
X156956250Y-88900000D02*
X158734250Y-88900000D01*
X167878250Y-88900000D02*
X169656250Y-88900000D01*
X169656250Y-88900000D02*
X169656250Y-90678000D01*
X169656250Y-99822000D02*
X169656250Y-101600000D01*
X169656250Y-101600000D02*
X167878250Y-101600000D01*
X158734250Y-101600000D02*
X156956250Y-101600000D01*
X156956250Y-101600000D02*
X156956250Y-99822000D01*
X156956250Y-90678000D02*
X156956250Y-88900000D01*
X179181250Y-118872000D02*
X179181250Y-120650000D01*
X179181250Y-107950000D02*
X179181250Y-109728000D01*
X166481250Y-107950000D02*
X168259250Y-107950000D01*
X177403250Y-107950000D02*
X179181250Y-107950000D01*
X179181250Y-107950000D02*
X179181250Y-109728000D01*
X179181250Y-118872000D02*
X179181250Y-120650000D01*
X179181250Y-120650000D02*
X177403250Y-120650000D01*
X168259250Y-120650000D02*
X166481250Y-120650000D01*
X166481250Y-120650000D02*
X166481250Y-118872000D01*
X166481250Y-109728000D02*
X166481250Y-107950000D01*
X183943750Y-80772000D02*
X183943750Y-82550000D01*
X183943750Y-69850000D02*
X183943750Y-71628000D01*
X171243750Y-69850000D02*
X173021750Y-69850000D01*
X182165750Y-69850000D02*
X183943750Y-69850000D01*
X183943750Y-69850000D02*
X183943750Y-71628000D01*
X183943750Y-80772000D02*
X183943750Y-82550000D01*
X183943750Y-82550000D02*
X182165750Y-82550000D01*
X173021750Y-82550000D02*
X171243750Y-82550000D01*
X171243750Y-82550000D02*
X171243750Y-80772000D01*
X171243750Y-71628000D02*
X171243750Y-69850000D01*
X188706250Y-99822000D02*
X188706250Y-101600000D01*
X188706250Y-88900000D02*
X188706250Y-90678000D01*
X176006250Y-88900000D02*
X177784250Y-88900000D01*
X186928250Y-88900000D02*
X188706250Y-88900000D01*
X188706250Y-88900000D02*
X188706250Y-90678000D01*
X188706250Y-99822000D02*
X188706250Y-101600000D01*
X188706250Y-101600000D02*
X186928250Y-101600000D01*
X177784250Y-101600000D02*
X176006250Y-101600000D01*
X176006250Y-101600000D02*
X176006250Y-99822000D01*
X176006250Y-90678000D02*
X176006250Y-88900000D01*
X198231250Y-118872000D02*
X198231250Y-120650000D01*
X198231250Y-107950000D02*
X198231250Y-109728000D01*
X185531250Y-107950000D02*
X187309250Y-107950000D01*
X196453250Y-107950000D02*
X198231250Y-107950000D01*
X198231250Y-107950000D02*
X198231250Y-109728000D01*
X198231250Y-118872000D02*
X198231250Y-120650000D01*
X198231250Y-120650000D02*
X196453250Y-120650000D01*
X187309250Y-120650000D02*
X185531250Y-120650000D01*
X185531250Y-120650000D02*
X185531250Y-118872000D01*
X185531250Y-109728000D02*
X185531250Y-107950000D01*
X198231250Y-137922000D02*
X198231250Y-139700000D01*
X198231250Y-127000000D02*
X198231250Y-128778000D01*
X185531250Y-127000000D02*
X187309250Y-127000000D01*
X196453250Y-127000000D02*
X198231250Y-127000000D01*
X198231250Y-127000000D02*
X198231250Y-128778000D01*
X198231250Y-137922000D02*
X198231250Y-139700000D01*
X198231250Y-139700000D02*
X196453250Y-139700000D01*
X187309250Y-139700000D02*
X185531250Y-139700000D01*
X185531250Y-139700000D02*
X185531250Y-137922000D01*
X185531250Y-128778000D02*
X185531250Y-127000000D01*
X202993750Y-80772000D02*
X202993750Y-82550000D01*
X202993750Y-69850000D02*
X202993750Y-71628000D01*
X190293750Y-69850000D02*
X192071750Y-69850000D01*
X201215750Y-69850000D02*
X202993750Y-69850000D01*
X202993750Y-69850000D02*
X202993750Y-71628000D01*
X202993750Y-80772000D02*
X202993750Y-82550000D01*
X202993750Y-82550000D02*
X201215750Y-82550000D01*
X192071750Y-82550000D02*
X190293750Y-82550000D01*
X190293750Y-82550000D02*
X190293750Y-80772000D01*
X190293750Y-71628000D02*
X190293750Y-69850000D01*
X207756250Y-99822000D02*
X207756250Y-101600000D01*
X207756250Y-88900000D02*
X207756250Y-90678000D01*
X195056250Y-88900000D02*
X196834250Y-88900000D01*
X205978250Y-88900000D02*
X207756250Y-88900000D01*
X207756250Y-88900000D02*
X207756250Y-90678000D01*
X207756250Y-99822000D02*
X207756250Y-101600000D01*
X207756250Y-101600000D02*
X205978250Y-101600000D01*
X196834250Y-101600000D02*
X195056250Y-101600000D01*
X195056250Y-101600000D02*
X195056250Y-99822000D01*
X195056250Y-90678000D02*
X195056250Y-88900000D01*
X217281250Y-118872000D02*
X217281250Y-120650000D01*
X217281250Y-107950000D02*
X217281250Y-109728000D01*
X204581250Y-107950000D02*
X206359250Y-107950000D01*
X215503250Y-107950000D02*
X217281250Y-107950000D01*
X217281250Y-107950000D02*
X217281250Y-109728000D01*
X217281250Y-118872000D02*
X217281250Y-120650000D01*
X217281250Y-120650000D02*
X215503250Y-120650000D01*
X206359250Y-120650000D02*
X204581250Y-120650000D01*
X204581250Y-120650000D02*
X204581250Y-118872000D01*
X204581250Y-109728000D02*
X204581250Y-107950000D01*
X217281250Y-137922000D02*
X217281250Y-139700000D01*
X217281250Y-127000000D02*
X217281250Y-128778000D01*
X204581250Y-127000000D02*
X206359250Y-127000000D01*
X215503250Y-127000000D02*
X217281250Y-127000000D01*
X217281250Y-127000000D02*
X217281250Y-128778000D01*
X217281250Y-137922000D02*
X217281250Y-139700000D01*
X217281250Y-139700000D02*
X215503250Y-139700000D01*
X206359250Y-139700000D02*
X204581250Y-139700000D01*
X204581250Y-139700000D02*
X204581250Y-137922000D01*
X204581250Y-128778000D02*
X204581250Y-127000000D01*
X222043750Y-80772000D02*
X222043750Y-82550000D01*
X222043750Y-69850000D02*
X222043750Y-71628000D01*
X209343750Y-69850000D02*
X211121750Y-69850000D01*
X220265750Y-69850000D02*
X222043750Y-69850000D01*
X222043750Y-69850000D02*
X222043750Y-71628000D01*
X222043750Y-80772000D02*
X222043750Y-82550000D01*
X222043750Y-82550000D02*
X220265750Y-82550000D01*
X211121750Y-82550000D02*
X209343750Y-82550000D01*
X209343750Y-82550000D02*
X209343750Y-80772000D01*
X209343750Y-71628000D02*
X209343750Y-69850000D01*
X226806250Y-99822000D02*
X226806250Y-101600000D01*
X226806250Y-88900000D02*
X226806250Y-90678000D01*
X214106250Y-88900000D02*
X215884250Y-88900000D01*
X225028250Y-88900000D02*
X226806250Y-88900000D01*
X226806250Y-88900000D02*
X226806250Y-90678000D01*
X226806250Y-99822000D02*
X226806250Y-101600000D01*
X226806250Y-101600000D02*
X225028250Y-101600000D01*
X215884250Y-101600000D02*
X214106250Y-101600000D01*
X214106250Y-101600000D02*
X214106250Y-99822000D01*
X214106250Y-90678000D02*
X214106250Y-88900000D01*
X236331250Y-118872000D02*
X236331250Y-120650000D01*
X236331250Y-107950000D02*
X236331250Y-109728000D01*
X223631250Y-107950000D02*
X225409250Y-107950000D01*
X234553250Y-107950000D02*
X236331250Y-107950000D01*
X236331250Y-107950000D02*
X236331250Y-109728000D01*
X236331250Y-118872000D02*
X236331250Y-120650000D01*
X236331250Y-120650000D02*
X234553250Y-120650000D01*
X225409250Y-120650000D02*
X223631250Y-120650000D01*
X223631250Y-120650000D02*
X223631250Y-118872000D01*
X223631250Y-109728000D02*
X223631250Y-107950000D01*
X236331250Y-137922000D02*
X236331250Y-139700000D01*
X236331250Y-127000000D02*
X236331250Y-128778000D01*
X223631250Y-127000000D02*
X225409250Y-127000000D01*
X234553250Y-127000000D02*
X236331250Y-127000000D01*
X236331250Y-127000000D02*
X236331250Y-128778000D01*
X236331250Y-137922000D02*
X236331250Y-139700000D01*
X236331250Y-139700000D02*
X234553250Y-139700000D01*
X225409250Y-139700000D02*
X223631250Y-139700000D01*
X223631250Y-139700000D02*
X223631250Y-137922000D01*
X223631250Y-128778000D02*
X223631250Y-127000000D01*
X241093750Y-80772000D02*
X241093750Y-82550000D01*
X241093750Y-69850000D02*
X241093750Y-71628000D01*
X228393750Y-69850000D02*
X230171750Y-69850000D01*
X239315750Y-69850000D02*
X241093750Y-69850000D01*
X241093750Y-69850000D02*
X241093750Y-71628000D01*
X241093750Y-80772000D02*
X241093750Y-82550000D01*
X241093750Y-82550000D02*
X239315750Y-82550000D01*
X230171750Y-82550000D02*
X228393750Y-82550000D01*
X228393750Y-82550000D02*
X228393750Y-80772000D01*
X228393750Y-71628000D02*
X228393750Y-69850000D01*
X245856250Y-99822000D02*
X245856250Y-101600000D01*
X245856250Y-88900000D02*
X245856250Y-90678000D01*
X233156250Y-88900000D02*
X234934250Y-88900000D01*
X244078250Y-88900000D02*
X245856250Y-88900000D01*
X245856250Y-88900000D02*
X245856250Y-90678000D01*
X245856250Y-99822000D02*
X245856250Y-101600000D01*
X245856250Y-101600000D02*
X244078250Y-101600000D01*
X234934250Y-101600000D02*
X233156250Y-101600000D01*
X233156250Y-101600000D02*
X233156250Y-99822000D01*
X233156250Y-90678000D02*
X233156250Y-88900000D01*
X255381250Y-137922000D02*
X255381250Y-139700000D01*
X255381250Y-127000000D02*
X255381250Y-128778000D01*
X242681250Y-127000000D02*
X244459250Y-127000000D01*
X253603250Y-127000000D02*
X255381250Y-127000000D01*
X255381250Y-127000000D02*
X255381250Y-128778000D01*
X255381250Y-137922000D02*
X255381250Y-139700000D01*
X255381250Y-139700000D02*
X253603250Y-139700000D01*
X244459250Y-139700000D02*
X242681250Y-139700000D01*
X242681250Y-139700000D02*
X242681250Y-137922000D01*
X242681250Y-128778000D02*
X242681250Y-127000000D01*
X260143750Y-80772000D02*
X260143750Y-82550000D01*
X260143750Y-69850000D02*
X260143750Y-71628000D01*
X247443750Y-69850000D02*
X249221750Y-69850000D01*
X258365750Y-69850000D02*
X260143750Y-69850000D01*
X260143750Y-69850000D02*
X260143750Y-71628000D01*
X260143750Y-80772000D02*
X260143750Y-82550000D01*
X260143750Y-82550000D02*
X258365750Y-82550000D01*
X249221750Y-82550000D02*
X247443750Y-82550000D01*
X247443750Y-82550000D02*
X247443750Y-80772000D01*
X247443750Y-71628000D02*
X247443750Y-69850000D01*
X259350000Y-88900000D02*
X261128000Y-88900000D01*
X270272000Y-88900000D02*
X272050000Y-88900000D01*
X272050000Y-88900000D02*
X272050000Y-90678000D01*
X272050000Y-99822000D02*
X272050000Y-101600000D01*
X272050000Y-101600000D02*
X270272000Y-101600000D01*
X261128000Y-101600000D02*
X259350000Y-101600000D01*
X259350000Y-101600000D02*
X259350000Y-99822000D01*
X259350000Y-90678000D02*
X259350000Y-88900000D01*
X254587500Y-107950000D02*
X256365500Y-107950000D01*
X265509500Y-107950000D02*
X267287500Y-107950000D01*
X267287500Y-107950000D02*
X267287500Y-109728000D01*
X267287500Y-118872000D02*
X267287500Y-120650000D01*
X267287500Y-120650000D02*
X265509500Y-120650000D01*
X256365500Y-120650000D02*
X254587500Y-120650000D01*
X254587500Y-120650000D02*
X254587500Y-118872000D01*
X254587500Y-109728000D02*
X254587500Y-107950000D01*
X264112500Y-127000000D02*
X265890500Y-127000000D01*
X275034500Y-127000000D02*
X276812500Y-127000000D01*
X276812500Y-127000000D02*
X276812500Y-128778000D01*
X276812500Y-137922000D02*
X276812500Y-139700000D01*
X276812500Y-139700000D02*
X275034500Y-139700000D01*
X265890500Y-139700000D02*
X264112500Y-139700000D01*
X264112500Y-139700000D02*
X264112500Y-137922000D01*
X264112500Y-128778000D02*
X264112500Y-127000000D01*
X279193750Y-80772000D02*
X279193750Y-82550000D01*
X279193750Y-69850000D02*
X279193750Y-71628000D01*
X266493750Y-69850000D02*
X268271750Y-69850000D01*
X277415750Y-69850000D02*
X279193750Y-69850000D01*
X279193750Y-69850000D02*
X279193750Y-71628000D01*
X279193750Y-80772000D02*
X279193750Y-82550000D01*
X279193750Y-82550000D02*
X277415750Y-82550000D01*
X268271750Y-82550000D02*
X266493750Y-82550000D01*
X266493750Y-82550000D02*
X266493750Y-80772000D01*
X266493750Y-71628000D02*
X266493750Y-69850000D01*
D13*
X68638096Y-65357143D02*
X68590477Y-65404762D01*
X68447620Y-65452381D01*
X68352382Y-65452381D01*
X68209524Y-65404762D01*
X68114286Y-65309524D01*
X68066667Y-65214286D01*
X68019048Y-65023810D01*
X68019048Y-64880952D01*
X68066667Y-64690476D01*
X68114286Y-64595238D01*
X68209524Y-64500000D01*
X68352382Y-64452381D01*
X68447620Y-64452381D01*
X68590477Y-64500000D01*
X68638096Y-64547619D01*
X69590477Y-65452381D02*
X69019048Y-65452381D01*
X69304762Y-65452381D02*
X69304762Y-64452381D01*
X69209524Y-64595238D01*
X69114286Y-64690476D01*
X69019048Y-64738095D01*
X70019048Y-65071429D02*
X70780953Y-65071429D01*
X71161905Y-64452381D02*
X71828572Y-64452381D01*
X71400000Y-65452381D01*
X201161905Y-65357143D02*
X201114286Y-65404762D01*
X200971429Y-65452381D01*
X200876191Y-65452381D01*
X200733333Y-65404762D01*
X200638095Y-65309524D01*
X200590476Y-65214286D01*
X200542857Y-65023810D01*
X200542857Y-64880952D01*
X200590476Y-64690476D01*
X200638095Y-64595238D01*
X200733333Y-64500000D01*
X200876191Y-64452381D01*
X200971429Y-64452381D01*
X201114286Y-64500000D01*
X201161905Y-64547619D01*
X201733333Y-64880952D02*
X201638095Y-64833333D01*
X201590476Y-64785714D01*
X201542857Y-64690476D01*
X201542857Y-64642857D01*
X201590476Y-64547619D01*
X201638095Y-64500000D01*
X201733333Y-64452381D01*
X201923810Y-64452381D01*
X202019048Y-64500000D01*
X202066667Y-64547619D01*
X202114286Y-64642857D01*
X202114286Y-64690476D01*
X202066667Y-64785714D01*
X202019048Y-64833333D01*
X201923810Y-64880952D01*
X201733333Y-64880952D01*
X201638095Y-64928571D01*
X201590476Y-64976190D01*
X201542857Y-65071429D01*
X201542857Y-65261905D01*
X201590476Y-65357143D01*
X201638095Y-65404762D01*
X201733333Y-65452381D01*
X201923810Y-65452381D01*
X202019048Y-65404762D01*
X202066667Y-65357143D01*
X202114286Y-65261905D01*
X202114286Y-65071429D01*
X202066667Y-64976190D01*
X202019048Y-64928571D01*
X201923810Y-64880952D01*
X202542857Y-65071429D02*
X203304762Y-65071429D01*
X204304762Y-65452381D02*
X203733333Y-65452381D01*
X204019047Y-65452381D02*
X204019047Y-64452381D01*
X203923809Y-64595238D01*
X203828571Y-64690476D01*
X203733333Y-64738095D01*
X205161905Y-64785714D02*
X205161905Y-65452381D01*
X204923809Y-64404762D02*
X204685714Y-65119048D01*
X205304762Y-65119048D01*
X18452381Y-123361904D02*
X17976190Y-123695238D01*
X18452381Y-123933333D02*
X17452381Y-123933333D01*
X17452381Y-123552380D01*
X17500000Y-123457142D01*
X17547619Y-123409523D01*
X17642857Y-123361904D01*
X17785714Y-123361904D01*
X17880952Y-123409523D01*
X17928571Y-123457142D01*
X17976190Y-123552380D01*
X17976190Y-123933333D01*
X18452381Y-122409523D02*
X18452381Y-122980952D01*
X18452381Y-122695238D02*
X17452381Y-122695238D01*
X17595238Y-122790476D01*
X17690476Y-122885714D01*
X17738095Y-122980952D01*
X18071429Y-121980952D02*
X18071429Y-121219047D01*
X17785714Y-120314285D02*
X18452381Y-120314285D01*
X17404762Y-120552381D02*
X18119048Y-120790476D01*
X18119048Y-120171428D01*
D15*
X22218321Y-68714048D02*
X22436035Y-68774524D01*
X22798892Y-68774524D01*
X22944035Y-68714048D01*
X23016606Y-68653571D01*
X23089178Y-68532619D01*
X23089178Y-68411667D01*
X23016606Y-68290714D01*
X22944035Y-68230238D01*
X22798892Y-68169762D01*
X22508606Y-68109286D01*
X22363464Y-68048810D01*
X22290892Y-67988333D01*
X22218321Y-67867381D01*
X22218321Y-67746429D01*
X22290892Y-67625476D01*
X22363464Y-67565000D01*
X22508606Y-67504524D01*
X22871464Y-67504524D01*
X23089178Y-67565000D01*
X24032607Y-67504524D02*
X24177750Y-67504524D01*
X24322893Y-67565000D01*
X24395464Y-67625476D01*
X24468035Y-67746429D01*
X24540607Y-67988333D01*
X24540607Y-68290714D01*
X24468035Y-68532619D01*
X24395464Y-68653571D01*
X24322893Y-68714048D01*
X24177750Y-68774524D01*
X24032607Y-68774524D01*
X23887464Y-68714048D01*
X23814893Y-68653571D01*
X23742321Y-68532619D01*
X23669750Y-68290714D01*
X23669750Y-67988333D01*
X23742321Y-67746429D01*
X23814893Y-67625476D01*
X23887464Y-67565000D01*
X24032607Y-67504524D01*
X25992036Y-68774524D02*
X25121179Y-68774524D01*
X25556607Y-68774524D02*
X25556607Y-67504524D01*
X25411464Y-67685952D01*
X25266322Y-67806905D01*
X25121179Y-67867381D01*
X26645179Y-68653571D02*
X26717751Y-68714048D01*
X26645179Y-68774524D01*
X26572608Y-68714048D01*
X26645179Y-68653571D01*
X26645179Y-68774524D01*
X26645179Y-67988333D02*
X26717751Y-68048810D01*
X26645179Y-68109286D01*
X26572608Y-68048810D01*
X26645179Y-67988333D01*
X26645179Y-68109286D01*
X28169179Y-68774524D02*
X27298322Y-68774524D01*
X27733750Y-68774524D02*
X27733750Y-67504524D01*
X27588607Y-67685952D01*
X27443465Y-67806905D01*
X27298322Y-67867381D01*
X23379464Y-84109286D02*
X23887464Y-84109286D01*
X24105178Y-84774524D02*
X23379464Y-84774524D01*
X23379464Y-83504524D01*
X24105178Y-83504524D01*
X24685750Y-84714048D02*
X24903464Y-84774524D01*
X25266321Y-84774524D01*
X25411464Y-84714048D01*
X25484035Y-84653571D01*
X25556607Y-84532619D01*
X25556607Y-84411667D01*
X25484035Y-84290714D01*
X25411464Y-84230238D01*
X25266321Y-84169762D01*
X24976035Y-84109286D01*
X24830893Y-84048810D01*
X24758321Y-83988333D01*
X24685750Y-83867381D01*
X24685750Y-83746429D01*
X24758321Y-83625476D01*
X24830893Y-83565000D01*
X24976035Y-83504524D01*
X25338893Y-83504524D01*
X25556607Y-83565000D01*
X27080607Y-84653571D02*
X27008036Y-84714048D01*
X26790322Y-84774524D01*
X26645179Y-84774524D01*
X26427464Y-84714048D01*
X26282322Y-84593095D01*
X26209750Y-84472143D01*
X26137179Y-84230238D01*
X26137179Y-84048810D01*
X26209750Y-83806905D01*
X26282322Y-83685952D01*
X26427464Y-83565000D01*
X26645179Y-83504524D01*
X26790322Y-83504524D01*
X27008036Y-83565000D01*
X27080607Y-83625476D01*
X24599571Y-87764048D02*
X24817285Y-87824524D01*
X25180142Y-87824524D01*
X25325285Y-87764048D01*
X25397856Y-87703571D01*
X25470428Y-87582619D01*
X25470428Y-87461667D01*
X25397856Y-87340714D01*
X25325285Y-87280238D01*
X25180142Y-87219762D01*
X24889856Y-87159286D01*
X24744714Y-87098810D01*
X24672142Y-87038333D01*
X24599571Y-86917381D01*
X24599571Y-86796429D01*
X24672142Y-86675476D01*
X24744714Y-86615000D01*
X24889856Y-86554524D01*
X25252714Y-86554524D01*
X25470428Y-86615000D01*
X26413857Y-86554524D02*
X26559000Y-86554524D01*
X26704143Y-86615000D01*
X26776714Y-86675476D01*
X26849285Y-86796429D01*
X26921857Y-87038333D01*
X26921857Y-87340714D01*
X26849285Y-87582619D01*
X26776714Y-87703571D01*
X26704143Y-87764048D01*
X26559000Y-87824524D01*
X26413857Y-87824524D01*
X26268714Y-87764048D01*
X26196143Y-87703571D01*
X26123571Y-87582619D01*
X26051000Y-87340714D01*
X26051000Y-87038333D01*
X26123571Y-86796429D01*
X26196143Y-86675476D01*
X26268714Y-86615000D01*
X26413857Y-86554524D01*
X28373286Y-87824524D02*
X27502429Y-87824524D01*
X27937857Y-87824524D02*
X27937857Y-86554524D01*
X27792714Y-86735952D01*
X27647572Y-86856905D01*
X27502429Y-86917381D01*
X29026429Y-87703571D02*
X29099001Y-87764048D01*
X29026429Y-87824524D01*
X28953858Y-87764048D01*
X29026429Y-87703571D01*
X29026429Y-87824524D01*
X29026429Y-87038333D02*
X29099001Y-87098810D01*
X29026429Y-87159286D01*
X28953858Y-87098810D01*
X29026429Y-87038333D01*
X29026429Y-87159286D01*
X29679572Y-86675476D02*
X29752143Y-86615000D01*
X29897286Y-86554524D01*
X30260143Y-86554524D01*
X30405286Y-86615000D01*
X30477857Y-86675476D01*
X30550429Y-86796429D01*
X30550429Y-86917381D01*
X30477857Y-87098810D01*
X29607000Y-87824524D01*
X30550429Y-87824524D01*
X25724429Y-102554524D02*
X26595286Y-102554524D01*
X26159857Y-103824524D02*
X26159857Y-102554524D01*
X27030715Y-103461667D02*
X27756429Y-103461667D01*
X26885572Y-103824524D02*
X27393572Y-102554524D01*
X27901572Y-103824524D01*
X28917572Y-103159286D02*
X29135286Y-103219762D01*
X29207858Y-103280238D01*
X29280429Y-103401190D01*
X29280429Y-103582619D01*
X29207858Y-103703571D01*
X29135286Y-103764048D01*
X28990144Y-103824524D01*
X28409572Y-103824524D01*
X28409572Y-102554524D01*
X28917572Y-102554524D01*
X29062715Y-102615000D01*
X29135286Y-102675476D01*
X29207858Y-102796429D01*
X29207858Y-102917381D01*
X29135286Y-103038333D01*
X29062715Y-103098810D01*
X28917572Y-103159286D01*
X28409572Y-103159286D01*
X29362071Y-106814048D02*
X29579785Y-106874524D01*
X29942642Y-106874524D01*
X30087785Y-106814048D01*
X30160356Y-106753571D01*
X30232928Y-106632619D01*
X30232928Y-106511667D01*
X30160356Y-106390714D01*
X30087785Y-106330238D01*
X29942642Y-106269762D01*
X29652356Y-106209286D01*
X29507214Y-106148810D01*
X29434642Y-106088333D01*
X29362071Y-105967381D01*
X29362071Y-105846429D01*
X29434642Y-105725476D01*
X29507214Y-105665000D01*
X29652356Y-105604524D01*
X30015214Y-105604524D01*
X30232928Y-105665000D01*
X31176357Y-105604524D02*
X31321500Y-105604524D01*
X31466643Y-105665000D01*
X31539214Y-105725476D01*
X31611785Y-105846429D01*
X31684357Y-106088333D01*
X31684357Y-106390714D01*
X31611785Y-106632619D01*
X31539214Y-106753571D01*
X31466643Y-106814048D01*
X31321500Y-106874524D01*
X31176357Y-106874524D01*
X31031214Y-106814048D01*
X30958643Y-106753571D01*
X30886071Y-106632619D01*
X30813500Y-106390714D01*
X30813500Y-106088333D01*
X30886071Y-105846429D01*
X30958643Y-105725476D01*
X31031214Y-105665000D01*
X31176357Y-105604524D01*
X33135786Y-106874524D02*
X32264929Y-106874524D01*
X32700357Y-106874524D02*
X32700357Y-105604524D01*
X32555214Y-105785952D01*
X32410072Y-105906905D01*
X32264929Y-105967381D01*
X33788929Y-106753571D02*
X33861501Y-106814048D01*
X33788929Y-106874524D01*
X33716358Y-106814048D01*
X33788929Y-106753571D01*
X33788929Y-106874524D01*
X33788929Y-106088333D02*
X33861501Y-106148810D01*
X33788929Y-106209286D01*
X33716358Y-106148810D01*
X33788929Y-106088333D01*
X33788929Y-106209286D01*
X34369500Y-105604524D02*
X35312929Y-105604524D01*
X34804929Y-106088333D01*
X35022643Y-106088333D01*
X35167786Y-106148810D01*
X35240357Y-106209286D01*
X35312929Y-106330238D01*
X35312929Y-106632619D01*
X35240357Y-106753571D01*
X35167786Y-106814048D01*
X35022643Y-106874524D01*
X34587215Y-106874524D01*
X34442072Y-106814048D01*
X34369500Y-106753571D01*
X29108071Y-122874524D02*
X28382357Y-122874524D01*
X28382357Y-121604524D01*
X29253214Y-122995476D02*
X30414357Y-122995476D01*
X30704643Y-122814048D02*
X30922357Y-122874524D01*
X31285214Y-122874524D01*
X31430357Y-122814048D01*
X31502928Y-122753571D01*
X31575500Y-122632619D01*
X31575500Y-122511667D01*
X31502928Y-122390714D01*
X31430357Y-122330238D01*
X31285214Y-122269762D01*
X30994928Y-122209286D01*
X30849786Y-122148810D01*
X30777214Y-122088333D01*
X30704643Y-121967381D01*
X30704643Y-121846429D01*
X30777214Y-121725476D01*
X30849786Y-121665000D01*
X30994928Y-121604524D01*
X31357786Y-121604524D01*
X31575500Y-121665000D01*
X32228643Y-122874524D02*
X32228643Y-121604524D01*
X32228643Y-122209286D02*
X33099500Y-122209286D01*
X33099500Y-122874524D02*
X33099500Y-121604524D01*
X33825214Y-122874524D02*
X33825214Y-121604524D01*
X35058928Y-122209286D02*
X34550928Y-122209286D01*
X34550928Y-122874524D02*
X34550928Y-121604524D01*
X35276642Y-121604524D01*
X35639500Y-121604524D02*
X36510357Y-121604524D01*
X36074928Y-122874524D02*
X36074928Y-121604524D01*
X24599571Y-125864048D02*
X24817285Y-125924524D01*
X25180142Y-125924524D01*
X25325285Y-125864048D01*
X25397856Y-125803571D01*
X25470428Y-125682619D01*
X25470428Y-125561667D01*
X25397856Y-125440714D01*
X25325285Y-125380238D01*
X25180142Y-125319762D01*
X24889856Y-125259286D01*
X24744714Y-125198810D01*
X24672142Y-125138333D01*
X24599571Y-125017381D01*
X24599571Y-124896429D01*
X24672142Y-124775476D01*
X24744714Y-124715000D01*
X24889856Y-124654524D01*
X25252714Y-124654524D01*
X25470428Y-124715000D01*
X26413857Y-124654524D02*
X26559000Y-124654524D01*
X26704143Y-124715000D01*
X26776714Y-124775476D01*
X26849285Y-124896429D01*
X26921857Y-125138333D01*
X26921857Y-125440714D01*
X26849285Y-125682619D01*
X26776714Y-125803571D01*
X26704143Y-125864048D01*
X26559000Y-125924524D01*
X26413857Y-125924524D01*
X26268714Y-125864048D01*
X26196143Y-125803571D01*
X26123571Y-125682619D01*
X26051000Y-125440714D01*
X26051000Y-125138333D01*
X26123571Y-124896429D01*
X26196143Y-124775476D01*
X26268714Y-124715000D01*
X26413857Y-124654524D01*
X28373286Y-125924524D02*
X27502429Y-125924524D01*
X27937857Y-125924524D02*
X27937857Y-124654524D01*
X27792714Y-124835952D01*
X27647572Y-124956905D01*
X27502429Y-125017381D01*
X29026429Y-125803571D02*
X29099001Y-125864048D01*
X29026429Y-125924524D01*
X28953858Y-125864048D01*
X29026429Y-125803571D01*
X29026429Y-125924524D01*
X29026429Y-125138333D02*
X29099001Y-125198810D01*
X29026429Y-125259286D01*
X28953858Y-125198810D01*
X29026429Y-125138333D01*
X29026429Y-125259286D01*
X30405286Y-125077857D02*
X30405286Y-125924524D01*
X30042429Y-124594048D02*
X29679572Y-125501190D01*
X30623000Y-125501190D01*
X24744714Y-141924524D02*
X24019000Y-141924524D01*
X24019000Y-140654524D01*
X24889857Y-142045476D02*
X26051000Y-142045476D01*
X27284714Y-141803571D02*
X27212143Y-141864048D01*
X26994429Y-141924524D01*
X26849286Y-141924524D01*
X26631571Y-141864048D01*
X26486429Y-141743095D01*
X26413857Y-141622143D01*
X26341286Y-141380238D01*
X26341286Y-141198810D01*
X26413857Y-140956905D01*
X26486429Y-140835952D01*
X26631571Y-140715000D01*
X26849286Y-140654524D01*
X26994429Y-140654524D01*
X27212143Y-140715000D01*
X27284714Y-140775476D01*
X27720143Y-140654524D02*
X28591000Y-140654524D01*
X28155571Y-141924524D02*
X28155571Y-140654524D01*
X29969857Y-141924524D02*
X29461857Y-141319762D01*
X29099000Y-141924524D02*
X29099000Y-140654524D01*
X29679572Y-140654524D01*
X29824714Y-140715000D01*
X29897286Y-140775476D01*
X29969857Y-140896429D01*
X29969857Y-141077857D01*
X29897286Y-141198810D01*
X29824714Y-141259286D01*
X29679572Y-141319762D01*
X29099000Y-141319762D01*
X31348714Y-141924524D02*
X30623000Y-141924524D01*
X30623000Y-140654524D01*
X41268321Y-68714048D02*
X41486035Y-68774524D01*
X41848892Y-68774524D01*
X41994035Y-68714048D01*
X42066606Y-68653571D01*
X42139178Y-68532619D01*
X42139178Y-68411667D01*
X42066606Y-68290714D01*
X41994035Y-68230238D01*
X41848892Y-68169762D01*
X41558606Y-68109286D01*
X41413464Y-68048810D01*
X41340892Y-67988333D01*
X41268321Y-67867381D01*
X41268321Y-67746429D01*
X41340892Y-67625476D01*
X41413464Y-67565000D01*
X41558606Y-67504524D01*
X41921464Y-67504524D01*
X42139178Y-67565000D01*
X43082607Y-67504524D02*
X43227750Y-67504524D01*
X43372893Y-67565000D01*
X43445464Y-67625476D01*
X43518035Y-67746429D01*
X43590607Y-67988333D01*
X43590607Y-68290714D01*
X43518035Y-68532619D01*
X43445464Y-68653571D01*
X43372893Y-68714048D01*
X43227750Y-68774524D01*
X43082607Y-68774524D01*
X42937464Y-68714048D01*
X42864893Y-68653571D01*
X42792321Y-68532619D01*
X42719750Y-68290714D01*
X42719750Y-67988333D01*
X42792321Y-67746429D01*
X42864893Y-67625476D01*
X42937464Y-67565000D01*
X43082607Y-67504524D01*
X44171179Y-67625476D02*
X44243750Y-67565000D01*
X44388893Y-67504524D01*
X44751750Y-67504524D01*
X44896893Y-67565000D01*
X44969464Y-67625476D01*
X45042036Y-67746429D01*
X45042036Y-67867381D01*
X44969464Y-68048810D01*
X44098607Y-68774524D01*
X45042036Y-68774524D01*
X45695179Y-68653571D02*
X45767751Y-68714048D01*
X45695179Y-68774524D01*
X45622608Y-68714048D01*
X45695179Y-68653571D01*
X45695179Y-68774524D01*
X45695179Y-67988333D02*
X45767751Y-68048810D01*
X45695179Y-68109286D01*
X45622608Y-68048810D01*
X45695179Y-67988333D01*
X45695179Y-68109286D01*
X47219179Y-68774524D02*
X46348322Y-68774524D01*
X46783750Y-68774524D02*
X46783750Y-67504524D01*
X46638607Y-67685952D01*
X46493465Y-67806905D01*
X46348322Y-67867381D01*
X44824322Y-84895476D02*
X44679179Y-84835000D01*
X44534036Y-84714048D01*
X44316322Y-84532619D01*
X44171179Y-84472143D01*
X44026036Y-84472143D01*
X44098608Y-84774524D02*
X43953465Y-84714048D01*
X43808322Y-84593095D01*
X43735751Y-84351190D01*
X43735751Y-83927857D01*
X43808322Y-83685952D01*
X43953465Y-83565000D01*
X44098608Y-83504524D01*
X44388894Y-83504524D01*
X44534036Y-83565000D01*
X44679179Y-83685952D01*
X44751751Y-83927857D01*
X44751751Y-84351190D01*
X44679179Y-84593095D01*
X44534036Y-84714048D01*
X44388894Y-84774524D01*
X44098608Y-84774524D01*
X46030821Y-87764048D02*
X46248535Y-87824524D01*
X46611392Y-87824524D01*
X46756535Y-87764048D01*
X46829106Y-87703571D01*
X46901678Y-87582619D01*
X46901678Y-87461667D01*
X46829106Y-87340714D01*
X46756535Y-87280238D01*
X46611392Y-87219762D01*
X46321106Y-87159286D01*
X46175964Y-87098810D01*
X46103392Y-87038333D01*
X46030821Y-86917381D01*
X46030821Y-86796429D01*
X46103392Y-86675476D01*
X46175964Y-86615000D01*
X46321106Y-86554524D01*
X46683964Y-86554524D01*
X46901678Y-86615000D01*
X47845107Y-86554524D02*
X47990250Y-86554524D01*
X48135393Y-86615000D01*
X48207964Y-86675476D01*
X48280535Y-86796429D01*
X48353107Y-87038333D01*
X48353107Y-87340714D01*
X48280535Y-87582619D01*
X48207964Y-87703571D01*
X48135393Y-87764048D01*
X47990250Y-87824524D01*
X47845107Y-87824524D01*
X47699964Y-87764048D01*
X47627393Y-87703571D01*
X47554821Y-87582619D01*
X47482250Y-87340714D01*
X47482250Y-87038333D01*
X47554821Y-86796429D01*
X47627393Y-86675476D01*
X47699964Y-86615000D01*
X47845107Y-86554524D01*
X48933679Y-86675476D02*
X49006250Y-86615000D01*
X49151393Y-86554524D01*
X49514250Y-86554524D01*
X49659393Y-86615000D01*
X49731964Y-86675476D01*
X49804536Y-86796429D01*
X49804536Y-86917381D01*
X49731964Y-87098810D01*
X48861107Y-87824524D01*
X49804536Y-87824524D01*
X50457679Y-87703571D02*
X50530251Y-87764048D01*
X50457679Y-87824524D01*
X50385108Y-87764048D01*
X50457679Y-87703571D01*
X50457679Y-87824524D01*
X50457679Y-87038333D02*
X50530251Y-87098810D01*
X50457679Y-87159286D01*
X50385108Y-87098810D01*
X50457679Y-87038333D01*
X50457679Y-87159286D01*
X51110822Y-86675476D02*
X51183393Y-86615000D01*
X51328536Y-86554524D01*
X51691393Y-86554524D01*
X51836536Y-86615000D01*
X51909107Y-86675476D01*
X51981679Y-86796429D01*
X51981679Y-86917381D01*
X51909107Y-87098810D01*
X51038250Y-87824524D01*
X51981679Y-87824524D01*
X48643393Y-103461667D02*
X49369107Y-103461667D01*
X48498250Y-103824524D02*
X49006250Y-102554524D01*
X49514250Y-103824524D01*
X55555821Y-106814048D02*
X55773535Y-106874524D01*
X56136392Y-106874524D01*
X56281535Y-106814048D01*
X56354106Y-106753571D01*
X56426678Y-106632619D01*
X56426678Y-106511667D01*
X56354106Y-106390714D01*
X56281535Y-106330238D01*
X56136392Y-106269762D01*
X55846106Y-106209286D01*
X55700964Y-106148810D01*
X55628392Y-106088333D01*
X55555821Y-105967381D01*
X55555821Y-105846429D01*
X55628392Y-105725476D01*
X55700964Y-105665000D01*
X55846106Y-105604524D01*
X56208964Y-105604524D01*
X56426678Y-105665000D01*
X57370107Y-105604524D02*
X57515250Y-105604524D01*
X57660393Y-105665000D01*
X57732964Y-105725476D01*
X57805535Y-105846429D01*
X57878107Y-106088333D01*
X57878107Y-106390714D01*
X57805535Y-106632619D01*
X57732964Y-106753571D01*
X57660393Y-106814048D01*
X57515250Y-106874524D01*
X57370107Y-106874524D01*
X57224964Y-106814048D01*
X57152393Y-106753571D01*
X57079821Y-106632619D01*
X57007250Y-106390714D01*
X57007250Y-106088333D01*
X57079821Y-105846429D01*
X57152393Y-105725476D01*
X57224964Y-105665000D01*
X57370107Y-105604524D01*
X58458679Y-105725476D02*
X58531250Y-105665000D01*
X58676393Y-105604524D01*
X59039250Y-105604524D01*
X59184393Y-105665000D01*
X59256964Y-105725476D01*
X59329536Y-105846429D01*
X59329536Y-105967381D01*
X59256964Y-106148810D01*
X58386107Y-106874524D01*
X59329536Y-106874524D01*
X59982679Y-106753571D02*
X60055251Y-106814048D01*
X59982679Y-106874524D01*
X59910108Y-106814048D01*
X59982679Y-106753571D01*
X59982679Y-106874524D01*
X59982679Y-106088333D02*
X60055251Y-106148810D01*
X59982679Y-106209286D01*
X59910108Y-106148810D01*
X59982679Y-106088333D01*
X59982679Y-106209286D01*
X60563250Y-105604524D02*
X61506679Y-105604524D01*
X60998679Y-106088333D01*
X61216393Y-106088333D01*
X61361536Y-106148810D01*
X61434107Y-106209286D01*
X61506679Y-106330238D01*
X61506679Y-106632619D01*
X61434107Y-106753571D01*
X61361536Y-106814048D01*
X61216393Y-106874524D01*
X60780965Y-106874524D01*
X60635822Y-106814048D01*
X60563250Y-106753571D01*
X58023250Y-121604524D02*
X59039250Y-121604524D01*
X58023250Y-122874524D01*
X59039250Y-122874524D01*
X48412071Y-125864048D02*
X48629785Y-125924524D01*
X48992642Y-125924524D01*
X49137785Y-125864048D01*
X49210356Y-125803571D01*
X49282928Y-125682619D01*
X49282928Y-125561667D01*
X49210356Y-125440714D01*
X49137785Y-125380238D01*
X48992642Y-125319762D01*
X48702356Y-125259286D01*
X48557214Y-125198810D01*
X48484642Y-125138333D01*
X48412071Y-125017381D01*
X48412071Y-124896429D01*
X48484642Y-124775476D01*
X48557214Y-124715000D01*
X48702356Y-124654524D01*
X49065214Y-124654524D01*
X49282928Y-124715000D01*
X50226357Y-124654524D02*
X50371500Y-124654524D01*
X50516643Y-124715000D01*
X50589214Y-124775476D01*
X50661785Y-124896429D01*
X50734357Y-125138333D01*
X50734357Y-125440714D01*
X50661785Y-125682619D01*
X50589214Y-125803571D01*
X50516643Y-125864048D01*
X50371500Y-125924524D01*
X50226357Y-125924524D01*
X50081214Y-125864048D01*
X50008643Y-125803571D01*
X49936071Y-125682619D01*
X49863500Y-125440714D01*
X49863500Y-125138333D01*
X49936071Y-124896429D01*
X50008643Y-124775476D01*
X50081214Y-124715000D01*
X50226357Y-124654524D01*
X51314929Y-124775476D02*
X51387500Y-124715000D01*
X51532643Y-124654524D01*
X51895500Y-124654524D01*
X52040643Y-124715000D01*
X52113214Y-124775476D01*
X52185786Y-124896429D01*
X52185786Y-125017381D01*
X52113214Y-125198810D01*
X51242357Y-125924524D01*
X52185786Y-125924524D01*
X52838929Y-125803571D02*
X52911501Y-125864048D01*
X52838929Y-125924524D01*
X52766358Y-125864048D01*
X52838929Y-125803571D01*
X52838929Y-125924524D01*
X52838929Y-125138333D02*
X52911501Y-125198810D01*
X52838929Y-125259286D01*
X52766358Y-125198810D01*
X52838929Y-125138333D01*
X52838929Y-125259286D01*
X54217786Y-125077857D02*
X54217786Y-125924524D01*
X53854929Y-124594048D02*
X53492072Y-125501190D01*
X54435500Y-125501190D01*
X47541214Y-141924524D02*
X46815500Y-141924524D01*
X46815500Y-140654524D01*
X47686357Y-142045476D02*
X48847500Y-142045476D01*
X49137786Y-141864048D02*
X49355500Y-141924524D01*
X49718357Y-141924524D01*
X49863500Y-141864048D01*
X49936071Y-141803571D01*
X50008643Y-141682619D01*
X50008643Y-141561667D01*
X49936071Y-141440714D01*
X49863500Y-141380238D01*
X49718357Y-141319762D01*
X49428071Y-141259286D01*
X49282929Y-141198810D01*
X49210357Y-141138333D01*
X49137786Y-141017381D01*
X49137786Y-140896429D01*
X49210357Y-140775476D01*
X49282929Y-140715000D01*
X49428071Y-140654524D01*
X49790929Y-140654524D01*
X50008643Y-140715000D01*
X50661786Y-140654524D02*
X50661786Y-141682619D01*
X50734358Y-141803571D01*
X50806929Y-141864048D01*
X50952072Y-141924524D01*
X51242358Y-141924524D01*
X51387500Y-141864048D01*
X51460072Y-141803571D01*
X51532643Y-141682619D01*
X51532643Y-140654524D01*
X52258357Y-141924524D02*
X52258357Y-140654524D01*
X52838929Y-140654524D01*
X52984071Y-140715000D01*
X53056643Y-140775476D01*
X53129214Y-140896429D01*
X53129214Y-141077857D01*
X53056643Y-141198810D01*
X52984071Y-141259286D01*
X52838929Y-141319762D01*
X52258357Y-141319762D01*
X53782357Y-141259286D02*
X54290357Y-141259286D01*
X54508071Y-141924524D02*
X53782357Y-141924524D01*
X53782357Y-140654524D01*
X54508071Y-140654524D01*
X56032071Y-141924524D02*
X55524071Y-141319762D01*
X55161214Y-141924524D02*
X55161214Y-140654524D01*
X55741786Y-140654524D01*
X55886928Y-140715000D01*
X55959500Y-140775476D01*
X56032071Y-140896429D01*
X56032071Y-141077857D01*
X55959500Y-141198810D01*
X55886928Y-141259286D01*
X55741786Y-141319762D01*
X55161214Y-141319762D01*
X60318321Y-68714048D02*
X60536035Y-68774524D01*
X60898892Y-68774524D01*
X61044035Y-68714048D01*
X61116606Y-68653571D01*
X61189178Y-68532619D01*
X61189178Y-68411667D01*
X61116606Y-68290714D01*
X61044035Y-68230238D01*
X60898892Y-68169762D01*
X60608606Y-68109286D01*
X60463464Y-68048810D01*
X60390892Y-67988333D01*
X60318321Y-67867381D01*
X60318321Y-67746429D01*
X60390892Y-67625476D01*
X60463464Y-67565000D01*
X60608606Y-67504524D01*
X60971464Y-67504524D01*
X61189178Y-67565000D01*
X62132607Y-67504524D02*
X62277750Y-67504524D01*
X62422893Y-67565000D01*
X62495464Y-67625476D01*
X62568035Y-67746429D01*
X62640607Y-67988333D01*
X62640607Y-68290714D01*
X62568035Y-68532619D01*
X62495464Y-68653571D01*
X62422893Y-68714048D01*
X62277750Y-68774524D01*
X62132607Y-68774524D01*
X61987464Y-68714048D01*
X61914893Y-68653571D01*
X61842321Y-68532619D01*
X61769750Y-68290714D01*
X61769750Y-67988333D01*
X61842321Y-67746429D01*
X61914893Y-67625476D01*
X61987464Y-67565000D01*
X62132607Y-67504524D01*
X63148607Y-67504524D02*
X64092036Y-67504524D01*
X63584036Y-67988333D01*
X63801750Y-67988333D01*
X63946893Y-68048810D01*
X64019464Y-68109286D01*
X64092036Y-68230238D01*
X64092036Y-68532619D01*
X64019464Y-68653571D01*
X63946893Y-68714048D01*
X63801750Y-68774524D01*
X63366322Y-68774524D01*
X63221179Y-68714048D01*
X63148607Y-68653571D01*
X64745179Y-68653571D02*
X64817751Y-68714048D01*
X64745179Y-68774524D01*
X64672608Y-68714048D01*
X64745179Y-68653571D01*
X64745179Y-68774524D01*
X64745179Y-67988333D02*
X64817751Y-68048810D01*
X64745179Y-68109286D01*
X64672608Y-68048810D01*
X64745179Y-67988333D01*
X64745179Y-68109286D01*
X66269179Y-68774524D02*
X65398322Y-68774524D01*
X65833750Y-68774524D02*
X65833750Y-67504524D01*
X65688607Y-67685952D01*
X65543465Y-67806905D01*
X65398322Y-67867381D01*
X62640607Y-83504524D02*
X63003464Y-84774524D01*
X63293750Y-83867381D01*
X63584036Y-84774524D01*
X63946893Y-83504524D01*
X65080821Y-87764048D02*
X65298535Y-87824524D01*
X65661392Y-87824524D01*
X65806535Y-87764048D01*
X65879106Y-87703571D01*
X65951678Y-87582619D01*
X65951678Y-87461667D01*
X65879106Y-87340714D01*
X65806535Y-87280238D01*
X65661392Y-87219762D01*
X65371106Y-87159286D01*
X65225964Y-87098810D01*
X65153392Y-87038333D01*
X65080821Y-86917381D01*
X65080821Y-86796429D01*
X65153392Y-86675476D01*
X65225964Y-86615000D01*
X65371106Y-86554524D01*
X65733964Y-86554524D01*
X65951678Y-86615000D01*
X66895107Y-86554524D02*
X67040250Y-86554524D01*
X67185393Y-86615000D01*
X67257964Y-86675476D01*
X67330535Y-86796429D01*
X67403107Y-87038333D01*
X67403107Y-87340714D01*
X67330535Y-87582619D01*
X67257964Y-87703571D01*
X67185393Y-87764048D01*
X67040250Y-87824524D01*
X66895107Y-87824524D01*
X66749964Y-87764048D01*
X66677393Y-87703571D01*
X66604821Y-87582619D01*
X66532250Y-87340714D01*
X66532250Y-87038333D01*
X66604821Y-86796429D01*
X66677393Y-86675476D01*
X66749964Y-86615000D01*
X66895107Y-86554524D01*
X67911107Y-86554524D02*
X68854536Y-86554524D01*
X68346536Y-87038333D01*
X68564250Y-87038333D01*
X68709393Y-87098810D01*
X68781964Y-87159286D01*
X68854536Y-87280238D01*
X68854536Y-87582619D01*
X68781964Y-87703571D01*
X68709393Y-87764048D01*
X68564250Y-87824524D01*
X68128822Y-87824524D01*
X67983679Y-87764048D01*
X67911107Y-87703571D01*
X69507679Y-87703571D02*
X69580251Y-87764048D01*
X69507679Y-87824524D01*
X69435108Y-87764048D01*
X69507679Y-87703571D01*
X69507679Y-87824524D01*
X69507679Y-87038333D02*
X69580251Y-87098810D01*
X69507679Y-87159286D01*
X69435108Y-87098810D01*
X69507679Y-87038333D01*
X69507679Y-87159286D01*
X70160822Y-86675476D02*
X70233393Y-86615000D01*
X70378536Y-86554524D01*
X70741393Y-86554524D01*
X70886536Y-86615000D01*
X70959107Y-86675476D01*
X71031679Y-86796429D01*
X71031679Y-86917381D01*
X70959107Y-87098810D01*
X70088250Y-87824524D01*
X71031679Y-87824524D01*
X67620822Y-103764048D02*
X67838536Y-103824524D01*
X68201393Y-103824524D01*
X68346536Y-103764048D01*
X68419107Y-103703571D01*
X68491679Y-103582619D01*
X68491679Y-103461667D01*
X68419107Y-103340714D01*
X68346536Y-103280238D01*
X68201393Y-103219762D01*
X67911107Y-103159286D01*
X67765965Y-103098810D01*
X67693393Y-103038333D01*
X67620822Y-102917381D01*
X67620822Y-102796429D01*
X67693393Y-102675476D01*
X67765965Y-102615000D01*
X67911107Y-102554524D01*
X68273965Y-102554524D01*
X68491679Y-102615000D01*
X74605821Y-106814048D02*
X74823535Y-106874524D01*
X75186392Y-106874524D01*
X75331535Y-106814048D01*
X75404106Y-106753571D01*
X75476678Y-106632619D01*
X75476678Y-106511667D01*
X75404106Y-106390714D01*
X75331535Y-106330238D01*
X75186392Y-106269762D01*
X74896106Y-106209286D01*
X74750964Y-106148810D01*
X74678392Y-106088333D01*
X74605821Y-105967381D01*
X74605821Y-105846429D01*
X74678392Y-105725476D01*
X74750964Y-105665000D01*
X74896106Y-105604524D01*
X75258964Y-105604524D01*
X75476678Y-105665000D01*
X76420107Y-105604524D02*
X76565250Y-105604524D01*
X76710393Y-105665000D01*
X76782964Y-105725476D01*
X76855535Y-105846429D01*
X76928107Y-106088333D01*
X76928107Y-106390714D01*
X76855535Y-106632619D01*
X76782964Y-106753571D01*
X76710393Y-106814048D01*
X76565250Y-106874524D01*
X76420107Y-106874524D01*
X76274964Y-106814048D01*
X76202393Y-106753571D01*
X76129821Y-106632619D01*
X76057250Y-106390714D01*
X76057250Y-106088333D01*
X76129821Y-105846429D01*
X76202393Y-105725476D01*
X76274964Y-105665000D01*
X76420107Y-105604524D01*
X77436107Y-105604524D02*
X78379536Y-105604524D01*
X77871536Y-106088333D01*
X78089250Y-106088333D01*
X78234393Y-106148810D01*
X78306964Y-106209286D01*
X78379536Y-106330238D01*
X78379536Y-106632619D01*
X78306964Y-106753571D01*
X78234393Y-106814048D01*
X78089250Y-106874524D01*
X77653822Y-106874524D01*
X77508679Y-106814048D01*
X77436107Y-106753571D01*
X79032679Y-106753571D02*
X79105251Y-106814048D01*
X79032679Y-106874524D01*
X78960108Y-106814048D01*
X79032679Y-106753571D01*
X79032679Y-106874524D01*
X79032679Y-106088333D02*
X79105251Y-106148810D01*
X79032679Y-106209286D01*
X78960108Y-106148810D01*
X79032679Y-106088333D01*
X79032679Y-106209286D01*
X79613250Y-105604524D02*
X80556679Y-105604524D01*
X80048679Y-106088333D01*
X80266393Y-106088333D01*
X80411536Y-106148810D01*
X80484107Y-106209286D01*
X80556679Y-106330238D01*
X80556679Y-106632619D01*
X80484107Y-106753571D01*
X80411536Y-106814048D01*
X80266393Y-106874524D01*
X79830965Y-106874524D01*
X79685822Y-106814048D01*
X79613250Y-106753571D01*
X77073250Y-121604524D02*
X78089250Y-122874524D01*
X78089250Y-121604524D02*
X77073250Y-122874524D01*
X72224571Y-125864048D02*
X72442285Y-125924524D01*
X72805142Y-125924524D01*
X72950285Y-125864048D01*
X73022856Y-125803571D01*
X73095428Y-125682619D01*
X73095428Y-125561667D01*
X73022856Y-125440714D01*
X72950285Y-125380238D01*
X72805142Y-125319762D01*
X72514856Y-125259286D01*
X72369714Y-125198810D01*
X72297142Y-125138333D01*
X72224571Y-125017381D01*
X72224571Y-124896429D01*
X72297142Y-124775476D01*
X72369714Y-124715000D01*
X72514856Y-124654524D01*
X72877714Y-124654524D01*
X73095428Y-124715000D01*
X74038857Y-124654524D02*
X74184000Y-124654524D01*
X74329143Y-124715000D01*
X74401714Y-124775476D01*
X74474285Y-124896429D01*
X74546857Y-125138333D01*
X74546857Y-125440714D01*
X74474285Y-125682619D01*
X74401714Y-125803571D01*
X74329143Y-125864048D01*
X74184000Y-125924524D01*
X74038857Y-125924524D01*
X73893714Y-125864048D01*
X73821143Y-125803571D01*
X73748571Y-125682619D01*
X73676000Y-125440714D01*
X73676000Y-125138333D01*
X73748571Y-124896429D01*
X73821143Y-124775476D01*
X73893714Y-124715000D01*
X74038857Y-124654524D01*
X75054857Y-124654524D02*
X75998286Y-124654524D01*
X75490286Y-125138333D01*
X75708000Y-125138333D01*
X75853143Y-125198810D01*
X75925714Y-125259286D01*
X75998286Y-125380238D01*
X75998286Y-125682619D01*
X75925714Y-125803571D01*
X75853143Y-125864048D01*
X75708000Y-125924524D01*
X75272572Y-125924524D01*
X75127429Y-125864048D01*
X75054857Y-125803571D01*
X76651429Y-125803571D02*
X76724001Y-125864048D01*
X76651429Y-125924524D01*
X76578858Y-125864048D01*
X76651429Y-125803571D01*
X76651429Y-125924524D01*
X76651429Y-125138333D02*
X76724001Y-125198810D01*
X76651429Y-125259286D01*
X76578858Y-125198810D01*
X76651429Y-125138333D01*
X76651429Y-125259286D01*
X78030286Y-125077857D02*
X78030286Y-125924524D01*
X77667429Y-124594048D02*
X77304572Y-125501190D01*
X78248000Y-125501190D01*
X73240571Y-141924524D02*
X72514857Y-141924524D01*
X72514857Y-140654524D01*
X73385714Y-142045476D02*
X74546857Y-142045476D01*
X74837143Y-141561667D02*
X75562857Y-141561667D01*
X74692000Y-141924524D02*
X75200000Y-140654524D01*
X75708000Y-141924524D01*
X76941714Y-141924524D02*
X76216000Y-141924524D01*
X76216000Y-140654524D01*
X77232000Y-140654524D02*
X78102857Y-140654524D01*
X77667428Y-141924524D02*
X77667428Y-140654524D01*
X79368321Y-68714048D02*
X79586035Y-68774524D01*
X79948892Y-68774524D01*
X80094035Y-68714048D01*
X80166606Y-68653571D01*
X80239178Y-68532619D01*
X80239178Y-68411667D01*
X80166606Y-68290714D01*
X80094035Y-68230238D01*
X79948892Y-68169762D01*
X79658606Y-68109286D01*
X79513464Y-68048810D01*
X79440892Y-67988333D01*
X79368321Y-67867381D01*
X79368321Y-67746429D01*
X79440892Y-67625476D01*
X79513464Y-67565000D01*
X79658606Y-67504524D01*
X80021464Y-67504524D01*
X80239178Y-67565000D01*
X81182607Y-67504524D02*
X81327750Y-67504524D01*
X81472893Y-67565000D01*
X81545464Y-67625476D01*
X81618035Y-67746429D01*
X81690607Y-67988333D01*
X81690607Y-68290714D01*
X81618035Y-68532619D01*
X81545464Y-68653571D01*
X81472893Y-68714048D01*
X81327750Y-68774524D01*
X81182607Y-68774524D01*
X81037464Y-68714048D01*
X80964893Y-68653571D01*
X80892321Y-68532619D01*
X80819750Y-68290714D01*
X80819750Y-67988333D01*
X80892321Y-67746429D01*
X80964893Y-67625476D01*
X81037464Y-67565000D01*
X81182607Y-67504524D01*
X82996893Y-67927857D02*
X82996893Y-68774524D01*
X82634036Y-67444048D02*
X82271179Y-68351190D01*
X83214607Y-68351190D01*
X83795179Y-68653571D02*
X83867751Y-68714048D01*
X83795179Y-68774524D01*
X83722608Y-68714048D01*
X83795179Y-68653571D01*
X83795179Y-68774524D01*
X83795179Y-67988333D02*
X83867751Y-68048810D01*
X83795179Y-68109286D01*
X83722608Y-68048810D01*
X83795179Y-67988333D01*
X83795179Y-68109286D01*
X85319179Y-68774524D02*
X84448322Y-68774524D01*
X84883750Y-68774524D02*
X84883750Y-67504524D01*
X84738607Y-67685952D01*
X84593465Y-67806905D01*
X84448322Y-67867381D01*
X82017179Y-84109286D02*
X82525179Y-84109286D01*
X82742893Y-84774524D02*
X82017179Y-84774524D01*
X82017179Y-83504524D01*
X82742893Y-83504524D01*
X84130821Y-87764048D02*
X84348535Y-87824524D01*
X84711392Y-87824524D01*
X84856535Y-87764048D01*
X84929106Y-87703571D01*
X85001678Y-87582619D01*
X85001678Y-87461667D01*
X84929106Y-87340714D01*
X84856535Y-87280238D01*
X84711392Y-87219762D01*
X84421106Y-87159286D01*
X84275964Y-87098810D01*
X84203392Y-87038333D01*
X84130821Y-86917381D01*
X84130821Y-86796429D01*
X84203392Y-86675476D01*
X84275964Y-86615000D01*
X84421106Y-86554524D01*
X84783964Y-86554524D01*
X85001678Y-86615000D01*
X85945107Y-86554524D02*
X86090250Y-86554524D01*
X86235393Y-86615000D01*
X86307964Y-86675476D01*
X86380535Y-86796429D01*
X86453107Y-87038333D01*
X86453107Y-87340714D01*
X86380535Y-87582619D01*
X86307964Y-87703571D01*
X86235393Y-87764048D01*
X86090250Y-87824524D01*
X85945107Y-87824524D01*
X85799964Y-87764048D01*
X85727393Y-87703571D01*
X85654821Y-87582619D01*
X85582250Y-87340714D01*
X85582250Y-87038333D01*
X85654821Y-86796429D01*
X85727393Y-86675476D01*
X85799964Y-86615000D01*
X85945107Y-86554524D01*
X87759393Y-86977857D02*
X87759393Y-87824524D01*
X87396536Y-86494048D02*
X87033679Y-87401190D01*
X87977107Y-87401190D01*
X88557679Y-87703571D02*
X88630251Y-87764048D01*
X88557679Y-87824524D01*
X88485108Y-87764048D01*
X88557679Y-87703571D01*
X88557679Y-87824524D01*
X88557679Y-87038333D02*
X88630251Y-87098810D01*
X88557679Y-87159286D01*
X88485108Y-87098810D01*
X88557679Y-87038333D01*
X88557679Y-87159286D01*
X89210822Y-86675476D02*
X89283393Y-86615000D01*
X89428536Y-86554524D01*
X89791393Y-86554524D01*
X89936536Y-86615000D01*
X90009107Y-86675476D01*
X90081679Y-86796429D01*
X90081679Y-86917381D01*
X90009107Y-87098810D01*
X89138250Y-87824524D01*
X90081679Y-87824524D01*
X86707107Y-103824524D02*
X86707107Y-102554524D01*
X87069964Y-102554524D01*
X87287679Y-102615000D01*
X87432821Y-102735952D01*
X87505393Y-102856905D01*
X87577964Y-103098810D01*
X87577964Y-103280238D01*
X87505393Y-103522143D01*
X87432821Y-103643095D01*
X87287679Y-103764048D01*
X87069964Y-103824524D01*
X86707107Y-103824524D01*
X93655821Y-106814048D02*
X93873535Y-106874524D01*
X94236392Y-106874524D01*
X94381535Y-106814048D01*
X94454106Y-106753571D01*
X94526678Y-106632619D01*
X94526678Y-106511667D01*
X94454106Y-106390714D01*
X94381535Y-106330238D01*
X94236392Y-106269762D01*
X93946106Y-106209286D01*
X93800964Y-106148810D01*
X93728392Y-106088333D01*
X93655821Y-105967381D01*
X93655821Y-105846429D01*
X93728392Y-105725476D01*
X93800964Y-105665000D01*
X93946106Y-105604524D01*
X94308964Y-105604524D01*
X94526678Y-105665000D01*
X95470107Y-105604524D02*
X95615250Y-105604524D01*
X95760393Y-105665000D01*
X95832964Y-105725476D01*
X95905535Y-105846429D01*
X95978107Y-106088333D01*
X95978107Y-106390714D01*
X95905535Y-106632619D01*
X95832964Y-106753571D01*
X95760393Y-106814048D01*
X95615250Y-106874524D01*
X95470107Y-106874524D01*
X95324964Y-106814048D01*
X95252393Y-106753571D01*
X95179821Y-106632619D01*
X95107250Y-106390714D01*
X95107250Y-106088333D01*
X95179821Y-105846429D01*
X95252393Y-105725476D01*
X95324964Y-105665000D01*
X95470107Y-105604524D01*
X97284393Y-106027857D02*
X97284393Y-106874524D01*
X96921536Y-105544048D02*
X96558679Y-106451190D01*
X97502107Y-106451190D01*
X98082679Y-106753571D02*
X98155251Y-106814048D01*
X98082679Y-106874524D01*
X98010108Y-106814048D01*
X98082679Y-106753571D01*
X98082679Y-106874524D01*
X98082679Y-106088333D02*
X98155251Y-106148810D01*
X98082679Y-106209286D01*
X98010108Y-106148810D01*
X98082679Y-106088333D01*
X98082679Y-106209286D01*
X98663250Y-105604524D02*
X99606679Y-105604524D01*
X99098679Y-106088333D01*
X99316393Y-106088333D01*
X99461536Y-106148810D01*
X99534107Y-106209286D01*
X99606679Y-106330238D01*
X99606679Y-106632619D01*
X99534107Y-106753571D01*
X99461536Y-106814048D01*
X99316393Y-106874524D01*
X98880965Y-106874524D01*
X98735822Y-106814048D01*
X98663250Y-106753571D01*
X97102964Y-122753571D02*
X97030393Y-122814048D01*
X96812679Y-122874524D01*
X96667536Y-122874524D01*
X96449821Y-122814048D01*
X96304679Y-122693095D01*
X96232107Y-122572143D01*
X96159536Y-122330238D01*
X96159536Y-122148810D01*
X96232107Y-121906905D01*
X96304679Y-121785952D01*
X96449821Y-121665000D01*
X96667536Y-121604524D01*
X96812679Y-121604524D01*
X97030393Y-121665000D01*
X97102964Y-121725476D01*
X98418321Y-68714048D02*
X98636035Y-68774524D01*
X98998892Y-68774524D01*
X99144035Y-68714048D01*
X99216606Y-68653571D01*
X99289178Y-68532619D01*
X99289178Y-68411667D01*
X99216606Y-68290714D01*
X99144035Y-68230238D01*
X98998892Y-68169762D01*
X98708606Y-68109286D01*
X98563464Y-68048810D01*
X98490892Y-67988333D01*
X98418321Y-67867381D01*
X98418321Y-67746429D01*
X98490892Y-67625476D01*
X98563464Y-67565000D01*
X98708606Y-67504524D01*
X99071464Y-67504524D01*
X99289178Y-67565000D01*
X100232607Y-67504524D02*
X100377750Y-67504524D01*
X100522893Y-67565000D01*
X100595464Y-67625476D01*
X100668035Y-67746429D01*
X100740607Y-67988333D01*
X100740607Y-68290714D01*
X100668035Y-68532619D01*
X100595464Y-68653571D01*
X100522893Y-68714048D01*
X100377750Y-68774524D01*
X100232607Y-68774524D01*
X100087464Y-68714048D01*
X100014893Y-68653571D01*
X99942321Y-68532619D01*
X99869750Y-68290714D01*
X99869750Y-67988333D01*
X99942321Y-67746429D01*
X100014893Y-67625476D01*
X100087464Y-67565000D01*
X100232607Y-67504524D01*
X102119464Y-67504524D02*
X101393750Y-67504524D01*
X101321179Y-68109286D01*
X101393750Y-68048810D01*
X101538893Y-67988333D01*
X101901750Y-67988333D01*
X102046893Y-68048810D01*
X102119464Y-68109286D01*
X102192036Y-68230238D01*
X102192036Y-68532619D01*
X102119464Y-68653571D01*
X102046893Y-68714048D01*
X101901750Y-68774524D01*
X101538893Y-68774524D01*
X101393750Y-68714048D01*
X101321179Y-68653571D01*
X102845179Y-68653571D02*
X102917751Y-68714048D01*
X102845179Y-68774524D01*
X102772608Y-68714048D01*
X102845179Y-68653571D01*
X102845179Y-68774524D01*
X102845179Y-67988333D02*
X102917751Y-68048810D01*
X102845179Y-68109286D01*
X102772608Y-68048810D01*
X102845179Y-67988333D01*
X102845179Y-68109286D01*
X104369179Y-68774524D02*
X103498322Y-68774524D01*
X103933750Y-68774524D02*
X103933750Y-67504524D01*
X103788607Y-67685952D01*
X103643465Y-67806905D01*
X103498322Y-67867381D01*
X101865464Y-84774524D02*
X101357464Y-84169762D01*
X100994607Y-84774524D02*
X100994607Y-83504524D01*
X101575179Y-83504524D01*
X101720321Y-83565000D01*
X101792893Y-83625476D01*
X101865464Y-83746429D01*
X101865464Y-83927857D01*
X101792893Y-84048810D01*
X101720321Y-84109286D01*
X101575179Y-84169762D01*
X100994607Y-84169762D01*
X103180821Y-87764048D02*
X103398535Y-87824524D01*
X103761392Y-87824524D01*
X103906535Y-87764048D01*
X103979106Y-87703571D01*
X104051678Y-87582619D01*
X104051678Y-87461667D01*
X103979106Y-87340714D01*
X103906535Y-87280238D01*
X103761392Y-87219762D01*
X103471106Y-87159286D01*
X103325964Y-87098810D01*
X103253392Y-87038333D01*
X103180821Y-86917381D01*
X103180821Y-86796429D01*
X103253392Y-86675476D01*
X103325964Y-86615000D01*
X103471106Y-86554524D01*
X103833964Y-86554524D01*
X104051678Y-86615000D01*
X104995107Y-86554524D02*
X105140250Y-86554524D01*
X105285393Y-86615000D01*
X105357964Y-86675476D01*
X105430535Y-86796429D01*
X105503107Y-87038333D01*
X105503107Y-87340714D01*
X105430535Y-87582619D01*
X105357964Y-87703571D01*
X105285393Y-87764048D01*
X105140250Y-87824524D01*
X104995107Y-87824524D01*
X104849964Y-87764048D01*
X104777393Y-87703571D01*
X104704821Y-87582619D01*
X104632250Y-87340714D01*
X104632250Y-87038333D01*
X104704821Y-86796429D01*
X104777393Y-86675476D01*
X104849964Y-86615000D01*
X104995107Y-86554524D01*
X106881964Y-86554524D02*
X106156250Y-86554524D01*
X106083679Y-87159286D01*
X106156250Y-87098810D01*
X106301393Y-87038333D01*
X106664250Y-87038333D01*
X106809393Y-87098810D01*
X106881964Y-87159286D01*
X106954536Y-87280238D01*
X106954536Y-87582619D01*
X106881964Y-87703571D01*
X106809393Y-87764048D01*
X106664250Y-87824524D01*
X106301393Y-87824524D01*
X106156250Y-87764048D01*
X106083679Y-87703571D01*
X107607679Y-87703571D02*
X107680251Y-87764048D01*
X107607679Y-87824524D01*
X107535108Y-87764048D01*
X107607679Y-87703571D01*
X107607679Y-87824524D01*
X107607679Y-87038333D02*
X107680251Y-87098810D01*
X107607679Y-87159286D01*
X107535108Y-87098810D01*
X107607679Y-87038333D01*
X107607679Y-87159286D01*
X108260822Y-86675476D02*
X108333393Y-86615000D01*
X108478536Y-86554524D01*
X108841393Y-86554524D01*
X108986536Y-86615000D01*
X109059107Y-86675476D01*
X109131679Y-86796429D01*
X109131679Y-86917381D01*
X109059107Y-87098810D01*
X108188250Y-87824524D01*
X109131679Y-87824524D01*
X106373964Y-103159286D02*
X105865964Y-103159286D01*
X105865964Y-103824524D02*
X105865964Y-102554524D01*
X106591678Y-102554524D01*
X112705821Y-106814048D02*
X112923535Y-106874524D01*
X113286392Y-106874524D01*
X113431535Y-106814048D01*
X113504106Y-106753571D01*
X113576678Y-106632619D01*
X113576678Y-106511667D01*
X113504106Y-106390714D01*
X113431535Y-106330238D01*
X113286392Y-106269762D01*
X112996106Y-106209286D01*
X112850964Y-106148810D01*
X112778392Y-106088333D01*
X112705821Y-105967381D01*
X112705821Y-105846429D01*
X112778392Y-105725476D01*
X112850964Y-105665000D01*
X112996106Y-105604524D01*
X113358964Y-105604524D01*
X113576678Y-105665000D01*
X114520107Y-105604524D02*
X114665250Y-105604524D01*
X114810393Y-105665000D01*
X114882964Y-105725476D01*
X114955535Y-105846429D01*
X115028107Y-106088333D01*
X115028107Y-106390714D01*
X114955535Y-106632619D01*
X114882964Y-106753571D01*
X114810393Y-106814048D01*
X114665250Y-106874524D01*
X114520107Y-106874524D01*
X114374964Y-106814048D01*
X114302393Y-106753571D01*
X114229821Y-106632619D01*
X114157250Y-106390714D01*
X114157250Y-106088333D01*
X114229821Y-105846429D01*
X114302393Y-105725476D01*
X114374964Y-105665000D01*
X114520107Y-105604524D01*
X116406964Y-105604524D02*
X115681250Y-105604524D01*
X115608679Y-106209286D01*
X115681250Y-106148810D01*
X115826393Y-106088333D01*
X116189250Y-106088333D01*
X116334393Y-106148810D01*
X116406964Y-106209286D01*
X116479536Y-106330238D01*
X116479536Y-106632619D01*
X116406964Y-106753571D01*
X116334393Y-106814048D01*
X116189250Y-106874524D01*
X115826393Y-106874524D01*
X115681250Y-106814048D01*
X115608679Y-106753571D01*
X117132679Y-106753571D02*
X117205251Y-106814048D01*
X117132679Y-106874524D01*
X117060108Y-106814048D01*
X117132679Y-106753571D01*
X117132679Y-106874524D01*
X117132679Y-106088333D02*
X117205251Y-106148810D01*
X117132679Y-106209286D01*
X117060108Y-106148810D01*
X117132679Y-106088333D01*
X117132679Y-106209286D01*
X117713250Y-105604524D02*
X118656679Y-105604524D01*
X118148679Y-106088333D01*
X118366393Y-106088333D01*
X118511536Y-106148810D01*
X118584107Y-106209286D01*
X118656679Y-106330238D01*
X118656679Y-106632619D01*
X118584107Y-106753571D01*
X118511536Y-106814048D01*
X118366393Y-106874524D01*
X117930965Y-106874524D01*
X117785822Y-106814048D01*
X117713250Y-106753571D01*
X115173250Y-121604524D02*
X115681250Y-122874524D01*
X116189250Y-121604524D01*
X103180821Y-125864048D02*
X103398535Y-125924524D01*
X103761392Y-125924524D01*
X103906535Y-125864048D01*
X103979106Y-125803571D01*
X104051678Y-125682619D01*
X104051678Y-125561667D01*
X103979106Y-125440714D01*
X103906535Y-125380238D01*
X103761392Y-125319762D01*
X103471106Y-125259286D01*
X103325964Y-125198810D01*
X103253392Y-125138333D01*
X103180821Y-125017381D01*
X103180821Y-124896429D01*
X103253392Y-124775476D01*
X103325964Y-124715000D01*
X103471106Y-124654524D01*
X103833964Y-124654524D01*
X104051678Y-124715000D01*
X104995107Y-124654524D02*
X105140250Y-124654524D01*
X105285393Y-124715000D01*
X105357964Y-124775476D01*
X105430535Y-124896429D01*
X105503107Y-125138333D01*
X105503107Y-125440714D01*
X105430535Y-125682619D01*
X105357964Y-125803571D01*
X105285393Y-125864048D01*
X105140250Y-125924524D01*
X104995107Y-125924524D01*
X104849964Y-125864048D01*
X104777393Y-125803571D01*
X104704821Y-125682619D01*
X104632250Y-125440714D01*
X104632250Y-125138333D01*
X104704821Y-124896429D01*
X104777393Y-124775476D01*
X104849964Y-124715000D01*
X104995107Y-124654524D01*
X106881964Y-124654524D02*
X106156250Y-124654524D01*
X106083679Y-125259286D01*
X106156250Y-125198810D01*
X106301393Y-125138333D01*
X106664250Y-125138333D01*
X106809393Y-125198810D01*
X106881964Y-125259286D01*
X106954536Y-125380238D01*
X106954536Y-125682619D01*
X106881964Y-125803571D01*
X106809393Y-125864048D01*
X106664250Y-125924524D01*
X106301393Y-125924524D01*
X106156250Y-125864048D01*
X106083679Y-125803571D01*
X107607679Y-125803571D02*
X107680251Y-125864048D01*
X107607679Y-125924524D01*
X107535108Y-125864048D01*
X107607679Y-125803571D01*
X107607679Y-125924524D01*
X107607679Y-125138333D02*
X107680251Y-125198810D01*
X107607679Y-125259286D01*
X107535108Y-125198810D01*
X107607679Y-125138333D01*
X107607679Y-125259286D01*
X108986536Y-125077857D02*
X108986536Y-125924524D01*
X108623679Y-124594048D02*
X108260822Y-125501190D01*
X109204250Y-125501190D01*
X102455107Y-141924524D02*
X101729393Y-141924524D01*
X101729393Y-140654524D01*
X102600250Y-142045476D02*
X103761393Y-142045476D01*
X104051679Y-141864048D02*
X104269393Y-141924524D01*
X104632250Y-141924524D01*
X104777393Y-141864048D01*
X104849964Y-141803571D01*
X104922536Y-141682619D01*
X104922536Y-141561667D01*
X104849964Y-141440714D01*
X104777393Y-141380238D01*
X104632250Y-141319762D01*
X104341964Y-141259286D01*
X104196822Y-141198810D01*
X104124250Y-141138333D01*
X104051679Y-141017381D01*
X104051679Y-140896429D01*
X104124250Y-140775476D01*
X104196822Y-140715000D01*
X104341964Y-140654524D01*
X104704822Y-140654524D01*
X104922536Y-140715000D01*
X105575679Y-141924524D02*
X105575679Y-140654524D01*
X106156251Y-140654524D01*
X106301393Y-140715000D01*
X106373965Y-140775476D01*
X106446536Y-140896429D01*
X106446536Y-141077857D01*
X106373965Y-141198810D01*
X106301393Y-141259286D01*
X106156251Y-141319762D01*
X105575679Y-141319762D01*
X107027108Y-141561667D02*
X107752822Y-141561667D01*
X106881965Y-141924524D02*
X107389965Y-140654524D01*
X107897965Y-141924524D01*
X109276822Y-141803571D02*
X109204251Y-141864048D01*
X108986537Y-141924524D01*
X108841394Y-141924524D01*
X108623679Y-141864048D01*
X108478537Y-141743095D01*
X108405965Y-141622143D01*
X108333394Y-141380238D01*
X108333394Y-141198810D01*
X108405965Y-140956905D01*
X108478537Y-140835952D01*
X108623679Y-140715000D01*
X108841394Y-140654524D01*
X108986537Y-140654524D01*
X109204251Y-140715000D01*
X109276822Y-140775476D01*
X109929965Y-141259286D02*
X110437965Y-141259286D01*
X110655679Y-141924524D02*
X109929965Y-141924524D01*
X109929965Y-140654524D01*
X110655679Y-140654524D01*
X117468321Y-68714048D02*
X117686035Y-68774524D01*
X118048892Y-68774524D01*
X118194035Y-68714048D01*
X118266606Y-68653571D01*
X118339178Y-68532619D01*
X118339178Y-68411667D01*
X118266606Y-68290714D01*
X118194035Y-68230238D01*
X118048892Y-68169762D01*
X117758606Y-68109286D01*
X117613464Y-68048810D01*
X117540892Y-67988333D01*
X117468321Y-67867381D01*
X117468321Y-67746429D01*
X117540892Y-67625476D01*
X117613464Y-67565000D01*
X117758606Y-67504524D01*
X118121464Y-67504524D01*
X118339178Y-67565000D01*
X119282607Y-67504524D02*
X119427750Y-67504524D01*
X119572893Y-67565000D01*
X119645464Y-67625476D01*
X119718035Y-67746429D01*
X119790607Y-67988333D01*
X119790607Y-68290714D01*
X119718035Y-68532619D01*
X119645464Y-68653571D01*
X119572893Y-68714048D01*
X119427750Y-68774524D01*
X119282607Y-68774524D01*
X119137464Y-68714048D01*
X119064893Y-68653571D01*
X118992321Y-68532619D01*
X118919750Y-68290714D01*
X118919750Y-67988333D01*
X118992321Y-67746429D01*
X119064893Y-67625476D01*
X119137464Y-67565000D01*
X119282607Y-67504524D01*
X121096893Y-67504524D02*
X120806607Y-67504524D01*
X120661464Y-67565000D01*
X120588893Y-67625476D01*
X120443750Y-67806905D01*
X120371179Y-68048810D01*
X120371179Y-68532619D01*
X120443750Y-68653571D01*
X120516322Y-68714048D01*
X120661464Y-68774524D01*
X120951750Y-68774524D01*
X121096893Y-68714048D01*
X121169464Y-68653571D01*
X121242036Y-68532619D01*
X121242036Y-68230238D01*
X121169464Y-68109286D01*
X121096893Y-68048810D01*
X120951750Y-67988333D01*
X120661464Y-67988333D01*
X120516322Y-68048810D01*
X120443750Y-68109286D01*
X120371179Y-68230238D01*
X121895179Y-68653571D02*
X121967751Y-68714048D01*
X121895179Y-68774524D01*
X121822608Y-68714048D01*
X121895179Y-68653571D01*
X121895179Y-68774524D01*
X121895179Y-67988333D02*
X121967751Y-68048810D01*
X121895179Y-68109286D01*
X121822608Y-68048810D01*
X121895179Y-67988333D01*
X121895179Y-68109286D01*
X123419179Y-68774524D02*
X122548322Y-68774524D01*
X122983750Y-68774524D02*
X122983750Y-67504524D01*
X122838607Y-67685952D01*
X122693465Y-67806905D01*
X122548322Y-67867381D01*
X120008322Y-83504524D02*
X120879179Y-83504524D01*
X120443750Y-84774524D02*
X120443750Y-83504524D01*
X122230821Y-87764048D02*
X122448535Y-87824524D01*
X122811392Y-87824524D01*
X122956535Y-87764048D01*
X123029106Y-87703571D01*
X123101678Y-87582619D01*
X123101678Y-87461667D01*
X123029106Y-87340714D01*
X122956535Y-87280238D01*
X122811392Y-87219762D01*
X122521106Y-87159286D01*
X122375964Y-87098810D01*
X122303392Y-87038333D01*
X122230821Y-86917381D01*
X122230821Y-86796429D01*
X122303392Y-86675476D01*
X122375964Y-86615000D01*
X122521106Y-86554524D01*
X122883964Y-86554524D01*
X123101678Y-86615000D01*
X124045107Y-86554524D02*
X124190250Y-86554524D01*
X124335393Y-86615000D01*
X124407964Y-86675476D01*
X124480535Y-86796429D01*
X124553107Y-87038333D01*
X124553107Y-87340714D01*
X124480535Y-87582619D01*
X124407964Y-87703571D01*
X124335393Y-87764048D01*
X124190250Y-87824524D01*
X124045107Y-87824524D01*
X123899964Y-87764048D01*
X123827393Y-87703571D01*
X123754821Y-87582619D01*
X123682250Y-87340714D01*
X123682250Y-87038333D01*
X123754821Y-86796429D01*
X123827393Y-86675476D01*
X123899964Y-86615000D01*
X124045107Y-86554524D01*
X125859393Y-86554524D02*
X125569107Y-86554524D01*
X125423964Y-86615000D01*
X125351393Y-86675476D01*
X125206250Y-86856905D01*
X125133679Y-87098810D01*
X125133679Y-87582619D01*
X125206250Y-87703571D01*
X125278822Y-87764048D01*
X125423964Y-87824524D01*
X125714250Y-87824524D01*
X125859393Y-87764048D01*
X125931964Y-87703571D01*
X126004536Y-87582619D01*
X126004536Y-87280238D01*
X125931964Y-87159286D01*
X125859393Y-87098810D01*
X125714250Y-87038333D01*
X125423964Y-87038333D01*
X125278822Y-87098810D01*
X125206250Y-87159286D01*
X125133679Y-87280238D01*
X126657679Y-87703571D02*
X126730251Y-87764048D01*
X126657679Y-87824524D01*
X126585108Y-87764048D01*
X126657679Y-87703571D01*
X126657679Y-87824524D01*
X126657679Y-87038333D02*
X126730251Y-87098810D01*
X126657679Y-87159286D01*
X126585108Y-87098810D01*
X126657679Y-87038333D01*
X126657679Y-87159286D01*
X127310822Y-86675476D02*
X127383393Y-86615000D01*
X127528536Y-86554524D01*
X127891393Y-86554524D01*
X128036536Y-86615000D01*
X128109107Y-86675476D01*
X128181679Y-86796429D01*
X128181679Y-86917381D01*
X128109107Y-87098810D01*
X127238250Y-87824524D01*
X128181679Y-87824524D01*
X125605393Y-102615000D02*
X125460250Y-102554524D01*
X125242536Y-102554524D01*
X125024821Y-102615000D01*
X124879679Y-102735952D01*
X124807107Y-102856905D01*
X124734536Y-103098810D01*
X124734536Y-103280238D01*
X124807107Y-103522143D01*
X124879679Y-103643095D01*
X125024821Y-103764048D01*
X125242536Y-103824524D01*
X125387679Y-103824524D01*
X125605393Y-103764048D01*
X125677964Y-103703571D01*
X125677964Y-103280238D01*
X125387679Y-103280238D01*
X131755821Y-106814048D02*
X131973535Y-106874524D01*
X132336392Y-106874524D01*
X132481535Y-106814048D01*
X132554106Y-106753571D01*
X132626678Y-106632619D01*
X132626678Y-106511667D01*
X132554106Y-106390714D01*
X132481535Y-106330238D01*
X132336392Y-106269762D01*
X132046106Y-106209286D01*
X131900964Y-106148810D01*
X131828392Y-106088333D01*
X131755821Y-105967381D01*
X131755821Y-105846429D01*
X131828392Y-105725476D01*
X131900964Y-105665000D01*
X132046106Y-105604524D01*
X132408964Y-105604524D01*
X132626678Y-105665000D01*
X133570107Y-105604524D02*
X133715250Y-105604524D01*
X133860393Y-105665000D01*
X133932964Y-105725476D01*
X134005535Y-105846429D01*
X134078107Y-106088333D01*
X134078107Y-106390714D01*
X134005535Y-106632619D01*
X133932964Y-106753571D01*
X133860393Y-106814048D01*
X133715250Y-106874524D01*
X133570107Y-106874524D01*
X133424964Y-106814048D01*
X133352393Y-106753571D01*
X133279821Y-106632619D01*
X133207250Y-106390714D01*
X133207250Y-106088333D01*
X133279821Y-105846429D01*
X133352393Y-105725476D01*
X133424964Y-105665000D01*
X133570107Y-105604524D01*
X135384393Y-105604524D02*
X135094107Y-105604524D01*
X134948964Y-105665000D01*
X134876393Y-105725476D01*
X134731250Y-105906905D01*
X134658679Y-106148810D01*
X134658679Y-106632619D01*
X134731250Y-106753571D01*
X134803822Y-106814048D01*
X134948964Y-106874524D01*
X135239250Y-106874524D01*
X135384393Y-106814048D01*
X135456964Y-106753571D01*
X135529536Y-106632619D01*
X135529536Y-106330238D01*
X135456964Y-106209286D01*
X135384393Y-106148810D01*
X135239250Y-106088333D01*
X134948964Y-106088333D01*
X134803822Y-106148810D01*
X134731250Y-106209286D01*
X134658679Y-106330238D01*
X136182679Y-106753571D02*
X136255251Y-106814048D01*
X136182679Y-106874524D01*
X136110108Y-106814048D01*
X136182679Y-106753571D01*
X136182679Y-106874524D01*
X136182679Y-106088333D02*
X136255251Y-106148810D01*
X136182679Y-106209286D01*
X136110108Y-106148810D01*
X136182679Y-106088333D01*
X136182679Y-106209286D01*
X136763250Y-105604524D02*
X137706679Y-105604524D01*
X137198679Y-106088333D01*
X137416393Y-106088333D01*
X137561536Y-106148810D01*
X137634107Y-106209286D01*
X137706679Y-106330238D01*
X137706679Y-106632619D01*
X137634107Y-106753571D01*
X137561536Y-106814048D01*
X137416393Y-106874524D01*
X136980965Y-106874524D01*
X136835822Y-106814048D01*
X136763250Y-106753571D01*
X134840107Y-122209286D02*
X135057821Y-122269762D01*
X135130393Y-122330238D01*
X135202964Y-122451190D01*
X135202964Y-122632619D01*
X135130393Y-122753571D01*
X135057821Y-122814048D01*
X134912679Y-122874524D01*
X134332107Y-122874524D01*
X134332107Y-121604524D01*
X134840107Y-121604524D01*
X134985250Y-121665000D01*
X135057821Y-121725476D01*
X135130393Y-121846429D01*
X135130393Y-121967381D01*
X135057821Y-122088333D01*
X134985250Y-122148810D01*
X134840107Y-122209286D01*
X134332107Y-122209286D01*
X131755821Y-125864048D02*
X131973535Y-125924524D01*
X132336392Y-125924524D01*
X132481535Y-125864048D01*
X132554106Y-125803571D01*
X132626678Y-125682619D01*
X132626678Y-125561667D01*
X132554106Y-125440714D01*
X132481535Y-125380238D01*
X132336392Y-125319762D01*
X132046106Y-125259286D01*
X131900964Y-125198810D01*
X131828392Y-125138333D01*
X131755821Y-125017381D01*
X131755821Y-124896429D01*
X131828392Y-124775476D01*
X131900964Y-124715000D01*
X132046106Y-124654524D01*
X132408964Y-124654524D01*
X132626678Y-124715000D01*
X133570107Y-124654524D02*
X133715250Y-124654524D01*
X133860393Y-124715000D01*
X133932964Y-124775476D01*
X134005535Y-124896429D01*
X134078107Y-125138333D01*
X134078107Y-125440714D01*
X134005535Y-125682619D01*
X133932964Y-125803571D01*
X133860393Y-125864048D01*
X133715250Y-125924524D01*
X133570107Y-125924524D01*
X133424964Y-125864048D01*
X133352393Y-125803571D01*
X133279821Y-125682619D01*
X133207250Y-125440714D01*
X133207250Y-125138333D01*
X133279821Y-124896429D01*
X133352393Y-124775476D01*
X133424964Y-124715000D01*
X133570107Y-124654524D01*
X135384393Y-124654524D02*
X135094107Y-124654524D01*
X134948964Y-124715000D01*
X134876393Y-124775476D01*
X134731250Y-124956905D01*
X134658679Y-125198810D01*
X134658679Y-125682619D01*
X134731250Y-125803571D01*
X134803822Y-125864048D01*
X134948964Y-125924524D01*
X135239250Y-125924524D01*
X135384393Y-125864048D01*
X135456964Y-125803571D01*
X135529536Y-125682619D01*
X135529536Y-125380238D01*
X135456964Y-125259286D01*
X135384393Y-125198810D01*
X135239250Y-125138333D01*
X134948964Y-125138333D01*
X134803822Y-125198810D01*
X134731250Y-125259286D01*
X134658679Y-125380238D01*
X136182679Y-125803571D02*
X136255251Y-125864048D01*
X136182679Y-125924524D01*
X136110108Y-125864048D01*
X136182679Y-125803571D01*
X136182679Y-125924524D01*
X136182679Y-125138333D02*
X136255251Y-125198810D01*
X136182679Y-125259286D01*
X136110108Y-125198810D01*
X136182679Y-125138333D01*
X136182679Y-125259286D01*
X137561536Y-125077857D02*
X137561536Y-125924524D01*
X137198679Y-124594048D02*
X136835822Y-125501190D01*
X137779250Y-125501190D01*
X131429250Y-141924524D02*
X131429250Y-140654524D01*
X131429250Y-141259286D02*
X132300107Y-141259286D01*
X132300107Y-141924524D02*
X132300107Y-140654524D01*
X133316107Y-141319762D02*
X133316107Y-141924524D01*
X132808107Y-140654524D02*
X133316107Y-141319762D01*
X133824107Y-140654524D01*
X134332107Y-141924524D02*
X134332107Y-140654524D01*
X134912679Y-140654524D01*
X135057821Y-140715000D01*
X135130393Y-140775476D01*
X135202964Y-140896429D01*
X135202964Y-141077857D01*
X135130393Y-141198810D01*
X135057821Y-141259286D01*
X134912679Y-141319762D01*
X134332107Y-141319762D01*
X135856107Y-141259286D02*
X136364107Y-141259286D01*
X136581821Y-141924524D02*
X135856107Y-141924524D01*
X135856107Y-140654524D01*
X136581821Y-140654524D01*
X138105821Y-141924524D02*
X137597821Y-141319762D01*
X137234964Y-141924524D02*
X137234964Y-140654524D01*
X137815536Y-140654524D01*
X137960678Y-140715000D01*
X138033250Y-140775476D01*
X138105821Y-140896429D01*
X138105821Y-141077857D01*
X138033250Y-141198810D01*
X137960678Y-141259286D01*
X137815536Y-141319762D01*
X137234964Y-141319762D01*
X136518321Y-68714048D02*
X136736035Y-68774524D01*
X137098892Y-68774524D01*
X137244035Y-68714048D01*
X137316606Y-68653571D01*
X137389178Y-68532619D01*
X137389178Y-68411667D01*
X137316606Y-68290714D01*
X137244035Y-68230238D01*
X137098892Y-68169762D01*
X136808606Y-68109286D01*
X136663464Y-68048810D01*
X136590892Y-67988333D01*
X136518321Y-67867381D01*
X136518321Y-67746429D01*
X136590892Y-67625476D01*
X136663464Y-67565000D01*
X136808606Y-67504524D01*
X137171464Y-67504524D01*
X137389178Y-67565000D01*
X138332607Y-67504524D02*
X138477750Y-67504524D01*
X138622893Y-67565000D01*
X138695464Y-67625476D01*
X138768035Y-67746429D01*
X138840607Y-67988333D01*
X138840607Y-68290714D01*
X138768035Y-68532619D01*
X138695464Y-68653571D01*
X138622893Y-68714048D01*
X138477750Y-68774524D01*
X138332607Y-68774524D01*
X138187464Y-68714048D01*
X138114893Y-68653571D01*
X138042321Y-68532619D01*
X137969750Y-68290714D01*
X137969750Y-67988333D01*
X138042321Y-67746429D01*
X138114893Y-67625476D01*
X138187464Y-67565000D01*
X138332607Y-67504524D01*
X139348607Y-67504524D02*
X140364607Y-67504524D01*
X139711464Y-68774524D01*
X140945179Y-68653571D02*
X141017751Y-68714048D01*
X140945179Y-68774524D01*
X140872608Y-68714048D01*
X140945179Y-68653571D01*
X140945179Y-68774524D01*
X140945179Y-67988333D02*
X141017751Y-68048810D01*
X140945179Y-68109286D01*
X140872608Y-68048810D01*
X140945179Y-67988333D01*
X140945179Y-68109286D01*
X142469179Y-68774524D02*
X141598322Y-68774524D01*
X142033750Y-68774524D02*
X142033750Y-67504524D01*
X141888607Y-67685952D01*
X141743465Y-67806905D01*
X141598322Y-67867381D01*
X139493750Y-84169762D02*
X139493750Y-84774524D01*
X138985750Y-83504524D02*
X139493750Y-84169762D01*
X140001750Y-83504524D01*
X141280821Y-87764048D02*
X141498535Y-87824524D01*
X141861392Y-87824524D01*
X142006535Y-87764048D01*
X142079106Y-87703571D01*
X142151678Y-87582619D01*
X142151678Y-87461667D01*
X142079106Y-87340714D01*
X142006535Y-87280238D01*
X141861392Y-87219762D01*
X141571106Y-87159286D01*
X141425964Y-87098810D01*
X141353392Y-87038333D01*
X141280821Y-86917381D01*
X141280821Y-86796429D01*
X141353392Y-86675476D01*
X141425964Y-86615000D01*
X141571106Y-86554524D01*
X141933964Y-86554524D01*
X142151678Y-86615000D01*
X143095107Y-86554524D02*
X143240250Y-86554524D01*
X143385393Y-86615000D01*
X143457964Y-86675476D01*
X143530535Y-86796429D01*
X143603107Y-87038333D01*
X143603107Y-87340714D01*
X143530535Y-87582619D01*
X143457964Y-87703571D01*
X143385393Y-87764048D01*
X143240250Y-87824524D01*
X143095107Y-87824524D01*
X142949964Y-87764048D01*
X142877393Y-87703571D01*
X142804821Y-87582619D01*
X142732250Y-87340714D01*
X142732250Y-87038333D01*
X142804821Y-86796429D01*
X142877393Y-86675476D01*
X142949964Y-86615000D01*
X143095107Y-86554524D01*
X144111107Y-86554524D02*
X145127107Y-86554524D01*
X144473964Y-87824524D01*
X145707679Y-87703571D02*
X145780251Y-87764048D01*
X145707679Y-87824524D01*
X145635108Y-87764048D01*
X145707679Y-87703571D01*
X145707679Y-87824524D01*
X145707679Y-87038333D02*
X145780251Y-87098810D01*
X145707679Y-87159286D01*
X145635108Y-87098810D01*
X145707679Y-87038333D01*
X145707679Y-87159286D01*
X146360822Y-86675476D02*
X146433393Y-86615000D01*
X146578536Y-86554524D01*
X146941393Y-86554524D01*
X147086536Y-86615000D01*
X147159107Y-86675476D01*
X147231679Y-86796429D01*
X147231679Y-86917381D01*
X147159107Y-87098810D01*
X146288250Y-87824524D01*
X147231679Y-87824524D01*
X143820822Y-103824524D02*
X143820822Y-102554524D01*
X143820822Y-103159286D02*
X144691679Y-103159286D01*
X144691679Y-103824524D02*
X144691679Y-102554524D01*
X150805821Y-106814048D02*
X151023535Y-106874524D01*
X151386392Y-106874524D01*
X151531535Y-106814048D01*
X151604106Y-106753571D01*
X151676678Y-106632619D01*
X151676678Y-106511667D01*
X151604106Y-106390714D01*
X151531535Y-106330238D01*
X151386392Y-106269762D01*
X151096106Y-106209286D01*
X150950964Y-106148810D01*
X150878392Y-106088333D01*
X150805821Y-105967381D01*
X150805821Y-105846429D01*
X150878392Y-105725476D01*
X150950964Y-105665000D01*
X151096106Y-105604524D01*
X151458964Y-105604524D01*
X151676678Y-105665000D01*
X152620107Y-105604524D02*
X152765250Y-105604524D01*
X152910393Y-105665000D01*
X152982964Y-105725476D01*
X153055535Y-105846429D01*
X153128107Y-106088333D01*
X153128107Y-106390714D01*
X153055535Y-106632619D01*
X152982964Y-106753571D01*
X152910393Y-106814048D01*
X152765250Y-106874524D01*
X152620107Y-106874524D01*
X152474964Y-106814048D01*
X152402393Y-106753571D01*
X152329821Y-106632619D01*
X152257250Y-106390714D01*
X152257250Y-106088333D01*
X152329821Y-105846429D01*
X152402393Y-105725476D01*
X152474964Y-105665000D01*
X152620107Y-105604524D01*
X153636107Y-105604524D02*
X154652107Y-105604524D01*
X153998964Y-106874524D01*
X155232679Y-106753571D02*
X155305251Y-106814048D01*
X155232679Y-106874524D01*
X155160108Y-106814048D01*
X155232679Y-106753571D01*
X155232679Y-106874524D01*
X155232679Y-106088333D02*
X155305251Y-106148810D01*
X155232679Y-106209286D01*
X155160108Y-106148810D01*
X155232679Y-106088333D01*
X155232679Y-106209286D01*
X155813250Y-105604524D02*
X156756679Y-105604524D01*
X156248679Y-106088333D01*
X156466393Y-106088333D01*
X156611536Y-106148810D01*
X156684107Y-106209286D01*
X156756679Y-106330238D01*
X156756679Y-106632619D01*
X156684107Y-106753571D01*
X156611536Y-106814048D01*
X156466393Y-106874524D01*
X156030965Y-106874524D01*
X155885822Y-106814048D01*
X155813250Y-106753571D01*
X153345822Y-122874524D02*
X153345822Y-121604524D01*
X154216679Y-122874524D01*
X154216679Y-121604524D01*
X160330821Y-125864048D02*
X160548535Y-125924524D01*
X160911392Y-125924524D01*
X161056535Y-125864048D01*
X161129106Y-125803571D01*
X161201678Y-125682619D01*
X161201678Y-125561667D01*
X161129106Y-125440714D01*
X161056535Y-125380238D01*
X160911392Y-125319762D01*
X160621106Y-125259286D01*
X160475964Y-125198810D01*
X160403392Y-125138333D01*
X160330821Y-125017381D01*
X160330821Y-124896429D01*
X160403392Y-124775476D01*
X160475964Y-124715000D01*
X160621106Y-124654524D01*
X160983964Y-124654524D01*
X161201678Y-124715000D01*
X162145107Y-124654524D02*
X162290250Y-124654524D01*
X162435393Y-124715000D01*
X162507964Y-124775476D01*
X162580535Y-124896429D01*
X162653107Y-125138333D01*
X162653107Y-125440714D01*
X162580535Y-125682619D01*
X162507964Y-125803571D01*
X162435393Y-125864048D01*
X162290250Y-125924524D01*
X162145107Y-125924524D01*
X161999964Y-125864048D01*
X161927393Y-125803571D01*
X161854821Y-125682619D01*
X161782250Y-125440714D01*
X161782250Y-125138333D01*
X161854821Y-124896429D01*
X161927393Y-124775476D01*
X161999964Y-124715000D01*
X162145107Y-124654524D01*
X163161107Y-124654524D02*
X164177107Y-124654524D01*
X163523964Y-125924524D01*
X164757679Y-125803571D02*
X164830251Y-125864048D01*
X164757679Y-125924524D01*
X164685108Y-125864048D01*
X164757679Y-125803571D01*
X164757679Y-125924524D01*
X164757679Y-125138333D02*
X164830251Y-125198810D01*
X164757679Y-125259286D01*
X164685108Y-125198810D01*
X164757679Y-125138333D01*
X164757679Y-125259286D01*
X166136536Y-125077857D02*
X166136536Y-125924524D01*
X165773679Y-124594048D02*
X165410822Y-125501190D01*
X166354250Y-125501190D01*
X159605107Y-141924524D02*
X159097107Y-141319762D01*
X158734250Y-141924524D02*
X158734250Y-140654524D01*
X159314822Y-140654524D01*
X159459964Y-140715000D01*
X159532536Y-140775476D01*
X159605107Y-140896429D01*
X159605107Y-141077857D01*
X159532536Y-141198810D01*
X159459964Y-141259286D01*
X159314822Y-141319762D01*
X158734250Y-141319762D01*
X159895393Y-142045476D02*
X161056536Y-142045476D01*
X161346822Y-141864048D02*
X161564536Y-141924524D01*
X161927393Y-141924524D01*
X162072536Y-141864048D01*
X162145107Y-141803571D01*
X162217679Y-141682619D01*
X162217679Y-141561667D01*
X162145107Y-141440714D01*
X162072536Y-141380238D01*
X161927393Y-141319762D01*
X161637107Y-141259286D01*
X161491965Y-141198810D01*
X161419393Y-141138333D01*
X161346822Y-141017381D01*
X161346822Y-140896429D01*
X161419393Y-140775476D01*
X161491965Y-140715000D01*
X161637107Y-140654524D01*
X161999965Y-140654524D01*
X162217679Y-140715000D01*
X162870822Y-141924524D02*
X162870822Y-140654524D01*
X163451394Y-140654524D01*
X163596536Y-140715000D01*
X163669108Y-140775476D01*
X163741679Y-140896429D01*
X163741679Y-141077857D01*
X163669108Y-141198810D01*
X163596536Y-141259286D01*
X163451394Y-141319762D01*
X162870822Y-141319762D01*
X164322251Y-141561667D02*
X165047965Y-141561667D01*
X164177108Y-141924524D02*
X164685108Y-140654524D01*
X165193108Y-141924524D01*
X166571965Y-141803571D02*
X166499394Y-141864048D01*
X166281680Y-141924524D01*
X166136537Y-141924524D01*
X165918822Y-141864048D01*
X165773680Y-141743095D01*
X165701108Y-141622143D01*
X165628537Y-141380238D01*
X165628537Y-141198810D01*
X165701108Y-140956905D01*
X165773680Y-140835952D01*
X165918822Y-140715000D01*
X166136537Y-140654524D01*
X166281680Y-140654524D01*
X166499394Y-140715000D01*
X166571965Y-140775476D01*
X167225108Y-141259286D02*
X167733108Y-141259286D01*
X167950822Y-141924524D02*
X167225108Y-141924524D01*
X167225108Y-140654524D01*
X167950822Y-140654524D01*
X155568321Y-68714048D02*
X155786035Y-68774524D01*
X156148892Y-68774524D01*
X156294035Y-68714048D01*
X156366606Y-68653571D01*
X156439178Y-68532619D01*
X156439178Y-68411667D01*
X156366606Y-68290714D01*
X156294035Y-68230238D01*
X156148892Y-68169762D01*
X155858606Y-68109286D01*
X155713464Y-68048810D01*
X155640892Y-67988333D01*
X155568321Y-67867381D01*
X155568321Y-67746429D01*
X155640892Y-67625476D01*
X155713464Y-67565000D01*
X155858606Y-67504524D01*
X156221464Y-67504524D01*
X156439178Y-67565000D01*
X157382607Y-67504524D02*
X157527750Y-67504524D01*
X157672893Y-67565000D01*
X157745464Y-67625476D01*
X157818035Y-67746429D01*
X157890607Y-67988333D01*
X157890607Y-68290714D01*
X157818035Y-68532619D01*
X157745464Y-68653571D01*
X157672893Y-68714048D01*
X157527750Y-68774524D01*
X157382607Y-68774524D01*
X157237464Y-68714048D01*
X157164893Y-68653571D01*
X157092321Y-68532619D01*
X157019750Y-68290714D01*
X157019750Y-67988333D01*
X157092321Y-67746429D01*
X157164893Y-67625476D01*
X157237464Y-67565000D01*
X157382607Y-67504524D01*
X158761464Y-68048810D02*
X158616322Y-67988333D01*
X158543750Y-67927857D01*
X158471179Y-67806905D01*
X158471179Y-67746429D01*
X158543750Y-67625476D01*
X158616322Y-67565000D01*
X158761464Y-67504524D01*
X159051750Y-67504524D01*
X159196893Y-67565000D01*
X159269464Y-67625476D01*
X159342036Y-67746429D01*
X159342036Y-67806905D01*
X159269464Y-67927857D01*
X159196893Y-67988333D01*
X159051750Y-68048810D01*
X158761464Y-68048810D01*
X158616322Y-68109286D01*
X158543750Y-68169762D01*
X158471179Y-68290714D01*
X158471179Y-68532619D01*
X158543750Y-68653571D01*
X158616322Y-68714048D01*
X158761464Y-68774524D01*
X159051750Y-68774524D01*
X159196893Y-68714048D01*
X159269464Y-68653571D01*
X159342036Y-68532619D01*
X159342036Y-68290714D01*
X159269464Y-68169762D01*
X159196893Y-68109286D01*
X159051750Y-68048810D01*
X159995179Y-68653571D02*
X160067751Y-68714048D01*
X159995179Y-68774524D01*
X159922608Y-68714048D01*
X159995179Y-68653571D01*
X159995179Y-68774524D01*
X159995179Y-67988333D02*
X160067751Y-68048810D01*
X159995179Y-68109286D01*
X159922608Y-68048810D01*
X159995179Y-67988333D01*
X159995179Y-68109286D01*
X161519179Y-68774524D02*
X160648322Y-68774524D01*
X161083750Y-68774524D02*
X161083750Y-67504524D01*
X160938607Y-67685952D01*
X160793465Y-67806905D01*
X160648322Y-67867381D01*
X158108322Y-83504524D02*
X158108322Y-84532619D01*
X158180894Y-84653571D01*
X158253465Y-84714048D01*
X158398608Y-84774524D01*
X158688894Y-84774524D01*
X158834036Y-84714048D01*
X158906608Y-84653571D01*
X158979179Y-84532619D01*
X158979179Y-83504524D01*
X160330821Y-87764048D02*
X160548535Y-87824524D01*
X160911392Y-87824524D01*
X161056535Y-87764048D01*
X161129106Y-87703571D01*
X161201678Y-87582619D01*
X161201678Y-87461667D01*
X161129106Y-87340714D01*
X161056535Y-87280238D01*
X160911392Y-87219762D01*
X160621106Y-87159286D01*
X160475964Y-87098810D01*
X160403392Y-87038333D01*
X160330821Y-86917381D01*
X160330821Y-86796429D01*
X160403392Y-86675476D01*
X160475964Y-86615000D01*
X160621106Y-86554524D01*
X160983964Y-86554524D01*
X161201678Y-86615000D01*
X162145107Y-86554524D02*
X162290250Y-86554524D01*
X162435393Y-86615000D01*
X162507964Y-86675476D01*
X162580535Y-86796429D01*
X162653107Y-87038333D01*
X162653107Y-87340714D01*
X162580535Y-87582619D01*
X162507964Y-87703571D01*
X162435393Y-87764048D01*
X162290250Y-87824524D01*
X162145107Y-87824524D01*
X161999964Y-87764048D01*
X161927393Y-87703571D01*
X161854821Y-87582619D01*
X161782250Y-87340714D01*
X161782250Y-87038333D01*
X161854821Y-86796429D01*
X161927393Y-86675476D01*
X161999964Y-86615000D01*
X162145107Y-86554524D01*
X163523964Y-87098810D02*
X163378822Y-87038333D01*
X163306250Y-86977857D01*
X163233679Y-86856905D01*
X163233679Y-86796429D01*
X163306250Y-86675476D01*
X163378822Y-86615000D01*
X163523964Y-86554524D01*
X163814250Y-86554524D01*
X163959393Y-86615000D01*
X164031964Y-86675476D01*
X164104536Y-86796429D01*
X164104536Y-86856905D01*
X164031964Y-86977857D01*
X163959393Y-87038333D01*
X163814250Y-87098810D01*
X163523964Y-87098810D01*
X163378822Y-87159286D01*
X163306250Y-87219762D01*
X163233679Y-87340714D01*
X163233679Y-87582619D01*
X163306250Y-87703571D01*
X163378822Y-87764048D01*
X163523964Y-87824524D01*
X163814250Y-87824524D01*
X163959393Y-87764048D01*
X164031964Y-87703571D01*
X164104536Y-87582619D01*
X164104536Y-87340714D01*
X164031964Y-87219762D01*
X163959393Y-87159286D01*
X163814250Y-87098810D01*
X164757679Y-87703571D02*
X164830251Y-87764048D01*
X164757679Y-87824524D01*
X164685108Y-87764048D01*
X164757679Y-87703571D01*
X164757679Y-87824524D01*
X164757679Y-87038333D02*
X164830251Y-87098810D01*
X164757679Y-87159286D01*
X164685108Y-87098810D01*
X164757679Y-87038333D01*
X164757679Y-87159286D01*
X165410822Y-86675476D02*
X165483393Y-86615000D01*
X165628536Y-86554524D01*
X165991393Y-86554524D01*
X166136536Y-86615000D01*
X166209107Y-86675476D01*
X166281679Y-86796429D01*
X166281679Y-86917381D01*
X166209107Y-87098810D01*
X165338250Y-87824524D01*
X166281679Y-87824524D01*
X163523965Y-102554524D02*
X163523965Y-103461667D01*
X163451393Y-103643095D01*
X163306250Y-103764048D01*
X163088536Y-103824524D01*
X162943393Y-103824524D01*
X169855821Y-106814048D02*
X170073535Y-106874524D01*
X170436392Y-106874524D01*
X170581535Y-106814048D01*
X170654106Y-106753571D01*
X170726678Y-106632619D01*
X170726678Y-106511667D01*
X170654106Y-106390714D01*
X170581535Y-106330238D01*
X170436392Y-106269762D01*
X170146106Y-106209286D01*
X170000964Y-106148810D01*
X169928392Y-106088333D01*
X169855821Y-105967381D01*
X169855821Y-105846429D01*
X169928392Y-105725476D01*
X170000964Y-105665000D01*
X170146106Y-105604524D01*
X170508964Y-105604524D01*
X170726678Y-105665000D01*
X171670107Y-105604524D02*
X171815250Y-105604524D01*
X171960393Y-105665000D01*
X172032964Y-105725476D01*
X172105535Y-105846429D01*
X172178107Y-106088333D01*
X172178107Y-106390714D01*
X172105535Y-106632619D01*
X172032964Y-106753571D01*
X171960393Y-106814048D01*
X171815250Y-106874524D01*
X171670107Y-106874524D01*
X171524964Y-106814048D01*
X171452393Y-106753571D01*
X171379821Y-106632619D01*
X171307250Y-106390714D01*
X171307250Y-106088333D01*
X171379821Y-105846429D01*
X171452393Y-105725476D01*
X171524964Y-105665000D01*
X171670107Y-105604524D01*
X173048964Y-106148810D02*
X172903822Y-106088333D01*
X172831250Y-106027857D01*
X172758679Y-105906905D01*
X172758679Y-105846429D01*
X172831250Y-105725476D01*
X172903822Y-105665000D01*
X173048964Y-105604524D01*
X173339250Y-105604524D01*
X173484393Y-105665000D01*
X173556964Y-105725476D01*
X173629536Y-105846429D01*
X173629536Y-105906905D01*
X173556964Y-106027857D01*
X173484393Y-106088333D01*
X173339250Y-106148810D01*
X173048964Y-106148810D01*
X172903822Y-106209286D01*
X172831250Y-106269762D01*
X172758679Y-106390714D01*
X172758679Y-106632619D01*
X172831250Y-106753571D01*
X172903822Y-106814048D01*
X173048964Y-106874524D01*
X173339250Y-106874524D01*
X173484393Y-106814048D01*
X173556964Y-106753571D01*
X173629536Y-106632619D01*
X173629536Y-106390714D01*
X173556964Y-106269762D01*
X173484393Y-106209286D01*
X173339250Y-106148810D01*
X174282679Y-106753571D02*
X174355251Y-106814048D01*
X174282679Y-106874524D01*
X174210108Y-106814048D01*
X174282679Y-106753571D01*
X174282679Y-106874524D01*
X174282679Y-106088333D02*
X174355251Y-106148810D01*
X174282679Y-106209286D01*
X174210108Y-106148810D01*
X174282679Y-106088333D01*
X174282679Y-106209286D01*
X174863250Y-105604524D02*
X175806679Y-105604524D01*
X175298679Y-106088333D01*
X175516393Y-106088333D01*
X175661536Y-106148810D01*
X175734107Y-106209286D01*
X175806679Y-106330238D01*
X175806679Y-106632619D01*
X175734107Y-106753571D01*
X175661536Y-106814048D01*
X175516393Y-106874524D01*
X175080965Y-106874524D01*
X174935822Y-106814048D01*
X174863250Y-106753571D01*
X172323250Y-122874524D02*
X172323250Y-121604524D01*
X172831250Y-122511667D01*
X173339250Y-121604524D01*
X173339250Y-122874524D01*
X174618321Y-68714048D02*
X174836035Y-68774524D01*
X175198892Y-68774524D01*
X175344035Y-68714048D01*
X175416606Y-68653571D01*
X175489178Y-68532619D01*
X175489178Y-68411667D01*
X175416606Y-68290714D01*
X175344035Y-68230238D01*
X175198892Y-68169762D01*
X174908606Y-68109286D01*
X174763464Y-68048810D01*
X174690892Y-67988333D01*
X174618321Y-67867381D01*
X174618321Y-67746429D01*
X174690892Y-67625476D01*
X174763464Y-67565000D01*
X174908606Y-67504524D01*
X175271464Y-67504524D01*
X175489178Y-67565000D01*
X176432607Y-67504524D02*
X176577750Y-67504524D01*
X176722893Y-67565000D01*
X176795464Y-67625476D01*
X176868035Y-67746429D01*
X176940607Y-67988333D01*
X176940607Y-68290714D01*
X176868035Y-68532619D01*
X176795464Y-68653571D01*
X176722893Y-68714048D01*
X176577750Y-68774524D01*
X176432607Y-68774524D01*
X176287464Y-68714048D01*
X176214893Y-68653571D01*
X176142321Y-68532619D01*
X176069750Y-68290714D01*
X176069750Y-67988333D01*
X176142321Y-67746429D01*
X176214893Y-67625476D01*
X176287464Y-67565000D01*
X176432607Y-67504524D01*
X177666322Y-68774524D02*
X177956607Y-68774524D01*
X178101750Y-68714048D01*
X178174322Y-68653571D01*
X178319464Y-68472143D01*
X178392036Y-68230238D01*
X178392036Y-67746429D01*
X178319464Y-67625476D01*
X178246893Y-67565000D01*
X178101750Y-67504524D01*
X177811464Y-67504524D01*
X177666322Y-67565000D01*
X177593750Y-67625476D01*
X177521179Y-67746429D01*
X177521179Y-68048810D01*
X177593750Y-68169762D01*
X177666322Y-68230238D01*
X177811464Y-68290714D01*
X178101750Y-68290714D01*
X178246893Y-68230238D01*
X178319464Y-68169762D01*
X178392036Y-68048810D01*
X179045179Y-68653571D02*
X179117751Y-68714048D01*
X179045179Y-68774524D01*
X178972608Y-68714048D01*
X179045179Y-68653571D01*
X179045179Y-68774524D01*
X179045179Y-67988333D02*
X179117751Y-68048810D01*
X179045179Y-68109286D01*
X178972608Y-68048810D01*
X179045179Y-67988333D01*
X179045179Y-68109286D01*
X180569179Y-68774524D02*
X179698322Y-68774524D01*
X180133750Y-68774524D02*
X180133750Y-67504524D01*
X179988607Y-67685952D01*
X179843465Y-67806905D01*
X179698322Y-67867381D01*
X177593750Y-84774524D02*
X177593750Y-83504524D01*
X179380821Y-87764048D02*
X179598535Y-87824524D01*
X179961392Y-87824524D01*
X180106535Y-87764048D01*
X180179106Y-87703571D01*
X180251678Y-87582619D01*
X180251678Y-87461667D01*
X180179106Y-87340714D01*
X180106535Y-87280238D01*
X179961392Y-87219762D01*
X179671106Y-87159286D01*
X179525964Y-87098810D01*
X179453392Y-87038333D01*
X179380821Y-86917381D01*
X179380821Y-86796429D01*
X179453392Y-86675476D01*
X179525964Y-86615000D01*
X179671106Y-86554524D01*
X180033964Y-86554524D01*
X180251678Y-86615000D01*
X181195107Y-86554524D02*
X181340250Y-86554524D01*
X181485393Y-86615000D01*
X181557964Y-86675476D01*
X181630535Y-86796429D01*
X181703107Y-87038333D01*
X181703107Y-87340714D01*
X181630535Y-87582619D01*
X181557964Y-87703571D01*
X181485393Y-87764048D01*
X181340250Y-87824524D01*
X181195107Y-87824524D01*
X181049964Y-87764048D01*
X180977393Y-87703571D01*
X180904821Y-87582619D01*
X180832250Y-87340714D01*
X180832250Y-87038333D01*
X180904821Y-86796429D01*
X180977393Y-86675476D01*
X181049964Y-86615000D01*
X181195107Y-86554524D01*
X182428822Y-87824524D02*
X182719107Y-87824524D01*
X182864250Y-87764048D01*
X182936822Y-87703571D01*
X183081964Y-87522143D01*
X183154536Y-87280238D01*
X183154536Y-86796429D01*
X183081964Y-86675476D01*
X183009393Y-86615000D01*
X182864250Y-86554524D01*
X182573964Y-86554524D01*
X182428822Y-86615000D01*
X182356250Y-86675476D01*
X182283679Y-86796429D01*
X182283679Y-87098810D01*
X182356250Y-87219762D01*
X182428822Y-87280238D01*
X182573964Y-87340714D01*
X182864250Y-87340714D01*
X183009393Y-87280238D01*
X183081964Y-87219762D01*
X183154536Y-87098810D01*
X183807679Y-87703571D02*
X183880251Y-87764048D01*
X183807679Y-87824524D01*
X183735108Y-87764048D01*
X183807679Y-87703571D01*
X183807679Y-87824524D01*
X183807679Y-87038333D02*
X183880251Y-87098810D01*
X183807679Y-87159286D01*
X183735108Y-87098810D01*
X183807679Y-87038333D01*
X183807679Y-87159286D01*
X184460822Y-86675476D02*
X184533393Y-86615000D01*
X184678536Y-86554524D01*
X185041393Y-86554524D01*
X185186536Y-86615000D01*
X185259107Y-86675476D01*
X185331679Y-86796429D01*
X185331679Y-86917381D01*
X185259107Y-87098810D01*
X184388250Y-87824524D01*
X185331679Y-87824524D01*
X181957107Y-103824524D02*
X181957107Y-102554524D01*
X182827964Y-103824524D02*
X182174821Y-103098810D01*
X182827964Y-102554524D02*
X181957107Y-103280238D01*
X188905821Y-106814048D02*
X189123535Y-106874524D01*
X189486392Y-106874524D01*
X189631535Y-106814048D01*
X189704106Y-106753571D01*
X189776678Y-106632619D01*
X189776678Y-106511667D01*
X189704106Y-106390714D01*
X189631535Y-106330238D01*
X189486392Y-106269762D01*
X189196106Y-106209286D01*
X189050964Y-106148810D01*
X188978392Y-106088333D01*
X188905821Y-105967381D01*
X188905821Y-105846429D01*
X188978392Y-105725476D01*
X189050964Y-105665000D01*
X189196106Y-105604524D01*
X189558964Y-105604524D01*
X189776678Y-105665000D01*
X190720107Y-105604524D02*
X190865250Y-105604524D01*
X191010393Y-105665000D01*
X191082964Y-105725476D01*
X191155535Y-105846429D01*
X191228107Y-106088333D01*
X191228107Y-106390714D01*
X191155535Y-106632619D01*
X191082964Y-106753571D01*
X191010393Y-106814048D01*
X190865250Y-106874524D01*
X190720107Y-106874524D01*
X190574964Y-106814048D01*
X190502393Y-106753571D01*
X190429821Y-106632619D01*
X190357250Y-106390714D01*
X190357250Y-106088333D01*
X190429821Y-105846429D01*
X190502393Y-105725476D01*
X190574964Y-105665000D01*
X190720107Y-105604524D01*
X191953822Y-106874524D02*
X192244107Y-106874524D01*
X192389250Y-106814048D01*
X192461822Y-106753571D01*
X192606964Y-106572143D01*
X192679536Y-106330238D01*
X192679536Y-105846429D01*
X192606964Y-105725476D01*
X192534393Y-105665000D01*
X192389250Y-105604524D01*
X192098964Y-105604524D01*
X191953822Y-105665000D01*
X191881250Y-105725476D01*
X191808679Y-105846429D01*
X191808679Y-106148810D01*
X191881250Y-106269762D01*
X191953822Y-106330238D01*
X192098964Y-106390714D01*
X192389250Y-106390714D01*
X192534393Y-106330238D01*
X192606964Y-106269762D01*
X192679536Y-106148810D01*
X193332679Y-106753571D02*
X193405251Y-106814048D01*
X193332679Y-106874524D01*
X193260108Y-106814048D01*
X193332679Y-106753571D01*
X193332679Y-106874524D01*
X193332679Y-106088333D02*
X193405251Y-106148810D01*
X193332679Y-106209286D01*
X193260108Y-106148810D01*
X193332679Y-106088333D01*
X193332679Y-106209286D01*
X193913250Y-105604524D02*
X194856679Y-105604524D01*
X194348679Y-106088333D01*
X194566393Y-106088333D01*
X194711536Y-106148810D01*
X194784107Y-106209286D01*
X194856679Y-106330238D01*
X194856679Y-106632619D01*
X194784107Y-106753571D01*
X194711536Y-106814048D01*
X194566393Y-106874524D01*
X194130965Y-106874524D01*
X193985822Y-106814048D01*
X193913250Y-106753571D01*
X190429822Y-122814048D02*
X190429822Y-122874524D01*
X190357250Y-122995476D01*
X190284679Y-123055952D01*
X193405250Y-122027857D02*
X192244107Y-122390714D01*
X193405250Y-122753571D01*
X188905821Y-125864048D02*
X189123535Y-125924524D01*
X189486392Y-125924524D01*
X189631535Y-125864048D01*
X189704106Y-125803571D01*
X189776678Y-125682619D01*
X189776678Y-125561667D01*
X189704106Y-125440714D01*
X189631535Y-125380238D01*
X189486392Y-125319762D01*
X189196106Y-125259286D01*
X189050964Y-125198810D01*
X188978392Y-125138333D01*
X188905821Y-125017381D01*
X188905821Y-124896429D01*
X188978392Y-124775476D01*
X189050964Y-124715000D01*
X189196106Y-124654524D01*
X189558964Y-124654524D01*
X189776678Y-124715000D01*
X190720107Y-124654524D02*
X190865250Y-124654524D01*
X191010393Y-124715000D01*
X191082964Y-124775476D01*
X191155535Y-124896429D01*
X191228107Y-125138333D01*
X191228107Y-125440714D01*
X191155535Y-125682619D01*
X191082964Y-125803571D01*
X191010393Y-125864048D01*
X190865250Y-125924524D01*
X190720107Y-125924524D01*
X190574964Y-125864048D01*
X190502393Y-125803571D01*
X190429821Y-125682619D01*
X190357250Y-125440714D01*
X190357250Y-125138333D01*
X190429821Y-124896429D01*
X190502393Y-124775476D01*
X190574964Y-124715000D01*
X190720107Y-124654524D01*
X191953822Y-125924524D02*
X192244107Y-125924524D01*
X192389250Y-125864048D01*
X192461822Y-125803571D01*
X192606964Y-125622143D01*
X192679536Y-125380238D01*
X192679536Y-124896429D01*
X192606964Y-124775476D01*
X192534393Y-124715000D01*
X192389250Y-124654524D01*
X192098964Y-124654524D01*
X191953822Y-124715000D01*
X191881250Y-124775476D01*
X191808679Y-124896429D01*
X191808679Y-125198810D01*
X191881250Y-125319762D01*
X191953822Y-125380238D01*
X192098964Y-125440714D01*
X192389250Y-125440714D01*
X192534393Y-125380238D01*
X192606964Y-125319762D01*
X192679536Y-125198810D01*
X193332679Y-125803571D02*
X193405251Y-125864048D01*
X193332679Y-125924524D01*
X193260108Y-125864048D01*
X193332679Y-125803571D01*
X193332679Y-125924524D01*
X193332679Y-125138333D02*
X193405251Y-125198810D01*
X193332679Y-125259286D01*
X193260108Y-125198810D01*
X193332679Y-125138333D01*
X193332679Y-125259286D01*
X194711536Y-125077857D02*
X194711536Y-125924524D01*
X194348679Y-124594048D02*
X193985822Y-125501190D01*
X194929250Y-125501190D01*
X189087251Y-141924524D02*
X189087251Y-140654524D01*
X189595251Y-141561667D01*
X190103251Y-140654524D01*
X190103251Y-141924524D01*
X190828965Y-141259286D02*
X191336965Y-141259286D01*
X191554679Y-141924524D02*
X190828965Y-141924524D01*
X190828965Y-140654524D01*
X191554679Y-140654524D01*
X192207822Y-141924524D02*
X192207822Y-140654524D01*
X193078679Y-141924524D01*
X193078679Y-140654524D01*
X193804393Y-140654524D02*
X193804393Y-141682619D01*
X193876965Y-141803571D01*
X193949536Y-141864048D01*
X194094679Y-141924524D01*
X194384965Y-141924524D01*
X194530107Y-141864048D01*
X194602679Y-141803571D01*
X194675250Y-141682619D01*
X194675250Y-140654524D01*
X193668321Y-68714048D02*
X193886035Y-68774524D01*
X194248892Y-68774524D01*
X194394035Y-68714048D01*
X194466606Y-68653571D01*
X194539178Y-68532619D01*
X194539178Y-68411667D01*
X194466606Y-68290714D01*
X194394035Y-68230238D01*
X194248892Y-68169762D01*
X193958606Y-68109286D01*
X193813464Y-68048810D01*
X193740892Y-67988333D01*
X193668321Y-67867381D01*
X193668321Y-67746429D01*
X193740892Y-67625476D01*
X193813464Y-67565000D01*
X193958606Y-67504524D01*
X194321464Y-67504524D01*
X194539178Y-67565000D01*
X195990607Y-68774524D02*
X195119750Y-68774524D01*
X195555178Y-68774524D02*
X195555178Y-67504524D01*
X195410035Y-67685952D01*
X195264893Y-67806905D01*
X195119750Y-67867381D01*
X196934036Y-67504524D02*
X197079179Y-67504524D01*
X197224322Y-67565000D01*
X197296893Y-67625476D01*
X197369464Y-67746429D01*
X197442036Y-67988333D01*
X197442036Y-68290714D01*
X197369464Y-68532619D01*
X197296893Y-68653571D01*
X197224322Y-68714048D01*
X197079179Y-68774524D01*
X196934036Y-68774524D01*
X196788893Y-68714048D01*
X196716322Y-68653571D01*
X196643750Y-68532619D01*
X196571179Y-68290714D01*
X196571179Y-67988333D01*
X196643750Y-67746429D01*
X196716322Y-67625476D01*
X196788893Y-67565000D01*
X196934036Y-67504524D01*
X198095179Y-68653571D02*
X198167751Y-68714048D01*
X198095179Y-68774524D01*
X198022608Y-68714048D01*
X198095179Y-68653571D01*
X198095179Y-68774524D01*
X198095179Y-67988333D02*
X198167751Y-68048810D01*
X198095179Y-68109286D01*
X198022608Y-68048810D01*
X198095179Y-67988333D01*
X198095179Y-68109286D01*
X199619179Y-68774524D02*
X198748322Y-68774524D01*
X199183750Y-68774524D02*
X199183750Y-67504524D01*
X199038607Y-67685952D01*
X198893465Y-67806905D01*
X198748322Y-67867381D01*
X196498608Y-83504524D02*
X196788894Y-83504524D01*
X196934036Y-83565000D01*
X197079179Y-83685952D01*
X197151751Y-83927857D01*
X197151751Y-84351190D01*
X197079179Y-84593095D01*
X196934036Y-84714048D01*
X196788894Y-84774524D01*
X196498608Y-84774524D01*
X196353465Y-84714048D01*
X196208322Y-84593095D01*
X196135751Y-84351190D01*
X196135751Y-83927857D01*
X196208322Y-83685952D01*
X196353465Y-83565000D01*
X196498608Y-83504524D01*
X198430821Y-87764048D02*
X198648535Y-87824524D01*
X199011392Y-87824524D01*
X199156535Y-87764048D01*
X199229106Y-87703571D01*
X199301678Y-87582619D01*
X199301678Y-87461667D01*
X199229106Y-87340714D01*
X199156535Y-87280238D01*
X199011392Y-87219762D01*
X198721106Y-87159286D01*
X198575964Y-87098810D01*
X198503392Y-87038333D01*
X198430821Y-86917381D01*
X198430821Y-86796429D01*
X198503392Y-86675476D01*
X198575964Y-86615000D01*
X198721106Y-86554524D01*
X199083964Y-86554524D01*
X199301678Y-86615000D01*
X200753107Y-87824524D02*
X199882250Y-87824524D01*
X200317678Y-87824524D02*
X200317678Y-86554524D01*
X200172535Y-86735952D01*
X200027393Y-86856905D01*
X199882250Y-86917381D01*
X201696536Y-86554524D02*
X201841679Y-86554524D01*
X201986822Y-86615000D01*
X202059393Y-86675476D01*
X202131964Y-86796429D01*
X202204536Y-87038333D01*
X202204536Y-87340714D01*
X202131964Y-87582619D01*
X202059393Y-87703571D01*
X201986822Y-87764048D01*
X201841679Y-87824524D01*
X201696536Y-87824524D01*
X201551393Y-87764048D01*
X201478822Y-87703571D01*
X201406250Y-87582619D01*
X201333679Y-87340714D01*
X201333679Y-87038333D01*
X201406250Y-86796429D01*
X201478822Y-86675476D01*
X201551393Y-86615000D01*
X201696536Y-86554524D01*
X202857679Y-87703571D02*
X202930251Y-87764048D01*
X202857679Y-87824524D01*
X202785108Y-87764048D01*
X202857679Y-87703571D01*
X202857679Y-87824524D01*
X202857679Y-87038333D02*
X202930251Y-87098810D01*
X202857679Y-87159286D01*
X202785108Y-87098810D01*
X202857679Y-87038333D01*
X202857679Y-87159286D01*
X203510822Y-86675476D02*
X203583393Y-86615000D01*
X203728536Y-86554524D01*
X204091393Y-86554524D01*
X204236536Y-86615000D01*
X204309107Y-86675476D01*
X204381679Y-86796429D01*
X204381679Y-86917381D01*
X204309107Y-87098810D01*
X203438250Y-87824524D01*
X204381679Y-87824524D01*
X201877964Y-103824524D02*
X201152250Y-103824524D01*
X201152250Y-102554524D01*
X207955821Y-106814048D02*
X208173535Y-106874524D01*
X208536392Y-106874524D01*
X208681535Y-106814048D01*
X208754106Y-106753571D01*
X208826678Y-106632619D01*
X208826678Y-106511667D01*
X208754106Y-106390714D01*
X208681535Y-106330238D01*
X208536392Y-106269762D01*
X208246106Y-106209286D01*
X208100964Y-106148810D01*
X208028392Y-106088333D01*
X207955821Y-105967381D01*
X207955821Y-105846429D01*
X208028392Y-105725476D01*
X208100964Y-105665000D01*
X208246106Y-105604524D01*
X208608964Y-105604524D01*
X208826678Y-105665000D01*
X210278107Y-106874524D02*
X209407250Y-106874524D01*
X209842678Y-106874524D02*
X209842678Y-105604524D01*
X209697535Y-105785952D01*
X209552393Y-105906905D01*
X209407250Y-105967381D01*
X211221536Y-105604524D02*
X211366679Y-105604524D01*
X211511822Y-105665000D01*
X211584393Y-105725476D01*
X211656964Y-105846429D01*
X211729536Y-106088333D01*
X211729536Y-106390714D01*
X211656964Y-106632619D01*
X211584393Y-106753571D01*
X211511822Y-106814048D01*
X211366679Y-106874524D01*
X211221536Y-106874524D01*
X211076393Y-106814048D01*
X211003822Y-106753571D01*
X210931250Y-106632619D01*
X210858679Y-106390714D01*
X210858679Y-106088333D01*
X210931250Y-105846429D01*
X211003822Y-105725476D01*
X211076393Y-105665000D01*
X211221536Y-105604524D01*
X212382679Y-106753571D02*
X212455251Y-106814048D01*
X212382679Y-106874524D01*
X212310108Y-106814048D01*
X212382679Y-106753571D01*
X212382679Y-106874524D01*
X212382679Y-106088333D02*
X212455251Y-106148810D01*
X212382679Y-106209286D01*
X212310108Y-106148810D01*
X212382679Y-106088333D01*
X212382679Y-106209286D01*
X212963250Y-105604524D02*
X213906679Y-105604524D01*
X213398679Y-106088333D01*
X213616393Y-106088333D01*
X213761536Y-106148810D01*
X213834107Y-106209286D01*
X213906679Y-106330238D01*
X213906679Y-106632619D01*
X213834107Y-106753571D01*
X213761536Y-106814048D01*
X213616393Y-106874524D01*
X213180965Y-106874524D01*
X213035822Y-106814048D01*
X212963250Y-106753571D01*
X209407250Y-122753571D02*
X209479822Y-122814048D01*
X209407250Y-122874524D01*
X209334679Y-122814048D01*
X209407250Y-122753571D01*
X209407250Y-122874524D01*
X211294107Y-122027857D02*
X212455250Y-122390714D01*
X211294107Y-122753571D01*
X207955821Y-125864048D02*
X208173535Y-125924524D01*
X208536392Y-125924524D01*
X208681535Y-125864048D01*
X208754106Y-125803571D01*
X208826678Y-125682619D01*
X208826678Y-125561667D01*
X208754106Y-125440714D01*
X208681535Y-125380238D01*
X208536392Y-125319762D01*
X208246106Y-125259286D01*
X208100964Y-125198810D01*
X208028392Y-125138333D01*
X207955821Y-125017381D01*
X207955821Y-124896429D01*
X208028392Y-124775476D01*
X208100964Y-124715000D01*
X208246106Y-124654524D01*
X208608964Y-124654524D01*
X208826678Y-124715000D01*
X210278107Y-125924524D02*
X209407250Y-125924524D01*
X209842678Y-125924524D02*
X209842678Y-124654524D01*
X209697535Y-124835952D01*
X209552393Y-124956905D01*
X209407250Y-125017381D01*
X211221536Y-124654524D02*
X211366679Y-124654524D01*
X211511822Y-124715000D01*
X211584393Y-124775476D01*
X211656964Y-124896429D01*
X211729536Y-125138333D01*
X211729536Y-125440714D01*
X211656964Y-125682619D01*
X211584393Y-125803571D01*
X211511822Y-125864048D01*
X211366679Y-125924524D01*
X211221536Y-125924524D01*
X211076393Y-125864048D01*
X211003822Y-125803571D01*
X210931250Y-125682619D01*
X210858679Y-125440714D01*
X210858679Y-125138333D01*
X210931250Y-124896429D01*
X211003822Y-124775476D01*
X211076393Y-124715000D01*
X211221536Y-124654524D01*
X212382679Y-125803571D02*
X212455251Y-125864048D01*
X212382679Y-125924524D01*
X212310108Y-125864048D01*
X212382679Y-125803571D01*
X212382679Y-125924524D01*
X212382679Y-125138333D02*
X212455251Y-125198810D01*
X212382679Y-125259286D01*
X212310108Y-125198810D01*
X212382679Y-125138333D01*
X212382679Y-125259286D01*
X213761536Y-125077857D02*
X213761536Y-125924524D01*
X213398679Y-124594048D02*
X213035822Y-125501190D01*
X213979250Y-125501190D01*
X209479821Y-141924524D02*
X208754107Y-141924524D01*
X208754107Y-140654524D01*
X209987821Y-141259286D02*
X210495821Y-141259286D01*
X210713535Y-141924524D02*
X209987821Y-141924524D01*
X209987821Y-140654524D01*
X210713535Y-140654524D01*
X211874678Y-141259286D02*
X211366678Y-141259286D01*
X211366678Y-141924524D02*
X211366678Y-140654524D01*
X212092392Y-140654524D01*
X212455250Y-140654524D02*
X213326107Y-140654524D01*
X212890678Y-141924524D02*
X212890678Y-140654524D01*
X212718321Y-68714048D02*
X212936035Y-68774524D01*
X213298892Y-68774524D01*
X213444035Y-68714048D01*
X213516606Y-68653571D01*
X213589178Y-68532619D01*
X213589178Y-68411667D01*
X213516606Y-68290714D01*
X213444035Y-68230238D01*
X213298892Y-68169762D01*
X213008606Y-68109286D01*
X212863464Y-68048810D01*
X212790892Y-67988333D01*
X212718321Y-67867381D01*
X212718321Y-67746429D01*
X212790892Y-67625476D01*
X212863464Y-67565000D01*
X213008606Y-67504524D01*
X213371464Y-67504524D01*
X213589178Y-67565000D01*
X215040607Y-68774524D02*
X214169750Y-68774524D01*
X214605178Y-68774524D02*
X214605178Y-67504524D01*
X214460035Y-67685952D01*
X214314893Y-67806905D01*
X214169750Y-67867381D01*
X216492036Y-68774524D02*
X215621179Y-68774524D01*
X216056607Y-68774524D02*
X216056607Y-67504524D01*
X215911464Y-67685952D01*
X215766322Y-67806905D01*
X215621179Y-67867381D01*
X217145179Y-68653571D02*
X217217751Y-68714048D01*
X217145179Y-68774524D01*
X217072608Y-68714048D01*
X217145179Y-68653571D01*
X217145179Y-68774524D01*
X217145179Y-67988333D02*
X217217751Y-68048810D01*
X217145179Y-68109286D01*
X217072608Y-68048810D01*
X217145179Y-67988333D01*
X217145179Y-68109286D01*
X218669179Y-68774524D02*
X217798322Y-68774524D01*
X218233750Y-68774524D02*
X218233750Y-67504524D01*
X218088607Y-67685952D01*
X217943465Y-67806905D01*
X217798322Y-67867381D01*
X215294607Y-84774524D02*
X215294607Y-83504524D01*
X215875179Y-83504524D01*
X216020321Y-83565000D01*
X216092893Y-83625476D01*
X216165464Y-83746429D01*
X216165464Y-83927857D01*
X216092893Y-84048810D01*
X216020321Y-84109286D01*
X215875179Y-84169762D01*
X215294607Y-84169762D01*
X217480821Y-87764048D02*
X217698535Y-87824524D01*
X218061392Y-87824524D01*
X218206535Y-87764048D01*
X218279106Y-87703571D01*
X218351678Y-87582619D01*
X218351678Y-87461667D01*
X218279106Y-87340714D01*
X218206535Y-87280238D01*
X218061392Y-87219762D01*
X217771106Y-87159286D01*
X217625964Y-87098810D01*
X217553392Y-87038333D01*
X217480821Y-86917381D01*
X217480821Y-86796429D01*
X217553392Y-86675476D01*
X217625964Y-86615000D01*
X217771106Y-86554524D01*
X218133964Y-86554524D01*
X218351678Y-86615000D01*
X219803107Y-87824524D02*
X218932250Y-87824524D01*
X219367678Y-87824524D02*
X219367678Y-86554524D01*
X219222535Y-86735952D01*
X219077393Y-86856905D01*
X218932250Y-86917381D01*
X221254536Y-87824524D02*
X220383679Y-87824524D01*
X220819107Y-87824524D02*
X220819107Y-86554524D01*
X220673964Y-86735952D01*
X220528822Y-86856905D01*
X220383679Y-86917381D01*
X221907679Y-87703571D02*
X221980251Y-87764048D01*
X221907679Y-87824524D01*
X221835108Y-87764048D01*
X221907679Y-87703571D01*
X221907679Y-87824524D01*
X221907679Y-87038333D02*
X221980251Y-87098810D01*
X221907679Y-87159286D01*
X221835108Y-87098810D01*
X221907679Y-87038333D01*
X221907679Y-87159286D01*
X222560822Y-86675476D02*
X222633393Y-86615000D01*
X222778536Y-86554524D01*
X223141393Y-86554524D01*
X223286536Y-86615000D01*
X223359107Y-86675476D01*
X223431679Y-86796429D01*
X223431679Y-86917381D01*
X223359107Y-87098810D01*
X222488250Y-87824524D01*
X223431679Y-87824524D01*
X219585394Y-103764048D02*
X219585394Y-103824524D01*
X219512822Y-103945476D01*
X219440251Y-104005952D01*
X219512822Y-103038333D02*
X219585394Y-103098810D01*
X219512822Y-103159286D01*
X219440251Y-103098810D01*
X219512822Y-103038333D01*
X219512822Y-103159286D01*
X221399679Y-103703571D02*
X221472251Y-103764048D01*
X221399679Y-103824524D01*
X221327108Y-103764048D01*
X221399679Y-103703571D01*
X221399679Y-103824524D01*
X221399679Y-103038333D02*
X221472251Y-103098810D01*
X221399679Y-103159286D01*
X221327108Y-103098810D01*
X221399679Y-103038333D01*
X221399679Y-103159286D01*
X227005821Y-106814048D02*
X227223535Y-106874524D01*
X227586392Y-106874524D01*
X227731535Y-106814048D01*
X227804106Y-106753571D01*
X227876678Y-106632619D01*
X227876678Y-106511667D01*
X227804106Y-106390714D01*
X227731535Y-106330238D01*
X227586392Y-106269762D01*
X227296106Y-106209286D01*
X227150964Y-106148810D01*
X227078392Y-106088333D01*
X227005821Y-105967381D01*
X227005821Y-105846429D01*
X227078392Y-105725476D01*
X227150964Y-105665000D01*
X227296106Y-105604524D01*
X227658964Y-105604524D01*
X227876678Y-105665000D01*
X229328107Y-106874524D02*
X228457250Y-106874524D01*
X228892678Y-106874524D02*
X228892678Y-105604524D01*
X228747535Y-105785952D01*
X228602393Y-105906905D01*
X228457250Y-105967381D01*
X230779536Y-106874524D02*
X229908679Y-106874524D01*
X230344107Y-106874524D02*
X230344107Y-105604524D01*
X230198964Y-105785952D01*
X230053822Y-105906905D01*
X229908679Y-105967381D01*
X231432679Y-106753571D02*
X231505251Y-106814048D01*
X231432679Y-106874524D01*
X231360108Y-106814048D01*
X231432679Y-106753571D01*
X231432679Y-106874524D01*
X231432679Y-106088333D02*
X231505251Y-106148810D01*
X231432679Y-106209286D01*
X231360108Y-106148810D01*
X231432679Y-106088333D01*
X231432679Y-106209286D01*
X232013250Y-105604524D02*
X232956679Y-105604524D01*
X232448679Y-106088333D01*
X232666393Y-106088333D01*
X232811536Y-106148810D01*
X232884107Y-106209286D01*
X232956679Y-106330238D01*
X232956679Y-106632619D01*
X232884107Y-106753571D01*
X232811536Y-106814048D01*
X232666393Y-106874524D01*
X232230965Y-106874524D01*
X232085822Y-106814048D01*
X232013250Y-106753571D01*
X228783822Y-121604524D02*
X228783822Y-122632619D01*
X228856394Y-122753571D01*
X228928965Y-122814048D01*
X229074108Y-122874524D01*
X229364394Y-122874524D01*
X229509536Y-122814048D01*
X229582108Y-122753571D01*
X229654679Y-122632619D01*
X229654679Y-121604524D01*
X230380393Y-122874524D02*
X230380393Y-121604524D01*
X230960965Y-121604524D01*
X231106107Y-121665000D01*
X231178679Y-121725476D01*
X231251250Y-121846429D01*
X231251250Y-122027857D01*
X231178679Y-122148810D01*
X231106107Y-122209286D01*
X230960965Y-122269762D01*
X230380393Y-122269762D01*
X227005821Y-125864048D02*
X227223535Y-125924524D01*
X227586392Y-125924524D01*
X227731535Y-125864048D01*
X227804106Y-125803571D01*
X227876678Y-125682619D01*
X227876678Y-125561667D01*
X227804106Y-125440714D01*
X227731535Y-125380238D01*
X227586392Y-125319762D01*
X227296106Y-125259286D01*
X227150964Y-125198810D01*
X227078392Y-125138333D01*
X227005821Y-125017381D01*
X227005821Y-124896429D01*
X227078392Y-124775476D01*
X227150964Y-124715000D01*
X227296106Y-124654524D01*
X227658964Y-124654524D01*
X227876678Y-124715000D01*
X229328107Y-125924524D02*
X228457250Y-125924524D01*
X228892678Y-125924524D02*
X228892678Y-124654524D01*
X228747535Y-124835952D01*
X228602393Y-124956905D01*
X228457250Y-125017381D01*
X230779536Y-125924524D02*
X229908679Y-125924524D01*
X230344107Y-125924524D02*
X230344107Y-124654524D01*
X230198964Y-124835952D01*
X230053822Y-124956905D01*
X229908679Y-125017381D01*
X231432679Y-125803571D02*
X231505251Y-125864048D01*
X231432679Y-125924524D01*
X231360108Y-125864048D01*
X231432679Y-125803571D01*
X231432679Y-125924524D01*
X231432679Y-125138333D02*
X231505251Y-125198810D01*
X231432679Y-125259286D01*
X231360108Y-125198810D01*
X231432679Y-125138333D01*
X231432679Y-125259286D01*
X232811536Y-125077857D02*
X232811536Y-125924524D01*
X232448679Y-124594048D02*
X232085822Y-125501190D01*
X233029250Y-125501190D01*
X227114679Y-141924524D02*
X227114679Y-140654524D01*
X227477536Y-140654524D01*
X227695251Y-140715000D01*
X227840393Y-140835952D01*
X227912965Y-140956905D01*
X227985536Y-141198810D01*
X227985536Y-141380238D01*
X227912965Y-141622143D01*
X227840393Y-141743095D01*
X227695251Y-141864048D01*
X227477536Y-141924524D01*
X227114679Y-141924524D01*
X228928965Y-140654524D02*
X229219251Y-140654524D01*
X229364393Y-140715000D01*
X229509536Y-140835952D01*
X229582108Y-141077857D01*
X229582108Y-141501190D01*
X229509536Y-141743095D01*
X229364393Y-141864048D01*
X229219251Y-141924524D01*
X228928965Y-141924524D01*
X228783822Y-141864048D01*
X228638679Y-141743095D01*
X228566108Y-141501190D01*
X228566108Y-141077857D01*
X228638679Y-140835952D01*
X228783822Y-140715000D01*
X228928965Y-140654524D01*
X230090107Y-140654524D02*
X230452964Y-141924524D01*
X230743250Y-141017381D01*
X231033536Y-141924524D01*
X231396393Y-140654524D01*
X231976964Y-141924524D02*
X231976964Y-140654524D01*
X232847821Y-141924524D01*
X232847821Y-140654524D01*
X231768321Y-68714048D02*
X231986035Y-68774524D01*
X232348892Y-68774524D01*
X232494035Y-68714048D01*
X232566606Y-68653571D01*
X232639178Y-68532619D01*
X232639178Y-68411667D01*
X232566606Y-68290714D01*
X232494035Y-68230238D01*
X232348892Y-68169762D01*
X232058606Y-68109286D01*
X231913464Y-68048810D01*
X231840892Y-67988333D01*
X231768321Y-67867381D01*
X231768321Y-67746429D01*
X231840892Y-67625476D01*
X231913464Y-67565000D01*
X232058606Y-67504524D01*
X232421464Y-67504524D01*
X232639178Y-67565000D01*
X234090607Y-68774524D02*
X233219750Y-68774524D01*
X233655178Y-68774524D02*
X233655178Y-67504524D01*
X233510035Y-67685952D01*
X233364893Y-67806905D01*
X233219750Y-67867381D01*
X234671179Y-67625476D02*
X234743750Y-67565000D01*
X234888893Y-67504524D01*
X235251750Y-67504524D01*
X235396893Y-67565000D01*
X235469464Y-67625476D01*
X235542036Y-67746429D01*
X235542036Y-67867381D01*
X235469464Y-68048810D01*
X234598607Y-68774524D01*
X235542036Y-68774524D01*
X236195179Y-68653571D02*
X236267751Y-68714048D01*
X236195179Y-68774524D01*
X236122608Y-68714048D01*
X236195179Y-68653571D01*
X236195179Y-68774524D01*
X236195179Y-67988333D02*
X236267751Y-68048810D01*
X236195179Y-68109286D01*
X236122608Y-68048810D01*
X236195179Y-67988333D01*
X236195179Y-68109286D01*
X237719179Y-68774524D02*
X236848322Y-68774524D01*
X237283750Y-68774524D02*
X237283750Y-67504524D01*
X237138607Y-67685952D01*
X236993465Y-67806905D01*
X236848322Y-67867381D01*
X233945465Y-85197857D02*
X233582608Y-85197857D01*
X233582608Y-83383571D01*
X233945465Y-83383571D01*
X236122608Y-85258333D02*
X236050036Y-85258333D01*
X235904893Y-85197857D01*
X235832322Y-85076905D01*
X235832322Y-84472143D01*
X235759751Y-84351190D01*
X235614608Y-84290714D01*
X235759751Y-84230238D01*
X235832322Y-84109286D01*
X235832322Y-83504524D01*
X235904893Y-83383571D01*
X236050036Y-83323095D01*
X236122608Y-83323095D01*
X236530821Y-87764048D02*
X236748535Y-87824524D01*
X237111392Y-87824524D01*
X237256535Y-87764048D01*
X237329106Y-87703571D01*
X237401678Y-87582619D01*
X237401678Y-87461667D01*
X237329106Y-87340714D01*
X237256535Y-87280238D01*
X237111392Y-87219762D01*
X236821106Y-87159286D01*
X236675964Y-87098810D01*
X236603392Y-87038333D01*
X236530821Y-86917381D01*
X236530821Y-86796429D01*
X236603392Y-86675476D01*
X236675964Y-86615000D01*
X236821106Y-86554524D01*
X237183964Y-86554524D01*
X237401678Y-86615000D01*
X238853107Y-87824524D02*
X237982250Y-87824524D01*
X238417678Y-87824524D02*
X238417678Y-86554524D01*
X238272535Y-86735952D01*
X238127393Y-86856905D01*
X237982250Y-86917381D01*
X239433679Y-86675476D02*
X239506250Y-86615000D01*
X239651393Y-86554524D01*
X240014250Y-86554524D01*
X240159393Y-86615000D01*
X240231964Y-86675476D01*
X240304536Y-86796429D01*
X240304536Y-86917381D01*
X240231964Y-87098810D01*
X239361107Y-87824524D01*
X240304536Y-87824524D01*
X240957679Y-87703571D02*
X241030251Y-87764048D01*
X240957679Y-87824524D01*
X240885108Y-87764048D01*
X240957679Y-87703571D01*
X240957679Y-87824524D01*
X240957679Y-87038333D02*
X241030251Y-87098810D01*
X240957679Y-87159286D01*
X240885108Y-87098810D01*
X240957679Y-87038333D01*
X240957679Y-87159286D01*
X241610822Y-86675476D02*
X241683393Y-86615000D01*
X241828536Y-86554524D01*
X242191393Y-86554524D01*
X242336536Y-86615000D01*
X242409107Y-86675476D01*
X242481679Y-86796429D01*
X242481679Y-86917381D01*
X242409107Y-87098810D01*
X241538250Y-87824524D01*
X242481679Y-87824524D01*
X238417679Y-102554524D02*
X238272536Y-102796429D01*
X240159393Y-102554524D02*
X240159393Y-102796429D01*
X240739964Y-102554524D02*
X240739964Y-102796429D01*
X246055821Y-125864048D02*
X246273535Y-125924524D01*
X246636392Y-125924524D01*
X246781535Y-125864048D01*
X246854106Y-125803571D01*
X246926678Y-125682619D01*
X246926678Y-125561667D01*
X246854106Y-125440714D01*
X246781535Y-125380238D01*
X246636392Y-125319762D01*
X246346106Y-125259286D01*
X246200964Y-125198810D01*
X246128392Y-125138333D01*
X246055821Y-125017381D01*
X246055821Y-124896429D01*
X246128392Y-124775476D01*
X246200964Y-124715000D01*
X246346106Y-124654524D01*
X246708964Y-124654524D01*
X246926678Y-124715000D01*
X248378107Y-125924524D02*
X247507250Y-125924524D01*
X247942678Y-125924524D02*
X247942678Y-124654524D01*
X247797535Y-124835952D01*
X247652393Y-124956905D01*
X247507250Y-125017381D01*
X248958679Y-124775476D02*
X249031250Y-124715000D01*
X249176393Y-124654524D01*
X249539250Y-124654524D01*
X249684393Y-124715000D01*
X249756964Y-124775476D01*
X249829536Y-124896429D01*
X249829536Y-125017381D01*
X249756964Y-125198810D01*
X248886107Y-125924524D01*
X249829536Y-125924524D01*
X250482679Y-125803571D02*
X250555251Y-125864048D01*
X250482679Y-125924524D01*
X250410108Y-125864048D01*
X250482679Y-125803571D01*
X250482679Y-125924524D01*
X250482679Y-125138333D02*
X250555251Y-125198810D01*
X250482679Y-125259286D01*
X250410108Y-125198810D01*
X250482679Y-125138333D01*
X250482679Y-125259286D01*
X251861536Y-125077857D02*
X251861536Y-125924524D01*
X251498679Y-124594048D02*
X251135822Y-125501190D01*
X252079250Y-125501190D01*
X246999250Y-141924524D02*
X246491250Y-141319762D01*
X246128393Y-141924524D02*
X246128393Y-140654524D01*
X246708965Y-140654524D01*
X246854107Y-140715000D01*
X246926679Y-140775476D01*
X246999250Y-140896429D01*
X246999250Y-141077857D01*
X246926679Y-141198810D01*
X246854107Y-141259286D01*
X246708965Y-141319762D01*
X246128393Y-141319762D01*
X247652393Y-141924524D02*
X247652393Y-140654524D01*
X249176393Y-140715000D02*
X249031250Y-140654524D01*
X248813536Y-140654524D01*
X248595821Y-140715000D01*
X248450679Y-140835952D01*
X248378107Y-140956905D01*
X248305536Y-141198810D01*
X248305536Y-141380238D01*
X248378107Y-141622143D01*
X248450679Y-141743095D01*
X248595821Y-141864048D01*
X248813536Y-141924524D01*
X248958679Y-141924524D01*
X249176393Y-141864048D01*
X249248964Y-141803571D01*
X249248964Y-141380238D01*
X248958679Y-141380238D01*
X249902107Y-141924524D02*
X249902107Y-140654524D01*
X249902107Y-141259286D02*
X250772964Y-141259286D01*
X250772964Y-141924524D02*
X250772964Y-140654524D01*
X251280964Y-140654524D02*
X252151821Y-140654524D01*
X251716392Y-141924524D02*
X251716392Y-140654524D01*
X250818321Y-68714048D02*
X251036035Y-68774524D01*
X251398892Y-68774524D01*
X251544035Y-68714048D01*
X251616606Y-68653571D01*
X251689178Y-68532619D01*
X251689178Y-68411667D01*
X251616606Y-68290714D01*
X251544035Y-68230238D01*
X251398892Y-68169762D01*
X251108606Y-68109286D01*
X250963464Y-68048810D01*
X250890892Y-67988333D01*
X250818321Y-67867381D01*
X250818321Y-67746429D01*
X250890892Y-67625476D01*
X250963464Y-67565000D01*
X251108606Y-67504524D01*
X251471464Y-67504524D01*
X251689178Y-67565000D01*
X253140607Y-68774524D02*
X252269750Y-68774524D01*
X252705178Y-68774524D02*
X252705178Y-67504524D01*
X252560035Y-67685952D01*
X252414893Y-67806905D01*
X252269750Y-67867381D01*
X253648607Y-67504524D02*
X254592036Y-67504524D01*
X254084036Y-67988333D01*
X254301750Y-67988333D01*
X254446893Y-68048810D01*
X254519464Y-68109286D01*
X254592036Y-68230238D01*
X254592036Y-68532619D01*
X254519464Y-68653571D01*
X254446893Y-68714048D01*
X254301750Y-68774524D01*
X253866322Y-68774524D01*
X253721179Y-68714048D01*
X253648607Y-68653571D01*
X255245179Y-68653571D02*
X255317751Y-68714048D01*
X255245179Y-68774524D01*
X255172608Y-68714048D01*
X255245179Y-68653571D01*
X255245179Y-68774524D01*
X255245179Y-67988333D02*
X255317751Y-68048810D01*
X255245179Y-68109286D01*
X255172608Y-68048810D01*
X255245179Y-67988333D01*
X255245179Y-68109286D01*
X256769179Y-68774524D02*
X255898322Y-68774524D01*
X256333750Y-68774524D02*
X256333750Y-67504524D01*
X256188607Y-67685952D01*
X256043465Y-67806905D01*
X255898322Y-67867381D01*
X252414893Y-85197857D02*
X252777750Y-85197857D01*
X252777750Y-83383571D01*
X252414893Y-83383571D01*
X254592036Y-85258333D02*
X254664608Y-85258333D01*
X254809751Y-85197857D01*
X254882322Y-85076905D01*
X254882322Y-84472143D01*
X254954893Y-84351190D01*
X255100036Y-84290714D01*
X254954893Y-84230238D01*
X254882322Y-84109286D01*
X254882322Y-83504524D01*
X254809751Y-83383571D01*
X254664608Y-83323095D01*
X254592036Y-83323095D01*
X262724571Y-87764048D02*
X262942285Y-87824524D01*
X263305142Y-87824524D01*
X263450285Y-87764048D01*
X263522856Y-87703571D01*
X263595428Y-87582619D01*
X263595428Y-87461667D01*
X263522856Y-87340714D01*
X263450285Y-87280238D01*
X263305142Y-87219762D01*
X263014856Y-87159286D01*
X262869714Y-87098810D01*
X262797142Y-87038333D01*
X262724571Y-86917381D01*
X262724571Y-86796429D01*
X262797142Y-86675476D01*
X262869714Y-86615000D01*
X263014856Y-86554524D01*
X263377714Y-86554524D01*
X263595428Y-86615000D01*
X265046857Y-87824524D02*
X264176000Y-87824524D01*
X264611428Y-87824524D02*
X264611428Y-86554524D01*
X264466285Y-86735952D01*
X264321143Y-86856905D01*
X264176000Y-86917381D01*
X265554857Y-86554524D02*
X266498286Y-86554524D01*
X265990286Y-87038333D01*
X266208000Y-87038333D01*
X266353143Y-87098810D01*
X266425714Y-87159286D01*
X266498286Y-87280238D01*
X266498286Y-87582619D01*
X266425714Y-87703571D01*
X266353143Y-87764048D01*
X266208000Y-87824524D01*
X265772572Y-87824524D01*
X265627429Y-87764048D01*
X265554857Y-87703571D01*
X267151429Y-87703571D02*
X267224001Y-87764048D01*
X267151429Y-87824524D01*
X267078858Y-87764048D01*
X267151429Y-87703571D01*
X267151429Y-87824524D01*
X267151429Y-87038333D02*
X267224001Y-87098810D01*
X267151429Y-87159286D01*
X267078858Y-87098810D01*
X267151429Y-87038333D01*
X267151429Y-87159286D01*
X267804572Y-86675476D02*
X267877143Y-86615000D01*
X268022286Y-86554524D01*
X268385143Y-86554524D01*
X268530286Y-86615000D01*
X268602857Y-86675476D01*
X268675429Y-86796429D01*
X268675429Y-86917381D01*
X268602857Y-87098810D01*
X267732000Y-87824524D01*
X268675429Y-87824524D01*
X262543143Y-103824524D02*
X262035143Y-103219762D01*
X261672286Y-103824524D02*
X261672286Y-102554524D01*
X262252858Y-102554524D01*
X262398000Y-102615000D01*
X262470572Y-102675476D01*
X262543143Y-102796429D01*
X262543143Y-102977857D01*
X262470572Y-103098810D01*
X262398000Y-103159286D01*
X262252858Y-103219762D01*
X261672286Y-103219762D01*
X263196286Y-103159286D02*
X263704286Y-103159286D01*
X263922000Y-103824524D02*
X263196286Y-103824524D01*
X263196286Y-102554524D01*
X263922000Y-102554524D01*
X264357429Y-102554524D02*
X265228286Y-102554524D01*
X264792857Y-103824524D02*
X264792857Y-102554524D01*
X265736286Y-102554524D02*
X265736286Y-103582619D01*
X265808858Y-103703571D01*
X265881429Y-103764048D01*
X266026572Y-103824524D01*
X266316858Y-103824524D01*
X266462000Y-103764048D01*
X266534572Y-103703571D01*
X266607143Y-103582619D01*
X266607143Y-102554524D01*
X268203714Y-103824524D02*
X267695714Y-103219762D01*
X267332857Y-103824524D02*
X267332857Y-102554524D01*
X267913429Y-102554524D01*
X268058571Y-102615000D01*
X268131143Y-102675476D01*
X268203714Y-102796429D01*
X268203714Y-102977857D01*
X268131143Y-103098810D01*
X268058571Y-103159286D01*
X267913429Y-103219762D01*
X267332857Y-103219762D01*
X268856857Y-103824524D02*
X268856857Y-102554524D01*
X269727714Y-103824524D01*
X269727714Y-102554524D01*
X257962071Y-106814048D02*
X258179785Y-106874524D01*
X258542642Y-106874524D01*
X258687785Y-106814048D01*
X258760356Y-106753571D01*
X258832928Y-106632619D01*
X258832928Y-106511667D01*
X258760356Y-106390714D01*
X258687785Y-106330238D01*
X258542642Y-106269762D01*
X258252356Y-106209286D01*
X258107214Y-106148810D01*
X258034642Y-106088333D01*
X257962071Y-105967381D01*
X257962071Y-105846429D01*
X258034642Y-105725476D01*
X258107214Y-105665000D01*
X258252356Y-105604524D01*
X258615214Y-105604524D01*
X258832928Y-105665000D01*
X260284357Y-106874524D02*
X259413500Y-106874524D01*
X259848928Y-106874524D02*
X259848928Y-105604524D01*
X259703785Y-105785952D01*
X259558643Y-105906905D01*
X259413500Y-105967381D01*
X260792357Y-105604524D02*
X261735786Y-105604524D01*
X261227786Y-106088333D01*
X261445500Y-106088333D01*
X261590643Y-106148810D01*
X261663214Y-106209286D01*
X261735786Y-106330238D01*
X261735786Y-106632619D01*
X261663214Y-106753571D01*
X261590643Y-106814048D01*
X261445500Y-106874524D01*
X261010072Y-106874524D01*
X260864929Y-106814048D01*
X260792357Y-106753571D01*
X262388929Y-106753571D02*
X262461501Y-106814048D01*
X262388929Y-106874524D01*
X262316358Y-106814048D01*
X262388929Y-106753571D01*
X262388929Y-106874524D01*
X262388929Y-106088333D02*
X262461501Y-106148810D01*
X262388929Y-106209286D01*
X262316358Y-106148810D01*
X262388929Y-106088333D01*
X262388929Y-106209286D01*
X262969500Y-105604524D02*
X263912929Y-105604524D01*
X263404929Y-106088333D01*
X263622643Y-106088333D01*
X263767786Y-106148810D01*
X263840357Y-106209286D01*
X263912929Y-106330238D01*
X263912929Y-106632619D01*
X263840357Y-106753571D01*
X263767786Y-106814048D01*
X263622643Y-106874524D01*
X263187215Y-106874524D01*
X263042072Y-106814048D01*
X262969500Y-106753571D01*
X257708071Y-122874524D02*
X257200071Y-122269762D01*
X256837214Y-122874524D02*
X256837214Y-121604524D01*
X257417786Y-121604524D01*
X257562928Y-121665000D01*
X257635500Y-121725476D01*
X257708071Y-121846429D01*
X257708071Y-122027857D01*
X257635500Y-122148810D01*
X257562928Y-122209286D01*
X257417786Y-122269762D01*
X256837214Y-122269762D01*
X257998357Y-122995476D02*
X259159500Y-122995476D01*
X259449786Y-122814048D02*
X259667500Y-122874524D01*
X260030357Y-122874524D01*
X260175500Y-122814048D01*
X260248071Y-122753571D01*
X260320643Y-122632619D01*
X260320643Y-122511667D01*
X260248071Y-122390714D01*
X260175500Y-122330238D01*
X260030357Y-122269762D01*
X259740071Y-122209286D01*
X259594929Y-122148810D01*
X259522357Y-122088333D01*
X259449786Y-121967381D01*
X259449786Y-121846429D01*
X259522357Y-121725476D01*
X259594929Y-121665000D01*
X259740071Y-121604524D01*
X260102929Y-121604524D01*
X260320643Y-121665000D01*
X260973786Y-122874524D02*
X260973786Y-121604524D01*
X260973786Y-122209286D02*
X261844643Y-122209286D01*
X261844643Y-122874524D02*
X261844643Y-121604524D01*
X262570357Y-122874524D02*
X262570357Y-121604524D01*
X263804071Y-122209286D02*
X263296071Y-122209286D01*
X263296071Y-122874524D02*
X263296071Y-121604524D01*
X264021785Y-121604524D01*
X264384643Y-121604524D02*
X265255500Y-121604524D01*
X264820071Y-122874524D02*
X264820071Y-121604524D01*
X267487071Y-125864048D02*
X267704785Y-125924524D01*
X268067642Y-125924524D01*
X268212785Y-125864048D01*
X268285356Y-125803571D01*
X268357928Y-125682619D01*
X268357928Y-125561667D01*
X268285356Y-125440714D01*
X268212785Y-125380238D01*
X268067642Y-125319762D01*
X267777356Y-125259286D01*
X267632214Y-125198810D01*
X267559642Y-125138333D01*
X267487071Y-125017381D01*
X267487071Y-124896429D01*
X267559642Y-124775476D01*
X267632214Y-124715000D01*
X267777356Y-124654524D01*
X268140214Y-124654524D01*
X268357928Y-124715000D01*
X269809357Y-125924524D02*
X268938500Y-125924524D01*
X269373928Y-125924524D02*
X269373928Y-124654524D01*
X269228785Y-124835952D01*
X269083643Y-124956905D01*
X268938500Y-125017381D01*
X270317357Y-124654524D02*
X271260786Y-124654524D01*
X270752786Y-125138333D01*
X270970500Y-125138333D01*
X271115643Y-125198810D01*
X271188214Y-125259286D01*
X271260786Y-125380238D01*
X271260786Y-125682619D01*
X271188214Y-125803571D01*
X271115643Y-125864048D01*
X270970500Y-125924524D01*
X270535072Y-125924524D01*
X270389929Y-125864048D01*
X270317357Y-125803571D01*
X271913929Y-125803571D02*
X271986501Y-125864048D01*
X271913929Y-125924524D01*
X271841358Y-125864048D01*
X271913929Y-125803571D01*
X271913929Y-125924524D01*
X271913929Y-125138333D02*
X271986501Y-125198810D01*
X271913929Y-125259286D01*
X271841358Y-125198810D01*
X271913929Y-125138333D01*
X271913929Y-125259286D01*
X273292786Y-125077857D02*
X273292786Y-125924524D01*
X272929929Y-124594048D02*
X272567072Y-125501190D01*
X273510500Y-125501190D01*
X266398500Y-141924524D02*
X265890500Y-141319762D01*
X265527643Y-141924524D02*
X265527643Y-140654524D01*
X266108215Y-140654524D01*
X266253357Y-140715000D01*
X266325929Y-140775476D01*
X266398500Y-140896429D01*
X266398500Y-141077857D01*
X266325929Y-141198810D01*
X266253357Y-141259286D01*
X266108215Y-141319762D01*
X265527643Y-141319762D01*
X266688786Y-142045476D02*
X267849929Y-142045476D01*
X268140215Y-141561667D02*
X268865929Y-141561667D01*
X267995072Y-141924524D02*
X268503072Y-140654524D01*
X269011072Y-141924524D01*
X270244786Y-141924524D02*
X269519072Y-141924524D01*
X269519072Y-140654524D01*
X270535072Y-140654524D02*
X271405929Y-140654524D01*
X270970500Y-141924524D02*
X270970500Y-140654524D01*
X271551072Y-142045476D02*
X272712215Y-142045476D01*
X273873358Y-140715000D02*
X273728215Y-140654524D01*
X273510501Y-140654524D01*
X273292786Y-140715000D01*
X273147644Y-140835952D01*
X273075072Y-140956905D01*
X273002501Y-141198810D01*
X273002501Y-141380238D01*
X273075072Y-141622143D01*
X273147644Y-141743095D01*
X273292786Y-141864048D01*
X273510501Y-141924524D01*
X273655644Y-141924524D01*
X273873358Y-141864048D01*
X273945929Y-141803571D01*
X273945929Y-141380238D01*
X273655644Y-141380238D01*
X275469929Y-141924524D02*
X274961929Y-141319762D01*
X274599072Y-141924524D02*
X274599072Y-140654524D01*
X275179644Y-140654524D01*
X275324786Y-140715000D01*
X275397358Y-140775476D01*
X275469929Y-140896429D01*
X275469929Y-141077857D01*
X275397358Y-141198810D01*
X275324786Y-141259286D01*
X275179644Y-141319762D01*
X274599072Y-141319762D01*
X269868321Y-68714048D02*
X270086035Y-68774524D01*
X270448892Y-68774524D01*
X270594035Y-68714048D01*
X270666606Y-68653571D01*
X270739178Y-68532619D01*
X270739178Y-68411667D01*
X270666606Y-68290714D01*
X270594035Y-68230238D01*
X270448892Y-68169762D01*
X270158606Y-68109286D01*
X270013464Y-68048810D01*
X269940892Y-67988333D01*
X269868321Y-67867381D01*
X269868321Y-67746429D01*
X269940892Y-67625476D01*
X270013464Y-67565000D01*
X270158606Y-67504524D01*
X270521464Y-67504524D01*
X270739178Y-67565000D01*
X272190607Y-68774524D02*
X271319750Y-68774524D01*
X271755178Y-68774524D02*
X271755178Y-67504524D01*
X271610035Y-67685952D01*
X271464893Y-67806905D01*
X271319750Y-67867381D01*
X273496893Y-67927857D02*
X273496893Y-68774524D01*
X273134036Y-67444048D02*
X272771179Y-68351190D01*
X273714607Y-68351190D01*
X274295179Y-68653571D02*
X274367751Y-68714048D01*
X274295179Y-68774524D01*
X274222608Y-68714048D01*
X274295179Y-68653571D01*
X274295179Y-68774524D01*
X274295179Y-67988333D02*
X274367751Y-68048810D01*
X274295179Y-68109286D01*
X274222608Y-68048810D01*
X274295179Y-67988333D01*
X274295179Y-68109286D01*
X275819179Y-68774524D02*
X274948322Y-68774524D01*
X275383750Y-68774524D02*
X275383750Y-67504524D01*
X275238607Y-67685952D01*
X275093465Y-67806905D01*
X274948322Y-67867381D01*
X267183178Y-84109286D02*
X267400892Y-84169762D01*
X267473464Y-84230238D01*
X267546035Y-84351190D01*
X267546035Y-84532619D01*
X267473464Y-84653571D01*
X267400892Y-84714048D01*
X267255750Y-84774524D01*
X266675178Y-84774524D01*
X266675178Y-83504524D01*
X267183178Y-83504524D01*
X267328321Y-83565000D01*
X267400892Y-83625476D01*
X267473464Y-83746429D01*
X267473464Y-83867381D01*
X267400892Y-83988333D01*
X267328321Y-84048810D01*
X267183178Y-84109286D01*
X266675178Y-84109286D01*
X268126607Y-84411667D02*
X268852321Y-84411667D01*
X267981464Y-84774524D02*
X268489464Y-83504524D01*
X268997464Y-84774524D01*
X270376321Y-84653571D02*
X270303750Y-84714048D01*
X270086036Y-84774524D01*
X269940893Y-84774524D01*
X269723178Y-84714048D01*
X269578036Y-84593095D01*
X269505464Y-84472143D01*
X269432893Y-84230238D01*
X269432893Y-84048810D01*
X269505464Y-83806905D01*
X269578036Y-83685952D01*
X269723178Y-83565000D01*
X269940893Y-83504524D01*
X270086036Y-83504524D01*
X270303750Y-83565000D01*
X270376321Y-83625476D01*
X271029464Y-84774524D02*
X271029464Y-83504524D01*
X271900321Y-84774524D02*
X271247178Y-84048810D01*
X271900321Y-83504524D02*
X271029464Y-84230238D01*
X272480893Y-84714048D02*
X272698607Y-84774524D01*
X273061464Y-84774524D01*
X273206607Y-84714048D01*
X273279178Y-84653571D01*
X273351750Y-84532619D01*
X273351750Y-84411667D01*
X273279178Y-84290714D01*
X273206607Y-84230238D01*
X273061464Y-84169762D01*
X272771178Y-84109286D01*
X272626036Y-84048810D01*
X272553464Y-83988333D01*
X272480893Y-83867381D01*
X272480893Y-83746429D01*
X272553464Y-83625476D01*
X272626036Y-83565000D01*
X272771178Y-83504524D01*
X273134036Y-83504524D01*
X273351750Y-83565000D01*
X274004893Y-84774524D02*
X274004893Y-83504524D01*
X274585465Y-83504524D01*
X274730607Y-83565000D01*
X274803179Y-83625476D01*
X274875750Y-83746429D01*
X274875750Y-83927857D01*
X274803179Y-84048810D01*
X274730607Y-84109286D01*
X274585465Y-84169762D01*
X274004893Y-84169762D01*
X275456322Y-84411667D02*
X276182036Y-84411667D01*
X275311179Y-84774524D02*
X275819179Y-83504524D01*
X276327179Y-84774524D01*
X277706036Y-84653571D02*
X277633465Y-84714048D01*
X277415751Y-84774524D01*
X277270608Y-84774524D01*
X277052893Y-84714048D01*
X276907751Y-84593095D01*
X276835179Y-84472143D01*
X276762608Y-84230238D01*
X276762608Y-84048810D01*
X276835179Y-83806905D01*
X276907751Y-83685952D01*
X277052893Y-83565000D01*
X277270608Y-83504524D01*
X277415751Y-83504524D01*
X277633465Y-83565000D01*
X277706036Y-83625476D01*
X278359179Y-84109286D02*
X278867179Y-84109286D01*
X279084893Y-84774524D02*
X278359179Y-84774524D01*
X278359179Y-83504524D01*
X279084893Y-83504524D01*
M02*
