M48
INCH,TZ
T1C0.039
T2C0.040
T3C0.059
%
G90
G05
T1
X8419Y-32000
X9356Y-39500
X9356Y-54500
X9419Y-32000
X10356Y-39500
X10356Y-54500
X10419Y-32000
X11231Y-47000
X11356Y-39500
X11356Y-54500
X11419Y-32000
X12231Y-47000
X12356Y-39500
X12356Y-54500
X13231Y-47000
X14231Y-47000
X15919Y-32000
X16919Y-32000
X17794Y-39500
X17919Y-32000
X18731Y-54500
X18794Y-39500
X18919Y-32000
X19731Y-54500
X19794Y-39500
X20731Y-54500
X20794Y-39500
X21544Y-47000
X21731Y-54500
X22544Y-47000
X23419Y-32000
X23544Y-47000
X24419Y-32000
X24544Y-47000
X25294Y-39500
X25419Y-32000
X26294Y-39500
X26419Y-32000
X27294Y-39500
X28106Y-54500
X28294Y-39500
X29044Y-47000
X29106Y-54500
X30044Y-47000
X30106Y-54500
X30919Y-32000
X31044Y-47000
X31106Y-54500
X31919Y-32000
X32044Y-47000
X32794Y-39500
X32919Y-32000
X33794Y-39500
X33919Y-32000
X34794Y-39500
X35794Y-39500
X36544Y-47000
X37544Y-47000
X38419Y-32000
X38544Y-47000
X39419Y-32000
X39544Y-47000
X40294Y-39500
X40294Y-54500
X40419Y-32000
X41294Y-39500
X41294Y-54500
X41419Y-32000
X42294Y-39500
X42294Y-54500
X43294Y-39500
X43294Y-54500
X44044Y-47000
X45044Y-47000
X45919Y-32000
X46044Y-47000
X46919Y-32000
X47044Y-47000
X47794Y-39500
X47919Y-32000
X48794Y-39500
X48919Y-32000
X49794Y-39500
X50794Y-39500
X51544Y-47000
X51544Y-54500
X52544Y-47000
X52544Y-54500
X53419Y-32000
X53544Y-47000
X53544Y-54500
X54419Y-32000
X54544Y-47000
X54544Y-54500
X55294Y-39500
X55419Y-32000
X56294Y-39500
X56419Y-32000
X57294Y-39500
X58294Y-39500
X59044Y-47000
X60044Y-47000
X60919Y-32000
X61044Y-47000
X61919Y-32000
X62044Y-47000
X62794Y-39500
X62794Y-54500
X62919Y-32000
X63794Y-39500
X63794Y-54500
X63919Y-32000
X64794Y-39500
X64794Y-54500
X65794Y-39500
X65794Y-54500
X66544Y-47000
X67544Y-47000
X68419Y-32000
X68544Y-47000
X69419Y-32000
X69544Y-47000
X70294Y-39500
X70419Y-32000
X71294Y-39500
X71419Y-32000
X72294Y-39500
X73294Y-39500
X74044Y-47000
X74044Y-54500
X75044Y-47000
X75044Y-54500
X75919Y-32000
X76044Y-47000
X76044Y-54500
X76919Y-32000
X77044Y-47000
X77044Y-54500
X77794Y-39500
X77919Y-32000
X78794Y-39500
X78919Y-32000
X79794Y-39500
X80794Y-39500
X81544Y-47000
X81544Y-54500
X82544Y-47000
X82544Y-54500
X83419Y-32000
X83544Y-47000
X83544Y-54500
X84419Y-32000
X84544Y-47000
X84544Y-54500
X85294Y-39500
X85419Y-32000
X86294Y-39500
X86419Y-32000
X87294Y-39500
X88294Y-39500
X89044Y-47000
X89044Y-54500
X90044Y-47000
X90044Y-54500
X90919Y-32000
X91044Y-47000
X91044Y-54500
X91919Y-32000
X92044Y-47000
X92044Y-54500
X92794Y-39500
X92919Y-32000
X93794Y-39500
X93919Y-32000
X94794Y-39500
X95794Y-39500
X96544Y-54500
X97544Y-54500
X98419Y-32000
X98544Y-54500
X99419Y-32000
X99544Y-54500
X100419Y-32000
X101231Y-47000
X101419Y-32000
X102231Y-47000
X103106Y-39500
X103231Y-47000
X104106Y-39500
X104231Y-47000
X104981Y-54500
X105106Y-39500
X105919Y-32000
X105981Y-54500
X106106Y-39500
X106919Y-32000
X106981Y-54500
X107919Y-32000
X107981Y-54500
X108919Y-32000
T2
X7087Y-43063
X7087Y-44063
X7087Y-45063
X7087Y-46063
X29528Y-25591
X30528Y-25591
X31528Y-25591
X32528Y-25591
X33528Y-25591
X34528Y-25591
X35528Y-25591
X81890Y-25591
X82890Y-25591
X83890Y-25591
X84890Y-25591
X85890Y-25591
X86890Y-25591
X87890Y-25591
T3
X8419Y-29000
X9356Y-36500
X9356Y-51500
X10919Y-28000
X11231Y-44000
X11856Y-35500
X11856Y-50500
X13731Y-43000
X15919Y-29000
X17794Y-36500
X18419Y-28000
X18731Y-51500
X20294Y-35500
X21231Y-50500
X21544Y-44000
X23419Y-29000
X24044Y-43000
X25294Y-36500
X25919Y-28000
X27794Y-35500
X28106Y-51500
X29044Y-44000
X30606Y-50500
X30919Y-29000
X31544Y-43000
X32794Y-36500
X33419Y-28000
X35294Y-35500
X36544Y-44000
X38419Y-29000
X39044Y-43000
X40294Y-36500
X40294Y-51500
X40919Y-28000
X42794Y-35500
X42794Y-50500
X44044Y-44000
X45919Y-29000
X46544Y-43000
X47794Y-36500
X48419Y-28000
X50294Y-35500
X51544Y-44000
X51544Y-51500
X53419Y-29000
X54044Y-43000
X54044Y-50500
X55294Y-36500
X55919Y-28000
X57794Y-35500
X59044Y-44000
X60919Y-29000
X61544Y-43000
X62794Y-36500
X62794Y-51500
X63419Y-28000
X65294Y-35500
X65294Y-50500
X66544Y-44000
X68419Y-29000
X69044Y-43000
X70294Y-36500
X70919Y-28000
X72794Y-35500
X74044Y-44000
X74044Y-51500
X75919Y-29000
X76544Y-43000
X76544Y-50500
X77794Y-36500
X78419Y-28000
X80294Y-35500
X81544Y-44000
X81544Y-51500
X83419Y-29000
X84044Y-43000
X84044Y-50500
X85294Y-36500
X85919Y-28000
X87794Y-35500
X89044Y-44000
X89044Y-51500
X90919Y-29000
X91544Y-43000
X91544Y-50500
X92794Y-36500
X93419Y-28000
X95294Y-35500
X96544Y-51500
X98419Y-29000
X99044Y-50500
X100919Y-28000
X101231Y-44000
X103106Y-36500
X103731Y-43000
X104981Y-51500
X105606Y-35500
X105919Y-29000
X107481Y-50500
X108419Y-28000
T0
M30
