G04 #@! TF.FileFunction,Legend,Bot*
%FSLAX46Y46*%
G04 Gerber Fmt 4.6, Leading zero omitted, Abs format (unit mm)*
G04 Created by KiCad (PCBNEW 4.0.4-stable) date Friday, 11 November 2016 'PMt' 03:40:33 PM*
%MOMM*%
%LPD*%
G01*
G04 APERTURE LIST*
%ADD10C,0.100000*%
%ADD11C,0.010000*%
G04 APERTURE END LIST*
D10*
D11*
G36*
X69681894Y-71874527D02*
X69332423Y-72032549D01*
X69104652Y-72207665D01*
X68806547Y-72581874D01*
X68638790Y-73026405D01*
X68617887Y-73493805D01*
X68630082Y-73571890D01*
X68696995Y-73813995D01*
X68813412Y-74135251D01*
X68943938Y-74443104D01*
X69138689Y-74976669D01*
X69197755Y-75464775D01*
X69123679Y-75959771D01*
X69031336Y-76242731D01*
X68840845Y-76878315D01*
X68700454Y-77611513D01*
X68619705Y-78375535D01*
X68608138Y-79103591D01*
X68611609Y-79180723D01*
X68659629Y-79714539D01*
X68753551Y-80213901D01*
X68906597Y-80724693D01*
X69131991Y-81292801D01*
X69370073Y-81812667D01*
X69614274Y-82346548D01*
X69810452Y-82820126D01*
X69949041Y-83207889D01*
X70020472Y-83484327D01*
X70028141Y-83567385D01*
X69988327Y-83791568D01*
X69867175Y-84056891D01*
X69654381Y-84377636D01*
X69339643Y-84768083D01*
X68912658Y-85242514D01*
X68529973Y-85644091D01*
X67978894Y-86227734D01*
X67535480Y-86736795D01*
X67176599Y-87204234D01*
X66879117Y-87663012D01*
X66619900Y-88146088D01*
X66375815Y-88686423D01*
X66348012Y-88752899D01*
X66158886Y-89192968D01*
X66002005Y-89505959D01*
X65852072Y-89724050D01*
X65683786Y-89879419D01*
X65471850Y-90004244D01*
X65302661Y-90082505D01*
X64639626Y-90382164D01*
X64109082Y-90647522D01*
X63683810Y-90900558D01*
X63336595Y-91163249D01*
X63040217Y-91457573D01*
X62767461Y-91805508D01*
X62491109Y-92229032D01*
X62347195Y-92469014D01*
X61958625Y-93169794D01*
X61657687Y-93817972D01*
X61415671Y-94483984D01*
X61203866Y-95238265D01*
X61181150Y-95329771D01*
X61045286Y-95847931D01*
X60910965Y-96232259D01*
X60748941Y-96515434D01*
X60529966Y-96730136D01*
X60224792Y-96909043D01*
X59804172Y-97084834D01*
X59515108Y-97191280D01*
X58962618Y-97413248D01*
X58507230Y-97656546D01*
X58105043Y-97953527D01*
X57712156Y-98336545D01*
X57290528Y-98830667D01*
X57040029Y-99126768D01*
X56716365Y-99488158D01*
X56367626Y-99861929D01*
X56136252Y-100100667D01*
X55788984Y-100473276D01*
X55400209Y-100924127D01*
X55022514Y-101390677D01*
X54764212Y-101732450D01*
X54238432Y-102402172D01*
X53708106Y-102949655D01*
X53126220Y-103415132D01*
X52445761Y-103838838D01*
X52066439Y-104041181D01*
X51683846Y-104243901D01*
X51333353Y-104442229D01*
X51056606Y-104611849D01*
X50907008Y-104718169D01*
X50635242Y-105047132D01*
X50507355Y-105433199D01*
X50525287Y-105841131D01*
X50690977Y-106235691D01*
X50814453Y-106399711D01*
X50943468Y-106537086D01*
X51076233Y-106645313D01*
X51243995Y-106738541D01*
X51478000Y-106830918D01*
X51809494Y-106936593D01*
X52269725Y-107069714D01*
X52334667Y-107088086D01*
X52965888Y-107235463D01*
X53677399Y-107339425D01*
X54305715Y-107394335D01*
X54718007Y-107424193D01*
X55052084Y-107456707D01*
X55345926Y-107500532D01*
X55637510Y-107564320D01*
X55964816Y-107656728D01*
X56365822Y-107786410D01*
X56878506Y-107962020D01*
X57034468Y-108016160D01*
X57626402Y-108215207D01*
X58266335Y-108419170D01*
X58898223Y-108610907D01*
X59466017Y-108773280D01*
X59792178Y-108859501D01*
X60472357Y-109017434D01*
X61054334Y-109116770D01*
X61587622Y-109158109D01*
X62121735Y-109142052D01*
X62706186Y-109069202D01*
X63390490Y-108940158D01*
X63555127Y-108905198D01*
X63822912Y-108859150D01*
X64056380Y-108856149D01*
X64283611Y-108908731D01*
X64532685Y-109029435D01*
X64831684Y-109230800D01*
X65208687Y-109525362D01*
X65521300Y-109783102D01*
X65878457Y-110078794D01*
X66228260Y-110364913D01*
X66529021Y-110607563D01*
X66728598Y-110764824D01*
X66971588Y-110962306D01*
X67280234Y-111227911D01*
X67597916Y-111512623D01*
X67681135Y-111589426D01*
X68289782Y-112086417D01*
X68898548Y-112435472D01*
X69542482Y-112654345D01*
X69923899Y-112725607D01*
X70539091Y-112817066D01*
X71014696Y-112908941D01*
X71379479Y-113019846D01*
X71662205Y-113168398D01*
X71891639Y-113373212D01*
X72096546Y-113652906D01*
X72305692Y-114026093D01*
X72484809Y-114382953D01*
X72704635Y-114812872D01*
X72901266Y-115144887D01*
X73114173Y-115433562D01*
X73382824Y-115733462D01*
X73675657Y-116029246D01*
X73970587Y-116326588D01*
X74225388Y-116595002D01*
X74412724Y-116804921D01*
X74505044Y-116926370D01*
X74537674Y-117075449D01*
X74562269Y-117373290D01*
X74577888Y-117799473D01*
X74583588Y-118333577D01*
X74582631Y-118608458D01*
X74580780Y-119182699D01*
X74587401Y-119629834D01*
X74606089Y-119992017D01*
X74640443Y-120311406D01*
X74694059Y-120630157D01*
X74770534Y-120990425D01*
X74795043Y-121098000D01*
X74921511Y-121613211D01*
X75077786Y-122198972D01*
X75239428Y-122765425D01*
X75324635Y-123045334D01*
X75513127Y-123726278D01*
X75664654Y-124463915D01*
X75790238Y-125312477D01*
X75797877Y-125373667D01*
X75897462Y-126131344D01*
X75991879Y-126739630D01*
X76085684Y-127218185D01*
X76183430Y-127586672D01*
X76289672Y-127864752D01*
X76408966Y-128072088D01*
X76429350Y-128099725D01*
X76759219Y-128419220D01*
X77136929Y-128595735D01*
X77533978Y-128622309D01*
X77921863Y-128491981D01*
X77955204Y-128472406D01*
X78251984Y-128206290D01*
X78539141Y-127778869D01*
X78796607Y-127234309D01*
X79211682Y-126432034D01*
X79765544Y-125694939D01*
X80431642Y-125051653D01*
X81183423Y-124530804D01*
X81424054Y-124401519D01*
X81775932Y-124213640D01*
X82079253Y-124020530D01*
X82376014Y-123790144D01*
X82708215Y-123490438D01*
X83033129Y-123173852D01*
X83596612Y-122578002D01*
X84038799Y-122026652D01*
X84325115Y-121592884D01*
X84546724Y-121246080D01*
X84775477Y-120926850D01*
X84975871Y-120683268D01*
X85055581Y-120603775D01*
X85170447Y-120506916D01*
X85281540Y-120433018D01*
X85416152Y-120375601D01*
X85582522Y-120333058D01*
X81788540Y-120333058D01*
X81648281Y-120627689D01*
X81358358Y-120982381D01*
X81354167Y-120986831D01*
X81016979Y-121305599D01*
X80580236Y-121662786D01*
X80095153Y-122019734D01*
X79612951Y-122337786D01*
X79388690Y-122470285D01*
X79057921Y-122596852D01*
X78766871Y-122595443D01*
X78558656Y-122473834D01*
X78423222Y-122278149D01*
X78250402Y-121963936D01*
X78058680Y-121572514D01*
X77866541Y-121145205D01*
X77692468Y-120723330D01*
X77554948Y-120348210D01*
X77472464Y-120061167D01*
X77466897Y-120033280D01*
X77408180Y-119511835D01*
X77449605Y-119124728D01*
X77590600Y-118872907D01*
X77830592Y-118757321D01*
X78169009Y-118778919D01*
X78216861Y-118790951D01*
X78883254Y-118974160D01*
X79524797Y-119158245D01*
X80119752Y-119336320D01*
X80646385Y-119501496D01*
X81082961Y-119646886D01*
X81407745Y-119765603D01*
X81599000Y-119850757D01*
X81632720Y-119873399D01*
X81782299Y-120085842D01*
X81788540Y-120333058D01*
X85582522Y-120333058D01*
X85601575Y-120328186D01*
X85865102Y-120284295D01*
X86234025Y-120237448D01*
X86735638Y-120181166D01*
X86921000Y-120160937D01*
X87968642Y-120026926D01*
X88947341Y-119862400D01*
X89835296Y-119672365D01*
X90610703Y-119461825D01*
X91251760Y-119235788D01*
X91561366Y-119095553D01*
X91912657Y-118897188D01*
X92354080Y-118617263D01*
X92846532Y-118283635D01*
X93350911Y-117924163D01*
X93828115Y-117566705D01*
X94239041Y-117239119D01*
X94541000Y-116972723D01*
X94825994Y-116691552D01*
X95170856Y-116341339D01*
X95521006Y-115977846D01*
X95692680Y-115796088D01*
X96115048Y-115381001D01*
X96501183Y-115094217D01*
X96895139Y-114914945D01*
X97340967Y-114822395D01*
X97811458Y-114796177D01*
X98124915Y-114801063D01*
X98349562Y-114838926D01*
X98556998Y-114932652D01*
X98818820Y-115105125D01*
X98852757Y-115129000D01*
X99417622Y-115516241D01*
X99887660Y-115806906D01*
X100297088Y-116014063D01*
X100680123Y-116150781D01*
X101070983Y-116230125D01*
X101503885Y-116265164D01*
X101841385Y-116270347D01*
X102303123Y-116256728D01*
X102843936Y-116221651D01*
X103375858Y-116171431D01*
X103600333Y-116144051D01*
X104285967Y-116062096D01*
X104837613Y-116024543D01*
X105286236Y-116037537D01*
X105662804Y-116107221D01*
X105998281Y-116239738D01*
X106323635Y-116441232D01*
X106669832Y-116717847D01*
X106722329Y-116763445D01*
X107136841Y-117086970D01*
X107506410Y-117280073D01*
X107871089Y-117358789D01*
X108187645Y-117350019D01*
X108602296Y-117228306D01*
X108925030Y-116976908D01*
X109151289Y-116611197D01*
X109276520Y-116146544D01*
X109296166Y-115598322D01*
X109205673Y-114981902D01*
X109048820Y-114444050D01*
X108929704Y-114084810D01*
X108848010Y-113766482D01*
X108802020Y-113452915D01*
X108790020Y-113107958D01*
X108810293Y-112695460D01*
X108861123Y-112179270D01*
X108918557Y-111700000D01*
X109016935Y-110769060D01*
X109017545Y-110756349D01*
X105970922Y-110756349D01*
X105926678Y-111281446D01*
X105838959Y-111798113D01*
X105748409Y-112165899D01*
X105648456Y-112405218D01*
X105532529Y-112536482D01*
X105520150Y-112544249D01*
X105372311Y-112578697D01*
X105104429Y-112595998D01*
X104765158Y-112593634D01*
X104658667Y-112588818D01*
X104263556Y-112568012D01*
X103772108Y-112543001D01*
X103257134Y-112517457D01*
X102930638Y-112501655D01*
X102521077Y-112475921D01*
X102163316Y-112442067D01*
X101897290Y-112404606D01*
X101766472Y-112370093D01*
X101643195Y-112257404D01*
X101631211Y-112097983D01*
X101736731Y-111875854D01*
X101965966Y-111575042D01*
X102161252Y-111354740D01*
X102403022Y-111069621D01*
X102703351Y-110682662D01*
X103031162Y-110235686D01*
X103355378Y-109770516D01*
X103504813Y-109546635D01*
X103846711Y-109034613D01*
X104118936Y-108651387D01*
X104337598Y-108379756D01*
X104518804Y-108202518D01*
X104678662Y-108102471D01*
X104833281Y-108062413D01*
X104897537Y-108059334D01*
X105146134Y-108139635D01*
X105376426Y-108363700D01*
X105580345Y-108706267D01*
X105749822Y-109142076D01*
X105876789Y-109645867D01*
X105953179Y-110192378D01*
X105970922Y-110756349D01*
X109017545Y-110756349D01*
X109055632Y-109963080D01*
X109025158Y-109254626D01*
X108916022Y-108616267D01*
X108718733Y-108020567D01*
X108423799Y-107440095D01*
X108021729Y-106847416D01*
X107503032Y-106215097D01*
X106858217Y-105515705D01*
X106734551Y-105387315D01*
X106355073Y-104984331D01*
X106084767Y-104658197D01*
X105907787Y-104371551D01*
X105808285Y-104087031D01*
X105770415Y-103767278D01*
X105778330Y-103374928D01*
X105792492Y-103166257D01*
X105804035Y-102790332D01*
X105795355Y-102280967D01*
X105768983Y-101672516D01*
X105767616Y-101650356D01*
X102514876Y-101650356D01*
X102446015Y-102626784D01*
X102305830Y-103562341D01*
X102098554Y-104412398D01*
X101935271Y-104884334D01*
X101768065Y-105345579D01*
X101606889Y-105857915D01*
X101477633Y-106336614D01*
X101438422Y-106510482D01*
X101312879Y-107051782D01*
X101169277Y-107506213D01*
X100986446Y-107913596D01*
X100743218Y-108313749D01*
X100418421Y-108746494D01*
X99990886Y-109251651D01*
X99966083Y-109279921D01*
X99547573Y-109716856D01*
X99185747Y-110012391D01*
X98885457Y-110164125D01*
X98651557Y-110169656D01*
X98488897Y-110026582D01*
X98482101Y-110014329D01*
X98448351Y-109853678D01*
X98431554Y-109538353D01*
X98432036Y-109082192D01*
X98447865Y-108553829D01*
X98456717Y-107783565D01*
X95197605Y-107783565D01*
X95191581Y-108102137D01*
X95164204Y-108525000D01*
X95107462Y-109241992D01*
X95055722Y-109818054D01*
X95003509Y-110281268D01*
X94945346Y-110659711D01*
X94875758Y-110981465D01*
X94789269Y-111274608D01*
X94680402Y-111567221D01*
X94543682Y-111887383D01*
X94481418Y-112026244D01*
X94277464Y-112458642D01*
X94058800Y-112891179D01*
X93854046Y-113268775D01*
X93714977Y-113501289D01*
X93416837Y-113901454D01*
X93023137Y-114344203D01*
X92581364Y-114781509D01*
X92139007Y-115165344D01*
X91874000Y-115363178D01*
X91627832Y-115537406D01*
X91305440Y-115772794D01*
X90964614Y-116026991D01*
X90858000Y-116107744D01*
X90443319Y-116413812D01*
X90108230Y-116631693D01*
X89804899Y-116784716D01*
X89485488Y-116896207D01*
X89102161Y-116989496D01*
X89010652Y-117008632D01*
X88698338Y-117056246D01*
X88252914Y-117101932D01*
X87710601Y-117143946D01*
X87107623Y-117180543D01*
X86480203Y-117209979D01*
X85864562Y-117230507D01*
X85296923Y-117240385D01*
X84813510Y-117237867D01*
X84508000Y-117225506D01*
X84190292Y-117190916D01*
X83770677Y-117126830D01*
X83311855Y-117043491D01*
X83003727Y-116979795D01*
X82059080Y-116758582D01*
X81250657Y-116535287D01*
X80545646Y-116297777D01*
X79911235Y-116033922D01*
X79314613Y-115731589D01*
X78793000Y-115422952D01*
X78391286Y-115178539D01*
X78043706Y-114990645D01*
X77698753Y-114836945D01*
X77304923Y-114695113D01*
X76810708Y-114542824D01*
X76663686Y-114499996D01*
X76292424Y-114375473D01*
X76016129Y-114230116D01*
X75761768Y-114021884D01*
X75660729Y-113922651D01*
X75288734Y-113486496D01*
X75063805Y-113083659D01*
X74988704Y-112723076D01*
X75066194Y-112413682D01*
X75155736Y-112288907D01*
X75350638Y-112110247D01*
X75644781Y-111883521D01*
X75998539Y-111634795D01*
X76372284Y-111390135D01*
X76726389Y-111175608D01*
X77021227Y-111017281D01*
X77197485Y-110945858D01*
X77397124Y-110906227D01*
X77613571Y-110897686D01*
X77868658Y-110925401D01*
X78184218Y-110994537D01*
X78582083Y-111110258D01*
X79084085Y-111277731D01*
X79712057Y-111502121D01*
X80009017Y-111611038D01*
X80506878Y-111792249D01*
X80956074Y-111951329D01*
X81330468Y-112079378D01*
X81603922Y-112167497D01*
X81750299Y-112206785D01*
X81762156Y-112208000D01*
X81892616Y-112237602D01*
X82141407Y-112317697D01*
X82469909Y-112435216D01*
X82757710Y-112544875D01*
X83442650Y-112791496D01*
X84012206Y-112947741D01*
X84490791Y-113018789D01*
X84902816Y-113009822D01*
X84931333Y-113006121D01*
X85208672Y-112958729D01*
X85610578Y-112878035D01*
X86099934Y-112772665D01*
X86639619Y-112651242D01*
X87192517Y-112522392D01*
X87721508Y-112394739D01*
X88189474Y-112276907D01*
X88559296Y-112177520D01*
X88764021Y-112115588D01*
X89481044Y-111838552D01*
X90227652Y-111488107D01*
X90930041Y-111100845D01*
X91339958Y-110838449D01*
X91599393Y-110640138D01*
X91951300Y-110342291D01*
X92370746Y-109967397D01*
X92832794Y-109537943D01*
X93312512Y-109076415D01*
X93512853Y-108878827D01*
X93994362Y-108403165D01*
X94371316Y-108038382D01*
X94656600Y-107773369D01*
X94863099Y-107597016D01*
X95003700Y-107498215D01*
X95091289Y-107465857D01*
X95133261Y-107481827D01*
X95178410Y-107585040D01*
X95197605Y-107783565D01*
X98456717Y-107783565D01*
X98461316Y-107383392D01*
X98399590Y-106347637D01*
X98259800Y-105428122D01*
X98039062Y-104606400D01*
X97734487Y-103864029D01*
X97704512Y-103803743D01*
X97516888Y-103384202D01*
X97420908Y-103019002D01*
X97414241Y-102654864D01*
X97494554Y-102238511D01*
X97618409Y-101836334D01*
X97863105Y-101027937D01*
X98038451Y-100238436D01*
X98151596Y-99419343D01*
X98209691Y-98522168D01*
X98221407Y-97746869D01*
X98208235Y-96662680D01*
X98198332Y-96410057D01*
X94969822Y-96410057D01*
X94955313Y-96786595D01*
X94920064Y-97154930D01*
X94876190Y-97589629D01*
X94828641Y-98119091D01*
X94783840Y-98669048D01*
X94754952Y-99064200D01*
X94716962Y-99536915D01*
X94668055Y-99929817D01*
X94596910Y-100298644D01*
X94492209Y-100699135D01*
X94342629Y-101187027D01*
X94291681Y-101345292D01*
X94090585Y-101934676D01*
X93905857Y-102400751D01*
X93718815Y-102785878D01*
X93510775Y-103132413D01*
X93488731Y-103165626D01*
X93165419Y-103592997D01*
X92728300Y-104088219D01*
X92204486Y-104625251D01*
X91621087Y-105178053D01*
X91005215Y-105720585D01*
X90383982Y-106226806D01*
X89998554Y-106517916D01*
X89689078Y-106775805D01*
X89361997Y-107098032D01*
X89122891Y-107372543D01*
X88885037Y-107643439D01*
X88637918Y-107874313D01*
X88433676Y-108016637D01*
X88427698Y-108019536D01*
X88234455Y-108089246D01*
X87915991Y-108180180D01*
X87513359Y-108281526D01*
X87067613Y-108382475D01*
X86975027Y-108402058D01*
X86515891Y-108502108D01*
X86081913Y-108604146D01*
X85717568Y-108697225D01*
X85467330Y-108770396D01*
X85439333Y-108780069D01*
X84946665Y-108947984D01*
X84546116Y-109056279D01*
X84175393Y-109114833D01*
X83772202Y-109133526D01*
X83280333Y-109122484D01*
X82757627Y-109085542D01*
X82250238Y-109021745D01*
X82159025Y-109004152D01*
X73882333Y-109004152D01*
X73806716Y-109144014D01*
X73609272Y-109290964D01*
X73334111Y-109418350D01*
X73077872Y-109490214D01*
X72431020Y-109565571D01*
X71728204Y-109542143D01*
X71382029Y-109499958D01*
X70991540Y-109428357D01*
X70552889Y-109325831D01*
X70252043Y-109241715D01*
X69981666Y-109148979D01*
X69756201Y-109041881D01*
X69534987Y-108893187D01*
X69277364Y-108675666D01*
X68951887Y-108370913D01*
X68587790Y-108000238D01*
X68185700Y-107555936D01*
X67803788Y-107103756D01*
X67590074Y-106831667D01*
X67263176Y-106412082D01*
X66935968Y-106009692D01*
X62292345Y-106009692D01*
X62263917Y-106135903D01*
X62254021Y-106158837D01*
X62151464Y-106298922D01*
X61994633Y-106354837D01*
X61762071Y-106323754D01*
X61432319Y-106202844D01*
X60989666Y-105992189D01*
X60558349Y-105782607D01*
X60188468Y-105629506D01*
X59834013Y-105521611D01*
X59448976Y-105447647D01*
X58987348Y-105396342D01*
X58403121Y-105356421D01*
X58392686Y-105355823D01*
X57827280Y-105313677D01*
X57397103Y-105254950D01*
X57068215Y-105170543D01*
X56806677Y-105051358D01*
X56578549Y-104888298D01*
X56546833Y-104861001D01*
X56428222Y-104703814D01*
X56414755Y-104514224D01*
X56513332Y-104270956D01*
X56730854Y-103952736D01*
X56915732Y-103723658D01*
X57217502Y-103349729D01*
X57550094Y-102916501D01*
X57850903Y-102505903D01*
X57905027Y-102429000D01*
X58255163Y-101962528D01*
X58639045Y-101511511D01*
X59031557Y-101100552D01*
X59407582Y-100754249D01*
X59742005Y-100497205D01*
X60009709Y-100354020D01*
X60030248Y-100347386D01*
X60263889Y-100289743D01*
X60409763Y-100301188D01*
X60537366Y-100388015D01*
X60543914Y-100393906D01*
X60634733Y-100491776D01*
X60712434Y-100621152D01*
X60784309Y-100806656D01*
X60857649Y-101072908D01*
X60939745Y-101444530D01*
X61037888Y-101946142D01*
X61096417Y-102259667D01*
X61257037Y-103051389D01*
X61429014Y-103726779D01*
X61628713Y-104338764D01*
X61872500Y-104940272D01*
X62033777Y-105291003D01*
X62187302Y-105626751D01*
X62270149Y-105853144D01*
X62292345Y-106009692D01*
X66935968Y-106009692D01*
X66874496Y-105934097D01*
X66477877Y-105463021D01*
X66194384Y-105138751D01*
X65839125Y-104729096D01*
X65568792Y-104379852D01*
X65345686Y-104034654D01*
X65132107Y-103637136D01*
X64980340Y-103323586D01*
X64636128Y-102559710D01*
X64372344Y-101886291D01*
X64174015Y-101253885D01*
X64026166Y-100613047D01*
X63913823Y-99914334D01*
X63888898Y-99719667D01*
X63805152Y-98875409D01*
X63782291Y-98160561D01*
X63824864Y-97544843D01*
X63937421Y-96997979D01*
X64124508Y-96489689D01*
X64390676Y-95989697D01*
X64467828Y-95866007D01*
X64659152Y-95545759D01*
X64802480Y-95243264D01*
X64917227Y-94905896D01*
X65022807Y-94481028D01*
X65081826Y-94201692D01*
X65180898Y-93969347D01*
X65357568Y-93740633D01*
X65563734Y-93566193D01*
X65751296Y-93496667D01*
X65751493Y-93496667D01*
X65897627Y-93517079D01*
X66012743Y-93598631D01*
X66120428Y-93771798D01*
X66244269Y-94067057D01*
X66292305Y-94195400D01*
X66436027Y-94553667D01*
X66612401Y-94950784D01*
X66723254Y-95180598D01*
X66877882Y-95520941D01*
X67012998Y-95876384D01*
X67078021Y-96090531D01*
X67364745Y-96960344D01*
X67756008Y-97706435D01*
X67934107Y-97959277D01*
X68213437Y-98359267D01*
X68386922Y-98713740D01*
X68476905Y-99087820D01*
X68505732Y-99546627D01*
X68506163Y-99626468D01*
X68520594Y-100028727D01*
X68560180Y-100526400D01*
X68619640Y-101081409D01*
X68693691Y-101655680D01*
X68777050Y-102211135D01*
X68864436Y-102709700D01*
X68950565Y-103113298D01*
X69025873Y-103372631D01*
X69185612Y-103708244D01*
X69405946Y-104062854D01*
X69552217Y-104254767D01*
X70278669Y-105092257D01*
X71073185Y-105977555D01*
X71882670Y-106852544D01*
X72654030Y-107659107D01*
X72777929Y-107785623D01*
X73126842Y-108145401D01*
X73430428Y-108467803D01*
X73669998Y-108732206D01*
X73826860Y-108917988D01*
X73882333Y-109004152D01*
X82159025Y-109004152D01*
X81827795Y-108940265D01*
X81756333Y-108921751D01*
X81393498Y-108805138D01*
X80960623Y-108641599D01*
X80538091Y-108461965D01*
X80444000Y-108418394D01*
X80021063Y-108223192D01*
X79555663Y-108015692D01*
X79136633Y-107835384D01*
X79069161Y-107807280D01*
X78534041Y-107555333D01*
X77914691Y-107212115D01*
X77251050Y-106801487D01*
X76583055Y-106347313D01*
X76381086Y-106201224D01*
X76028945Y-105949252D01*
X75643787Y-105683832D01*
X75321667Y-105470679D01*
X74650381Y-104998487D01*
X74073701Y-104491946D01*
X73533317Y-103897385D01*
X73314309Y-103622948D01*
X72914542Y-103073535D01*
X72597931Y-102553155D01*
X72333691Y-102002715D01*
X72091035Y-101363122D01*
X72008571Y-101116667D01*
X71924290Y-100849678D01*
X71863331Y-100620769D01*
X71822227Y-100394898D01*
X71797511Y-100137022D01*
X71785716Y-99812101D01*
X71783374Y-99385091D01*
X71786580Y-98873000D01*
X71804124Y-97983081D01*
X71843113Y-97231680D01*
X71907372Y-96588905D01*
X72000723Y-96024861D01*
X72126990Y-95509653D01*
X72274863Y-95054894D01*
X72475560Y-94521987D01*
X72658408Y-94105165D01*
X72852249Y-93757744D01*
X73085923Y-93433039D01*
X73388273Y-93084368D01*
X73686911Y-92769271D01*
X74015212Y-92435398D01*
X74264596Y-92201098D01*
X74470097Y-92040686D01*
X74666747Y-91928479D01*
X74889582Y-91838793D01*
X75012669Y-91797328D01*
X75314516Y-91682870D01*
X75710927Y-91509980D01*
X76148652Y-91302841D01*
X76543152Y-91102244D01*
X76961277Y-90885381D01*
X77274873Y-90737441D01*
X77526596Y-90643619D01*
X77759103Y-90589112D01*
X78015052Y-90559119D01*
X78132377Y-90550744D01*
X78508544Y-90539857D01*
X78826166Y-90570535D01*
X79167392Y-90654453D01*
X79408559Y-90732145D01*
X79837773Y-90863348D01*
X80319319Y-90989757D01*
X80723936Y-91078890D01*
X81152354Y-91192104D01*
X81604343Y-91365592D01*
X82051401Y-91581941D01*
X82465027Y-91823739D01*
X82816719Y-92073572D01*
X83077977Y-92314027D01*
X83220299Y-92527692D01*
X83238000Y-92614878D01*
X83175439Y-92750299D01*
X82980419Y-92829725D01*
X82641938Y-92855877D01*
X82312241Y-92843843D01*
X81577534Y-92868904D01*
X80804274Y-93025158D01*
X80037258Y-93296400D01*
X79321284Y-93666424D01*
X78701150Y-94119025D01*
X78642773Y-94171270D01*
X78129323Y-94736840D01*
X77678390Y-95421846D01*
X77313191Y-96181015D01*
X77056938Y-96969072D01*
X76963940Y-97445343D01*
X76900678Y-98348009D01*
X76975294Y-99167472D01*
X77183913Y-99896963D01*
X77522665Y-100529714D01*
X77987675Y-101058957D01*
X78575071Y-101477925D01*
X79280980Y-101779848D01*
X79476672Y-101836553D01*
X79936359Y-101918502D01*
X80394419Y-101909140D01*
X80895786Y-101803237D01*
X81460000Y-101605712D01*
X81816327Y-101467262D01*
X82264452Y-101297965D01*
X82736482Y-101123297D01*
X83020020Y-101020365D01*
X83632643Y-100789089D01*
X84118254Y-100576293D01*
X84514420Y-100360617D01*
X84858711Y-100120704D01*
X85188695Y-99835196D01*
X85309700Y-99718637D01*
X85790998Y-99204585D01*
X86157376Y-98710082D01*
X86445608Y-98179426D01*
X86640376Y-97703117D01*
X86828307Y-97067867D01*
X86970528Y-96335549D01*
X87066259Y-95541684D01*
X87114723Y-94721794D01*
X87115140Y-93911399D01*
X87066733Y-93146021D01*
X86968723Y-92461180D01*
X86820333Y-91892398D01*
X86770568Y-91761000D01*
X86542524Y-91310826D01*
X86223360Y-90817124D01*
X85855587Y-90340373D01*
X85510588Y-89968472D01*
X85302278Y-89792700D01*
X84987567Y-89557143D01*
X84605075Y-89289438D01*
X84193420Y-89017222D01*
X84084667Y-88948038D01*
X83581135Y-88630298D01*
X83202874Y-88389600D01*
X82931966Y-88212591D01*
X82750497Y-88085917D01*
X82640548Y-87996224D01*
X82584204Y-87930160D01*
X82563549Y-87874371D01*
X82560666Y-87815503D01*
X82560667Y-87812167D01*
X82594152Y-87690040D01*
X82706422Y-87600489D01*
X82915201Y-87540491D01*
X83238212Y-87507021D01*
X83693178Y-87497054D01*
X84297821Y-87507567D01*
X84338667Y-87508765D01*
X84904877Y-87531633D01*
X85394862Y-87567753D01*
X85865325Y-87624251D01*
X86372968Y-87708255D01*
X86974496Y-87826892D01*
X87132667Y-87859948D01*
X87969540Y-88038680D01*
X88663715Y-88195263D01*
X89238886Y-88338976D01*
X89718747Y-88479096D01*
X90126991Y-88624900D01*
X90487313Y-88785664D01*
X90823407Y-88970667D01*
X91158966Y-89189185D01*
X91517684Y-89450496D01*
X91851162Y-89707451D01*
X92437756Y-90190492D01*
X92916647Y-90647160D01*
X93332569Y-91124815D01*
X93730256Y-91670821D01*
X93790739Y-91761000D01*
X94068143Y-92210670D01*
X94280917Y-92641973D01*
X94442251Y-93096166D01*
X94565339Y-93614506D01*
X94663372Y-94238248D01*
X94711224Y-94639667D01*
X94760429Y-95004968D01*
X94830503Y-95429189D01*
X94889255Y-95736063D01*
X94948282Y-96081933D01*
X94969822Y-96410057D01*
X98198332Y-96410057D01*
X98171349Y-95721771D01*
X98108645Y-94899476D01*
X98018024Y-94171126D01*
X97897382Y-93512053D01*
X97838836Y-93256473D01*
X97733128Y-92766345D01*
X97693879Y-92417122D01*
X97728886Y-92206003D01*
X97845944Y-92130189D01*
X98052848Y-92186878D01*
X98357395Y-92373271D01*
X98767380Y-92686567D01*
X98967685Y-92850986D01*
X99513292Y-93331355D01*
X99935860Y-93770000D01*
X100263135Y-94202254D01*
X100522862Y-94663450D01*
X100685905Y-95039089D01*
X100815708Y-95308663D01*
X101015643Y-95654477D01*
X101251644Y-96019296D01*
X101366485Y-96182632D01*
X101659546Y-96599066D01*
X101865679Y-96934020D01*
X102005661Y-97236679D01*
X102100267Y-97556230D01*
X102170274Y-97941859D01*
X102200083Y-98156086D01*
X102256202Y-98572730D01*
X102325220Y-99072238D01*
X102395389Y-99569943D01*
X102421705Y-99753415D01*
X102508183Y-100677690D01*
X102514876Y-101650356D01*
X105767616Y-101650356D01*
X105727449Y-100999337D01*
X105673281Y-100295786D01*
X105609009Y-99596220D01*
X105537164Y-98934995D01*
X105460275Y-98346467D01*
X105417162Y-98068667D01*
X105326430Y-97583217D01*
X105213972Y-97066918D01*
X105097005Y-96595774D01*
X105030517Y-96362102D01*
X104902560Y-95886027D01*
X104856458Y-95516632D01*
X104898908Y-95208857D01*
X105036609Y-94917639D01*
X105276258Y-94597919D01*
X105296290Y-94574173D01*
X105570808Y-94230247D01*
X105875043Y-93815358D01*
X106193456Y-93354455D01*
X106510507Y-92872488D01*
X106810657Y-92394407D01*
X107078367Y-91945162D01*
X107298096Y-91549702D01*
X107454307Y-91232976D01*
X107531458Y-91019935D01*
X107536920Y-90976685D01*
X107575912Y-90815431D01*
X107618301Y-90722685D01*
X107683610Y-90564110D01*
X107769441Y-90304705D01*
X107837435Y-90071283D01*
X108098487Y-89354572D01*
X108478493Y-88629088D01*
X108941669Y-87954840D01*
X109413127Y-87428833D01*
X109690793Y-87201217D01*
X110041054Y-86965845D01*
X110331333Y-86803282D01*
X110401652Y-86765667D01*
X105824605Y-86765667D01*
X105790185Y-86899949D01*
X105679555Y-87141664D01*
X105509812Y-87456939D01*
X105298050Y-87811900D01*
X105290479Y-87824000D01*
X104851900Y-88550906D01*
X104511612Y-89179467D01*
X104255915Y-89738352D01*
X104071110Y-90256227D01*
X103993972Y-90537004D01*
X103824215Y-91117494D01*
X103636774Y-91539636D01*
X103424400Y-91814094D01*
X103179846Y-91951531D01*
X103018044Y-91972667D01*
X102876710Y-91949891D01*
X102719593Y-91867900D01*
X102518634Y-91706203D01*
X102245774Y-91444307D01*
X102119598Y-91316500D01*
X101802994Y-90997598D01*
X101479530Y-90679586D01*
X101197588Y-90409710D01*
X101074724Y-90296178D01*
X100854982Y-90085052D01*
X100698511Y-89889505D01*
X100590738Y-89671443D01*
X100517089Y-89392771D01*
X100462992Y-89015394D01*
X100421506Y-88588678D01*
X100374302Y-88156019D01*
X100312415Y-87729790D01*
X100245751Y-87373781D01*
X100232760Y-87320942D01*
X96992557Y-87320942D01*
X96957011Y-87437080D01*
X96941903Y-87457576D01*
X96879025Y-87519564D01*
X96796956Y-87552795D01*
X96668019Y-87554119D01*
X96464536Y-87520389D01*
X96158831Y-87448456D01*
X95723226Y-87335173D01*
X95616247Y-87306789D01*
X95164878Y-87174057D01*
X94709402Y-87011354D01*
X94225691Y-86807341D01*
X93689622Y-86550681D01*
X93077069Y-86230035D01*
X92363908Y-85834066D01*
X91823857Y-85524492D01*
X91049160Y-85131749D01*
X90115200Y-84758397D01*
X89018651Y-84403215D01*
X88021667Y-84131221D01*
X87867052Y-84090252D01*
X82476000Y-84090252D01*
X82469934Y-84171128D01*
X82438294Y-84244569D01*
X82360913Y-84324224D01*
X82217627Y-84423745D01*
X81988269Y-84556781D01*
X81652676Y-84736984D01*
X81190681Y-84978004D01*
X81079000Y-85035919D01*
X80573911Y-85299190D01*
X80185594Y-85507732D01*
X79879911Y-85683630D01*
X79622725Y-85848962D01*
X79379895Y-86025812D01*
X79117284Y-86236260D01*
X78800754Y-86502389D01*
X78765494Y-86532343D01*
X78401239Y-86832766D01*
X78092246Y-87056885D01*
X77795871Y-87224330D01*
X77469471Y-87354731D01*
X77070403Y-87467719D01*
X76556024Y-87582926D01*
X76423644Y-87610417D01*
X75871970Y-87732512D01*
X75418928Y-87858383D01*
X75021826Y-88007641D01*
X74637976Y-88199898D01*
X74224685Y-88454765D01*
X73739263Y-88791855D01*
X73543667Y-88933442D01*
X72674866Y-89614242D01*
X71865725Y-90353399D01*
X71069956Y-91194425D01*
X70765518Y-91544982D01*
X70397384Y-91975603D01*
X70119797Y-92289040D01*
X69914076Y-92497507D01*
X69761542Y-92613214D01*
X69643513Y-92648375D01*
X69541308Y-92615201D01*
X69436248Y-92525905D01*
X69370287Y-92457090D01*
X69198986Y-92202821D01*
X69049108Y-91858992D01*
X68950997Y-91505141D01*
X68929333Y-91301312D01*
X68996335Y-90978070D01*
X69189644Y-90575550D01*
X69497712Y-90112813D01*
X69908995Y-89608918D01*
X70046357Y-89457345D01*
X70328451Y-89146989D01*
X70579071Y-88860565D01*
X70768482Y-88632705D01*
X70859644Y-88510153D01*
X70967190Y-88352454D01*
X71148850Y-88097891D01*
X71376936Y-87784910D01*
X71567246Y-87527667D01*
X71832247Y-87155879D01*
X72087228Y-86770456D01*
X72296155Y-86427164D01*
X72387891Y-86257667D01*
X72544518Y-85970931D01*
X72718248Y-85723620D01*
X72934667Y-85492011D01*
X73219366Y-85252379D01*
X73597932Y-84981003D01*
X74095955Y-84654158D01*
X74165231Y-84609911D01*
X75163125Y-84021296D01*
X76092679Y-83575433D01*
X76970201Y-83268415D01*
X77811998Y-83096335D01*
X78634379Y-83055287D01*
X79453649Y-83141363D01*
X79893667Y-83237572D01*
X80319581Y-83338684D01*
X80813608Y-83444118D01*
X81276443Y-83532797D01*
X81323263Y-83540982D01*
X81835837Y-83648480D01*
X82190931Y-83769200D01*
X82400228Y-83908706D01*
X82475409Y-84072565D01*
X82476000Y-84090252D01*
X87867052Y-84090252D01*
X87666016Y-84036983D01*
X87383653Y-83945630D01*
X87140588Y-83836766D01*
X86902834Y-83689993D01*
X86636400Y-83484913D01*
X86307300Y-83201128D01*
X85975579Y-82903291D01*
X85601905Y-82576131D01*
X85258652Y-82304902D01*
X84914163Y-82071863D01*
X84536779Y-81859273D01*
X84094844Y-81649389D01*
X83556701Y-81424471D01*
X82890693Y-81166777D01*
X82848714Y-81150919D01*
X82259497Y-80927690D01*
X81810965Y-80754381D01*
X81485051Y-80621999D01*
X81263687Y-80521548D01*
X81128804Y-80444034D01*
X81062335Y-80380462D01*
X81046211Y-80321838D01*
X81061564Y-80261241D01*
X81175090Y-80115871D01*
X81404981Y-79991189D01*
X81766504Y-79881896D01*
X82274925Y-79782691D01*
X82568073Y-79738169D01*
X83066489Y-79661451D01*
X83647101Y-79562832D01*
X84226736Y-79456825D01*
X84592667Y-79384911D01*
X85447312Y-79241090D01*
X86240206Y-79167755D01*
X86497667Y-79160071D01*
X86841132Y-79159035D01*
X87109390Y-79170387D01*
X87346565Y-79203715D01*
X87596782Y-79268607D01*
X87904166Y-79374651D01*
X88312841Y-79531434D01*
X88445000Y-79583209D01*
X88863770Y-79746112D01*
X89241747Y-79890628D01*
X89543061Y-80003217D01*
X89731837Y-80070344D01*
X89757333Y-80078462D01*
X89958908Y-80156758D01*
X90274099Y-80299939D01*
X90668628Y-80490427D01*
X91108214Y-80710645D01*
X91558578Y-80943012D01*
X91985441Y-81169951D01*
X92354523Y-81373883D01*
X92631544Y-81537228D01*
X92735322Y-81605585D01*
X92966674Y-81791875D01*
X93263895Y-82061116D01*
X93580143Y-82369888D01*
X93751322Y-82547315D01*
X94091400Y-82908765D01*
X94467024Y-83307746D01*
X94815004Y-83677147D01*
X94931713Y-83800967D01*
X95384524Y-84307060D01*
X95757620Y-84790441D01*
X96091003Y-85308888D01*
X96424674Y-85920182D01*
X96495578Y-86059891D01*
X96729893Y-86539083D01*
X96886096Y-86894171D01*
X96971285Y-87147382D01*
X96992557Y-87320942D01*
X100232760Y-87320942D01*
X100210728Y-87231334D01*
X100065594Y-86691401D01*
X99981197Y-86283118D01*
X99960510Y-85978957D01*
X100006508Y-85751392D01*
X100122163Y-85572894D01*
X100310449Y-85415937D01*
X100414128Y-85348434D01*
X100762718Y-85196209D01*
X101162696Y-85150450D01*
X101634368Y-85213101D01*
X102198041Y-85386102D01*
X102626667Y-85560080D01*
X103071476Y-85743331D01*
X103545758Y-85921336D01*
X103979405Y-86068499D01*
X104193000Y-86131911D01*
X104747606Y-86284372D01*
X105159543Y-86402999D01*
X105450151Y-86496081D01*
X105640772Y-86571908D01*
X105752746Y-86638769D01*
X105807414Y-86704953D01*
X105824605Y-86765667D01*
X110401652Y-86765667D01*
X110820493Y-86541621D01*
X111174598Y-86302346D01*
X111421742Y-86062500D01*
X111590019Y-85799126D01*
X111608690Y-85759496D01*
X111745714Y-85268328D01*
X111727343Y-84775763D01*
X111564977Y-84309594D01*
X111270017Y-83897616D01*
X110853867Y-83567624D01*
X110670000Y-83471197D01*
X110532849Y-83413608D01*
X110387093Y-83369895D01*
X110207598Y-83338039D01*
X109969227Y-83316021D01*
X109646844Y-83301821D01*
X109215312Y-83293421D01*
X108649497Y-83288801D01*
X108384000Y-83287576D01*
X107578841Y-83278546D01*
X106911102Y-83255243D01*
X106349121Y-83212581D01*
X105861235Y-83145473D01*
X105415780Y-83048835D01*
X104981093Y-82917581D01*
X104525512Y-82746626D01*
X104219010Y-82618610D01*
X103142880Y-82244109D01*
X102034403Y-82026571D01*
X101179548Y-81970026D01*
X100862933Y-81975315D01*
X100594037Y-82005650D01*
X100318602Y-82073360D01*
X99982369Y-82190772D01*
X99674970Y-82311879D01*
X99174144Y-82500928D01*
X98789684Y-82611235D01*
X98489999Y-82646410D01*
X98243497Y-82610066D01*
X98018587Y-82505815D01*
X98012333Y-82501978D01*
X97883538Y-82401869D01*
X97652646Y-82201293D01*
X97338937Y-81917864D01*
X96961688Y-81569192D01*
X96540178Y-81172888D01*
X96149667Y-80800378D01*
X95640166Y-80311426D01*
X95211375Y-79903639D01*
X94841454Y-79560493D01*
X94508564Y-79265462D01*
X94190867Y-79002020D01*
X93866522Y-78753643D01*
X93513692Y-78503805D01*
X93110536Y-78235981D01*
X93079952Y-78216527D01*
X77311333Y-78216527D01*
X77300353Y-78362072D01*
X77257232Y-78506407D01*
X77166706Y-78670485D01*
X77013507Y-78875259D01*
X76782368Y-79141684D01*
X76458024Y-79490711D01*
X76140859Y-79823000D01*
X75696133Y-80280862D01*
X75336704Y-80635414D01*
X75035001Y-80909580D01*
X74763455Y-81126286D01*
X74494494Y-81308456D01*
X74200550Y-81479012D01*
X74056452Y-81556150D01*
X73659990Y-81736291D01*
X73348604Y-81801134D01*
X73083286Y-81750604D01*
X72825028Y-81584631D01*
X72789056Y-81553797D01*
X72551846Y-81302889D01*
X72279915Y-80950756D01*
X72008684Y-80550297D01*
X71773575Y-80154409D01*
X71610010Y-79815992D01*
X71590322Y-79763628D01*
X71487615Y-79266121D01*
X71490430Y-78694110D01*
X71598320Y-78105170D01*
X71603320Y-78087334D01*
X71692474Y-77759424D01*
X71796747Y-77356643D01*
X71888554Y-76986667D01*
X72023032Y-76476002D01*
X72154314Y-76110097D01*
X72301893Y-75865904D01*
X72485260Y-75720375D01*
X72723910Y-75650465D01*
X73033339Y-75633112D01*
X73451726Y-75662990D01*
X73957456Y-75741910D01*
X74491127Y-75856587D01*
X74993339Y-75993735D01*
X75404690Y-76140068D01*
X75506732Y-76186322D01*
X75945394Y-76446150D01*
X76363282Y-76775302D01*
X76734601Y-77144759D01*
X77033557Y-77525503D01*
X77234356Y-77888514D01*
X77311202Y-78204772D01*
X77311333Y-78216527D01*
X93079952Y-78216527D01*
X92635217Y-77933645D01*
X92065894Y-77580272D01*
X91380729Y-77159338D01*
X91154333Y-77020484D01*
X90759124Y-76812073D01*
X90237509Y-76586634D01*
X89629664Y-76357562D01*
X88975760Y-76138255D01*
X88315970Y-75942108D01*
X87690468Y-75782520D01*
X87139426Y-75672886D01*
X87090354Y-75665244D01*
X86353967Y-75575654D01*
X85660727Y-75541849D01*
X84976189Y-75567607D01*
X84265908Y-75656708D01*
X83495438Y-75812928D01*
X82630335Y-76040047D01*
X82021087Y-76221277D01*
X81645392Y-76330277D01*
X81308554Y-76416000D01*
X81056933Y-76467255D01*
X80962754Y-76476807D01*
X80651814Y-76415311D01*
X80275439Y-76250415D01*
X79881088Y-76004931D01*
X79712295Y-75875788D01*
X79108347Y-75384358D01*
X78615705Y-74986946D01*
X78215597Y-74669155D01*
X77889252Y-74416588D01*
X77617898Y-74214850D01*
X77382765Y-74049544D01*
X77165079Y-73906273D01*
X77050862Y-73834661D01*
X76595461Y-73571926D01*
X76179656Y-73381542D01*
X75752224Y-73247745D01*
X75261936Y-73154770D01*
X74657568Y-73086850D01*
X74606347Y-73082339D01*
X74028295Y-73022773D01*
X73543224Y-72946090D01*
X73098419Y-72838055D01*
X72641163Y-72684432D01*
X72118740Y-72470985D01*
X71770233Y-72316483D01*
X71104698Y-72043259D01*
X70548090Y-71879067D01*
X70080470Y-71823095D01*
X69681894Y-71874527D01*
X69681894Y-71874527D01*
G37*
X69681894Y-71874527D02*
X69332423Y-72032549D01*
X69104652Y-72207665D01*
X68806547Y-72581874D01*
X68638790Y-73026405D01*
X68617887Y-73493805D01*
X68630082Y-73571890D01*
X68696995Y-73813995D01*
X68813412Y-74135251D01*
X68943938Y-74443104D01*
X69138689Y-74976669D01*
X69197755Y-75464775D01*
X69123679Y-75959771D01*
X69031336Y-76242731D01*
X68840845Y-76878315D01*
X68700454Y-77611513D01*
X68619705Y-78375535D01*
X68608138Y-79103591D01*
X68611609Y-79180723D01*
X68659629Y-79714539D01*
X68753551Y-80213901D01*
X68906597Y-80724693D01*
X69131991Y-81292801D01*
X69370073Y-81812667D01*
X69614274Y-82346548D01*
X69810452Y-82820126D01*
X69949041Y-83207889D01*
X70020472Y-83484327D01*
X70028141Y-83567385D01*
X69988327Y-83791568D01*
X69867175Y-84056891D01*
X69654381Y-84377636D01*
X69339643Y-84768083D01*
X68912658Y-85242514D01*
X68529973Y-85644091D01*
X67978894Y-86227734D01*
X67535480Y-86736795D01*
X67176599Y-87204234D01*
X66879117Y-87663012D01*
X66619900Y-88146088D01*
X66375815Y-88686423D01*
X66348012Y-88752899D01*
X66158886Y-89192968D01*
X66002005Y-89505959D01*
X65852072Y-89724050D01*
X65683786Y-89879419D01*
X65471850Y-90004244D01*
X65302661Y-90082505D01*
X64639626Y-90382164D01*
X64109082Y-90647522D01*
X63683810Y-90900558D01*
X63336595Y-91163249D01*
X63040217Y-91457573D01*
X62767461Y-91805508D01*
X62491109Y-92229032D01*
X62347195Y-92469014D01*
X61958625Y-93169794D01*
X61657687Y-93817972D01*
X61415671Y-94483984D01*
X61203866Y-95238265D01*
X61181150Y-95329771D01*
X61045286Y-95847931D01*
X60910965Y-96232259D01*
X60748941Y-96515434D01*
X60529966Y-96730136D01*
X60224792Y-96909043D01*
X59804172Y-97084834D01*
X59515108Y-97191280D01*
X58962618Y-97413248D01*
X58507230Y-97656546D01*
X58105043Y-97953527D01*
X57712156Y-98336545D01*
X57290528Y-98830667D01*
X57040029Y-99126768D01*
X56716365Y-99488158D01*
X56367626Y-99861929D01*
X56136252Y-100100667D01*
X55788984Y-100473276D01*
X55400209Y-100924127D01*
X55022514Y-101390677D01*
X54764212Y-101732450D01*
X54238432Y-102402172D01*
X53708106Y-102949655D01*
X53126220Y-103415132D01*
X52445761Y-103838838D01*
X52066439Y-104041181D01*
X51683846Y-104243901D01*
X51333353Y-104442229D01*
X51056606Y-104611849D01*
X50907008Y-104718169D01*
X50635242Y-105047132D01*
X50507355Y-105433199D01*
X50525287Y-105841131D01*
X50690977Y-106235691D01*
X50814453Y-106399711D01*
X50943468Y-106537086D01*
X51076233Y-106645313D01*
X51243995Y-106738541D01*
X51478000Y-106830918D01*
X51809494Y-106936593D01*
X52269725Y-107069714D01*
X52334667Y-107088086D01*
X52965888Y-107235463D01*
X53677399Y-107339425D01*
X54305715Y-107394335D01*
X54718007Y-107424193D01*
X55052084Y-107456707D01*
X55345926Y-107500532D01*
X55637510Y-107564320D01*
X55964816Y-107656728D01*
X56365822Y-107786410D01*
X56878506Y-107962020D01*
X57034468Y-108016160D01*
X57626402Y-108215207D01*
X58266335Y-108419170D01*
X58898223Y-108610907D01*
X59466017Y-108773280D01*
X59792178Y-108859501D01*
X60472357Y-109017434D01*
X61054334Y-109116770D01*
X61587622Y-109158109D01*
X62121735Y-109142052D01*
X62706186Y-109069202D01*
X63390490Y-108940158D01*
X63555127Y-108905198D01*
X63822912Y-108859150D01*
X64056380Y-108856149D01*
X64283611Y-108908731D01*
X64532685Y-109029435D01*
X64831684Y-109230800D01*
X65208687Y-109525362D01*
X65521300Y-109783102D01*
X65878457Y-110078794D01*
X66228260Y-110364913D01*
X66529021Y-110607563D01*
X66728598Y-110764824D01*
X66971588Y-110962306D01*
X67280234Y-111227911D01*
X67597916Y-111512623D01*
X67681135Y-111589426D01*
X68289782Y-112086417D01*
X68898548Y-112435472D01*
X69542482Y-112654345D01*
X69923899Y-112725607D01*
X70539091Y-112817066D01*
X71014696Y-112908941D01*
X71379479Y-113019846D01*
X71662205Y-113168398D01*
X71891639Y-113373212D01*
X72096546Y-113652906D01*
X72305692Y-114026093D01*
X72484809Y-114382953D01*
X72704635Y-114812872D01*
X72901266Y-115144887D01*
X73114173Y-115433562D01*
X73382824Y-115733462D01*
X73675657Y-116029246D01*
X73970587Y-116326588D01*
X74225388Y-116595002D01*
X74412724Y-116804921D01*
X74505044Y-116926370D01*
X74537674Y-117075449D01*
X74562269Y-117373290D01*
X74577888Y-117799473D01*
X74583588Y-118333577D01*
X74582631Y-118608458D01*
X74580780Y-119182699D01*
X74587401Y-119629834D01*
X74606089Y-119992017D01*
X74640443Y-120311406D01*
X74694059Y-120630157D01*
X74770534Y-120990425D01*
X74795043Y-121098000D01*
X74921511Y-121613211D01*
X75077786Y-122198972D01*
X75239428Y-122765425D01*
X75324635Y-123045334D01*
X75513127Y-123726278D01*
X75664654Y-124463915D01*
X75790238Y-125312477D01*
X75797877Y-125373667D01*
X75897462Y-126131344D01*
X75991879Y-126739630D01*
X76085684Y-127218185D01*
X76183430Y-127586672D01*
X76289672Y-127864752D01*
X76408966Y-128072088D01*
X76429350Y-128099725D01*
X76759219Y-128419220D01*
X77136929Y-128595735D01*
X77533978Y-128622309D01*
X77921863Y-128491981D01*
X77955204Y-128472406D01*
X78251984Y-128206290D01*
X78539141Y-127778869D01*
X78796607Y-127234309D01*
X79211682Y-126432034D01*
X79765544Y-125694939D01*
X80431642Y-125051653D01*
X81183423Y-124530804D01*
X81424054Y-124401519D01*
X81775932Y-124213640D01*
X82079253Y-124020530D01*
X82376014Y-123790144D01*
X82708215Y-123490438D01*
X83033129Y-123173852D01*
X83596612Y-122578002D01*
X84038799Y-122026652D01*
X84325115Y-121592884D01*
X84546724Y-121246080D01*
X84775477Y-120926850D01*
X84975871Y-120683268D01*
X85055581Y-120603775D01*
X85170447Y-120506916D01*
X85281540Y-120433018D01*
X85416152Y-120375601D01*
X85582522Y-120333058D01*
X81788540Y-120333058D01*
X81648281Y-120627689D01*
X81358358Y-120982381D01*
X81354167Y-120986831D01*
X81016979Y-121305599D01*
X80580236Y-121662786D01*
X80095153Y-122019734D01*
X79612951Y-122337786D01*
X79388690Y-122470285D01*
X79057921Y-122596852D01*
X78766871Y-122595443D01*
X78558656Y-122473834D01*
X78423222Y-122278149D01*
X78250402Y-121963936D01*
X78058680Y-121572514D01*
X77866541Y-121145205D01*
X77692468Y-120723330D01*
X77554948Y-120348210D01*
X77472464Y-120061167D01*
X77466897Y-120033280D01*
X77408180Y-119511835D01*
X77449605Y-119124728D01*
X77590600Y-118872907D01*
X77830592Y-118757321D01*
X78169009Y-118778919D01*
X78216861Y-118790951D01*
X78883254Y-118974160D01*
X79524797Y-119158245D01*
X80119752Y-119336320D01*
X80646385Y-119501496D01*
X81082961Y-119646886D01*
X81407745Y-119765603D01*
X81599000Y-119850757D01*
X81632720Y-119873399D01*
X81782299Y-120085842D01*
X81788540Y-120333058D01*
X85582522Y-120333058D01*
X85601575Y-120328186D01*
X85865102Y-120284295D01*
X86234025Y-120237448D01*
X86735638Y-120181166D01*
X86921000Y-120160937D01*
X87968642Y-120026926D01*
X88947341Y-119862400D01*
X89835296Y-119672365D01*
X90610703Y-119461825D01*
X91251760Y-119235788D01*
X91561366Y-119095553D01*
X91912657Y-118897188D01*
X92354080Y-118617263D01*
X92846532Y-118283635D01*
X93350911Y-117924163D01*
X93828115Y-117566705D01*
X94239041Y-117239119D01*
X94541000Y-116972723D01*
X94825994Y-116691552D01*
X95170856Y-116341339D01*
X95521006Y-115977846D01*
X95692680Y-115796088D01*
X96115048Y-115381001D01*
X96501183Y-115094217D01*
X96895139Y-114914945D01*
X97340967Y-114822395D01*
X97811458Y-114796177D01*
X98124915Y-114801063D01*
X98349562Y-114838926D01*
X98556998Y-114932652D01*
X98818820Y-115105125D01*
X98852757Y-115129000D01*
X99417622Y-115516241D01*
X99887660Y-115806906D01*
X100297088Y-116014063D01*
X100680123Y-116150781D01*
X101070983Y-116230125D01*
X101503885Y-116265164D01*
X101841385Y-116270347D01*
X102303123Y-116256728D01*
X102843936Y-116221651D01*
X103375858Y-116171431D01*
X103600333Y-116144051D01*
X104285967Y-116062096D01*
X104837613Y-116024543D01*
X105286236Y-116037537D01*
X105662804Y-116107221D01*
X105998281Y-116239738D01*
X106323635Y-116441232D01*
X106669832Y-116717847D01*
X106722329Y-116763445D01*
X107136841Y-117086970D01*
X107506410Y-117280073D01*
X107871089Y-117358789D01*
X108187645Y-117350019D01*
X108602296Y-117228306D01*
X108925030Y-116976908D01*
X109151289Y-116611197D01*
X109276520Y-116146544D01*
X109296166Y-115598322D01*
X109205673Y-114981902D01*
X109048820Y-114444050D01*
X108929704Y-114084810D01*
X108848010Y-113766482D01*
X108802020Y-113452915D01*
X108790020Y-113107958D01*
X108810293Y-112695460D01*
X108861123Y-112179270D01*
X108918557Y-111700000D01*
X109016935Y-110769060D01*
X109017545Y-110756349D01*
X105970922Y-110756349D01*
X105926678Y-111281446D01*
X105838959Y-111798113D01*
X105748409Y-112165899D01*
X105648456Y-112405218D01*
X105532529Y-112536482D01*
X105520150Y-112544249D01*
X105372311Y-112578697D01*
X105104429Y-112595998D01*
X104765158Y-112593634D01*
X104658667Y-112588818D01*
X104263556Y-112568012D01*
X103772108Y-112543001D01*
X103257134Y-112517457D01*
X102930638Y-112501655D01*
X102521077Y-112475921D01*
X102163316Y-112442067D01*
X101897290Y-112404606D01*
X101766472Y-112370093D01*
X101643195Y-112257404D01*
X101631211Y-112097983D01*
X101736731Y-111875854D01*
X101965966Y-111575042D01*
X102161252Y-111354740D01*
X102403022Y-111069621D01*
X102703351Y-110682662D01*
X103031162Y-110235686D01*
X103355378Y-109770516D01*
X103504813Y-109546635D01*
X103846711Y-109034613D01*
X104118936Y-108651387D01*
X104337598Y-108379756D01*
X104518804Y-108202518D01*
X104678662Y-108102471D01*
X104833281Y-108062413D01*
X104897537Y-108059334D01*
X105146134Y-108139635D01*
X105376426Y-108363700D01*
X105580345Y-108706267D01*
X105749822Y-109142076D01*
X105876789Y-109645867D01*
X105953179Y-110192378D01*
X105970922Y-110756349D01*
X109017545Y-110756349D01*
X109055632Y-109963080D01*
X109025158Y-109254626D01*
X108916022Y-108616267D01*
X108718733Y-108020567D01*
X108423799Y-107440095D01*
X108021729Y-106847416D01*
X107503032Y-106215097D01*
X106858217Y-105515705D01*
X106734551Y-105387315D01*
X106355073Y-104984331D01*
X106084767Y-104658197D01*
X105907787Y-104371551D01*
X105808285Y-104087031D01*
X105770415Y-103767278D01*
X105778330Y-103374928D01*
X105792492Y-103166257D01*
X105804035Y-102790332D01*
X105795355Y-102280967D01*
X105768983Y-101672516D01*
X105767616Y-101650356D01*
X102514876Y-101650356D01*
X102446015Y-102626784D01*
X102305830Y-103562341D01*
X102098554Y-104412398D01*
X101935271Y-104884334D01*
X101768065Y-105345579D01*
X101606889Y-105857915D01*
X101477633Y-106336614D01*
X101438422Y-106510482D01*
X101312879Y-107051782D01*
X101169277Y-107506213D01*
X100986446Y-107913596D01*
X100743218Y-108313749D01*
X100418421Y-108746494D01*
X99990886Y-109251651D01*
X99966083Y-109279921D01*
X99547573Y-109716856D01*
X99185747Y-110012391D01*
X98885457Y-110164125D01*
X98651557Y-110169656D01*
X98488897Y-110026582D01*
X98482101Y-110014329D01*
X98448351Y-109853678D01*
X98431554Y-109538353D01*
X98432036Y-109082192D01*
X98447865Y-108553829D01*
X98456717Y-107783565D01*
X95197605Y-107783565D01*
X95191581Y-108102137D01*
X95164204Y-108525000D01*
X95107462Y-109241992D01*
X95055722Y-109818054D01*
X95003509Y-110281268D01*
X94945346Y-110659711D01*
X94875758Y-110981465D01*
X94789269Y-111274608D01*
X94680402Y-111567221D01*
X94543682Y-111887383D01*
X94481418Y-112026244D01*
X94277464Y-112458642D01*
X94058800Y-112891179D01*
X93854046Y-113268775D01*
X93714977Y-113501289D01*
X93416837Y-113901454D01*
X93023137Y-114344203D01*
X92581364Y-114781509D01*
X92139007Y-115165344D01*
X91874000Y-115363178D01*
X91627832Y-115537406D01*
X91305440Y-115772794D01*
X90964614Y-116026991D01*
X90858000Y-116107744D01*
X90443319Y-116413812D01*
X90108230Y-116631693D01*
X89804899Y-116784716D01*
X89485488Y-116896207D01*
X89102161Y-116989496D01*
X89010652Y-117008632D01*
X88698338Y-117056246D01*
X88252914Y-117101932D01*
X87710601Y-117143946D01*
X87107623Y-117180543D01*
X86480203Y-117209979D01*
X85864562Y-117230507D01*
X85296923Y-117240385D01*
X84813510Y-117237867D01*
X84508000Y-117225506D01*
X84190292Y-117190916D01*
X83770677Y-117126830D01*
X83311855Y-117043491D01*
X83003727Y-116979795D01*
X82059080Y-116758582D01*
X81250657Y-116535287D01*
X80545646Y-116297777D01*
X79911235Y-116033922D01*
X79314613Y-115731589D01*
X78793000Y-115422952D01*
X78391286Y-115178539D01*
X78043706Y-114990645D01*
X77698753Y-114836945D01*
X77304923Y-114695113D01*
X76810708Y-114542824D01*
X76663686Y-114499996D01*
X76292424Y-114375473D01*
X76016129Y-114230116D01*
X75761768Y-114021884D01*
X75660729Y-113922651D01*
X75288734Y-113486496D01*
X75063805Y-113083659D01*
X74988704Y-112723076D01*
X75066194Y-112413682D01*
X75155736Y-112288907D01*
X75350638Y-112110247D01*
X75644781Y-111883521D01*
X75998539Y-111634795D01*
X76372284Y-111390135D01*
X76726389Y-111175608D01*
X77021227Y-111017281D01*
X77197485Y-110945858D01*
X77397124Y-110906227D01*
X77613571Y-110897686D01*
X77868658Y-110925401D01*
X78184218Y-110994537D01*
X78582083Y-111110258D01*
X79084085Y-111277731D01*
X79712057Y-111502121D01*
X80009017Y-111611038D01*
X80506878Y-111792249D01*
X80956074Y-111951329D01*
X81330468Y-112079378D01*
X81603922Y-112167497D01*
X81750299Y-112206785D01*
X81762156Y-112208000D01*
X81892616Y-112237602D01*
X82141407Y-112317697D01*
X82469909Y-112435216D01*
X82757710Y-112544875D01*
X83442650Y-112791496D01*
X84012206Y-112947741D01*
X84490791Y-113018789D01*
X84902816Y-113009822D01*
X84931333Y-113006121D01*
X85208672Y-112958729D01*
X85610578Y-112878035D01*
X86099934Y-112772665D01*
X86639619Y-112651242D01*
X87192517Y-112522392D01*
X87721508Y-112394739D01*
X88189474Y-112276907D01*
X88559296Y-112177520D01*
X88764021Y-112115588D01*
X89481044Y-111838552D01*
X90227652Y-111488107D01*
X90930041Y-111100845D01*
X91339958Y-110838449D01*
X91599393Y-110640138D01*
X91951300Y-110342291D01*
X92370746Y-109967397D01*
X92832794Y-109537943D01*
X93312512Y-109076415D01*
X93512853Y-108878827D01*
X93994362Y-108403165D01*
X94371316Y-108038382D01*
X94656600Y-107773369D01*
X94863099Y-107597016D01*
X95003700Y-107498215D01*
X95091289Y-107465857D01*
X95133261Y-107481827D01*
X95178410Y-107585040D01*
X95197605Y-107783565D01*
X98456717Y-107783565D01*
X98461316Y-107383392D01*
X98399590Y-106347637D01*
X98259800Y-105428122D01*
X98039062Y-104606400D01*
X97734487Y-103864029D01*
X97704512Y-103803743D01*
X97516888Y-103384202D01*
X97420908Y-103019002D01*
X97414241Y-102654864D01*
X97494554Y-102238511D01*
X97618409Y-101836334D01*
X97863105Y-101027937D01*
X98038451Y-100238436D01*
X98151596Y-99419343D01*
X98209691Y-98522168D01*
X98221407Y-97746869D01*
X98208235Y-96662680D01*
X98198332Y-96410057D01*
X94969822Y-96410057D01*
X94955313Y-96786595D01*
X94920064Y-97154930D01*
X94876190Y-97589629D01*
X94828641Y-98119091D01*
X94783840Y-98669048D01*
X94754952Y-99064200D01*
X94716962Y-99536915D01*
X94668055Y-99929817D01*
X94596910Y-100298644D01*
X94492209Y-100699135D01*
X94342629Y-101187027D01*
X94291681Y-101345292D01*
X94090585Y-101934676D01*
X93905857Y-102400751D01*
X93718815Y-102785878D01*
X93510775Y-103132413D01*
X93488731Y-103165626D01*
X93165419Y-103592997D01*
X92728300Y-104088219D01*
X92204486Y-104625251D01*
X91621087Y-105178053D01*
X91005215Y-105720585D01*
X90383982Y-106226806D01*
X89998554Y-106517916D01*
X89689078Y-106775805D01*
X89361997Y-107098032D01*
X89122891Y-107372543D01*
X88885037Y-107643439D01*
X88637918Y-107874313D01*
X88433676Y-108016637D01*
X88427698Y-108019536D01*
X88234455Y-108089246D01*
X87915991Y-108180180D01*
X87513359Y-108281526D01*
X87067613Y-108382475D01*
X86975027Y-108402058D01*
X86515891Y-108502108D01*
X86081913Y-108604146D01*
X85717568Y-108697225D01*
X85467330Y-108770396D01*
X85439333Y-108780069D01*
X84946665Y-108947984D01*
X84546116Y-109056279D01*
X84175393Y-109114833D01*
X83772202Y-109133526D01*
X83280333Y-109122484D01*
X82757627Y-109085542D01*
X82250238Y-109021745D01*
X82159025Y-109004152D01*
X73882333Y-109004152D01*
X73806716Y-109144014D01*
X73609272Y-109290964D01*
X73334111Y-109418350D01*
X73077872Y-109490214D01*
X72431020Y-109565571D01*
X71728204Y-109542143D01*
X71382029Y-109499958D01*
X70991540Y-109428357D01*
X70552889Y-109325831D01*
X70252043Y-109241715D01*
X69981666Y-109148979D01*
X69756201Y-109041881D01*
X69534987Y-108893187D01*
X69277364Y-108675666D01*
X68951887Y-108370913D01*
X68587790Y-108000238D01*
X68185700Y-107555936D01*
X67803788Y-107103756D01*
X67590074Y-106831667D01*
X67263176Y-106412082D01*
X66935968Y-106009692D01*
X62292345Y-106009692D01*
X62263917Y-106135903D01*
X62254021Y-106158837D01*
X62151464Y-106298922D01*
X61994633Y-106354837D01*
X61762071Y-106323754D01*
X61432319Y-106202844D01*
X60989666Y-105992189D01*
X60558349Y-105782607D01*
X60188468Y-105629506D01*
X59834013Y-105521611D01*
X59448976Y-105447647D01*
X58987348Y-105396342D01*
X58403121Y-105356421D01*
X58392686Y-105355823D01*
X57827280Y-105313677D01*
X57397103Y-105254950D01*
X57068215Y-105170543D01*
X56806677Y-105051358D01*
X56578549Y-104888298D01*
X56546833Y-104861001D01*
X56428222Y-104703814D01*
X56414755Y-104514224D01*
X56513332Y-104270956D01*
X56730854Y-103952736D01*
X56915732Y-103723658D01*
X57217502Y-103349729D01*
X57550094Y-102916501D01*
X57850903Y-102505903D01*
X57905027Y-102429000D01*
X58255163Y-101962528D01*
X58639045Y-101511511D01*
X59031557Y-101100552D01*
X59407582Y-100754249D01*
X59742005Y-100497205D01*
X60009709Y-100354020D01*
X60030248Y-100347386D01*
X60263889Y-100289743D01*
X60409763Y-100301188D01*
X60537366Y-100388015D01*
X60543914Y-100393906D01*
X60634733Y-100491776D01*
X60712434Y-100621152D01*
X60784309Y-100806656D01*
X60857649Y-101072908D01*
X60939745Y-101444530D01*
X61037888Y-101946142D01*
X61096417Y-102259667D01*
X61257037Y-103051389D01*
X61429014Y-103726779D01*
X61628713Y-104338764D01*
X61872500Y-104940272D01*
X62033777Y-105291003D01*
X62187302Y-105626751D01*
X62270149Y-105853144D01*
X62292345Y-106009692D01*
X66935968Y-106009692D01*
X66874496Y-105934097D01*
X66477877Y-105463021D01*
X66194384Y-105138751D01*
X65839125Y-104729096D01*
X65568792Y-104379852D01*
X65345686Y-104034654D01*
X65132107Y-103637136D01*
X64980340Y-103323586D01*
X64636128Y-102559710D01*
X64372344Y-101886291D01*
X64174015Y-101253885D01*
X64026166Y-100613047D01*
X63913823Y-99914334D01*
X63888898Y-99719667D01*
X63805152Y-98875409D01*
X63782291Y-98160561D01*
X63824864Y-97544843D01*
X63937421Y-96997979D01*
X64124508Y-96489689D01*
X64390676Y-95989697D01*
X64467828Y-95866007D01*
X64659152Y-95545759D01*
X64802480Y-95243264D01*
X64917227Y-94905896D01*
X65022807Y-94481028D01*
X65081826Y-94201692D01*
X65180898Y-93969347D01*
X65357568Y-93740633D01*
X65563734Y-93566193D01*
X65751296Y-93496667D01*
X65751493Y-93496667D01*
X65897627Y-93517079D01*
X66012743Y-93598631D01*
X66120428Y-93771798D01*
X66244269Y-94067057D01*
X66292305Y-94195400D01*
X66436027Y-94553667D01*
X66612401Y-94950784D01*
X66723254Y-95180598D01*
X66877882Y-95520941D01*
X67012998Y-95876384D01*
X67078021Y-96090531D01*
X67364745Y-96960344D01*
X67756008Y-97706435D01*
X67934107Y-97959277D01*
X68213437Y-98359267D01*
X68386922Y-98713740D01*
X68476905Y-99087820D01*
X68505732Y-99546627D01*
X68506163Y-99626468D01*
X68520594Y-100028727D01*
X68560180Y-100526400D01*
X68619640Y-101081409D01*
X68693691Y-101655680D01*
X68777050Y-102211135D01*
X68864436Y-102709700D01*
X68950565Y-103113298D01*
X69025873Y-103372631D01*
X69185612Y-103708244D01*
X69405946Y-104062854D01*
X69552217Y-104254767D01*
X70278669Y-105092257D01*
X71073185Y-105977555D01*
X71882670Y-106852544D01*
X72654030Y-107659107D01*
X72777929Y-107785623D01*
X73126842Y-108145401D01*
X73430428Y-108467803D01*
X73669998Y-108732206D01*
X73826860Y-108917988D01*
X73882333Y-109004152D01*
X82159025Y-109004152D01*
X81827795Y-108940265D01*
X81756333Y-108921751D01*
X81393498Y-108805138D01*
X80960623Y-108641599D01*
X80538091Y-108461965D01*
X80444000Y-108418394D01*
X80021063Y-108223192D01*
X79555663Y-108015692D01*
X79136633Y-107835384D01*
X79069161Y-107807280D01*
X78534041Y-107555333D01*
X77914691Y-107212115D01*
X77251050Y-106801487D01*
X76583055Y-106347313D01*
X76381086Y-106201224D01*
X76028945Y-105949252D01*
X75643787Y-105683832D01*
X75321667Y-105470679D01*
X74650381Y-104998487D01*
X74073701Y-104491946D01*
X73533317Y-103897385D01*
X73314309Y-103622948D01*
X72914542Y-103073535D01*
X72597931Y-102553155D01*
X72333691Y-102002715D01*
X72091035Y-101363122D01*
X72008571Y-101116667D01*
X71924290Y-100849678D01*
X71863331Y-100620769D01*
X71822227Y-100394898D01*
X71797511Y-100137022D01*
X71785716Y-99812101D01*
X71783374Y-99385091D01*
X71786580Y-98873000D01*
X71804124Y-97983081D01*
X71843113Y-97231680D01*
X71907372Y-96588905D01*
X72000723Y-96024861D01*
X72126990Y-95509653D01*
X72274863Y-95054894D01*
X72475560Y-94521987D01*
X72658408Y-94105165D01*
X72852249Y-93757744D01*
X73085923Y-93433039D01*
X73388273Y-93084368D01*
X73686911Y-92769271D01*
X74015212Y-92435398D01*
X74264596Y-92201098D01*
X74470097Y-92040686D01*
X74666747Y-91928479D01*
X74889582Y-91838793D01*
X75012669Y-91797328D01*
X75314516Y-91682870D01*
X75710927Y-91509980D01*
X76148652Y-91302841D01*
X76543152Y-91102244D01*
X76961277Y-90885381D01*
X77274873Y-90737441D01*
X77526596Y-90643619D01*
X77759103Y-90589112D01*
X78015052Y-90559119D01*
X78132377Y-90550744D01*
X78508544Y-90539857D01*
X78826166Y-90570535D01*
X79167392Y-90654453D01*
X79408559Y-90732145D01*
X79837773Y-90863348D01*
X80319319Y-90989757D01*
X80723936Y-91078890D01*
X81152354Y-91192104D01*
X81604343Y-91365592D01*
X82051401Y-91581941D01*
X82465027Y-91823739D01*
X82816719Y-92073572D01*
X83077977Y-92314027D01*
X83220299Y-92527692D01*
X83238000Y-92614878D01*
X83175439Y-92750299D01*
X82980419Y-92829725D01*
X82641938Y-92855877D01*
X82312241Y-92843843D01*
X81577534Y-92868904D01*
X80804274Y-93025158D01*
X80037258Y-93296400D01*
X79321284Y-93666424D01*
X78701150Y-94119025D01*
X78642773Y-94171270D01*
X78129323Y-94736840D01*
X77678390Y-95421846D01*
X77313191Y-96181015D01*
X77056938Y-96969072D01*
X76963940Y-97445343D01*
X76900678Y-98348009D01*
X76975294Y-99167472D01*
X77183913Y-99896963D01*
X77522665Y-100529714D01*
X77987675Y-101058957D01*
X78575071Y-101477925D01*
X79280980Y-101779848D01*
X79476672Y-101836553D01*
X79936359Y-101918502D01*
X80394419Y-101909140D01*
X80895786Y-101803237D01*
X81460000Y-101605712D01*
X81816327Y-101467262D01*
X82264452Y-101297965D01*
X82736482Y-101123297D01*
X83020020Y-101020365D01*
X83632643Y-100789089D01*
X84118254Y-100576293D01*
X84514420Y-100360617D01*
X84858711Y-100120704D01*
X85188695Y-99835196D01*
X85309700Y-99718637D01*
X85790998Y-99204585D01*
X86157376Y-98710082D01*
X86445608Y-98179426D01*
X86640376Y-97703117D01*
X86828307Y-97067867D01*
X86970528Y-96335549D01*
X87066259Y-95541684D01*
X87114723Y-94721794D01*
X87115140Y-93911399D01*
X87066733Y-93146021D01*
X86968723Y-92461180D01*
X86820333Y-91892398D01*
X86770568Y-91761000D01*
X86542524Y-91310826D01*
X86223360Y-90817124D01*
X85855587Y-90340373D01*
X85510588Y-89968472D01*
X85302278Y-89792700D01*
X84987567Y-89557143D01*
X84605075Y-89289438D01*
X84193420Y-89017222D01*
X84084667Y-88948038D01*
X83581135Y-88630298D01*
X83202874Y-88389600D01*
X82931966Y-88212591D01*
X82750497Y-88085917D01*
X82640548Y-87996224D01*
X82584204Y-87930160D01*
X82563549Y-87874371D01*
X82560666Y-87815503D01*
X82560667Y-87812167D01*
X82594152Y-87690040D01*
X82706422Y-87600489D01*
X82915201Y-87540491D01*
X83238212Y-87507021D01*
X83693178Y-87497054D01*
X84297821Y-87507567D01*
X84338667Y-87508765D01*
X84904877Y-87531633D01*
X85394862Y-87567753D01*
X85865325Y-87624251D01*
X86372968Y-87708255D01*
X86974496Y-87826892D01*
X87132667Y-87859948D01*
X87969540Y-88038680D01*
X88663715Y-88195263D01*
X89238886Y-88338976D01*
X89718747Y-88479096D01*
X90126991Y-88624900D01*
X90487313Y-88785664D01*
X90823407Y-88970667D01*
X91158966Y-89189185D01*
X91517684Y-89450496D01*
X91851162Y-89707451D01*
X92437756Y-90190492D01*
X92916647Y-90647160D01*
X93332569Y-91124815D01*
X93730256Y-91670821D01*
X93790739Y-91761000D01*
X94068143Y-92210670D01*
X94280917Y-92641973D01*
X94442251Y-93096166D01*
X94565339Y-93614506D01*
X94663372Y-94238248D01*
X94711224Y-94639667D01*
X94760429Y-95004968D01*
X94830503Y-95429189D01*
X94889255Y-95736063D01*
X94948282Y-96081933D01*
X94969822Y-96410057D01*
X98198332Y-96410057D01*
X98171349Y-95721771D01*
X98108645Y-94899476D01*
X98018024Y-94171126D01*
X97897382Y-93512053D01*
X97838836Y-93256473D01*
X97733128Y-92766345D01*
X97693879Y-92417122D01*
X97728886Y-92206003D01*
X97845944Y-92130189D01*
X98052848Y-92186878D01*
X98357395Y-92373271D01*
X98767380Y-92686567D01*
X98967685Y-92850986D01*
X99513292Y-93331355D01*
X99935860Y-93770000D01*
X100263135Y-94202254D01*
X100522862Y-94663450D01*
X100685905Y-95039089D01*
X100815708Y-95308663D01*
X101015643Y-95654477D01*
X101251644Y-96019296D01*
X101366485Y-96182632D01*
X101659546Y-96599066D01*
X101865679Y-96934020D01*
X102005661Y-97236679D01*
X102100267Y-97556230D01*
X102170274Y-97941859D01*
X102200083Y-98156086D01*
X102256202Y-98572730D01*
X102325220Y-99072238D01*
X102395389Y-99569943D01*
X102421705Y-99753415D01*
X102508183Y-100677690D01*
X102514876Y-101650356D01*
X105767616Y-101650356D01*
X105727449Y-100999337D01*
X105673281Y-100295786D01*
X105609009Y-99596220D01*
X105537164Y-98934995D01*
X105460275Y-98346467D01*
X105417162Y-98068667D01*
X105326430Y-97583217D01*
X105213972Y-97066918D01*
X105097005Y-96595774D01*
X105030517Y-96362102D01*
X104902560Y-95886027D01*
X104856458Y-95516632D01*
X104898908Y-95208857D01*
X105036609Y-94917639D01*
X105276258Y-94597919D01*
X105296290Y-94574173D01*
X105570808Y-94230247D01*
X105875043Y-93815358D01*
X106193456Y-93354455D01*
X106510507Y-92872488D01*
X106810657Y-92394407D01*
X107078367Y-91945162D01*
X107298096Y-91549702D01*
X107454307Y-91232976D01*
X107531458Y-91019935D01*
X107536920Y-90976685D01*
X107575912Y-90815431D01*
X107618301Y-90722685D01*
X107683610Y-90564110D01*
X107769441Y-90304705D01*
X107837435Y-90071283D01*
X108098487Y-89354572D01*
X108478493Y-88629088D01*
X108941669Y-87954840D01*
X109413127Y-87428833D01*
X109690793Y-87201217D01*
X110041054Y-86965845D01*
X110331333Y-86803282D01*
X110401652Y-86765667D01*
X105824605Y-86765667D01*
X105790185Y-86899949D01*
X105679555Y-87141664D01*
X105509812Y-87456939D01*
X105298050Y-87811900D01*
X105290479Y-87824000D01*
X104851900Y-88550906D01*
X104511612Y-89179467D01*
X104255915Y-89738352D01*
X104071110Y-90256227D01*
X103993972Y-90537004D01*
X103824215Y-91117494D01*
X103636774Y-91539636D01*
X103424400Y-91814094D01*
X103179846Y-91951531D01*
X103018044Y-91972667D01*
X102876710Y-91949891D01*
X102719593Y-91867900D01*
X102518634Y-91706203D01*
X102245774Y-91444307D01*
X102119598Y-91316500D01*
X101802994Y-90997598D01*
X101479530Y-90679586D01*
X101197588Y-90409710D01*
X101074724Y-90296178D01*
X100854982Y-90085052D01*
X100698511Y-89889505D01*
X100590738Y-89671443D01*
X100517089Y-89392771D01*
X100462992Y-89015394D01*
X100421506Y-88588678D01*
X100374302Y-88156019D01*
X100312415Y-87729790D01*
X100245751Y-87373781D01*
X100232760Y-87320942D01*
X96992557Y-87320942D01*
X96957011Y-87437080D01*
X96941903Y-87457576D01*
X96879025Y-87519564D01*
X96796956Y-87552795D01*
X96668019Y-87554119D01*
X96464536Y-87520389D01*
X96158831Y-87448456D01*
X95723226Y-87335173D01*
X95616247Y-87306789D01*
X95164878Y-87174057D01*
X94709402Y-87011354D01*
X94225691Y-86807341D01*
X93689622Y-86550681D01*
X93077069Y-86230035D01*
X92363908Y-85834066D01*
X91823857Y-85524492D01*
X91049160Y-85131749D01*
X90115200Y-84758397D01*
X89018651Y-84403215D01*
X88021667Y-84131221D01*
X87867052Y-84090252D01*
X82476000Y-84090252D01*
X82469934Y-84171128D01*
X82438294Y-84244569D01*
X82360913Y-84324224D01*
X82217627Y-84423745D01*
X81988269Y-84556781D01*
X81652676Y-84736984D01*
X81190681Y-84978004D01*
X81079000Y-85035919D01*
X80573911Y-85299190D01*
X80185594Y-85507732D01*
X79879911Y-85683630D01*
X79622725Y-85848962D01*
X79379895Y-86025812D01*
X79117284Y-86236260D01*
X78800754Y-86502389D01*
X78765494Y-86532343D01*
X78401239Y-86832766D01*
X78092246Y-87056885D01*
X77795871Y-87224330D01*
X77469471Y-87354731D01*
X77070403Y-87467719D01*
X76556024Y-87582926D01*
X76423644Y-87610417D01*
X75871970Y-87732512D01*
X75418928Y-87858383D01*
X75021826Y-88007641D01*
X74637976Y-88199898D01*
X74224685Y-88454765D01*
X73739263Y-88791855D01*
X73543667Y-88933442D01*
X72674866Y-89614242D01*
X71865725Y-90353399D01*
X71069956Y-91194425D01*
X70765518Y-91544982D01*
X70397384Y-91975603D01*
X70119797Y-92289040D01*
X69914076Y-92497507D01*
X69761542Y-92613214D01*
X69643513Y-92648375D01*
X69541308Y-92615201D01*
X69436248Y-92525905D01*
X69370287Y-92457090D01*
X69198986Y-92202821D01*
X69049108Y-91858992D01*
X68950997Y-91505141D01*
X68929333Y-91301312D01*
X68996335Y-90978070D01*
X69189644Y-90575550D01*
X69497712Y-90112813D01*
X69908995Y-89608918D01*
X70046357Y-89457345D01*
X70328451Y-89146989D01*
X70579071Y-88860565D01*
X70768482Y-88632705D01*
X70859644Y-88510153D01*
X70967190Y-88352454D01*
X71148850Y-88097891D01*
X71376936Y-87784910D01*
X71567246Y-87527667D01*
X71832247Y-87155879D01*
X72087228Y-86770456D01*
X72296155Y-86427164D01*
X72387891Y-86257667D01*
X72544518Y-85970931D01*
X72718248Y-85723620D01*
X72934667Y-85492011D01*
X73219366Y-85252379D01*
X73597932Y-84981003D01*
X74095955Y-84654158D01*
X74165231Y-84609911D01*
X75163125Y-84021296D01*
X76092679Y-83575433D01*
X76970201Y-83268415D01*
X77811998Y-83096335D01*
X78634379Y-83055287D01*
X79453649Y-83141363D01*
X79893667Y-83237572D01*
X80319581Y-83338684D01*
X80813608Y-83444118D01*
X81276443Y-83532797D01*
X81323263Y-83540982D01*
X81835837Y-83648480D01*
X82190931Y-83769200D01*
X82400228Y-83908706D01*
X82475409Y-84072565D01*
X82476000Y-84090252D01*
X87867052Y-84090252D01*
X87666016Y-84036983D01*
X87383653Y-83945630D01*
X87140588Y-83836766D01*
X86902834Y-83689993D01*
X86636400Y-83484913D01*
X86307300Y-83201128D01*
X85975579Y-82903291D01*
X85601905Y-82576131D01*
X85258652Y-82304902D01*
X84914163Y-82071863D01*
X84536779Y-81859273D01*
X84094844Y-81649389D01*
X83556701Y-81424471D01*
X82890693Y-81166777D01*
X82848714Y-81150919D01*
X82259497Y-80927690D01*
X81810965Y-80754381D01*
X81485051Y-80621999D01*
X81263687Y-80521548D01*
X81128804Y-80444034D01*
X81062335Y-80380462D01*
X81046211Y-80321838D01*
X81061564Y-80261241D01*
X81175090Y-80115871D01*
X81404981Y-79991189D01*
X81766504Y-79881896D01*
X82274925Y-79782691D01*
X82568073Y-79738169D01*
X83066489Y-79661451D01*
X83647101Y-79562832D01*
X84226736Y-79456825D01*
X84592667Y-79384911D01*
X85447312Y-79241090D01*
X86240206Y-79167755D01*
X86497667Y-79160071D01*
X86841132Y-79159035D01*
X87109390Y-79170387D01*
X87346565Y-79203715D01*
X87596782Y-79268607D01*
X87904166Y-79374651D01*
X88312841Y-79531434D01*
X88445000Y-79583209D01*
X88863770Y-79746112D01*
X89241747Y-79890628D01*
X89543061Y-80003217D01*
X89731837Y-80070344D01*
X89757333Y-80078462D01*
X89958908Y-80156758D01*
X90274099Y-80299939D01*
X90668628Y-80490427D01*
X91108214Y-80710645D01*
X91558578Y-80943012D01*
X91985441Y-81169951D01*
X92354523Y-81373883D01*
X92631544Y-81537228D01*
X92735322Y-81605585D01*
X92966674Y-81791875D01*
X93263895Y-82061116D01*
X93580143Y-82369888D01*
X93751322Y-82547315D01*
X94091400Y-82908765D01*
X94467024Y-83307746D01*
X94815004Y-83677147D01*
X94931713Y-83800967D01*
X95384524Y-84307060D01*
X95757620Y-84790441D01*
X96091003Y-85308888D01*
X96424674Y-85920182D01*
X96495578Y-86059891D01*
X96729893Y-86539083D01*
X96886096Y-86894171D01*
X96971285Y-87147382D01*
X96992557Y-87320942D01*
X100232760Y-87320942D01*
X100210728Y-87231334D01*
X100065594Y-86691401D01*
X99981197Y-86283118D01*
X99960510Y-85978957D01*
X100006508Y-85751392D01*
X100122163Y-85572894D01*
X100310449Y-85415937D01*
X100414128Y-85348434D01*
X100762718Y-85196209D01*
X101162696Y-85150450D01*
X101634368Y-85213101D01*
X102198041Y-85386102D01*
X102626667Y-85560080D01*
X103071476Y-85743331D01*
X103545758Y-85921336D01*
X103979405Y-86068499D01*
X104193000Y-86131911D01*
X104747606Y-86284372D01*
X105159543Y-86402999D01*
X105450151Y-86496081D01*
X105640772Y-86571908D01*
X105752746Y-86638769D01*
X105807414Y-86704953D01*
X105824605Y-86765667D01*
X110401652Y-86765667D01*
X110820493Y-86541621D01*
X111174598Y-86302346D01*
X111421742Y-86062500D01*
X111590019Y-85799126D01*
X111608690Y-85759496D01*
X111745714Y-85268328D01*
X111727343Y-84775763D01*
X111564977Y-84309594D01*
X111270017Y-83897616D01*
X110853867Y-83567624D01*
X110670000Y-83471197D01*
X110532849Y-83413608D01*
X110387093Y-83369895D01*
X110207598Y-83338039D01*
X109969227Y-83316021D01*
X109646844Y-83301821D01*
X109215312Y-83293421D01*
X108649497Y-83288801D01*
X108384000Y-83287576D01*
X107578841Y-83278546D01*
X106911102Y-83255243D01*
X106349121Y-83212581D01*
X105861235Y-83145473D01*
X105415780Y-83048835D01*
X104981093Y-82917581D01*
X104525512Y-82746626D01*
X104219010Y-82618610D01*
X103142880Y-82244109D01*
X102034403Y-82026571D01*
X101179548Y-81970026D01*
X100862933Y-81975315D01*
X100594037Y-82005650D01*
X100318602Y-82073360D01*
X99982369Y-82190772D01*
X99674970Y-82311879D01*
X99174144Y-82500928D01*
X98789684Y-82611235D01*
X98489999Y-82646410D01*
X98243497Y-82610066D01*
X98018587Y-82505815D01*
X98012333Y-82501978D01*
X97883538Y-82401869D01*
X97652646Y-82201293D01*
X97338937Y-81917864D01*
X96961688Y-81569192D01*
X96540178Y-81172888D01*
X96149667Y-80800378D01*
X95640166Y-80311426D01*
X95211375Y-79903639D01*
X94841454Y-79560493D01*
X94508564Y-79265462D01*
X94190867Y-79002020D01*
X93866522Y-78753643D01*
X93513692Y-78503805D01*
X93110536Y-78235981D01*
X93079952Y-78216527D01*
X77311333Y-78216527D01*
X77300353Y-78362072D01*
X77257232Y-78506407D01*
X77166706Y-78670485D01*
X77013507Y-78875259D01*
X76782368Y-79141684D01*
X76458024Y-79490711D01*
X76140859Y-79823000D01*
X75696133Y-80280862D01*
X75336704Y-80635414D01*
X75035001Y-80909580D01*
X74763455Y-81126286D01*
X74494494Y-81308456D01*
X74200550Y-81479012D01*
X74056452Y-81556150D01*
X73659990Y-81736291D01*
X73348604Y-81801134D01*
X73083286Y-81750604D01*
X72825028Y-81584631D01*
X72789056Y-81553797D01*
X72551846Y-81302889D01*
X72279915Y-80950756D01*
X72008684Y-80550297D01*
X71773575Y-80154409D01*
X71610010Y-79815992D01*
X71590322Y-79763628D01*
X71487615Y-79266121D01*
X71490430Y-78694110D01*
X71598320Y-78105170D01*
X71603320Y-78087334D01*
X71692474Y-77759424D01*
X71796747Y-77356643D01*
X71888554Y-76986667D01*
X72023032Y-76476002D01*
X72154314Y-76110097D01*
X72301893Y-75865904D01*
X72485260Y-75720375D01*
X72723910Y-75650465D01*
X73033339Y-75633112D01*
X73451726Y-75662990D01*
X73957456Y-75741910D01*
X74491127Y-75856587D01*
X74993339Y-75993735D01*
X75404690Y-76140068D01*
X75506732Y-76186322D01*
X75945394Y-76446150D01*
X76363282Y-76775302D01*
X76734601Y-77144759D01*
X77033557Y-77525503D01*
X77234356Y-77888514D01*
X77311202Y-78204772D01*
X77311333Y-78216527D01*
X93079952Y-78216527D01*
X92635217Y-77933645D01*
X92065894Y-77580272D01*
X91380729Y-77159338D01*
X91154333Y-77020484D01*
X90759124Y-76812073D01*
X90237509Y-76586634D01*
X89629664Y-76357562D01*
X88975760Y-76138255D01*
X88315970Y-75942108D01*
X87690468Y-75782520D01*
X87139426Y-75672886D01*
X87090354Y-75665244D01*
X86353967Y-75575654D01*
X85660727Y-75541849D01*
X84976189Y-75567607D01*
X84265908Y-75656708D01*
X83495438Y-75812928D01*
X82630335Y-76040047D01*
X82021087Y-76221277D01*
X81645392Y-76330277D01*
X81308554Y-76416000D01*
X81056933Y-76467255D01*
X80962754Y-76476807D01*
X80651814Y-76415311D01*
X80275439Y-76250415D01*
X79881088Y-76004931D01*
X79712295Y-75875788D01*
X79108347Y-75384358D01*
X78615705Y-74986946D01*
X78215597Y-74669155D01*
X77889252Y-74416588D01*
X77617898Y-74214850D01*
X77382765Y-74049544D01*
X77165079Y-73906273D01*
X77050862Y-73834661D01*
X76595461Y-73571926D01*
X76179656Y-73381542D01*
X75752224Y-73247745D01*
X75261936Y-73154770D01*
X74657568Y-73086850D01*
X74606347Y-73082339D01*
X74028295Y-73022773D01*
X73543224Y-72946090D01*
X73098419Y-72838055D01*
X72641163Y-72684432D01*
X72118740Y-72470985D01*
X71770233Y-72316483D01*
X71104698Y-72043259D01*
X70548090Y-71879067D01*
X70080470Y-71823095D01*
X69681894Y-71874527D01*
M02*
