M48
INCH,TZ
T1C0.067
T2C0.118
T3C0.120
T4C0.157
%
G90
G05
T1
X7919Y-30000
X8856Y-37500
X8856Y-52500
X10731Y-45000
X11919Y-30000
X11919Y-30000
X12856Y-37500
X12856Y-52500
X14731Y-45000
X15419Y-30000
X17294Y-37500
X18231Y-52500
X19419Y-30000
X19419Y-30000
X21044Y-45000
X21294Y-37500
X21294Y-37500
X22231Y-52500
X22919Y-30000
X24794Y-37500
X25044Y-45000
X25044Y-45000
X26919Y-30000
X26919Y-30000
X27606Y-52500
X28544Y-45000
X28794Y-37500
X28794Y-37500
X30419Y-30000
X31606Y-52500
X32294Y-37500
X32544Y-45000
X32544Y-45000
X34419Y-30000
X34419Y-30000
X36044Y-45000
X36294Y-37500
X36294Y-37500
X37919Y-30000
X39794Y-37500
X39794Y-52500
X40044Y-45000
X40044Y-45000
X41919Y-30000
X41919Y-30000
X43544Y-45000
X43794Y-37500
X43794Y-37500
X43794Y-52500
X45419Y-30000
X47294Y-37500
X47544Y-45000
X47544Y-45000
X49419Y-30000
X49419Y-30000
X51044Y-45000
X51044Y-52500
X51294Y-37500
X51294Y-37500
X52919Y-30000
X54794Y-37500
X55044Y-45000
X55044Y-45000
X55044Y-52500
X55044Y-52500
X56919Y-30000
X56919Y-30000
X58544Y-45000
X58794Y-37500
X58794Y-37500
X60419Y-30000
X62294Y-37500
X62294Y-52500
X62544Y-45000
X62544Y-45000
X64419Y-30000
X64419Y-30000
X66044Y-45000
X66294Y-37500
X66294Y-37500
X66294Y-52500
X67919Y-30000
X69794Y-37500
X70044Y-45000
X70044Y-45000
X71919Y-30000
X71919Y-30000
X73544Y-45000
X73544Y-52500
X73794Y-37500
X73794Y-37500
X75419Y-30000
X77294Y-37500
X77544Y-45000
X77544Y-45000
X77544Y-52500
X77544Y-52500
X79419Y-30000
X79419Y-30000
X81044Y-45000
X81044Y-52500
X81294Y-37500
X81294Y-37500
X82919Y-30000
X84794Y-37500
X85044Y-45000
X85044Y-45000
X85044Y-52500
X85044Y-52500
X86919Y-30000
X86919Y-30000
X88544Y-45000
X88544Y-52500
X88794Y-37500
X88794Y-37500
X90419Y-30000
X92294Y-37500
X92544Y-45000
X92544Y-45000
X92544Y-52500
X92544Y-52500
X94419Y-30000
X94419Y-30000
X96044Y-52500
X96294Y-37500
X96294Y-37500
X97919Y-30000
X100044Y-52500
X100044Y-52500
X100731Y-45000
X101919Y-30000
X101919Y-30000
X102606Y-37500
X104481Y-52500
X104731Y-45000
X105419Y-30000
X106606Y-37500
X108481Y-52500
X109419Y-30000
X109419Y-30000
T2
X6693Y-25984
X6693Y-55906
X41732Y-48425
X58661Y-27165
X71654Y-48819
X110630Y-25984
X110630Y-55906
T3
X37094Y-49750
X46494Y-49750
X59594Y-49750
X68994Y-49750
X98031Y-42250
X107431Y-42250
T4
X9919Y-30000
X10856Y-37500
X10856Y-52500
X12731Y-45000
X17419Y-30000
X19294Y-37500
X20231Y-52500
X23044Y-45000
X24919Y-30000
X26794Y-37500
X29606Y-52500
X30544Y-45000
X32419Y-30000
X34294Y-37500
X37094Y-55750
X38044Y-45000
X39919Y-30000
X41794Y-37500
X41794Y-52500
X45544Y-45000
X46494Y-55750
X47419Y-30000
X49294Y-37500
X53044Y-45000
X53044Y-52500
X54919Y-30000
X56794Y-37500
X59594Y-55750
X60544Y-45000
X62419Y-30000
X64294Y-37500
X64294Y-52500
X68044Y-45000
X68994Y-55750
X69919Y-30000
X71794Y-37500
X75544Y-45000
X75544Y-52500
X77419Y-30000
X79294Y-37500
X83044Y-45000
X83044Y-52500
X84919Y-30000
X86794Y-37500
X90544Y-45000
X90544Y-52500
X92419Y-30000
X94294Y-37500
X98031Y-48250
X98044Y-52500
X99919Y-30000
X102731Y-45000
X104606Y-37500
X106481Y-52500
X107419Y-30000
X107431Y-48250
T0
M30
