<?xml version="1.0" standalone="no"?>
 <!DOCTYPE svg PUBLIC "-//W3C//DTD SVG 1.1//EN" 
 "http://www.w3.org/Graphics/SVG/1.1/DTD/svg11.dtd"> 
<svg xmlns="http://www.w3.org/2000/svg" version="1.1" 
    width="29.7002cm" height="21.0007cm" viewBox="0 0 116930 82680 ">
<title>SVG Picture created as TinyKey-Eco1.User.svg date 2016/11/23 09:57:06 </title>
  <desc>Picture generated by PCBNEW </desc>
<g style="fill:#000000; fill-opacity:1;stroke:#000000; stroke-opacity:1;
stroke-linecap:round; stroke-linejoin:round; "
 transform="translate(0 0) scale(1 1)">
</g>
<g style="fill:#000000; fill-opacity:0.0; 
stroke:#000000; stroke-width:-0.000393701; stroke-opacity:1; 
stroke-linecap:round; stroke-linejoin:round;">
</g>
<g style="fill:#000000; fill-opacity:0.0; 
stroke:#000000; stroke-width:78.7402; stroke-opacity:1; 
stroke-linecap:round; stroke-linejoin:round;">
<circle cx="7874.02" cy="52362.2" r="590.551" /> 
<circle cx="7874.02" cy="20472.4" r="590.551" /> 
<circle cx="41338.6" cy="29133.9" r="590.551" /> 
<circle cx="74803.1" cy="29133.9" r="590.551" /> 
<circle cx="55511.8" cy="52165.4" r="590.551" /> 
<circle cx="108268" cy="52362.2" r="590.551" /> 
<circle cx="108268" cy="20472.4" r="590.551" /> 
<circle cx="6496.06" cy="19094.5" r="590.551" /> 
<path d="M6496.06 18110.2 A984.252 984.252 0.0 0 0 5511.81 19094.5 " />
<path d="M5511 19094
L5511 53740
" />
<path d="M5511.81 53740.2 A984.252 984.252 0.0 0 0 6496.06 54724.4 " />
<circle cx="109646" cy="53740.2" r="590.551" /> 
<path d="M109646 54724.4 A984.252 984.252 0.0 0 0 110630 53740.2 " />
<path d="M109645 54724
L6496 54724
" />
<path d="M110629 19094
L110629 53740
" />
<path d="M110630 19094.5 A984.252 984.252 0.0 0 0 109646 18110.2 " />
<path d="M6496 18110
L109645 18110
" />
<circle cx="109646" cy="19094.5" r="590.551" /> 
<circle cx="6496.06" cy="53740.2" r="590.551" /> 
</g> 
</svg>
