<?xml version="1.0" standalone="no"?>
 <!DOCTYPE svg PUBLIC "-//W3C//DTD SVG 1.1//EN" 
 "http://www.w3.org/Graphics/SVG/1.1/DTD/svg11.dtd"> 
<svg xmlns="http://www.w3.org/2000/svg" version="1.1" 
    width="29.7002cm" height="21.0007cm" viewBox="0 0 116930 82680 ">
<title>SVG Picture created as TinyKey-Eco2.User.svg date 2016/11/23 09:57:06 </title>
  <desc>Picture generated by PCBNEW </desc>
<g style="fill:#000000; fill-opacity:1;stroke:#000000; stroke-opacity:1;
stroke-linecap:round; stroke-linejoin:round; "
 transform="translate(0 0) scale(1 1)">
</g>
<g style="fill:#000000; fill-opacity:0.0; 
stroke:#000000; stroke-width:-0.000393701; stroke-opacity:1; 
stroke-linecap:round; stroke-linejoin:round;">
</g>
<g style="fill:#000000; fill-opacity:0.0; 
stroke:#000000; stroke-width:78.7402; stroke-opacity:1; 
stroke-linecap:round; stroke-linejoin:round;">
<circle cx="6496.06" cy="53740.2" r="590.551" /> 
<path d="M109645 54724
L6496 54724
" />
<path d="M110629 19094
L110629 53740
" />
<path d="M110630 19094.5 A984.252 984.252 0.0 0 0 109646 18110.2 " />
<path d="M109646 54724.4 A984.252 984.252 0.0 0 0 110630 53740.2 " />
<path d="M5511.81 53740.2 A984.252 984.252 0.0 0 0 6496.06 54724.4 " />
<path d="M6496.06 18110.2 A984.252 984.252 0.0 0 0 5511.81 19094.5 " />
<circle cx="109646" cy="53740.2" r="590.551" /> 
<circle cx="109646" cy="19094.5" r="590.551" /> 
<path d="M5511 19094
L5511 53740
" />
<path d="M6496 18110
L109645 18110
" />
<circle cx="6496.06" cy="19094.5" r="590.551" /> 
</g>
<g style="fill:#000000; fill-opacity:0.0; 
stroke:#000000; stroke-width:60; stroke-opacity:1; 
stroke-linecap:round; stroke-linejoin:round;">
<path d="M8500 22562
L14000 22562
" />
<path d="M14000 22562
L14000 28062
" />
<path d="M14000 28062
L8500 28062
" />
<path d="M8500 28062
L8500 22562
" />
<path d="M16000 22562
L21500 22562
" />
<path d="M21500 22562
L21500 28062
" />
<path d="M21500 28062
L16000 28062
" />
<path d="M16000 28062
L16000 22562
" />
<path d="M23500 22562
L29000 22562
" />
<path d="M29000 22562
L29000 28062
" />
<path d="M29000 28062
L23500 28062
" />
<path d="M23500 28062
L23500 22562
" />
<path d="M31000 22562
L36500 22562
" />
<path d="M36500 22562
L36500 28062
" />
<path d="M36500 28062
L31000 28062
" />
<path d="M31000 28062
L31000 22562
" />
<path d="M38500 22562
L44000 22562
" />
<path d="M44000 22562
L44000 28062
" />
<path d="M44000 28062
L38500 28062
" />
<path d="M38500 28062
L38500 22562
" />
<path d="M46000 22562
L51500 22562
" />
<path d="M51500 22562
L51500 28062
" />
<path d="M51500 28062
L46000 28062
" />
<path d="M46000 28062
L46000 22562
" />
<path d="M53500 22562
L59000 22562
" />
<path d="M59000 22562
L59000 28062
" />
<path d="M59000 28062
L53500 28062
" />
<path d="M53500 28062
L53500 22562
" />
<path d="M61000 22562
L66500 22562
" />
<path d="M66500 22562
L66500 28062
" />
<path d="M66500 28062
L61000 28062
" />
<path d="M61000 28062
L61000 22562
" />
<path d="M68500 22562
L74000 22562
" />
<path d="M74000 22562
L74000 28062
" />
<path d="M74000 28062
L68500 28062
" />
<path d="M68500 28062
L68500 22562
" />
<path d="M76000 22562
L81500 22562
" />
<path d="M81500 22562
L81500 28062
" />
<path d="M81500 28062
L76000 28062
" />
<path d="M76000 28062
L76000 22562
" />
<path d="M83500 22562
L89000 22562
" />
<path d="M89000 22562
L89000 28062
" />
<path d="M89000 28062
L83500 28062
" />
<path d="M83500 28062
L83500 22562
" />
<path d="M91000 22562
L96500 22562
" />
<path d="M96500 22562
L96500 28062
" />
<path d="M96500 28062
L91000 28062
" />
<path d="M91000 28062
L91000 22562
" />
<path d="M100375 22562
L105875 22562
" />
<path d="M105875 22562
L105875 28062
" />
<path d="M105875 28062
L100375 28062
" />
<path d="M100375 28062
L100375 22562
" />
<path d="M9437 30062
L14937 30062
" />
<path d="M14937 30062
L14937 35562
" />
<path d="M14937 35562
L9437 35562
" />
<path d="M9437 35562
L9437 30062
" />
<path d="M17875 30062
L23375 30062
" />
<path d="M23375 30062
L23375 35562
" />
<path d="M23375 35562
L17875 35562
" />
<path d="M17875 35562
L17875 30062
" />
<path d="M25375 30062
L30875 30062
" />
<path d="M30875 30062
L30875 35562
" />
<path d="M30875 35562
L25375 35562
" />
<path d="M25375 35562
L25375 30062
" />
<path d="M32875 30062
L38375 30062
" />
<path d="M38375 30062
L38375 35562
" />
<path d="M38375 35562
L32875 35562
" />
<path d="M32875 35562
L32875 30062
" />
<path d="M40375 30062
L45875 30062
" />
<path d="M45875 30062
L45875 35562
" />
<path d="M45875 35562
L40375 35562
" />
<path d="M40375 35562
L40375 30062
" />
<path d="M47875 30062
L53375 30062
" />
<path d="M53375 30062
L53375 35562
" />
<path d="M53375 35562
L47875 35562
" />
<path d="M47875 35562
L47875 30062
" />
<path d="M55375 30062
L60875 30062
" />
<path d="M60875 30062
L60875 35562
" />
<path d="M60875 35562
L55375 35562
" />
<path d="M55375 35562
L55375 30062
" />
<path d="M62875 30062
L68375 30062
" />
<path d="M68375 30062
L68375 35562
" />
<path d="M68375 35562
L62875 35562
" />
<path d="M62875 35562
L62875 30062
" />
<path d="M70375 30062
L75875 30062
" />
<path d="M75875 30062
L75875 35562
" />
<path d="M75875 35562
L70375 35562
" />
<path d="M70375 35562
L70375 30062
" />
<path d="M77875 30062
L83375 30062
" />
<path d="M83375 30062
L83375 35562
" />
<path d="M83375 35562
L77875 35562
" />
<path d="M77875 35562
L77875 30062
" />
<path d="M85375 30062
L90875 30062
" />
<path d="M90875 30062
L90875 35562
" />
<path d="M90875 35562
L85375 35562
" />
<path d="M85375 35562
L85375 30062
" />
<path d="M97562 30062
L103062 30062
" />
<path d="M103062 30062
L103062 30892
" />
<path d="M103062 30892
L103702 30892
" />
<path d="M103702 30892
L103702 30572
" />
<path d="M103702 30572
L106322 30572
" />
<path d="M106322 30572
L106322 31912
" />
<path d="M106322 31912
L106662 31912
" />
<path d="M106662 31912
L106662 33012
" />
<path d="M106662 33012
L106322 33012
" />
<path d="M106322 33012
L106322 35412
" />
<path d="M106322 35412
L105912 35412
" />
<path d="M105912 35412
L105912 35872
" />
<path d="M105912 35872
L104112 35872
" />
<path d="M104112 35872
L104112 35412
" />
<path d="M104112 35412
L103702 35412
" />
<path d="M103702 35412
L103702 35102
" />
<path d="M103702 35102
L103062 35102
" />
<path d="M103062 35102
L103062 35562
" />
<path d="M103062 35562
L97562 35562
" />
<path d="M97562 35562
L97562 35102
" />
<path d="M97562 35102
L96922 35102
" />
<path d="M96922 35102
L96922 35412
" />
<path d="M96922 35412
L96512 35412
" />
<path d="M96512 35412
L96512 35872
" />
<path d="M96512 35872
L94712 35872
" />
<path d="M94712 35872
L94712 35412
" />
<path d="M94712 35412
L94302 35412
" />
<path d="M94302 35412
L94302 33012
" />
<path d="M94302 33012
L93962 33012
" />
<path d="M93962 33012
L93962 31912
" />
<path d="M93962 31912
L94302 31912
" />
<path d="M94302 31912
L94302 30572
" />
<path d="M94302 30572
L96922 30572
" />
<path d="M96922 30572
L96922 30892
" />
<path d="M96922 30892
L97562 30892
" />
<path d="M97562 30892
L97562 30062
" />
<path d="M11312 37562
L16812 37562
" />
<path d="M16812 37562
L16812 43062
" />
<path d="M16812 43062
L11312 43062
" />
<path d="M11312 43062
L11312 37562
" />
<path d="M21625 37562
L27125 37562
" />
<path d="M27125 37562
L27125 43062
" />
<path d="M27125 43062
L21625 43062
" />
<path d="M21625 43062
L21625 37562
" />
<path d="M29125 37562
L34625 37562
" />
<path d="M34625 37562
L34625 43062
" />
<path d="M34625 43062
L29125 43062
" />
<path d="M29125 43062
L29125 37562
" />
<path d="M36625 37562
L42125 37562
" />
<path d="M42125 37562
L42125 43062
" />
<path d="M42125 43062
L36625 43062
" />
<path d="M36625 43062
L36625 37562
" />
<path d="M44125 37562
L49625 37562
" />
<path d="M49625 37562
L49625 43062
" />
<path d="M49625 43062
L44125 43062
" />
<path d="M44125 43062
L44125 37562
" />
<path d="M51625 37562
L57125 37562
" />
<path d="M57125 37562
L57125 43062
" />
<path d="M57125 43062
L51625 43062
" />
<path d="M51625 43062
L51625 37562
" />
<path d="M59125 37562
L64625 37562
" />
<path d="M64625 37562
L64625 43062
" />
<path d="M64625 43062
L59125 43062
" />
<path d="M59125 43062
L59125 37562
" />
<path d="M66625 37562
L72125 37562
" />
<path d="M72125 37562
L72125 43062
" />
<path d="M72125 43062
L66625 43062
" />
<path d="M66625 43062
L66625 37562
" />
<path d="M74125 37562
L79625 37562
" />
<path d="M79625 37562
L79625 43062
" />
<path d="M79625 43062
L74125 43062
" />
<path d="M74125 43062
L74125 37562
" />
<path d="M81625 37562
L87125 37562
" />
<path d="M87125 37562
L87125 43062
" />
<path d="M87125 43062
L81625 43062
" />
<path d="M81625 43062
L81625 37562
" />
<path d="M89125 37562
L94625 37562
" />
<path d="M94625 37562
L94625 43062
" />
<path d="M94625 43062
L89125 43062
" />
<path d="M89125 43062
L89125 37562
" />
<path d="M99437 37562
L104937 37562
" />
<path d="M104937 37562
L104937 43062
" />
<path d="M104937 43062
L99437 43062
" />
<path d="M99437 43062
L99437 37562
" />
<path d="M8500 45062
L14000 45062
" />
<path d="M14000 45062
L14000 50562
" />
<path d="M14000 50562
L8500 50562
" />
<path d="M8500 50562
L8500 45062
" />
<path d="M16000 45062
L21500 45062
" />
<path d="M21500 45062
L21500 50562
" />
<path d="M21500 50562
L16000 50562
" />
<path d="M16000 50562
L16000 45062
" />
<path d="M23500 45062
L29000 45062
" />
<path d="M29000 45062
L29000 50562
" />
<path d="M29000 50562
L23500 50562
" />
<path d="M23500 50562
L23500 45062
" />
<path d="M31937 45062
L37437 45062
" />
<path d="M37437 45062
L37437 50562
" />
<path d="M37437 50562
L31937 50562
" />
<path d="M31937 50562
L31937 45062
" />
<path d="M52562 45062
L58062 45062
" />
<path d="M58062 45062
L58062 46912
" />
<path d="M58062 46912
L66217 46912
" />
<path d="M66202 46912
L66202 45572
" />
<path d="M66202 45572
L68822 45572
" />
<path d="M68822 45572
L68822 46912
" />
<path d="M68822 46912
L69162 46912
" />
<path d="M69162 46912
L69162 48012
" />
<path d="M69162 48012
L68822 48012
" />
<path d="M68822 48012
L68822 50412
" />
<path d="M68822 50412
L68412 50412
" />
<path d="M68412 50412
L68412 50872
" />
<path d="M68412 50872
L66612 50872
" />
<path d="M66612 50872
L66612 50412
" />
<path d="M66612 50412
L66202 50412
" />
<path d="M66202 50412
L66202 48712
" />
<path d="M66217 48712
L58062 48712
" />
<path d="M58062 48712
L58062 50562
" />
<path d="M58062 50562
L52562 50562
" />
<path d="M52562 50562
L52562 48712
" />
<path d="M52562 48712
L44407 48712
" />
<path d="M44422 48712
L44422 50412
" />
<path d="M44422 50412
L44012 50412
" />
<path d="M44012 50412
L44012 50872
" />
<path d="M44012 50872
L42212 50872
" />
<path d="M42212 50872
L42212 50412
" />
<path d="M42212 50412
L41802 50412
" />
<path d="M41802 50412
L41802 48012
" />
<path d="M41802 48012
L41462 48012
" />
<path d="M41462 48012
L41462 46912
" />
<path d="M41462 46912
L41802 46912
" />
<path d="M41802 46912
L41802 45572
" />
<path d="M41802 45572
L44422 45572
" />
<path d="M44422 45572
L44422 46912
" />
<path d="M44407 46912
L52562 46912
" />
<path d="M52562 46912
L52562 45062
" />
<path d="M73187 45062
L78687 45062
" />
<path d="M78687 45062
L78687 50562
" />
<path d="M78687 50562
L73187 50562
" />
<path d="M73187 50562
L73187 45062
" />
<path d="M81625 45062
L87125 45062
" />
<path d="M87125 45062
L87125 50562
" />
<path d="M87125 50562
L81625 50562
" />
<path d="M81625 50562
L81625 45062
" />
<path d="M89125 45062
L94625 45062
" />
<path d="M94625 45062
L94625 50562
" />
<path d="M94625 50562
L89125 50562
" />
<path d="M89125 50562
L89125 45062
" />
<path d="M96625 45062
L102125 45062
" />
<path d="M102125 45062
L102125 50562
" />
<path d="M102125 50562
L96625 50562
" />
<path d="M96625 50562
L96625 45062
" />
</g> 
</svg>
