M48
INCH,TZ
T1C0.039
T2C0.039
T3C0.040
T4C0.045
T5C0.059
%
G90
G05
T1
X7874Y-44457
X7874Y-48457
X8071Y-23000
X8071Y-27000
X8268Y-30283
X8268Y-34283
X14961Y-44850
X14961Y-48850
X15197Y-22173
X15197Y-26173
X16929Y-29890
X16929Y-33890
X17717Y-39339
X17717Y-43339
X20866Y-37370
X20866Y-41370
X22717Y-22173
X22717Y-26173
X22835Y-44850
X22835Y-48850
X24409Y-29890
X24409Y-33890
X28346Y-37370
X28346Y-41370
X30157Y-22173
X30157Y-26173
X30709Y-44850
X30709Y-48850
X32047Y-29693
X32047Y-33693
X35827Y-37370
X35827Y-41370
X37677Y-22173
X37677Y-26173
X39528Y-29693
X39528Y-33693
X43307Y-37370
X43307Y-41370
X45118Y-22173
X45118Y-26173
X47008Y-29693
X47008Y-33693
X47688Y-49688
X50787Y-37370
X50787Y-41370
X51688Y-49688
X52677Y-22213
X52677Y-26213
X54528Y-29693
X54528Y-33693
X58268Y-37370
X58268Y-41370
X60197Y-22213
X60197Y-26213
X62047Y-29654
X62047Y-33654
X65748Y-37370
X65748Y-41370
X67638Y-22173
X67638Y-26173
X69488Y-29654
X69488Y-33654
X71260Y-44850
X71260Y-48850
X73228Y-37370
X73228Y-41370
X75197Y-22173
X75197Y-26173
X77047Y-29654
X77047Y-33654
X80709Y-37370
X80709Y-41370
X80709Y-44850
X80709Y-48850
X82638Y-22173
X82638Y-26173
X84528Y-29654
X84528Y-33654
X88189Y-37370
X88189Y-41370
X88189Y-44850
X88189Y-48850
X89169Y-20868
X90197Y-22173
X90197Y-26173
X92402Y-29614
X92402Y-33614
X93169Y-19868
X93169Y-20868
X93169Y-20868
X94669Y-20868
X95669Y-44850
X95669Y-48850
X98071Y-37528
X98071Y-41528
X98669Y-19868
X98669Y-20868
X98669Y-20868
X98937Y-22252
X98937Y-26252
X100169Y-20868
X104169Y-19868
X104169Y-20868
X104169Y-20868
X106299Y-38315
X106299Y-42315
X107559Y-38315
X107559Y-42315
T2
X83858Y-20472
X85433Y-20472
X86614Y-20472
X87795Y-20472
T3
X8268Y-38732
X8268Y-39732
X8268Y-40732
X8268Y-41732
X24346Y-20866
X25346Y-20866
X26346Y-20866
X27346Y-20866
X28346Y-20866
X32646Y-20866
X33646Y-20866
X34646Y-20866
X77496Y-20472
X78496Y-20472
X79496Y-20472
X80496Y-20472
X81496Y-20472
T4
X104438Y-44937
X104438Y-45938
X104438Y-46938
X104438Y-48687
X104438Y-50688
X107438Y-44937
X107438Y-46938
X107438Y-48687
X107438Y-49688
X107438Y-50688
T5
X9750Y-24313
X9750Y-46812
X10687Y-31813
X12250Y-23313
X12250Y-45813
X12562Y-39313
X13187Y-30813
X15062Y-38313
X17250Y-24313
X17250Y-46812
X19125Y-31813
X19750Y-23313
X19750Y-45813
X21625Y-30813
X22875Y-39313
X24750Y-24313
X24750Y-46812
X25375Y-38313
X26625Y-31813
X27250Y-23313
X27250Y-45813
X29125Y-30813
X30375Y-39313
X32250Y-24313
X32875Y-38313
X33188Y-46812
X34125Y-31813
X34750Y-23313
X35688Y-45813
X36625Y-30813
X37875Y-39313
X39750Y-24313
X40375Y-38313
X41625Y-31813
X42250Y-23313
X44125Y-30813
X45375Y-39313
X47250Y-24313
X47875Y-38313
X49125Y-31813
X49750Y-23313
X51625Y-30813
X52875Y-39313
X53813Y-46812
X54750Y-24313
X55375Y-38313
X56313Y-45813
X56625Y-31813
X57250Y-23313
X59125Y-30813
X60375Y-39313
X62250Y-24313
X62875Y-38313
X64125Y-31813
X64750Y-23313
X66625Y-30813
X67875Y-39313
X69750Y-24313
X70375Y-38313
X71625Y-31813
X72250Y-23313
X74125Y-30813
X74438Y-46812
X75375Y-39313
X76938Y-45813
X77250Y-24313
X77875Y-38313
X79125Y-31813
X79750Y-23313
X81625Y-30813
X82875Y-39313
X82875Y-46812
X84750Y-24313
X85375Y-38313
X85375Y-45813
X86625Y-31813
X87250Y-23313
X89125Y-30813
X90375Y-39313
X90375Y-46812
X92250Y-24313
X92875Y-38313
X92875Y-45813
X94750Y-23313
X97875Y-46812
X98813Y-31813
X100375Y-45813
X100688Y-39313
X101313Y-30813
X101625Y-24313
X103188Y-38313
X104125Y-23313
T0
M30
