M48
INCH,TZ
T1C0.067
T2C0.087
T3C0.120
T4C0.157
%
G90
G05
T1
X9250Y-25313
X9250Y-47813
X10188Y-32813
X12063Y-40313
X13250Y-25313
X13250Y-47813
X14188Y-32813
X16063Y-40313
X16750Y-25313
X16750Y-47813
X18625Y-32813
X20750Y-25313
X20750Y-47813
X22375Y-40313
X22625Y-32813
X24250Y-25313
X24250Y-47813
X26125Y-32813
X26375Y-40313
X28250Y-25313
X28250Y-47813
X29875Y-40313
X30125Y-32813
X31750Y-25313
X32688Y-47813
X33625Y-32813
X33875Y-40313
X35750Y-25313
X36688Y-47813
X37375Y-40313
X37625Y-32813
X39250Y-25313
X41125Y-32813
X41375Y-40313
X43250Y-25313
X44875Y-40313
X45125Y-32813
X46750Y-25313
X48625Y-32813
X48875Y-40313
X50750Y-25313
X52375Y-40313
X52625Y-32813
X53313Y-47813
X54250Y-25313
X56125Y-32813
X56375Y-40313
X57313Y-47813
X58250Y-25313
X59875Y-40313
X60125Y-32813
X61750Y-25313
X63625Y-32813
X63875Y-40313
X65750Y-25313
X67375Y-40313
X67625Y-32813
X69250Y-25313
X71125Y-32813
X71375Y-40313
X73250Y-25313
X73938Y-47813
X74875Y-40313
X75125Y-32813
X76750Y-25313
X77938Y-47813
X78625Y-32813
X78875Y-40313
X80750Y-25313
X82375Y-40313
X82375Y-47813
X82625Y-32813
X84250Y-25313
X86125Y-32813
X86375Y-40313
X86375Y-47813
X88250Y-25313
X89875Y-40313
X89875Y-47813
X90125Y-32813
X91750Y-25313
X93875Y-40313
X93875Y-47813
X95750Y-25313
X97375Y-47813
X98312Y-32813
X100187Y-40313
X101125Y-25313
X101375Y-47813
X102313Y-32813
X104188Y-40313
X105125Y-25313
T2
X7874Y-20472
X7874Y-52362
X41339Y-29134
X55512Y-52165
X74803Y-29134
X108268Y-20472
X108268Y-52362
T3
X43113Y-45063
X67513Y-45063
X95613Y-30063
X105013Y-30063
T4
X11250Y-25313
X11250Y-47813
X12188Y-32813
X14063Y-40313
X18750Y-25313
X18750Y-47813
X20625Y-32813
X24375Y-40313
X26250Y-25313
X26250Y-47813
X28125Y-32813
X31875Y-40313
X33750Y-25313
X34688Y-47813
X35625Y-32813
X39375Y-40313
X41250Y-25313
X43113Y-51063
X43125Y-32813
X46875Y-40313
X48750Y-25313
X50625Y-32813
X54375Y-40313
X55313Y-47813
X56250Y-25313
X58125Y-32813
X61875Y-40313
X63750Y-25313
X65625Y-32813
X67513Y-51063
X69375Y-40313
X71250Y-25313
X73125Y-32813
X75938Y-47813
X76875Y-40313
X78750Y-25313
X80625Y-32813
X84375Y-40313
X84375Y-47813
X86250Y-25313
X88125Y-32813
X91875Y-40313
X91875Y-47813
X93750Y-25313
X95613Y-36063
X99375Y-47813
X100313Y-32813
X102188Y-40313
X103125Y-25313
X105013Y-36063
T0
M30
