M48
INCH,TZ
T1C0.039
T2C0.045
T3C0.059
%
G90
G05
T1
X8000Y-32500
X8000Y-36500
X8000Y-39000
X8000Y-43000
X8000Y-46500
X8000Y-50500
X8000Y-54000
X8000Y-58000
X15500Y-31500
X15500Y-35500
X15500Y-54000
X15500Y-58000
X17500Y-39000
X17500Y-43000
X21000Y-46500
X21000Y-50500
X23000Y-31500
X23000Y-35500
X23000Y-54000
X23000Y-58000
X25000Y-39000
X25000Y-43000
X28500Y-46500
X28500Y-50500
X30500Y-31500
X30500Y-35500
X30500Y-54000
X30500Y-58000
X32500Y-39000
X32500Y-43000
X36000Y-46500
X36000Y-50500
X38000Y-31500
X38000Y-35500
X40000Y-39000
X40000Y-43000
X43500Y-46500
X43500Y-50500
X45500Y-31500
X45500Y-35500
X47000Y-59500
X47500Y-39000
X47500Y-43000
X51000Y-46500
X51000Y-50500
X51000Y-59500
X53000Y-31500
X53000Y-35500
X55000Y-39000
X55000Y-43000
X58500Y-46500
X58500Y-50500
X60500Y-31500
X60500Y-35500
X62500Y-39000
X62500Y-43000
X66000Y-46500
X66000Y-50500
X68000Y-31500
X68000Y-35500
X70000Y-39000
X70000Y-43000
X71500Y-54000
X71500Y-58000
X73500Y-46500
X73500Y-50500
X75500Y-31500
X75500Y-35500
X77500Y-39000
X77500Y-43000
X81000Y-46500
X81000Y-50500
X81000Y-54000
X81000Y-58000
X83000Y-31500
X83000Y-35500
X85000Y-39000
X85000Y-43000
X88500Y-46500
X88500Y-50500
X88500Y-54000
X88500Y-58000
X90500Y-29750
X90500Y-30750
X90500Y-32000
X90500Y-36000
X92500Y-39000
X92500Y-43000
X94500Y-29750
X94500Y-30750
X94500Y-30750
X96000Y-30750
X96000Y-54000
X96000Y-58000
X98000Y-32000
X98000Y-36000
X98500Y-46500
X98500Y-50500
X100000Y-29750
X100000Y-30750
X100000Y-30750
X101500Y-30750
X105500Y-29750
X105500Y-30750
X105500Y-30750
X106500Y-48500
X106500Y-52500
X108000Y-48500
X108000Y-52500
T2
X104000Y-55000
X104000Y-56000
X104000Y-57000
X104000Y-58000
X104000Y-60000
X107000Y-55000
X107000Y-57000
X107000Y-58000
X107000Y-59000
X107000Y-60000
T3
X10000Y-34000
X10000Y-56500
X11000Y-41500
X12500Y-33000
X12500Y-55500
X13000Y-49000
X13500Y-40500
X15500Y-48000
X17500Y-34000
X17500Y-56500
X19500Y-41500
X20000Y-33000
X20000Y-55500
X22000Y-40500
X23000Y-49000
X25000Y-34000
X25000Y-56500
X25500Y-48000
X27000Y-41500
X27500Y-33000
X27500Y-55500
X29500Y-40500
X30500Y-49000
X32500Y-34000
X33000Y-48000
X33500Y-56500
X34500Y-41500
X35000Y-33000
X36000Y-55500
X37000Y-40500
X38000Y-49000
X40000Y-34000
X40500Y-48000
X42000Y-41500
X42500Y-33000
X44500Y-40500
X45500Y-49000
X47500Y-34000
X48000Y-48000
X49500Y-41500
X50000Y-33000
X52000Y-40500
X53000Y-49000
X54000Y-56500
X55000Y-34000
X55500Y-48000
X56500Y-55500
X57000Y-41500
X57500Y-33000
X59500Y-40500
X60500Y-49000
X62500Y-34000
X63000Y-48000
X64500Y-41500
X65000Y-33000
X67000Y-40500
X68000Y-49000
X70000Y-34000
X70500Y-48000
X72000Y-41500
X72500Y-33000
X74500Y-40500
X74500Y-56500
X75500Y-49000
X77000Y-55500
X77500Y-34000
X78000Y-48000
X79500Y-41500
X80000Y-33000
X82000Y-40500
X83000Y-49000
X83000Y-56500
X85000Y-34000
X85500Y-48000
X85500Y-55500
X87000Y-41500
X87500Y-33000
X89500Y-40500
X90500Y-49000
X90500Y-56500
X92500Y-34000
X93000Y-48000
X93000Y-55500
X95000Y-33000
X98000Y-56500
X99000Y-41500
X100500Y-55500
X101000Y-49000
X101500Y-40500
X102000Y-34000
X103500Y-48000
X104500Y-33000
T0
M30
