G04 #@! TF.FileFunction,Legend,Top*
%FSLAX46Y46*%
G04 Gerber Fmt 4.6, Leading zero omitted, Abs format (unit mm)*
G04 Created by KiCad (PCBNEW 4.0.4-stable) date Wednesday, 23 November 2016 'AMt' 09:19:53 AM*
%MOMM*%
%LPD*%
G01*
G04 APERTURE LIST*
%ADD10C,0.100000*%
%ADD11C,0.500000*%
%ADD12C,0.300000*%
%ADD13C,0.203200*%
%ADD14C,0.381000*%
%ADD15C,0.150000*%
G04 APERTURE END LIST*
D10*
D11*
X24095238Y-131904762D02*
X25428572Y-131904762D01*
X24095238Y-133904762D01*
X25428572Y-133904762D01*
X27809524Y-133904762D02*
X27714286Y-133904762D01*
X27523810Y-133809524D01*
X27238096Y-133523810D01*
X26761905Y-132952381D01*
X26571429Y-132666667D01*
X26476191Y-132380952D01*
X26476191Y-132190476D01*
X26571429Y-132000000D01*
X26761905Y-131904762D01*
X26857143Y-131904762D01*
X27047619Y-132000000D01*
X27142857Y-132190476D01*
X27142857Y-132285714D01*
X27047619Y-132476190D01*
X26952381Y-132571429D01*
X26380953Y-132952381D01*
X26285715Y-133047619D01*
X26190476Y-133238095D01*
X26190476Y-133523810D01*
X26285715Y-133714286D01*
X26380953Y-133809524D01*
X26571429Y-133904762D01*
X26857143Y-133904762D01*
X27047619Y-133809524D01*
X27142857Y-133714286D01*
X27428572Y-133333333D01*
X27523810Y-133047619D01*
X27523810Y-132857143D01*
X28666666Y-133904762D02*
X28666666Y-131904762D01*
X29428571Y-131904762D01*
X29619047Y-132000000D01*
X29714286Y-132095238D01*
X29809524Y-132285714D01*
X29809524Y-132571429D01*
X29714286Y-132761905D01*
X29619047Y-132857143D01*
X29428571Y-132952381D01*
X28666666Y-132952381D01*
D12*
X24309523Y-53904762D02*
X24309523Y-51904762D01*
X25452381Y-53904762D02*
X24595238Y-52761905D01*
X25452381Y-51904762D02*
X24309523Y-53047619D01*
X27452381Y-53904762D02*
X26785714Y-52952381D01*
X26309523Y-53904762D02*
X26309523Y-51904762D01*
X27071428Y-51904762D01*
X27261904Y-52000000D01*
X27357143Y-52095238D01*
X27452381Y-52285714D01*
X27452381Y-52571429D01*
X27357143Y-52761905D01*
X27261904Y-52857143D01*
X27071428Y-52952381D01*
X26309523Y-52952381D01*
X28690476Y-52952381D02*
X28690476Y-53904762D01*
X28023809Y-51904762D02*
X28690476Y-52952381D01*
X29357143Y-51904762D01*
X30690476Y-52857143D02*
X30976190Y-52952381D01*
X31071429Y-53047619D01*
X31166667Y-53238095D01*
X31166667Y-53523810D01*
X31071429Y-53714286D01*
X30976190Y-53809524D01*
X30785714Y-53904762D01*
X30023809Y-53904762D01*
X30023809Y-51904762D01*
X30690476Y-51904762D01*
X30880952Y-52000000D01*
X30976190Y-52095238D01*
X31071429Y-52285714D01*
X31071429Y-52476190D01*
X30976190Y-52666667D01*
X30880952Y-52761905D01*
X30690476Y-52857143D01*
X30023809Y-52857143D01*
X32404762Y-51904762D02*
X32785714Y-51904762D01*
X32976190Y-52000000D01*
X33166667Y-52190476D01*
X33261905Y-52571429D01*
X33261905Y-53238095D01*
X33166667Y-53619048D01*
X32976190Y-53809524D01*
X32785714Y-53904762D01*
X32404762Y-53904762D01*
X32214286Y-53809524D01*
X32023809Y-53619048D01*
X31928571Y-53238095D01*
X31928571Y-52571429D01*
X32023809Y-52190476D01*
X32214286Y-52000000D01*
X32404762Y-51904762D01*
X34023809Y-53333333D02*
X34976190Y-53333333D01*
X33833333Y-53904762D02*
X34500000Y-51904762D01*
X35166667Y-53904762D01*
X36976191Y-53904762D02*
X36309524Y-52952381D01*
X35833333Y-53904762D02*
X35833333Y-51904762D01*
X36595238Y-51904762D01*
X36785714Y-52000000D01*
X36880953Y-52095238D01*
X36976191Y-52285714D01*
X36976191Y-52571429D01*
X36880953Y-52761905D01*
X36785714Y-52857143D01*
X36595238Y-52952381D01*
X35833333Y-52952381D01*
X37833333Y-53904762D02*
X37833333Y-51904762D01*
X38309524Y-51904762D01*
X38595238Y-52000000D01*
X38785714Y-52190476D01*
X38880953Y-52380952D01*
X38976191Y-52761905D01*
X38976191Y-53047619D01*
X38880953Y-53428571D01*
X38785714Y-53619048D01*
X38595238Y-53809524D01*
X38309524Y-53904762D01*
X37833333Y-53904762D01*
X41166667Y-52571429D02*
X41642858Y-53904762D01*
X42119048Y-52571429D01*
X42785715Y-52095238D02*
X42880953Y-52000000D01*
X43071430Y-51904762D01*
X43547620Y-51904762D01*
X43738096Y-52000000D01*
X43833334Y-52095238D01*
X43928573Y-52285714D01*
X43928573Y-52476190D01*
X43833334Y-52761905D01*
X42690477Y-53904762D01*
X43928573Y-53904762D01*
X44785715Y-53714286D02*
X44880954Y-53809524D01*
X44785715Y-53904762D01*
X44690477Y-53809524D01*
X44785715Y-53714286D01*
X44785715Y-53904762D01*
X46119049Y-51904762D02*
X46309525Y-51904762D01*
X46500001Y-52000000D01*
X46595239Y-52095238D01*
X46690477Y-52285714D01*
X46785716Y-52666667D01*
X46785716Y-53142857D01*
X46690477Y-53523810D01*
X46595239Y-53714286D01*
X46500001Y-53809524D01*
X46309525Y-53904762D01*
X46119049Y-53904762D01*
X45928573Y-53809524D01*
X45833335Y-53714286D01*
X45738096Y-53523810D01*
X45642858Y-53142857D01*
X45642858Y-52666667D01*
X45738096Y-52285714D01*
X45833335Y-52095238D01*
X45928573Y-52000000D01*
X46119049Y-51904762D01*
D13*
X19230000Y-66675000D02*
X19230000Y-60325000D01*
X19230000Y-60325000D02*
X21770000Y-60325000D01*
X21770000Y-60325000D02*
X21770000Y-66675000D01*
X21770000Y-66675000D02*
X19230000Y-66675000D01*
X19730000Y-85175000D02*
X19730000Y-78825000D01*
X19730000Y-78825000D02*
X22270000Y-78825000D01*
X22270000Y-78825000D02*
X22270000Y-85175000D01*
X22270000Y-85175000D02*
X19730000Y-85175000D01*
X43730000Y-108175000D02*
X43730000Y-101825000D01*
X43730000Y-101825000D02*
X46270000Y-101825000D01*
X46270000Y-101825000D02*
X46270000Y-108175000D01*
X46270000Y-108175000D02*
X43730000Y-108175000D01*
X21270000Y-114825000D02*
X21270000Y-121175000D01*
X21270000Y-121175000D02*
X18730000Y-121175000D01*
X18730000Y-121175000D02*
X18730000Y-114825000D01*
X18730000Y-114825000D02*
X21270000Y-114825000D01*
X37330000Y-64575000D02*
X37330000Y-58225000D01*
X37330000Y-58225000D02*
X39870000Y-58225000D01*
X39870000Y-58225000D02*
X39870000Y-64575000D01*
X39870000Y-64575000D02*
X37330000Y-64575000D01*
X41730000Y-84175000D02*
X41730000Y-77825000D01*
X41730000Y-77825000D02*
X44270000Y-77825000D01*
X44270000Y-77825000D02*
X44270000Y-84175000D01*
X44270000Y-84175000D02*
X41730000Y-84175000D01*
X51730000Y-103175000D02*
X51730000Y-96825000D01*
X51730000Y-96825000D02*
X54270000Y-96825000D01*
X54270000Y-96825000D02*
X54270000Y-103175000D01*
X54270000Y-103175000D02*
X51730000Y-103175000D01*
X39270000Y-115825000D02*
X39270000Y-122175000D01*
X39270000Y-122175000D02*
X36730000Y-122175000D01*
X36730000Y-122175000D02*
X36730000Y-115825000D01*
X36730000Y-115825000D02*
X39270000Y-115825000D01*
X56430000Y-64575000D02*
X56430000Y-58225000D01*
X56430000Y-58225000D02*
X58970000Y-58225000D01*
X58970000Y-58225000D02*
X58970000Y-64575000D01*
X58970000Y-64575000D02*
X56430000Y-64575000D01*
X60730000Y-84175000D02*
X60730000Y-77825000D01*
X60730000Y-77825000D02*
X63270000Y-77825000D01*
X63270000Y-77825000D02*
X63270000Y-84175000D01*
X63270000Y-84175000D02*
X60730000Y-84175000D01*
X70730000Y-103175000D02*
X70730000Y-96825000D01*
X70730000Y-96825000D02*
X73270000Y-96825000D01*
X73270000Y-96825000D02*
X73270000Y-103175000D01*
X73270000Y-103175000D02*
X70730000Y-103175000D01*
X59270000Y-115825000D02*
X59270000Y-122175000D01*
X59270000Y-122175000D02*
X56730000Y-122175000D01*
X56730000Y-122175000D02*
X56730000Y-115825000D01*
X56730000Y-115825000D02*
X59270000Y-115825000D01*
X75330000Y-64575000D02*
X75330000Y-58225000D01*
X75330000Y-58225000D02*
X77870000Y-58225000D01*
X77870000Y-58225000D02*
X77870000Y-64575000D01*
X77870000Y-64575000D02*
X75330000Y-64575000D01*
X80130000Y-83675000D02*
X80130000Y-77325000D01*
X80130000Y-77325000D02*
X82670000Y-77325000D01*
X82670000Y-77325000D02*
X82670000Y-83675000D01*
X82670000Y-83675000D02*
X80130000Y-83675000D01*
X89730000Y-103175000D02*
X89730000Y-96825000D01*
X89730000Y-96825000D02*
X92270000Y-96825000D01*
X92270000Y-96825000D02*
X92270000Y-103175000D01*
X92270000Y-103175000D02*
X89730000Y-103175000D01*
X79270000Y-115825000D02*
X79270000Y-122175000D01*
X79270000Y-122175000D02*
X76730000Y-122175000D01*
X76730000Y-122175000D02*
X76730000Y-115825000D01*
X76730000Y-115825000D02*
X79270000Y-115825000D01*
X94430000Y-64575000D02*
X94430000Y-58225000D01*
X94430000Y-58225000D02*
X96970000Y-58225000D01*
X96970000Y-58225000D02*
X96970000Y-64575000D01*
X96970000Y-64575000D02*
X94430000Y-64575000D01*
X99130000Y-83675000D02*
X99130000Y-77325000D01*
X99130000Y-77325000D02*
X101670000Y-77325000D01*
X101670000Y-77325000D02*
X101670000Y-83675000D01*
X101670000Y-83675000D02*
X99130000Y-83675000D01*
X108730000Y-103175000D02*
X108730000Y-96825000D01*
X108730000Y-96825000D02*
X111270000Y-96825000D01*
X111270000Y-96825000D02*
X111270000Y-103175000D01*
X111270000Y-103175000D02*
X108730000Y-103175000D01*
X113330000Y-64575000D02*
X113330000Y-58225000D01*
X113330000Y-58225000D02*
X115870000Y-58225000D01*
X115870000Y-58225000D02*
X115870000Y-64575000D01*
X115870000Y-64575000D02*
X113330000Y-64575000D01*
X118130000Y-83675000D02*
X118130000Y-77325000D01*
X118130000Y-77325000D02*
X120670000Y-77325000D01*
X120670000Y-77325000D02*
X120670000Y-83675000D01*
X120670000Y-83675000D02*
X118130000Y-83675000D01*
X127730000Y-103175000D02*
X127730000Y-96825000D01*
X127730000Y-96825000D02*
X130270000Y-96825000D01*
X130270000Y-96825000D02*
X130270000Y-103175000D01*
X130270000Y-103175000D02*
X127730000Y-103175000D01*
X123031250Y-124936250D02*
X129381250Y-124936250D01*
X129381250Y-124936250D02*
X129381250Y-127476250D01*
X129381250Y-127476250D02*
X123031250Y-127476250D01*
X123031250Y-127476250D02*
X123031250Y-124936250D01*
X132530000Y-64675000D02*
X132530000Y-58325000D01*
X132530000Y-58325000D02*
X135070000Y-58325000D01*
X135070000Y-58325000D02*
X135070000Y-64675000D01*
X135070000Y-64675000D02*
X132530000Y-64675000D01*
X137230000Y-83675000D02*
X137230000Y-77325000D01*
X137230000Y-77325000D02*
X139770000Y-77325000D01*
X139770000Y-77325000D02*
X139770000Y-83675000D01*
X139770000Y-83675000D02*
X137230000Y-83675000D01*
X146730000Y-103175000D02*
X146730000Y-96825000D01*
X146730000Y-96825000D02*
X149270000Y-96825000D01*
X149270000Y-96825000D02*
X149270000Y-103175000D01*
X149270000Y-103175000D02*
X146730000Y-103175000D01*
X151630000Y-64675000D02*
X151630000Y-58325000D01*
X151630000Y-58325000D02*
X154170000Y-58325000D01*
X154170000Y-58325000D02*
X154170000Y-64675000D01*
X154170000Y-64675000D02*
X151630000Y-64675000D01*
X156330000Y-83575000D02*
X156330000Y-77225000D01*
X156330000Y-77225000D02*
X158870000Y-77225000D01*
X158870000Y-77225000D02*
X158870000Y-83575000D01*
X158870000Y-83575000D02*
X156330000Y-83575000D01*
X165730000Y-103175000D02*
X165730000Y-96825000D01*
X165730000Y-96825000D02*
X168270000Y-96825000D01*
X168270000Y-96825000D02*
X168270000Y-103175000D01*
X168270000Y-103175000D02*
X165730000Y-103175000D01*
X170530000Y-64575000D02*
X170530000Y-58225000D01*
X170530000Y-58225000D02*
X173070000Y-58225000D01*
X173070000Y-58225000D02*
X173070000Y-64575000D01*
X173070000Y-64575000D02*
X170530000Y-64575000D01*
X175230000Y-83575000D02*
X175230000Y-77225000D01*
X175230000Y-77225000D02*
X177770000Y-77225000D01*
X177770000Y-77225000D02*
X177770000Y-83575000D01*
X177770000Y-83575000D02*
X175230000Y-83575000D01*
X184730000Y-103175000D02*
X184730000Y-96825000D01*
X184730000Y-96825000D02*
X187270000Y-96825000D01*
X187270000Y-96825000D02*
X187270000Y-103175000D01*
X187270000Y-103175000D02*
X184730000Y-103175000D01*
X182270000Y-115825000D02*
X182270000Y-122175000D01*
X182270000Y-122175000D02*
X179730000Y-122175000D01*
X179730000Y-122175000D02*
X179730000Y-115825000D01*
X179730000Y-115825000D02*
X182270000Y-115825000D01*
X189730000Y-64575000D02*
X189730000Y-58225000D01*
X189730000Y-58225000D02*
X192270000Y-58225000D01*
X192270000Y-58225000D02*
X192270000Y-64575000D01*
X192270000Y-64575000D02*
X189730000Y-64575000D01*
X194430000Y-83575000D02*
X194430000Y-77225000D01*
X194430000Y-77225000D02*
X196970000Y-77225000D01*
X196970000Y-77225000D02*
X196970000Y-83575000D01*
X196970000Y-83575000D02*
X194430000Y-83575000D01*
X203730000Y-103175000D02*
X203730000Y-96825000D01*
X203730000Y-96825000D02*
X206270000Y-96825000D01*
X206270000Y-96825000D02*
X206270000Y-103175000D01*
X206270000Y-103175000D02*
X203730000Y-103175000D01*
X206270000Y-115825000D02*
X206270000Y-122175000D01*
X206270000Y-122175000D02*
X203730000Y-122175000D01*
X203730000Y-122175000D02*
X203730000Y-115825000D01*
X203730000Y-115825000D02*
X206270000Y-115825000D01*
X208630000Y-64575000D02*
X208630000Y-58225000D01*
X208630000Y-58225000D02*
X211170000Y-58225000D01*
X211170000Y-58225000D02*
X211170000Y-64575000D01*
X211170000Y-64575000D02*
X208630000Y-64575000D01*
X213430000Y-83575000D02*
X213430000Y-77225000D01*
X213430000Y-77225000D02*
X215970000Y-77225000D01*
X215970000Y-77225000D02*
X215970000Y-83575000D01*
X215970000Y-83575000D02*
X213430000Y-83575000D01*
X222730000Y-103175000D02*
X222730000Y-96825000D01*
X222730000Y-96825000D02*
X225270000Y-96825000D01*
X225270000Y-96825000D02*
X225270000Y-103175000D01*
X225270000Y-103175000D02*
X222730000Y-103175000D01*
X225270000Y-115825000D02*
X225270000Y-122175000D01*
X225270000Y-122175000D02*
X222730000Y-122175000D01*
X222730000Y-122175000D02*
X222730000Y-115825000D01*
X222730000Y-115825000D02*
X225270000Y-115825000D01*
X227830000Y-64575000D02*
X227830000Y-58225000D01*
X227830000Y-58225000D02*
X230370000Y-58225000D01*
X230370000Y-58225000D02*
X230370000Y-64575000D01*
X230370000Y-64575000D02*
X227830000Y-64575000D01*
X233430000Y-83475000D02*
X233430000Y-77125000D01*
X233430000Y-77125000D02*
X235970000Y-77125000D01*
X235970000Y-77125000D02*
X235970000Y-83475000D01*
X235970000Y-83475000D02*
X233430000Y-83475000D01*
X247830000Y-103575000D02*
X247830000Y-97225000D01*
X247830000Y-97225000D02*
X250370000Y-97225000D01*
X250370000Y-97225000D02*
X250370000Y-103575000D01*
X250370000Y-103575000D02*
X247830000Y-103575000D01*
X244270000Y-115825000D02*
X244270000Y-122175000D01*
X244270000Y-122175000D02*
X241730000Y-122175000D01*
X241730000Y-122175000D02*
X241730000Y-115825000D01*
X241730000Y-115825000D02*
X244270000Y-115825000D01*
X250030000Y-64775000D02*
X250030000Y-58425000D01*
X250030000Y-58425000D02*
X252570000Y-58425000D01*
X252570000Y-58425000D02*
X252570000Y-64775000D01*
X252570000Y-64775000D02*
X250030000Y-64775000D01*
X274470000Y-99225000D02*
X274470000Y-105575000D01*
X274470000Y-105575000D02*
X271930000Y-105575000D01*
X271930000Y-105575000D02*
X271930000Y-99225000D01*
X271930000Y-99225000D02*
X274470000Y-99225000D01*
X271270000Y-99225000D02*
X271270000Y-105575000D01*
X271270000Y-105575000D02*
X268730000Y-105575000D01*
X268730000Y-105575000D02*
X268730000Y-99225000D01*
X268730000Y-99225000D02*
X271270000Y-99225000D01*
X235378750Y-53563800D02*
X237918750Y-53563800D01*
X235327229Y-53563195D02*
G75*
G02X237969550Y-53563800I1321521J1574195D01*
G01*
X249348750Y-53563800D02*
X251888750Y-53563800D01*
X249297229Y-53563195D02*
G75*
G02X251939550Y-53563800I1321521J1574195D01*
G01*
X263318750Y-53563800D02*
X265858750Y-53563800D01*
X263267229Y-53563195D02*
G75*
G02X265909550Y-53563800I1321521J1574195D01*
G01*
X228393750Y-51735000D02*
X234743750Y-51735000D01*
X234743750Y-51735000D02*
X234743750Y-54275000D01*
X234743750Y-54275000D02*
X228393750Y-54275000D01*
X228393750Y-54275000D02*
X228393750Y-51735000D01*
X236648750Y-53005000D02*
X234743750Y-53005000D01*
X226488750Y-53005000D02*
X228393750Y-53005000D01*
X242363750Y-51735000D02*
X248713750Y-51735000D01*
X248713750Y-51735000D02*
X248713750Y-54275000D01*
X248713750Y-54275000D02*
X242363750Y-54275000D01*
X242363750Y-54275000D02*
X242363750Y-51735000D01*
X250618750Y-53005000D02*
X248713750Y-53005000D01*
X240458750Y-53005000D02*
X242363750Y-53005000D01*
X256333750Y-51735000D02*
X262683750Y-51735000D01*
X262683750Y-51735000D02*
X262683750Y-54275000D01*
X262683750Y-54275000D02*
X256333750Y-54275000D01*
X256333750Y-54275000D02*
X256333750Y-51735000D01*
X264588750Y-53005000D02*
X262683750Y-53005000D01*
X254428750Y-53005000D02*
X256333750Y-53005000D01*
D14*
X22225000Y-57943750D02*
X24003000Y-57943750D01*
X33147000Y-57943750D02*
X34925000Y-57943750D01*
X34925000Y-57943750D02*
X34925000Y-59721750D01*
X34925000Y-68865750D02*
X34925000Y-70643750D01*
X34925000Y-70643750D02*
X33147000Y-70643750D01*
X24003000Y-70643750D02*
X22225000Y-70643750D01*
X22225000Y-70643750D02*
X22225000Y-68865750D01*
X22225000Y-59721750D02*
X22225000Y-57943750D01*
X41275000Y-57943750D02*
X43053000Y-57943750D01*
X52197000Y-57943750D02*
X53975000Y-57943750D01*
X53975000Y-57943750D02*
X53975000Y-59721750D01*
X53975000Y-68865750D02*
X53975000Y-70643750D01*
X53975000Y-70643750D02*
X52197000Y-70643750D01*
X43053000Y-70643750D02*
X41275000Y-70643750D01*
X41275000Y-70643750D02*
X41275000Y-68865750D01*
X41275000Y-59721750D02*
X41275000Y-57943750D01*
X60325000Y-57943750D02*
X62103000Y-57943750D01*
X71247000Y-57943750D02*
X73025000Y-57943750D01*
X73025000Y-57943750D02*
X73025000Y-59721750D01*
X73025000Y-68865750D02*
X73025000Y-70643750D01*
X73025000Y-70643750D02*
X71247000Y-70643750D01*
X62103000Y-70643750D02*
X60325000Y-70643750D01*
X60325000Y-70643750D02*
X60325000Y-68865750D01*
X60325000Y-59721750D02*
X60325000Y-57943750D01*
X79375000Y-57943750D02*
X81153000Y-57943750D01*
X90297000Y-57943750D02*
X92075000Y-57943750D01*
X92075000Y-57943750D02*
X92075000Y-59721750D01*
X92075000Y-68865750D02*
X92075000Y-70643750D01*
X92075000Y-70643750D02*
X90297000Y-70643750D01*
X81153000Y-70643750D02*
X79375000Y-70643750D01*
X79375000Y-70643750D02*
X79375000Y-68865750D01*
X79375000Y-59721750D02*
X79375000Y-57943750D01*
X98425000Y-57943750D02*
X100203000Y-57943750D01*
X109347000Y-57943750D02*
X111125000Y-57943750D01*
X111125000Y-57943750D02*
X111125000Y-59721750D01*
X111125000Y-68865750D02*
X111125000Y-70643750D01*
X111125000Y-70643750D02*
X109347000Y-70643750D01*
X100203000Y-70643750D02*
X98425000Y-70643750D01*
X98425000Y-70643750D02*
X98425000Y-68865750D01*
X98425000Y-59721750D02*
X98425000Y-57943750D01*
X117475000Y-57943750D02*
X119253000Y-57943750D01*
X128397000Y-57943750D02*
X130175000Y-57943750D01*
X130175000Y-57943750D02*
X130175000Y-59721750D01*
X130175000Y-68865750D02*
X130175000Y-70643750D01*
X130175000Y-70643750D02*
X128397000Y-70643750D01*
X119253000Y-70643750D02*
X117475000Y-70643750D01*
X117475000Y-70643750D02*
X117475000Y-68865750D01*
X117475000Y-59721750D02*
X117475000Y-57943750D01*
X136525000Y-57943750D02*
X138303000Y-57943750D01*
X147447000Y-57943750D02*
X149225000Y-57943750D01*
X149225000Y-57943750D02*
X149225000Y-59721750D01*
X149225000Y-68865750D02*
X149225000Y-70643750D01*
X149225000Y-70643750D02*
X147447000Y-70643750D01*
X138303000Y-70643750D02*
X136525000Y-70643750D01*
X136525000Y-70643750D02*
X136525000Y-68865750D01*
X136525000Y-59721750D02*
X136525000Y-57943750D01*
X155575000Y-57943750D02*
X157353000Y-57943750D01*
X166497000Y-57943750D02*
X168275000Y-57943750D01*
X168275000Y-57943750D02*
X168275000Y-59721750D01*
X168275000Y-68865750D02*
X168275000Y-70643750D01*
X168275000Y-70643750D02*
X166497000Y-70643750D01*
X157353000Y-70643750D02*
X155575000Y-70643750D01*
X155575000Y-70643750D02*
X155575000Y-68865750D01*
X155575000Y-59721750D02*
X155575000Y-57943750D01*
X174625000Y-57943750D02*
X176403000Y-57943750D01*
X185547000Y-57943750D02*
X187325000Y-57943750D01*
X187325000Y-57943750D02*
X187325000Y-59721750D01*
X187325000Y-68865750D02*
X187325000Y-70643750D01*
X187325000Y-70643750D02*
X185547000Y-70643750D01*
X176403000Y-70643750D02*
X174625000Y-70643750D01*
X174625000Y-70643750D02*
X174625000Y-68865750D01*
X174625000Y-59721750D02*
X174625000Y-57943750D01*
X193675000Y-57943750D02*
X195453000Y-57943750D01*
X204597000Y-57943750D02*
X206375000Y-57943750D01*
X206375000Y-57943750D02*
X206375000Y-59721750D01*
X206375000Y-68865750D02*
X206375000Y-70643750D01*
X206375000Y-70643750D02*
X204597000Y-70643750D01*
X195453000Y-70643750D02*
X193675000Y-70643750D01*
X193675000Y-70643750D02*
X193675000Y-68865750D01*
X193675000Y-59721750D02*
X193675000Y-57943750D01*
X212725000Y-57943750D02*
X214503000Y-57943750D01*
X223647000Y-57943750D02*
X225425000Y-57943750D01*
X225425000Y-57943750D02*
X225425000Y-59721750D01*
X225425000Y-68865750D02*
X225425000Y-70643750D01*
X225425000Y-70643750D02*
X223647000Y-70643750D01*
X214503000Y-70643750D02*
X212725000Y-70643750D01*
X212725000Y-70643750D02*
X212725000Y-68865750D01*
X212725000Y-59721750D02*
X212725000Y-57943750D01*
X231775000Y-57943750D02*
X233553000Y-57943750D01*
X242697000Y-57943750D02*
X244475000Y-57943750D01*
X244475000Y-57943750D02*
X244475000Y-59721750D01*
X244475000Y-68865750D02*
X244475000Y-70643750D01*
X244475000Y-70643750D02*
X242697000Y-70643750D01*
X233553000Y-70643750D02*
X231775000Y-70643750D01*
X231775000Y-70643750D02*
X231775000Y-68865750D01*
X231775000Y-59721750D02*
X231775000Y-57943750D01*
X255587500Y-57943750D02*
X257365500Y-57943750D01*
X266509500Y-57943750D02*
X268287500Y-57943750D01*
X268287500Y-57943750D02*
X268287500Y-59721750D01*
X268287500Y-68865750D02*
X268287500Y-70643750D01*
X268287500Y-70643750D02*
X266509500Y-70643750D01*
X257365500Y-70643750D02*
X255587500Y-70643750D01*
X255587500Y-70643750D02*
X255587500Y-68865750D01*
X255587500Y-59721750D02*
X255587500Y-57943750D01*
X24606250Y-76993750D02*
X26384250Y-76993750D01*
X35528250Y-76993750D02*
X37306250Y-76993750D01*
X37306250Y-76993750D02*
X37306250Y-78771750D01*
X37306250Y-87915750D02*
X37306250Y-89693750D01*
X37306250Y-89693750D02*
X35528250Y-89693750D01*
X26384250Y-89693750D02*
X24606250Y-89693750D01*
X24606250Y-89693750D02*
X24606250Y-87915750D01*
X24606250Y-78771750D02*
X24606250Y-76993750D01*
X46037500Y-76993750D02*
X47815500Y-76993750D01*
X56959500Y-76993750D02*
X58737500Y-76993750D01*
X58737500Y-76993750D02*
X58737500Y-78771750D01*
X58737500Y-87915750D02*
X58737500Y-89693750D01*
X58737500Y-89693750D02*
X56959500Y-89693750D01*
X47815500Y-89693750D02*
X46037500Y-89693750D01*
X46037500Y-89693750D02*
X46037500Y-87915750D01*
X46037500Y-78771750D02*
X46037500Y-76993750D01*
X65087500Y-76993750D02*
X66865500Y-76993750D01*
X76009500Y-76993750D02*
X77787500Y-76993750D01*
X77787500Y-76993750D02*
X77787500Y-78771750D01*
X77787500Y-87915750D02*
X77787500Y-89693750D01*
X77787500Y-89693750D02*
X76009500Y-89693750D01*
X66865500Y-89693750D02*
X65087500Y-89693750D01*
X65087500Y-89693750D02*
X65087500Y-87915750D01*
X65087500Y-78771750D02*
X65087500Y-76993750D01*
X84137500Y-76993750D02*
X85915500Y-76993750D01*
X95059500Y-76993750D02*
X96837500Y-76993750D01*
X96837500Y-76993750D02*
X96837500Y-78771750D01*
X96837500Y-87915750D02*
X96837500Y-89693750D01*
X96837500Y-89693750D02*
X95059500Y-89693750D01*
X85915500Y-89693750D02*
X84137500Y-89693750D01*
X84137500Y-89693750D02*
X84137500Y-87915750D01*
X84137500Y-78771750D02*
X84137500Y-76993750D01*
X103187500Y-76993750D02*
X104965500Y-76993750D01*
X114109500Y-76993750D02*
X115887500Y-76993750D01*
X115887500Y-76993750D02*
X115887500Y-78771750D01*
X115887500Y-87915750D02*
X115887500Y-89693750D01*
X115887500Y-89693750D02*
X114109500Y-89693750D01*
X104965500Y-89693750D02*
X103187500Y-89693750D01*
X103187500Y-89693750D02*
X103187500Y-87915750D01*
X103187500Y-78771750D02*
X103187500Y-76993750D01*
X122237500Y-76993750D02*
X124015500Y-76993750D01*
X133159500Y-76993750D02*
X134937500Y-76993750D01*
X134937500Y-76993750D02*
X134937500Y-78771750D01*
X134937500Y-87915750D02*
X134937500Y-89693750D01*
X134937500Y-89693750D02*
X133159500Y-89693750D01*
X124015500Y-89693750D02*
X122237500Y-89693750D01*
X122237500Y-89693750D02*
X122237500Y-87915750D01*
X122237500Y-78771750D02*
X122237500Y-76993750D01*
X141287500Y-76993750D02*
X143065500Y-76993750D01*
X152209500Y-76993750D02*
X153987500Y-76993750D01*
X153987500Y-76993750D02*
X153987500Y-78771750D01*
X153987500Y-87915750D02*
X153987500Y-89693750D01*
X153987500Y-89693750D02*
X152209500Y-89693750D01*
X143065500Y-89693750D02*
X141287500Y-89693750D01*
X141287500Y-89693750D02*
X141287500Y-87915750D01*
X141287500Y-78771750D02*
X141287500Y-76993750D01*
X160337500Y-76993750D02*
X162115500Y-76993750D01*
X171259500Y-76993750D02*
X173037500Y-76993750D01*
X173037500Y-76993750D02*
X173037500Y-78771750D01*
X173037500Y-87915750D02*
X173037500Y-89693750D01*
X173037500Y-89693750D02*
X171259500Y-89693750D01*
X162115500Y-89693750D02*
X160337500Y-89693750D01*
X160337500Y-89693750D02*
X160337500Y-87915750D01*
X160337500Y-78771750D02*
X160337500Y-76993750D01*
X179387500Y-76993750D02*
X181165500Y-76993750D01*
X190309500Y-76993750D02*
X192087500Y-76993750D01*
X192087500Y-76993750D02*
X192087500Y-78771750D01*
X192087500Y-87915750D02*
X192087500Y-89693750D01*
X192087500Y-89693750D02*
X190309500Y-89693750D01*
X181165500Y-89693750D02*
X179387500Y-89693750D01*
X179387500Y-89693750D02*
X179387500Y-87915750D01*
X179387500Y-78771750D02*
X179387500Y-76993750D01*
X198437500Y-76993750D02*
X200215500Y-76993750D01*
X209359500Y-76993750D02*
X211137500Y-76993750D01*
X211137500Y-76993750D02*
X211137500Y-78771750D01*
X211137500Y-87915750D02*
X211137500Y-89693750D01*
X211137500Y-89693750D02*
X209359500Y-89693750D01*
X200215500Y-89693750D02*
X198437500Y-89693750D01*
X198437500Y-89693750D02*
X198437500Y-87915750D01*
X198437500Y-78771750D02*
X198437500Y-76993750D01*
X217487500Y-76993750D02*
X219265500Y-76993750D01*
X228409500Y-76993750D02*
X230187500Y-76993750D01*
X230187500Y-76993750D02*
X230187500Y-78771750D01*
X230187500Y-87915750D02*
X230187500Y-89693750D01*
X230187500Y-89693750D02*
X228409500Y-89693750D01*
X219265500Y-89693750D02*
X217487500Y-89693750D01*
X217487500Y-89693750D02*
X217487500Y-87915750D01*
X217487500Y-78771750D02*
X217487500Y-76993750D01*
X248443750Y-76993750D02*
X250221750Y-76993750D01*
X259365750Y-76993750D02*
X261143750Y-76993750D01*
X261143750Y-76993750D02*
X261143750Y-78771750D01*
X261143750Y-87915750D02*
X261143750Y-89693750D01*
X261143750Y-89693750D02*
X259365750Y-89693750D01*
X250221750Y-89693750D02*
X248443750Y-89693750D01*
X248443750Y-89693750D02*
X248443750Y-87915750D01*
X248443750Y-78771750D02*
X248443750Y-76993750D01*
X29368750Y-96043750D02*
X31146750Y-96043750D01*
X40290750Y-96043750D02*
X42068750Y-96043750D01*
X42068750Y-96043750D02*
X42068750Y-97821750D01*
X42068750Y-106965750D02*
X42068750Y-108743750D01*
X42068750Y-108743750D02*
X40290750Y-108743750D01*
X31146750Y-108743750D02*
X29368750Y-108743750D01*
X29368750Y-108743750D02*
X29368750Y-106965750D01*
X29368750Y-97821750D02*
X29368750Y-96043750D01*
X55562500Y-96043750D02*
X57340500Y-96043750D01*
X66484500Y-96043750D02*
X68262500Y-96043750D01*
X68262500Y-96043750D02*
X68262500Y-97821750D01*
X68262500Y-106965750D02*
X68262500Y-108743750D01*
X68262500Y-108743750D02*
X66484500Y-108743750D01*
X57340500Y-108743750D02*
X55562500Y-108743750D01*
X55562500Y-108743750D02*
X55562500Y-106965750D01*
X55562500Y-97821750D02*
X55562500Y-96043750D01*
X74612500Y-96043750D02*
X76390500Y-96043750D01*
X85534500Y-96043750D02*
X87312500Y-96043750D01*
X87312500Y-96043750D02*
X87312500Y-97821750D01*
X87312500Y-106965750D02*
X87312500Y-108743750D01*
X87312500Y-108743750D02*
X85534500Y-108743750D01*
X76390500Y-108743750D02*
X74612500Y-108743750D01*
X74612500Y-108743750D02*
X74612500Y-106965750D01*
X74612500Y-97821750D02*
X74612500Y-96043750D01*
X93662500Y-96043750D02*
X95440500Y-96043750D01*
X104584500Y-96043750D02*
X106362500Y-96043750D01*
X106362500Y-96043750D02*
X106362500Y-97821750D01*
X106362500Y-106965750D02*
X106362500Y-108743750D01*
X106362500Y-108743750D02*
X104584500Y-108743750D01*
X95440500Y-108743750D02*
X93662500Y-108743750D01*
X93662500Y-108743750D02*
X93662500Y-106965750D01*
X93662500Y-97821750D02*
X93662500Y-96043750D01*
X112712500Y-96043750D02*
X114490500Y-96043750D01*
X123634500Y-96043750D02*
X125412500Y-96043750D01*
X125412500Y-96043750D02*
X125412500Y-97821750D01*
X125412500Y-106965750D02*
X125412500Y-108743750D01*
X125412500Y-108743750D02*
X123634500Y-108743750D01*
X114490500Y-108743750D02*
X112712500Y-108743750D01*
X112712500Y-108743750D02*
X112712500Y-106965750D01*
X112712500Y-97821750D02*
X112712500Y-96043750D01*
X131762500Y-96043750D02*
X133540500Y-96043750D01*
X142684500Y-96043750D02*
X144462500Y-96043750D01*
X144462500Y-96043750D02*
X144462500Y-97821750D01*
X144462500Y-106965750D02*
X144462500Y-108743750D01*
X144462500Y-108743750D02*
X142684500Y-108743750D01*
X133540500Y-108743750D02*
X131762500Y-108743750D01*
X131762500Y-108743750D02*
X131762500Y-106965750D01*
X131762500Y-97821750D02*
X131762500Y-96043750D01*
X150812500Y-96043750D02*
X152590500Y-96043750D01*
X161734500Y-96043750D02*
X163512500Y-96043750D01*
X163512500Y-96043750D02*
X163512500Y-97821750D01*
X163512500Y-106965750D02*
X163512500Y-108743750D01*
X163512500Y-108743750D02*
X161734500Y-108743750D01*
X152590500Y-108743750D02*
X150812500Y-108743750D01*
X150812500Y-108743750D02*
X150812500Y-106965750D01*
X150812500Y-97821750D02*
X150812500Y-96043750D01*
X169862500Y-96043750D02*
X171640500Y-96043750D01*
X180784500Y-96043750D02*
X182562500Y-96043750D01*
X182562500Y-96043750D02*
X182562500Y-97821750D01*
X182562500Y-106965750D02*
X182562500Y-108743750D01*
X182562500Y-108743750D02*
X180784500Y-108743750D01*
X171640500Y-108743750D02*
X169862500Y-108743750D01*
X169862500Y-108743750D02*
X169862500Y-106965750D01*
X169862500Y-97821750D02*
X169862500Y-96043750D01*
X188912500Y-96043750D02*
X190690500Y-96043750D01*
X199834500Y-96043750D02*
X201612500Y-96043750D01*
X201612500Y-96043750D02*
X201612500Y-97821750D01*
X201612500Y-106965750D02*
X201612500Y-108743750D01*
X201612500Y-108743750D02*
X199834500Y-108743750D01*
X190690500Y-108743750D02*
X188912500Y-108743750D01*
X188912500Y-108743750D02*
X188912500Y-106965750D01*
X188912500Y-97821750D02*
X188912500Y-96043750D01*
X207962500Y-96043750D02*
X209740500Y-96043750D01*
X218884500Y-96043750D02*
X220662500Y-96043750D01*
X220662500Y-96043750D02*
X220662500Y-97821750D01*
X220662500Y-106965750D02*
X220662500Y-108743750D01*
X220662500Y-108743750D02*
X218884500Y-108743750D01*
X209740500Y-108743750D02*
X207962500Y-108743750D01*
X207962500Y-108743750D02*
X207962500Y-106965750D01*
X207962500Y-97821750D02*
X207962500Y-96043750D01*
X227012500Y-96043750D02*
X228790500Y-96043750D01*
X237934500Y-96043750D02*
X239712500Y-96043750D01*
X239712500Y-96043750D02*
X239712500Y-97821750D01*
X239712500Y-106965750D02*
X239712500Y-108743750D01*
X239712500Y-108743750D02*
X237934500Y-108743750D01*
X228790500Y-108743750D02*
X227012500Y-108743750D01*
X227012500Y-108743750D02*
X227012500Y-106965750D01*
X227012500Y-97821750D02*
X227012500Y-96043750D01*
X253206250Y-96043750D02*
X254984250Y-96043750D01*
X264128250Y-96043750D02*
X265906250Y-96043750D01*
X265906250Y-96043750D02*
X265906250Y-97821750D01*
X265906250Y-106965750D02*
X265906250Y-108743750D01*
X265906250Y-108743750D02*
X264128250Y-108743750D01*
X254984250Y-108743750D02*
X253206250Y-108743750D01*
X253206250Y-108743750D02*
X253206250Y-106965750D01*
X253206250Y-97821750D02*
X253206250Y-96043750D01*
D15*
X265271250Y-120491250D02*
X274161250Y-120491250D01*
X274161250Y-120491250D02*
X274161250Y-112871250D01*
X274161250Y-112871250D02*
X264001250Y-112871250D01*
X264001250Y-112871250D02*
X264001250Y-120491250D01*
X264001250Y-120491250D02*
X265271250Y-120491250D01*
X271089296Y-116681250D02*
G75*
G03X271089296Y-116681250I-2008046J0D01*
G01*
D14*
X22225000Y-115093750D02*
X24003000Y-115093750D01*
X33147000Y-115093750D02*
X34925000Y-115093750D01*
X34925000Y-115093750D02*
X34925000Y-116871750D01*
X34925000Y-126015750D02*
X34925000Y-127793750D01*
X34925000Y-127793750D02*
X33147000Y-127793750D01*
X24003000Y-127793750D02*
X22225000Y-127793750D01*
X22225000Y-127793750D02*
X22225000Y-126015750D01*
X22225000Y-116871750D02*
X22225000Y-115093750D01*
X41275000Y-115093750D02*
X43053000Y-115093750D01*
X52197000Y-115093750D02*
X53975000Y-115093750D01*
X53975000Y-115093750D02*
X53975000Y-116871750D01*
X53975000Y-126015750D02*
X53975000Y-127793750D01*
X53975000Y-127793750D02*
X52197000Y-127793750D01*
X43053000Y-127793750D02*
X41275000Y-127793750D01*
X41275000Y-127793750D02*
X41275000Y-126015750D01*
X41275000Y-116871750D02*
X41275000Y-115093750D01*
X60325000Y-115093750D02*
X62103000Y-115093750D01*
X71247000Y-115093750D02*
X73025000Y-115093750D01*
X73025000Y-115093750D02*
X73025000Y-116871750D01*
X73025000Y-126015750D02*
X73025000Y-127793750D01*
X73025000Y-127793750D02*
X71247000Y-127793750D01*
X62103000Y-127793750D02*
X60325000Y-127793750D01*
X60325000Y-127793750D02*
X60325000Y-126015750D01*
X60325000Y-116871750D02*
X60325000Y-115093750D01*
X81756250Y-115093750D02*
X83534250Y-115093750D01*
X92678250Y-115093750D02*
X94456250Y-115093750D01*
X94456250Y-115093750D02*
X94456250Y-116871750D01*
X94456250Y-126015750D02*
X94456250Y-127793750D01*
X94456250Y-127793750D02*
X92678250Y-127793750D01*
X83534250Y-127793750D02*
X81756250Y-127793750D01*
X81756250Y-127793750D02*
X81756250Y-126015750D01*
X81756250Y-116871750D02*
X81756250Y-115093750D01*
X134143750Y-115093750D02*
X135921750Y-115093750D01*
X145065750Y-115093750D02*
X146843750Y-115093750D01*
X146843750Y-115093750D02*
X146843750Y-116871750D01*
X146843750Y-126015750D02*
X146843750Y-127793750D01*
X146843750Y-127793750D02*
X145065750Y-127793750D01*
X135921750Y-127793750D02*
X134143750Y-127793750D01*
X134143750Y-127793750D02*
X134143750Y-126015750D01*
X134143750Y-116871750D02*
X134143750Y-115093750D01*
X186531250Y-115093750D02*
X188309250Y-115093750D01*
X197453250Y-115093750D02*
X199231250Y-115093750D01*
X199231250Y-115093750D02*
X199231250Y-116871750D01*
X199231250Y-126015750D02*
X199231250Y-127793750D01*
X199231250Y-127793750D02*
X197453250Y-127793750D01*
X188309250Y-127793750D02*
X186531250Y-127793750D01*
X186531250Y-127793750D02*
X186531250Y-126015750D01*
X186531250Y-116871750D02*
X186531250Y-115093750D01*
X207962500Y-115093750D02*
X209740500Y-115093750D01*
X218884500Y-115093750D02*
X220662500Y-115093750D01*
X220662500Y-115093750D02*
X220662500Y-116871750D01*
X220662500Y-126015750D02*
X220662500Y-127793750D01*
X220662500Y-127793750D02*
X218884500Y-127793750D01*
X209740500Y-127793750D02*
X207962500Y-127793750D01*
X207962500Y-127793750D02*
X207962500Y-126015750D01*
X207962500Y-116871750D02*
X207962500Y-115093750D01*
X227012500Y-115093750D02*
X228790500Y-115093750D01*
X237934500Y-115093750D02*
X239712500Y-115093750D01*
X239712500Y-115093750D02*
X239712500Y-116871750D01*
X239712500Y-126015750D02*
X239712500Y-127793750D01*
X239712500Y-127793750D02*
X237934500Y-127793750D01*
X228790500Y-127793750D02*
X227012500Y-127793750D01*
X227012500Y-127793750D02*
X227012500Y-126015750D01*
X227012500Y-116871750D02*
X227012500Y-115093750D01*
X246062500Y-115093750D02*
X247840500Y-115093750D01*
X256984500Y-115093750D02*
X258762500Y-115093750D01*
X258762500Y-115093750D02*
X258762500Y-116871750D01*
X258762500Y-126015750D02*
X258762500Y-127793750D01*
X258762500Y-127793750D02*
X256984500Y-127793750D01*
X247840500Y-127793750D02*
X246062500Y-127793750D01*
X246062500Y-127793750D02*
X246062500Y-126015750D01*
X246062500Y-116871750D02*
X246062500Y-115093750D01*
D15*
X272891250Y-122396250D02*
X264001250Y-122396250D01*
X264001250Y-122396250D02*
X264001250Y-130016250D01*
X264001250Y-130016250D02*
X274161250Y-130016250D01*
X274161250Y-130016250D02*
X274161250Y-122396250D01*
X274161250Y-122396250D02*
X272891250Y-122396250D01*
X271089296Y-126206250D02*
G75*
G03X271089296Y-126206250I-2008046J0D01*
G01*
X72000000Y-51450000D02*
X73550000Y-51450000D01*
X73550000Y-51450000D02*
X73550000Y-54550000D01*
X73550000Y-54550000D02*
X72000000Y-54550000D01*
X70730000Y-54270000D02*
X60570000Y-54270000D01*
X60570000Y-54270000D02*
X60570000Y-51730000D01*
X60570000Y-51730000D02*
X70730000Y-51730000D01*
X70730000Y-54270000D02*
X70730000Y-51730000D01*
X86730000Y-51730000D02*
X81650000Y-51730000D01*
X81650000Y-51730000D02*
X81650000Y-54270000D01*
X81650000Y-54270000D02*
X86730000Y-54270000D01*
X89550000Y-54550000D02*
X88000000Y-54550000D01*
X86730000Y-54270000D02*
X86730000Y-51730000D01*
X88000000Y-51450000D02*
X89550000Y-51450000D01*
X89550000Y-51450000D02*
X89550000Y-54550000D01*
X207000000Y-50450000D02*
X208550000Y-50450000D01*
X208550000Y-50450000D02*
X208550000Y-53550000D01*
X208550000Y-53550000D02*
X207000000Y-53550000D01*
X205730000Y-53270000D02*
X195570000Y-53270000D01*
X195570000Y-53270000D02*
X195570000Y-50730000D01*
X195570000Y-50730000D02*
X205730000Y-50730000D01*
X205730000Y-53270000D02*
X205730000Y-50730000D01*
X214550000Y-50450000D02*
X214550000Y-52000000D01*
X211450000Y-52000000D02*
X211450000Y-50450000D01*
X211450000Y-50450000D02*
X214550000Y-50450000D01*
X211730000Y-53270000D02*
X214270000Y-53270000D01*
X224550000Y-50450000D02*
X224550000Y-52000000D01*
X221450000Y-52000000D02*
X221450000Y-50450000D01*
X221450000Y-50450000D02*
X224550000Y-50450000D01*
X221730000Y-53270000D02*
X224270000Y-53270000D01*
X221550000Y-50450000D02*
X221550000Y-52000000D01*
X218450000Y-52000000D02*
X218450000Y-50450000D01*
X218450000Y-50450000D02*
X221550000Y-50450000D01*
X218730000Y-53270000D02*
X221270000Y-53270000D01*
X218550000Y-50450000D02*
X218550000Y-52000000D01*
X215450000Y-52000000D02*
X215450000Y-50450000D01*
X215450000Y-50450000D02*
X218550000Y-50450000D01*
X215730000Y-53270000D02*
X218270000Y-53270000D01*
X22270000Y-104730000D02*
X22270000Y-97110000D01*
X19730000Y-104730000D02*
X19730000Y-97110000D01*
X19450000Y-107550000D02*
X19450000Y-106000000D01*
X22270000Y-97110000D02*
X19730000Y-97110000D01*
X19730000Y-104730000D02*
X22270000Y-104730000D01*
X22550000Y-106000000D02*
X22550000Y-107550000D01*
X22550000Y-107550000D02*
X19450000Y-107550000D01*
D13*
X21074524Y-64624857D02*
X19804524Y-64624857D01*
X19804524Y-64262000D01*
X19865000Y-64044285D01*
X19985952Y-63899143D01*
X20106905Y-63826571D01*
X20348810Y-63754000D01*
X20530238Y-63754000D01*
X20772143Y-63826571D01*
X20893095Y-63899143D01*
X21014048Y-64044285D01*
X21074524Y-64262000D01*
X21074524Y-64624857D01*
X21074524Y-62302571D02*
X21074524Y-63173428D01*
X21074524Y-62738000D02*
X19804524Y-62738000D01*
X19985952Y-62883143D01*
X20106905Y-63028285D01*
X20167381Y-63173428D01*
X21574524Y-83124857D02*
X20304524Y-83124857D01*
X20304524Y-82762000D01*
X20365000Y-82544285D01*
X20485952Y-82399143D01*
X20606905Y-82326571D01*
X20848810Y-82254000D01*
X21030238Y-82254000D01*
X21272143Y-82326571D01*
X21393095Y-82399143D01*
X21514048Y-82544285D01*
X21574524Y-82762000D01*
X21574524Y-83124857D01*
X20425476Y-81673428D02*
X20365000Y-81600857D01*
X20304524Y-81455714D01*
X20304524Y-81092857D01*
X20365000Y-80947714D01*
X20425476Y-80875143D01*
X20546429Y-80802571D01*
X20667381Y-80802571D01*
X20848810Y-80875143D01*
X21574524Y-81746000D01*
X21574524Y-80802571D01*
X45574524Y-106124857D02*
X44304524Y-106124857D01*
X44304524Y-105762000D01*
X44365000Y-105544285D01*
X44485952Y-105399143D01*
X44606905Y-105326571D01*
X44848810Y-105254000D01*
X45030238Y-105254000D01*
X45272143Y-105326571D01*
X45393095Y-105399143D01*
X45514048Y-105544285D01*
X45574524Y-105762000D01*
X45574524Y-106124857D01*
X44304524Y-104746000D02*
X44304524Y-103802571D01*
X44788333Y-104310571D01*
X44788333Y-104092857D01*
X44848810Y-103947714D01*
X44909286Y-103875143D01*
X45030238Y-103802571D01*
X45332619Y-103802571D01*
X45453571Y-103875143D01*
X45514048Y-103947714D01*
X45574524Y-104092857D01*
X45574524Y-104528285D01*
X45514048Y-104673428D01*
X45453571Y-104746000D01*
X20574524Y-119124857D02*
X19304524Y-119124857D01*
X19304524Y-118762000D01*
X19365000Y-118544285D01*
X19485952Y-118399143D01*
X19606905Y-118326571D01*
X19848810Y-118254000D01*
X20030238Y-118254000D01*
X20272143Y-118326571D01*
X20393095Y-118399143D01*
X20514048Y-118544285D01*
X20574524Y-118762000D01*
X20574524Y-119124857D01*
X19727857Y-116947714D02*
X20574524Y-116947714D01*
X19244048Y-117310571D02*
X20151190Y-117673428D01*
X20151190Y-116730000D01*
X39174524Y-62524857D02*
X37904524Y-62524857D01*
X37904524Y-62162000D01*
X37965000Y-61944285D01*
X38085952Y-61799143D01*
X38206905Y-61726571D01*
X38448810Y-61654000D01*
X38630238Y-61654000D01*
X38872143Y-61726571D01*
X38993095Y-61799143D01*
X39114048Y-61944285D01*
X39174524Y-62162000D01*
X39174524Y-62524857D01*
X37904524Y-60275143D02*
X37904524Y-61000857D01*
X38509286Y-61073428D01*
X38448810Y-61000857D01*
X38388333Y-60855714D01*
X38388333Y-60492857D01*
X38448810Y-60347714D01*
X38509286Y-60275143D01*
X38630238Y-60202571D01*
X38932619Y-60202571D01*
X39053571Y-60275143D01*
X39114048Y-60347714D01*
X39174524Y-60492857D01*
X39174524Y-60855714D01*
X39114048Y-61000857D01*
X39053571Y-61073428D01*
X43574524Y-82124857D02*
X42304524Y-82124857D01*
X42304524Y-81762000D01*
X42365000Y-81544285D01*
X42485952Y-81399143D01*
X42606905Y-81326571D01*
X42848810Y-81254000D01*
X43030238Y-81254000D01*
X43272143Y-81326571D01*
X43393095Y-81399143D01*
X43514048Y-81544285D01*
X43574524Y-81762000D01*
X43574524Y-82124857D01*
X42304524Y-79947714D02*
X42304524Y-80238000D01*
X42365000Y-80383143D01*
X42425476Y-80455714D01*
X42606905Y-80600857D01*
X42848810Y-80673428D01*
X43332619Y-80673428D01*
X43453571Y-80600857D01*
X43514048Y-80528285D01*
X43574524Y-80383143D01*
X43574524Y-80092857D01*
X43514048Y-79947714D01*
X43453571Y-79875143D01*
X43332619Y-79802571D01*
X43030238Y-79802571D01*
X42909286Y-79875143D01*
X42848810Y-79947714D01*
X42788333Y-80092857D01*
X42788333Y-80383143D01*
X42848810Y-80528285D01*
X42909286Y-80600857D01*
X43030238Y-80673428D01*
X53574524Y-101124857D02*
X52304524Y-101124857D01*
X52304524Y-100762000D01*
X52365000Y-100544285D01*
X52485952Y-100399143D01*
X52606905Y-100326571D01*
X52848810Y-100254000D01*
X53030238Y-100254000D01*
X53272143Y-100326571D01*
X53393095Y-100399143D01*
X53514048Y-100544285D01*
X53574524Y-100762000D01*
X53574524Y-101124857D01*
X52304524Y-99746000D02*
X52304524Y-98730000D01*
X53574524Y-99383143D01*
X38574524Y-120124857D02*
X37304524Y-120124857D01*
X37304524Y-119762000D01*
X37365000Y-119544285D01*
X37485952Y-119399143D01*
X37606905Y-119326571D01*
X37848810Y-119254000D01*
X38030238Y-119254000D01*
X38272143Y-119326571D01*
X38393095Y-119399143D01*
X38514048Y-119544285D01*
X38574524Y-119762000D01*
X38574524Y-120124857D01*
X37848810Y-118383143D02*
X37788333Y-118528285D01*
X37727857Y-118600857D01*
X37606905Y-118673428D01*
X37546429Y-118673428D01*
X37425476Y-118600857D01*
X37365000Y-118528285D01*
X37304524Y-118383143D01*
X37304524Y-118092857D01*
X37365000Y-117947714D01*
X37425476Y-117875143D01*
X37546429Y-117802571D01*
X37606905Y-117802571D01*
X37727857Y-117875143D01*
X37788333Y-117947714D01*
X37848810Y-118092857D01*
X37848810Y-118383143D01*
X37909286Y-118528285D01*
X37969762Y-118600857D01*
X38090714Y-118673428D01*
X38332619Y-118673428D01*
X38453571Y-118600857D01*
X38514048Y-118528285D01*
X38574524Y-118383143D01*
X38574524Y-118092857D01*
X38514048Y-117947714D01*
X38453571Y-117875143D01*
X38332619Y-117802571D01*
X38090714Y-117802571D01*
X37969762Y-117875143D01*
X37909286Y-117947714D01*
X37848810Y-118092857D01*
X58274524Y-62524857D02*
X57004524Y-62524857D01*
X57004524Y-62162000D01*
X57065000Y-61944285D01*
X57185952Y-61799143D01*
X57306905Y-61726571D01*
X57548810Y-61654000D01*
X57730238Y-61654000D01*
X57972143Y-61726571D01*
X58093095Y-61799143D01*
X58214048Y-61944285D01*
X58274524Y-62162000D01*
X58274524Y-62524857D01*
X58274524Y-60928285D02*
X58274524Y-60638000D01*
X58214048Y-60492857D01*
X58153571Y-60420285D01*
X57972143Y-60275143D01*
X57730238Y-60202571D01*
X57246429Y-60202571D01*
X57125476Y-60275143D01*
X57065000Y-60347714D01*
X57004524Y-60492857D01*
X57004524Y-60783143D01*
X57065000Y-60928285D01*
X57125476Y-61000857D01*
X57246429Y-61073428D01*
X57548810Y-61073428D01*
X57669762Y-61000857D01*
X57730238Y-60928285D01*
X57790714Y-60783143D01*
X57790714Y-60492857D01*
X57730238Y-60347714D01*
X57669762Y-60275143D01*
X57548810Y-60202571D01*
X62574524Y-82850572D02*
X61304524Y-82850572D01*
X61304524Y-82487715D01*
X61365000Y-82270000D01*
X61485952Y-82124858D01*
X61606905Y-82052286D01*
X61848810Y-81979715D01*
X62030238Y-81979715D01*
X62272143Y-82052286D01*
X62393095Y-82124858D01*
X62514048Y-82270000D01*
X62574524Y-82487715D01*
X62574524Y-82850572D01*
X62574524Y-80528286D02*
X62574524Y-81399143D01*
X62574524Y-80963715D02*
X61304524Y-80963715D01*
X61485952Y-81108858D01*
X61606905Y-81254000D01*
X61667381Y-81399143D01*
X61304524Y-79584857D02*
X61304524Y-79439714D01*
X61365000Y-79294571D01*
X61425476Y-79222000D01*
X61546429Y-79149429D01*
X61788333Y-79076857D01*
X62090714Y-79076857D01*
X62332619Y-79149429D01*
X62453571Y-79222000D01*
X62514048Y-79294571D01*
X62574524Y-79439714D01*
X62574524Y-79584857D01*
X62514048Y-79730000D01*
X62453571Y-79802571D01*
X62332619Y-79875143D01*
X62090714Y-79947714D01*
X61788333Y-79947714D01*
X61546429Y-79875143D01*
X61425476Y-79802571D01*
X61365000Y-79730000D01*
X61304524Y-79584857D01*
X72574524Y-101850572D02*
X71304524Y-101850572D01*
X71304524Y-101487715D01*
X71365000Y-101270000D01*
X71485952Y-101124858D01*
X71606905Y-101052286D01*
X71848810Y-100979715D01*
X72030238Y-100979715D01*
X72272143Y-101052286D01*
X72393095Y-101124858D01*
X72514048Y-101270000D01*
X72574524Y-101487715D01*
X72574524Y-101850572D01*
X72574524Y-99528286D02*
X72574524Y-100399143D01*
X72574524Y-99963715D02*
X71304524Y-99963715D01*
X71485952Y-100108858D01*
X71606905Y-100254000D01*
X71667381Y-100399143D01*
X72574524Y-98076857D02*
X72574524Y-98947714D01*
X72574524Y-98512286D02*
X71304524Y-98512286D01*
X71485952Y-98657429D01*
X71606905Y-98802571D01*
X71667381Y-98947714D01*
X58574524Y-120850572D02*
X57304524Y-120850572D01*
X57304524Y-120487715D01*
X57365000Y-120270000D01*
X57485952Y-120124858D01*
X57606905Y-120052286D01*
X57848810Y-119979715D01*
X58030238Y-119979715D01*
X58272143Y-120052286D01*
X58393095Y-120124858D01*
X58514048Y-120270000D01*
X58574524Y-120487715D01*
X58574524Y-120850572D01*
X58574524Y-118528286D02*
X58574524Y-119399143D01*
X58574524Y-118963715D02*
X57304524Y-118963715D01*
X57485952Y-119108858D01*
X57606905Y-119254000D01*
X57667381Y-119399143D01*
X57425476Y-117947714D02*
X57365000Y-117875143D01*
X57304524Y-117730000D01*
X57304524Y-117367143D01*
X57365000Y-117222000D01*
X57425476Y-117149429D01*
X57546429Y-117076857D01*
X57667381Y-117076857D01*
X57848810Y-117149429D01*
X58574524Y-118020286D01*
X58574524Y-117076857D01*
X77174524Y-63250572D02*
X75904524Y-63250572D01*
X75904524Y-62887715D01*
X75965000Y-62670000D01*
X76085952Y-62524858D01*
X76206905Y-62452286D01*
X76448810Y-62379715D01*
X76630238Y-62379715D01*
X76872143Y-62452286D01*
X76993095Y-62524858D01*
X77114048Y-62670000D01*
X77174524Y-62887715D01*
X77174524Y-63250572D01*
X77174524Y-60928286D02*
X77174524Y-61799143D01*
X77174524Y-61363715D02*
X75904524Y-61363715D01*
X76085952Y-61508858D01*
X76206905Y-61654000D01*
X76267381Y-61799143D01*
X75904524Y-60420286D02*
X75904524Y-59476857D01*
X76388333Y-59984857D01*
X76388333Y-59767143D01*
X76448810Y-59622000D01*
X76509286Y-59549429D01*
X76630238Y-59476857D01*
X76932619Y-59476857D01*
X77053571Y-59549429D01*
X77114048Y-59622000D01*
X77174524Y-59767143D01*
X77174524Y-60202571D01*
X77114048Y-60347714D01*
X77053571Y-60420286D01*
X81974524Y-82350572D02*
X80704524Y-82350572D01*
X80704524Y-81987715D01*
X80765000Y-81770000D01*
X80885952Y-81624858D01*
X81006905Y-81552286D01*
X81248810Y-81479715D01*
X81430238Y-81479715D01*
X81672143Y-81552286D01*
X81793095Y-81624858D01*
X81914048Y-81770000D01*
X81974524Y-81987715D01*
X81974524Y-82350572D01*
X81974524Y-80028286D02*
X81974524Y-80899143D01*
X81974524Y-80463715D02*
X80704524Y-80463715D01*
X80885952Y-80608858D01*
X81006905Y-80754000D01*
X81067381Y-80899143D01*
X81127857Y-78722000D02*
X81974524Y-78722000D01*
X80644048Y-79084857D02*
X81551190Y-79447714D01*
X81551190Y-78504286D01*
X91574524Y-101850572D02*
X90304524Y-101850572D01*
X90304524Y-101487715D01*
X90365000Y-101270000D01*
X90485952Y-101124858D01*
X90606905Y-101052286D01*
X90848810Y-100979715D01*
X91030238Y-100979715D01*
X91272143Y-101052286D01*
X91393095Y-101124858D01*
X91514048Y-101270000D01*
X91574524Y-101487715D01*
X91574524Y-101850572D01*
X91574524Y-99528286D02*
X91574524Y-100399143D01*
X91574524Y-99963715D02*
X90304524Y-99963715D01*
X90485952Y-100108858D01*
X90606905Y-100254000D01*
X90667381Y-100399143D01*
X90304524Y-98149429D02*
X90304524Y-98875143D01*
X90909286Y-98947714D01*
X90848810Y-98875143D01*
X90788333Y-98730000D01*
X90788333Y-98367143D01*
X90848810Y-98222000D01*
X90909286Y-98149429D01*
X91030238Y-98076857D01*
X91332619Y-98076857D01*
X91453571Y-98149429D01*
X91514048Y-98222000D01*
X91574524Y-98367143D01*
X91574524Y-98730000D01*
X91514048Y-98875143D01*
X91453571Y-98947714D01*
X78574524Y-120850572D02*
X77304524Y-120850572D01*
X77304524Y-120487715D01*
X77365000Y-120270000D01*
X77485952Y-120124858D01*
X77606905Y-120052286D01*
X77848810Y-119979715D01*
X78030238Y-119979715D01*
X78272143Y-120052286D01*
X78393095Y-120124858D01*
X78514048Y-120270000D01*
X78574524Y-120487715D01*
X78574524Y-120850572D01*
X78574524Y-118528286D02*
X78574524Y-119399143D01*
X78574524Y-118963715D02*
X77304524Y-118963715D01*
X77485952Y-119108858D01*
X77606905Y-119254000D01*
X77667381Y-119399143D01*
X77304524Y-117222000D02*
X77304524Y-117512286D01*
X77365000Y-117657429D01*
X77425476Y-117730000D01*
X77606905Y-117875143D01*
X77848810Y-117947714D01*
X78332619Y-117947714D01*
X78453571Y-117875143D01*
X78514048Y-117802571D01*
X78574524Y-117657429D01*
X78574524Y-117367143D01*
X78514048Y-117222000D01*
X78453571Y-117149429D01*
X78332619Y-117076857D01*
X78030238Y-117076857D01*
X77909286Y-117149429D01*
X77848810Y-117222000D01*
X77788333Y-117367143D01*
X77788333Y-117657429D01*
X77848810Y-117802571D01*
X77909286Y-117875143D01*
X78030238Y-117947714D01*
X96274524Y-63250572D02*
X95004524Y-63250572D01*
X95004524Y-62887715D01*
X95065000Y-62670000D01*
X95185952Y-62524858D01*
X95306905Y-62452286D01*
X95548810Y-62379715D01*
X95730238Y-62379715D01*
X95972143Y-62452286D01*
X96093095Y-62524858D01*
X96214048Y-62670000D01*
X96274524Y-62887715D01*
X96274524Y-63250572D01*
X96274524Y-60928286D02*
X96274524Y-61799143D01*
X96274524Y-61363715D02*
X95004524Y-61363715D01*
X95185952Y-61508858D01*
X95306905Y-61654000D01*
X95367381Y-61799143D01*
X95004524Y-60420286D02*
X95004524Y-59404286D01*
X96274524Y-60057429D01*
X100974524Y-82350572D02*
X99704524Y-82350572D01*
X99704524Y-81987715D01*
X99765000Y-81770000D01*
X99885952Y-81624858D01*
X100006905Y-81552286D01*
X100248810Y-81479715D01*
X100430238Y-81479715D01*
X100672143Y-81552286D01*
X100793095Y-81624858D01*
X100914048Y-81770000D01*
X100974524Y-81987715D01*
X100974524Y-82350572D01*
X100974524Y-80028286D02*
X100974524Y-80899143D01*
X100974524Y-80463715D02*
X99704524Y-80463715D01*
X99885952Y-80608858D01*
X100006905Y-80754000D01*
X100067381Y-80899143D01*
X100248810Y-79157429D02*
X100188333Y-79302571D01*
X100127857Y-79375143D01*
X100006905Y-79447714D01*
X99946429Y-79447714D01*
X99825476Y-79375143D01*
X99765000Y-79302571D01*
X99704524Y-79157429D01*
X99704524Y-78867143D01*
X99765000Y-78722000D01*
X99825476Y-78649429D01*
X99946429Y-78576857D01*
X100006905Y-78576857D01*
X100127857Y-78649429D01*
X100188333Y-78722000D01*
X100248810Y-78867143D01*
X100248810Y-79157429D01*
X100309286Y-79302571D01*
X100369762Y-79375143D01*
X100490714Y-79447714D01*
X100732619Y-79447714D01*
X100853571Y-79375143D01*
X100914048Y-79302571D01*
X100974524Y-79157429D01*
X100974524Y-78867143D01*
X100914048Y-78722000D01*
X100853571Y-78649429D01*
X100732619Y-78576857D01*
X100490714Y-78576857D01*
X100369762Y-78649429D01*
X100309286Y-78722000D01*
X100248810Y-78867143D01*
X110574524Y-101850572D02*
X109304524Y-101850572D01*
X109304524Y-101487715D01*
X109365000Y-101270000D01*
X109485952Y-101124858D01*
X109606905Y-101052286D01*
X109848810Y-100979715D01*
X110030238Y-100979715D01*
X110272143Y-101052286D01*
X110393095Y-101124858D01*
X110514048Y-101270000D01*
X110574524Y-101487715D01*
X110574524Y-101850572D01*
X110574524Y-99528286D02*
X110574524Y-100399143D01*
X110574524Y-99963715D02*
X109304524Y-99963715D01*
X109485952Y-100108858D01*
X109606905Y-100254000D01*
X109667381Y-100399143D01*
X110574524Y-98802571D02*
X110574524Y-98512286D01*
X110514048Y-98367143D01*
X110453571Y-98294571D01*
X110272143Y-98149429D01*
X110030238Y-98076857D01*
X109546429Y-98076857D01*
X109425476Y-98149429D01*
X109365000Y-98222000D01*
X109304524Y-98367143D01*
X109304524Y-98657429D01*
X109365000Y-98802571D01*
X109425476Y-98875143D01*
X109546429Y-98947714D01*
X109848810Y-98947714D01*
X109969762Y-98875143D01*
X110030238Y-98802571D01*
X110090714Y-98657429D01*
X110090714Y-98367143D01*
X110030238Y-98222000D01*
X109969762Y-98149429D01*
X109848810Y-98076857D01*
X115174524Y-63250572D02*
X113904524Y-63250572D01*
X113904524Y-62887715D01*
X113965000Y-62670000D01*
X114085952Y-62524858D01*
X114206905Y-62452286D01*
X114448810Y-62379715D01*
X114630238Y-62379715D01*
X114872143Y-62452286D01*
X114993095Y-62524858D01*
X115114048Y-62670000D01*
X115174524Y-62887715D01*
X115174524Y-63250572D01*
X114025476Y-61799143D02*
X113965000Y-61726572D01*
X113904524Y-61581429D01*
X113904524Y-61218572D01*
X113965000Y-61073429D01*
X114025476Y-61000858D01*
X114146429Y-60928286D01*
X114267381Y-60928286D01*
X114448810Y-61000858D01*
X115174524Y-61871715D01*
X115174524Y-60928286D01*
X113904524Y-59984857D02*
X113904524Y-59839714D01*
X113965000Y-59694571D01*
X114025476Y-59622000D01*
X114146429Y-59549429D01*
X114388333Y-59476857D01*
X114690714Y-59476857D01*
X114932619Y-59549429D01*
X115053571Y-59622000D01*
X115114048Y-59694571D01*
X115174524Y-59839714D01*
X115174524Y-59984857D01*
X115114048Y-60130000D01*
X115053571Y-60202571D01*
X114932619Y-60275143D01*
X114690714Y-60347714D01*
X114388333Y-60347714D01*
X114146429Y-60275143D01*
X114025476Y-60202571D01*
X113965000Y-60130000D01*
X113904524Y-59984857D01*
X119974524Y-82350572D02*
X118704524Y-82350572D01*
X118704524Y-81987715D01*
X118765000Y-81770000D01*
X118885952Y-81624858D01*
X119006905Y-81552286D01*
X119248810Y-81479715D01*
X119430238Y-81479715D01*
X119672143Y-81552286D01*
X119793095Y-81624858D01*
X119914048Y-81770000D01*
X119974524Y-81987715D01*
X119974524Y-82350572D01*
X118825476Y-80899143D02*
X118765000Y-80826572D01*
X118704524Y-80681429D01*
X118704524Y-80318572D01*
X118765000Y-80173429D01*
X118825476Y-80100858D01*
X118946429Y-80028286D01*
X119067381Y-80028286D01*
X119248810Y-80100858D01*
X119974524Y-80971715D01*
X119974524Y-80028286D01*
X119974524Y-78576857D02*
X119974524Y-79447714D01*
X119974524Y-79012286D02*
X118704524Y-79012286D01*
X118885952Y-79157429D01*
X119006905Y-79302571D01*
X119067381Y-79447714D01*
X129574524Y-101850572D02*
X128304524Y-101850572D01*
X128304524Y-101487715D01*
X128365000Y-101270000D01*
X128485952Y-101124858D01*
X128606905Y-101052286D01*
X128848810Y-100979715D01*
X129030238Y-100979715D01*
X129272143Y-101052286D01*
X129393095Y-101124858D01*
X129514048Y-101270000D01*
X129574524Y-101487715D01*
X129574524Y-101850572D01*
X128425476Y-100399143D02*
X128365000Y-100326572D01*
X128304524Y-100181429D01*
X128304524Y-99818572D01*
X128365000Y-99673429D01*
X128425476Y-99600858D01*
X128546429Y-99528286D01*
X128667381Y-99528286D01*
X128848810Y-99600858D01*
X129574524Y-100471715D01*
X129574524Y-99528286D01*
X128425476Y-98947714D02*
X128365000Y-98875143D01*
X128304524Y-98730000D01*
X128304524Y-98367143D01*
X128365000Y-98222000D01*
X128425476Y-98149429D01*
X128546429Y-98076857D01*
X128667381Y-98076857D01*
X128848810Y-98149429D01*
X129574524Y-99020286D01*
X129574524Y-98076857D01*
X124355678Y-126780774D02*
X124355678Y-125510774D01*
X124718535Y-125510774D01*
X124936250Y-125571250D01*
X125081392Y-125692202D01*
X125153964Y-125813155D01*
X125226535Y-126055060D01*
X125226535Y-126236488D01*
X125153964Y-126478393D01*
X125081392Y-126599345D01*
X124936250Y-126720298D01*
X124718535Y-126780774D01*
X124355678Y-126780774D01*
X125807107Y-125631726D02*
X125879678Y-125571250D01*
X126024821Y-125510774D01*
X126387678Y-125510774D01*
X126532821Y-125571250D01*
X126605392Y-125631726D01*
X126677964Y-125752679D01*
X126677964Y-125873631D01*
X126605392Y-126055060D01*
X125734535Y-126780774D01*
X126677964Y-126780774D01*
X127185964Y-125510774D02*
X128129393Y-125510774D01*
X127621393Y-125994583D01*
X127839107Y-125994583D01*
X127984250Y-126055060D01*
X128056821Y-126115536D01*
X128129393Y-126236488D01*
X128129393Y-126538869D01*
X128056821Y-126659821D01*
X127984250Y-126720298D01*
X127839107Y-126780774D01*
X127403679Y-126780774D01*
X127258536Y-126720298D01*
X127185964Y-126659821D01*
X134374524Y-63350572D02*
X133104524Y-63350572D01*
X133104524Y-62987715D01*
X133165000Y-62770000D01*
X133285952Y-62624858D01*
X133406905Y-62552286D01*
X133648810Y-62479715D01*
X133830238Y-62479715D01*
X134072143Y-62552286D01*
X134193095Y-62624858D01*
X134314048Y-62770000D01*
X134374524Y-62987715D01*
X134374524Y-63350572D01*
X133225476Y-61899143D02*
X133165000Y-61826572D01*
X133104524Y-61681429D01*
X133104524Y-61318572D01*
X133165000Y-61173429D01*
X133225476Y-61100858D01*
X133346429Y-61028286D01*
X133467381Y-61028286D01*
X133648810Y-61100858D01*
X134374524Y-61971715D01*
X134374524Y-61028286D01*
X133527857Y-59722000D02*
X134374524Y-59722000D01*
X133044048Y-60084857D02*
X133951190Y-60447714D01*
X133951190Y-59504286D01*
X139074524Y-82350572D02*
X137804524Y-82350572D01*
X137804524Y-81987715D01*
X137865000Y-81770000D01*
X137985952Y-81624858D01*
X138106905Y-81552286D01*
X138348810Y-81479715D01*
X138530238Y-81479715D01*
X138772143Y-81552286D01*
X138893095Y-81624858D01*
X139014048Y-81770000D01*
X139074524Y-81987715D01*
X139074524Y-82350572D01*
X137925476Y-80899143D02*
X137865000Y-80826572D01*
X137804524Y-80681429D01*
X137804524Y-80318572D01*
X137865000Y-80173429D01*
X137925476Y-80100858D01*
X138046429Y-80028286D01*
X138167381Y-80028286D01*
X138348810Y-80100858D01*
X139074524Y-80971715D01*
X139074524Y-80028286D01*
X137804524Y-78649429D02*
X137804524Y-79375143D01*
X138409286Y-79447714D01*
X138348810Y-79375143D01*
X138288333Y-79230000D01*
X138288333Y-78867143D01*
X138348810Y-78722000D01*
X138409286Y-78649429D01*
X138530238Y-78576857D01*
X138832619Y-78576857D01*
X138953571Y-78649429D01*
X139014048Y-78722000D01*
X139074524Y-78867143D01*
X139074524Y-79230000D01*
X139014048Y-79375143D01*
X138953571Y-79447714D01*
X148574524Y-101850572D02*
X147304524Y-101850572D01*
X147304524Y-101487715D01*
X147365000Y-101270000D01*
X147485952Y-101124858D01*
X147606905Y-101052286D01*
X147848810Y-100979715D01*
X148030238Y-100979715D01*
X148272143Y-101052286D01*
X148393095Y-101124858D01*
X148514048Y-101270000D01*
X148574524Y-101487715D01*
X148574524Y-101850572D01*
X147425476Y-100399143D02*
X147365000Y-100326572D01*
X147304524Y-100181429D01*
X147304524Y-99818572D01*
X147365000Y-99673429D01*
X147425476Y-99600858D01*
X147546429Y-99528286D01*
X147667381Y-99528286D01*
X147848810Y-99600858D01*
X148574524Y-100471715D01*
X148574524Y-99528286D01*
X147304524Y-98222000D02*
X147304524Y-98512286D01*
X147365000Y-98657429D01*
X147425476Y-98730000D01*
X147606905Y-98875143D01*
X147848810Y-98947714D01*
X148332619Y-98947714D01*
X148453571Y-98875143D01*
X148514048Y-98802571D01*
X148574524Y-98657429D01*
X148574524Y-98367143D01*
X148514048Y-98222000D01*
X148453571Y-98149429D01*
X148332619Y-98076857D01*
X148030238Y-98076857D01*
X147909286Y-98149429D01*
X147848810Y-98222000D01*
X147788333Y-98367143D01*
X147788333Y-98657429D01*
X147848810Y-98802571D01*
X147909286Y-98875143D01*
X148030238Y-98947714D01*
X153474524Y-63350572D02*
X152204524Y-63350572D01*
X152204524Y-62987715D01*
X152265000Y-62770000D01*
X152385952Y-62624858D01*
X152506905Y-62552286D01*
X152748810Y-62479715D01*
X152930238Y-62479715D01*
X153172143Y-62552286D01*
X153293095Y-62624858D01*
X153414048Y-62770000D01*
X153474524Y-62987715D01*
X153474524Y-63350572D01*
X152325476Y-61899143D02*
X152265000Y-61826572D01*
X152204524Y-61681429D01*
X152204524Y-61318572D01*
X152265000Y-61173429D01*
X152325476Y-61100858D01*
X152446429Y-61028286D01*
X152567381Y-61028286D01*
X152748810Y-61100858D01*
X153474524Y-61971715D01*
X153474524Y-61028286D01*
X152204524Y-60520286D02*
X152204524Y-59504286D01*
X153474524Y-60157429D01*
X158174524Y-82250572D02*
X156904524Y-82250572D01*
X156904524Y-81887715D01*
X156965000Y-81670000D01*
X157085952Y-81524858D01*
X157206905Y-81452286D01*
X157448810Y-81379715D01*
X157630238Y-81379715D01*
X157872143Y-81452286D01*
X157993095Y-81524858D01*
X158114048Y-81670000D01*
X158174524Y-81887715D01*
X158174524Y-82250572D01*
X157025476Y-80799143D02*
X156965000Y-80726572D01*
X156904524Y-80581429D01*
X156904524Y-80218572D01*
X156965000Y-80073429D01*
X157025476Y-80000858D01*
X157146429Y-79928286D01*
X157267381Y-79928286D01*
X157448810Y-80000858D01*
X158174524Y-80871715D01*
X158174524Y-79928286D01*
X157448810Y-79057429D02*
X157388333Y-79202571D01*
X157327857Y-79275143D01*
X157206905Y-79347714D01*
X157146429Y-79347714D01*
X157025476Y-79275143D01*
X156965000Y-79202571D01*
X156904524Y-79057429D01*
X156904524Y-78767143D01*
X156965000Y-78622000D01*
X157025476Y-78549429D01*
X157146429Y-78476857D01*
X157206905Y-78476857D01*
X157327857Y-78549429D01*
X157388333Y-78622000D01*
X157448810Y-78767143D01*
X157448810Y-79057429D01*
X157509286Y-79202571D01*
X157569762Y-79275143D01*
X157690714Y-79347714D01*
X157932619Y-79347714D01*
X158053571Y-79275143D01*
X158114048Y-79202571D01*
X158174524Y-79057429D01*
X158174524Y-78767143D01*
X158114048Y-78622000D01*
X158053571Y-78549429D01*
X157932619Y-78476857D01*
X157690714Y-78476857D01*
X157569762Y-78549429D01*
X157509286Y-78622000D01*
X157448810Y-78767143D01*
X167574524Y-101850572D02*
X166304524Y-101850572D01*
X166304524Y-101487715D01*
X166365000Y-101270000D01*
X166485952Y-101124858D01*
X166606905Y-101052286D01*
X166848810Y-100979715D01*
X167030238Y-100979715D01*
X167272143Y-101052286D01*
X167393095Y-101124858D01*
X167514048Y-101270000D01*
X167574524Y-101487715D01*
X167574524Y-101850572D01*
X166425476Y-100399143D02*
X166365000Y-100326572D01*
X166304524Y-100181429D01*
X166304524Y-99818572D01*
X166365000Y-99673429D01*
X166425476Y-99600858D01*
X166546429Y-99528286D01*
X166667381Y-99528286D01*
X166848810Y-99600858D01*
X167574524Y-100471715D01*
X167574524Y-99528286D01*
X167574524Y-98802571D02*
X167574524Y-98512286D01*
X167514048Y-98367143D01*
X167453571Y-98294571D01*
X167272143Y-98149429D01*
X167030238Y-98076857D01*
X166546429Y-98076857D01*
X166425476Y-98149429D01*
X166365000Y-98222000D01*
X166304524Y-98367143D01*
X166304524Y-98657429D01*
X166365000Y-98802571D01*
X166425476Y-98875143D01*
X166546429Y-98947714D01*
X166848810Y-98947714D01*
X166969762Y-98875143D01*
X167030238Y-98802571D01*
X167090714Y-98657429D01*
X167090714Y-98367143D01*
X167030238Y-98222000D01*
X166969762Y-98149429D01*
X166848810Y-98076857D01*
X172374524Y-63250572D02*
X171104524Y-63250572D01*
X171104524Y-62887715D01*
X171165000Y-62670000D01*
X171285952Y-62524858D01*
X171406905Y-62452286D01*
X171648810Y-62379715D01*
X171830238Y-62379715D01*
X172072143Y-62452286D01*
X172193095Y-62524858D01*
X172314048Y-62670000D01*
X172374524Y-62887715D01*
X172374524Y-63250572D01*
X171104524Y-61871715D02*
X171104524Y-60928286D01*
X171588333Y-61436286D01*
X171588333Y-61218572D01*
X171648810Y-61073429D01*
X171709286Y-61000858D01*
X171830238Y-60928286D01*
X172132619Y-60928286D01*
X172253571Y-61000858D01*
X172314048Y-61073429D01*
X172374524Y-61218572D01*
X172374524Y-61654000D01*
X172314048Y-61799143D01*
X172253571Y-61871715D01*
X171104524Y-59984857D02*
X171104524Y-59839714D01*
X171165000Y-59694571D01*
X171225476Y-59622000D01*
X171346429Y-59549429D01*
X171588333Y-59476857D01*
X171890714Y-59476857D01*
X172132619Y-59549429D01*
X172253571Y-59622000D01*
X172314048Y-59694571D01*
X172374524Y-59839714D01*
X172374524Y-59984857D01*
X172314048Y-60130000D01*
X172253571Y-60202571D01*
X172132619Y-60275143D01*
X171890714Y-60347714D01*
X171588333Y-60347714D01*
X171346429Y-60275143D01*
X171225476Y-60202571D01*
X171165000Y-60130000D01*
X171104524Y-59984857D01*
X177074524Y-82250572D02*
X175804524Y-82250572D01*
X175804524Y-81887715D01*
X175865000Y-81670000D01*
X175985952Y-81524858D01*
X176106905Y-81452286D01*
X176348810Y-81379715D01*
X176530238Y-81379715D01*
X176772143Y-81452286D01*
X176893095Y-81524858D01*
X177014048Y-81670000D01*
X177074524Y-81887715D01*
X177074524Y-82250572D01*
X175804524Y-80871715D02*
X175804524Y-79928286D01*
X176288333Y-80436286D01*
X176288333Y-80218572D01*
X176348810Y-80073429D01*
X176409286Y-80000858D01*
X176530238Y-79928286D01*
X176832619Y-79928286D01*
X176953571Y-80000858D01*
X177014048Y-80073429D01*
X177074524Y-80218572D01*
X177074524Y-80654000D01*
X177014048Y-80799143D01*
X176953571Y-80871715D01*
X177074524Y-78476857D02*
X177074524Y-79347714D01*
X177074524Y-78912286D02*
X175804524Y-78912286D01*
X175985952Y-79057429D01*
X176106905Y-79202571D01*
X176167381Y-79347714D01*
X186574524Y-101850572D02*
X185304524Y-101850572D01*
X185304524Y-101487715D01*
X185365000Y-101270000D01*
X185485952Y-101124858D01*
X185606905Y-101052286D01*
X185848810Y-100979715D01*
X186030238Y-100979715D01*
X186272143Y-101052286D01*
X186393095Y-101124858D01*
X186514048Y-101270000D01*
X186574524Y-101487715D01*
X186574524Y-101850572D01*
X185304524Y-100471715D02*
X185304524Y-99528286D01*
X185788333Y-100036286D01*
X185788333Y-99818572D01*
X185848810Y-99673429D01*
X185909286Y-99600858D01*
X186030238Y-99528286D01*
X186332619Y-99528286D01*
X186453571Y-99600858D01*
X186514048Y-99673429D01*
X186574524Y-99818572D01*
X186574524Y-100254000D01*
X186514048Y-100399143D01*
X186453571Y-100471715D01*
X185425476Y-98947714D02*
X185365000Y-98875143D01*
X185304524Y-98730000D01*
X185304524Y-98367143D01*
X185365000Y-98222000D01*
X185425476Y-98149429D01*
X185546429Y-98076857D01*
X185667381Y-98076857D01*
X185848810Y-98149429D01*
X186574524Y-99020286D01*
X186574524Y-98076857D01*
X181574524Y-120850572D02*
X180304524Y-120850572D01*
X180304524Y-120487715D01*
X180365000Y-120270000D01*
X180485952Y-120124858D01*
X180606905Y-120052286D01*
X180848810Y-119979715D01*
X181030238Y-119979715D01*
X181272143Y-120052286D01*
X181393095Y-120124858D01*
X181514048Y-120270000D01*
X181574524Y-120487715D01*
X181574524Y-120850572D01*
X180304524Y-119471715D02*
X180304524Y-118528286D01*
X180788333Y-119036286D01*
X180788333Y-118818572D01*
X180848810Y-118673429D01*
X180909286Y-118600858D01*
X181030238Y-118528286D01*
X181332619Y-118528286D01*
X181453571Y-118600858D01*
X181514048Y-118673429D01*
X181574524Y-118818572D01*
X181574524Y-119254000D01*
X181514048Y-119399143D01*
X181453571Y-119471715D01*
X180304524Y-118020286D02*
X180304524Y-117076857D01*
X180788333Y-117584857D01*
X180788333Y-117367143D01*
X180848810Y-117222000D01*
X180909286Y-117149429D01*
X181030238Y-117076857D01*
X181332619Y-117076857D01*
X181453571Y-117149429D01*
X181514048Y-117222000D01*
X181574524Y-117367143D01*
X181574524Y-117802571D01*
X181514048Y-117947714D01*
X181453571Y-118020286D01*
X191574524Y-63250572D02*
X190304524Y-63250572D01*
X190304524Y-62887715D01*
X190365000Y-62670000D01*
X190485952Y-62524858D01*
X190606905Y-62452286D01*
X190848810Y-62379715D01*
X191030238Y-62379715D01*
X191272143Y-62452286D01*
X191393095Y-62524858D01*
X191514048Y-62670000D01*
X191574524Y-62887715D01*
X191574524Y-63250572D01*
X190304524Y-61871715D02*
X190304524Y-60928286D01*
X190788333Y-61436286D01*
X190788333Y-61218572D01*
X190848810Y-61073429D01*
X190909286Y-61000858D01*
X191030238Y-60928286D01*
X191332619Y-60928286D01*
X191453571Y-61000858D01*
X191514048Y-61073429D01*
X191574524Y-61218572D01*
X191574524Y-61654000D01*
X191514048Y-61799143D01*
X191453571Y-61871715D01*
X190727857Y-59622000D02*
X191574524Y-59622000D01*
X190244048Y-59984857D02*
X191151190Y-60347714D01*
X191151190Y-59404286D01*
X196274524Y-82250572D02*
X195004524Y-82250572D01*
X195004524Y-81887715D01*
X195065000Y-81670000D01*
X195185952Y-81524858D01*
X195306905Y-81452286D01*
X195548810Y-81379715D01*
X195730238Y-81379715D01*
X195972143Y-81452286D01*
X196093095Y-81524858D01*
X196214048Y-81670000D01*
X196274524Y-81887715D01*
X196274524Y-82250572D01*
X195004524Y-80871715D02*
X195004524Y-79928286D01*
X195488333Y-80436286D01*
X195488333Y-80218572D01*
X195548810Y-80073429D01*
X195609286Y-80000858D01*
X195730238Y-79928286D01*
X196032619Y-79928286D01*
X196153571Y-80000858D01*
X196214048Y-80073429D01*
X196274524Y-80218572D01*
X196274524Y-80654000D01*
X196214048Y-80799143D01*
X196153571Y-80871715D01*
X195004524Y-78549429D02*
X195004524Y-79275143D01*
X195609286Y-79347714D01*
X195548810Y-79275143D01*
X195488333Y-79130000D01*
X195488333Y-78767143D01*
X195548810Y-78622000D01*
X195609286Y-78549429D01*
X195730238Y-78476857D01*
X196032619Y-78476857D01*
X196153571Y-78549429D01*
X196214048Y-78622000D01*
X196274524Y-78767143D01*
X196274524Y-79130000D01*
X196214048Y-79275143D01*
X196153571Y-79347714D01*
X205574524Y-101850572D02*
X204304524Y-101850572D01*
X204304524Y-101487715D01*
X204365000Y-101270000D01*
X204485952Y-101124858D01*
X204606905Y-101052286D01*
X204848810Y-100979715D01*
X205030238Y-100979715D01*
X205272143Y-101052286D01*
X205393095Y-101124858D01*
X205514048Y-101270000D01*
X205574524Y-101487715D01*
X205574524Y-101850572D01*
X204304524Y-100471715D02*
X204304524Y-99528286D01*
X204788333Y-100036286D01*
X204788333Y-99818572D01*
X204848810Y-99673429D01*
X204909286Y-99600858D01*
X205030238Y-99528286D01*
X205332619Y-99528286D01*
X205453571Y-99600858D01*
X205514048Y-99673429D01*
X205574524Y-99818572D01*
X205574524Y-100254000D01*
X205514048Y-100399143D01*
X205453571Y-100471715D01*
X204304524Y-98222000D02*
X204304524Y-98512286D01*
X204365000Y-98657429D01*
X204425476Y-98730000D01*
X204606905Y-98875143D01*
X204848810Y-98947714D01*
X205332619Y-98947714D01*
X205453571Y-98875143D01*
X205514048Y-98802571D01*
X205574524Y-98657429D01*
X205574524Y-98367143D01*
X205514048Y-98222000D01*
X205453571Y-98149429D01*
X205332619Y-98076857D01*
X205030238Y-98076857D01*
X204909286Y-98149429D01*
X204848810Y-98222000D01*
X204788333Y-98367143D01*
X204788333Y-98657429D01*
X204848810Y-98802571D01*
X204909286Y-98875143D01*
X205030238Y-98947714D01*
X205574524Y-120850572D02*
X204304524Y-120850572D01*
X204304524Y-120487715D01*
X204365000Y-120270000D01*
X204485952Y-120124858D01*
X204606905Y-120052286D01*
X204848810Y-119979715D01*
X205030238Y-119979715D01*
X205272143Y-120052286D01*
X205393095Y-120124858D01*
X205514048Y-120270000D01*
X205574524Y-120487715D01*
X205574524Y-120850572D01*
X204304524Y-119471715D02*
X204304524Y-118528286D01*
X204788333Y-119036286D01*
X204788333Y-118818572D01*
X204848810Y-118673429D01*
X204909286Y-118600858D01*
X205030238Y-118528286D01*
X205332619Y-118528286D01*
X205453571Y-118600858D01*
X205514048Y-118673429D01*
X205574524Y-118818572D01*
X205574524Y-119254000D01*
X205514048Y-119399143D01*
X205453571Y-119471715D01*
X204304524Y-118020286D02*
X204304524Y-117004286D01*
X205574524Y-117657429D01*
X210474524Y-63250572D02*
X209204524Y-63250572D01*
X209204524Y-62887715D01*
X209265000Y-62670000D01*
X209385952Y-62524858D01*
X209506905Y-62452286D01*
X209748810Y-62379715D01*
X209930238Y-62379715D01*
X210172143Y-62452286D01*
X210293095Y-62524858D01*
X210414048Y-62670000D01*
X210474524Y-62887715D01*
X210474524Y-63250572D01*
X209204524Y-61871715D02*
X209204524Y-60928286D01*
X209688333Y-61436286D01*
X209688333Y-61218572D01*
X209748810Y-61073429D01*
X209809286Y-61000858D01*
X209930238Y-60928286D01*
X210232619Y-60928286D01*
X210353571Y-61000858D01*
X210414048Y-61073429D01*
X210474524Y-61218572D01*
X210474524Y-61654000D01*
X210414048Y-61799143D01*
X210353571Y-61871715D01*
X209748810Y-60057429D02*
X209688333Y-60202571D01*
X209627857Y-60275143D01*
X209506905Y-60347714D01*
X209446429Y-60347714D01*
X209325476Y-60275143D01*
X209265000Y-60202571D01*
X209204524Y-60057429D01*
X209204524Y-59767143D01*
X209265000Y-59622000D01*
X209325476Y-59549429D01*
X209446429Y-59476857D01*
X209506905Y-59476857D01*
X209627857Y-59549429D01*
X209688333Y-59622000D01*
X209748810Y-59767143D01*
X209748810Y-60057429D01*
X209809286Y-60202571D01*
X209869762Y-60275143D01*
X209990714Y-60347714D01*
X210232619Y-60347714D01*
X210353571Y-60275143D01*
X210414048Y-60202571D01*
X210474524Y-60057429D01*
X210474524Y-59767143D01*
X210414048Y-59622000D01*
X210353571Y-59549429D01*
X210232619Y-59476857D01*
X209990714Y-59476857D01*
X209869762Y-59549429D01*
X209809286Y-59622000D01*
X209748810Y-59767143D01*
X215274524Y-82250572D02*
X214004524Y-82250572D01*
X214004524Y-81887715D01*
X214065000Y-81670000D01*
X214185952Y-81524858D01*
X214306905Y-81452286D01*
X214548810Y-81379715D01*
X214730238Y-81379715D01*
X214972143Y-81452286D01*
X215093095Y-81524858D01*
X215214048Y-81670000D01*
X215274524Y-81887715D01*
X215274524Y-82250572D01*
X214004524Y-80871715D02*
X214004524Y-79928286D01*
X214488333Y-80436286D01*
X214488333Y-80218572D01*
X214548810Y-80073429D01*
X214609286Y-80000858D01*
X214730238Y-79928286D01*
X215032619Y-79928286D01*
X215153571Y-80000858D01*
X215214048Y-80073429D01*
X215274524Y-80218572D01*
X215274524Y-80654000D01*
X215214048Y-80799143D01*
X215153571Y-80871715D01*
X215274524Y-79202571D02*
X215274524Y-78912286D01*
X215214048Y-78767143D01*
X215153571Y-78694571D01*
X214972143Y-78549429D01*
X214730238Y-78476857D01*
X214246429Y-78476857D01*
X214125476Y-78549429D01*
X214065000Y-78622000D01*
X214004524Y-78767143D01*
X214004524Y-79057429D01*
X214065000Y-79202571D01*
X214125476Y-79275143D01*
X214246429Y-79347714D01*
X214548810Y-79347714D01*
X214669762Y-79275143D01*
X214730238Y-79202571D01*
X214790714Y-79057429D01*
X214790714Y-78767143D01*
X214730238Y-78622000D01*
X214669762Y-78549429D01*
X214548810Y-78476857D01*
X224574524Y-101850572D02*
X223304524Y-101850572D01*
X223304524Y-101487715D01*
X223365000Y-101270000D01*
X223485952Y-101124858D01*
X223606905Y-101052286D01*
X223848810Y-100979715D01*
X224030238Y-100979715D01*
X224272143Y-101052286D01*
X224393095Y-101124858D01*
X224514048Y-101270000D01*
X224574524Y-101487715D01*
X224574524Y-101850572D01*
X223727857Y-99673429D02*
X224574524Y-99673429D01*
X223244048Y-100036286D02*
X224151190Y-100399143D01*
X224151190Y-99455715D01*
X223304524Y-98584857D02*
X223304524Y-98439714D01*
X223365000Y-98294571D01*
X223425476Y-98222000D01*
X223546429Y-98149429D01*
X223788333Y-98076857D01*
X224090714Y-98076857D01*
X224332619Y-98149429D01*
X224453571Y-98222000D01*
X224514048Y-98294571D01*
X224574524Y-98439714D01*
X224574524Y-98584857D01*
X224514048Y-98730000D01*
X224453571Y-98802571D01*
X224332619Y-98875143D01*
X224090714Y-98947714D01*
X223788333Y-98947714D01*
X223546429Y-98875143D01*
X223425476Y-98802571D01*
X223365000Y-98730000D01*
X223304524Y-98584857D01*
X224574524Y-120850572D02*
X223304524Y-120850572D01*
X223304524Y-120487715D01*
X223365000Y-120270000D01*
X223485952Y-120124858D01*
X223606905Y-120052286D01*
X223848810Y-119979715D01*
X224030238Y-119979715D01*
X224272143Y-120052286D01*
X224393095Y-120124858D01*
X224514048Y-120270000D01*
X224574524Y-120487715D01*
X224574524Y-120850572D01*
X223727857Y-118673429D02*
X224574524Y-118673429D01*
X223244048Y-119036286D02*
X224151190Y-119399143D01*
X224151190Y-118455715D01*
X224574524Y-117076857D02*
X224574524Y-117947714D01*
X224574524Y-117512286D02*
X223304524Y-117512286D01*
X223485952Y-117657429D01*
X223606905Y-117802571D01*
X223667381Y-117947714D01*
X229674524Y-63250572D02*
X228404524Y-63250572D01*
X228404524Y-62887715D01*
X228465000Y-62670000D01*
X228585952Y-62524858D01*
X228706905Y-62452286D01*
X228948810Y-62379715D01*
X229130238Y-62379715D01*
X229372143Y-62452286D01*
X229493095Y-62524858D01*
X229614048Y-62670000D01*
X229674524Y-62887715D01*
X229674524Y-63250572D01*
X228827857Y-61073429D02*
X229674524Y-61073429D01*
X228344048Y-61436286D02*
X229251190Y-61799143D01*
X229251190Y-60855715D01*
X228525476Y-60347714D02*
X228465000Y-60275143D01*
X228404524Y-60130000D01*
X228404524Y-59767143D01*
X228465000Y-59622000D01*
X228525476Y-59549429D01*
X228646429Y-59476857D01*
X228767381Y-59476857D01*
X228948810Y-59549429D01*
X229674524Y-60420286D01*
X229674524Y-59476857D01*
X235274524Y-82150572D02*
X234004524Y-82150572D01*
X234004524Y-81787715D01*
X234065000Y-81570000D01*
X234185952Y-81424858D01*
X234306905Y-81352286D01*
X234548810Y-81279715D01*
X234730238Y-81279715D01*
X234972143Y-81352286D01*
X235093095Y-81424858D01*
X235214048Y-81570000D01*
X235274524Y-81787715D01*
X235274524Y-82150572D01*
X234427857Y-79973429D02*
X235274524Y-79973429D01*
X233944048Y-80336286D02*
X234851190Y-80699143D01*
X234851190Y-79755715D01*
X234004524Y-79320286D02*
X234004524Y-78376857D01*
X234488333Y-78884857D01*
X234488333Y-78667143D01*
X234548810Y-78522000D01*
X234609286Y-78449429D01*
X234730238Y-78376857D01*
X235032619Y-78376857D01*
X235153571Y-78449429D01*
X235214048Y-78522000D01*
X235274524Y-78667143D01*
X235274524Y-79102571D01*
X235214048Y-79247714D01*
X235153571Y-79320286D01*
X249674524Y-102250572D02*
X248404524Y-102250572D01*
X248404524Y-101887715D01*
X248465000Y-101670000D01*
X248585952Y-101524858D01*
X248706905Y-101452286D01*
X248948810Y-101379715D01*
X249130238Y-101379715D01*
X249372143Y-101452286D01*
X249493095Y-101524858D01*
X249614048Y-101670000D01*
X249674524Y-101887715D01*
X249674524Y-102250572D01*
X248827857Y-100073429D02*
X249674524Y-100073429D01*
X248344048Y-100436286D02*
X249251190Y-100799143D01*
X249251190Y-99855715D01*
X248827857Y-98622000D02*
X249674524Y-98622000D01*
X248344048Y-98984857D02*
X249251190Y-99347714D01*
X249251190Y-98404286D01*
X243574524Y-120850572D02*
X242304524Y-120850572D01*
X242304524Y-120487715D01*
X242365000Y-120270000D01*
X242485952Y-120124858D01*
X242606905Y-120052286D01*
X242848810Y-119979715D01*
X243030238Y-119979715D01*
X243272143Y-120052286D01*
X243393095Y-120124858D01*
X243514048Y-120270000D01*
X243574524Y-120487715D01*
X243574524Y-120850572D01*
X242727857Y-118673429D02*
X243574524Y-118673429D01*
X242244048Y-119036286D02*
X243151190Y-119399143D01*
X243151190Y-118455715D01*
X242304524Y-117149429D02*
X242304524Y-117875143D01*
X242909286Y-117947714D01*
X242848810Y-117875143D01*
X242788333Y-117730000D01*
X242788333Y-117367143D01*
X242848810Y-117222000D01*
X242909286Y-117149429D01*
X243030238Y-117076857D01*
X243332619Y-117076857D01*
X243453571Y-117149429D01*
X243514048Y-117222000D01*
X243574524Y-117367143D01*
X243574524Y-117730000D01*
X243514048Y-117875143D01*
X243453571Y-117947714D01*
X251874524Y-63450572D02*
X250604524Y-63450572D01*
X250604524Y-63087715D01*
X250665000Y-62870000D01*
X250785952Y-62724858D01*
X250906905Y-62652286D01*
X251148810Y-62579715D01*
X251330238Y-62579715D01*
X251572143Y-62652286D01*
X251693095Y-62724858D01*
X251814048Y-62870000D01*
X251874524Y-63087715D01*
X251874524Y-63450572D01*
X251027857Y-61273429D02*
X251874524Y-61273429D01*
X250544048Y-61636286D02*
X251451190Y-61999143D01*
X251451190Y-61055715D01*
X250604524Y-59822000D02*
X250604524Y-60112286D01*
X250665000Y-60257429D01*
X250725476Y-60330000D01*
X250906905Y-60475143D01*
X251148810Y-60547714D01*
X251632619Y-60547714D01*
X251753571Y-60475143D01*
X251814048Y-60402571D01*
X251874524Y-60257429D01*
X251874524Y-59967143D01*
X251814048Y-59822000D01*
X251753571Y-59749429D01*
X251632619Y-59676857D01*
X251330238Y-59676857D01*
X251209286Y-59749429D01*
X251148810Y-59822000D01*
X251088333Y-59967143D01*
X251088333Y-60257429D01*
X251148810Y-60402571D01*
X251209286Y-60475143D01*
X251330238Y-60547714D01*
X273774524Y-104250572D02*
X272504524Y-104250572D01*
X272504524Y-103887715D01*
X272565000Y-103670000D01*
X272685952Y-103524858D01*
X272806905Y-103452286D01*
X273048810Y-103379715D01*
X273230238Y-103379715D01*
X273472143Y-103452286D01*
X273593095Y-103524858D01*
X273714048Y-103670000D01*
X273774524Y-103887715D01*
X273774524Y-104250572D01*
X272927857Y-102073429D02*
X273774524Y-102073429D01*
X272444048Y-102436286D02*
X273351190Y-102799143D01*
X273351190Y-101855715D01*
X272504524Y-101420286D02*
X272504524Y-100404286D01*
X273774524Y-101057429D01*
X270574524Y-104250572D02*
X269304524Y-104250572D01*
X269304524Y-103887715D01*
X269365000Y-103670000D01*
X269485952Y-103524858D01*
X269606905Y-103452286D01*
X269848810Y-103379715D01*
X270030238Y-103379715D01*
X270272143Y-103452286D01*
X270393095Y-103524858D01*
X270514048Y-103670000D01*
X270574524Y-103887715D01*
X270574524Y-104250572D01*
X269727857Y-102073429D02*
X270574524Y-102073429D01*
X269244048Y-102436286D02*
X270151190Y-102799143D01*
X270151190Y-101855715D01*
X269848810Y-101057429D02*
X269788333Y-101202571D01*
X269727857Y-101275143D01*
X269606905Y-101347714D01*
X269546429Y-101347714D01*
X269425476Y-101275143D01*
X269365000Y-101202571D01*
X269304524Y-101057429D01*
X269304524Y-100767143D01*
X269365000Y-100622000D01*
X269425476Y-100549429D01*
X269546429Y-100476857D01*
X269606905Y-100476857D01*
X269727857Y-100549429D01*
X269788333Y-100622000D01*
X269848810Y-100767143D01*
X269848810Y-101057429D01*
X269909286Y-101202571D01*
X269969762Y-101275143D01*
X270090714Y-101347714D01*
X270332619Y-101347714D01*
X270453571Y-101275143D01*
X270514048Y-101202571D01*
X270574524Y-101057429D01*
X270574524Y-100767143D01*
X270514048Y-100622000D01*
X270453571Y-100549429D01*
X270332619Y-100476857D01*
X270090714Y-100476857D01*
X269969762Y-100549429D01*
X269909286Y-100622000D01*
X269848810Y-100767143D01*
X230624369Y-50663381D02*
X230148178Y-50663381D01*
X230148178Y-49663381D01*
X230957702Y-50139571D02*
X231291036Y-50139571D01*
X231433893Y-50663381D02*
X230957702Y-50663381D01*
X230957702Y-49663381D01*
X231433893Y-49663381D01*
X231862464Y-50663381D02*
X231862464Y-49663381D01*
X232100559Y-49663381D01*
X232243417Y-49711000D01*
X232338655Y-49806238D01*
X232386274Y-49901476D01*
X232433893Y-50091952D01*
X232433893Y-50234810D01*
X232386274Y-50425286D01*
X232338655Y-50520524D01*
X232243417Y-50615762D01*
X232100559Y-50663381D01*
X231862464Y-50663381D01*
X232624369Y-50758619D02*
X233386274Y-50758619D01*
X233576750Y-50377667D02*
X234052941Y-50377667D01*
X233481512Y-50663381D02*
X233814845Y-49663381D01*
X234148179Y-50663381D01*
X244522941Y-50663381D02*
X244046750Y-50663381D01*
X244046750Y-49663381D01*
X244856274Y-50139571D02*
X245189608Y-50139571D01*
X245332465Y-50663381D02*
X244856274Y-50663381D01*
X244856274Y-49663381D01*
X245332465Y-49663381D01*
X245761036Y-50663381D02*
X245761036Y-49663381D01*
X245999131Y-49663381D01*
X246141989Y-49711000D01*
X246237227Y-49806238D01*
X246284846Y-49901476D01*
X246332465Y-50091952D01*
X246332465Y-50234810D01*
X246284846Y-50425286D01*
X246237227Y-50520524D01*
X246141989Y-50615762D01*
X245999131Y-50663381D01*
X245761036Y-50663381D01*
X246522941Y-50758619D02*
X247284846Y-50758619D01*
X247856275Y-50139571D02*
X247999132Y-50187190D01*
X248046751Y-50234810D01*
X248094370Y-50330048D01*
X248094370Y-50472905D01*
X248046751Y-50568143D01*
X247999132Y-50615762D01*
X247903894Y-50663381D01*
X247522941Y-50663381D01*
X247522941Y-49663381D01*
X247856275Y-49663381D01*
X247951513Y-49711000D01*
X247999132Y-49758619D01*
X248046751Y-49853857D01*
X248046751Y-49949095D01*
X247999132Y-50044333D01*
X247951513Y-50091952D01*
X247856275Y-50139571D01*
X247522941Y-50139571D01*
X258492941Y-50663381D02*
X258016750Y-50663381D01*
X258016750Y-49663381D01*
X258826274Y-50139571D02*
X259159608Y-50139571D01*
X259302465Y-50663381D02*
X258826274Y-50663381D01*
X258826274Y-49663381D01*
X259302465Y-49663381D01*
X259731036Y-50663381D02*
X259731036Y-49663381D01*
X259969131Y-49663381D01*
X260111989Y-49711000D01*
X260207227Y-49806238D01*
X260254846Y-49901476D01*
X260302465Y-50091952D01*
X260302465Y-50234810D01*
X260254846Y-50425286D01*
X260207227Y-50520524D01*
X260111989Y-50615762D01*
X259969131Y-50663381D01*
X259731036Y-50663381D01*
X260492941Y-50758619D02*
X261254846Y-50758619D01*
X262064370Y-50568143D02*
X262016751Y-50615762D01*
X261873894Y-50663381D01*
X261778656Y-50663381D01*
X261635798Y-50615762D01*
X261540560Y-50520524D01*
X261492941Y-50425286D01*
X261445322Y-50234810D01*
X261445322Y-50091952D01*
X261492941Y-49901476D01*
X261540560Y-49806238D01*
X261635798Y-49711000D01*
X261778656Y-49663381D01*
X261873894Y-49663381D01*
X262016751Y-49711000D01*
X262064370Y-49758619D01*
X231314750Y-53579524D02*
X230806750Y-52974762D01*
X230443893Y-53579524D02*
X230443893Y-52309524D01*
X231024465Y-52309524D01*
X231169607Y-52370000D01*
X231242179Y-52430476D01*
X231314750Y-52551429D01*
X231314750Y-52732857D01*
X231242179Y-52853810D01*
X231169607Y-52914286D01*
X231024465Y-52974762D01*
X230443893Y-52974762D01*
X232766179Y-53579524D02*
X231895322Y-53579524D01*
X232330750Y-53579524D02*
X232330750Y-52309524D01*
X232185607Y-52490952D01*
X232040465Y-52611905D01*
X231895322Y-52672381D01*
X245284750Y-53579524D02*
X244776750Y-52974762D01*
X244413893Y-53579524D02*
X244413893Y-52309524D01*
X244994465Y-52309524D01*
X245139607Y-52370000D01*
X245212179Y-52430476D01*
X245284750Y-52551429D01*
X245284750Y-52732857D01*
X245212179Y-52853810D01*
X245139607Y-52914286D01*
X244994465Y-52974762D01*
X244413893Y-52974762D01*
X245865322Y-52430476D02*
X245937893Y-52370000D01*
X246083036Y-52309524D01*
X246445893Y-52309524D01*
X246591036Y-52370000D01*
X246663607Y-52430476D01*
X246736179Y-52551429D01*
X246736179Y-52672381D01*
X246663607Y-52853810D01*
X245792750Y-53579524D01*
X246736179Y-53579524D01*
X259254750Y-53579524D02*
X258746750Y-52974762D01*
X258383893Y-53579524D02*
X258383893Y-52309524D01*
X258964465Y-52309524D01*
X259109607Y-52370000D01*
X259182179Y-52430476D01*
X259254750Y-52551429D01*
X259254750Y-52732857D01*
X259182179Y-52853810D01*
X259109607Y-52914286D01*
X258964465Y-52974762D01*
X258383893Y-52974762D01*
X259762750Y-52309524D02*
X260706179Y-52309524D01*
X260198179Y-52793333D01*
X260415893Y-52793333D01*
X260561036Y-52853810D01*
X260633607Y-52914286D01*
X260706179Y-53035238D01*
X260706179Y-53337619D01*
X260633607Y-53458571D01*
X260561036Y-53519048D01*
X260415893Y-53579524D01*
X259980465Y-53579524D01*
X259835322Y-53519048D01*
X259762750Y-53458571D01*
X25454429Y-67982798D02*
X25672143Y-68043274D01*
X26035000Y-68043274D01*
X26180143Y-67982798D01*
X26252714Y-67922321D01*
X26325286Y-67801369D01*
X26325286Y-67680417D01*
X26252714Y-67559464D01*
X26180143Y-67498988D01*
X26035000Y-67438512D01*
X25744714Y-67378036D01*
X25599572Y-67317560D01*
X25527000Y-67257083D01*
X25454429Y-67136131D01*
X25454429Y-67015179D01*
X25527000Y-66894226D01*
X25599572Y-66833750D01*
X25744714Y-66773274D01*
X26107572Y-66773274D01*
X26325286Y-66833750D01*
X26833286Y-66773274D02*
X27196143Y-68043274D01*
X27486429Y-67136131D01*
X27776715Y-68043274D01*
X28139572Y-66773274D01*
X29010429Y-66773274D02*
X29155572Y-66773274D01*
X29300715Y-66833750D01*
X29373286Y-66894226D01*
X29445857Y-67015179D01*
X29518429Y-67257083D01*
X29518429Y-67559464D01*
X29445857Y-67801369D01*
X29373286Y-67922321D01*
X29300715Y-67982798D01*
X29155572Y-68043274D01*
X29010429Y-68043274D01*
X28865286Y-67982798D01*
X28792715Y-67922321D01*
X28720143Y-67801369D01*
X28647572Y-67559464D01*
X28647572Y-67257083D01*
X28720143Y-67015179D01*
X28792715Y-66894226D01*
X28865286Y-66833750D01*
X29010429Y-66773274D01*
X30171572Y-67922321D02*
X30244144Y-67982798D01*
X30171572Y-68043274D01*
X30099001Y-67982798D01*
X30171572Y-67922321D01*
X30171572Y-68043274D01*
X30171572Y-67257083D02*
X30244144Y-67317560D01*
X30171572Y-67378036D01*
X30099001Y-67317560D01*
X30171572Y-67257083D01*
X30171572Y-67378036D01*
X31187572Y-66773274D02*
X31332715Y-66773274D01*
X31477858Y-66833750D01*
X31550429Y-66894226D01*
X31623000Y-67015179D01*
X31695572Y-67257083D01*
X31695572Y-67559464D01*
X31623000Y-67801369D01*
X31550429Y-67922321D01*
X31477858Y-67982798D01*
X31332715Y-68043274D01*
X31187572Y-68043274D01*
X31042429Y-67982798D01*
X30969858Y-67922321D01*
X30897286Y-67801369D01*
X30824715Y-67559464D01*
X30824715Y-67257083D01*
X30897286Y-67015179D01*
X30969858Y-66894226D01*
X31042429Y-66833750D01*
X31187572Y-66773274D01*
X26760714Y-69283036D02*
X27268714Y-69283036D01*
X27486428Y-69948274D02*
X26760714Y-69948274D01*
X26760714Y-68678274D01*
X27486428Y-68678274D01*
X28067000Y-69887798D02*
X28284714Y-69948274D01*
X28647571Y-69948274D01*
X28792714Y-69887798D01*
X28865285Y-69827321D01*
X28937857Y-69706369D01*
X28937857Y-69585417D01*
X28865285Y-69464464D01*
X28792714Y-69403988D01*
X28647571Y-69343512D01*
X28357285Y-69283036D01*
X28212143Y-69222560D01*
X28139571Y-69162083D01*
X28067000Y-69041131D01*
X28067000Y-68920179D01*
X28139571Y-68799226D01*
X28212143Y-68738750D01*
X28357285Y-68678274D01*
X28720143Y-68678274D01*
X28937857Y-68738750D01*
X30461857Y-69827321D02*
X30389286Y-69887798D01*
X30171572Y-69948274D01*
X30026429Y-69948274D01*
X29808714Y-69887798D01*
X29663572Y-69766845D01*
X29591000Y-69645893D01*
X29518429Y-69403988D01*
X29518429Y-69222560D01*
X29591000Y-68980655D01*
X29663572Y-68859702D01*
X29808714Y-68738750D01*
X30026429Y-68678274D01*
X30171572Y-68678274D01*
X30389286Y-68738750D01*
X30461857Y-68799226D01*
X44504429Y-67982798D02*
X44722143Y-68043274D01*
X45085000Y-68043274D01*
X45230143Y-67982798D01*
X45302714Y-67922321D01*
X45375286Y-67801369D01*
X45375286Y-67680417D01*
X45302714Y-67559464D01*
X45230143Y-67498988D01*
X45085000Y-67438512D01*
X44794714Y-67378036D01*
X44649572Y-67317560D01*
X44577000Y-67257083D01*
X44504429Y-67136131D01*
X44504429Y-67015179D01*
X44577000Y-66894226D01*
X44649572Y-66833750D01*
X44794714Y-66773274D01*
X45157572Y-66773274D01*
X45375286Y-66833750D01*
X45883286Y-66773274D02*
X46246143Y-68043274D01*
X46536429Y-67136131D01*
X46826715Y-68043274D01*
X47189572Y-66773274D01*
X48060429Y-66773274D02*
X48205572Y-66773274D01*
X48350715Y-66833750D01*
X48423286Y-66894226D01*
X48495857Y-67015179D01*
X48568429Y-67257083D01*
X48568429Y-67559464D01*
X48495857Y-67801369D01*
X48423286Y-67922321D01*
X48350715Y-67982798D01*
X48205572Y-68043274D01*
X48060429Y-68043274D01*
X47915286Y-67982798D01*
X47842715Y-67922321D01*
X47770143Y-67801369D01*
X47697572Y-67559464D01*
X47697572Y-67257083D01*
X47770143Y-67015179D01*
X47842715Y-66894226D01*
X47915286Y-66833750D01*
X48060429Y-66773274D01*
X49221572Y-67922321D02*
X49294144Y-67982798D01*
X49221572Y-68043274D01*
X49149001Y-67982798D01*
X49221572Y-67922321D01*
X49221572Y-68043274D01*
X49221572Y-67257083D02*
X49294144Y-67317560D01*
X49221572Y-67378036D01*
X49149001Y-67317560D01*
X49221572Y-67257083D01*
X49221572Y-67378036D01*
X50745572Y-68043274D02*
X49874715Y-68043274D01*
X50310143Y-68043274D02*
X50310143Y-66773274D01*
X50165000Y-66954702D01*
X50019858Y-67075655D01*
X49874715Y-67136131D01*
X48205572Y-70069226D02*
X48060429Y-70008750D01*
X47915286Y-69887798D01*
X47697572Y-69706369D01*
X47552429Y-69645893D01*
X47407286Y-69645893D01*
X47479858Y-69948274D02*
X47334715Y-69887798D01*
X47189572Y-69766845D01*
X47117001Y-69524940D01*
X47117001Y-69101607D01*
X47189572Y-68859702D01*
X47334715Y-68738750D01*
X47479858Y-68678274D01*
X47770144Y-68678274D01*
X47915286Y-68738750D01*
X48060429Y-68859702D01*
X48133001Y-69101607D01*
X48133001Y-69524940D01*
X48060429Y-69766845D01*
X47915286Y-69887798D01*
X47770144Y-69948274D01*
X47479858Y-69948274D01*
X63554429Y-67982798D02*
X63772143Y-68043274D01*
X64135000Y-68043274D01*
X64280143Y-67982798D01*
X64352714Y-67922321D01*
X64425286Y-67801369D01*
X64425286Y-67680417D01*
X64352714Y-67559464D01*
X64280143Y-67498988D01*
X64135000Y-67438512D01*
X63844714Y-67378036D01*
X63699572Y-67317560D01*
X63627000Y-67257083D01*
X63554429Y-67136131D01*
X63554429Y-67015179D01*
X63627000Y-66894226D01*
X63699572Y-66833750D01*
X63844714Y-66773274D01*
X64207572Y-66773274D01*
X64425286Y-66833750D01*
X64933286Y-66773274D02*
X65296143Y-68043274D01*
X65586429Y-67136131D01*
X65876715Y-68043274D01*
X66239572Y-66773274D01*
X67110429Y-66773274D02*
X67255572Y-66773274D01*
X67400715Y-66833750D01*
X67473286Y-66894226D01*
X67545857Y-67015179D01*
X67618429Y-67257083D01*
X67618429Y-67559464D01*
X67545857Y-67801369D01*
X67473286Y-67922321D01*
X67400715Y-67982798D01*
X67255572Y-68043274D01*
X67110429Y-68043274D01*
X66965286Y-67982798D01*
X66892715Y-67922321D01*
X66820143Y-67801369D01*
X66747572Y-67559464D01*
X66747572Y-67257083D01*
X66820143Y-67015179D01*
X66892715Y-66894226D01*
X66965286Y-66833750D01*
X67110429Y-66773274D01*
X68271572Y-67922321D02*
X68344144Y-67982798D01*
X68271572Y-68043274D01*
X68199001Y-67982798D01*
X68271572Y-67922321D01*
X68271572Y-68043274D01*
X68271572Y-67257083D02*
X68344144Y-67317560D01*
X68271572Y-67378036D01*
X68199001Y-67317560D01*
X68271572Y-67257083D01*
X68271572Y-67378036D01*
X68924715Y-66894226D02*
X68997286Y-66833750D01*
X69142429Y-66773274D01*
X69505286Y-66773274D01*
X69650429Y-66833750D01*
X69723000Y-66894226D01*
X69795572Y-67015179D01*
X69795572Y-67136131D01*
X69723000Y-67317560D01*
X68852143Y-68043274D01*
X69795572Y-68043274D01*
X66021857Y-68678274D02*
X66384714Y-69948274D01*
X66675000Y-69041131D01*
X66965286Y-69948274D01*
X67328143Y-68678274D01*
X82604429Y-67982798D02*
X82822143Y-68043274D01*
X83185000Y-68043274D01*
X83330143Y-67982798D01*
X83402714Y-67922321D01*
X83475286Y-67801369D01*
X83475286Y-67680417D01*
X83402714Y-67559464D01*
X83330143Y-67498988D01*
X83185000Y-67438512D01*
X82894714Y-67378036D01*
X82749572Y-67317560D01*
X82677000Y-67257083D01*
X82604429Y-67136131D01*
X82604429Y-67015179D01*
X82677000Y-66894226D01*
X82749572Y-66833750D01*
X82894714Y-66773274D01*
X83257572Y-66773274D01*
X83475286Y-66833750D01*
X83983286Y-66773274D02*
X84346143Y-68043274D01*
X84636429Y-67136131D01*
X84926715Y-68043274D01*
X85289572Y-66773274D01*
X86160429Y-66773274D02*
X86305572Y-66773274D01*
X86450715Y-66833750D01*
X86523286Y-66894226D01*
X86595857Y-67015179D01*
X86668429Y-67257083D01*
X86668429Y-67559464D01*
X86595857Y-67801369D01*
X86523286Y-67922321D01*
X86450715Y-67982798D01*
X86305572Y-68043274D01*
X86160429Y-68043274D01*
X86015286Y-67982798D01*
X85942715Y-67922321D01*
X85870143Y-67801369D01*
X85797572Y-67559464D01*
X85797572Y-67257083D01*
X85870143Y-67015179D01*
X85942715Y-66894226D01*
X86015286Y-66833750D01*
X86160429Y-66773274D01*
X87321572Y-67922321D02*
X87394144Y-67982798D01*
X87321572Y-68043274D01*
X87249001Y-67982798D01*
X87321572Y-67922321D01*
X87321572Y-68043274D01*
X87321572Y-67257083D02*
X87394144Y-67317560D01*
X87321572Y-67378036D01*
X87249001Y-67317560D01*
X87321572Y-67257083D01*
X87321572Y-67378036D01*
X87902143Y-66773274D02*
X88845572Y-66773274D01*
X88337572Y-67257083D01*
X88555286Y-67257083D01*
X88700429Y-67317560D01*
X88773000Y-67378036D01*
X88845572Y-67498988D01*
X88845572Y-67801369D01*
X88773000Y-67922321D01*
X88700429Y-67982798D01*
X88555286Y-68043274D01*
X88119858Y-68043274D01*
X87974715Y-67982798D01*
X87902143Y-67922321D01*
X85398429Y-69283036D02*
X85906429Y-69283036D01*
X86124143Y-69948274D02*
X85398429Y-69948274D01*
X85398429Y-68678274D01*
X86124143Y-68678274D01*
X101654429Y-67982798D02*
X101872143Y-68043274D01*
X102235000Y-68043274D01*
X102380143Y-67982798D01*
X102452714Y-67922321D01*
X102525286Y-67801369D01*
X102525286Y-67680417D01*
X102452714Y-67559464D01*
X102380143Y-67498988D01*
X102235000Y-67438512D01*
X101944714Y-67378036D01*
X101799572Y-67317560D01*
X101727000Y-67257083D01*
X101654429Y-67136131D01*
X101654429Y-67015179D01*
X101727000Y-66894226D01*
X101799572Y-66833750D01*
X101944714Y-66773274D01*
X102307572Y-66773274D01*
X102525286Y-66833750D01*
X103033286Y-66773274D02*
X103396143Y-68043274D01*
X103686429Y-67136131D01*
X103976715Y-68043274D01*
X104339572Y-66773274D01*
X105210429Y-66773274D02*
X105355572Y-66773274D01*
X105500715Y-66833750D01*
X105573286Y-66894226D01*
X105645857Y-67015179D01*
X105718429Y-67257083D01*
X105718429Y-67559464D01*
X105645857Y-67801369D01*
X105573286Y-67922321D01*
X105500715Y-67982798D01*
X105355572Y-68043274D01*
X105210429Y-68043274D01*
X105065286Y-67982798D01*
X104992715Y-67922321D01*
X104920143Y-67801369D01*
X104847572Y-67559464D01*
X104847572Y-67257083D01*
X104920143Y-67015179D01*
X104992715Y-66894226D01*
X105065286Y-66833750D01*
X105210429Y-66773274D01*
X106371572Y-67922321D02*
X106444144Y-67982798D01*
X106371572Y-68043274D01*
X106299001Y-67982798D01*
X106371572Y-67922321D01*
X106371572Y-68043274D01*
X106371572Y-67257083D02*
X106444144Y-67317560D01*
X106371572Y-67378036D01*
X106299001Y-67317560D01*
X106371572Y-67257083D01*
X106371572Y-67378036D01*
X107750429Y-67196607D02*
X107750429Y-68043274D01*
X107387572Y-66712798D02*
X107024715Y-67619940D01*
X107968143Y-67619940D01*
X105246714Y-69948274D02*
X104738714Y-69343512D01*
X104375857Y-69948274D02*
X104375857Y-68678274D01*
X104956429Y-68678274D01*
X105101571Y-68738750D01*
X105174143Y-68799226D01*
X105246714Y-68920179D01*
X105246714Y-69101607D01*
X105174143Y-69222560D01*
X105101571Y-69283036D01*
X104956429Y-69343512D01*
X104375857Y-69343512D01*
X120704429Y-67982798D02*
X120922143Y-68043274D01*
X121285000Y-68043274D01*
X121430143Y-67982798D01*
X121502714Y-67922321D01*
X121575286Y-67801369D01*
X121575286Y-67680417D01*
X121502714Y-67559464D01*
X121430143Y-67498988D01*
X121285000Y-67438512D01*
X120994714Y-67378036D01*
X120849572Y-67317560D01*
X120777000Y-67257083D01*
X120704429Y-67136131D01*
X120704429Y-67015179D01*
X120777000Y-66894226D01*
X120849572Y-66833750D01*
X120994714Y-66773274D01*
X121357572Y-66773274D01*
X121575286Y-66833750D01*
X122083286Y-66773274D02*
X122446143Y-68043274D01*
X122736429Y-67136131D01*
X123026715Y-68043274D01*
X123389572Y-66773274D01*
X124260429Y-66773274D02*
X124405572Y-66773274D01*
X124550715Y-66833750D01*
X124623286Y-66894226D01*
X124695857Y-67015179D01*
X124768429Y-67257083D01*
X124768429Y-67559464D01*
X124695857Y-67801369D01*
X124623286Y-67922321D01*
X124550715Y-67982798D01*
X124405572Y-68043274D01*
X124260429Y-68043274D01*
X124115286Y-67982798D01*
X124042715Y-67922321D01*
X123970143Y-67801369D01*
X123897572Y-67559464D01*
X123897572Y-67257083D01*
X123970143Y-67015179D01*
X124042715Y-66894226D01*
X124115286Y-66833750D01*
X124260429Y-66773274D01*
X125421572Y-67922321D02*
X125494144Y-67982798D01*
X125421572Y-68043274D01*
X125349001Y-67982798D01*
X125421572Y-67922321D01*
X125421572Y-68043274D01*
X125421572Y-67257083D02*
X125494144Y-67317560D01*
X125421572Y-67378036D01*
X125349001Y-67317560D01*
X125421572Y-67257083D01*
X125421572Y-67378036D01*
X126873000Y-66773274D02*
X126147286Y-66773274D01*
X126074715Y-67378036D01*
X126147286Y-67317560D01*
X126292429Y-67257083D01*
X126655286Y-67257083D01*
X126800429Y-67317560D01*
X126873000Y-67378036D01*
X126945572Y-67498988D01*
X126945572Y-67801369D01*
X126873000Y-67922321D01*
X126800429Y-67982798D01*
X126655286Y-68043274D01*
X126292429Y-68043274D01*
X126147286Y-67982798D01*
X126074715Y-67922321D01*
X123389572Y-68678274D02*
X124260429Y-68678274D01*
X123825000Y-69948274D02*
X123825000Y-68678274D01*
X139754429Y-67982798D02*
X139972143Y-68043274D01*
X140335000Y-68043274D01*
X140480143Y-67982798D01*
X140552714Y-67922321D01*
X140625286Y-67801369D01*
X140625286Y-67680417D01*
X140552714Y-67559464D01*
X140480143Y-67498988D01*
X140335000Y-67438512D01*
X140044714Y-67378036D01*
X139899572Y-67317560D01*
X139827000Y-67257083D01*
X139754429Y-67136131D01*
X139754429Y-67015179D01*
X139827000Y-66894226D01*
X139899572Y-66833750D01*
X140044714Y-66773274D01*
X140407572Y-66773274D01*
X140625286Y-66833750D01*
X141133286Y-66773274D02*
X141496143Y-68043274D01*
X141786429Y-67136131D01*
X142076715Y-68043274D01*
X142439572Y-66773274D01*
X143310429Y-66773274D02*
X143455572Y-66773274D01*
X143600715Y-66833750D01*
X143673286Y-66894226D01*
X143745857Y-67015179D01*
X143818429Y-67257083D01*
X143818429Y-67559464D01*
X143745857Y-67801369D01*
X143673286Y-67922321D01*
X143600715Y-67982798D01*
X143455572Y-68043274D01*
X143310429Y-68043274D01*
X143165286Y-67982798D01*
X143092715Y-67922321D01*
X143020143Y-67801369D01*
X142947572Y-67559464D01*
X142947572Y-67257083D01*
X143020143Y-67015179D01*
X143092715Y-66894226D01*
X143165286Y-66833750D01*
X143310429Y-66773274D01*
X144471572Y-67922321D02*
X144544144Y-67982798D01*
X144471572Y-68043274D01*
X144399001Y-67982798D01*
X144471572Y-67922321D01*
X144471572Y-68043274D01*
X144471572Y-67257083D02*
X144544144Y-67317560D01*
X144471572Y-67378036D01*
X144399001Y-67317560D01*
X144471572Y-67257083D01*
X144471572Y-67378036D01*
X145850429Y-66773274D02*
X145560143Y-66773274D01*
X145415000Y-66833750D01*
X145342429Y-66894226D01*
X145197286Y-67075655D01*
X145124715Y-67317560D01*
X145124715Y-67801369D01*
X145197286Y-67922321D01*
X145269858Y-67982798D01*
X145415000Y-68043274D01*
X145705286Y-68043274D01*
X145850429Y-67982798D01*
X145923000Y-67922321D01*
X145995572Y-67801369D01*
X145995572Y-67498988D01*
X145923000Y-67378036D01*
X145850429Y-67317560D01*
X145705286Y-67257083D01*
X145415000Y-67257083D01*
X145269858Y-67317560D01*
X145197286Y-67378036D01*
X145124715Y-67498988D01*
X142875000Y-69343512D02*
X142875000Y-69948274D01*
X142367000Y-68678274D02*
X142875000Y-69343512D01*
X143383000Y-68678274D01*
X158804429Y-67982798D02*
X159022143Y-68043274D01*
X159385000Y-68043274D01*
X159530143Y-67982798D01*
X159602714Y-67922321D01*
X159675286Y-67801369D01*
X159675286Y-67680417D01*
X159602714Y-67559464D01*
X159530143Y-67498988D01*
X159385000Y-67438512D01*
X159094714Y-67378036D01*
X158949572Y-67317560D01*
X158877000Y-67257083D01*
X158804429Y-67136131D01*
X158804429Y-67015179D01*
X158877000Y-66894226D01*
X158949572Y-66833750D01*
X159094714Y-66773274D01*
X159457572Y-66773274D01*
X159675286Y-66833750D01*
X160183286Y-66773274D02*
X160546143Y-68043274D01*
X160836429Y-67136131D01*
X161126715Y-68043274D01*
X161489572Y-66773274D01*
X162360429Y-66773274D02*
X162505572Y-66773274D01*
X162650715Y-66833750D01*
X162723286Y-66894226D01*
X162795857Y-67015179D01*
X162868429Y-67257083D01*
X162868429Y-67559464D01*
X162795857Y-67801369D01*
X162723286Y-67922321D01*
X162650715Y-67982798D01*
X162505572Y-68043274D01*
X162360429Y-68043274D01*
X162215286Y-67982798D01*
X162142715Y-67922321D01*
X162070143Y-67801369D01*
X161997572Y-67559464D01*
X161997572Y-67257083D01*
X162070143Y-67015179D01*
X162142715Y-66894226D01*
X162215286Y-66833750D01*
X162360429Y-66773274D01*
X163521572Y-67922321D02*
X163594144Y-67982798D01*
X163521572Y-68043274D01*
X163449001Y-67982798D01*
X163521572Y-67922321D01*
X163521572Y-68043274D01*
X163521572Y-67257083D02*
X163594144Y-67317560D01*
X163521572Y-67378036D01*
X163449001Y-67317560D01*
X163521572Y-67257083D01*
X163521572Y-67378036D01*
X164102143Y-66773274D02*
X165118143Y-66773274D01*
X164465000Y-68043274D01*
X161489572Y-68678274D02*
X161489572Y-69706369D01*
X161562144Y-69827321D01*
X161634715Y-69887798D01*
X161779858Y-69948274D01*
X162070144Y-69948274D01*
X162215286Y-69887798D01*
X162287858Y-69827321D01*
X162360429Y-69706369D01*
X162360429Y-68678274D01*
X177854429Y-67982798D02*
X178072143Y-68043274D01*
X178435000Y-68043274D01*
X178580143Y-67982798D01*
X178652714Y-67922321D01*
X178725286Y-67801369D01*
X178725286Y-67680417D01*
X178652714Y-67559464D01*
X178580143Y-67498988D01*
X178435000Y-67438512D01*
X178144714Y-67378036D01*
X177999572Y-67317560D01*
X177927000Y-67257083D01*
X177854429Y-67136131D01*
X177854429Y-67015179D01*
X177927000Y-66894226D01*
X177999572Y-66833750D01*
X178144714Y-66773274D01*
X178507572Y-66773274D01*
X178725286Y-66833750D01*
X179233286Y-66773274D02*
X179596143Y-68043274D01*
X179886429Y-67136131D01*
X180176715Y-68043274D01*
X180539572Y-66773274D01*
X181410429Y-66773274D02*
X181555572Y-66773274D01*
X181700715Y-66833750D01*
X181773286Y-66894226D01*
X181845857Y-67015179D01*
X181918429Y-67257083D01*
X181918429Y-67559464D01*
X181845857Y-67801369D01*
X181773286Y-67922321D01*
X181700715Y-67982798D01*
X181555572Y-68043274D01*
X181410429Y-68043274D01*
X181265286Y-67982798D01*
X181192715Y-67922321D01*
X181120143Y-67801369D01*
X181047572Y-67559464D01*
X181047572Y-67257083D01*
X181120143Y-67015179D01*
X181192715Y-66894226D01*
X181265286Y-66833750D01*
X181410429Y-66773274D01*
X182571572Y-67922321D02*
X182644144Y-67982798D01*
X182571572Y-68043274D01*
X182499001Y-67982798D01*
X182571572Y-67922321D01*
X182571572Y-68043274D01*
X182571572Y-67257083D02*
X182644144Y-67317560D01*
X182571572Y-67378036D01*
X182499001Y-67317560D01*
X182571572Y-67257083D01*
X182571572Y-67378036D01*
X183515000Y-67317560D02*
X183369858Y-67257083D01*
X183297286Y-67196607D01*
X183224715Y-67075655D01*
X183224715Y-67015179D01*
X183297286Y-66894226D01*
X183369858Y-66833750D01*
X183515000Y-66773274D01*
X183805286Y-66773274D01*
X183950429Y-66833750D01*
X184023000Y-66894226D01*
X184095572Y-67015179D01*
X184095572Y-67075655D01*
X184023000Y-67196607D01*
X183950429Y-67257083D01*
X183805286Y-67317560D01*
X183515000Y-67317560D01*
X183369858Y-67378036D01*
X183297286Y-67438512D01*
X183224715Y-67559464D01*
X183224715Y-67801369D01*
X183297286Y-67922321D01*
X183369858Y-67982798D01*
X183515000Y-68043274D01*
X183805286Y-68043274D01*
X183950429Y-67982798D01*
X184023000Y-67922321D01*
X184095572Y-67801369D01*
X184095572Y-67559464D01*
X184023000Y-67438512D01*
X183950429Y-67378036D01*
X183805286Y-67317560D01*
X180975000Y-69948274D02*
X180975000Y-68678274D01*
X196904429Y-67982798D02*
X197122143Y-68043274D01*
X197485000Y-68043274D01*
X197630143Y-67982798D01*
X197702714Y-67922321D01*
X197775286Y-67801369D01*
X197775286Y-67680417D01*
X197702714Y-67559464D01*
X197630143Y-67498988D01*
X197485000Y-67438512D01*
X197194714Y-67378036D01*
X197049572Y-67317560D01*
X196977000Y-67257083D01*
X196904429Y-67136131D01*
X196904429Y-67015179D01*
X196977000Y-66894226D01*
X197049572Y-66833750D01*
X197194714Y-66773274D01*
X197557572Y-66773274D01*
X197775286Y-66833750D01*
X198283286Y-66773274D02*
X198646143Y-68043274D01*
X198936429Y-67136131D01*
X199226715Y-68043274D01*
X199589572Y-66773274D01*
X200460429Y-66773274D02*
X200605572Y-66773274D01*
X200750715Y-66833750D01*
X200823286Y-66894226D01*
X200895857Y-67015179D01*
X200968429Y-67257083D01*
X200968429Y-67559464D01*
X200895857Y-67801369D01*
X200823286Y-67922321D01*
X200750715Y-67982798D01*
X200605572Y-68043274D01*
X200460429Y-68043274D01*
X200315286Y-67982798D01*
X200242715Y-67922321D01*
X200170143Y-67801369D01*
X200097572Y-67559464D01*
X200097572Y-67257083D01*
X200170143Y-67015179D01*
X200242715Y-66894226D01*
X200315286Y-66833750D01*
X200460429Y-66773274D01*
X201621572Y-67922321D02*
X201694144Y-67982798D01*
X201621572Y-68043274D01*
X201549001Y-67982798D01*
X201621572Y-67922321D01*
X201621572Y-68043274D01*
X201621572Y-67257083D02*
X201694144Y-67317560D01*
X201621572Y-67378036D01*
X201549001Y-67317560D01*
X201621572Y-67257083D01*
X201621572Y-67378036D01*
X202419858Y-68043274D02*
X202710143Y-68043274D01*
X202855286Y-67982798D01*
X202927858Y-67922321D01*
X203073000Y-67740893D01*
X203145572Y-67498988D01*
X203145572Y-67015179D01*
X203073000Y-66894226D01*
X203000429Y-66833750D01*
X202855286Y-66773274D01*
X202565000Y-66773274D01*
X202419858Y-66833750D01*
X202347286Y-66894226D01*
X202274715Y-67015179D01*
X202274715Y-67317560D01*
X202347286Y-67438512D01*
X202419858Y-67498988D01*
X202565000Y-67559464D01*
X202855286Y-67559464D01*
X203000429Y-67498988D01*
X203073000Y-67438512D01*
X203145572Y-67317560D01*
X199879858Y-68678274D02*
X200170144Y-68678274D01*
X200315286Y-68738750D01*
X200460429Y-68859702D01*
X200533001Y-69101607D01*
X200533001Y-69524940D01*
X200460429Y-69766845D01*
X200315286Y-69887798D01*
X200170144Y-69948274D01*
X199879858Y-69948274D01*
X199734715Y-69887798D01*
X199589572Y-69766845D01*
X199517001Y-69524940D01*
X199517001Y-69101607D01*
X199589572Y-68859702D01*
X199734715Y-68738750D01*
X199879858Y-68678274D01*
X215228714Y-67982798D02*
X215446428Y-68043274D01*
X215809285Y-68043274D01*
X215954428Y-67982798D01*
X216026999Y-67922321D01*
X216099571Y-67801369D01*
X216099571Y-67680417D01*
X216026999Y-67559464D01*
X215954428Y-67498988D01*
X215809285Y-67438512D01*
X215518999Y-67378036D01*
X215373857Y-67317560D01*
X215301285Y-67257083D01*
X215228714Y-67136131D01*
X215228714Y-67015179D01*
X215301285Y-66894226D01*
X215373857Y-66833750D01*
X215518999Y-66773274D01*
X215881857Y-66773274D01*
X216099571Y-66833750D01*
X216607571Y-66773274D02*
X216970428Y-68043274D01*
X217260714Y-67136131D01*
X217551000Y-68043274D01*
X217913857Y-66773274D01*
X218784714Y-66773274D02*
X218929857Y-66773274D01*
X219075000Y-66833750D01*
X219147571Y-66894226D01*
X219220142Y-67015179D01*
X219292714Y-67257083D01*
X219292714Y-67559464D01*
X219220142Y-67801369D01*
X219147571Y-67922321D01*
X219075000Y-67982798D01*
X218929857Y-68043274D01*
X218784714Y-68043274D01*
X218639571Y-67982798D01*
X218567000Y-67922321D01*
X218494428Y-67801369D01*
X218421857Y-67559464D01*
X218421857Y-67257083D01*
X218494428Y-67015179D01*
X218567000Y-66894226D01*
X218639571Y-66833750D01*
X218784714Y-66773274D01*
X219945857Y-67922321D02*
X220018429Y-67982798D01*
X219945857Y-68043274D01*
X219873286Y-67982798D01*
X219945857Y-67922321D01*
X219945857Y-68043274D01*
X219945857Y-67257083D02*
X220018429Y-67317560D01*
X219945857Y-67378036D01*
X219873286Y-67317560D01*
X219945857Y-67257083D01*
X219945857Y-67378036D01*
X221469857Y-68043274D02*
X220599000Y-68043274D01*
X221034428Y-68043274D02*
X221034428Y-66773274D01*
X220889285Y-66954702D01*
X220744143Y-67075655D01*
X220599000Y-67136131D01*
X222413286Y-66773274D02*
X222558429Y-66773274D01*
X222703572Y-66833750D01*
X222776143Y-66894226D01*
X222848714Y-67015179D01*
X222921286Y-67257083D01*
X222921286Y-67559464D01*
X222848714Y-67801369D01*
X222776143Y-67922321D01*
X222703572Y-67982798D01*
X222558429Y-68043274D01*
X222413286Y-68043274D01*
X222268143Y-67982798D01*
X222195572Y-67922321D01*
X222123000Y-67801369D01*
X222050429Y-67559464D01*
X222050429Y-67257083D01*
X222123000Y-67015179D01*
X222195572Y-66894226D01*
X222268143Y-66833750D01*
X222413286Y-66773274D01*
X218675857Y-69948274D02*
X218675857Y-68678274D01*
X219256429Y-68678274D01*
X219401571Y-68738750D01*
X219474143Y-68799226D01*
X219546714Y-68920179D01*
X219546714Y-69101607D01*
X219474143Y-69222560D01*
X219401571Y-69283036D01*
X219256429Y-69343512D01*
X218675857Y-69343512D01*
X234278714Y-67982798D02*
X234496428Y-68043274D01*
X234859285Y-68043274D01*
X235004428Y-67982798D01*
X235076999Y-67922321D01*
X235149571Y-67801369D01*
X235149571Y-67680417D01*
X235076999Y-67559464D01*
X235004428Y-67498988D01*
X234859285Y-67438512D01*
X234568999Y-67378036D01*
X234423857Y-67317560D01*
X234351285Y-67257083D01*
X234278714Y-67136131D01*
X234278714Y-67015179D01*
X234351285Y-66894226D01*
X234423857Y-66833750D01*
X234568999Y-66773274D01*
X234931857Y-66773274D01*
X235149571Y-66833750D01*
X235657571Y-66773274D02*
X236020428Y-68043274D01*
X236310714Y-67136131D01*
X236601000Y-68043274D01*
X236963857Y-66773274D01*
X237834714Y-66773274D02*
X237979857Y-66773274D01*
X238125000Y-66833750D01*
X238197571Y-66894226D01*
X238270142Y-67015179D01*
X238342714Y-67257083D01*
X238342714Y-67559464D01*
X238270142Y-67801369D01*
X238197571Y-67922321D01*
X238125000Y-67982798D01*
X237979857Y-68043274D01*
X237834714Y-68043274D01*
X237689571Y-67982798D01*
X237617000Y-67922321D01*
X237544428Y-67801369D01*
X237471857Y-67559464D01*
X237471857Y-67257083D01*
X237544428Y-67015179D01*
X237617000Y-66894226D01*
X237689571Y-66833750D01*
X237834714Y-66773274D01*
X238995857Y-67922321D02*
X239068429Y-67982798D01*
X238995857Y-68043274D01*
X238923286Y-67982798D01*
X238995857Y-67922321D01*
X238995857Y-68043274D01*
X238995857Y-67257083D02*
X239068429Y-67317560D01*
X238995857Y-67378036D01*
X238923286Y-67317560D01*
X238995857Y-67257083D01*
X238995857Y-67378036D01*
X240519857Y-68043274D02*
X239649000Y-68043274D01*
X240084428Y-68043274D02*
X240084428Y-66773274D01*
X239939285Y-66954702D01*
X239794143Y-67075655D01*
X239649000Y-67136131D01*
X241971286Y-68043274D02*
X241100429Y-68043274D01*
X241535857Y-68043274D02*
X241535857Y-66773274D01*
X241390714Y-66954702D01*
X241245572Y-67075655D01*
X241100429Y-67136131D01*
X237000143Y-69283036D02*
X237508143Y-69283036D01*
X237725857Y-69948274D02*
X237000143Y-69948274D01*
X237000143Y-68678274D01*
X237725857Y-68678274D01*
X239395000Y-70069226D02*
X239249857Y-70008750D01*
X239104714Y-69887798D01*
X238887000Y-69706369D01*
X238741857Y-69645893D01*
X238596714Y-69645893D01*
X238669286Y-69948274D02*
X238524143Y-69887798D01*
X238379000Y-69766845D01*
X238306429Y-69524940D01*
X238306429Y-69101607D01*
X238379000Y-68859702D01*
X238524143Y-68738750D01*
X238669286Y-68678274D01*
X238959572Y-68678274D01*
X239104714Y-68738750D01*
X239249857Y-68859702D01*
X239322429Y-69101607D01*
X239322429Y-69524940D01*
X239249857Y-69766845D01*
X239104714Y-69887798D01*
X238959572Y-69948274D01*
X238669286Y-69948274D01*
X258091214Y-67982798D02*
X258308928Y-68043274D01*
X258671785Y-68043274D01*
X258816928Y-67982798D01*
X258889499Y-67922321D01*
X258962071Y-67801369D01*
X258962071Y-67680417D01*
X258889499Y-67559464D01*
X258816928Y-67498988D01*
X258671785Y-67438512D01*
X258381499Y-67378036D01*
X258236357Y-67317560D01*
X258163785Y-67257083D01*
X258091214Y-67136131D01*
X258091214Y-67015179D01*
X258163785Y-66894226D01*
X258236357Y-66833750D01*
X258381499Y-66773274D01*
X258744357Y-66773274D01*
X258962071Y-66833750D01*
X259470071Y-66773274D02*
X259832928Y-68043274D01*
X260123214Y-67136131D01*
X260413500Y-68043274D01*
X260776357Y-66773274D01*
X261647214Y-66773274D02*
X261792357Y-66773274D01*
X261937500Y-66833750D01*
X262010071Y-66894226D01*
X262082642Y-67015179D01*
X262155214Y-67257083D01*
X262155214Y-67559464D01*
X262082642Y-67801369D01*
X262010071Y-67922321D01*
X261937500Y-67982798D01*
X261792357Y-68043274D01*
X261647214Y-68043274D01*
X261502071Y-67982798D01*
X261429500Y-67922321D01*
X261356928Y-67801369D01*
X261284357Y-67559464D01*
X261284357Y-67257083D01*
X261356928Y-67015179D01*
X261429500Y-66894226D01*
X261502071Y-66833750D01*
X261647214Y-66773274D01*
X262808357Y-67922321D02*
X262880929Y-67982798D01*
X262808357Y-68043274D01*
X262735786Y-67982798D01*
X262808357Y-67922321D01*
X262808357Y-68043274D01*
X262808357Y-67257083D02*
X262880929Y-67317560D01*
X262808357Y-67378036D01*
X262735786Y-67317560D01*
X262808357Y-67257083D01*
X262808357Y-67378036D01*
X264332357Y-68043274D02*
X263461500Y-68043274D01*
X263896928Y-68043274D02*
X263896928Y-66773274D01*
X263751785Y-66954702D01*
X263606643Y-67075655D01*
X263461500Y-67136131D01*
X264912929Y-66894226D02*
X264985500Y-66833750D01*
X265130643Y-66773274D01*
X265493500Y-66773274D01*
X265638643Y-66833750D01*
X265711214Y-66894226D01*
X265783786Y-67015179D01*
X265783786Y-67136131D01*
X265711214Y-67317560D01*
X264840357Y-68043274D01*
X265783786Y-68043274D01*
X257800928Y-69283036D02*
X258018642Y-69343512D01*
X258091214Y-69403988D01*
X258163785Y-69524940D01*
X258163785Y-69706369D01*
X258091214Y-69827321D01*
X258018642Y-69887798D01*
X257873500Y-69948274D01*
X257292928Y-69948274D01*
X257292928Y-68678274D01*
X257800928Y-68678274D01*
X257946071Y-68738750D01*
X258018642Y-68799226D01*
X258091214Y-68920179D01*
X258091214Y-69041131D01*
X258018642Y-69162083D01*
X257946071Y-69222560D01*
X257800928Y-69283036D01*
X257292928Y-69283036D01*
X258744357Y-69585417D02*
X259470071Y-69585417D01*
X258599214Y-69948274D02*
X259107214Y-68678274D01*
X259615214Y-69948274D01*
X260994071Y-69827321D02*
X260921500Y-69887798D01*
X260703786Y-69948274D01*
X260558643Y-69948274D01*
X260340928Y-69887798D01*
X260195786Y-69766845D01*
X260123214Y-69645893D01*
X260050643Y-69403988D01*
X260050643Y-69222560D01*
X260123214Y-68980655D01*
X260195786Y-68859702D01*
X260340928Y-68738750D01*
X260558643Y-68678274D01*
X260703786Y-68678274D01*
X260921500Y-68738750D01*
X260994071Y-68799226D01*
X261647214Y-69948274D02*
X261647214Y-68678274D01*
X262518071Y-69948274D02*
X261864928Y-69222560D01*
X262518071Y-68678274D02*
X261647214Y-69403988D01*
X262808357Y-70069226D02*
X263969500Y-70069226D01*
X264259786Y-69887798D02*
X264477500Y-69948274D01*
X264840357Y-69948274D01*
X264985500Y-69887798D01*
X265058071Y-69827321D01*
X265130643Y-69706369D01*
X265130643Y-69585417D01*
X265058071Y-69464464D01*
X264985500Y-69403988D01*
X264840357Y-69343512D01*
X264550071Y-69283036D01*
X264404929Y-69222560D01*
X264332357Y-69162083D01*
X264259786Y-69041131D01*
X264259786Y-68920179D01*
X264332357Y-68799226D01*
X264404929Y-68738750D01*
X264550071Y-68678274D01*
X264912929Y-68678274D01*
X265130643Y-68738750D01*
X265783786Y-69948274D02*
X265783786Y-68678274D01*
X266364358Y-68678274D01*
X266509500Y-68738750D01*
X266582072Y-68799226D01*
X266654643Y-68920179D01*
X266654643Y-69101607D01*
X266582072Y-69222560D01*
X266509500Y-69283036D01*
X266364358Y-69343512D01*
X265783786Y-69343512D01*
X27835679Y-87032798D02*
X28053393Y-87093274D01*
X28416250Y-87093274D01*
X28561393Y-87032798D01*
X28633964Y-86972321D01*
X28706536Y-86851369D01*
X28706536Y-86730417D01*
X28633964Y-86609464D01*
X28561393Y-86548988D01*
X28416250Y-86488512D01*
X28125964Y-86428036D01*
X27980822Y-86367560D01*
X27908250Y-86307083D01*
X27835679Y-86186131D01*
X27835679Y-86065179D01*
X27908250Y-85944226D01*
X27980822Y-85883750D01*
X28125964Y-85823274D01*
X28488822Y-85823274D01*
X28706536Y-85883750D01*
X29214536Y-85823274D02*
X29577393Y-87093274D01*
X29867679Y-86186131D01*
X30157965Y-87093274D01*
X30520822Y-85823274D01*
X31899679Y-87093274D02*
X31028822Y-87093274D01*
X31464250Y-87093274D02*
X31464250Y-85823274D01*
X31319107Y-86004702D01*
X31173965Y-86125655D01*
X31028822Y-86186131D01*
X32552822Y-86972321D02*
X32625394Y-87032798D01*
X32552822Y-87093274D01*
X32480251Y-87032798D01*
X32552822Y-86972321D01*
X32552822Y-87093274D01*
X32552822Y-86307083D02*
X32625394Y-86367560D01*
X32552822Y-86428036D01*
X32480251Y-86367560D01*
X32552822Y-86307083D01*
X32552822Y-86428036D01*
X33568822Y-85823274D02*
X33713965Y-85823274D01*
X33859108Y-85883750D01*
X33931679Y-85944226D01*
X34004250Y-86065179D01*
X34076822Y-86307083D01*
X34076822Y-86609464D01*
X34004250Y-86851369D01*
X33931679Y-86972321D01*
X33859108Y-87032798D01*
X33713965Y-87093274D01*
X33568822Y-87093274D01*
X33423679Y-87032798D01*
X33351108Y-86972321D01*
X33278536Y-86851369D01*
X33205965Y-86609464D01*
X33205965Y-86307083D01*
X33278536Y-86065179D01*
X33351108Y-85944226D01*
X33423679Y-85883750D01*
X33568822Y-85823274D01*
X29105679Y-87728274D02*
X29976536Y-87728274D01*
X29541107Y-88998274D02*
X29541107Y-87728274D01*
X30411965Y-88635417D02*
X31137679Y-88635417D01*
X30266822Y-88998274D02*
X30774822Y-87728274D01*
X31282822Y-88998274D01*
X32298822Y-88333036D02*
X32516536Y-88393512D01*
X32589108Y-88453988D01*
X32661679Y-88574940D01*
X32661679Y-88756369D01*
X32589108Y-88877321D01*
X32516536Y-88937798D01*
X32371394Y-88998274D01*
X31790822Y-88998274D01*
X31790822Y-87728274D01*
X32298822Y-87728274D01*
X32443965Y-87788750D01*
X32516536Y-87849226D01*
X32589108Y-87970179D01*
X32589108Y-88091131D01*
X32516536Y-88212083D01*
X32443965Y-88272560D01*
X32298822Y-88333036D01*
X31790822Y-88333036D01*
X49266929Y-87032798D02*
X49484643Y-87093274D01*
X49847500Y-87093274D01*
X49992643Y-87032798D01*
X50065214Y-86972321D01*
X50137786Y-86851369D01*
X50137786Y-86730417D01*
X50065214Y-86609464D01*
X49992643Y-86548988D01*
X49847500Y-86488512D01*
X49557214Y-86428036D01*
X49412072Y-86367560D01*
X49339500Y-86307083D01*
X49266929Y-86186131D01*
X49266929Y-86065179D01*
X49339500Y-85944226D01*
X49412072Y-85883750D01*
X49557214Y-85823274D01*
X49920072Y-85823274D01*
X50137786Y-85883750D01*
X50645786Y-85823274D02*
X51008643Y-87093274D01*
X51298929Y-86186131D01*
X51589215Y-87093274D01*
X51952072Y-85823274D01*
X53330929Y-87093274D02*
X52460072Y-87093274D01*
X52895500Y-87093274D02*
X52895500Y-85823274D01*
X52750357Y-86004702D01*
X52605215Y-86125655D01*
X52460072Y-86186131D01*
X53984072Y-86972321D02*
X54056644Y-87032798D01*
X53984072Y-87093274D01*
X53911501Y-87032798D01*
X53984072Y-86972321D01*
X53984072Y-87093274D01*
X53984072Y-86307083D02*
X54056644Y-86367560D01*
X53984072Y-86428036D01*
X53911501Y-86367560D01*
X53984072Y-86307083D01*
X53984072Y-86428036D01*
X55508072Y-87093274D02*
X54637215Y-87093274D01*
X55072643Y-87093274D02*
X55072643Y-85823274D01*
X54927500Y-86004702D01*
X54782358Y-86125655D01*
X54637215Y-86186131D01*
X52024643Y-88635417D02*
X52750357Y-88635417D01*
X51879500Y-88998274D02*
X52387500Y-87728274D01*
X52895500Y-88998274D01*
X68316929Y-87032798D02*
X68534643Y-87093274D01*
X68897500Y-87093274D01*
X69042643Y-87032798D01*
X69115214Y-86972321D01*
X69187786Y-86851369D01*
X69187786Y-86730417D01*
X69115214Y-86609464D01*
X69042643Y-86548988D01*
X68897500Y-86488512D01*
X68607214Y-86428036D01*
X68462072Y-86367560D01*
X68389500Y-86307083D01*
X68316929Y-86186131D01*
X68316929Y-86065179D01*
X68389500Y-85944226D01*
X68462072Y-85883750D01*
X68607214Y-85823274D01*
X68970072Y-85823274D01*
X69187786Y-85883750D01*
X69695786Y-85823274D02*
X70058643Y-87093274D01*
X70348929Y-86186131D01*
X70639215Y-87093274D01*
X71002072Y-85823274D01*
X72380929Y-87093274D02*
X71510072Y-87093274D01*
X71945500Y-87093274D02*
X71945500Y-85823274D01*
X71800357Y-86004702D01*
X71655215Y-86125655D01*
X71510072Y-86186131D01*
X73034072Y-86972321D02*
X73106644Y-87032798D01*
X73034072Y-87093274D01*
X72961501Y-87032798D01*
X73034072Y-86972321D01*
X73034072Y-87093274D01*
X73034072Y-86307083D02*
X73106644Y-86367560D01*
X73034072Y-86428036D01*
X72961501Y-86367560D01*
X73034072Y-86307083D01*
X73034072Y-86428036D01*
X73687215Y-85944226D02*
X73759786Y-85883750D01*
X73904929Y-85823274D01*
X74267786Y-85823274D01*
X74412929Y-85883750D01*
X74485500Y-85944226D01*
X74558072Y-86065179D01*
X74558072Y-86186131D01*
X74485500Y-86367560D01*
X73614643Y-87093274D01*
X74558072Y-87093274D01*
X71002072Y-88937798D02*
X71219786Y-88998274D01*
X71582643Y-88998274D01*
X71727786Y-88937798D01*
X71800357Y-88877321D01*
X71872929Y-88756369D01*
X71872929Y-88635417D01*
X71800357Y-88514464D01*
X71727786Y-88453988D01*
X71582643Y-88393512D01*
X71292357Y-88333036D01*
X71147215Y-88272560D01*
X71074643Y-88212083D01*
X71002072Y-88091131D01*
X71002072Y-87970179D01*
X71074643Y-87849226D01*
X71147215Y-87788750D01*
X71292357Y-87728274D01*
X71655215Y-87728274D01*
X71872929Y-87788750D01*
X87366929Y-87032798D02*
X87584643Y-87093274D01*
X87947500Y-87093274D01*
X88092643Y-87032798D01*
X88165214Y-86972321D01*
X88237786Y-86851369D01*
X88237786Y-86730417D01*
X88165214Y-86609464D01*
X88092643Y-86548988D01*
X87947500Y-86488512D01*
X87657214Y-86428036D01*
X87512072Y-86367560D01*
X87439500Y-86307083D01*
X87366929Y-86186131D01*
X87366929Y-86065179D01*
X87439500Y-85944226D01*
X87512072Y-85883750D01*
X87657214Y-85823274D01*
X88020072Y-85823274D01*
X88237786Y-85883750D01*
X88745786Y-85823274D02*
X89108643Y-87093274D01*
X89398929Y-86186131D01*
X89689215Y-87093274D01*
X90052072Y-85823274D01*
X91430929Y-87093274D02*
X90560072Y-87093274D01*
X90995500Y-87093274D02*
X90995500Y-85823274D01*
X90850357Y-86004702D01*
X90705215Y-86125655D01*
X90560072Y-86186131D01*
X92084072Y-86972321D02*
X92156644Y-87032798D01*
X92084072Y-87093274D01*
X92011501Y-87032798D01*
X92084072Y-86972321D01*
X92084072Y-87093274D01*
X92084072Y-86307083D02*
X92156644Y-86367560D01*
X92084072Y-86428036D01*
X92011501Y-86367560D01*
X92084072Y-86307083D01*
X92084072Y-86428036D01*
X92664643Y-85823274D02*
X93608072Y-85823274D01*
X93100072Y-86307083D01*
X93317786Y-86307083D01*
X93462929Y-86367560D01*
X93535500Y-86428036D01*
X93608072Y-86548988D01*
X93608072Y-86851369D01*
X93535500Y-86972321D01*
X93462929Y-87032798D01*
X93317786Y-87093274D01*
X92882358Y-87093274D01*
X92737215Y-87032798D01*
X92664643Y-86972321D01*
X90088357Y-88998274D02*
X90088357Y-87728274D01*
X90451214Y-87728274D01*
X90668929Y-87788750D01*
X90814071Y-87909702D01*
X90886643Y-88030655D01*
X90959214Y-88272560D01*
X90959214Y-88453988D01*
X90886643Y-88695893D01*
X90814071Y-88816845D01*
X90668929Y-88937798D01*
X90451214Y-88998274D01*
X90088357Y-88998274D01*
X106416929Y-87032798D02*
X106634643Y-87093274D01*
X106997500Y-87093274D01*
X107142643Y-87032798D01*
X107215214Y-86972321D01*
X107287786Y-86851369D01*
X107287786Y-86730417D01*
X107215214Y-86609464D01*
X107142643Y-86548988D01*
X106997500Y-86488512D01*
X106707214Y-86428036D01*
X106562072Y-86367560D01*
X106489500Y-86307083D01*
X106416929Y-86186131D01*
X106416929Y-86065179D01*
X106489500Y-85944226D01*
X106562072Y-85883750D01*
X106707214Y-85823274D01*
X107070072Y-85823274D01*
X107287786Y-85883750D01*
X107795786Y-85823274D02*
X108158643Y-87093274D01*
X108448929Y-86186131D01*
X108739215Y-87093274D01*
X109102072Y-85823274D01*
X110480929Y-87093274D02*
X109610072Y-87093274D01*
X110045500Y-87093274D02*
X110045500Y-85823274D01*
X109900357Y-86004702D01*
X109755215Y-86125655D01*
X109610072Y-86186131D01*
X111134072Y-86972321D02*
X111206644Y-87032798D01*
X111134072Y-87093274D01*
X111061501Y-87032798D01*
X111134072Y-86972321D01*
X111134072Y-87093274D01*
X111134072Y-86307083D02*
X111206644Y-86367560D01*
X111134072Y-86428036D01*
X111061501Y-86367560D01*
X111134072Y-86307083D01*
X111134072Y-86428036D01*
X112512929Y-86246607D02*
X112512929Y-87093274D01*
X112150072Y-85762798D02*
X111787215Y-86669940D01*
X112730643Y-86669940D01*
X109755214Y-88333036D02*
X109247214Y-88333036D01*
X109247214Y-88998274D02*
X109247214Y-87728274D01*
X109972928Y-87728274D01*
X125466929Y-87032798D02*
X125684643Y-87093274D01*
X126047500Y-87093274D01*
X126192643Y-87032798D01*
X126265214Y-86972321D01*
X126337786Y-86851369D01*
X126337786Y-86730417D01*
X126265214Y-86609464D01*
X126192643Y-86548988D01*
X126047500Y-86488512D01*
X125757214Y-86428036D01*
X125612072Y-86367560D01*
X125539500Y-86307083D01*
X125466929Y-86186131D01*
X125466929Y-86065179D01*
X125539500Y-85944226D01*
X125612072Y-85883750D01*
X125757214Y-85823274D01*
X126120072Y-85823274D01*
X126337786Y-85883750D01*
X126845786Y-85823274D02*
X127208643Y-87093274D01*
X127498929Y-86186131D01*
X127789215Y-87093274D01*
X128152072Y-85823274D01*
X129530929Y-87093274D02*
X128660072Y-87093274D01*
X129095500Y-87093274D02*
X129095500Y-85823274D01*
X128950357Y-86004702D01*
X128805215Y-86125655D01*
X128660072Y-86186131D01*
X130184072Y-86972321D02*
X130256644Y-87032798D01*
X130184072Y-87093274D01*
X130111501Y-87032798D01*
X130184072Y-86972321D01*
X130184072Y-87093274D01*
X130184072Y-86307083D02*
X130256644Y-86367560D01*
X130184072Y-86428036D01*
X130111501Y-86367560D01*
X130184072Y-86307083D01*
X130184072Y-86428036D01*
X131635500Y-85823274D02*
X130909786Y-85823274D01*
X130837215Y-86428036D01*
X130909786Y-86367560D01*
X131054929Y-86307083D01*
X131417786Y-86307083D01*
X131562929Y-86367560D01*
X131635500Y-86428036D01*
X131708072Y-86548988D01*
X131708072Y-86851369D01*
X131635500Y-86972321D01*
X131562929Y-87032798D01*
X131417786Y-87093274D01*
X131054929Y-87093274D01*
X130909786Y-87032798D01*
X130837215Y-86972321D01*
X128986643Y-87788750D02*
X128841500Y-87728274D01*
X128623786Y-87728274D01*
X128406071Y-87788750D01*
X128260929Y-87909702D01*
X128188357Y-88030655D01*
X128115786Y-88272560D01*
X128115786Y-88453988D01*
X128188357Y-88695893D01*
X128260929Y-88816845D01*
X128406071Y-88937798D01*
X128623786Y-88998274D01*
X128768929Y-88998274D01*
X128986643Y-88937798D01*
X129059214Y-88877321D01*
X129059214Y-88453988D01*
X128768929Y-88453988D01*
X144516929Y-87032798D02*
X144734643Y-87093274D01*
X145097500Y-87093274D01*
X145242643Y-87032798D01*
X145315214Y-86972321D01*
X145387786Y-86851369D01*
X145387786Y-86730417D01*
X145315214Y-86609464D01*
X145242643Y-86548988D01*
X145097500Y-86488512D01*
X144807214Y-86428036D01*
X144662072Y-86367560D01*
X144589500Y-86307083D01*
X144516929Y-86186131D01*
X144516929Y-86065179D01*
X144589500Y-85944226D01*
X144662072Y-85883750D01*
X144807214Y-85823274D01*
X145170072Y-85823274D01*
X145387786Y-85883750D01*
X145895786Y-85823274D02*
X146258643Y-87093274D01*
X146548929Y-86186131D01*
X146839215Y-87093274D01*
X147202072Y-85823274D01*
X148580929Y-87093274D02*
X147710072Y-87093274D01*
X148145500Y-87093274D02*
X148145500Y-85823274D01*
X148000357Y-86004702D01*
X147855215Y-86125655D01*
X147710072Y-86186131D01*
X149234072Y-86972321D02*
X149306644Y-87032798D01*
X149234072Y-87093274D01*
X149161501Y-87032798D01*
X149234072Y-86972321D01*
X149234072Y-87093274D01*
X149234072Y-86307083D02*
X149306644Y-86367560D01*
X149234072Y-86428036D01*
X149161501Y-86367560D01*
X149234072Y-86307083D01*
X149234072Y-86428036D01*
X150612929Y-85823274D02*
X150322643Y-85823274D01*
X150177500Y-85883750D01*
X150104929Y-85944226D01*
X149959786Y-86125655D01*
X149887215Y-86367560D01*
X149887215Y-86851369D01*
X149959786Y-86972321D01*
X150032358Y-87032798D01*
X150177500Y-87093274D01*
X150467786Y-87093274D01*
X150612929Y-87032798D01*
X150685500Y-86972321D01*
X150758072Y-86851369D01*
X150758072Y-86548988D01*
X150685500Y-86428036D01*
X150612929Y-86367560D01*
X150467786Y-86307083D01*
X150177500Y-86307083D01*
X150032358Y-86367560D01*
X149959786Y-86428036D01*
X149887215Y-86548988D01*
X147202072Y-88998274D02*
X147202072Y-87728274D01*
X147202072Y-88333036D02*
X148072929Y-88333036D01*
X148072929Y-88998274D02*
X148072929Y-87728274D01*
X163566929Y-87032798D02*
X163784643Y-87093274D01*
X164147500Y-87093274D01*
X164292643Y-87032798D01*
X164365214Y-86972321D01*
X164437786Y-86851369D01*
X164437786Y-86730417D01*
X164365214Y-86609464D01*
X164292643Y-86548988D01*
X164147500Y-86488512D01*
X163857214Y-86428036D01*
X163712072Y-86367560D01*
X163639500Y-86307083D01*
X163566929Y-86186131D01*
X163566929Y-86065179D01*
X163639500Y-85944226D01*
X163712072Y-85883750D01*
X163857214Y-85823274D01*
X164220072Y-85823274D01*
X164437786Y-85883750D01*
X164945786Y-85823274D02*
X165308643Y-87093274D01*
X165598929Y-86186131D01*
X165889215Y-87093274D01*
X166252072Y-85823274D01*
X167630929Y-87093274D02*
X166760072Y-87093274D01*
X167195500Y-87093274D02*
X167195500Y-85823274D01*
X167050357Y-86004702D01*
X166905215Y-86125655D01*
X166760072Y-86186131D01*
X168284072Y-86972321D02*
X168356644Y-87032798D01*
X168284072Y-87093274D01*
X168211501Y-87032798D01*
X168284072Y-86972321D01*
X168284072Y-87093274D01*
X168284072Y-86307083D02*
X168356644Y-86367560D01*
X168284072Y-86428036D01*
X168211501Y-86367560D01*
X168284072Y-86307083D01*
X168284072Y-86428036D01*
X168864643Y-85823274D02*
X169880643Y-85823274D01*
X169227500Y-87093274D01*
X166905215Y-87728274D02*
X166905215Y-88635417D01*
X166832643Y-88816845D01*
X166687500Y-88937798D01*
X166469786Y-88998274D01*
X166324643Y-88998274D01*
X182616929Y-87032798D02*
X182834643Y-87093274D01*
X183197500Y-87093274D01*
X183342643Y-87032798D01*
X183415214Y-86972321D01*
X183487786Y-86851369D01*
X183487786Y-86730417D01*
X183415214Y-86609464D01*
X183342643Y-86548988D01*
X183197500Y-86488512D01*
X182907214Y-86428036D01*
X182762072Y-86367560D01*
X182689500Y-86307083D01*
X182616929Y-86186131D01*
X182616929Y-86065179D01*
X182689500Y-85944226D01*
X182762072Y-85883750D01*
X182907214Y-85823274D01*
X183270072Y-85823274D01*
X183487786Y-85883750D01*
X183995786Y-85823274D02*
X184358643Y-87093274D01*
X184648929Y-86186131D01*
X184939215Y-87093274D01*
X185302072Y-85823274D01*
X186680929Y-87093274D02*
X185810072Y-87093274D01*
X186245500Y-87093274D02*
X186245500Y-85823274D01*
X186100357Y-86004702D01*
X185955215Y-86125655D01*
X185810072Y-86186131D01*
X187334072Y-86972321D02*
X187406644Y-87032798D01*
X187334072Y-87093274D01*
X187261501Y-87032798D01*
X187334072Y-86972321D01*
X187334072Y-87093274D01*
X187334072Y-86307083D02*
X187406644Y-86367560D01*
X187334072Y-86428036D01*
X187261501Y-86367560D01*
X187334072Y-86307083D01*
X187334072Y-86428036D01*
X188277500Y-86367560D02*
X188132358Y-86307083D01*
X188059786Y-86246607D01*
X187987215Y-86125655D01*
X187987215Y-86065179D01*
X188059786Y-85944226D01*
X188132358Y-85883750D01*
X188277500Y-85823274D01*
X188567786Y-85823274D01*
X188712929Y-85883750D01*
X188785500Y-85944226D01*
X188858072Y-86065179D01*
X188858072Y-86125655D01*
X188785500Y-86246607D01*
X188712929Y-86307083D01*
X188567786Y-86367560D01*
X188277500Y-86367560D01*
X188132358Y-86428036D01*
X188059786Y-86488512D01*
X187987215Y-86609464D01*
X187987215Y-86851369D01*
X188059786Y-86972321D01*
X188132358Y-87032798D01*
X188277500Y-87093274D01*
X188567786Y-87093274D01*
X188712929Y-87032798D01*
X188785500Y-86972321D01*
X188858072Y-86851369D01*
X188858072Y-86609464D01*
X188785500Y-86488512D01*
X188712929Y-86428036D01*
X188567786Y-86367560D01*
X185338357Y-88998274D02*
X185338357Y-87728274D01*
X186209214Y-88998274D02*
X185556071Y-88272560D01*
X186209214Y-87728274D02*
X185338357Y-88453988D01*
X201666929Y-87032798D02*
X201884643Y-87093274D01*
X202247500Y-87093274D01*
X202392643Y-87032798D01*
X202465214Y-86972321D01*
X202537786Y-86851369D01*
X202537786Y-86730417D01*
X202465214Y-86609464D01*
X202392643Y-86548988D01*
X202247500Y-86488512D01*
X201957214Y-86428036D01*
X201812072Y-86367560D01*
X201739500Y-86307083D01*
X201666929Y-86186131D01*
X201666929Y-86065179D01*
X201739500Y-85944226D01*
X201812072Y-85883750D01*
X201957214Y-85823274D01*
X202320072Y-85823274D01*
X202537786Y-85883750D01*
X203045786Y-85823274D02*
X203408643Y-87093274D01*
X203698929Y-86186131D01*
X203989215Y-87093274D01*
X204352072Y-85823274D01*
X205730929Y-87093274D02*
X204860072Y-87093274D01*
X205295500Y-87093274D02*
X205295500Y-85823274D01*
X205150357Y-86004702D01*
X205005215Y-86125655D01*
X204860072Y-86186131D01*
X206384072Y-86972321D02*
X206456644Y-87032798D01*
X206384072Y-87093274D01*
X206311501Y-87032798D01*
X206384072Y-86972321D01*
X206384072Y-87093274D01*
X206384072Y-86307083D02*
X206456644Y-86367560D01*
X206384072Y-86428036D01*
X206311501Y-86367560D01*
X206384072Y-86307083D01*
X206384072Y-86428036D01*
X207182358Y-87093274D02*
X207472643Y-87093274D01*
X207617786Y-87032798D01*
X207690358Y-86972321D01*
X207835500Y-86790893D01*
X207908072Y-86548988D01*
X207908072Y-86065179D01*
X207835500Y-85944226D01*
X207762929Y-85883750D01*
X207617786Y-85823274D01*
X207327500Y-85823274D01*
X207182358Y-85883750D01*
X207109786Y-85944226D01*
X207037215Y-86065179D01*
X207037215Y-86367560D01*
X207109786Y-86488512D01*
X207182358Y-86548988D01*
X207327500Y-86609464D01*
X207617786Y-86609464D01*
X207762929Y-86548988D01*
X207835500Y-86488512D01*
X207908072Y-86367560D01*
X205259214Y-88998274D02*
X204533500Y-88998274D01*
X204533500Y-87728274D01*
X219991214Y-87032798D02*
X220208928Y-87093274D01*
X220571785Y-87093274D01*
X220716928Y-87032798D01*
X220789499Y-86972321D01*
X220862071Y-86851369D01*
X220862071Y-86730417D01*
X220789499Y-86609464D01*
X220716928Y-86548988D01*
X220571785Y-86488512D01*
X220281499Y-86428036D01*
X220136357Y-86367560D01*
X220063785Y-86307083D01*
X219991214Y-86186131D01*
X219991214Y-86065179D01*
X220063785Y-85944226D01*
X220136357Y-85883750D01*
X220281499Y-85823274D01*
X220644357Y-85823274D01*
X220862071Y-85883750D01*
X221370071Y-85823274D02*
X221732928Y-87093274D01*
X222023214Y-86186131D01*
X222313500Y-87093274D01*
X222676357Y-85823274D01*
X224055214Y-87093274D02*
X223184357Y-87093274D01*
X223619785Y-87093274D02*
X223619785Y-85823274D01*
X223474642Y-86004702D01*
X223329500Y-86125655D01*
X223184357Y-86186131D01*
X224708357Y-86972321D02*
X224780929Y-87032798D01*
X224708357Y-87093274D01*
X224635786Y-87032798D01*
X224708357Y-86972321D01*
X224708357Y-87093274D01*
X224708357Y-86307083D02*
X224780929Y-86367560D01*
X224708357Y-86428036D01*
X224635786Y-86367560D01*
X224708357Y-86307083D01*
X224708357Y-86428036D01*
X226232357Y-87093274D02*
X225361500Y-87093274D01*
X225796928Y-87093274D02*
X225796928Y-85823274D01*
X225651785Y-86004702D01*
X225506643Y-86125655D01*
X225361500Y-86186131D01*
X227175786Y-85823274D02*
X227320929Y-85823274D01*
X227466072Y-85883750D01*
X227538643Y-85944226D01*
X227611214Y-86065179D01*
X227683786Y-86307083D01*
X227683786Y-86609464D01*
X227611214Y-86851369D01*
X227538643Y-86972321D01*
X227466072Y-87032798D01*
X227320929Y-87093274D01*
X227175786Y-87093274D01*
X227030643Y-87032798D01*
X226958072Y-86972321D01*
X226885500Y-86851369D01*
X226812929Y-86609464D01*
X226812929Y-86307083D01*
X226885500Y-86065179D01*
X226958072Y-85944226D01*
X227030643Y-85883750D01*
X227175786Y-85823274D01*
X222894072Y-88877321D02*
X222821501Y-88937798D01*
X222603787Y-88998274D01*
X222458644Y-88998274D01*
X222240929Y-88937798D01*
X222095787Y-88816845D01*
X222023215Y-88695893D01*
X221950644Y-88453988D01*
X221950644Y-88272560D01*
X222023215Y-88030655D01*
X222095787Y-87909702D01*
X222240929Y-87788750D01*
X222458644Y-87728274D01*
X222603787Y-87728274D01*
X222821501Y-87788750D01*
X222894072Y-87849226D01*
X223837501Y-87728274D02*
X224127787Y-87728274D01*
X224272929Y-87788750D01*
X224418072Y-87909702D01*
X224490644Y-88151607D01*
X224490644Y-88574940D01*
X224418072Y-88816845D01*
X224272929Y-88937798D01*
X224127787Y-88998274D01*
X223837501Y-88998274D01*
X223692358Y-88937798D01*
X223547215Y-88816845D01*
X223474644Y-88574940D01*
X223474644Y-88151607D01*
X223547215Y-87909702D01*
X223692358Y-87788750D01*
X223837501Y-87728274D01*
X225869500Y-88998274D02*
X225143786Y-88998274D01*
X225143786Y-87728274D01*
X250947464Y-87032798D02*
X251165178Y-87093274D01*
X251528035Y-87093274D01*
X251673178Y-87032798D01*
X251745749Y-86972321D01*
X251818321Y-86851369D01*
X251818321Y-86730417D01*
X251745749Y-86609464D01*
X251673178Y-86548988D01*
X251528035Y-86488512D01*
X251237749Y-86428036D01*
X251092607Y-86367560D01*
X251020035Y-86307083D01*
X250947464Y-86186131D01*
X250947464Y-86065179D01*
X251020035Y-85944226D01*
X251092607Y-85883750D01*
X251237749Y-85823274D01*
X251600607Y-85823274D01*
X251818321Y-85883750D01*
X252326321Y-85823274D02*
X252689178Y-87093274D01*
X252979464Y-86186131D01*
X253269750Y-87093274D01*
X253632607Y-85823274D01*
X255011464Y-87093274D02*
X254140607Y-87093274D01*
X254576035Y-87093274D02*
X254576035Y-85823274D01*
X254430892Y-86004702D01*
X254285750Y-86125655D01*
X254140607Y-86186131D01*
X255664607Y-86972321D02*
X255737179Y-87032798D01*
X255664607Y-87093274D01*
X255592036Y-87032798D01*
X255664607Y-86972321D01*
X255664607Y-87093274D01*
X255664607Y-86307083D02*
X255737179Y-86367560D01*
X255664607Y-86428036D01*
X255592036Y-86367560D01*
X255664607Y-86307083D01*
X255664607Y-86428036D01*
X257188607Y-87093274D02*
X256317750Y-87093274D01*
X256753178Y-87093274D02*
X256753178Y-85823274D01*
X256608035Y-86004702D01*
X256462893Y-86125655D01*
X256317750Y-86186131D01*
X258640036Y-87093274D02*
X257769179Y-87093274D01*
X258204607Y-87093274D02*
X258204607Y-85823274D01*
X258059464Y-86004702D01*
X257914322Y-86125655D01*
X257769179Y-86186131D01*
X251636893Y-88333036D02*
X252144893Y-88333036D01*
X252362607Y-88998274D02*
X251636893Y-88998274D01*
X251636893Y-87728274D01*
X252362607Y-87728274D01*
X253015750Y-88998274D02*
X253015750Y-87728274D01*
X253886607Y-88998274D01*
X253886607Y-87728274D01*
X254394607Y-87728274D02*
X255265464Y-87728274D01*
X254830035Y-88998274D02*
X254830035Y-87728274D01*
X255773464Y-88333036D02*
X256281464Y-88333036D01*
X256499178Y-88998274D02*
X255773464Y-88998274D01*
X255773464Y-87728274D01*
X256499178Y-87728274D01*
X258023178Y-88998274D02*
X257515178Y-88393512D01*
X257152321Y-88998274D02*
X257152321Y-87728274D01*
X257732893Y-87728274D01*
X257878035Y-87788750D01*
X257950607Y-87849226D01*
X258023178Y-87970179D01*
X258023178Y-88151607D01*
X257950607Y-88272560D01*
X257878035Y-88333036D01*
X257732893Y-88393512D01*
X257152321Y-88393512D01*
X32598179Y-106082798D02*
X32815893Y-106143274D01*
X33178750Y-106143274D01*
X33323893Y-106082798D01*
X33396464Y-106022321D01*
X33469036Y-105901369D01*
X33469036Y-105780417D01*
X33396464Y-105659464D01*
X33323893Y-105598988D01*
X33178750Y-105538512D01*
X32888464Y-105478036D01*
X32743322Y-105417560D01*
X32670750Y-105357083D01*
X32598179Y-105236131D01*
X32598179Y-105115179D01*
X32670750Y-104994226D01*
X32743322Y-104933750D01*
X32888464Y-104873274D01*
X33251322Y-104873274D01*
X33469036Y-104933750D01*
X33977036Y-104873274D02*
X34339893Y-106143274D01*
X34630179Y-105236131D01*
X34920465Y-106143274D01*
X35283322Y-104873274D01*
X35791322Y-104994226D02*
X35863893Y-104933750D01*
X36009036Y-104873274D01*
X36371893Y-104873274D01*
X36517036Y-104933750D01*
X36589607Y-104994226D01*
X36662179Y-105115179D01*
X36662179Y-105236131D01*
X36589607Y-105417560D01*
X35718750Y-106143274D01*
X36662179Y-106143274D01*
X37315322Y-106022321D02*
X37387894Y-106082798D01*
X37315322Y-106143274D01*
X37242751Y-106082798D01*
X37315322Y-106022321D01*
X37315322Y-106143274D01*
X37315322Y-105357083D02*
X37387894Y-105417560D01*
X37315322Y-105478036D01*
X37242751Y-105417560D01*
X37315322Y-105357083D01*
X37315322Y-105478036D01*
X38331322Y-104873274D02*
X38476465Y-104873274D01*
X38621608Y-104933750D01*
X38694179Y-104994226D01*
X38766750Y-105115179D01*
X38839322Y-105357083D01*
X38839322Y-105659464D01*
X38766750Y-105901369D01*
X38694179Y-106022321D01*
X38621608Y-106082798D01*
X38476465Y-106143274D01*
X38331322Y-106143274D01*
X38186179Y-106082798D01*
X38113608Y-106022321D01*
X38041036Y-105901369D01*
X37968465Y-105659464D01*
X37968465Y-105357083D01*
X38041036Y-105115179D01*
X38113608Y-104994226D01*
X38186179Y-104933750D01*
X38331322Y-104873274D01*
X32489321Y-108048274D02*
X31763607Y-108048274D01*
X31763607Y-106778274D01*
X32634464Y-108169226D02*
X33795607Y-108169226D01*
X34085893Y-107987798D02*
X34303607Y-108048274D01*
X34666464Y-108048274D01*
X34811607Y-107987798D01*
X34884178Y-107927321D01*
X34956750Y-107806369D01*
X34956750Y-107685417D01*
X34884178Y-107564464D01*
X34811607Y-107503988D01*
X34666464Y-107443512D01*
X34376178Y-107383036D01*
X34231036Y-107322560D01*
X34158464Y-107262083D01*
X34085893Y-107141131D01*
X34085893Y-107020179D01*
X34158464Y-106899226D01*
X34231036Y-106838750D01*
X34376178Y-106778274D01*
X34739036Y-106778274D01*
X34956750Y-106838750D01*
X35609893Y-108048274D02*
X35609893Y-106778274D01*
X35609893Y-107383036D02*
X36480750Y-107383036D01*
X36480750Y-108048274D02*
X36480750Y-106778274D01*
X37206464Y-108048274D02*
X37206464Y-106778274D01*
X38440178Y-107383036D02*
X37932178Y-107383036D01*
X37932178Y-108048274D02*
X37932178Y-106778274D01*
X38657892Y-106778274D01*
X39020750Y-106778274D02*
X39891607Y-106778274D01*
X39456178Y-108048274D02*
X39456178Y-106778274D01*
X58791929Y-106082798D02*
X59009643Y-106143274D01*
X59372500Y-106143274D01*
X59517643Y-106082798D01*
X59590214Y-106022321D01*
X59662786Y-105901369D01*
X59662786Y-105780417D01*
X59590214Y-105659464D01*
X59517643Y-105598988D01*
X59372500Y-105538512D01*
X59082214Y-105478036D01*
X58937072Y-105417560D01*
X58864500Y-105357083D01*
X58791929Y-105236131D01*
X58791929Y-105115179D01*
X58864500Y-104994226D01*
X58937072Y-104933750D01*
X59082214Y-104873274D01*
X59445072Y-104873274D01*
X59662786Y-104933750D01*
X60170786Y-104873274D02*
X60533643Y-106143274D01*
X60823929Y-105236131D01*
X61114215Y-106143274D01*
X61477072Y-104873274D01*
X61985072Y-104994226D02*
X62057643Y-104933750D01*
X62202786Y-104873274D01*
X62565643Y-104873274D01*
X62710786Y-104933750D01*
X62783357Y-104994226D01*
X62855929Y-105115179D01*
X62855929Y-105236131D01*
X62783357Y-105417560D01*
X61912500Y-106143274D01*
X62855929Y-106143274D01*
X63509072Y-106022321D02*
X63581644Y-106082798D01*
X63509072Y-106143274D01*
X63436501Y-106082798D01*
X63509072Y-106022321D01*
X63509072Y-106143274D01*
X63509072Y-105357083D02*
X63581644Y-105417560D01*
X63509072Y-105478036D01*
X63436501Y-105417560D01*
X63509072Y-105357083D01*
X63509072Y-105478036D01*
X65033072Y-106143274D02*
X64162215Y-106143274D01*
X64597643Y-106143274D02*
X64597643Y-104873274D01*
X64452500Y-105054702D01*
X64307358Y-105175655D01*
X64162215Y-105236131D01*
X61404500Y-106778274D02*
X62420500Y-106778274D01*
X61404500Y-108048274D01*
X62420500Y-108048274D01*
X77841929Y-106082798D02*
X78059643Y-106143274D01*
X78422500Y-106143274D01*
X78567643Y-106082798D01*
X78640214Y-106022321D01*
X78712786Y-105901369D01*
X78712786Y-105780417D01*
X78640214Y-105659464D01*
X78567643Y-105598988D01*
X78422500Y-105538512D01*
X78132214Y-105478036D01*
X77987072Y-105417560D01*
X77914500Y-105357083D01*
X77841929Y-105236131D01*
X77841929Y-105115179D01*
X77914500Y-104994226D01*
X77987072Y-104933750D01*
X78132214Y-104873274D01*
X78495072Y-104873274D01*
X78712786Y-104933750D01*
X79220786Y-104873274D02*
X79583643Y-106143274D01*
X79873929Y-105236131D01*
X80164215Y-106143274D01*
X80527072Y-104873274D01*
X81035072Y-104994226D02*
X81107643Y-104933750D01*
X81252786Y-104873274D01*
X81615643Y-104873274D01*
X81760786Y-104933750D01*
X81833357Y-104994226D01*
X81905929Y-105115179D01*
X81905929Y-105236131D01*
X81833357Y-105417560D01*
X80962500Y-106143274D01*
X81905929Y-106143274D01*
X82559072Y-106022321D02*
X82631644Y-106082798D01*
X82559072Y-106143274D01*
X82486501Y-106082798D01*
X82559072Y-106022321D01*
X82559072Y-106143274D01*
X82559072Y-105357083D02*
X82631644Y-105417560D01*
X82559072Y-105478036D01*
X82486501Y-105417560D01*
X82559072Y-105357083D01*
X82559072Y-105478036D01*
X83212215Y-104994226D02*
X83284786Y-104933750D01*
X83429929Y-104873274D01*
X83792786Y-104873274D01*
X83937929Y-104933750D01*
X84010500Y-104994226D01*
X84083072Y-105115179D01*
X84083072Y-105236131D01*
X84010500Y-105417560D01*
X83139643Y-106143274D01*
X84083072Y-106143274D01*
X80454500Y-106778274D02*
X81470500Y-108048274D01*
X81470500Y-106778274D02*
X80454500Y-108048274D01*
X96891929Y-106082798D02*
X97109643Y-106143274D01*
X97472500Y-106143274D01*
X97617643Y-106082798D01*
X97690214Y-106022321D01*
X97762786Y-105901369D01*
X97762786Y-105780417D01*
X97690214Y-105659464D01*
X97617643Y-105598988D01*
X97472500Y-105538512D01*
X97182214Y-105478036D01*
X97037072Y-105417560D01*
X96964500Y-105357083D01*
X96891929Y-105236131D01*
X96891929Y-105115179D01*
X96964500Y-104994226D01*
X97037072Y-104933750D01*
X97182214Y-104873274D01*
X97545072Y-104873274D01*
X97762786Y-104933750D01*
X98270786Y-104873274D02*
X98633643Y-106143274D01*
X98923929Y-105236131D01*
X99214215Y-106143274D01*
X99577072Y-104873274D01*
X100085072Y-104994226D02*
X100157643Y-104933750D01*
X100302786Y-104873274D01*
X100665643Y-104873274D01*
X100810786Y-104933750D01*
X100883357Y-104994226D01*
X100955929Y-105115179D01*
X100955929Y-105236131D01*
X100883357Y-105417560D01*
X100012500Y-106143274D01*
X100955929Y-106143274D01*
X101609072Y-106022321D02*
X101681644Y-106082798D01*
X101609072Y-106143274D01*
X101536501Y-106082798D01*
X101609072Y-106022321D01*
X101609072Y-106143274D01*
X101609072Y-105357083D02*
X101681644Y-105417560D01*
X101609072Y-105478036D01*
X101536501Y-105417560D01*
X101609072Y-105357083D01*
X101609072Y-105478036D01*
X102189643Y-104873274D02*
X103133072Y-104873274D01*
X102625072Y-105357083D01*
X102842786Y-105357083D01*
X102987929Y-105417560D01*
X103060500Y-105478036D01*
X103133072Y-105598988D01*
X103133072Y-105901369D01*
X103060500Y-106022321D01*
X102987929Y-106082798D01*
X102842786Y-106143274D01*
X102407358Y-106143274D01*
X102262215Y-106082798D01*
X102189643Y-106022321D01*
X100484214Y-107927321D02*
X100411643Y-107987798D01*
X100193929Y-108048274D01*
X100048786Y-108048274D01*
X99831071Y-107987798D01*
X99685929Y-107866845D01*
X99613357Y-107745893D01*
X99540786Y-107503988D01*
X99540786Y-107322560D01*
X99613357Y-107080655D01*
X99685929Y-106959702D01*
X99831071Y-106838750D01*
X100048786Y-106778274D01*
X100193929Y-106778274D01*
X100411643Y-106838750D01*
X100484214Y-106899226D01*
X115941929Y-106082798D02*
X116159643Y-106143274D01*
X116522500Y-106143274D01*
X116667643Y-106082798D01*
X116740214Y-106022321D01*
X116812786Y-105901369D01*
X116812786Y-105780417D01*
X116740214Y-105659464D01*
X116667643Y-105598988D01*
X116522500Y-105538512D01*
X116232214Y-105478036D01*
X116087072Y-105417560D01*
X116014500Y-105357083D01*
X115941929Y-105236131D01*
X115941929Y-105115179D01*
X116014500Y-104994226D01*
X116087072Y-104933750D01*
X116232214Y-104873274D01*
X116595072Y-104873274D01*
X116812786Y-104933750D01*
X117320786Y-104873274D02*
X117683643Y-106143274D01*
X117973929Y-105236131D01*
X118264215Y-106143274D01*
X118627072Y-104873274D01*
X119135072Y-104994226D02*
X119207643Y-104933750D01*
X119352786Y-104873274D01*
X119715643Y-104873274D01*
X119860786Y-104933750D01*
X119933357Y-104994226D01*
X120005929Y-105115179D01*
X120005929Y-105236131D01*
X119933357Y-105417560D01*
X119062500Y-106143274D01*
X120005929Y-106143274D01*
X120659072Y-106022321D02*
X120731644Y-106082798D01*
X120659072Y-106143274D01*
X120586501Y-106082798D01*
X120659072Y-106022321D01*
X120659072Y-106143274D01*
X120659072Y-105357083D02*
X120731644Y-105417560D01*
X120659072Y-105478036D01*
X120586501Y-105417560D01*
X120659072Y-105357083D01*
X120659072Y-105478036D01*
X122037929Y-105296607D02*
X122037929Y-106143274D01*
X121675072Y-104812798D02*
X121312215Y-105719940D01*
X122255643Y-105719940D01*
X118554500Y-106778274D02*
X119062500Y-108048274D01*
X119570500Y-106778274D01*
X134991929Y-106082798D02*
X135209643Y-106143274D01*
X135572500Y-106143274D01*
X135717643Y-106082798D01*
X135790214Y-106022321D01*
X135862786Y-105901369D01*
X135862786Y-105780417D01*
X135790214Y-105659464D01*
X135717643Y-105598988D01*
X135572500Y-105538512D01*
X135282214Y-105478036D01*
X135137072Y-105417560D01*
X135064500Y-105357083D01*
X134991929Y-105236131D01*
X134991929Y-105115179D01*
X135064500Y-104994226D01*
X135137072Y-104933750D01*
X135282214Y-104873274D01*
X135645072Y-104873274D01*
X135862786Y-104933750D01*
X136370786Y-104873274D02*
X136733643Y-106143274D01*
X137023929Y-105236131D01*
X137314215Y-106143274D01*
X137677072Y-104873274D01*
X138185072Y-104994226D02*
X138257643Y-104933750D01*
X138402786Y-104873274D01*
X138765643Y-104873274D01*
X138910786Y-104933750D01*
X138983357Y-104994226D01*
X139055929Y-105115179D01*
X139055929Y-105236131D01*
X138983357Y-105417560D01*
X138112500Y-106143274D01*
X139055929Y-106143274D01*
X139709072Y-106022321D02*
X139781644Y-106082798D01*
X139709072Y-106143274D01*
X139636501Y-106082798D01*
X139709072Y-106022321D01*
X139709072Y-106143274D01*
X139709072Y-105357083D02*
X139781644Y-105417560D01*
X139709072Y-105478036D01*
X139636501Y-105417560D01*
X139709072Y-105357083D01*
X139709072Y-105478036D01*
X141160500Y-104873274D02*
X140434786Y-104873274D01*
X140362215Y-105478036D01*
X140434786Y-105417560D01*
X140579929Y-105357083D01*
X140942786Y-105357083D01*
X141087929Y-105417560D01*
X141160500Y-105478036D01*
X141233072Y-105598988D01*
X141233072Y-105901369D01*
X141160500Y-106022321D01*
X141087929Y-106082798D01*
X140942786Y-106143274D01*
X140579929Y-106143274D01*
X140434786Y-106082798D01*
X140362215Y-106022321D01*
X138221357Y-107383036D02*
X138439071Y-107443512D01*
X138511643Y-107503988D01*
X138584214Y-107624940D01*
X138584214Y-107806369D01*
X138511643Y-107927321D01*
X138439071Y-107987798D01*
X138293929Y-108048274D01*
X137713357Y-108048274D01*
X137713357Y-106778274D01*
X138221357Y-106778274D01*
X138366500Y-106838750D01*
X138439071Y-106899226D01*
X138511643Y-107020179D01*
X138511643Y-107141131D01*
X138439071Y-107262083D01*
X138366500Y-107322560D01*
X138221357Y-107383036D01*
X137713357Y-107383036D01*
X154041929Y-106082798D02*
X154259643Y-106143274D01*
X154622500Y-106143274D01*
X154767643Y-106082798D01*
X154840214Y-106022321D01*
X154912786Y-105901369D01*
X154912786Y-105780417D01*
X154840214Y-105659464D01*
X154767643Y-105598988D01*
X154622500Y-105538512D01*
X154332214Y-105478036D01*
X154187072Y-105417560D01*
X154114500Y-105357083D01*
X154041929Y-105236131D01*
X154041929Y-105115179D01*
X154114500Y-104994226D01*
X154187072Y-104933750D01*
X154332214Y-104873274D01*
X154695072Y-104873274D01*
X154912786Y-104933750D01*
X155420786Y-104873274D02*
X155783643Y-106143274D01*
X156073929Y-105236131D01*
X156364215Y-106143274D01*
X156727072Y-104873274D01*
X157235072Y-104994226D02*
X157307643Y-104933750D01*
X157452786Y-104873274D01*
X157815643Y-104873274D01*
X157960786Y-104933750D01*
X158033357Y-104994226D01*
X158105929Y-105115179D01*
X158105929Y-105236131D01*
X158033357Y-105417560D01*
X157162500Y-106143274D01*
X158105929Y-106143274D01*
X158759072Y-106022321D02*
X158831644Y-106082798D01*
X158759072Y-106143274D01*
X158686501Y-106082798D01*
X158759072Y-106022321D01*
X158759072Y-106143274D01*
X158759072Y-105357083D02*
X158831644Y-105417560D01*
X158759072Y-105478036D01*
X158686501Y-105417560D01*
X158759072Y-105357083D01*
X158759072Y-105478036D01*
X160137929Y-104873274D02*
X159847643Y-104873274D01*
X159702500Y-104933750D01*
X159629929Y-104994226D01*
X159484786Y-105175655D01*
X159412215Y-105417560D01*
X159412215Y-105901369D01*
X159484786Y-106022321D01*
X159557358Y-106082798D01*
X159702500Y-106143274D01*
X159992786Y-106143274D01*
X160137929Y-106082798D01*
X160210500Y-106022321D01*
X160283072Y-105901369D01*
X160283072Y-105598988D01*
X160210500Y-105478036D01*
X160137929Y-105417560D01*
X159992786Y-105357083D01*
X159702500Y-105357083D01*
X159557358Y-105417560D01*
X159484786Y-105478036D01*
X159412215Y-105598988D01*
X156727072Y-108048274D02*
X156727072Y-106778274D01*
X157597929Y-108048274D01*
X157597929Y-106778274D01*
X173091929Y-106082798D02*
X173309643Y-106143274D01*
X173672500Y-106143274D01*
X173817643Y-106082798D01*
X173890214Y-106022321D01*
X173962786Y-105901369D01*
X173962786Y-105780417D01*
X173890214Y-105659464D01*
X173817643Y-105598988D01*
X173672500Y-105538512D01*
X173382214Y-105478036D01*
X173237072Y-105417560D01*
X173164500Y-105357083D01*
X173091929Y-105236131D01*
X173091929Y-105115179D01*
X173164500Y-104994226D01*
X173237072Y-104933750D01*
X173382214Y-104873274D01*
X173745072Y-104873274D01*
X173962786Y-104933750D01*
X174470786Y-104873274D02*
X174833643Y-106143274D01*
X175123929Y-105236131D01*
X175414215Y-106143274D01*
X175777072Y-104873274D01*
X176285072Y-104994226D02*
X176357643Y-104933750D01*
X176502786Y-104873274D01*
X176865643Y-104873274D01*
X177010786Y-104933750D01*
X177083357Y-104994226D01*
X177155929Y-105115179D01*
X177155929Y-105236131D01*
X177083357Y-105417560D01*
X176212500Y-106143274D01*
X177155929Y-106143274D01*
X177809072Y-106022321D02*
X177881644Y-106082798D01*
X177809072Y-106143274D01*
X177736501Y-106082798D01*
X177809072Y-106022321D01*
X177809072Y-106143274D01*
X177809072Y-105357083D02*
X177881644Y-105417560D01*
X177809072Y-105478036D01*
X177736501Y-105417560D01*
X177809072Y-105357083D01*
X177809072Y-105478036D01*
X178389643Y-104873274D02*
X179405643Y-104873274D01*
X178752500Y-106143274D01*
X175704500Y-108048274D02*
X175704500Y-106778274D01*
X176212500Y-107685417D01*
X176720500Y-106778274D01*
X176720500Y-108048274D01*
X192141929Y-106082798D02*
X192359643Y-106143274D01*
X192722500Y-106143274D01*
X192867643Y-106082798D01*
X192940214Y-106022321D01*
X193012786Y-105901369D01*
X193012786Y-105780417D01*
X192940214Y-105659464D01*
X192867643Y-105598988D01*
X192722500Y-105538512D01*
X192432214Y-105478036D01*
X192287072Y-105417560D01*
X192214500Y-105357083D01*
X192141929Y-105236131D01*
X192141929Y-105115179D01*
X192214500Y-104994226D01*
X192287072Y-104933750D01*
X192432214Y-104873274D01*
X192795072Y-104873274D01*
X193012786Y-104933750D01*
X193520786Y-104873274D02*
X193883643Y-106143274D01*
X194173929Y-105236131D01*
X194464215Y-106143274D01*
X194827072Y-104873274D01*
X195335072Y-104994226D02*
X195407643Y-104933750D01*
X195552786Y-104873274D01*
X195915643Y-104873274D01*
X196060786Y-104933750D01*
X196133357Y-104994226D01*
X196205929Y-105115179D01*
X196205929Y-105236131D01*
X196133357Y-105417560D01*
X195262500Y-106143274D01*
X196205929Y-106143274D01*
X196859072Y-106022321D02*
X196931644Y-106082798D01*
X196859072Y-106143274D01*
X196786501Y-106082798D01*
X196859072Y-106022321D01*
X196859072Y-106143274D01*
X196859072Y-105357083D02*
X196931644Y-105417560D01*
X196859072Y-105478036D01*
X196786501Y-105417560D01*
X196859072Y-105357083D01*
X196859072Y-105478036D01*
X197802500Y-105417560D02*
X197657358Y-105357083D01*
X197584786Y-105296607D01*
X197512215Y-105175655D01*
X197512215Y-105115179D01*
X197584786Y-104994226D01*
X197657358Y-104933750D01*
X197802500Y-104873274D01*
X198092786Y-104873274D01*
X198237929Y-104933750D01*
X198310500Y-104994226D01*
X198383072Y-105115179D01*
X198383072Y-105175655D01*
X198310500Y-105296607D01*
X198237929Y-105357083D01*
X198092786Y-105417560D01*
X197802500Y-105417560D01*
X197657358Y-105478036D01*
X197584786Y-105538512D01*
X197512215Y-105659464D01*
X197512215Y-105901369D01*
X197584786Y-106022321D01*
X197657358Y-106082798D01*
X197802500Y-106143274D01*
X198092786Y-106143274D01*
X198237929Y-106082798D01*
X198310500Y-106022321D01*
X198383072Y-105901369D01*
X198383072Y-105659464D01*
X198310500Y-105538512D01*
X198237929Y-105478036D01*
X198092786Y-105417560D01*
X192940214Y-108048274D02*
X192214500Y-108048274D01*
X192214500Y-106778274D01*
X193085357Y-108169226D02*
X194246500Y-108169226D01*
X194536786Y-107685417D02*
X195262500Y-107685417D01*
X194391643Y-108048274D02*
X194899643Y-106778274D01*
X195407643Y-108048274D01*
X195915643Y-108048274D02*
X195915643Y-106778274D01*
X196786500Y-108048274D01*
X196786500Y-106778274D01*
X198310500Y-106838750D02*
X198165357Y-106778274D01*
X197947643Y-106778274D01*
X197729928Y-106838750D01*
X197584786Y-106959702D01*
X197512214Y-107080655D01*
X197439643Y-107322560D01*
X197439643Y-107503988D01*
X197512214Y-107745893D01*
X197584786Y-107866845D01*
X197729928Y-107987798D01*
X197947643Y-108048274D01*
X198092786Y-108048274D01*
X198310500Y-107987798D01*
X198383071Y-107927321D01*
X198383071Y-107503988D01*
X198092786Y-107503988D01*
X211191929Y-106082798D02*
X211409643Y-106143274D01*
X211772500Y-106143274D01*
X211917643Y-106082798D01*
X211990214Y-106022321D01*
X212062786Y-105901369D01*
X212062786Y-105780417D01*
X211990214Y-105659464D01*
X211917643Y-105598988D01*
X211772500Y-105538512D01*
X211482214Y-105478036D01*
X211337072Y-105417560D01*
X211264500Y-105357083D01*
X211191929Y-105236131D01*
X211191929Y-105115179D01*
X211264500Y-104994226D01*
X211337072Y-104933750D01*
X211482214Y-104873274D01*
X211845072Y-104873274D01*
X212062786Y-104933750D01*
X212570786Y-104873274D02*
X212933643Y-106143274D01*
X213223929Y-105236131D01*
X213514215Y-106143274D01*
X213877072Y-104873274D01*
X214385072Y-104994226D02*
X214457643Y-104933750D01*
X214602786Y-104873274D01*
X214965643Y-104873274D01*
X215110786Y-104933750D01*
X215183357Y-104994226D01*
X215255929Y-105115179D01*
X215255929Y-105236131D01*
X215183357Y-105417560D01*
X214312500Y-106143274D01*
X215255929Y-106143274D01*
X215909072Y-106022321D02*
X215981644Y-106082798D01*
X215909072Y-106143274D01*
X215836501Y-106082798D01*
X215909072Y-106022321D01*
X215909072Y-106143274D01*
X215909072Y-105357083D02*
X215981644Y-105417560D01*
X215909072Y-105478036D01*
X215836501Y-105417560D01*
X215909072Y-105357083D01*
X215909072Y-105478036D01*
X216707358Y-106143274D02*
X216997643Y-106143274D01*
X217142786Y-106082798D01*
X217215358Y-106022321D01*
X217360500Y-105840893D01*
X217433072Y-105598988D01*
X217433072Y-105115179D01*
X217360500Y-104994226D01*
X217287929Y-104933750D01*
X217142786Y-104873274D01*
X216852500Y-104873274D01*
X216707358Y-104933750D01*
X216634786Y-104994226D01*
X216562215Y-105115179D01*
X216562215Y-105417560D01*
X216634786Y-105538512D01*
X216707358Y-105598988D01*
X216852500Y-105659464D01*
X217142786Y-105659464D01*
X217287929Y-105598988D01*
X217360500Y-105538512D01*
X217433072Y-105417560D01*
X211990214Y-108048274D02*
X211482214Y-107443512D01*
X211119357Y-108048274D02*
X211119357Y-106778274D01*
X211699929Y-106778274D01*
X211845071Y-106838750D01*
X211917643Y-106899226D01*
X211990214Y-107020179D01*
X211990214Y-107201607D01*
X211917643Y-107322560D01*
X211845071Y-107383036D01*
X211699929Y-107443512D01*
X211119357Y-107443512D01*
X212280500Y-108169226D02*
X213441643Y-108169226D01*
X213731929Y-107685417D02*
X214457643Y-107685417D01*
X213586786Y-108048274D02*
X214094786Y-106778274D01*
X214602786Y-108048274D01*
X215110786Y-108048274D02*
X215110786Y-106778274D01*
X215981643Y-108048274D01*
X215981643Y-106778274D01*
X217505643Y-106838750D02*
X217360500Y-106778274D01*
X217142786Y-106778274D01*
X216925071Y-106838750D01*
X216779929Y-106959702D01*
X216707357Y-107080655D01*
X216634786Y-107322560D01*
X216634786Y-107503988D01*
X216707357Y-107745893D01*
X216779929Y-107866845D01*
X216925071Y-107987798D01*
X217142786Y-108048274D01*
X217287929Y-108048274D01*
X217505643Y-107987798D01*
X217578214Y-107927321D01*
X217578214Y-107503988D01*
X217287929Y-107503988D01*
X229516214Y-106082798D02*
X229733928Y-106143274D01*
X230096785Y-106143274D01*
X230241928Y-106082798D01*
X230314499Y-106022321D01*
X230387071Y-105901369D01*
X230387071Y-105780417D01*
X230314499Y-105659464D01*
X230241928Y-105598988D01*
X230096785Y-105538512D01*
X229806499Y-105478036D01*
X229661357Y-105417560D01*
X229588785Y-105357083D01*
X229516214Y-105236131D01*
X229516214Y-105115179D01*
X229588785Y-104994226D01*
X229661357Y-104933750D01*
X229806499Y-104873274D01*
X230169357Y-104873274D01*
X230387071Y-104933750D01*
X230895071Y-104873274D02*
X231257928Y-106143274D01*
X231548214Y-105236131D01*
X231838500Y-106143274D01*
X232201357Y-104873274D01*
X232709357Y-104994226D02*
X232781928Y-104933750D01*
X232927071Y-104873274D01*
X233289928Y-104873274D01*
X233435071Y-104933750D01*
X233507642Y-104994226D01*
X233580214Y-105115179D01*
X233580214Y-105236131D01*
X233507642Y-105417560D01*
X232636785Y-106143274D01*
X233580214Y-106143274D01*
X234233357Y-106022321D02*
X234305929Y-106082798D01*
X234233357Y-106143274D01*
X234160786Y-106082798D01*
X234233357Y-106022321D01*
X234233357Y-106143274D01*
X234233357Y-105357083D02*
X234305929Y-105417560D01*
X234233357Y-105478036D01*
X234160786Y-105417560D01*
X234233357Y-105357083D01*
X234233357Y-105478036D01*
X235757357Y-106143274D02*
X234886500Y-106143274D01*
X235321928Y-106143274D02*
X235321928Y-104873274D01*
X235176785Y-105054702D01*
X235031643Y-105175655D01*
X234886500Y-105236131D01*
X236700786Y-104873274D02*
X236845929Y-104873274D01*
X236991072Y-104933750D01*
X237063643Y-104994226D01*
X237136214Y-105115179D01*
X237208786Y-105357083D01*
X237208786Y-105659464D01*
X237136214Y-105901369D01*
X237063643Y-106022321D01*
X236991072Y-106082798D01*
X236845929Y-106143274D01*
X236700786Y-106143274D01*
X236555643Y-106082798D01*
X236483072Y-106022321D01*
X236410500Y-105901369D01*
X236337929Y-105659464D01*
X236337929Y-105357083D01*
X236410500Y-105115179D01*
X236483072Y-104994226D01*
X236555643Y-104933750D01*
X236700786Y-104873274D01*
X232165072Y-106778274D02*
X232165072Y-107806369D01*
X232237644Y-107927321D01*
X232310215Y-107987798D01*
X232455358Y-108048274D01*
X232745644Y-108048274D01*
X232890786Y-107987798D01*
X232963358Y-107927321D01*
X233035929Y-107806369D01*
X233035929Y-106778274D01*
X233761643Y-108048274D02*
X233761643Y-106778274D01*
X234342215Y-106778274D01*
X234487357Y-106838750D01*
X234559929Y-106899226D01*
X234632500Y-107020179D01*
X234632500Y-107201607D01*
X234559929Y-107322560D01*
X234487357Y-107383036D01*
X234342215Y-107443512D01*
X233761643Y-107443512D01*
X255709964Y-106082798D02*
X255927678Y-106143274D01*
X256290535Y-106143274D01*
X256435678Y-106082798D01*
X256508249Y-106022321D01*
X256580821Y-105901369D01*
X256580821Y-105780417D01*
X256508249Y-105659464D01*
X256435678Y-105598988D01*
X256290535Y-105538512D01*
X256000249Y-105478036D01*
X255855107Y-105417560D01*
X255782535Y-105357083D01*
X255709964Y-105236131D01*
X255709964Y-105115179D01*
X255782535Y-104994226D01*
X255855107Y-104933750D01*
X256000249Y-104873274D01*
X256363107Y-104873274D01*
X256580821Y-104933750D01*
X257088821Y-104873274D02*
X257451678Y-106143274D01*
X257741964Y-105236131D01*
X258032250Y-106143274D01*
X258395107Y-104873274D01*
X258903107Y-104994226D02*
X258975678Y-104933750D01*
X259120821Y-104873274D01*
X259483678Y-104873274D01*
X259628821Y-104933750D01*
X259701392Y-104994226D01*
X259773964Y-105115179D01*
X259773964Y-105236131D01*
X259701392Y-105417560D01*
X258830535Y-106143274D01*
X259773964Y-106143274D01*
X260427107Y-106022321D02*
X260499679Y-106082798D01*
X260427107Y-106143274D01*
X260354536Y-106082798D01*
X260427107Y-106022321D01*
X260427107Y-106143274D01*
X260427107Y-105357083D02*
X260499679Y-105417560D01*
X260427107Y-105478036D01*
X260354536Y-105417560D01*
X260427107Y-105357083D01*
X260427107Y-105478036D01*
X261951107Y-106143274D02*
X261080250Y-106143274D01*
X261515678Y-106143274D02*
X261515678Y-104873274D01*
X261370535Y-105054702D01*
X261225393Y-105175655D01*
X261080250Y-105236131D01*
X263402536Y-106143274D02*
X262531679Y-106143274D01*
X262967107Y-106143274D02*
X262967107Y-104873274D01*
X262821964Y-105054702D01*
X262676822Y-105175655D01*
X262531679Y-105236131D01*
X256326821Y-108048274D02*
X255818821Y-107443512D01*
X255455964Y-108048274D02*
X255455964Y-106778274D01*
X256036536Y-106778274D01*
X256181678Y-106838750D01*
X256254250Y-106899226D01*
X256326821Y-107020179D01*
X256326821Y-107201607D01*
X256254250Y-107322560D01*
X256181678Y-107383036D01*
X256036536Y-107443512D01*
X255455964Y-107443512D01*
X256617107Y-108169226D02*
X257778250Y-108169226D01*
X258068536Y-107987798D02*
X258286250Y-108048274D01*
X258649107Y-108048274D01*
X258794250Y-107987798D01*
X258866821Y-107927321D01*
X258939393Y-107806369D01*
X258939393Y-107685417D01*
X258866821Y-107564464D01*
X258794250Y-107503988D01*
X258649107Y-107443512D01*
X258358821Y-107383036D01*
X258213679Y-107322560D01*
X258141107Y-107262083D01*
X258068536Y-107141131D01*
X258068536Y-107020179D01*
X258141107Y-106899226D01*
X258213679Y-106838750D01*
X258358821Y-106778274D01*
X258721679Y-106778274D01*
X258939393Y-106838750D01*
X259592536Y-108048274D02*
X259592536Y-106778274D01*
X259592536Y-107383036D02*
X260463393Y-107383036D01*
X260463393Y-108048274D02*
X260463393Y-106778274D01*
X261189107Y-108048274D02*
X261189107Y-106778274D01*
X262422821Y-107383036D02*
X261914821Y-107383036D01*
X261914821Y-108048274D02*
X261914821Y-106778274D01*
X262640535Y-106778274D01*
X263003393Y-106778274D02*
X263874250Y-106778274D01*
X263438821Y-108048274D02*
X263438821Y-106778274D01*
D15*
X266176441Y-112387012D02*
X266319298Y-112434631D01*
X266557394Y-112434631D01*
X266652632Y-112387012D01*
X266700251Y-112339393D01*
X266747870Y-112244155D01*
X266747870Y-112148917D01*
X266700251Y-112053679D01*
X266652632Y-112006060D01*
X266557394Y-111958440D01*
X266366917Y-111910821D01*
X266271679Y-111863202D01*
X266224060Y-111815583D01*
X266176441Y-111720345D01*
X266176441Y-111625107D01*
X266224060Y-111529869D01*
X266271679Y-111482250D01*
X266366917Y-111434631D01*
X266605013Y-111434631D01*
X266747870Y-111482250D01*
X267081203Y-111434631D02*
X267319298Y-112434631D01*
X267509775Y-111720345D01*
X267700251Y-112434631D01*
X267938346Y-111434631D01*
X268271679Y-111529869D02*
X268319298Y-111482250D01*
X268414536Y-111434631D01*
X268652632Y-111434631D01*
X268747870Y-111482250D01*
X268795489Y-111529869D01*
X268843108Y-111625107D01*
X268843108Y-111720345D01*
X268795489Y-111863202D01*
X268224060Y-112434631D01*
X268843108Y-112434631D01*
X269271679Y-112339393D02*
X269319298Y-112387012D01*
X269271679Y-112434631D01*
X269224060Y-112387012D01*
X269271679Y-112339393D01*
X269271679Y-112434631D01*
X269271679Y-111815583D02*
X269319298Y-111863202D01*
X269271679Y-111910821D01*
X269224060Y-111863202D01*
X269271679Y-111815583D01*
X269271679Y-111910821D01*
X270271679Y-112434631D02*
X269700250Y-112434631D01*
X269985964Y-112434631D02*
X269985964Y-111434631D01*
X269890726Y-111577488D01*
X269795488Y-111672726D01*
X269700250Y-111720345D01*
X270652631Y-111529869D02*
X270700250Y-111482250D01*
X270795488Y-111434631D01*
X271033584Y-111434631D01*
X271128822Y-111482250D01*
X271176441Y-111529869D01*
X271224060Y-111625107D01*
X271224060Y-111720345D01*
X271176441Y-111863202D01*
X270605012Y-112434631D01*
X271224060Y-112434631D01*
X267684250Y-117025964D02*
X267684250Y-116263964D01*
X267684250Y-116626821D02*
X268119678Y-116626821D01*
X268119678Y-117025964D02*
X268119678Y-116263964D01*
X268627678Y-116263964D02*
X268772821Y-116263964D01*
X268845393Y-116300250D01*
X268917964Y-116372821D01*
X268954250Y-116517964D01*
X268954250Y-116771964D01*
X268917964Y-116917107D01*
X268845393Y-116989679D01*
X268772821Y-117025964D01*
X268627678Y-117025964D01*
X268555107Y-116989679D01*
X268482536Y-116917107D01*
X268446250Y-116771964D01*
X268446250Y-116517964D01*
X268482536Y-116372821D01*
X268555107Y-116300250D01*
X268627678Y-116263964D01*
X269280822Y-117025964D02*
X269280822Y-116263964D01*
X269534822Y-116808250D01*
X269788822Y-116263964D01*
X269788822Y-117025964D01*
X270151679Y-116626821D02*
X270405679Y-116626821D01*
X270514536Y-117025964D02*
X270151679Y-117025964D01*
X270151679Y-116263964D01*
X270514536Y-116263964D01*
D13*
X25454429Y-125132798D02*
X25672143Y-125193274D01*
X26035000Y-125193274D01*
X26180143Y-125132798D01*
X26252714Y-125072321D01*
X26325286Y-124951369D01*
X26325286Y-124830417D01*
X26252714Y-124709464D01*
X26180143Y-124648988D01*
X26035000Y-124588512D01*
X25744714Y-124528036D01*
X25599572Y-124467560D01*
X25527000Y-124407083D01*
X25454429Y-124286131D01*
X25454429Y-124165179D01*
X25527000Y-124044226D01*
X25599572Y-123983750D01*
X25744714Y-123923274D01*
X26107572Y-123923274D01*
X26325286Y-123983750D01*
X26833286Y-123923274D02*
X27196143Y-125193274D01*
X27486429Y-124286131D01*
X27776715Y-125193274D01*
X28139572Y-123923274D01*
X28575000Y-123923274D02*
X29518429Y-123923274D01*
X29010429Y-124407083D01*
X29228143Y-124407083D01*
X29373286Y-124467560D01*
X29445857Y-124528036D01*
X29518429Y-124648988D01*
X29518429Y-124951369D01*
X29445857Y-125072321D01*
X29373286Y-125132798D01*
X29228143Y-125193274D01*
X28792715Y-125193274D01*
X28647572Y-125132798D01*
X28575000Y-125072321D01*
X30171572Y-125072321D02*
X30244144Y-125132798D01*
X30171572Y-125193274D01*
X30099001Y-125132798D01*
X30171572Y-125072321D01*
X30171572Y-125193274D01*
X30171572Y-124407083D02*
X30244144Y-124467560D01*
X30171572Y-124528036D01*
X30099001Y-124467560D01*
X30171572Y-124407083D01*
X30171572Y-124528036D01*
X31187572Y-123923274D02*
X31332715Y-123923274D01*
X31477858Y-123983750D01*
X31550429Y-124044226D01*
X31623000Y-124165179D01*
X31695572Y-124407083D01*
X31695572Y-124709464D01*
X31623000Y-124951369D01*
X31550429Y-125072321D01*
X31477858Y-125132798D01*
X31332715Y-125193274D01*
X31187572Y-125193274D01*
X31042429Y-125132798D01*
X30969858Y-125072321D01*
X30897286Y-124951369D01*
X30824715Y-124709464D01*
X30824715Y-124407083D01*
X30897286Y-124165179D01*
X30969858Y-124044226D01*
X31042429Y-123983750D01*
X31187572Y-123923274D01*
X25744714Y-127098274D02*
X25019000Y-127098274D01*
X25019000Y-125828274D01*
X25889857Y-127219226D02*
X27051000Y-127219226D01*
X28284714Y-126977321D02*
X28212143Y-127037798D01*
X27994429Y-127098274D01*
X27849286Y-127098274D01*
X27631571Y-127037798D01*
X27486429Y-126916845D01*
X27413857Y-126795893D01*
X27341286Y-126553988D01*
X27341286Y-126372560D01*
X27413857Y-126130655D01*
X27486429Y-126009702D01*
X27631571Y-125888750D01*
X27849286Y-125828274D01*
X27994429Y-125828274D01*
X28212143Y-125888750D01*
X28284714Y-125949226D01*
X28720143Y-125828274D02*
X29591000Y-125828274D01*
X29155571Y-127098274D02*
X29155571Y-125828274D01*
X30969857Y-127098274D02*
X30461857Y-126493512D01*
X30099000Y-127098274D02*
X30099000Y-125828274D01*
X30679572Y-125828274D01*
X30824714Y-125888750D01*
X30897286Y-125949226D01*
X30969857Y-126070179D01*
X30969857Y-126251607D01*
X30897286Y-126372560D01*
X30824714Y-126433036D01*
X30679572Y-126493512D01*
X30099000Y-126493512D01*
X32348714Y-127098274D02*
X31623000Y-127098274D01*
X31623000Y-125828274D01*
X44504429Y-125132798D02*
X44722143Y-125193274D01*
X45085000Y-125193274D01*
X45230143Y-125132798D01*
X45302714Y-125072321D01*
X45375286Y-124951369D01*
X45375286Y-124830417D01*
X45302714Y-124709464D01*
X45230143Y-124648988D01*
X45085000Y-124588512D01*
X44794714Y-124528036D01*
X44649572Y-124467560D01*
X44577000Y-124407083D01*
X44504429Y-124286131D01*
X44504429Y-124165179D01*
X44577000Y-124044226D01*
X44649572Y-123983750D01*
X44794714Y-123923274D01*
X45157572Y-123923274D01*
X45375286Y-123983750D01*
X45883286Y-123923274D02*
X46246143Y-125193274D01*
X46536429Y-124286131D01*
X46826715Y-125193274D01*
X47189572Y-123923274D01*
X47625000Y-123923274D02*
X48568429Y-123923274D01*
X48060429Y-124407083D01*
X48278143Y-124407083D01*
X48423286Y-124467560D01*
X48495857Y-124528036D01*
X48568429Y-124648988D01*
X48568429Y-124951369D01*
X48495857Y-125072321D01*
X48423286Y-125132798D01*
X48278143Y-125193274D01*
X47842715Y-125193274D01*
X47697572Y-125132798D01*
X47625000Y-125072321D01*
X49221572Y-125072321D02*
X49294144Y-125132798D01*
X49221572Y-125193274D01*
X49149001Y-125132798D01*
X49221572Y-125072321D01*
X49221572Y-125193274D01*
X49221572Y-124407083D02*
X49294144Y-124467560D01*
X49221572Y-124528036D01*
X49149001Y-124467560D01*
X49221572Y-124407083D01*
X49221572Y-124528036D01*
X50745572Y-125193274D02*
X49874715Y-125193274D01*
X50310143Y-125193274D02*
X50310143Y-123923274D01*
X50165000Y-124104702D01*
X50019858Y-124225655D01*
X49874715Y-124286131D01*
X42799001Y-125828274D02*
X43161858Y-127098274D01*
X43452144Y-126191131D01*
X43742430Y-127098274D01*
X44105287Y-125828274D01*
X44685858Y-127098274D02*
X44685858Y-125828274D01*
X45411572Y-127098274D02*
X45411572Y-125828274D01*
X46282429Y-127098274D01*
X46282429Y-125828274D01*
X46645286Y-127219226D02*
X47806429Y-127219226D01*
X48169286Y-127098274D02*
X48169286Y-125828274D01*
X48677286Y-126735417D01*
X49185286Y-125828274D01*
X49185286Y-127098274D01*
X50201286Y-125828274D02*
X50491572Y-125828274D01*
X50636714Y-125888750D01*
X50781857Y-126009702D01*
X50854429Y-126251607D01*
X50854429Y-126674940D01*
X50781857Y-126916845D01*
X50636714Y-127037798D01*
X50491572Y-127098274D01*
X50201286Y-127098274D01*
X50056143Y-127037798D01*
X49911000Y-126916845D01*
X49838429Y-126674940D01*
X49838429Y-126251607D01*
X49911000Y-126009702D01*
X50056143Y-125888750D01*
X50201286Y-125828274D01*
X51507571Y-127098274D02*
X51507571Y-125828274D01*
X51870428Y-125828274D01*
X52088143Y-125888750D01*
X52233285Y-126009702D01*
X52305857Y-126130655D01*
X52378428Y-126372560D01*
X52378428Y-126553988D01*
X52305857Y-126795893D01*
X52233285Y-126916845D01*
X52088143Y-127037798D01*
X51870428Y-127098274D01*
X51507571Y-127098274D01*
X63554429Y-125132798D02*
X63772143Y-125193274D01*
X64135000Y-125193274D01*
X64280143Y-125132798D01*
X64352714Y-125072321D01*
X64425286Y-124951369D01*
X64425286Y-124830417D01*
X64352714Y-124709464D01*
X64280143Y-124648988D01*
X64135000Y-124588512D01*
X63844714Y-124528036D01*
X63699572Y-124467560D01*
X63627000Y-124407083D01*
X63554429Y-124286131D01*
X63554429Y-124165179D01*
X63627000Y-124044226D01*
X63699572Y-123983750D01*
X63844714Y-123923274D01*
X64207572Y-123923274D01*
X64425286Y-123983750D01*
X64933286Y-123923274D02*
X65296143Y-125193274D01*
X65586429Y-124286131D01*
X65876715Y-125193274D01*
X66239572Y-123923274D01*
X66675000Y-123923274D02*
X67618429Y-123923274D01*
X67110429Y-124407083D01*
X67328143Y-124407083D01*
X67473286Y-124467560D01*
X67545857Y-124528036D01*
X67618429Y-124648988D01*
X67618429Y-124951369D01*
X67545857Y-125072321D01*
X67473286Y-125132798D01*
X67328143Y-125193274D01*
X66892715Y-125193274D01*
X66747572Y-125132798D01*
X66675000Y-125072321D01*
X68271572Y-125072321D02*
X68344144Y-125132798D01*
X68271572Y-125193274D01*
X68199001Y-125132798D01*
X68271572Y-125072321D01*
X68271572Y-125193274D01*
X68271572Y-124407083D02*
X68344144Y-124467560D01*
X68271572Y-124528036D01*
X68199001Y-124467560D01*
X68271572Y-124407083D01*
X68271572Y-124528036D01*
X68924715Y-124044226D02*
X68997286Y-123983750D01*
X69142429Y-123923274D01*
X69505286Y-123923274D01*
X69650429Y-123983750D01*
X69723000Y-124044226D01*
X69795572Y-124165179D01*
X69795572Y-124286131D01*
X69723000Y-124467560D01*
X68852143Y-125193274D01*
X69795572Y-125193274D01*
X64715571Y-127098274D02*
X63989857Y-127098274D01*
X63989857Y-125828274D01*
X64860714Y-127219226D02*
X66021857Y-127219226D01*
X66312143Y-126735417D02*
X67037857Y-126735417D01*
X66167000Y-127098274D02*
X66675000Y-125828274D01*
X67183000Y-127098274D01*
X68416714Y-127098274D02*
X67691000Y-127098274D01*
X67691000Y-125828274D01*
X68707000Y-125828274D02*
X69577857Y-125828274D01*
X69142428Y-127098274D02*
X69142428Y-125828274D01*
X84985679Y-125132798D02*
X85203393Y-125193274D01*
X85566250Y-125193274D01*
X85711393Y-125132798D01*
X85783964Y-125072321D01*
X85856536Y-124951369D01*
X85856536Y-124830417D01*
X85783964Y-124709464D01*
X85711393Y-124648988D01*
X85566250Y-124588512D01*
X85275964Y-124528036D01*
X85130822Y-124467560D01*
X85058250Y-124407083D01*
X84985679Y-124286131D01*
X84985679Y-124165179D01*
X85058250Y-124044226D01*
X85130822Y-123983750D01*
X85275964Y-123923274D01*
X85638822Y-123923274D01*
X85856536Y-123983750D01*
X86364536Y-123923274D02*
X86727393Y-125193274D01*
X87017679Y-124286131D01*
X87307965Y-125193274D01*
X87670822Y-123923274D01*
X88106250Y-123923274D02*
X89049679Y-123923274D01*
X88541679Y-124407083D01*
X88759393Y-124407083D01*
X88904536Y-124467560D01*
X88977107Y-124528036D01*
X89049679Y-124648988D01*
X89049679Y-124951369D01*
X88977107Y-125072321D01*
X88904536Y-125132798D01*
X88759393Y-125193274D01*
X88323965Y-125193274D01*
X88178822Y-125132798D01*
X88106250Y-125072321D01*
X89702822Y-125072321D02*
X89775394Y-125132798D01*
X89702822Y-125193274D01*
X89630251Y-125132798D01*
X89702822Y-125072321D01*
X89702822Y-125193274D01*
X89702822Y-124407083D02*
X89775394Y-124467560D01*
X89702822Y-124528036D01*
X89630251Y-124467560D01*
X89702822Y-124407083D01*
X89702822Y-124528036D01*
X90283393Y-123923274D02*
X91226822Y-123923274D01*
X90718822Y-124407083D01*
X90936536Y-124407083D01*
X91081679Y-124467560D01*
X91154250Y-124528036D01*
X91226822Y-124648988D01*
X91226822Y-124951369D01*
X91154250Y-125072321D01*
X91081679Y-125132798D01*
X90936536Y-125193274D01*
X90501108Y-125193274D01*
X90355965Y-125132798D01*
X90283393Y-125072321D01*
X85203393Y-127098274D02*
X84477679Y-127098274D01*
X84477679Y-125828274D01*
X85348536Y-127219226D02*
X86509679Y-127219226D01*
X86872536Y-127098274D02*
X86872536Y-125828274D01*
X87380536Y-126735417D01*
X87888536Y-125828274D01*
X87888536Y-127098274D01*
X88614250Y-126433036D02*
X89122250Y-126433036D01*
X89339964Y-127098274D02*
X88614250Y-127098274D01*
X88614250Y-125828274D01*
X89339964Y-125828274D01*
X89775393Y-125828274D02*
X90646250Y-125828274D01*
X90210821Y-127098274D02*
X90210821Y-125828274D01*
X91081679Y-126735417D02*
X91807393Y-126735417D01*
X90936536Y-127098274D02*
X91444536Y-125828274D01*
X91952536Y-127098274D01*
X137373179Y-125132798D02*
X137590893Y-125193274D01*
X137953750Y-125193274D01*
X138098893Y-125132798D01*
X138171464Y-125072321D01*
X138244036Y-124951369D01*
X138244036Y-124830417D01*
X138171464Y-124709464D01*
X138098893Y-124648988D01*
X137953750Y-124588512D01*
X137663464Y-124528036D01*
X137518322Y-124467560D01*
X137445750Y-124407083D01*
X137373179Y-124286131D01*
X137373179Y-124165179D01*
X137445750Y-124044226D01*
X137518322Y-123983750D01*
X137663464Y-123923274D01*
X138026322Y-123923274D01*
X138244036Y-123983750D01*
X138752036Y-123923274D02*
X139114893Y-125193274D01*
X139405179Y-124286131D01*
X139695465Y-125193274D01*
X140058322Y-123923274D01*
X140493750Y-123923274D02*
X141437179Y-123923274D01*
X140929179Y-124407083D01*
X141146893Y-124407083D01*
X141292036Y-124467560D01*
X141364607Y-124528036D01*
X141437179Y-124648988D01*
X141437179Y-124951369D01*
X141364607Y-125072321D01*
X141292036Y-125132798D01*
X141146893Y-125193274D01*
X140711465Y-125193274D01*
X140566322Y-125132798D01*
X140493750Y-125072321D01*
X142090322Y-125072321D02*
X142162894Y-125132798D01*
X142090322Y-125193274D01*
X142017751Y-125132798D01*
X142090322Y-125072321D01*
X142090322Y-125193274D01*
X142090322Y-124407083D02*
X142162894Y-124467560D01*
X142090322Y-124528036D01*
X142017751Y-124467560D01*
X142090322Y-124407083D01*
X142090322Y-124528036D01*
X143541750Y-123923274D02*
X142816036Y-123923274D01*
X142743465Y-124528036D01*
X142816036Y-124467560D01*
X142961179Y-124407083D01*
X143324036Y-124407083D01*
X143469179Y-124467560D01*
X143541750Y-124528036D01*
X143614322Y-124648988D01*
X143614322Y-124951369D01*
X143541750Y-125072321D01*
X143469179Y-125132798D01*
X143324036Y-125193274D01*
X142961179Y-125193274D01*
X142816036Y-125132798D01*
X142743465Y-125072321D01*
X137191750Y-127037798D02*
X137409464Y-127098274D01*
X137772321Y-127098274D01*
X137917464Y-127037798D01*
X137990035Y-126977321D01*
X138062607Y-126856369D01*
X138062607Y-126735417D01*
X137990035Y-126614464D01*
X137917464Y-126553988D01*
X137772321Y-126493512D01*
X137482035Y-126433036D01*
X137336893Y-126372560D01*
X137264321Y-126312083D01*
X137191750Y-126191131D01*
X137191750Y-126070179D01*
X137264321Y-125949226D01*
X137336893Y-125888750D01*
X137482035Y-125828274D01*
X137844893Y-125828274D01*
X138062607Y-125888750D01*
X138715750Y-127098274D02*
X138715750Y-125828274D01*
X139296322Y-125828274D01*
X139441464Y-125888750D01*
X139514036Y-125949226D01*
X139586607Y-126070179D01*
X139586607Y-126251607D01*
X139514036Y-126372560D01*
X139441464Y-126433036D01*
X139296322Y-126493512D01*
X138715750Y-126493512D01*
X140167179Y-126735417D02*
X140892893Y-126735417D01*
X140022036Y-127098274D02*
X140530036Y-125828274D01*
X141038036Y-127098274D01*
X142416893Y-126977321D02*
X142344322Y-127037798D01*
X142126608Y-127098274D01*
X141981465Y-127098274D01*
X141763750Y-127037798D01*
X141618608Y-126916845D01*
X141546036Y-126795893D01*
X141473465Y-126553988D01*
X141473465Y-126372560D01*
X141546036Y-126130655D01*
X141618608Y-126009702D01*
X141763750Y-125888750D01*
X141981465Y-125828274D01*
X142126608Y-125828274D01*
X142344322Y-125888750D01*
X142416893Y-125949226D01*
X143070036Y-126433036D02*
X143578036Y-126433036D01*
X143795750Y-127098274D02*
X143070036Y-127098274D01*
X143070036Y-125828274D01*
X143795750Y-125828274D01*
X189760679Y-125132798D02*
X189978393Y-125193274D01*
X190341250Y-125193274D01*
X190486393Y-125132798D01*
X190558964Y-125072321D01*
X190631536Y-124951369D01*
X190631536Y-124830417D01*
X190558964Y-124709464D01*
X190486393Y-124648988D01*
X190341250Y-124588512D01*
X190050964Y-124528036D01*
X189905822Y-124467560D01*
X189833250Y-124407083D01*
X189760679Y-124286131D01*
X189760679Y-124165179D01*
X189833250Y-124044226D01*
X189905822Y-123983750D01*
X190050964Y-123923274D01*
X190413822Y-123923274D01*
X190631536Y-123983750D01*
X191139536Y-123923274D02*
X191502393Y-125193274D01*
X191792679Y-124286131D01*
X192082965Y-125193274D01*
X192445822Y-123923274D01*
X192881250Y-123923274D02*
X193824679Y-123923274D01*
X193316679Y-124407083D01*
X193534393Y-124407083D01*
X193679536Y-124467560D01*
X193752107Y-124528036D01*
X193824679Y-124648988D01*
X193824679Y-124951369D01*
X193752107Y-125072321D01*
X193679536Y-125132798D01*
X193534393Y-125193274D01*
X193098965Y-125193274D01*
X192953822Y-125132798D01*
X192881250Y-125072321D01*
X194477822Y-125072321D02*
X194550394Y-125132798D01*
X194477822Y-125193274D01*
X194405251Y-125132798D01*
X194477822Y-125072321D01*
X194477822Y-125193274D01*
X194477822Y-124407083D02*
X194550394Y-124467560D01*
X194477822Y-124528036D01*
X194405251Y-124467560D01*
X194477822Y-124407083D01*
X194477822Y-124528036D01*
X195421250Y-124467560D02*
X195276108Y-124407083D01*
X195203536Y-124346607D01*
X195130965Y-124225655D01*
X195130965Y-124165179D01*
X195203536Y-124044226D01*
X195276108Y-123983750D01*
X195421250Y-123923274D01*
X195711536Y-123923274D01*
X195856679Y-123983750D01*
X195929250Y-124044226D01*
X196001822Y-124165179D01*
X196001822Y-124225655D01*
X195929250Y-124346607D01*
X195856679Y-124407083D01*
X195711536Y-124467560D01*
X195421250Y-124467560D01*
X195276108Y-124528036D01*
X195203536Y-124588512D01*
X195130965Y-124709464D01*
X195130965Y-124951369D01*
X195203536Y-125072321D01*
X195276108Y-125132798D01*
X195421250Y-125193274D01*
X195711536Y-125193274D01*
X195856679Y-125132798D01*
X195929250Y-125072321D01*
X196001822Y-124951369D01*
X196001822Y-124709464D01*
X195929250Y-124588512D01*
X195856679Y-124528036D01*
X195711536Y-124467560D01*
X188055250Y-126433036D02*
X187547250Y-126433036D01*
X187547250Y-127098274D02*
X187547250Y-125828274D01*
X188272964Y-125828274D01*
X188853536Y-127098274D02*
X188853536Y-125828274D01*
X189724393Y-127098274D01*
X189724393Y-125828274D01*
X190087250Y-127219226D02*
X191248393Y-127219226D01*
X191611250Y-127098274D02*
X191611250Y-125828274D01*
X191611250Y-126433036D02*
X192482107Y-126433036D01*
X192482107Y-127098274D02*
X192482107Y-125828274D01*
X193498107Y-126493512D02*
X193498107Y-127098274D01*
X192990107Y-125828274D02*
X193498107Y-126493512D01*
X194006107Y-125828274D01*
X194514107Y-127098274D02*
X194514107Y-125828274D01*
X195094679Y-125828274D01*
X195239821Y-125888750D01*
X195312393Y-125949226D01*
X195384964Y-126070179D01*
X195384964Y-126251607D01*
X195312393Y-126372560D01*
X195239821Y-126433036D01*
X195094679Y-126493512D01*
X194514107Y-126493512D01*
X196038107Y-126433036D02*
X196546107Y-126433036D01*
X196763821Y-127098274D02*
X196038107Y-127098274D01*
X196038107Y-125828274D01*
X196763821Y-125828274D01*
X198287821Y-127098274D02*
X197779821Y-126493512D01*
X197416964Y-127098274D02*
X197416964Y-125828274D01*
X197997536Y-125828274D01*
X198142678Y-125888750D01*
X198215250Y-125949226D01*
X198287821Y-126070179D01*
X198287821Y-126251607D01*
X198215250Y-126372560D01*
X198142678Y-126433036D01*
X197997536Y-126493512D01*
X197416964Y-126493512D01*
X211191929Y-125132798D02*
X211409643Y-125193274D01*
X211772500Y-125193274D01*
X211917643Y-125132798D01*
X211990214Y-125072321D01*
X212062786Y-124951369D01*
X212062786Y-124830417D01*
X211990214Y-124709464D01*
X211917643Y-124648988D01*
X211772500Y-124588512D01*
X211482214Y-124528036D01*
X211337072Y-124467560D01*
X211264500Y-124407083D01*
X211191929Y-124286131D01*
X211191929Y-124165179D01*
X211264500Y-124044226D01*
X211337072Y-123983750D01*
X211482214Y-123923274D01*
X211845072Y-123923274D01*
X212062786Y-123983750D01*
X212570786Y-123923274D02*
X212933643Y-125193274D01*
X213223929Y-124286131D01*
X213514215Y-125193274D01*
X213877072Y-123923274D01*
X214312500Y-123923274D02*
X215255929Y-123923274D01*
X214747929Y-124407083D01*
X214965643Y-124407083D01*
X215110786Y-124467560D01*
X215183357Y-124528036D01*
X215255929Y-124648988D01*
X215255929Y-124951369D01*
X215183357Y-125072321D01*
X215110786Y-125132798D01*
X214965643Y-125193274D01*
X214530215Y-125193274D01*
X214385072Y-125132798D01*
X214312500Y-125072321D01*
X215909072Y-125072321D02*
X215981644Y-125132798D01*
X215909072Y-125193274D01*
X215836501Y-125132798D01*
X215909072Y-125072321D01*
X215909072Y-125193274D01*
X215909072Y-124407083D02*
X215981644Y-124467560D01*
X215909072Y-124528036D01*
X215836501Y-124467560D01*
X215909072Y-124407083D01*
X215909072Y-124528036D01*
X216707358Y-125193274D02*
X216997643Y-125193274D01*
X217142786Y-125132798D01*
X217215358Y-125072321D01*
X217360500Y-124890893D01*
X217433072Y-124648988D01*
X217433072Y-124165179D01*
X217360500Y-124044226D01*
X217287929Y-123983750D01*
X217142786Y-123923274D01*
X216852500Y-123923274D01*
X216707358Y-123983750D01*
X216634786Y-124044226D01*
X216562215Y-124165179D01*
X216562215Y-124467560D01*
X216634786Y-124588512D01*
X216707358Y-124648988D01*
X216852500Y-124709464D01*
X217142786Y-124709464D01*
X217287929Y-124648988D01*
X217360500Y-124588512D01*
X217433072Y-124467560D01*
X212861071Y-127098274D02*
X212135357Y-127098274D01*
X212135357Y-125828274D01*
X213369071Y-126433036D02*
X213877071Y-126433036D01*
X214094785Y-127098274D02*
X213369071Y-127098274D01*
X213369071Y-125828274D01*
X214094785Y-125828274D01*
X215255928Y-126433036D02*
X214747928Y-126433036D01*
X214747928Y-127098274D02*
X214747928Y-125828274D01*
X215473642Y-125828274D01*
X215836500Y-125828274D02*
X216707357Y-125828274D01*
X216271928Y-127098274D02*
X216271928Y-125828274D01*
X229516214Y-125132798D02*
X229733928Y-125193274D01*
X230096785Y-125193274D01*
X230241928Y-125132798D01*
X230314499Y-125072321D01*
X230387071Y-124951369D01*
X230387071Y-124830417D01*
X230314499Y-124709464D01*
X230241928Y-124648988D01*
X230096785Y-124588512D01*
X229806499Y-124528036D01*
X229661357Y-124467560D01*
X229588785Y-124407083D01*
X229516214Y-124286131D01*
X229516214Y-124165179D01*
X229588785Y-124044226D01*
X229661357Y-123983750D01*
X229806499Y-123923274D01*
X230169357Y-123923274D01*
X230387071Y-123983750D01*
X230895071Y-123923274D02*
X231257928Y-125193274D01*
X231548214Y-124286131D01*
X231838500Y-125193274D01*
X232201357Y-123923274D01*
X232636785Y-123923274D02*
X233580214Y-123923274D01*
X233072214Y-124407083D01*
X233289928Y-124407083D01*
X233435071Y-124467560D01*
X233507642Y-124528036D01*
X233580214Y-124648988D01*
X233580214Y-124951369D01*
X233507642Y-125072321D01*
X233435071Y-125132798D01*
X233289928Y-125193274D01*
X232854500Y-125193274D01*
X232709357Y-125132798D01*
X232636785Y-125072321D01*
X234233357Y-125072321D02*
X234305929Y-125132798D01*
X234233357Y-125193274D01*
X234160786Y-125132798D01*
X234233357Y-125072321D01*
X234233357Y-125193274D01*
X234233357Y-124407083D02*
X234305929Y-124467560D01*
X234233357Y-124528036D01*
X234160786Y-124467560D01*
X234233357Y-124407083D01*
X234233357Y-124528036D01*
X235757357Y-125193274D02*
X234886500Y-125193274D01*
X235321928Y-125193274D02*
X235321928Y-123923274D01*
X235176785Y-124104702D01*
X235031643Y-124225655D01*
X234886500Y-124286131D01*
X236700786Y-123923274D02*
X236845929Y-123923274D01*
X236991072Y-123983750D01*
X237063643Y-124044226D01*
X237136214Y-124165179D01*
X237208786Y-124407083D01*
X237208786Y-124709464D01*
X237136214Y-124951369D01*
X237063643Y-125072321D01*
X236991072Y-125132798D01*
X236845929Y-125193274D01*
X236700786Y-125193274D01*
X236555643Y-125132798D01*
X236483072Y-125072321D01*
X236410500Y-124951369D01*
X236337929Y-124709464D01*
X236337929Y-124407083D01*
X236410500Y-124165179D01*
X236483072Y-124044226D01*
X236555643Y-123983750D01*
X236700786Y-123923274D01*
X230495929Y-127098274D02*
X230495929Y-125828274D01*
X230858786Y-125828274D01*
X231076501Y-125888750D01*
X231221643Y-126009702D01*
X231294215Y-126130655D01*
X231366786Y-126372560D01*
X231366786Y-126553988D01*
X231294215Y-126795893D01*
X231221643Y-126916845D01*
X231076501Y-127037798D01*
X230858786Y-127098274D01*
X230495929Y-127098274D01*
X232310215Y-125828274D02*
X232600501Y-125828274D01*
X232745643Y-125888750D01*
X232890786Y-126009702D01*
X232963358Y-126251607D01*
X232963358Y-126674940D01*
X232890786Y-126916845D01*
X232745643Y-127037798D01*
X232600501Y-127098274D01*
X232310215Y-127098274D01*
X232165072Y-127037798D01*
X232019929Y-126916845D01*
X231947358Y-126674940D01*
X231947358Y-126251607D01*
X232019929Y-126009702D01*
X232165072Y-125888750D01*
X232310215Y-125828274D01*
X233471357Y-125828274D02*
X233834214Y-127098274D01*
X234124500Y-126191131D01*
X234414786Y-127098274D01*
X234777643Y-125828274D01*
X235358214Y-127098274D02*
X235358214Y-125828274D01*
X236229071Y-127098274D01*
X236229071Y-125828274D01*
X248566214Y-125132798D02*
X248783928Y-125193274D01*
X249146785Y-125193274D01*
X249291928Y-125132798D01*
X249364499Y-125072321D01*
X249437071Y-124951369D01*
X249437071Y-124830417D01*
X249364499Y-124709464D01*
X249291928Y-124648988D01*
X249146785Y-124588512D01*
X248856499Y-124528036D01*
X248711357Y-124467560D01*
X248638785Y-124407083D01*
X248566214Y-124286131D01*
X248566214Y-124165179D01*
X248638785Y-124044226D01*
X248711357Y-123983750D01*
X248856499Y-123923274D01*
X249219357Y-123923274D01*
X249437071Y-123983750D01*
X249945071Y-123923274D02*
X250307928Y-125193274D01*
X250598214Y-124286131D01*
X250888500Y-125193274D01*
X251251357Y-123923274D01*
X251686785Y-123923274D02*
X252630214Y-123923274D01*
X252122214Y-124407083D01*
X252339928Y-124407083D01*
X252485071Y-124467560D01*
X252557642Y-124528036D01*
X252630214Y-124648988D01*
X252630214Y-124951369D01*
X252557642Y-125072321D01*
X252485071Y-125132798D01*
X252339928Y-125193274D01*
X251904500Y-125193274D01*
X251759357Y-125132798D01*
X251686785Y-125072321D01*
X253283357Y-125072321D02*
X253355929Y-125132798D01*
X253283357Y-125193274D01*
X253210786Y-125132798D01*
X253283357Y-125072321D01*
X253283357Y-125193274D01*
X253283357Y-124407083D02*
X253355929Y-124467560D01*
X253283357Y-124528036D01*
X253210786Y-124467560D01*
X253283357Y-124407083D01*
X253283357Y-124528036D01*
X254807357Y-125193274D02*
X253936500Y-125193274D01*
X254371928Y-125193274D02*
X254371928Y-123923274D01*
X254226785Y-124104702D01*
X254081643Y-124225655D01*
X253936500Y-124286131D01*
X256258786Y-125193274D02*
X255387929Y-125193274D01*
X255823357Y-125193274D02*
X255823357Y-123923274D01*
X255678214Y-124104702D01*
X255533072Y-124225655D01*
X255387929Y-124286131D01*
X250380500Y-127098274D02*
X249872500Y-126493512D01*
X249509643Y-127098274D02*
X249509643Y-125828274D01*
X250090215Y-125828274D01*
X250235357Y-125888750D01*
X250307929Y-125949226D01*
X250380500Y-126070179D01*
X250380500Y-126251607D01*
X250307929Y-126372560D01*
X250235357Y-126433036D01*
X250090215Y-126493512D01*
X249509643Y-126493512D01*
X251033643Y-127098274D02*
X251033643Y-125828274D01*
X252557643Y-125888750D02*
X252412500Y-125828274D01*
X252194786Y-125828274D01*
X251977071Y-125888750D01*
X251831929Y-126009702D01*
X251759357Y-126130655D01*
X251686786Y-126372560D01*
X251686786Y-126553988D01*
X251759357Y-126795893D01*
X251831929Y-126916845D01*
X251977071Y-127037798D01*
X252194786Y-127098274D01*
X252339929Y-127098274D01*
X252557643Y-127037798D01*
X252630214Y-126977321D01*
X252630214Y-126553988D01*
X252339929Y-126553988D01*
X253283357Y-127098274D02*
X253283357Y-125828274D01*
X253283357Y-126433036D02*
X254154214Y-126433036D01*
X254154214Y-127098274D02*
X254154214Y-125828274D01*
X254662214Y-125828274D02*
X255533071Y-125828274D01*
X255097642Y-127098274D02*
X255097642Y-125828274D01*
D15*
X266938441Y-131310012D02*
X267081298Y-131357631D01*
X267319394Y-131357631D01*
X267414632Y-131310012D01*
X267462251Y-131262393D01*
X267509870Y-131167155D01*
X267509870Y-131071917D01*
X267462251Y-130976679D01*
X267414632Y-130929060D01*
X267319394Y-130881440D01*
X267128917Y-130833821D01*
X267033679Y-130786202D01*
X266986060Y-130738583D01*
X266938441Y-130643345D01*
X266938441Y-130548107D01*
X266986060Y-130452869D01*
X267033679Y-130405250D01*
X267128917Y-130357631D01*
X267367013Y-130357631D01*
X267509870Y-130405250D01*
X267843203Y-130357631D02*
X268081298Y-131357631D01*
X268271775Y-130643345D01*
X268462251Y-131357631D01*
X268700346Y-130357631D01*
X268986060Y-130357631D02*
X269605108Y-130357631D01*
X269271774Y-130738583D01*
X269414632Y-130738583D01*
X269509870Y-130786202D01*
X269557489Y-130833821D01*
X269605108Y-130929060D01*
X269605108Y-131167155D01*
X269557489Y-131262393D01*
X269509870Y-131310012D01*
X269414632Y-131357631D01*
X269128917Y-131357631D01*
X269033679Y-131310012D01*
X268986060Y-131262393D01*
X270033679Y-131262393D02*
X270081298Y-131310012D01*
X270033679Y-131357631D01*
X269986060Y-131310012D01*
X270033679Y-131262393D01*
X270033679Y-131357631D01*
X270033679Y-130738583D02*
X270081298Y-130786202D01*
X270033679Y-130833821D01*
X269986060Y-130786202D01*
X270033679Y-130738583D01*
X270033679Y-130833821D01*
X271033679Y-131357631D02*
X270462250Y-131357631D01*
X270747964Y-131357631D02*
X270747964Y-130357631D01*
X270652726Y-130500488D01*
X270557488Y-130595726D01*
X270462250Y-130643345D01*
X271414631Y-130452869D02*
X271462250Y-130405250D01*
X271557488Y-130357631D01*
X271795584Y-130357631D01*
X271890822Y-130405250D01*
X271938441Y-130452869D01*
X271986060Y-130548107D01*
X271986060Y-130643345D01*
X271938441Y-130786202D01*
X271367012Y-131357631D01*
X271986060Y-131357631D01*
X268137822Y-126151821D02*
X268391822Y-126151821D01*
X268500679Y-126550964D02*
X268137822Y-126550964D01*
X268137822Y-125788964D01*
X268500679Y-125788964D01*
X268827251Y-126550964D02*
X268827251Y-125788964D01*
X269262679Y-126550964D01*
X269262679Y-125788964D01*
X269625537Y-126550964D02*
X269625537Y-125788964D01*
X269806965Y-125788964D01*
X269915822Y-125825250D01*
X269988394Y-125897821D01*
X270024679Y-125970393D01*
X270060965Y-126115536D01*
X270060965Y-126224393D01*
X270024679Y-126369536D01*
X269988394Y-126442107D01*
X269915822Y-126514679D01*
X269806965Y-126550964D01*
X269625537Y-126550964D01*
X77457143Y-54261904D02*
X77504762Y-54309523D01*
X77552381Y-54452380D01*
X77552381Y-54547618D01*
X77504762Y-54690476D01*
X77409524Y-54785714D01*
X77314286Y-54833333D01*
X77123810Y-54880952D01*
X76980952Y-54880952D01*
X76790476Y-54833333D01*
X76695238Y-54785714D01*
X76600000Y-54690476D01*
X76552381Y-54547618D01*
X76552381Y-54452380D01*
X76600000Y-54309523D01*
X76647619Y-54261904D01*
X76552381Y-53642857D02*
X76552381Y-53547618D01*
X76600000Y-53452380D01*
X76647619Y-53404761D01*
X76742857Y-53357142D01*
X76933333Y-53309523D01*
X77171429Y-53309523D01*
X77361905Y-53357142D01*
X77457143Y-53404761D01*
X77504762Y-53452380D01*
X77552381Y-53547618D01*
X77552381Y-53642857D01*
X77504762Y-53738095D01*
X77457143Y-53785714D01*
X77361905Y-53833333D01*
X77171429Y-53880952D01*
X76933333Y-53880952D01*
X76742857Y-53833333D01*
X76647619Y-53785714D01*
X76600000Y-53738095D01*
X76552381Y-53642857D01*
X77171429Y-52880952D02*
X77171429Y-52119047D01*
X76885714Y-51214285D02*
X77552381Y-51214285D01*
X76504762Y-51452381D02*
X77219048Y-51690476D01*
X77219048Y-51071428D01*
X93457143Y-54261904D02*
X93504762Y-54309523D01*
X93552381Y-54452380D01*
X93552381Y-54547618D01*
X93504762Y-54690476D01*
X93409524Y-54785714D01*
X93314286Y-54833333D01*
X93123810Y-54880952D01*
X92980952Y-54880952D01*
X92790476Y-54833333D01*
X92695238Y-54785714D01*
X92600000Y-54690476D01*
X92552381Y-54547618D01*
X92552381Y-54452380D01*
X92600000Y-54309523D01*
X92647619Y-54261904D01*
X92552381Y-53357142D02*
X92552381Y-53833333D01*
X93028571Y-53880952D01*
X92980952Y-53833333D01*
X92933333Y-53738095D01*
X92933333Y-53499999D01*
X92980952Y-53404761D01*
X93028571Y-53357142D01*
X93123810Y-53309523D01*
X93361905Y-53309523D01*
X93457143Y-53357142D01*
X93504762Y-53404761D01*
X93552381Y-53499999D01*
X93552381Y-53738095D01*
X93504762Y-53833333D01*
X93457143Y-53880952D01*
X93171429Y-52880952D02*
X93171429Y-52119047D01*
X92552381Y-51738095D02*
X92552381Y-51071428D01*
X93552381Y-51500000D01*
X212457143Y-53738095D02*
X212504762Y-53785714D01*
X212552381Y-53928571D01*
X212552381Y-54023809D01*
X212504762Y-54166667D01*
X212409524Y-54261905D01*
X212314286Y-54309524D01*
X212123810Y-54357143D01*
X211980952Y-54357143D01*
X211790476Y-54309524D01*
X211695238Y-54261905D01*
X211600000Y-54166667D01*
X211552381Y-54023809D01*
X211552381Y-53928571D01*
X211600000Y-53785714D01*
X211647619Y-53738095D01*
X211980952Y-53166667D02*
X211933333Y-53261905D01*
X211885714Y-53309524D01*
X211790476Y-53357143D01*
X211742857Y-53357143D01*
X211647619Y-53309524D01*
X211600000Y-53261905D01*
X211552381Y-53166667D01*
X211552381Y-52976190D01*
X211600000Y-52880952D01*
X211647619Y-52833333D01*
X211742857Y-52785714D01*
X211790476Y-52785714D01*
X211885714Y-52833333D01*
X211933333Y-52880952D01*
X211980952Y-52976190D01*
X211980952Y-53166667D01*
X212028571Y-53261905D01*
X212076190Y-53309524D01*
X212171429Y-53357143D01*
X212361905Y-53357143D01*
X212457143Y-53309524D01*
X212504762Y-53261905D01*
X212552381Y-53166667D01*
X212552381Y-52976190D01*
X212504762Y-52880952D01*
X212457143Y-52833333D01*
X212361905Y-52785714D01*
X212171429Y-52785714D01*
X212076190Y-52833333D01*
X212028571Y-52880952D01*
X211980952Y-52976190D01*
X212171429Y-52357143D02*
X212171429Y-51595238D01*
X212552381Y-50595238D02*
X212552381Y-51166667D01*
X212552381Y-50880953D02*
X211552381Y-50880953D01*
X211695238Y-50976191D01*
X211790476Y-51071429D01*
X211838095Y-51166667D01*
X211647619Y-50214286D02*
X211600000Y-50166667D01*
X211552381Y-50071429D01*
X211552381Y-49833333D01*
X211600000Y-49738095D01*
X211647619Y-49690476D01*
X211742857Y-49642857D01*
X211838095Y-49642857D01*
X211980952Y-49690476D01*
X212552381Y-50261905D01*
X212552381Y-49642857D01*
X212785715Y-46400000D02*
X212690477Y-46352381D01*
X212547620Y-46352381D01*
X212404762Y-46400000D01*
X212309524Y-46495238D01*
X212261905Y-46590476D01*
X212214286Y-46780952D01*
X212214286Y-46923810D01*
X212261905Y-47114286D01*
X212309524Y-47209524D01*
X212404762Y-47304762D01*
X212547620Y-47352381D01*
X212642858Y-47352381D01*
X212785715Y-47304762D01*
X212833334Y-47257143D01*
X212833334Y-46923810D01*
X212642858Y-46923810D01*
X213785715Y-47352381D02*
X213214286Y-47352381D01*
X213500000Y-47352381D02*
X213500000Y-46352381D01*
X213404762Y-46495238D01*
X213309524Y-46590476D01*
X213214286Y-46638095D01*
X222404762Y-47352381D02*
X221928571Y-47352381D01*
X221928571Y-46352381D01*
X222690476Y-47066667D02*
X223166667Y-47066667D01*
X222595238Y-47352381D02*
X222928571Y-46352381D01*
X223261905Y-47352381D01*
X224119048Y-47352381D02*
X223547619Y-47352381D01*
X223833333Y-47352381D02*
X223833333Y-46352381D01*
X223738095Y-46495238D01*
X223642857Y-46590476D01*
X223547619Y-46638095D01*
X219333334Y-47352381D02*
X218857143Y-47352381D01*
X218857143Y-46352381D01*
X220000001Y-46828571D02*
X220142858Y-46876190D01*
X220190477Y-46923810D01*
X220238096Y-47019048D01*
X220238096Y-47161905D01*
X220190477Y-47257143D01*
X220142858Y-47304762D01*
X220047620Y-47352381D01*
X219666667Y-47352381D01*
X219666667Y-46352381D01*
X220000001Y-46352381D01*
X220095239Y-46400000D01*
X220142858Y-46447619D01*
X220190477Y-46542857D01*
X220190477Y-46638095D01*
X220142858Y-46733333D01*
X220095239Y-46780952D01*
X220000001Y-46828571D01*
X219666667Y-46828571D01*
X221190477Y-47352381D02*
X220619048Y-47352381D01*
X220904762Y-47352381D02*
X220904762Y-46352381D01*
X220809524Y-46495238D01*
X220714286Y-46590476D01*
X220619048Y-46638095D01*
X216333334Y-47352381D02*
X215857143Y-47352381D01*
X215857143Y-46352381D01*
X217238096Y-47257143D02*
X217190477Y-47304762D01*
X217047620Y-47352381D01*
X216952382Y-47352381D01*
X216809524Y-47304762D01*
X216714286Y-47209524D01*
X216666667Y-47114286D01*
X216619048Y-46923810D01*
X216619048Y-46780952D01*
X216666667Y-46590476D01*
X216714286Y-46495238D01*
X216809524Y-46400000D01*
X216952382Y-46352381D01*
X217047620Y-46352381D01*
X217190477Y-46400000D01*
X217238096Y-46447619D01*
X218190477Y-47352381D02*
X217619048Y-47352381D01*
X217904762Y-47352381D02*
X217904762Y-46352381D01*
X217809524Y-46495238D01*
X217714286Y-46590476D01*
X217619048Y-46638095D01*
X19738096Y-111552381D02*
X19404762Y-111076190D01*
X19166667Y-111552381D02*
X19166667Y-110552381D01*
X19547620Y-110552381D01*
X19642858Y-110600000D01*
X19690477Y-110647619D01*
X19738096Y-110742857D01*
X19738096Y-110885714D01*
X19690477Y-110980952D01*
X19642858Y-111028571D01*
X19547620Y-111076190D01*
X19166667Y-111076190D01*
X20357143Y-110552381D02*
X20452382Y-110552381D01*
X20547620Y-110600000D01*
X20595239Y-110647619D01*
X20642858Y-110742857D01*
X20690477Y-110933333D01*
X20690477Y-111171429D01*
X20642858Y-111361905D01*
X20595239Y-111457143D01*
X20547620Y-111504762D01*
X20452382Y-111552381D01*
X20357143Y-111552381D01*
X20261905Y-111504762D01*
X20214286Y-111457143D01*
X20166667Y-111361905D01*
X20119048Y-111171429D01*
X20119048Y-110933333D01*
X20166667Y-110742857D01*
X20214286Y-110647619D01*
X20261905Y-110600000D01*
X20357143Y-110552381D01*
X21119048Y-111171429D02*
X21880953Y-111171429D01*
X22261905Y-110552381D02*
X22880953Y-110552381D01*
X22547619Y-110933333D01*
X22690477Y-110933333D01*
X22785715Y-110980952D01*
X22833334Y-111028571D01*
X22880953Y-111123810D01*
X22880953Y-111361905D01*
X22833334Y-111457143D01*
X22785715Y-111504762D01*
X22690477Y-111552381D01*
X22404762Y-111552381D01*
X22309524Y-111504762D01*
X22261905Y-111457143D01*
M02*
