G04 #@! TF.FileFunction,Legend,Top*
%FSLAX46Y46*%
G04 Gerber Fmt 4.6, Leading zero omitted, Abs format (unit mm)*
G04 Created by KiCad (PCBNEW 4.0.4-stable) date Thursday, 22 September 2016 'PMt' 03:17:32 PM*
%MOMM*%
%LPD*%
G01*
G04 APERTURE LIST*
%ADD10C,0.100000*%
%ADD11C,0.300000*%
%ADD12C,0.203200*%
%ADD13C,0.381000*%
%ADD14C,0.150000*%
G04 APERTURE END LIST*
D10*
D11*
X23357144Y-78148571D02*
X23357144Y-76648571D01*
X24214287Y-78148571D02*
X23571430Y-77291429D01*
X24214287Y-76648571D02*
X23357144Y-77505714D01*
X25714287Y-78148571D02*
X25214287Y-77434286D01*
X24857144Y-78148571D02*
X24857144Y-76648571D01*
X25428572Y-76648571D01*
X25571430Y-76720000D01*
X25642858Y-76791429D01*
X25714287Y-76934286D01*
X25714287Y-77148571D01*
X25642858Y-77291429D01*
X25571430Y-77362857D01*
X25428572Y-77434286D01*
X24857144Y-77434286D01*
X26642858Y-77434286D02*
X26642858Y-78148571D01*
X26142858Y-76648571D02*
X26642858Y-77434286D01*
X27142858Y-76648571D01*
X28142858Y-77362857D02*
X28357144Y-77434286D01*
X28428572Y-77505714D01*
X28500001Y-77648571D01*
X28500001Y-77862857D01*
X28428572Y-78005714D01*
X28357144Y-78077143D01*
X28214286Y-78148571D01*
X27642858Y-78148571D01*
X27642858Y-76648571D01*
X28142858Y-76648571D01*
X28285715Y-76720000D01*
X28357144Y-76791429D01*
X28428572Y-76934286D01*
X28428572Y-77077143D01*
X28357144Y-77220000D01*
X28285715Y-77291429D01*
X28142858Y-77362857D01*
X27642858Y-77362857D01*
X29428572Y-76648571D02*
X29714286Y-76648571D01*
X29857144Y-76720000D01*
X30000001Y-76862857D01*
X30071429Y-77148571D01*
X30071429Y-77648571D01*
X30000001Y-77934286D01*
X29857144Y-78077143D01*
X29714286Y-78148571D01*
X29428572Y-78148571D01*
X29285715Y-78077143D01*
X29142858Y-77934286D01*
X29071429Y-77648571D01*
X29071429Y-77148571D01*
X29142858Y-76862857D01*
X29285715Y-76720000D01*
X29428572Y-76648571D01*
X30642858Y-77720000D02*
X31357144Y-77720000D01*
X30500001Y-78148571D02*
X31000001Y-76648571D01*
X31500001Y-78148571D01*
X32857144Y-78148571D02*
X32357144Y-77434286D01*
X32000001Y-78148571D02*
X32000001Y-76648571D01*
X32571429Y-76648571D01*
X32714287Y-76720000D01*
X32785715Y-76791429D01*
X32857144Y-76934286D01*
X32857144Y-77148571D01*
X32785715Y-77291429D01*
X32714287Y-77362857D01*
X32571429Y-77434286D01*
X32000001Y-77434286D01*
X33500001Y-78148571D02*
X33500001Y-76648571D01*
X33857144Y-76648571D01*
X34071429Y-76720000D01*
X34214287Y-76862857D01*
X34285715Y-77005714D01*
X34357144Y-77291429D01*
X34357144Y-77505714D01*
X34285715Y-77791429D01*
X34214287Y-77934286D01*
X34071429Y-78077143D01*
X33857144Y-78148571D01*
X33500001Y-78148571D01*
X36000001Y-77148571D02*
X36357144Y-78148571D01*
X36714286Y-77148571D01*
X38071429Y-78148571D02*
X37214286Y-78148571D01*
X37642858Y-78148571D02*
X37642858Y-76648571D01*
X37500001Y-76862857D01*
X37357143Y-77005714D01*
X37214286Y-77077143D01*
X38714286Y-78005714D02*
X38785714Y-78077143D01*
X38714286Y-78148571D01*
X38642857Y-78077143D01*
X38714286Y-78005714D01*
X38714286Y-78148571D01*
X39714286Y-76648571D02*
X39857143Y-76648571D01*
X40000000Y-76720000D01*
X40071429Y-76791429D01*
X40142858Y-76934286D01*
X40214286Y-77220000D01*
X40214286Y-77577143D01*
X40142858Y-77862857D01*
X40071429Y-78005714D01*
X40000000Y-78077143D01*
X39857143Y-78148571D01*
X39714286Y-78148571D01*
X39571429Y-78077143D01*
X39500000Y-78005714D01*
X39428572Y-77862857D01*
X39357143Y-77577143D01*
X39357143Y-77220000D01*
X39428572Y-76934286D01*
X39500000Y-76791429D01*
X39571429Y-76720000D01*
X39714286Y-76648571D01*
D12*
X19050000Y-90805000D02*
X19050000Y-84455000D01*
X19050000Y-84455000D02*
X21590000Y-84455000D01*
X21590000Y-84455000D02*
X21590000Y-90805000D01*
X21590000Y-90805000D02*
X19050000Y-90805000D01*
X19050000Y-107315000D02*
X19050000Y-100965000D01*
X19050000Y-100965000D02*
X21590000Y-100965000D01*
X21590000Y-100965000D02*
X21590000Y-107315000D01*
X21590000Y-107315000D02*
X19050000Y-107315000D01*
X19050000Y-126365000D02*
X19050000Y-120015000D01*
X19050000Y-120015000D02*
X21590000Y-120015000D01*
X21590000Y-120015000D02*
X21590000Y-126365000D01*
X21590000Y-126365000D02*
X19050000Y-126365000D01*
X21590000Y-139065000D02*
X21590000Y-145415000D01*
X21590000Y-145415000D02*
X19050000Y-145415000D01*
X19050000Y-145415000D02*
X19050000Y-139065000D01*
X19050000Y-139065000D02*
X21590000Y-139065000D01*
X38100000Y-88265000D02*
X38100000Y-81915000D01*
X38100000Y-81915000D02*
X40640000Y-81915000D01*
X40640000Y-81915000D02*
X40640000Y-88265000D01*
X40640000Y-88265000D02*
X38100000Y-88265000D01*
X43180000Y-107315000D02*
X43180000Y-100965000D01*
X43180000Y-100965000D02*
X45720000Y-100965000D01*
X45720000Y-100965000D02*
X45720000Y-107315000D01*
X45720000Y-107315000D02*
X43180000Y-107315000D01*
X52070000Y-126365000D02*
X52070000Y-120015000D01*
X52070000Y-120015000D02*
X54610000Y-120015000D01*
X54610000Y-120015000D02*
X54610000Y-126365000D01*
X54610000Y-126365000D02*
X52070000Y-126365000D01*
X40640000Y-139065000D02*
X40640000Y-145415000D01*
X40640000Y-145415000D02*
X38100000Y-145415000D01*
X38100000Y-145415000D02*
X38100000Y-139065000D01*
X38100000Y-139065000D02*
X40640000Y-139065000D01*
X57150000Y-88265000D02*
X57150000Y-81915000D01*
X57150000Y-81915000D02*
X59690000Y-81915000D01*
X59690000Y-81915000D02*
X59690000Y-88265000D01*
X59690000Y-88265000D02*
X57150000Y-88265000D01*
X62230000Y-107315000D02*
X62230000Y-100965000D01*
X62230000Y-100965000D02*
X64770000Y-100965000D01*
X64770000Y-100965000D02*
X64770000Y-107315000D01*
X64770000Y-107315000D02*
X62230000Y-107315000D01*
X71120000Y-126365000D02*
X71120000Y-120015000D01*
X71120000Y-120015000D02*
X73660000Y-120015000D01*
X73660000Y-120015000D02*
X73660000Y-126365000D01*
X73660000Y-126365000D02*
X71120000Y-126365000D01*
X59690000Y-139065000D02*
X59690000Y-145415000D01*
X59690000Y-145415000D02*
X57150000Y-145415000D01*
X57150000Y-145415000D02*
X57150000Y-139065000D01*
X57150000Y-139065000D02*
X59690000Y-139065000D01*
X76200000Y-88265000D02*
X76200000Y-81915000D01*
X76200000Y-81915000D02*
X78740000Y-81915000D01*
X78740000Y-81915000D02*
X78740000Y-88265000D01*
X78740000Y-88265000D02*
X76200000Y-88265000D01*
X81280000Y-107315000D02*
X81280000Y-100965000D01*
X81280000Y-100965000D02*
X83820000Y-100965000D01*
X83820000Y-100965000D02*
X83820000Y-107315000D01*
X83820000Y-107315000D02*
X81280000Y-107315000D01*
X90170000Y-126365000D02*
X90170000Y-120015000D01*
X90170000Y-120015000D02*
X92710000Y-120015000D01*
X92710000Y-120015000D02*
X92710000Y-126365000D01*
X92710000Y-126365000D02*
X90170000Y-126365000D01*
X78740000Y-139065000D02*
X78740000Y-145415000D01*
X78740000Y-145415000D02*
X76200000Y-145415000D01*
X76200000Y-145415000D02*
X76200000Y-139065000D01*
X76200000Y-139065000D02*
X78740000Y-139065000D01*
X95250000Y-88265000D02*
X95250000Y-81915000D01*
X95250000Y-81915000D02*
X97790000Y-81915000D01*
X97790000Y-81915000D02*
X97790000Y-88265000D01*
X97790000Y-88265000D02*
X95250000Y-88265000D01*
X100330000Y-107315000D02*
X100330000Y-100965000D01*
X100330000Y-100965000D02*
X102870000Y-100965000D01*
X102870000Y-100965000D02*
X102870000Y-107315000D01*
X102870000Y-107315000D02*
X100330000Y-107315000D01*
X109220000Y-126365000D02*
X109220000Y-120015000D01*
X109220000Y-120015000D02*
X111760000Y-120015000D01*
X111760000Y-120015000D02*
X111760000Y-126365000D01*
X111760000Y-126365000D02*
X109220000Y-126365000D01*
X114300000Y-88265000D02*
X114300000Y-81915000D01*
X114300000Y-81915000D02*
X116840000Y-81915000D01*
X116840000Y-81915000D02*
X116840000Y-88265000D01*
X116840000Y-88265000D02*
X114300000Y-88265000D01*
X119380000Y-107315000D02*
X119380000Y-100965000D01*
X119380000Y-100965000D02*
X121920000Y-100965000D01*
X121920000Y-100965000D02*
X121920000Y-107315000D01*
X121920000Y-107315000D02*
X119380000Y-107315000D01*
X128270000Y-126365000D02*
X128270000Y-120015000D01*
X128270000Y-120015000D02*
X130810000Y-120015000D01*
X130810000Y-120015000D02*
X130810000Y-126365000D01*
X130810000Y-126365000D02*
X128270000Y-126365000D01*
X121285000Y-149860000D02*
X127635000Y-149860000D01*
X127635000Y-149860000D02*
X127635000Y-152400000D01*
X127635000Y-152400000D02*
X121285000Y-152400000D01*
X121285000Y-152400000D02*
X121285000Y-149860000D01*
X133350000Y-88265000D02*
X133350000Y-81915000D01*
X133350000Y-81915000D02*
X135890000Y-81915000D01*
X135890000Y-81915000D02*
X135890000Y-88265000D01*
X135890000Y-88265000D02*
X133350000Y-88265000D01*
X138430000Y-107315000D02*
X138430000Y-100965000D01*
X138430000Y-100965000D02*
X140970000Y-100965000D01*
X140970000Y-100965000D02*
X140970000Y-107315000D01*
X140970000Y-107315000D02*
X138430000Y-107315000D01*
X147320000Y-126365000D02*
X147320000Y-120015000D01*
X147320000Y-120015000D02*
X149860000Y-120015000D01*
X149860000Y-120015000D02*
X149860000Y-126365000D01*
X149860000Y-126365000D02*
X147320000Y-126365000D01*
X152400000Y-88265000D02*
X152400000Y-81915000D01*
X152400000Y-81915000D02*
X154940000Y-81915000D01*
X154940000Y-81915000D02*
X154940000Y-88265000D01*
X154940000Y-88265000D02*
X152400000Y-88265000D01*
X157480000Y-107315000D02*
X157480000Y-100965000D01*
X157480000Y-100965000D02*
X160020000Y-100965000D01*
X160020000Y-100965000D02*
X160020000Y-107315000D01*
X160020000Y-107315000D02*
X157480000Y-107315000D01*
X166370000Y-126365000D02*
X166370000Y-120015000D01*
X166370000Y-120015000D02*
X168910000Y-120015000D01*
X168910000Y-120015000D02*
X168910000Y-126365000D01*
X168910000Y-126365000D02*
X166370000Y-126365000D01*
X171450000Y-88265000D02*
X171450000Y-81915000D01*
X171450000Y-81915000D02*
X173990000Y-81915000D01*
X173990000Y-81915000D02*
X173990000Y-88265000D01*
X173990000Y-88265000D02*
X171450000Y-88265000D01*
X176530000Y-107315000D02*
X176530000Y-100965000D01*
X176530000Y-100965000D02*
X179070000Y-100965000D01*
X179070000Y-100965000D02*
X179070000Y-107315000D01*
X179070000Y-107315000D02*
X176530000Y-107315000D01*
X185420000Y-126365000D02*
X185420000Y-120015000D01*
X185420000Y-120015000D02*
X187960000Y-120015000D01*
X187960000Y-120015000D02*
X187960000Y-126365000D01*
X187960000Y-126365000D02*
X185420000Y-126365000D01*
X182880000Y-139065000D02*
X182880000Y-145415000D01*
X182880000Y-145415000D02*
X180340000Y-145415000D01*
X180340000Y-145415000D02*
X180340000Y-139065000D01*
X180340000Y-139065000D02*
X182880000Y-139065000D01*
X190500000Y-88265000D02*
X190500000Y-81915000D01*
X190500000Y-81915000D02*
X193040000Y-81915000D01*
X193040000Y-81915000D02*
X193040000Y-88265000D01*
X193040000Y-88265000D02*
X190500000Y-88265000D01*
X195580000Y-107315000D02*
X195580000Y-100965000D01*
X195580000Y-100965000D02*
X198120000Y-100965000D01*
X198120000Y-100965000D02*
X198120000Y-107315000D01*
X198120000Y-107315000D02*
X195580000Y-107315000D01*
X204470000Y-126365000D02*
X204470000Y-120015000D01*
X204470000Y-120015000D02*
X207010000Y-120015000D01*
X207010000Y-120015000D02*
X207010000Y-126365000D01*
X207010000Y-126365000D02*
X204470000Y-126365000D01*
X207010000Y-139065000D02*
X207010000Y-145415000D01*
X207010000Y-145415000D02*
X204470000Y-145415000D01*
X204470000Y-145415000D02*
X204470000Y-139065000D01*
X204470000Y-139065000D02*
X207010000Y-139065000D01*
X209550000Y-88265000D02*
X209550000Y-81915000D01*
X209550000Y-81915000D02*
X212090000Y-81915000D01*
X212090000Y-81915000D02*
X212090000Y-88265000D01*
X212090000Y-88265000D02*
X209550000Y-88265000D01*
X214630000Y-107315000D02*
X214630000Y-100965000D01*
X214630000Y-100965000D02*
X217170000Y-100965000D01*
X217170000Y-100965000D02*
X217170000Y-107315000D01*
X217170000Y-107315000D02*
X214630000Y-107315000D01*
X223520000Y-126365000D02*
X223520000Y-120015000D01*
X223520000Y-120015000D02*
X226060000Y-120015000D01*
X226060000Y-120015000D02*
X226060000Y-126365000D01*
X226060000Y-126365000D02*
X223520000Y-126365000D01*
X226060000Y-139065000D02*
X226060000Y-145415000D01*
X226060000Y-145415000D02*
X223520000Y-145415000D01*
X223520000Y-145415000D02*
X223520000Y-139065000D01*
X223520000Y-139065000D02*
X226060000Y-139065000D01*
X228600000Y-89535000D02*
X228600000Y-83185000D01*
X228600000Y-83185000D02*
X231140000Y-83185000D01*
X231140000Y-83185000D02*
X231140000Y-89535000D01*
X231140000Y-89535000D02*
X228600000Y-89535000D01*
X233680000Y-107315000D02*
X233680000Y-100965000D01*
X233680000Y-100965000D02*
X236220000Y-100965000D01*
X236220000Y-100965000D02*
X236220000Y-107315000D01*
X236220000Y-107315000D02*
X233680000Y-107315000D01*
X248920000Y-126365000D02*
X248920000Y-120015000D01*
X248920000Y-120015000D02*
X251460000Y-120015000D01*
X251460000Y-120015000D02*
X251460000Y-126365000D01*
X251460000Y-126365000D02*
X248920000Y-126365000D01*
X245110000Y-139065000D02*
X245110000Y-145415000D01*
X245110000Y-145415000D02*
X242570000Y-145415000D01*
X242570000Y-145415000D02*
X242570000Y-139065000D01*
X242570000Y-139065000D02*
X245110000Y-139065000D01*
X247650000Y-89535000D02*
X247650000Y-83185000D01*
X247650000Y-83185000D02*
X250190000Y-83185000D01*
X250190000Y-83185000D02*
X250190000Y-89535000D01*
X250190000Y-89535000D02*
X247650000Y-89535000D01*
X275590000Y-125095000D02*
X275590000Y-131445000D01*
X275590000Y-131445000D02*
X273050000Y-131445000D01*
X273050000Y-131445000D02*
X273050000Y-125095000D01*
X273050000Y-125095000D02*
X275590000Y-125095000D01*
X271780000Y-125095000D02*
X271780000Y-131445000D01*
X271780000Y-131445000D02*
X269240000Y-131445000D01*
X269240000Y-131445000D02*
X269240000Y-125095000D01*
X269240000Y-125095000D02*
X271780000Y-125095000D01*
X238760000Y-78663800D02*
X241300000Y-78663800D01*
X238708479Y-78663195D02*
G75*
G02X241350800Y-78663800I1321521J1574195D01*
G01*
X252730000Y-78663800D02*
X255270000Y-78663800D01*
X252678479Y-78663195D02*
G75*
G02X255320800Y-78663800I1321521J1574195D01*
G01*
X266700000Y-78663800D02*
X269240000Y-78663800D01*
X266648479Y-78663195D02*
G75*
G02X269290800Y-78663800I1321521J1574195D01*
G01*
X231775000Y-76835000D02*
X238125000Y-76835000D01*
X238125000Y-76835000D02*
X238125000Y-79375000D01*
X238125000Y-79375000D02*
X231775000Y-79375000D01*
X231775000Y-79375000D02*
X231775000Y-76835000D01*
X240030000Y-78105000D02*
X238125000Y-78105000D01*
X229870000Y-78105000D02*
X231775000Y-78105000D01*
X245745000Y-76835000D02*
X252095000Y-76835000D01*
X252095000Y-76835000D02*
X252095000Y-79375000D01*
X252095000Y-79375000D02*
X245745000Y-79375000D01*
X245745000Y-79375000D02*
X245745000Y-76835000D01*
X254000000Y-78105000D02*
X252095000Y-78105000D01*
X243840000Y-78105000D02*
X245745000Y-78105000D01*
X259715000Y-76835000D02*
X266065000Y-76835000D01*
X266065000Y-76835000D02*
X266065000Y-79375000D01*
X266065000Y-79375000D02*
X259715000Y-79375000D01*
X259715000Y-79375000D02*
X259715000Y-76835000D01*
X267970000Y-78105000D02*
X266065000Y-78105000D01*
X257810000Y-78105000D02*
X259715000Y-78105000D01*
D13*
X22860000Y-82550000D02*
X24638000Y-82550000D01*
X33782000Y-82550000D02*
X35560000Y-82550000D01*
X35560000Y-82550000D02*
X35560000Y-84328000D01*
X35560000Y-93472000D02*
X35560000Y-95250000D01*
X35560000Y-95250000D02*
X33782000Y-95250000D01*
X24638000Y-95250000D02*
X22860000Y-95250000D01*
X22860000Y-95250000D02*
X22860000Y-93472000D01*
X22860000Y-84328000D02*
X22860000Y-82550000D01*
X41910000Y-82550000D02*
X43688000Y-82550000D01*
X52832000Y-82550000D02*
X54610000Y-82550000D01*
X54610000Y-82550000D02*
X54610000Y-84328000D01*
X54610000Y-93472000D02*
X54610000Y-95250000D01*
X54610000Y-95250000D02*
X52832000Y-95250000D01*
X43688000Y-95250000D02*
X41910000Y-95250000D01*
X41910000Y-95250000D02*
X41910000Y-93472000D01*
X41910000Y-84328000D02*
X41910000Y-82550000D01*
X60960000Y-82550000D02*
X62738000Y-82550000D01*
X71882000Y-82550000D02*
X73660000Y-82550000D01*
X73660000Y-82550000D02*
X73660000Y-84328000D01*
X73660000Y-93472000D02*
X73660000Y-95250000D01*
X73660000Y-95250000D02*
X71882000Y-95250000D01*
X62738000Y-95250000D02*
X60960000Y-95250000D01*
X60960000Y-95250000D02*
X60960000Y-93472000D01*
X60960000Y-84328000D02*
X60960000Y-82550000D01*
X80010000Y-82550000D02*
X81788000Y-82550000D01*
X90932000Y-82550000D02*
X92710000Y-82550000D01*
X92710000Y-82550000D02*
X92710000Y-84328000D01*
X92710000Y-93472000D02*
X92710000Y-95250000D01*
X92710000Y-95250000D02*
X90932000Y-95250000D01*
X81788000Y-95250000D02*
X80010000Y-95250000D01*
X80010000Y-95250000D02*
X80010000Y-93472000D01*
X80010000Y-84328000D02*
X80010000Y-82550000D01*
X99060000Y-82550000D02*
X100838000Y-82550000D01*
X109982000Y-82550000D02*
X111760000Y-82550000D01*
X111760000Y-82550000D02*
X111760000Y-84328000D01*
X111760000Y-93472000D02*
X111760000Y-95250000D01*
X111760000Y-95250000D02*
X109982000Y-95250000D01*
X100838000Y-95250000D02*
X99060000Y-95250000D01*
X99060000Y-95250000D02*
X99060000Y-93472000D01*
X99060000Y-84328000D02*
X99060000Y-82550000D01*
X118110000Y-82550000D02*
X119888000Y-82550000D01*
X129032000Y-82550000D02*
X130810000Y-82550000D01*
X130810000Y-82550000D02*
X130810000Y-84328000D01*
X130810000Y-93472000D02*
X130810000Y-95250000D01*
X130810000Y-95250000D02*
X129032000Y-95250000D01*
X119888000Y-95250000D02*
X118110000Y-95250000D01*
X118110000Y-95250000D02*
X118110000Y-93472000D01*
X118110000Y-84328000D02*
X118110000Y-82550000D01*
X137160000Y-82550000D02*
X138938000Y-82550000D01*
X148082000Y-82550000D02*
X149860000Y-82550000D01*
X149860000Y-82550000D02*
X149860000Y-84328000D01*
X149860000Y-93472000D02*
X149860000Y-95250000D01*
X149860000Y-95250000D02*
X148082000Y-95250000D01*
X138938000Y-95250000D02*
X137160000Y-95250000D01*
X137160000Y-95250000D02*
X137160000Y-93472000D01*
X137160000Y-84328000D02*
X137160000Y-82550000D01*
X156210000Y-82550000D02*
X157988000Y-82550000D01*
X167132000Y-82550000D02*
X168910000Y-82550000D01*
X168910000Y-82550000D02*
X168910000Y-84328000D01*
X168910000Y-93472000D02*
X168910000Y-95250000D01*
X168910000Y-95250000D02*
X167132000Y-95250000D01*
X157988000Y-95250000D02*
X156210000Y-95250000D01*
X156210000Y-95250000D02*
X156210000Y-93472000D01*
X156210000Y-84328000D02*
X156210000Y-82550000D01*
X175260000Y-82550000D02*
X177038000Y-82550000D01*
X186182000Y-82550000D02*
X187960000Y-82550000D01*
X187960000Y-82550000D02*
X187960000Y-84328000D01*
X187960000Y-93472000D02*
X187960000Y-95250000D01*
X187960000Y-95250000D02*
X186182000Y-95250000D01*
X177038000Y-95250000D02*
X175260000Y-95250000D01*
X175260000Y-95250000D02*
X175260000Y-93472000D01*
X175260000Y-84328000D02*
X175260000Y-82550000D01*
X194310000Y-82550000D02*
X196088000Y-82550000D01*
X205232000Y-82550000D02*
X207010000Y-82550000D01*
X207010000Y-82550000D02*
X207010000Y-84328000D01*
X207010000Y-93472000D02*
X207010000Y-95250000D01*
X207010000Y-95250000D02*
X205232000Y-95250000D01*
X196088000Y-95250000D02*
X194310000Y-95250000D01*
X194310000Y-95250000D02*
X194310000Y-93472000D01*
X194310000Y-84328000D02*
X194310000Y-82550000D01*
X213360000Y-82550000D02*
X215138000Y-82550000D01*
X224282000Y-82550000D02*
X226060000Y-82550000D01*
X226060000Y-82550000D02*
X226060000Y-84328000D01*
X226060000Y-93472000D02*
X226060000Y-95250000D01*
X226060000Y-95250000D02*
X224282000Y-95250000D01*
X215138000Y-95250000D02*
X213360000Y-95250000D01*
X213360000Y-95250000D02*
X213360000Y-93472000D01*
X213360000Y-84328000D02*
X213360000Y-82550000D01*
X232410000Y-82550000D02*
X234188000Y-82550000D01*
X243332000Y-82550000D02*
X245110000Y-82550000D01*
X245110000Y-82550000D02*
X245110000Y-84328000D01*
X245110000Y-93472000D02*
X245110000Y-95250000D01*
X245110000Y-95250000D02*
X243332000Y-95250000D01*
X234188000Y-95250000D02*
X232410000Y-95250000D01*
X232410000Y-95250000D02*
X232410000Y-93472000D01*
X232410000Y-84328000D02*
X232410000Y-82550000D01*
X256540000Y-82550000D02*
X258318000Y-82550000D01*
X267462000Y-82550000D02*
X269240000Y-82550000D01*
X269240000Y-82550000D02*
X269240000Y-84328000D01*
X269240000Y-93472000D02*
X269240000Y-95250000D01*
X269240000Y-95250000D02*
X267462000Y-95250000D01*
X258318000Y-95250000D02*
X256540000Y-95250000D01*
X256540000Y-95250000D02*
X256540000Y-93472000D01*
X256540000Y-84328000D02*
X256540000Y-82550000D01*
X25400000Y-101600000D02*
X27178000Y-101600000D01*
X36322000Y-101600000D02*
X38100000Y-101600000D01*
X38100000Y-101600000D02*
X38100000Y-103378000D01*
X38100000Y-112522000D02*
X38100000Y-114300000D01*
X38100000Y-114300000D02*
X36322000Y-114300000D01*
X27178000Y-114300000D02*
X25400000Y-114300000D01*
X25400000Y-114300000D02*
X25400000Y-112522000D01*
X25400000Y-103378000D02*
X25400000Y-101600000D01*
X46990000Y-101600000D02*
X48768000Y-101600000D01*
X57912000Y-101600000D02*
X59690000Y-101600000D01*
X59690000Y-101600000D02*
X59690000Y-103378000D01*
X59690000Y-112522000D02*
X59690000Y-114300000D01*
X59690000Y-114300000D02*
X57912000Y-114300000D01*
X48768000Y-114300000D02*
X46990000Y-114300000D01*
X46990000Y-114300000D02*
X46990000Y-112522000D01*
X46990000Y-103378000D02*
X46990000Y-101600000D01*
X66040000Y-101600000D02*
X67818000Y-101600000D01*
X76962000Y-101600000D02*
X78740000Y-101600000D01*
X78740000Y-101600000D02*
X78740000Y-103378000D01*
X78740000Y-112522000D02*
X78740000Y-114300000D01*
X78740000Y-114300000D02*
X76962000Y-114300000D01*
X67818000Y-114300000D02*
X66040000Y-114300000D01*
X66040000Y-114300000D02*
X66040000Y-112522000D01*
X66040000Y-103378000D02*
X66040000Y-101600000D01*
X85090000Y-101600000D02*
X86868000Y-101600000D01*
X96012000Y-101600000D02*
X97790000Y-101600000D01*
X97790000Y-101600000D02*
X97790000Y-103378000D01*
X97790000Y-112522000D02*
X97790000Y-114300000D01*
X97790000Y-114300000D02*
X96012000Y-114300000D01*
X86868000Y-114300000D02*
X85090000Y-114300000D01*
X85090000Y-114300000D02*
X85090000Y-112522000D01*
X85090000Y-103378000D02*
X85090000Y-101600000D01*
X104140000Y-101600000D02*
X105918000Y-101600000D01*
X115062000Y-101600000D02*
X116840000Y-101600000D01*
X116840000Y-101600000D02*
X116840000Y-103378000D01*
X116840000Y-112522000D02*
X116840000Y-114300000D01*
X116840000Y-114300000D02*
X115062000Y-114300000D01*
X105918000Y-114300000D02*
X104140000Y-114300000D01*
X104140000Y-114300000D02*
X104140000Y-112522000D01*
X104140000Y-103378000D02*
X104140000Y-101600000D01*
X123190000Y-101600000D02*
X124968000Y-101600000D01*
X134112000Y-101600000D02*
X135890000Y-101600000D01*
X135890000Y-101600000D02*
X135890000Y-103378000D01*
X135890000Y-112522000D02*
X135890000Y-114300000D01*
X135890000Y-114300000D02*
X134112000Y-114300000D01*
X124968000Y-114300000D02*
X123190000Y-114300000D01*
X123190000Y-114300000D02*
X123190000Y-112522000D01*
X123190000Y-103378000D02*
X123190000Y-101600000D01*
X142240000Y-101600000D02*
X144018000Y-101600000D01*
X153162000Y-101600000D02*
X154940000Y-101600000D01*
X154940000Y-101600000D02*
X154940000Y-103378000D01*
X154940000Y-112522000D02*
X154940000Y-114300000D01*
X154940000Y-114300000D02*
X153162000Y-114300000D01*
X144018000Y-114300000D02*
X142240000Y-114300000D01*
X142240000Y-114300000D02*
X142240000Y-112522000D01*
X142240000Y-103378000D02*
X142240000Y-101600000D01*
X161290000Y-101600000D02*
X163068000Y-101600000D01*
X172212000Y-101600000D02*
X173990000Y-101600000D01*
X173990000Y-101600000D02*
X173990000Y-103378000D01*
X173990000Y-112522000D02*
X173990000Y-114300000D01*
X173990000Y-114300000D02*
X172212000Y-114300000D01*
X163068000Y-114300000D02*
X161290000Y-114300000D01*
X161290000Y-114300000D02*
X161290000Y-112522000D01*
X161290000Y-103378000D02*
X161290000Y-101600000D01*
X180340000Y-101600000D02*
X182118000Y-101600000D01*
X191262000Y-101600000D02*
X193040000Y-101600000D01*
X193040000Y-101600000D02*
X193040000Y-103378000D01*
X193040000Y-112522000D02*
X193040000Y-114300000D01*
X193040000Y-114300000D02*
X191262000Y-114300000D01*
X182118000Y-114300000D02*
X180340000Y-114300000D01*
X180340000Y-114300000D02*
X180340000Y-112522000D01*
X180340000Y-103378000D02*
X180340000Y-101600000D01*
X199390000Y-101600000D02*
X201168000Y-101600000D01*
X210312000Y-101600000D02*
X212090000Y-101600000D01*
X212090000Y-101600000D02*
X212090000Y-103378000D01*
X212090000Y-112522000D02*
X212090000Y-114300000D01*
X212090000Y-114300000D02*
X210312000Y-114300000D01*
X201168000Y-114300000D02*
X199390000Y-114300000D01*
X199390000Y-114300000D02*
X199390000Y-112522000D01*
X199390000Y-103378000D02*
X199390000Y-101600000D01*
X218440000Y-101600000D02*
X220218000Y-101600000D01*
X229362000Y-101600000D02*
X231140000Y-101600000D01*
X231140000Y-101600000D02*
X231140000Y-103378000D01*
X231140000Y-112522000D02*
X231140000Y-114300000D01*
X231140000Y-114300000D02*
X229362000Y-114300000D01*
X220218000Y-114300000D02*
X218440000Y-114300000D01*
X218440000Y-114300000D02*
X218440000Y-112522000D01*
X218440000Y-103378000D02*
X218440000Y-101600000D01*
X248920000Y-101600000D02*
X250698000Y-101600000D01*
X259842000Y-101600000D02*
X261620000Y-101600000D01*
X261620000Y-101600000D02*
X261620000Y-103378000D01*
X261620000Y-112522000D02*
X261620000Y-114300000D01*
X261620000Y-114300000D02*
X259842000Y-114300000D01*
X250698000Y-114300000D02*
X248920000Y-114300000D01*
X248920000Y-114300000D02*
X248920000Y-112522000D01*
X248920000Y-103378000D02*
X248920000Y-101600000D01*
X30480000Y-120650000D02*
X32258000Y-120650000D01*
X41402000Y-120650000D02*
X43180000Y-120650000D01*
X43180000Y-120650000D02*
X43180000Y-122428000D01*
X43180000Y-131572000D02*
X43180000Y-133350000D01*
X43180000Y-133350000D02*
X41402000Y-133350000D01*
X32258000Y-133350000D02*
X30480000Y-133350000D01*
X30480000Y-133350000D02*
X30480000Y-131572000D01*
X30480000Y-122428000D02*
X30480000Y-120650000D01*
X55880000Y-120650000D02*
X57658000Y-120650000D01*
X66802000Y-120650000D02*
X68580000Y-120650000D01*
X68580000Y-120650000D02*
X68580000Y-122428000D01*
X68580000Y-131572000D02*
X68580000Y-133350000D01*
X68580000Y-133350000D02*
X66802000Y-133350000D01*
X57658000Y-133350000D02*
X55880000Y-133350000D01*
X55880000Y-133350000D02*
X55880000Y-131572000D01*
X55880000Y-122428000D02*
X55880000Y-120650000D01*
X74930000Y-120650000D02*
X76708000Y-120650000D01*
X85852000Y-120650000D02*
X87630000Y-120650000D01*
X87630000Y-120650000D02*
X87630000Y-122428000D01*
X87630000Y-131572000D02*
X87630000Y-133350000D01*
X87630000Y-133350000D02*
X85852000Y-133350000D01*
X76708000Y-133350000D02*
X74930000Y-133350000D01*
X74930000Y-133350000D02*
X74930000Y-131572000D01*
X74930000Y-122428000D02*
X74930000Y-120650000D01*
X93980000Y-120650000D02*
X95758000Y-120650000D01*
X104902000Y-120650000D02*
X106680000Y-120650000D01*
X106680000Y-120650000D02*
X106680000Y-122428000D01*
X106680000Y-131572000D02*
X106680000Y-133350000D01*
X106680000Y-133350000D02*
X104902000Y-133350000D01*
X95758000Y-133350000D02*
X93980000Y-133350000D01*
X93980000Y-133350000D02*
X93980000Y-131572000D01*
X93980000Y-122428000D02*
X93980000Y-120650000D01*
X113030000Y-120650000D02*
X114808000Y-120650000D01*
X123952000Y-120650000D02*
X125730000Y-120650000D01*
X125730000Y-120650000D02*
X125730000Y-122428000D01*
X125730000Y-131572000D02*
X125730000Y-133350000D01*
X125730000Y-133350000D02*
X123952000Y-133350000D01*
X114808000Y-133350000D02*
X113030000Y-133350000D01*
X113030000Y-133350000D02*
X113030000Y-131572000D01*
X113030000Y-122428000D02*
X113030000Y-120650000D01*
X132080000Y-120650000D02*
X133858000Y-120650000D01*
X143002000Y-120650000D02*
X144780000Y-120650000D01*
X144780000Y-120650000D02*
X144780000Y-122428000D01*
X144780000Y-131572000D02*
X144780000Y-133350000D01*
X144780000Y-133350000D02*
X143002000Y-133350000D01*
X133858000Y-133350000D02*
X132080000Y-133350000D01*
X132080000Y-133350000D02*
X132080000Y-131572000D01*
X132080000Y-122428000D02*
X132080000Y-120650000D01*
X151130000Y-120650000D02*
X152908000Y-120650000D01*
X162052000Y-120650000D02*
X163830000Y-120650000D01*
X163830000Y-120650000D02*
X163830000Y-122428000D01*
X163830000Y-131572000D02*
X163830000Y-133350000D01*
X163830000Y-133350000D02*
X162052000Y-133350000D01*
X152908000Y-133350000D02*
X151130000Y-133350000D01*
X151130000Y-133350000D02*
X151130000Y-131572000D01*
X151130000Y-122428000D02*
X151130000Y-120650000D01*
X170180000Y-120650000D02*
X171958000Y-120650000D01*
X181102000Y-120650000D02*
X182880000Y-120650000D01*
X182880000Y-120650000D02*
X182880000Y-122428000D01*
X182880000Y-131572000D02*
X182880000Y-133350000D01*
X182880000Y-133350000D02*
X181102000Y-133350000D01*
X171958000Y-133350000D02*
X170180000Y-133350000D01*
X170180000Y-133350000D02*
X170180000Y-131572000D01*
X170180000Y-122428000D02*
X170180000Y-120650000D01*
X189230000Y-120650000D02*
X191008000Y-120650000D01*
X200152000Y-120650000D02*
X201930000Y-120650000D01*
X201930000Y-120650000D02*
X201930000Y-122428000D01*
X201930000Y-131572000D02*
X201930000Y-133350000D01*
X201930000Y-133350000D02*
X200152000Y-133350000D01*
X191008000Y-133350000D02*
X189230000Y-133350000D01*
X189230000Y-133350000D02*
X189230000Y-131572000D01*
X189230000Y-122428000D02*
X189230000Y-120650000D01*
X208280000Y-120650000D02*
X210058000Y-120650000D01*
X219202000Y-120650000D02*
X220980000Y-120650000D01*
X220980000Y-120650000D02*
X220980000Y-122428000D01*
X220980000Y-131572000D02*
X220980000Y-133350000D01*
X220980000Y-133350000D02*
X219202000Y-133350000D01*
X210058000Y-133350000D02*
X208280000Y-133350000D01*
X208280000Y-133350000D02*
X208280000Y-131572000D01*
X208280000Y-122428000D02*
X208280000Y-120650000D01*
X227330000Y-120650000D02*
X229108000Y-120650000D01*
X238252000Y-120650000D02*
X240030000Y-120650000D01*
X240030000Y-120650000D02*
X240030000Y-122428000D01*
X240030000Y-131572000D02*
X240030000Y-133350000D01*
X240030000Y-133350000D02*
X238252000Y-133350000D01*
X229108000Y-133350000D02*
X227330000Y-133350000D01*
X227330000Y-133350000D02*
X227330000Y-131572000D01*
X227330000Y-122428000D02*
X227330000Y-120650000D01*
X254000000Y-120650000D02*
X255778000Y-120650000D01*
X264922000Y-120650000D02*
X266700000Y-120650000D01*
X266700000Y-120650000D02*
X266700000Y-122428000D01*
X266700000Y-131572000D02*
X266700000Y-133350000D01*
X266700000Y-133350000D02*
X264922000Y-133350000D01*
X255778000Y-133350000D02*
X254000000Y-133350000D01*
X254000000Y-133350000D02*
X254000000Y-131572000D01*
X254000000Y-122428000D02*
X254000000Y-120650000D01*
D14*
X264160000Y-146050000D02*
X273050000Y-146050000D01*
X273050000Y-146050000D02*
X273050000Y-138430000D01*
X273050000Y-138430000D02*
X262890000Y-138430000D01*
X262890000Y-138430000D02*
X262890000Y-146050000D01*
X262890000Y-146050000D02*
X264160000Y-146050000D01*
X269978046Y-142240000D02*
G75*
G03X269978046Y-142240000I-2008046J0D01*
G01*
D13*
X22860000Y-139700000D02*
X24638000Y-139700000D01*
X33782000Y-139700000D02*
X35560000Y-139700000D01*
X35560000Y-139700000D02*
X35560000Y-141478000D01*
X35560000Y-150622000D02*
X35560000Y-152400000D01*
X35560000Y-152400000D02*
X33782000Y-152400000D01*
X24638000Y-152400000D02*
X22860000Y-152400000D01*
X22860000Y-152400000D02*
X22860000Y-150622000D01*
X22860000Y-141478000D02*
X22860000Y-139700000D01*
X41910000Y-139700000D02*
X43688000Y-139700000D01*
X52832000Y-139700000D02*
X54610000Y-139700000D01*
X54610000Y-139700000D02*
X54610000Y-141478000D01*
X54610000Y-150622000D02*
X54610000Y-152400000D01*
X54610000Y-152400000D02*
X52832000Y-152400000D01*
X43688000Y-152400000D02*
X41910000Y-152400000D01*
X41910000Y-152400000D02*
X41910000Y-150622000D01*
X41910000Y-141478000D02*
X41910000Y-139700000D01*
X60960000Y-139700000D02*
X62738000Y-139700000D01*
X71882000Y-139700000D02*
X73660000Y-139700000D01*
X73660000Y-139700000D02*
X73660000Y-141478000D01*
X73660000Y-150622000D02*
X73660000Y-152400000D01*
X73660000Y-152400000D02*
X71882000Y-152400000D01*
X62738000Y-152400000D02*
X60960000Y-152400000D01*
X60960000Y-152400000D02*
X60960000Y-150622000D01*
X60960000Y-141478000D02*
X60960000Y-139700000D01*
X82550000Y-139700000D02*
X84328000Y-139700000D01*
X93472000Y-139700000D02*
X95250000Y-139700000D01*
X95250000Y-139700000D02*
X95250000Y-141478000D01*
X95250000Y-150622000D02*
X95250000Y-152400000D01*
X95250000Y-152400000D02*
X93472000Y-152400000D01*
X84328000Y-152400000D02*
X82550000Y-152400000D01*
X82550000Y-152400000D02*
X82550000Y-150622000D01*
X82550000Y-141478000D02*
X82550000Y-139700000D01*
X134620000Y-139700000D02*
X136398000Y-139700000D01*
X145542000Y-139700000D02*
X147320000Y-139700000D01*
X147320000Y-139700000D02*
X147320000Y-141478000D01*
X147320000Y-150622000D02*
X147320000Y-152400000D01*
X147320000Y-152400000D02*
X145542000Y-152400000D01*
X136398000Y-152400000D02*
X134620000Y-152400000D01*
X134620000Y-152400000D02*
X134620000Y-150622000D01*
X134620000Y-141478000D02*
X134620000Y-139700000D01*
X186690000Y-139700000D02*
X188468000Y-139700000D01*
X197612000Y-139700000D02*
X199390000Y-139700000D01*
X199390000Y-139700000D02*
X199390000Y-141478000D01*
X199390000Y-150622000D02*
X199390000Y-152400000D01*
X199390000Y-152400000D02*
X197612000Y-152400000D01*
X188468000Y-152400000D02*
X186690000Y-152400000D01*
X186690000Y-152400000D02*
X186690000Y-150622000D01*
X186690000Y-141478000D02*
X186690000Y-139700000D01*
X208280000Y-139700000D02*
X210058000Y-139700000D01*
X219202000Y-139700000D02*
X220980000Y-139700000D01*
X220980000Y-139700000D02*
X220980000Y-141478000D01*
X220980000Y-150622000D02*
X220980000Y-152400000D01*
X220980000Y-152400000D02*
X219202000Y-152400000D01*
X210058000Y-152400000D02*
X208280000Y-152400000D01*
X208280000Y-152400000D02*
X208280000Y-150622000D01*
X208280000Y-141478000D02*
X208280000Y-139700000D01*
X227330000Y-139700000D02*
X229108000Y-139700000D01*
X238252000Y-139700000D02*
X240030000Y-139700000D01*
X240030000Y-139700000D02*
X240030000Y-141478000D01*
X240030000Y-150622000D02*
X240030000Y-152400000D01*
X240030000Y-152400000D02*
X238252000Y-152400000D01*
X229108000Y-152400000D02*
X227330000Y-152400000D01*
X227330000Y-152400000D02*
X227330000Y-150622000D01*
X227330000Y-141478000D02*
X227330000Y-139700000D01*
X246380000Y-139700000D02*
X248158000Y-139700000D01*
X257302000Y-139700000D02*
X259080000Y-139700000D01*
X259080000Y-139700000D02*
X259080000Y-141478000D01*
X259080000Y-150622000D02*
X259080000Y-152400000D01*
X259080000Y-152400000D02*
X257302000Y-152400000D01*
X248158000Y-152400000D02*
X246380000Y-152400000D01*
X246380000Y-152400000D02*
X246380000Y-150622000D01*
X246380000Y-141478000D02*
X246380000Y-139700000D01*
D14*
X271780000Y-146050000D02*
X262890000Y-146050000D01*
X262890000Y-146050000D02*
X262890000Y-153670000D01*
X262890000Y-153670000D02*
X273050000Y-153670000D01*
X273050000Y-153670000D02*
X273050000Y-146050000D01*
X273050000Y-146050000D02*
X271780000Y-146050000D01*
X269978046Y-149860000D02*
G75*
G03X269978046Y-149860000I-2008046J0D01*
G01*
X231420000Y-74015000D02*
X231420000Y-75565000D01*
X228320000Y-75565000D02*
X228320000Y-74015000D01*
X228320000Y-74015000D02*
X231420000Y-74015000D01*
X228600000Y-76835000D02*
X231140000Y-76835000D01*
D12*
X20894524Y-88754857D02*
X19624524Y-88754857D01*
X19624524Y-88392000D01*
X19685000Y-88174285D01*
X19805952Y-88029143D01*
X19926905Y-87956571D01*
X20168810Y-87884000D01*
X20350238Y-87884000D01*
X20592143Y-87956571D01*
X20713095Y-88029143D01*
X20834048Y-88174285D01*
X20894524Y-88392000D01*
X20894524Y-88754857D01*
X20894524Y-86432571D02*
X20894524Y-87303428D01*
X20894524Y-86868000D02*
X19624524Y-86868000D01*
X19805952Y-87013143D01*
X19926905Y-87158285D01*
X19987381Y-87303428D01*
X20894524Y-105264857D02*
X19624524Y-105264857D01*
X19624524Y-104902000D01*
X19685000Y-104684285D01*
X19805952Y-104539143D01*
X19926905Y-104466571D01*
X20168810Y-104394000D01*
X20350238Y-104394000D01*
X20592143Y-104466571D01*
X20713095Y-104539143D01*
X20834048Y-104684285D01*
X20894524Y-104902000D01*
X20894524Y-105264857D01*
X19745476Y-103813428D02*
X19685000Y-103740857D01*
X19624524Y-103595714D01*
X19624524Y-103232857D01*
X19685000Y-103087714D01*
X19745476Y-103015143D01*
X19866429Y-102942571D01*
X19987381Y-102942571D01*
X20168810Y-103015143D01*
X20894524Y-103886000D01*
X20894524Y-102942571D01*
X20894524Y-124314857D02*
X19624524Y-124314857D01*
X19624524Y-123952000D01*
X19685000Y-123734285D01*
X19805952Y-123589143D01*
X19926905Y-123516571D01*
X20168810Y-123444000D01*
X20350238Y-123444000D01*
X20592143Y-123516571D01*
X20713095Y-123589143D01*
X20834048Y-123734285D01*
X20894524Y-123952000D01*
X20894524Y-124314857D01*
X19624524Y-122936000D02*
X19624524Y-121992571D01*
X20108333Y-122500571D01*
X20108333Y-122282857D01*
X20168810Y-122137714D01*
X20229286Y-122065143D01*
X20350238Y-121992571D01*
X20652619Y-121992571D01*
X20773571Y-122065143D01*
X20834048Y-122137714D01*
X20894524Y-122282857D01*
X20894524Y-122718285D01*
X20834048Y-122863428D01*
X20773571Y-122936000D01*
X20894524Y-143364857D02*
X19624524Y-143364857D01*
X19624524Y-143002000D01*
X19685000Y-142784285D01*
X19805952Y-142639143D01*
X19926905Y-142566571D01*
X20168810Y-142494000D01*
X20350238Y-142494000D01*
X20592143Y-142566571D01*
X20713095Y-142639143D01*
X20834048Y-142784285D01*
X20894524Y-143002000D01*
X20894524Y-143364857D01*
X20047857Y-141187714D02*
X20894524Y-141187714D01*
X19564048Y-141550571D02*
X20471190Y-141913428D01*
X20471190Y-140970000D01*
X39944524Y-86214857D02*
X38674524Y-86214857D01*
X38674524Y-85852000D01*
X38735000Y-85634285D01*
X38855952Y-85489143D01*
X38976905Y-85416571D01*
X39218810Y-85344000D01*
X39400238Y-85344000D01*
X39642143Y-85416571D01*
X39763095Y-85489143D01*
X39884048Y-85634285D01*
X39944524Y-85852000D01*
X39944524Y-86214857D01*
X38674524Y-83965143D02*
X38674524Y-84690857D01*
X39279286Y-84763428D01*
X39218810Y-84690857D01*
X39158333Y-84545714D01*
X39158333Y-84182857D01*
X39218810Y-84037714D01*
X39279286Y-83965143D01*
X39400238Y-83892571D01*
X39702619Y-83892571D01*
X39823571Y-83965143D01*
X39884048Y-84037714D01*
X39944524Y-84182857D01*
X39944524Y-84545714D01*
X39884048Y-84690857D01*
X39823571Y-84763428D01*
X45024524Y-105264857D02*
X43754524Y-105264857D01*
X43754524Y-104902000D01*
X43815000Y-104684285D01*
X43935952Y-104539143D01*
X44056905Y-104466571D01*
X44298810Y-104394000D01*
X44480238Y-104394000D01*
X44722143Y-104466571D01*
X44843095Y-104539143D01*
X44964048Y-104684285D01*
X45024524Y-104902000D01*
X45024524Y-105264857D01*
X43754524Y-103087714D02*
X43754524Y-103378000D01*
X43815000Y-103523143D01*
X43875476Y-103595714D01*
X44056905Y-103740857D01*
X44298810Y-103813428D01*
X44782619Y-103813428D01*
X44903571Y-103740857D01*
X44964048Y-103668285D01*
X45024524Y-103523143D01*
X45024524Y-103232857D01*
X44964048Y-103087714D01*
X44903571Y-103015143D01*
X44782619Y-102942571D01*
X44480238Y-102942571D01*
X44359286Y-103015143D01*
X44298810Y-103087714D01*
X44238333Y-103232857D01*
X44238333Y-103523143D01*
X44298810Y-103668285D01*
X44359286Y-103740857D01*
X44480238Y-103813428D01*
X53914524Y-124314857D02*
X52644524Y-124314857D01*
X52644524Y-123952000D01*
X52705000Y-123734285D01*
X52825952Y-123589143D01*
X52946905Y-123516571D01*
X53188810Y-123444000D01*
X53370238Y-123444000D01*
X53612143Y-123516571D01*
X53733095Y-123589143D01*
X53854048Y-123734285D01*
X53914524Y-123952000D01*
X53914524Y-124314857D01*
X52644524Y-122936000D02*
X52644524Y-121920000D01*
X53914524Y-122573143D01*
X39944524Y-143364857D02*
X38674524Y-143364857D01*
X38674524Y-143002000D01*
X38735000Y-142784285D01*
X38855952Y-142639143D01*
X38976905Y-142566571D01*
X39218810Y-142494000D01*
X39400238Y-142494000D01*
X39642143Y-142566571D01*
X39763095Y-142639143D01*
X39884048Y-142784285D01*
X39944524Y-143002000D01*
X39944524Y-143364857D01*
X39218810Y-141623143D02*
X39158333Y-141768285D01*
X39097857Y-141840857D01*
X38976905Y-141913428D01*
X38916429Y-141913428D01*
X38795476Y-141840857D01*
X38735000Y-141768285D01*
X38674524Y-141623143D01*
X38674524Y-141332857D01*
X38735000Y-141187714D01*
X38795476Y-141115143D01*
X38916429Y-141042571D01*
X38976905Y-141042571D01*
X39097857Y-141115143D01*
X39158333Y-141187714D01*
X39218810Y-141332857D01*
X39218810Y-141623143D01*
X39279286Y-141768285D01*
X39339762Y-141840857D01*
X39460714Y-141913428D01*
X39702619Y-141913428D01*
X39823571Y-141840857D01*
X39884048Y-141768285D01*
X39944524Y-141623143D01*
X39944524Y-141332857D01*
X39884048Y-141187714D01*
X39823571Y-141115143D01*
X39702619Y-141042571D01*
X39460714Y-141042571D01*
X39339762Y-141115143D01*
X39279286Y-141187714D01*
X39218810Y-141332857D01*
X58994524Y-86214857D02*
X57724524Y-86214857D01*
X57724524Y-85852000D01*
X57785000Y-85634285D01*
X57905952Y-85489143D01*
X58026905Y-85416571D01*
X58268810Y-85344000D01*
X58450238Y-85344000D01*
X58692143Y-85416571D01*
X58813095Y-85489143D01*
X58934048Y-85634285D01*
X58994524Y-85852000D01*
X58994524Y-86214857D01*
X58994524Y-84618285D02*
X58994524Y-84328000D01*
X58934048Y-84182857D01*
X58873571Y-84110285D01*
X58692143Y-83965143D01*
X58450238Y-83892571D01*
X57966429Y-83892571D01*
X57845476Y-83965143D01*
X57785000Y-84037714D01*
X57724524Y-84182857D01*
X57724524Y-84473143D01*
X57785000Y-84618285D01*
X57845476Y-84690857D01*
X57966429Y-84763428D01*
X58268810Y-84763428D01*
X58389762Y-84690857D01*
X58450238Y-84618285D01*
X58510714Y-84473143D01*
X58510714Y-84182857D01*
X58450238Y-84037714D01*
X58389762Y-83965143D01*
X58268810Y-83892571D01*
X64074524Y-105990572D02*
X62804524Y-105990572D01*
X62804524Y-105627715D01*
X62865000Y-105410000D01*
X62985952Y-105264858D01*
X63106905Y-105192286D01*
X63348810Y-105119715D01*
X63530238Y-105119715D01*
X63772143Y-105192286D01*
X63893095Y-105264858D01*
X64014048Y-105410000D01*
X64074524Y-105627715D01*
X64074524Y-105990572D01*
X64074524Y-103668286D02*
X64074524Y-104539143D01*
X64074524Y-104103715D02*
X62804524Y-104103715D01*
X62985952Y-104248858D01*
X63106905Y-104394000D01*
X63167381Y-104539143D01*
X62804524Y-102724857D02*
X62804524Y-102579714D01*
X62865000Y-102434571D01*
X62925476Y-102362000D01*
X63046429Y-102289429D01*
X63288333Y-102216857D01*
X63590714Y-102216857D01*
X63832619Y-102289429D01*
X63953571Y-102362000D01*
X64014048Y-102434571D01*
X64074524Y-102579714D01*
X64074524Y-102724857D01*
X64014048Y-102870000D01*
X63953571Y-102942571D01*
X63832619Y-103015143D01*
X63590714Y-103087714D01*
X63288333Y-103087714D01*
X63046429Y-103015143D01*
X62925476Y-102942571D01*
X62865000Y-102870000D01*
X62804524Y-102724857D01*
X72964524Y-125040572D02*
X71694524Y-125040572D01*
X71694524Y-124677715D01*
X71755000Y-124460000D01*
X71875952Y-124314858D01*
X71996905Y-124242286D01*
X72238810Y-124169715D01*
X72420238Y-124169715D01*
X72662143Y-124242286D01*
X72783095Y-124314858D01*
X72904048Y-124460000D01*
X72964524Y-124677715D01*
X72964524Y-125040572D01*
X72964524Y-122718286D02*
X72964524Y-123589143D01*
X72964524Y-123153715D02*
X71694524Y-123153715D01*
X71875952Y-123298858D01*
X71996905Y-123444000D01*
X72057381Y-123589143D01*
X72964524Y-121266857D02*
X72964524Y-122137714D01*
X72964524Y-121702286D02*
X71694524Y-121702286D01*
X71875952Y-121847429D01*
X71996905Y-121992571D01*
X72057381Y-122137714D01*
X58994524Y-144090572D02*
X57724524Y-144090572D01*
X57724524Y-143727715D01*
X57785000Y-143510000D01*
X57905952Y-143364858D01*
X58026905Y-143292286D01*
X58268810Y-143219715D01*
X58450238Y-143219715D01*
X58692143Y-143292286D01*
X58813095Y-143364858D01*
X58934048Y-143510000D01*
X58994524Y-143727715D01*
X58994524Y-144090572D01*
X58994524Y-141768286D02*
X58994524Y-142639143D01*
X58994524Y-142203715D02*
X57724524Y-142203715D01*
X57905952Y-142348858D01*
X58026905Y-142494000D01*
X58087381Y-142639143D01*
X57845476Y-141187714D02*
X57785000Y-141115143D01*
X57724524Y-140970000D01*
X57724524Y-140607143D01*
X57785000Y-140462000D01*
X57845476Y-140389429D01*
X57966429Y-140316857D01*
X58087381Y-140316857D01*
X58268810Y-140389429D01*
X58994524Y-141260286D01*
X58994524Y-140316857D01*
X78044524Y-86940572D02*
X76774524Y-86940572D01*
X76774524Y-86577715D01*
X76835000Y-86360000D01*
X76955952Y-86214858D01*
X77076905Y-86142286D01*
X77318810Y-86069715D01*
X77500238Y-86069715D01*
X77742143Y-86142286D01*
X77863095Y-86214858D01*
X77984048Y-86360000D01*
X78044524Y-86577715D01*
X78044524Y-86940572D01*
X78044524Y-84618286D02*
X78044524Y-85489143D01*
X78044524Y-85053715D02*
X76774524Y-85053715D01*
X76955952Y-85198858D01*
X77076905Y-85344000D01*
X77137381Y-85489143D01*
X76774524Y-84110286D02*
X76774524Y-83166857D01*
X77258333Y-83674857D01*
X77258333Y-83457143D01*
X77318810Y-83312000D01*
X77379286Y-83239429D01*
X77500238Y-83166857D01*
X77802619Y-83166857D01*
X77923571Y-83239429D01*
X77984048Y-83312000D01*
X78044524Y-83457143D01*
X78044524Y-83892571D01*
X77984048Y-84037714D01*
X77923571Y-84110286D01*
X83124524Y-105990572D02*
X81854524Y-105990572D01*
X81854524Y-105627715D01*
X81915000Y-105410000D01*
X82035952Y-105264858D01*
X82156905Y-105192286D01*
X82398810Y-105119715D01*
X82580238Y-105119715D01*
X82822143Y-105192286D01*
X82943095Y-105264858D01*
X83064048Y-105410000D01*
X83124524Y-105627715D01*
X83124524Y-105990572D01*
X83124524Y-103668286D02*
X83124524Y-104539143D01*
X83124524Y-104103715D02*
X81854524Y-104103715D01*
X82035952Y-104248858D01*
X82156905Y-104394000D01*
X82217381Y-104539143D01*
X82277857Y-102362000D02*
X83124524Y-102362000D01*
X81794048Y-102724857D02*
X82701190Y-103087714D01*
X82701190Y-102144286D01*
X92014524Y-125040572D02*
X90744524Y-125040572D01*
X90744524Y-124677715D01*
X90805000Y-124460000D01*
X90925952Y-124314858D01*
X91046905Y-124242286D01*
X91288810Y-124169715D01*
X91470238Y-124169715D01*
X91712143Y-124242286D01*
X91833095Y-124314858D01*
X91954048Y-124460000D01*
X92014524Y-124677715D01*
X92014524Y-125040572D01*
X92014524Y-122718286D02*
X92014524Y-123589143D01*
X92014524Y-123153715D02*
X90744524Y-123153715D01*
X90925952Y-123298858D01*
X91046905Y-123444000D01*
X91107381Y-123589143D01*
X90744524Y-121339429D02*
X90744524Y-122065143D01*
X91349286Y-122137714D01*
X91288810Y-122065143D01*
X91228333Y-121920000D01*
X91228333Y-121557143D01*
X91288810Y-121412000D01*
X91349286Y-121339429D01*
X91470238Y-121266857D01*
X91772619Y-121266857D01*
X91893571Y-121339429D01*
X91954048Y-121412000D01*
X92014524Y-121557143D01*
X92014524Y-121920000D01*
X91954048Y-122065143D01*
X91893571Y-122137714D01*
X78044524Y-144090572D02*
X76774524Y-144090572D01*
X76774524Y-143727715D01*
X76835000Y-143510000D01*
X76955952Y-143364858D01*
X77076905Y-143292286D01*
X77318810Y-143219715D01*
X77500238Y-143219715D01*
X77742143Y-143292286D01*
X77863095Y-143364858D01*
X77984048Y-143510000D01*
X78044524Y-143727715D01*
X78044524Y-144090572D01*
X78044524Y-141768286D02*
X78044524Y-142639143D01*
X78044524Y-142203715D02*
X76774524Y-142203715D01*
X76955952Y-142348858D01*
X77076905Y-142494000D01*
X77137381Y-142639143D01*
X76774524Y-140462000D02*
X76774524Y-140752286D01*
X76835000Y-140897429D01*
X76895476Y-140970000D01*
X77076905Y-141115143D01*
X77318810Y-141187714D01*
X77802619Y-141187714D01*
X77923571Y-141115143D01*
X77984048Y-141042571D01*
X78044524Y-140897429D01*
X78044524Y-140607143D01*
X77984048Y-140462000D01*
X77923571Y-140389429D01*
X77802619Y-140316857D01*
X77500238Y-140316857D01*
X77379286Y-140389429D01*
X77318810Y-140462000D01*
X77258333Y-140607143D01*
X77258333Y-140897429D01*
X77318810Y-141042571D01*
X77379286Y-141115143D01*
X77500238Y-141187714D01*
X97094524Y-86940572D02*
X95824524Y-86940572D01*
X95824524Y-86577715D01*
X95885000Y-86360000D01*
X96005952Y-86214858D01*
X96126905Y-86142286D01*
X96368810Y-86069715D01*
X96550238Y-86069715D01*
X96792143Y-86142286D01*
X96913095Y-86214858D01*
X97034048Y-86360000D01*
X97094524Y-86577715D01*
X97094524Y-86940572D01*
X97094524Y-84618286D02*
X97094524Y-85489143D01*
X97094524Y-85053715D02*
X95824524Y-85053715D01*
X96005952Y-85198858D01*
X96126905Y-85344000D01*
X96187381Y-85489143D01*
X95824524Y-84110286D02*
X95824524Y-83094286D01*
X97094524Y-83747429D01*
X102174524Y-105990572D02*
X100904524Y-105990572D01*
X100904524Y-105627715D01*
X100965000Y-105410000D01*
X101085952Y-105264858D01*
X101206905Y-105192286D01*
X101448810Y-105119715D01*
X101630238Y-105119715D01*
X101872143Y-105192286D01*
X101993095Y-105264858D01*
X102114048Y-105410000D01*
X102174524Y-105627715D01*
X102174524Y-105990572D01*
X102174524Y-103668286D02*
X102174524Y-104539143D01*
X102174524Y-104103715D02*
X100904524Y-104103715D01*
X101085952Y-104248858D01*
X101206905Y-104394000D01*
X101267381Y-104539143D01*
X101448810Y-102797429D02*
X101388333Y-102942571D01*
X101327857Y-103015143D01*
X101206905Y-103087714D01*
X101146429Y-103087714D01*
X101025476Y-103015143D01*
X100965000Y-102942571D01*
X100904524Y-102797429D01*
X100904524Y-102507143D01*
X100965000Y-102362000D01*
X101025476Y-102289429D01*
X101146429Y-102216857D01*
X101206905Y-102216857D01*
X101327857Y-102289429D01*
X101388333Y-102362000D01*
X101448810Y-102507143D01*
X101448810Y-102797429D01*
X101509286Y-102942571D01*
X101569762Y-103015143D01*
X101690714Y-103087714D01*
X101932619Y-103087714D01*
X102053571Y-103015143D01*
X102114048Y-102942571D01*
X102174524Y-102797429D01*
X102174524Y-102507143D01*
X102114048Y-102362000D01*
X102053571Y-102289429D01*
X101932619Y-102216857D01*
X101690714Y-102216857D01*
X101569762Y-102289429D01*
X101509286Y-102362000D01*
X101448810Y-102507143D01*
X111064524Y-125040572D02*
X109794524Y-125040572D01*
X109794524Y-124677715D01*
X109855000Y-124460000D01*
X109975952Y-124314858D01*
X110096905Y-124242286D01*
X110338810Y-124169715D01*
X110520238Y-124169715D01*
X110762143Y-124242286D01*
X110883095Y-124314858D01*
X111004048Y-124460000D01*
X111064524Y-124677715D01*
X111064524Y-125040572D01*
X111064524Y-122718286D02*
X111064524Y-123589143D01*
X111064524Y-123153715D02*
X109794524Y-123153715D01*
X109975952Y-123298858D01*
X110096905Y-123444000D01*
X110157381Y-123589143D01*
X111064524Y-121992571D02*
X111064524Y-121702286D01*
X111004048Y-121557143D01*
X110943571Y-121484571D01*
X110762143Y-121339429D01*
X110520238Y-121266857D01*
X110036429Y-121266857D01*
X109915476Y-121339429D01*
X109855000Y-121412000D01*
X109794524Y-121557143D01*
X109794524Y-121847429D01*
X109855000Y-121992571D01*
X109915476Y-122065143D01*
X110036429Y-122137714D01*
X110338810Y-122137714D01*
X110459762Y-122065143D01*
X110520238Y-121992571D01*
X110580714Y-121847429D01*
X110580714Y-121557143D01*
X110520238Y-121412000D01*
X110459762Y-121339429D01*
X110338810Y-121266857D01*
X116144524Y-86940572D02*
X114874524Y-86940572D01*
X114874524Y-86577715D01*
X114935000Y-86360000D01*
X115055952Y-86214858D01*
X115176905Y-86142286D01*
X115418810Y-86069715D01*
X115600238Y-86069715D01*
X115842143Y-86142286D01*
X115963095Y-86214858D01*
X116084048Y-86360000D01*
X116144524Y-86577715D01*
X116144524Y-86940572D01*
X114995476Y-85489143D02*
X114935000Y-85416572D01*
X114874524Y-85271429D01*
X114874524Y-84908572D01*
X114935000Y-84763429D01*
X114995476Y-84690858D01*
X115116429Y-84618286D01*
X115237381Y-84618286D01*
X115418810Y-84690858D01*
X116144524Y-85561715D01*
X116144524Y-84618286D01*
X114874524Y-83674857D02*
X114874524Y-83529714D01*
X114935000Y-83384571D01*
X114995476Y-83312000D01*
X115116429Y-83239429D01*
X115358333Y-83166857D01*
X115660714Y-83166857D01*
X115902619Y-83239429D01*
X116023571Y-83312000D01*
X116084048Y-83384571D01*
X116144524Y-83529714D01*
X116144524Y-83674857D01*
X116084048Y-83820000D01*
X116023571Y-83892571D01*
X115902619Y-83965143D01*
X115660714Y-84037714D01*
X115358333Y-84037714D01*
X115116429Y-83965143D01*
X114995476Y-83892571D01*
X114935000Y-83820000D01*
X114874524Y-83674857D01*
X121224524Y-105990572D02*
X119954524Y-105990572D01*
X119954524Y-105627715D01*
X120015000Y-105410000D01*
X120135952Y-105264858D01*
X120256905Y-105192286D01*
X120498810Y-105119715D01*
X120680238Y-105119715D01*
X120922143Y-105192286D01*
X121043095Y-105264858D01*
X121164048Y-105410000D01*
X121224524Y-105627715D01*
X121224524Y-105990572D01*
X120075476Y-104539143D02*
X120015000Y-104466572D01*
X119954524Y-104321429D01*
X119954524Y-103958572D01*
X120015000Y-103813429D01*
X120075476Y-103740858D01*
X120196429Y-103668286D01*
X120317381Y-103668286D01*
X120498810Y-103740858D01*
X121224524Y-104611715D01*
X121224524Y-103668286D01*
X121224524Y-102216857D02*
X121224524Y-103087714D01*
X121224524Y-102652286D02*
X119954524Y-102652286D01*
X120135952Y-102797429D01*
X120256905Y-102942571D01*
X120317381Y-103087714D01*
X130114524Y-125040572D02*
X128844524Y-125040572D01*
X128844524Y-124677715D01*
X128905000Y-124460000D01*
X129025952Y-124314858D01*
X129146905Y-124242286D01*
X129388810Y-124169715D01*
X129570238Y-124169715D01*
X129812143Y-124242286D01*
X129933095Y-124314858D01*
X130054048Y-124460000D01*
X130114524Y-124677715D01*
X130114524Y-125040572D01*
X128965476Y-123589143D02*
X128905000Y-123516572D01*
X128844524Y-123371429D01*
X128844524Y-123008572D01*
X128905000Y-122863429D01*
X128965476Y-122790858D01*
X129086429Y-122718286D01*
X129207381Y-122718286D01*
X129388810Y-122790858D01*
X130114524Y-123661715D01*
X130114524Y-122718286D01*
X128965476Y-122137714D02*
X128905000Y-122065143D01*
X128844524Y-121920000D01*
X128844524Y-121557143D01*
X128905000Y-121412000D01*
X128965476Y-121339429D01*
X129086429Y-121266857D01*
X129207381Y-121266857D01*
X129388810Y-121339429D01*
X130114524Y-122210286D01*
X130114524Y-121266857D01*
X122609428Y-151704524D02*
X122609428Y-150434524D01*
X122972285Y-150434524D01*
X123190000Y-150495000D01*
X123335142Y-150615952D01*
X123407714Y-150736905D01*
X123480285Y-150978810D01*
X123480285Y-151160238D01*
X123407714Y-151402143D01*
X123335142Y-151523095D01*
X123190000Y-151644048D01*
X122972285Y-151704524D01*
X122609428Y-151704524D01*
X124060857Y-150555476D02*
X124133428Y-150495000D01*
X124278571Y-150434524D01*
X124641428Y-150434524D01*
X124786571Y-150495000D01*
X124859142Y-150555476D01*
X124931714Y-150676429D01*
X124931714Y-150797381D01*
X124859142Y-150978810D01*
X123988285Y-151704524D01*
X124931714Y-151704524D01*
X125439714Y-150434524D02*
X126383143Y-150434524D01*
X125875143Y-150918333D01*
X126092857Y-150918333D01*
X126238000Y-150978810D01*
X126310571Y-151039286D01*
X126383143Y-151160238D01*
X126383143Y-151462619D01*
X126310571Y-151583571D01*
X126238000Y-151644048D01*
X126092857Y-151704524D01*
X125657429Y-151704524D01*
X125512286Y-151644048D01*
X125439714Y-151583571D01*
X135194524Y-86940572D02*
X133924524Y-86940572D01*
X133924524Y-86577715D01*
X133985000Y-86360000D01*
X134105952Y-86214858D01*
X134226905Y-86142286D01*
X134468810Y-86069715D01*
X134650238Y-86069715D01*
X134892143Y-86142286D01*
X135013095Y-86214858D01*
X135134048Y-86360000D01*
X135194524Y-86577715D01*
X135194524Y-86940572D01*
X134045476Y-85489143D02*
X133985000Y-85416572D01*
X133924524Y-85271429D01*
X133924524Y-84908572D01*
X133985000Y-84763429D01*
X134045476Y-84690858D01*
X134166429Y-84618286D01*
X134287381Y-84618286D01*
X134468810Y-84690858D01*
X135194524Y-85561715D01*
X135194524Y-84618286D01*
X134347857Y-83312000D02*
X135194524Y-83312000D01*
X133864048Y-83674857D02*
X134771190Y-84037714D01*
X134771190Y-83094286D01*
X140274524Y-105990572D02*
X139004524Y-105990572D01*
X139004524Y-105627715D01*
X139065000Y-105410000D01*
X139185952Y-105264858D01*
X139306905Y-105192286D01*
X139548810Y-105119715D01*
X139730238Y-105119715D01*
X139972143Y-105192286D01*
X140093095Y-105264858D01*
X140214048Y-105410000D01*
X140274524Y-105627715D01*
X140274524Y-105990572D01*
X139125476Y-104539143D02*
X139065000Y-104466572D01*
X139004524Y-104321429D01*
X139004524Y-103958572D01*
X139065000Y-103813429D01*
X139125476Y-103740858D01*
X139246429Y-103668286D01*
X139367381Y-103668286D01*
X139548810Y-103740858D01*
X140274524Y-104611715D01*
X140274524Y-103668286D01*
X139004524Y-102289429D02*
X139004524Y-103015143D01*
X139609286Y-103087714D01*
X139548810Y-103015143D01*
X139488333Y-102870000D01*
X139488333Y-102507143D01*
X139548810Y-102362000D01*
X139609286Y-102289429D01*
X139730238Y-102216857D01*
X140032619Y-102216857D01*
X140153571Y-102289429D01*
X140214048Y-102362000D01*
X140274524Y-102507143D01*
X140274524Y-102870000D01*
X140214048Y-103015143D01*
X140153571Y-103087714D01*
X149164524Y-125040572D02*
X147894524Y-125040572D01*
X147894524Y-124677715D01*
X147955000Y-124460000D01*
X148075952Y-124314858D01*
X148196905Y-124242286D01*
X148438810Y-124169715D01*
X148620238Y-124169715D01*
X148862143Y-124242286D01*
X148983095Y-124314858D01*
X149104048Y-124460000D01*
X149164524Y-124677715D01*
X149164524Y-125040572D01*
X148015476Y-123589143D02*
X147955000Y-123516572D01*
X147894524Y-123371429D01*
X147894524Y-123008572D01*
X147955000Y-122863429D01*
X148015476Y-122790858D01*
X148136429Y-122718286D01*
X148257381Y-122718286D01*
X148438810Y-122790858D01*
X149164524Y-123661715D01*
X149164524Y-122718286D01*
X147894524Y-121412000D02*
X147894524Y-121702286D01*
X147955000Y-121847429D01*
X148015476Y-121920000D01*
X148196905Y-122065143D01*
X148438810Y-122137714D01*
X148922619Y-122137714D01*
X149043571Y-122065143D01*
X149104048Y-121992571D01*
X149164524Y-121847429D01*
X149164524Y-121557143D01*
X149104048Y-121412000D01*
X149043571Y-121339429D01*
X148922619Y-121266857D01*
X148620238Y-121266857D01*
X148499286Y-121339429D01*
X148438810Y-121412000D01*
X148378333Y-121557143D01*
X148378333Y-121847429D01*
X148438810Y-121992571D01*
X148499286Y-122065143D01*
X148620238Y-122137714D01*
X154244524Y-86940572D02*
X152974524Y-86940572D01*
X152974524Y-86577715D01*
X153035000Y-86360000D01*
X153155952Y-86214858D01*
X153276905Y-86142286D01*
X153518810Y-86069715D01*
X153700238Y-86069715D01*
X153942143Y-86142286D01*
X154063095Y-86214858D01*
X154184048Y-86360000D01*
X154244524Y-86577715D01*
X154244524Y-86940572D01*
X153095476Y-85489143D02*
X153035000Y-85416572D01*
X152974524Y-85271429D01*
X152974524Y-84908572D01*
X153035000Y-84763429D01*
X153095476Y-84690858D01*
X153216429Y-84618286D01*
X153337381Y-84618286D01*
X153518810Y-84690858D01*
X154244524Y-85561715D01*
X154244524Y-84618286D01*
X152974524Y-84110286D02*
X152974524Y-83094286D01*
X154244524Y-83747429D01*
X159324524Y-105990572D02*
X158054524Y-105990572D01*
X158054524Y-105627715D01*
X158115000Y-105410000D01*
X158235952Y-105264858D01*
X158356905Y-105192286D01*
X158598810Y-105119715D01*
X158780238Y-105119715D01*
X159022143Y-105192286D01*
X159143095Y-105264858D01*
X159264048Y-105410000D01*
X159324524Y-105627715D01*
X159324524Y-105990572D01*
X158175476Y-104539143D02*
X158115000Y-104466572D01*
X158054524Y-104321429D01*
X158054524Y-103958572D01*
X158115000Y-103813429D01*
X158175476Y-103740858D01*
X158296429Y-103668286D01*
X158417381Y-103668286D01*
X158598810Y-103740858D01*
X159324524Y-104611715D01*
X159324524Y-103668286D01*
X158598810Y-102797429D02*
X158538333Y-102942571D01*
X158477857Y-103015143D01*
X158356905Y-103087714D01*
X158296429Y-103087714D01*
X158175476Y-103015143D01*
X158115000Y-102942571D01*
X158054524Y-102797429D01*
X158054524Y-102507143D01*
X158115000Y-102362000D01*
X158175476Y-102289429D01*
X158296429Y-102216857D01*
X158356905Y-102216857D01*
X158477857Y-102289429D01*
X158538333Y-102362000D01*
X158598810Y-102507143D01*
X158598810Y-102797429D01*
X158659286Y-102942571D01*
X158719762Y-103015143D01*
X158840714Y-103087714D01*
X159082619Y-103087714D01*
X159203571Y-103015143D01*
X159264048Y-102942571D01*
X159324524Y-102797429D01*
X159324524Y-102507143D01*
X159264048Y-102362000D01*
X159203571Y-102289429D01*
X159082619Y-102216857D01*
X158840714Y-102216857D01*
X158719762Y-102289429D01*
X158659286Y-102362000D01*
X158598810Y-102507143D01*
X168214524Y-125040572D02*
X166944524Y-125040572D01*
X166944524Y-124677715D01*
X167005000Y-124460000D01*
X167125952Y-124314858D01*
X167246905Y-124242286D01*
X167488810Y-124169715D01*
X167670238Y-124169715D01*
X167912143Y-124242286D01*
X168033095Y-124314858D01*
X168154048Y-124460000D01*
X168214524Y-124677715D01*
X168214524Y-125040572D01*
X167065476Y-123589143D02*
X167005000Y-123516572D01*
X166944524Y-123371429D01*
X166944524Y-123008572D01*
X167005000Y-122863429D01*
X167065476Y-122790858D01*
X167186429Y-122718286D01*
X167307381Y-122718286D01*
X167488810Y-122790858D01*
X168214524Y-123661715D01*
X168214524Y-122718286D01*
X168214524Y-121992571D02*
X168214524Y-121702286D01*
X168154048Y-121557143D01*
X168093571Y-121484571D01*
X167912143Y-121339429D01*
X167670238Y-121266857D01*
X167186429Y-121266857D01*
X167065476Y-121339429D01*
X167005000Y-121412000D01*
X166944524Y-121557143D01*
X166944524Y-121847429D01*
X167005000Y-121992571D01*
X167065476Y-122065143D01*
X167186429Y-122137714D01*
X167488810Y-122137714D01*
X167609762Y-122065143D01*
X167670238Y-121992571D01*
X167730714Y-121847429D01*
X167730714Y-121557143D01*
X167670238Y-121412000D01*
X167609762Y-121339429D01*
X167488810Y-121266857D01*
X173294524Y-86940572D02*
X172024524Y-86940572D01*
X172024524Y-86577715D01*
X172085000Y-86360000D01*
X172205952Y-86214858D01*
X172326905Y-86142286D01*
X172568810Y-86069715D01*
X172750238Y-86069715D01*
X172992143Y-86142286D01*
X173113095Y-86214858D01*
X173234048Y-86360000D01*
X173294524Y-86577715D01*
X173294524Y-86940572D01*
X172024524Y-85561715D02*
X172024524Y-84618286D01*
X172508333Y-85126286D01*
X172508333Y-84908572D01*
X172568810Y-84763429D01*
X172629286Y-84690858D01*
X172750238Y-84618286D01*
X173052619Y-84618286D01*
X173173571Y-84690858D01*
X173234048Y-84763429D01*
X173294524Y-84908572D01*
X173294524Y-85344000D01*
X173234048Y-85489143D01*
X173173571Y-85561715D01*
X172024524Y-83674857D02*
X172024524Y-83529714D01*
X172085000Y-83384571D01*
X172145476Y-83312000D01*
X172266429Y-83239429D01*
X172508333Y-83166857D01*
X172810714Y-83166857D01*
X173052619Y-83239429D01*
X173173571Y-83312000D01*
X173234048Y-83384571D01*
X173294524Y-83529714D01*
X173294524Y-83674857D01*
X173234048Y-83820000D01*
X173173571Y-83892571D01*
X173052619Y-83965143D01*
X172810714Y-84037714D01*
X172508333Y-84037714D01*
X172266429Y-83965143D01*
X172145476Y-83892571D01*
X172085000Y-83820000D01*
X172024524Y-83674857D01*
X178374524Y-105990572D02*
X177104524Y-105990572D01*
X177104524Y-105627715D01*
X177165000Y-105410000D01*
X177285952Y-105264858D01*
X177406905Y-105192286D01*
X177648810Y-105119715D01*
X177830238Y-105119715D01*
X178072143Y-105192286D01*
X178193095Y-105264858D01*
X178314048Y-105410000D01*
X178374524Y-105627715D01*
X178374524Y-105990572D01*
X177104524Y-104611715D02*
X177104524Y-103668286D01*
X177588333Y-104176286D01*
X177588333Y-103958572D01*
X177648810Y-103813429D01*
X177709286Y-103740858D01*
X177830238Y-103668286D01*
X178132619Y-103668286D01*
X178253571Y-103740858D01*
X178314048Y-103813429D01*
X178374524Y-103958572D01*
X178374524Y-104394000D01*
X178314048Y-104539143D01*
X178253571Y-104611715D01*
X178374524Y-102216857D02*
X178374524Y-103087714D01*
X178374524Y-102652286D02*
X177104524Y-102652286D01*
X177285952Y-102797429D01*
X177406905Y-102942571D01*
X177467381Y-103087714D01*
X187264524Y-125040572D02*
X185994524Y-125040572D01*
X185994524Y-124677715D01*
X186055000Y-124460000D01*
X186175952Y-124314858D01*
X186296905Y-124242286D01*
X186538810Y-124169715D01*
X186720238Y-124169715D01*
X186962143Y-124242286D01*
X187083095Y-124314858D01*
X187204048Y-124460000D01*
X187264524Y-124677715D01*
X187264524Y-125040572D01*
X185994524Y-123661715D02*
X185994524Y-122718286D01*
X186478333Y-123226286D01*
X186478333Y-123008572D01*
X186538810Y-122863429D01*
X186599286Y-122790858D01*
X186720238Y-122718286D01*
X187022619Y-122718286D01*
X187143571Y-122790858D01*
X187204048Y-122863429D01*
X187264524Y-123008572D01*
X187264524Y-123444000D01*
X187204048Y-123589143D01*
X187143571Y-123661715D01*
X186115476Y-122137714D02*
X186055000Y-122065143D01*
X185994524Y-121920000D01*
X185994524Y-121557143D01*
X186055000Y-121412000D01*
X186115476Y-121339429D01*
X186236429Y-121266857D01*
X186357381Y-121266857D01*
X186538810Y-121339429D01*
X187264524Y-122210286D01*
X187264524Y-121266857D01*
X182184524Y-144090572D02*
X180914524Y-144090572D01*
X180914524Y-143727715D01*
X180975000Y-143510000D01*
X181095952Y-143364858D01*
X181216905Y-143292286D01*
X181458810Y-143219715D01*
X181640238Y-143219715D01*
X181882143Y-143292286D01*
X182003095Y-143364858D01*
X182124048Y-143510000D01*
X182184524Y-143727715D01*
X182184524Y-144090572D01*
X180914524Y-142711715D02*
X180914524Y-141768286D01*
X181398333Y-142276286D01*
X181398333Y-142058572D01*
X181458810Y-141913429D01*
X181519286Y-141840858D01*
X181640238Y-141768286D01*
X181942619Y-141768286D01*
X182063571Y-141840858D01*
X182124048Y-141913429D01*
X182184524Y-142058572D01*
X182184524Y-142494000D01*
X182124048Y-142639143D01*
X182063571Y-142711715D01*
X180914524Y-141260286D02*
X180914524Y-140316857D01*
X181398333Y-140824857D01*
X181398333Y-140607143D01*
X181458810Y-140462000D01*
X181519286Y-140389429D01*
X181640238Y-140316857D01*
X181942619Y-140316857D01*
X182063571Y-140389429D01*
X182124048Y-140462000D01*
X182184524Y-140607143D01*
X182184524Y-141042571D01*
X182124048Y-141187714D01*
X182063571Y-141260286D01*
X192344524Y-86940572D02*
X191074524Y-86940572D01*
X191074524Y-86577715D01*
X191135000Y-86360000D01*
X191255952Y-86214858D01*
X191376905Y-86142286D01*
X191618810Y-86069715D01*
X191800238Y-86069715D01*
X192042143Y-86142286D01*
X192163095Y-86214858D01*
X192284048Y-86360000D01*
X192344524Y-86577715D01*
X192344524Y-86940572D01*
X191074524Y-85561715D02*
X191074524Y-84618286D01*
X191558333Y-85126286D01*
X191558333Y-84908572D01*
X191618810Y-84763429D01*
X191679286Y-84690858D01*
X191800238Y-84618286D01*
X192102619Y-84618286D01*
X192223571Y-84690858D01*
X192284048Y-84763429D01*
X192344524Y-84908572D01*
X192344524Y-85344000D01*
X192284048Y-85489143D01*
X192223571Y-85561715D01*
X191497857Y-83312000D02*
X192344524Y-83312000D01*
X191014048Y-83674857D02*
X191921190Y-84037714D01*
X191921190Y-83094286D01*
X197424524Y-105990572D02*
X196154524Y-105990572D01*
X196154524Y-105627715D01*
X196215000Y-105410000D01*
X196335952Y-105264858D01*
X196456905Y-105192286D01*
X196698810Y-105119715D01*
X196880238Y-105119715D01*
X197122143Y-105192286D01*
X197243095Y-105264858D01*
X197364048Y-105410000D01*
X197424524Y-105627715D01*
X197424524Y-105990572D01*
X196154524Y-104611715D02*
X196154524Y-103668286D01*
X196638333Y-104176286D01*
X196638333Y-103958572D01*
X196698810Y-103813429D01*
X196759286Y-103740858D01*
X196880238Y-103668286D01*
X197182619Y-103668286D01*
X197303571Y-103740858D01*
X197364048Y-103813429D01*
X197424524Y-103958572D01*
X197424524Y-104394000D01*
X197364048Y-104539143D01*
X197303571Y-104611715D01*
X196154524Y-102289429D02*
X196154524Y-103015143D01*
X196759286Y-103087714D01*
X196698810Y-103015143D01*
X196638333Y-102870000D01*
X196638333Y-102507143D01*
X196698810Y-102362000D01*
X196759286Y-102289429D01*
X196880238Y-102216857D01*
X197182619Y-102216857D01*
X197303571Y-102289429D01*
X197364048Y-102362000D01*
X197424524Y-102507143D01*
X197424524Y-102870000D01*
X197364048Y-103015143D01*
X197303571Y-103087714D01*
X206314524Y-125040572D02*
X205044524Y-125040572D01*
X205044524Y-124677715D01*
X205105000Y-124460000D01*
X205225952Y-124314858D01*
X205346905Y-124242286D01*
X205588810Y-124169715D01*
X205770238Y-124169715D01*
X206012143Y-124242286D01*
X206133095Y-124314858D01*
X206254048Y-124460000D01*
X206314524Y-124677715D01*
X206314524Y-125040572D01*
X205044524Y-123661715D02*
X205044524Y-122718286D01*
X205528333Y-123226286D01*
X205528333Y-123008572D01*
X205588810Y-122863429D01*
X205649286Y-122790858D01*
X205770238Y-122718286D01*
X206072619Y-122718286D01*
X206193571Y-122790858D01*
X206254048Y-122863429D01*
X206314524Y-123008572D01*
X206314524Y-123444000D01*
X206254048Y-123589143D01*
X206193571Y-123661715D01*
X205044524Y-121412000D02*
X205044524Y-121702286D01*
X205105000Y-121847429D01*
X205165476Y-121920000D01*
X205346905Y-122065143D01*
X205588810Y-122137714D01*
X206072619Y-122137714D01*
X206193571Y-122065143D01*
X206254048Y-121992571D01*
X206314524Y-121847429D01*
X206314524Y-121557143D01*
X206254048Y-121412000D01*
X206193571Y-121339429D01*
X206072619Y-121266857D01*
X205770238Y-121266857D01*
X205649286Y-121339429D01*
X205588810Y-121412000D01*
X205528333Y-121557143D01*
X205528333Y-121847429D01*
X205588810Y-121992571D01*
X205649286Y-122065143D01*
X205770238Y-122137714D01*
X206314524Y-144090572D02*
X205044524Y-144090572D01*
X205044524Y-143727715D01*
X205105000Y-143510000D01*
X205225952Y-143364858D01*
X205346905Y-143292286D01*
X205588810Y-143219715D01*
X205770238Y-143219715D01*
X206012143Y-143292286D01*
X206133095Y-143364858D01*
X206254048Y-143510000D01*
X206314524Y-143727715D01*
X206314524Y-144090572D01*
X205044524Y-142711715D02*
X205044524Y-141768286D01*
X205528333Y-142276286D01*
X205528333Y-142058572D01*
X205588810Y-141913429D01*
X205649286Y-141840858D01*
X205770238Y-141768286D01*
X206072619Y-141768286D01*
X206193571Y-141840858D01*
X206254048Y-141913429D01*
X206314524Y-142058572D01*
X206314524Y-142494000D01*
X206254048Y-142639143D01*
X206193571Y-142711715D01*
X205044524Y-141260286D02*
X205044524Y-140244286D01*
X206314524Y-140897429D01*
X211394524Y-86940572D02*
X210124524Y-86940572D01*
X210124524Y-86577715D01*
X210185000Y-86360000D01*
X210305952Y-86214858D01*
X210426905Y-86142286D01*
X210668810Y-86069715D01*
X210850238Y-86069715D01*
X211092143Y-86142286D01*
X211213095Y-86214858D01*
X211334048Y-86360000D01*
X211394524Y-86577715D01*
X211394524Y-86940572D01*
X210124524Y-85561715D02*
X210124524Y-84618286D01*
X210608333Y-85126286D01*
X210608333Y-84908572D01*
X210668810Y-84763429D01*
X210729286Y-84690858D01*
X210850238Y-84618286D01*
X211152619Y-84618286D01*
X211273571Y-84690858D01*
X211334048Y-84763429D01*
X211394524Y-84908572D01*
X211394524Y-85344000D01*
X211334048Y-85489143D01*
X211273571Y-85561715D01*
X210668810Y-83747429D02*
X210608333Y-83892571D01*
X210547857Y-83965143D01*
X210426905Y-84037714D01*
X210366429Y-84037714D01*
X210245476Y-83965143D01*
X210185000Y-83892571D01*
X210124524Y-83747429D01*
X210124524Y-83457143D01*
X210185000Y-83312000D01*
X210245476Y-83239429D01*
X210366429Y-83166857D01*
X210426905Y-83166857D01*
X210547857Y-83239429D01*
X210608333Y-83312000D01*
X210668810Y-83457143D01*
X210668810Y-83747429D01*
X210729286Y-83892571D01*
X210789762Y-83965143D01*
X210910714Y-84037714D01*
X211152619Y-84037714D01*
X211273571Y-83965143D01*
X211334048Y-83892571D01*
X211394524Y-83747429D01*
X211394524Y-83457143D01*
X211334048Y-83312000D01*
X211273571Y-83239429D01*
X211152619Y-83166857D01*
X210910714Y-83166857D01*
X210789762Y-83239429D01*
X210729286Y-83312000D01*
X210668810Y-83457143D01*
X216474524Y-105990572D02*
X215204524Y-105990572D01*
X215204524Y-105627715D01*
X215265000Y-105410000D01*
X215385952Y-105264858D01*
X215506905Y-105192286D01*
X215748810Y-105119715D01*
X215930238Y-105119715D01*
X216172143Y-105192286D01*
X216293095Y-105264858D01*
X216414048Y-105410000D01*
X216474524Y-105627715D01*
X216474524Y-105990572D01*
X215204524Y-104611715D02*
X215204524Y-103668286D01*
X215688333Y-104176286D01*
X215688333Y-103958572D01*
X215748810Y-103813429D01*
X215809286Y-103740858D01*
X215930238Y-103668286D01*
X216232619Y-103668286D01*
X216353571Y-103740858D01*
X216414048Y-103813429D01*
X216474524Y-103958572D01*
X216474524Y-104394000D01*
X216414048Y-104539143D01*
X216353571Y-104611715D01*
X216474524Y-102942571D02*
X216474524Y-102652286D01*
X216414048Y-102507143D01*
X216353571Y-102434571D01*
X216172143Y-102289429D01*
X215930238Y-102216857D01*
X215446429Y-102216857D01*
X215325476Y-102289429D01*
X215265000Y-102362000D01*
X215204524Y-102507143D01*
X215204524Y-102797429D01*
X215265000Y-102942571D01*
X215325476Y-103015143D01*
X215446429Y-103087714D01*
X215748810Y-103087714D01*
X215869762Y-103015143D01*
X215930238Y-102942571D01*
X215990714Y-102797429D01*
X215990714Y-102507143D01*
X215930238Y-102362000D01*
X215869762Y-102289429D01*
X215748810Y-102216857D01*
X225364524Y-125040572D02*
X224094524Y-125040572D01*
X224094524Y-124677715D01*
X224155000Y-124460000D01*
X224275952Y-124314858D01*
X224396905Y-124242286D01*
X224638810Y-124169715D01*
X224820238Y-124169715D01*
X225062143Y-124242286D01*
X225183095Y-124314858D01*
X225304048Y-124460000D01*
X225364524Y-124677715D01*
X225364524Y-125040572D01*
X224517857Y-122863429D02*
X225364524Y-122863429D01*
X224034048Y-123226286D02*
X224941190Y-123589143D01*
X224941190Y-122645715D01*
X224094524Y-121774857D02*
X224094524Y-121629714D01*
X224155000Y-121484571D01*
X224215476Y-121412000D01*
X224336429Y-121339429D01*
X224578333Y-121266857D01*
X224880714Y-121266857D01*
X225122619Y-121339429D01*
X225243571Y-121412000D01*
X225304048Y-121484571D01*
X225364524Y-121629714D01*
X225364524Y-121774857D01*
X225304048Y-121920000D01*
X225243571Y-121992571D01*
X225122619Y-122065143D01*
X224880714Y-122137714D01*
X224578333Y-122137714D01*
X224336429Y-122065143D01*
X224215476Y-121992571D01*
X224155000Y-121920000D01*
X224094524Y-121774857D01*
X225364524Y-144090572D02*
X224094524Y-144090572D01*
X224094524Y-143727715D01*
X224155000Y-143510000D01*
X224275952Y-143364858D01*
X224396905Y-143292286D01*
X224638810Y-143219715D01*
X224820238Y-143219715D01*
X225062143Y-143292286D01*
X225183095Y-143364858D01*
X225304048Y-143510000D01*
X225364524Y-143727715D01*
X225364524Y-144090572D01*
X224517857Y-141913429D02*
X225364524Y-141913429D01*
X224034048Y-142276286D02*
X224941190Y-142639143D01*
X224941190Y-141695715D01*
X225364524Y-140316857D02*
X225364524Y-141187714D01*
X225364524Y-140752286D02*
X224094524Y-140752286D01*
X224275952Y-140897429D01*
X224396905Y-141042571D01*
X224457381Y-141187714D01*
X230444524Y-88210572D02*
X229174524Y-88210572D01*
X229174524Y-87847715D01*
X229235000Y-87630000D01*
X229355952Y-87484858D01*
X229476905Y-87412286D01*
X229718810Y-87339715D01*
X229900238Y-87339715D01*
X230142143Y-87412286D01*
X230263095Y-87484858D01*
X230384048Y-87630000D01*
X230444524Y-87847715D01*
X230444524Y-88210572D01*
X229597857Y-86033429D02*
X230444524Y-86033429D01*
X229114048Y-86396286D02*
X230021190Y-86759143D01*
X230021190Y-85815715D01*
X229295476Y-85307714D02*
X229235000Y-85235143D01*
X229174524Y-85090000D01*
X229174524Y-84727143D01*
X229235000Y-84582000D01*
X229295476Y-84509429D01*
X229416429Y-84436857D01*
X229537381Y-84436857D01*
X229718810Y-84509429D01*
X230444524Y-85380286D01*
X230444524Y-84436857D01*
X235524524Y-105990572D02*
X234254524Y-105990572D01*
X234254524Y-105627715D01*
X234315000Y-105410000D01*
X234435952Y-105264858D01*
X234556905Y-105192286D01*
X234798810Y-105119715D01*
X234980238Y-105119715D01*
X235222143Y-105192286D01*
X235343095Y-105264858D01*
X235464048Y-105410000D01*
X235524524Y-105627715D01*
X235524524Y-105990572D01*
X234677857Y-103813429D02*
X235524524Y-103813429D01*
X234194048Y-104176286D02*
X235101190Y-104539143D01*
X235101190Y-103595715D01*
X234254524Y-103160286D02*
X234254524Y-102216857D01*
X234738333Y-102724857D01*
X234738333Y-102507143D01*
X234798810Y-102362000D01*
X234859286Y-102289429D01*
X234980238Y-102216857D01*
X235282619Y-102216857D01*
X235403571Y-102289429D01*
X235464048Y-102362000D01*
X235524524Y-102507143D01*
X235524524Y-102942571D01*
X235464048Y-103087714D01*
X235403571Y-103160286D01*
X250764524Y-125040572D02*
X249494524Y-125040572D01*
X249494524Y-124677715D01*
X249555000Y-124460000D01*
X249675952Y-124314858D01*
X249796905Y-124242286D01*
X250038810Y-124169715D01*
X250220238Y-124169715D01*
X250462143Y-124242286D01*
X250583095Y-124314858D01*
X250704048Y-124460000D01*
X250764524Y-124677715D01*
X250764524Y-125040572D01*
X249917857Y-122863429D02*
X250764524Y-122863429D01*
X249434048Y-123226286D02*
X250341190Y-123589143D01*
X250341190Y-122645715D01*
X249917857Y-121412000D02*
X250764524Y-121412000D01*
X249434048Y-121774857D02*
X250341190Y-122137714D01*
X250341190Y-121194286D01*
X244414524Y-144090572D02*
X243144524Y-144090572D01*
X243144524Y-143727715D01*
X243205000Y-143510000D01*
X243325952Y-143364858D01*
X243446905Y-143292286D01*
X243688810Y-143219715D01*
X243870238Y-143219715D01*
X244112143Y-143292286D01*
X244233095Y-143364858D01*
X244354048Y-143510000D01*
X244414524Y-143727715D01*
X244414524Y-144090572D01*
X243567857Y-141913429D02*
X244414524Y-141913429D01*
X243084048Y-142276286D02*
X243991190Y-142639143D01*
X243991190Y-141695715D01*
X243144524Y-140389429D02*
X243144524Y-141115143D01*
X243749286Y-141187714D01*
X243688810Y-141115143D01*
X243628333Y-140970000D01*
X243628333Y-140607143D01*
X243688810Y-140462000D01*
X243749286Y-140389429D01*
X243870238Y-140316857D01*
X244172619Y-140316857D01*
X244293571Y-140389429D01*
X244354048Y-140462000D01*
X244414524Y-140607143D01*
X244414524Y-140970000D01*
X244354048Y-141115143D01*
X244293571Y-141187714D01*
X249494524Y-88210572D02*
X248224524Y-88210572D01*
X248224524Y-87847715D01*
X248285000Y-87630000D01*
X248405952Y-87484858D01*
X248526905Y-87412286D01*
X248768810Y-87339715D01*
X248950238Y-87339715D01*
X249192143Y-87412286D01*
X249313095Y-87484858D01*
X249434048Y-87630000D01*
X249494524Y-87847715D01*
X249494524Y-88210572D01*
X248647857Y-86033429D02*
X249494524Y-86033429D01*
X248164048Y-86396286D02*
X249071190Y-86759143D01*
X249071190Y-85815715D01*
X248224524Y-84582000D02*
X248224524Y-84872286D01*
X248285000Y-85017429D01*
X248345476Y-85090000D01*
X248526905Y-85235143D01*
X248768810Y-85307714D01*
X249252619Y-85307714D01*
X249373571Y-85235143D01*
X249434048Y-85162571D01*
X249494524Y-85017429D01*
X249494524Y-84727143D01*
X249434048Y-84582000D01*
X249373571Y-84509429D01*
X249252619Y-84436857D01*
X248950238Y-84436857D01*
X248829286Y-84509429D01*
X248768810Y-84582000D01*
X248708333Y-84727143D01*
X248708333Y-85017429D01*
X248768810Y-85162571D01*
X248829286Y-85235143D01*
X248950238Y-85307714D01*
X274894524Y-130120572D02*
X273624524Y-130120572D01*
X273624524Y-129757715D01*
X273685000Y-129540000D01*
X273805952Y-129394858D01*
X273926905Y-129322286D01*
X274168810Y-129249715D01*
X274350238Y-129249715D01*
X274592143Y-129322286D01*
X274713095Y-129394858D01*
X274834048Y-129540000D01*
X274894524Y-129757715D01*
X274894524Y-130120572D01*
X274047857Y-127943429D02*
X274894524Y-127943429D01*
X273564048Y-128306286D02*
X274471190Y-128669143D01*
X274471190Y-127725715D01*
X273624524Y-127290286D02*
X273624524Y-126274286D01*
X274894524Y-126927429D01*
X271084524Y-130120572D02*
X269814524Y-130120572D01*
X269814524Y-129757715D01*
X269875000Y-129540000D01*
X269995952Y-129394858D01*
X270116905Y-129322286D01*
X270358810Y-129249715D01*
X270540238Y-129249715D01*
X270782143Y-129322286D01*
X270903095Y-129394858D01*
X271024048Y-129540000D01*
X271084524Y-129757715D01*
X271084524Y-130120572D01*
X270237857Y-127943429D02*
X271084524Y-127943429D01*
X269754048Y-128306286D02*
X270661190Y-128669143D01*
X270661190Y-127725715D01*
X270358810Y-126927429D02*
X270298333Y-127072571D01*
X270237857Y-127145143D01*
X270116905Y-127217714D01*
X270056429Y-127217714D01*
X269935476Y-127145143D01*
X269875000Y-127072571D01*
X269814524Y-126927429D01*
X269814524Y-126637143D01*
X269875000Y-126492000D01*
X269935476Y-126419429D01*
X270056429Y-126346857D01*
X270116905Y-126346857D01*
X270237857Y-126419429D01*
X270298333Y-126492000D01*
X270358810Y-126637143D01*
X270358810Y-126927429D01*
X270419286Y-127072571D01*
X270479762Y-127145143D01*
X270600714Y-127217714D01*
X270842619Y-127217714D01*
X270963571Y-127145143D01*
X271024048Y-127072571D01*
X271084524Y-126927429D01*
X271084524Y-126637143D01*
X271024048Y-126492000D01*
X270963571Y-126419429D01*
X270842619Y-126346857D01*
X270600714Y-126346857D01*
X270479762Y-126419429D01*
X270419286Y-126492000D01*
X270358810Y-126637143D01*
X234005619Y-75763381D02*
X233529428Y-75763381D01*
X233529428Y-74763381D01*
X234338952Y-75239571D02*
X234672286Y-75239571D01*
X234815143Y-75763381D02*
X234338952Y-75763381D01*
X234338952Y-74763381D01*
X234815143Y-74763381D01*
X235243714Y-75763381D02*
X235243714Y-74763381D01*
X235481809Y-74763381D01*
X235624667Y-74811000D01*
X235719905Y-74906238D01*
X235767524Y-75001476D01*
X235815143Y-75191952D01*
X235815143Y-75334810D01*
X235767524Y-75525286D01*
X235719905Y-75620524D01*
X235624667Y-75715762D01*
X235481809Y-75763381D01*
X235243714Y-75763381D01*
X236005619Y-75858619D02*
X236767524Y-75858619D01*
X236958000Y-75477667D02*
X237434191Y-75477667D01*
X236862762Y-75763381D02*
X237196095Y-74763381D01*
X237529429Y-75763381D01*
X247904191Y-75763381D02*
X247428000Y-75763381D01*
X247428000Y-74763381D01*
X248237524Y-75239571D02*
X248570858Y-75239571D01*
X248713715Y-75763381D02*
X248237524Y-75763381D01*
X248237524Y-74763381D01*
X248713715Y-74763381D01*
X249142286Y-75763381D02*
X249142286Y-74763381D01*
X249380381Y-74763381D01*
X249523239Y-74811000D01*
X249618477Y-74906238D01*
X249666096Y-75001476D01*
X249713715Y-75191952D01*
X249713715Y-75334810D01*
X249666096Y-75525286D01*
X249618477Y-75620524D01*
X249523239Y-75715762D01*
X249380381Y-75763381D01*
X249142286Y-75763381D01*
X249904191Y-75858619D02*
X250666096Y-75858619D01*
X251237525Y-75239571D02*
X251380382Y-75287190D01*
X251428001Y-75334810D01*
X251475620Y-75430048D01*
X251475620Y-75572905D01*
X251428001Y-75668143D01*
X251380382Y-75715762D01*
X251285144Y-75763381D01*
X250904191Y-75763381D01*
X250904191Y-74763381D01*
X251237525Y-74763381D01*
X251332763Y-74811000D01*
X251380382Y-74858619D01*
X251428001Y-74953857D01*
X251428001Y-75049095D01*
X251380382Y-75144333D01*
X251332763Y-75191952D01*
X251237525Y-75239571D01*
X250904191Y-75239571D01*
X261874191Y-75763381D02*
X261398000Y-75763381D01*
X261398000Y-74763381D01*
X262207524Y-75239571D02*
X262540858Y-75239571D01*
X262683715Y-75763381D02*
X262207524Y-75763381D01*
X262207524Y-74763381D01*
X262683715Y-74763381D01*
X263112286Y-75763381D02*
X263112286Y-74763381D01*
X263350381Y-74763381D01*
X263493239Y-74811000D01*
X263588477Y-74906238D01*
X263636096Y-75001476D01*
X263683715Y-75191952D01*
X263683715Y-75334810D01*
X263636096Y-75525286D01*
X263588477Y-75620524D01*
X263493239Y-75715762D01*
X263350381Y-75763381D01*
X263112286Y-75763381D01*
X263874191Y-75858619D02*
X264636096Y-75858619D01*
X265445620Y-75668143D02*
X265398001Y-75715762D01*
X265255144Y-75763381D01*
X265159906Y-75763381D01*
X265017048Y-75715762D01*
X264921810Y-75620524D01*
X264874191Y-75525286D01*
X264826572Y-75334810D01*
X264826572Y-75191952D01*
X264874191Y-75001476D01*
X264921810Y-74906238D01*
X265017048Y-74811000D01*
X265159906Y-74763381D01*
X265255144Y-74763381D01*
X265398001Y-74811000D01*
X265445620Y-74858619D01*
X234696000Y-78679524D02*
X234188000Y-78074762D01*
X233825143Y-78679524D02*
X233825143Y-77409524D01*
X234405715Y-77409524D01*
X234550857Y-77470000D01*
X234623429Y-77530476D01*
X234696000Y-77651429D01*
X234696000Y-77832857D01*
X234623429Y-77953810D01*
X234550857Y-78014286D01*
X234405715Y-78074762D01*
X233825143Y-78074762D01*
X236147429Y-78679524D02*
X235276572Y-78679524D01*
X235712000Y-78679524D02*
X235712000Y-77409524D01*
X235566857Y-77590952D01*
X235421715Y-77711905D01*
X235276572Y-77772381D01*
X248666000Y-78679524D02*
X248158000Y-78074762D01*
X247795143Y-78679524D02*
X247795143Y-77409524D01*
X248375715Y-77409524D01*
X248520857Y-77470000D01*
X248593429Y-77530476D01*
X248666000Y-77651429D01*
X248666000Y-77832857D01*
X248593429Y-77953810D01*
X248520857Y-78014286D01*
X248375715Y-78074762D01*
X247795143Y-78074762D01*
X249246572Y-77530476D02*
X249319143Y-77470000D01*
X249464286Y-77409524D01*
X249827143Y-77409524D01*
X249972286Y-77470000D01*
X250044857Y-77530476D01*
X250117429Y-77651429D01*
X250117429Y-77772381D01*
X250044857Y-77953810D01*
X249174000Y-78679524D01*
X250117429Y-78679524D01*
X262636000Y-78679524D02*
X262128000Y-78074762D01*
X261765143Y-78679524D02*
X261765143Y-77409524D01*
X262345715Y-77409524D01*
X262490857Y-77470000D01*
X262563429Y-77530476D01*
X262636000Y-77651429D01*
X262636000Y-77832857D01*
X262563429Y-77953810D01*
X262490857Y-78014286D01*
X262345715Y-78074762D01*
X261765143Y-78074762D01*
X263144000Y-77409524D02*
X264087429Y-77409524D01*
X263579429Y-77893333D01*
X263797143Y-77893333D01*
X263942286Y-77953810D01*
X264014857Y-78014286D01*
X264087429Y-78135238D01*
X264087429Y-78437619D01*
X264014857Y-78558571D01*
X263942286Y-78619048D01*
X263797143Y-78679524D01*
X263361715Y-78679524D01*
X263216572Y-78619048D01*
X263144000Y-78558571D01*
X26089429Y-92589048D02*
X26307143Y-92649524D01*
X26670000Y-92649524D01*
X26815143Y-92589048D01*
X26887714Y-92528571D01*
X26960286Y-92407619D01*
X26960286Y-92286667D01*
X26887714Y-92165714D01*
X26815143Y-92105238D01*
X26670000Y-92044762D01*
X26379714Y-91984286D01*
X26234572Y-91923810D01*
X26162000Y-91863333D01*
X26089429Y-91742381D01*
X26089429Y-91621429D01*
X26162000Y-91500476D01*
X26234572Y-91440000D01*
X26379714Y-91379524D01*
X26742572Y-91379524D01*
X26960286Y-91440000D01*
X27468286Y-91379524D02*
X27831143Y-92649524D01*
X28121429Y-91742381D01*
X28411715Y-92649524D01*
X28774572Y-91379524D01*
X29645429Y-91379524D02*
X29790572Y-91379524D01*
X29935715Y-91440000D01*
X30008286Y-91500476D01*
X30080857Y-91621429D01*
X30153429Y-91863333D01*
X30153429Y-92165714D01*
X30080857Y-92407619D01*
X30008286Y-92528571D01*
X29935715Y-92589048D01*
X29790572Y-92649524D01*
X29645429Y-92649524D01*
X29500286Y-92589048D01*
X29427715Y-92528571D01*
X29355143Y-92407619D01*
X29282572Y-92165714D01*
X29282572Y-91863333D01*
X29355143Y-91621429D01*
X29427715Y-91500476D01*
X29500286Y-91440000D01*
X29645429Y-91379524D01*
X30806572Y-92528571D02*
X30879144Y-92589048D01*
X30806572Y-92649524D01*
X30734001Y-92589048D01*
X30806572Y-92528571D01*
X30806572Y-92649524D01*
X30806572Y-91863333D02*
X30879144Y-91923810D01*
X30806572Y-91984286D01*
X30734001Y-91923810D01*
X30806572Y-91863333D01*
X30806572Y-91984286D01*
X31822572Y-91379524D02*
X31967715Y-91379524D01*
X32112858Y-91440000D01*
X32185429Y-91500476D01*
X32258000Y-91621429D01*
X32330572Y-91863333D01*
X32330572Y-92165714D01*
X32258000Y-92407619D01*
X32185429Y-92528571D01*
X32112858Y-92589048D01*
X31967715Y-92649524D01*
X31822572Y-92649524D01*
X31677429Y-92589048D01*
X31604858Y-92528571D01*
X31532286Y-92407619D01*
X31459715Y-92165714D01*
X31459715Y-91863333D01*
X31532286Y-91621429D01*
X31604858Y-91500476D01*
X31677429Y-91440000D01*
X31822572Y-91379524D01*
X45139429Y-92589048D02*
X45357143Y-92649524D01*
X45720000Y-92649524D01*
X45865143Y-92589048D01*
X45937714Y-92528571D01*
X46010286Y-92407619D01*
X46010286Y-92286667D01*
X45937714Y-92165714D01*
X45865143Y-92105238D01*
X45720000Y-92044762D01*
X45429714Y-91984286D01*
X45284572Y-91923810D01*
X45212000Y-91863333D01*
X45139429Y-91742381D01*
X45139429Y-91621429D01*
X45212000Y-91500476D01*
X45284572Y-91440000D01*
X45429714Y-91379524D01*
X45792572Y-91379524D01*
X46010286Y-91440000D01*
X46518286Y-91379524D02*
X46881143Y-92649524D01*
X47171429Y-91742381D01*
X47461715Y-92649524D01*
X47824572Y-91379524D01*
X48695429Y-91379524D02*
X48840572Y-91379524D01*
X48985715Y-91440000D01*
X49058286Y-91500476D01*
X49130857Y-91621429D01*
X49203429Y-91863333D01*
X49203429Y-92165714D01*
X49130857Y-92407619D01*
X49058286Y-92528571D01*
X48985715Y-92589048D01*
X48840572Y-92649524D01*
X48695429Y-92649524D01*
X48550286Y-92589048D01*
X48477715Y-92528571D01*
X48405143Y-92407619D01*
X48332572Y-92165714D01*
X48332572Y-91863333D01*
X48405143Y-91621429D01*
X48477715Y-91500476D01*
X48550286Y-91440000D01*
X48695429Y-91379524D01*
X49856572Y-92528571D02*
X49929144Y-92589048D01*
X49856572Y-92649524D01*
X49784001Y-92589048D01*
X49856572Y-92528571D01*
X49856572Y-92649524D01*
X49856572Y-91863333D02*
X49929144Y-91923810D01*
X49856572Y-91984286D01*
X49784001Y-91923810D01*
X49856572Y-91863333D01*
X49856572Y-91984286D01*
X51380572Y-92649524D02*
X50509715Y-92649524D01*
X50945143Y-92649524D02*
X50945143Y-91379524D01*
X50800000Y-91560952D01*
X50654858Y-91681905D01*
X50509715Y-91742381D01*
X64189429Y-92589048D02*
X64407143Y-92649524D01*
X64770000Y-92649524D01*
X64915143Y-92589048D01*
X64987714Y-92528571D01*
X65060286Y-92407619D01*
X65060286Y-92286667D01*
X64987714Y-92165714D01*
X64915143Y-92105238D01*
X64770000Y-92044762D01*
X64479714Y-91984286D01*
X64334572Y-91923810D01*
X64262000Y-91863333D01*
X64189429Y-91742381D01*
X64189429Y-91621429D01*
X64262000Y-91500476D01*
X64334572Y-91440000D01*
X64479714Y-91379524D01*
X64842572Y-91379524D01*
X65060286Y-91440000D01*
X65568286Y-91379524D02*
X65931143Y-92649524D01*
X66221429Y-91742381D01*
X66511715Y-92649524D01*
X66874572Y-91379524D01*
X67745429Y-91379524D02*
X67890572Y-91379524D01*
X68035715Y-91440000D01*
X68108286Y-91500476D01*
X68180857Y-91621429D01*
X68253429Y-91863333D01*
X68253429Y-92165714D01*
X68180857Y-92407619D01*
X68108286Y-92528571D01*
X68035715Y-92589048D01*
X67890572Y-92649524D01*
X67745429Y-92649524D01*
X67600286Y-92589048D01*
X67527715Y-92528571D01*
X67455143Y-92407619D01*
X67382572Y-92165714D01*
X67382572Y-91863333D01*
X67455143Y-91621429D01*
X67527715Y-91500476D01*
X67600286Y-91440000D01*
X67745429Y-91379524D01*
X68906572Y-92528571D02*
X68979144Y-92589048D01*
X68906572Y-92649524D01*
X68834001Y-92589048D01*
X68906572Y-92528571D01*
X68906572Y-92649524D01*
X68906572Y-91863333D02*
X68979144Y-91923810D01*
X68906572Y-91984286D01*
X68834001Y-91923810D01*
X68906572Y-91863333D01*
X68906572Y-91984286D01*
X69559715Y-91500476D02*
X69632286Y-91440000D01*
X69777429Y-91379524D01*
X70140286Y-91379524D01*
X70285429Y-91440000D01*
X70358000Y-91500476D01*
X70430572Y-91621429D01*
X70430572Y-91742381D01*
X70358000Y-91923810D01*
X69487143Y-92649524D01*
X70430572Y-92649524D01*
X83239429Y-92589048D02*
X83457143Y-92649524D01*
X83820000Y-92649524D01*
X83965143Y-92589048D01*
X84037714Y-92528571D01*
X84110286Y-92407619D01*
X84110286Y-92286667D01*
X84037714Y-92165714D01*
X83965143Y-92105238D01*
X83820000Y-92044762D01*
X83529714Y-91984286D01*
X83384572Y-91923810D01*
X83312000Y-91863333D01*
X83239429Y-91742381D01*
X83239429Y-91621429D01*
X83312000Y-91500476D01*
X83384572Y-91440000D01*
X83529714Y-91379524D01*
X83892572Y-91379524D01*
X84110286Y-91440000D01*
X84618286Y-91379524D02*
X84981143Y-92649524D01*
X85271429Y-91742381D01*
X85561715Y-92649524D01*
X85924572Y-91379524D01*
X86795429Y-91379524D02*
X86940572Y-91379524D01*
X87085715Y-91440000D01*
X87158286Y-91500476D01*
X87230857Y-91621429D01*
X87303429Y-91863333D01*
X87303429Y-92165714D01*
X87230857Y-92407619D01*
X87158286Y-92528571D01*
X87085715Y-92589048D01*
X86940572Y-92649524D01*
X86795429Y-92649524D01*
X86650286Y-92589048D01*
X86577715Y-92528571D01*
X86505143Y-92407619D01*
X86432572Y-92165714D01*
X86432572Y-91863333D01*
X86505143Y-91621429D01*
X86577715Y-91500476D01*
X86650286Y-91440000D01*
X86795429Y-91379524D01*
X87956572Y-92528571D02*
X88029144Y-92589048D01*
X87956572Y-92649524D01*
X87884001Y-92589048D01*
X87956572Y-92528571D01*
X87956572Y-92649524D01*
X87956572Y-91863333D02*
X88029144Y-91923810D01*
X87956572Y-91984286D01*
X87884001Y-91923810D01*
X87956572Y-91863333D01*
X87956572Y-91984286D01*
X88537143Y-91379524D02*
X89480572Y-91379524D01*
X88972572Y-91863333D01*
X89190286Y-91863333D01*
X89335429Y-91923810D01*
X89408000Y-91984286D01*
X89480572Y-92105238D01*
X89480572Y-92407619D01*
X89408000Y-92528571D01*
X89335429Y-92589048D01*
X89190286Y-92649524D01*
X88754858Y-92649524D01*
X88609715Y-92589048D01*
X88537143Y-92528571D01*
X102289429Y-92589048D02*
X102507143Y-92649524D01*
X102870000Y-92649524D01*
X103015143Y-92589048D01*
X103087714Y-92528571D01*
X103160286Y-92407619D01*
X103160286Y-92286667D01*
X103087714Y-92165714D01*
X103015143Y-92105238D01*
X102870000Y-92044762D01*
X102579714Y-91984286D01*
X102434572Y-91923810D01*
X102362000Y-91863333D01*
X102289429Y-91742381D01*
X102289429Y-91621429D01*
X102362000Y-91500476D01*
X102434572Y-91440000D01*
X102579714Y-91379524D01*
X102942572Y-91379524D01*
X103160286Y-91440000D01*
X103668286Y-91379524D02*
X104031143Y-92649524D01*
X104321429Y-91742381D01*
X104611715Y-92649524D01*
X104974572Y-91379524D01*
X105845429Y-91379524D02*
X105990572Y-91379524D01*
X106135715Y-91440000D01*
X106208286Y-91500476D01*
X106280857Y-91621429D01*
X106353429Y-91863333D01*
X106353429Y-92165714D01*
X106280857Y-92407619D01*
X106208286Y-92528571D01*
X106135715Y-92589048D01*
X105990572Y-92649524D01*
X105845429Y-92649524D01*
X105700286Y-92589048D01*
X105627715Y-92528571D01*
X105555143Y-92407619D01*
X105482572Y-92165714D01*
X105482572Y-91863333D01*
X105555143Y-91621429D01*
X105627715Y-91500476D01*
X105700286Y-91440000D01*
X105845429Y-91379524D01*
X107006572Y-92528571D02*
X107079144Y-92589048D01*
X107006572Y-92649524D01*
X106934001Y-92589048D01*
X107006572Y-92528571D01*
X107006572Y-92649524D01*
X107006572Y-91863333D02*
X107079144Y-91923810D01*
X107006572Y-91984286D01*
X106934001Y-91923810D01*
X107006572Y-91863333D01*
X107006572Y-91984286D01*
X108385429Y-91802857D02*
X108385429Y-92649524D01*
X108022572Y-91319048D02*
X107659715Y-92226190D01*
X108603143Y-92226190D01*
X121339429Y-92589048D02*
X121557143Y-92649524D01*
X121920000Y-92649524D01*
X122065143Y-92589048D01*
X122137714Y-92528571D01*
X122210286Y-92407619D01*
X122210286Y-92286667D01*
X122137714Y-92165714D01*
X122065143Y-92105238D01*
X121920000Y-92044762D01*
X121629714Y-91984286D01*
X121484572Y-91923810D01*
X121412000Y-91863333D01*
X121339429Y-91742381D01*
X121339429Y-91621429D01*
X121412000Y-91500476D01*
X121484572Y-91440000D01*
X121629714Y-91379524D01*
X121992572Y-91379524D01*
X122210286Y-91440000D01*
X122718286Y-91379524D02*
X123081143Y-92649524D01*
X123371429Y-91742381D01*
X123661715Y-92649524D01*
X124024572Y-91379524D01*
X124895429Y-91379524D02*
X125040572Y-91379524D01*
X125185715Y-91440000D01*
X125258286Y-91500476D01*
X125330857Y-91621429D01*
X125403429Y-91863333D01*
X125403429Y-92165714D01*
X125330857Y-92407619D01*
X125258286Y-92528571D01*
X125185715Y-92589048D01*
X125040572Y-92649524D01*
X124895429Y-92649524D01*
X124750286Y-92589048D01*
X124677715Y-92528571D01*
X124605143Y-92407619D01*
X124532572Y-92165714D01*
X124532572Y-91863333D01*
X124605143Y-91621429D01*
X124677715Y-91500476D01*
X124750286Y-91440000D01*
X124895429Y-91379524D01*
X126056572Y-92528571D02*
X126129144Y-92589048D01*
X126056572Y-92649524D01*
X125984001Y-92589048D01*
X126056572Y-92528571D01*
X126056572Y-92649524D01*
X126056572Y-91863333D02*
X126129144Y-91923810D01*
X126056572Y-91984286D01*
X125984001Y-91923810D01*
X126056572Y-91863333D01*
X126056572Y-91984286D01*
X127508000Y-91379524D02*
X126782286Y-91379524D01*
X126709715Y-91984286D01*
X126782286Y-91923810D01*
X126927429Y-91863333D01*
X127290286Y-91863333D01*
X127435429Y-91923810D01*
X127508000Y-91984286D01*
X127580572Y-92105238D01*
X127580572Y-92407619D01*
X127508000Y-92528571D01*
X127435429Y-92589048D01*
X127290286Y-92649524D01*
X126927429Y-92649524D01*
X126782286Y-92589048D01*
X126709715Y-92528571D01*
X140389429Y-92589048D02*
X140607143Y-92649524D01*
X140970000Y-92649524D01*
X141115143Y-92589048D01*
X141187714Y-92528571D01*
X141260286Y-92407619D01*
X141260286Y-92286667D01*
X141187714Y-92165714D01*
X141115143Y-92105238D01*
X140970000Y-92044762D01*
X140679714Y-91984286D01*
X140534572Y-91923810D01*
X140462000Y-91863333D01*
X140389429Y-91742381D01*
X140389429Y-91621429D01*
X140462000Y-91500476D01*
X140534572Y-91440000D01*
X140679714Y-91379524D01*
X141042572Y-91379524D01*
X141260286Y-91440000D01*
X141768286Y-91379524D02*
X142131143Y-92649524D01*
X142421429Y-91742381D01*
X142711715Y-92649524D01*
X143074572Y-91379524D01*
X143945429Y-91379524D02*
X144090572Y-91379524D01*
X144235715Y-91440000D01*
X144308286Y-91500476D01*
X144380857Y-91621429D01*
X144453429Y-91863333D01*
X144453429Y-92165714D01*
X144380857Y-92407619D01*
X144308286Y-92528571D01*
X144235715Y-92589048D01*
X144090572Y-92649524D01*
X143945429Y-92649524D01*
X143800286Y-92589048D01*
X143727715Y-92528571D01*
X143655143Y-92407619D01*
X143582572Y-92165714D01*
X143582572Y-91863333D01*
X143655143Y-91621429D01*
X143727715Y-91500476D01*
X143800286Y-91440000D01*
X143945429Y-91379524D01*
X145106572Y-92528571D02*
X145179144Y-92589048D01*
X145106572Y-92649524D01*
X145034001Y-92589048D01*
X145106572Y-92528571D01*
X145106572Y-92649524D01*
X145106572Y-91863333D02*
X145179144Y-91923810D01*
X145106572Y-91984286D01*
X145034001Y-91923810D01*
X145106572Y-91863333D01*
X145106572Y-91984286D01*
X146485429Y-91379524D02*
X146195143Y-91379524D01*
X146050000Y-91440000D01*
X145977429Y-91500476D01*
X145832286Y-91681905D01*
X145759715Y-91923810D01*
X145759715Y-92407619D01*
X145832286Y-92528571D01*
X145904858Y-92589048D01*
X146050000Y-92649524D01*
X146340286Y-92649524D01*
X146485429Y-92589048D01*
X146558000Y-92528571D01*
X146630572Y-92407619D01*
X146630572Y-92105238D01*
X146558000Y-91984286D01*
X146485429Y-91923810D01*
X146340286Y-91863333D01*
X146050000Y-91863333D01*
X145904858Y-91923810D01*
X145832286Y-91984286D01*
X145759715Y-92105238D01*
X159439429Y-92589048D02*
X159657143Y-92649524D01*
X160020000Y-92649524D01*
X160165143Y-92589048D01*
X160237714Y-92528571D01*
X160310286Y-92407619D01*
X160310286Y-92286667D01*
X160237714Y-92165714D01*
X160165143Y-92105238D01*
X160020000Y-92044762D01*
X159729714Y-91984286D01*
X159584572Y-91923810D01*
X159512000Y-91863333D01*
X159439429Y-91742381D01*
X159439429Y-91621429D01*
X159512000Y-91500476D01*
X159584572Y-91440000D01*
X159729714Y-91379524D01*
X160092572Y-91379524D01*
X160310286Y-91440000D01*
X160818286Y-91379524D02*
X161181143Y-92649524D01*
X161471429Y-91742381D01*
X161761715Y-92649524D01*
X162124572Y-91379524D01*
X162995429Y-91379524D02*
X163140572Y-91379524D01*
X163285715Y-91440000D01*
X163358286Y-91500476D01*
X163430857Y-91621429D01*
X163503429Y-91863333D01*
X163503429Y-92165714D01*
X163430857Y-92407619D01*
X163358286Y-92528571D01*
X163285715Y-92589048D01*
X163140572Y-92649524D01*
X162995429Y-92649524D01*
X162850286Y-92589048D01*
X162777715Y-92528571D01*
X162705143Y-92407619D01*
X162632572Y-92165714D01*
X162632572Y-91863333D01*
X162705143Y-91621429D01*
X162777715Y-91500476D01*
X162850286Y-91440000D01*
X162995429Y-91379524D01*
X164156572Y-92528571D02*
X164229144Y-92589048D01*
X164156572Y-92649524D01*
X164084001Y-92589048D01*
X164156572Y-92528571D01*
X164156572Y-92649524D01*
X164156572Y-91863333D02*
X164229144Y-91923810D01*
X164156572Y-91984286D01*
X164084001Y-91923810D01*
X164156572Y-91863333D01*
X164156572Y-91984286D01*
X164737143Y-91379524D02*
X165753143Y-91379524D01*
X165100000Y-92649524D01*
X178489429Y-92589048D02*
X178707143Y-92649524D01*
X179070000Y-92649524D01*
X179215143Y-92589048D01*
X179287714Y-92528571D01*
X179360286Y-92407619D01*
X179360286Y-92286667D01*
X179287714Y-92165714D01*
X179215143Y-92105238D01*
X179070000Y-92044762D01*
X178779714Y-91984286D01*
X178634572Y-91923810D01*
X178562000Y-91863333D01*
X178489429Y-91742381D01*
X178489429Y-91621429D01*
X178562000Y-91500476D01*
X178634572Y-91440000D01*
X178779714Y-91379524D01*
X179142572Y-91379524D01*
X179360286Y-91440000D01*
X179868286Y-91379524D02*
X180231143Y-92649524D01*
X180521429Y-91742381D01*
X180811715Y-92649524D01*
X181174572Y-91379524D01*
X182045429Y-91379524D02*
X182190572Y-91379524D01*
X182335715Y-91440000D01*
X182408286Y-91500476D01*
X182480857Y-91621429D01*
X182553429Y-91863333D01*
X182553429Y-92165714D01*
X182480857Y-92407619D01*
X182408286Y-92528571D01*
X182335715Y-92589048D01*
X182190572Y-92649524D01*
X182045429Y-92649524D01*
X181900286Y-92589048D01*
X181827715Y-92528571D01*
X181755143Y-92407619D01*
X181682572Y-92165714D01*
X181682572Y-91863333D01*
X181755143Y-91621429D01*
X181827715Y-91500476D01*
X181900286Y-91440000D01*
X182045429Y-91379524D01*
X183206572Y-92528571D02*
X183279144Y-92589048D01*
X183206572Y-92649524D01*
X183134001Y-92589048D01*
X183206572Y-92528571D01*
X183206572Y-92649524D01*
X183206572Y-91863333D02*
X183279144Y-91923810D01*
X183206572Y-91984286D01*
X183134001Y-91923810D01*
X183206572Y-91863333D01*
X183206572Y-91984286D01*
X184150000Y-91923810D02*
X184004858Y-91863333D01*
X183932286Y-91802857D01*
X183859715Y-91681905D01*
X183859715Y-91621429D01*
X183932286Y-91500476D01*
X184004858Y-91440000D01*
X184150000Y-91379524D01*
X184440286Y-91379524D01*
X184585429Y-91440000D01*
X184658000Y-91500476D01*
X184730572Y-91621429D01*
X184730572Y-91681905D01*
X184658000Y-91802857D01*
X184585429Y-91863333D01*
X184440286Y-91923810D01*
X184150000Y-91923810D01*
X184004858Y-91984286D01*
X183932286Y-92044762D01*
X183859715Y-92165714D01*
X183859715Y-92407619D01*
X183932286Y-92528571D01*
X184004858Y-92589048D01*
X184150000Y-92649524D01*
X184440286Y-92649524D01*
X184585429Y-92589048D01*
X184658000Y-92528571D01*
X184730572Y-92407619D01*
X184730572Y-92165714D01*
X184658000Y-92044762D01*
X184585429Y-91984286D01*
X184440286Y-91923810D01*
X197539429Y-92589048D02*
X197757143Y-92649524D01*
X198120000Y-92649524D01*
X198265143Y-92589048D01*
X198337714Y-92528571D01*
X198410286Y-92407619D01*
X198410286Y-92286667D01*
X198337714Y-92165714D01*
X198265143Y-92105238D01*
X198120000Y-92044762D01*
X197829714Y-91984286D01*
X197684572Y-91923810D01*
X197612000Y-91863333D01*
X197539429Y-91742381D01*
X197539429Y-91621429D01*
X197612000Y-91500476D01*
X197684572Y-91440000D01*
X197829714Y-91379524D01*
X198192572Y-91379524D01*
X198410286Y-91440000D01*
X198918286Y-91379524D02*
X199281143Y-92649524D01*
X199571429Y-91742381D01*
X199861715Y-92649524D01*
X200224572Y-91379524D01*
X201095429Y-91379524D02*
X201240572Y-91379524D01*
X201385715Y-91440000D01*
X201458286Y-91500476D01*
X201530857Y-91621429D01*
X201603429Y-91863333D01*
X201603429Y-92165714D01*
X201530857Y-92407619D01*
X201458286Y-92528571D01*
X201385715Y-92589048D01*
X201240572Y-92649524D01*
X201095429Y-92649524D01*
X200950286Y-92589048D01*
X200877715Y-92528571D01*
X200805143Y-92407619D01*
X200732572Y-92165714D01*
X200732572Y-91863333D01*
X200805143Y-91621429D01*
X200877715Y-91500476D01*
X200950286Y-91440000D01*
X201095429Y-91379524D01*
X202256572Y-92528571D02*
X202329144Y-92589048D01*
X202256572Y-92649524D01*
X202184001Y-92589048D01*
X202256572Y-92528571D01*
X202256572Y-92649524D01*
X202256572Y-91863333D02*
X202329144Y-91923810D01*
X202256572Y-91984286D01*
X202184001Y-91923810D01*
X202256572Y-91863333D01*
X202256572Y-91984286D01*
X203054858Y-92649524D02*
X203345143Y-92649524D01*
X203490286Y-92589048D01*
X203562858Y-92528571D01*
X203708000Y-92347143D01*
X203780572Y-92105238D01*
X203780572Y-91621429D01*
X203708000Y-91500476D01*
X203635429Y-91440000D01*
X203490286Y-91379524D01*
X203200000Y-91379524D01*
X203054858Y-91440000D01*
X202982286Y-91500476D01*
X202909715Y-91621429D01*
X202909715Y-91923810D01*
X202982286Y-92044762D01*
X203054858Y-92105238D01*
X203200000Y-92165714D01*
X203490286Y-92165714D01*
X203635429Y-92105238D01*
X203708000Y-92044762D01*
X203780572Y-91923810D01*
X215863714Y-92589048D02*
X216081428Y-92649524D01*
X216444285Y-92649524D01*
X216589428Y-92589048D01*
X216661999Y-92528571D01*
X216734571Y-92407619D01*
X216734571Y-92286667D01*
X216661999Y-92165714D01*
X216589428Y-92105238D01*
X216444285Y-92044762D01*
X216153999Y-91984286D01*
X216008857Y-91923810D01*
X215936285Y-91863333D01*
X215863714Y-91742381D01*
X215863714Y-91621429D01*
X215936285Y-91500476D01*
X216008857Y-91440000D01*
X216153999Y-91379524D01*
X216516857Y-91379524D01*
X216734571Y-91440000D01*
X217242571Y-91379524D02*
X217605428Y-92649524D01*
X217895714Y-91742381D01*
X218186000Y-92649524D01*
X218548857Y-91379524D01*
X219419714Y-91379524D02*
X219564857Y-91379524D01*
X219710000Y-91440000D01*
X219782571Y-91500476D01*
X219855142Y-91621429D01*
X219927714Y-91863333D01*
X219927714Y-92165714D01*
X219855142Y-92407619D01*
X219782571Y-92528571D01*
X219710000Y-92589048D01*
X219564857Y-92649524D01*
X219419714Y-92649524D01*
X219274571Y-92589048D01*
X219202000Y-92528571D01*
X219129428Y-92407619D01*
X219056857Y-92165714D01*
X219056857Y-91863333D01*
X219129428Y-91621429D01*
X219202000Y-91500476D01*
X219274571Y-91440000D01*
X219419714Y-91379524D01*
X220580857Y-92528571D02*
X220653429Y-92589048D01*
X220580857Y-92649524D01*
X220508286Y-92589048D01*
X220580857Y-92528571D01*
X220580857Y-92649524D01*
X220580857Y-91863333D02*
X220653429Y-91923810D01*
X220580857Y-91984286D01*
X220508286Y-91923810D01*
X220580857Y-91863333D01*
X220580857Y-91984286D01*
X222104857Y-92649524D02*
X221234000Y-92649524D01*
X221669428Y-92649524D02*
X221669428Y-91379524D01*
X221524285Y-91560952D01*
X221379143Y-91681905D01*
X221234000Y-91742381D01*
X223048286Y-91379524D02*
X223193429Y-91379524D01*
X223338572Y-91440000D01*
X223411143Y-91500476D01*
X223483714Y-91621429D01*
X223556286Y-91863333D01*
X223556286Y-92165714D01*
X223483714Y-92407619D01*
X223411143Y-92528571D01*
X223338572Y-92589048D01*
X223193429Y-92649524D01*
X223048286Y-92649524D01*
X222903143Y-92589048D01*
X222830572Y-92528571D01*
X222758000Y-92407619D01*
X222685429Y-92165714D01*
X222685429Y-91863333D01*
X222758000Y-91621429D01*
X222830572Y-91500476D01*
X222903143Y-91440000D01*
X223048286Y-91379524D01*
X234913714Y-92589048D02*
X235131428Y-92649524D01*
X235494285Y-92649524D01*
X235639428Y-92589048D01*
X235711999Y-92528571D01*
X235784571Y-92407619D01*
X235784571Y-92286667D01*
X235711999Y-92165714D01*
X235639428Y-92105238D01*
X235494285Y-92044762D01*
X235203999Y-91984286D01*
X235058857Y-91923810D01*
X234986285Y-91863333D01*
X234913714Y-91742381D01*
X234913714Y-91621429D01*
X234986285Y-91500476D01*
X235058857Y-91440000D01*
X235203999Y-91379524D01*
X235566857Y-91379524D01*
X235784571Y-91440000D01*
X236292571Y-91379524D02*
X236655428Y-92649524D01*
X236945714Y-91742381D01*
X237236000Y-92649524D01*
X237598857Y-91379524D01*
X238469714Y-91379524D02*
X238614857Y-91379524D01*
X238760000Y-91440000D01*
X238832571Y-91500476D01*
X238905142Y-91621429D01*
X238977714Y-91863333D01*
X238977714Y-92165714D01*
X238905142Y-92407619D01*
X238832571Y-92528571D01*
X238760000Y-92589048D01*
X238614857Y-92649524D01*
X238469714Y-92649524D01*
X238324571Y-92589048D01*
X238252000Y-92528571D01*
X238179428Y-92407619D01*
X238106857Y-92165714D01*
X238106857Y-91863333D01*
X238179428Y-91621429D01*
X238252000Y-91500476D01*
X238324571Y-91440000D01*
X238469714Y-91379524D01*
X239630857Y-92528571D02*
X239703429Y-92589048D01*
X239630857Y-92649524D01*
X239558286Y-92589048D01*
X239630857Y-92528571D01*
X239630857Y-92649524D01*
X239630857Y-91863333D02*
X239703429Y-91923810D01*
X239630857Y-91984286D01*
X239558286Y-91923810D01*
X239630857Y-91863333D01*
X239630857Y-91984286D01*
X241154857Y-92649524D02*
X240284000Y-92649524D01*
X240719428Y-92649524D02*
X240719428Y-91379524D01*
X240574285Y-91560952D01*
X240429143Y-91681905D01*
X240284000Y-91742381D01*
X242606286Y-92649524D02*
X241735429Y-92649524D01*
X242170857Y-92649524D02*
X242170857Y-91379524D01*
X242025714Y-91560952D01*
X241880572Y-91681905D01*
X241735429Y-91742381D01*
X259043714Y-92589048D02*
X259261428Y-92649524D01*
X259624285Y-92649524D01*
X259769428Y-92589048D01*
X259841999Y-92528571D01*
X259914571Y-92407619D01*
X259914571Y-92286667D01*
X259841999Y-92165714D01*
X259769428Y-92105238D01*
X259624285Y-92044762D01*
X259333999Y-91984286D01*
X259188857Y-91923810D01*
X259116285Y-91863333D01*
X259043714Y-91742381D01*
X259043714Y-91621429D01*
X259116285Y-91500476D01*
X259188857Y-91440000D01*
X259333999Y-91379524D01*
X259696857Y-91379524D01*
X259914571Y-91440000D01*
X260422571Y-91379524D02*
X260785428Y-92649524D01*
X261075714Y-91742381D01*
X261366000Y-92649524D01*
X261728857Y-91379524D01*
X262599714Y-91379524D02*
X262744857Y-91379524D01*
X262890000Y-91440000D01*
X262962571Y-91500476D01*
X263035142Y-91621429D01*
X263107714Y-91863333D01*
X263107714Y-92165714D01*
X263035142Y-92407619D01*
X262962571Y-92528571D01*
X262890000Y-92589048D01*
X262744857Y-92649524D01*
X262599714Y-92649524D01*
X262454571Y-92589048D01*
X262382000Y-92528571D01*
X262309428Y-92407619D01*
X262236857Y-92165714D01*
X262236857Y-91863333D01*
X262309428Y-91621429D01*
X262382000Y-91500476D01*
X262454571Y-91440000D01*
X262599714Y-91379524D01*
X263760857Y-92528571D02*
X263833429Y-92589048D01*
X263760857Y-92649524D01*
X263688286Y-92589048D01*
X263760857Y-92528571D01*
X263760857Y-92649524D01*
X263760857Y-91863333D02*
X263833429Y-91923810D01*
X263760857Y-91984286D01*
X263688286Y-91923810D01*
X263760857Y-91863333D01*
X263760857Y-91984286D01*
X265284857Y-92649524D02*
X264414000Y-92649524D01*
X264849428Y-92649524D02*
X264849428Y-91379524D01*
X264704285Y-91560952D01*
X264559143Y-91681905D01*
X264414000Y-91742381D01*
X265865429Y-91500476D02*
X265938000Y-91440000D01*
X266083143Y-91379524D01*
X266446000Y-91379524D01*
X266591143Y-91440000D01*
X266663714Y-91500476D01*
X266736286Y-91621429D01*
X266736286Y-91742381D01*
X266663714Y-91923810D01*
X265792857Y-92649524D01*
X266736286Y-92649524D01*
X28629429Y-111639048D02*
X28847143Y-111699524D01*
X29210000Y-111699524D01*
X29355143Y-111639048D01*
X29427714Y-111578571D01*
X29500286Y-111457619D01*
X29500286Y-111336667D01*
X29427714Y-111215714D01*
X29355143Y-111155238D01*
X29210000Y-111094762D01*
X28919714Y-111034286D01*
X28774572Y-110973810D01*
X28702000Y-110913333D01*
X28629429Y-110792381D01*
X28629429Y-110671429D01*
X28702000Y-110550476D01*
X28774572Y-110490000D01*
X28919714Y-110429524D01*
X29282572Y-110429524D01*
X29500286Y-110490000D01*
X30008286Y-110429524D02*
X30371143Y-111699524D01*
X30661429Y-110792381D01*
X30951715Y-111699524D01*
X31314572Y-110429524D01*
X32693429Y-111699524D02*
X31822572Y-111699524D01*
X32258000Y-111699524D02*
X32258000Y-110429524D01*
X32112857Y-110610952D01*
X31967715Y-110731905D01*
X31822572Y-110792381D01*
X33346572Y-111578571D02*
X33419144Y-111639048D01*
X33346572Y-111699524D01*
X33274001Y-111639048D01*
X33346572Y-111578571D01*
X33346572Y-111699524D01*
X33346572Y-110913333D02*
X33419144Y-110973810D01*
X33346572Y-111034286D01*
X33274001Y-110973810D01*
X33346572Y-110913333D01*
X33346572Y-111034286D01*
X34362572Y-110429524D02*
X34507715Y-110429524D01*
X34652858Y-110490000D01*
X34725429Y-110550476D01*
X34798000Y-110671429D01*
X34870572Y-110913333D01*
X34870572Y-111215714D01*
X34798000Y-111457619D01*
X34725429Y-111578571D01*
X34652858Y-111639048D01*
X34507715Y-111699524D01*
X34362572Y-111699524D01*
X34217429Y-111639048D01*
X34144858Y-111578571D01*
X34072286Y-111457619D01*
X33999715Y-111215714D01*
X33999715Y-110913333D01*
X34072286Y-110671429D01*
X34144858Y-110550476D01*
X34217429Y-110490000D01*
X34362572Y-110429524D01*
X50219429Y-111639048D02*
X50437143Y-111699524D01*
X50800000Y-111699524D01*
X50945143Y-111639048D01*
X51017714Y-111578571D01*
X51090286Y-111457619D01*
X51090286Y-111336667D01*
X51017714Y-111215714D01*
X50945143Y-111155238D01*
X50800000Y-111094762D01*
X50509714Y-111034286D01*
X50364572Y-110973810D01*
X50292000Y-110913333D01*
X50219429Y-110792381D01*
X50219429Y-110671429D01*
X50292000Y-110550476D01*
X50364572Y-110490000D01*
X50509714Y-110429524D01*
X50872572Y-110429524D01*
X51090286Y-110490000D01*
X51598286Y-110429524D02*
X51961143Y-111699524D01*
X52251429Y-110792381D01*
X52541715Y-111699524D01*
X52904572Y-110429524D01*
X54283429Y-111699524D02*
X53412572Y-111699524D01*
X53848000Y-111699524D02*
X53848000Y-110429524D01*
X53702857Y-110610952D01*
X53557715Y-110731905D01*
X53412572Y-110792381D01*
X54936572Y-111578571D02*
X55009144Y-111639048D01*
X54936572Y-111699524D01*
X54864001Y-111639048D01*
X54936572Y-111578571D01*
X54936572Y-111699524D01*
X54936572Y-110913333D02*
X55009144Y-110973810D01*
X54936572Y-111034286D01*
X54864001Y-110973810D01*
X54936572Y-110913333D01*
X54936572Y-111034286D01*
X56460572Y-111699524D02*
X55589715Y-111699524D01*
X56025143Y-111699524D02*
X56025143Y-110429524D01*
X55880000Y-110610952D01*
X55734858Y-110731905D01*
X55589715Y-110792381D01*
X69269429Y-111639048D02*
X69487143Y-111699524D01*
X69850000Y-111699524D01*
X69995143Y-111639048D01*
X70067714Y-111578571D01*
X70140286Y-111457619D01*
X70140286Y-111336667D01*
X70067714Y-111215714D01*
X69995143Y-111155238D01*
X69850000Y-111094762D01*
X69559714Y-111034286D01*
X69414572Y-110973810D01*
X69342000Y-110913333D01*
X69269429Y-110792381D01*
X69269429Y-110671429D01*
X69342000Y-110550476D01*
X69414572Y-110490000D01*
X69559714Y-110429524D01*
X69922572Y-110429524D01*
X70140286Y-110490000D01*
X70648286Y-110429524D02*
X71011143Y-111699524D01*
X71301429Y-110792381D01*
X71591715Y-111699524D01*
X71954572Y-110429524D01*
X73333429Y-111699524D02*
X72462572Y-111699524D01*
X72898000Y-111699524D02*
X72898000Y-110429524D01*
X72752857Y-110610952D01*
X72607715Y-110731905D01*
X72462572Y-110792381D01*
X73986572Y-111578571D02*
X74059144Y-111639048D01*
X73986572Y-111699524D01*
X73914001Y-111639048D01*
X73986572Y-111578571D01*
X73986572Y-111699524D01*
X73986572Y-110913333D02*
X74059144Y-110973810D01*
X73986572Y-111034286D01*
X73914001Y-110973810D01*
X73986572Y-110913333D01*
X73986572Y-111034286D01*
X74639715Y-110550476D02*
X74712286Y-110490000D01*
X74857429Y-110429524D01*
X75220286Y-110429524D01*
X75365429Y-110490000D01*
X75438000Y-110550476D01*
X75510572Y-110671429D01*
X75510572Y-110792381D01*
X75438000Y-110973810D01*
X74567143Y-111699524D01*
X75510572Y-111699524D01*
X88319429Y-111639048D02*
X88537143Y-111699524D01*
X88900000Y-111699524D01*
X89045143Y-111639048D01*
X89117714Y-111578571D01*
X89190286Y-111457619D01*
X89190286Y-111336667D01*
X89117714Y-111215714D01*
X89045143Y-111155238D01*
X88900000Y-111094762D01*
X88609714Y-111034286D01*
X88464572Y-110973810D01*
X88392000Y-110913333D01*
X88319429Y-110792381D01*
X88319429Y-110671429D01*
X88392000Y-110550476D01*
X88464572Y-110490000D01*
X88609714Y-110429524D01*
X88972572Y-110429524D01*
X89190286Y-110490000D01*
X89698286Y-110429524D02*
X90061143Y-111699524D01*
X90351429Y-110792381D01*
X90641715Y-111699524D01*
X91004572Y-110429524D01*
X92383429Y-111699524D02*
X91512572Y-111699524D01*
X91948000Y-111699524D02*
X91948000Y-110429524D01*
X91802857Y-110610952D01*
X91657715Y-110731905D01*
X91512572Y-110792381D01*
X93036572Y-111578571D02*
X93109144Y-111639048D01*
X93036572Y-111699524D01*
X92964001Y-111639048D01*
X93036572Y-111578571D01*
X93036572Y-111699524D01*
X93036572Y-110913333D02*
X93109144Y-110973810D01*
X93036572Y-111034286D01*
X92964001Y-110973810D01*
X93036572Y-110913333D01*
X93036572Y-111034286D01*
X93617143Y-110429524D02*
X94560572Y-110429524D01*
X94052572Y-110913333D01*
X94270286Y-110913333D01*
X94415429Y-110973810D01*
X94488000Y-111034286D01*
X94560572Y-111155238D01*
X94560572Y-111457619D01*
X94488000Y-111578571D01*
X94415429Y-111639048D01*
X94270286Y-111699524D01*
X93834858Y-111699524D01*
X93689715Y-111639048D01*
X93617143Y-111578571D01*
X107369429Y-111639048D02*
X107587143Y-111699524D01*
X107950000Y-111699524D01*
X108095143Y-111639048D01*
X108167714Y-111578571D01*
X108240286Y-111457619D01*
X108240286Y-111336667D01*
X108167714Y-111215714D01*
X108095143Y-111155238D01*
X107950000Y-111094762D01*
X107659714Y-111034286D01*
X107514572Y-110973810D01*
X107442000Y-110913333D01*
X107369429Y-110792381D01*
X107369429Y-110671429D01*
X107442000Y-110550476D01*
X107514572Y-110490000D01*
X107659714Y-110429524D01*
X108022572Y-110429524D01*
X108240286Y-110490000D01*
X108748286Y-110429524D02*
X109111143Y-111699524D01*
X109401429Y-110792381D01*
X109691715Y-111699524D01*
X110054572Y-110429524D01*
X111433429Y-111699524D02*
X110562572Y-111699524D01*
X110998000Y-111699524D02*
X110998000Y-110429524D01*
X110852857Y-110610952D01*
X110707715Y-110731905D01*
X110562572Y-110792381D01*
X112086572Y-111578571D02*
X112159144Y-111639048D01*
X112086572Y-111699524D01*
X112014001Y-111639048D01*
X112086572Y-111578571D01*
X112086572Y-111699524D01*
X112086572Y-110913333D02*
X112159144Y-110973810D01*
X112086572Y-111034286D01*
X112014001Y-110973810D01*
X112086572Y-110913333D01*
X112086572Y-111034286D01*
X113465429Y-110852857D02*
X113465429Y-111699524D01*
X113102572Y-110369048D02*
X112739715Y-111276190D01*
X113683143Y-111276190D01*
X126419429Y-111639048D02*
X126637143Y-111699524D01*
X127000000Y-111699524D01*
X127145143Y-111639048D01*
X127217714Y-111578571D01*
X127290286Y-111457619D01*
X127290286Y-111336667D01*
X127217714Y-111215714D01*
X127145143Y-111155238D01*
X127000000Y-111094762D01*
X126709714Y-111034286D01*
X126564572Y-110973810D01*
X126492000Y-110913333D01*
X126419429Y-110792381D01*
X126419429Y-110671429D01*
X126492000Y-110550476D01*
X126564572Y-110490000D01*
X126709714Y-110429524D01*
X127072572Y-110429524D01*
X127290286Y-110490000D01*
X127798286Y-110429524D02*
X128161143Y-111699524D01*
X128451429Y-110792381D01*
X128741715Y-111699524D01*
X129104572Y-110429524D01*
X130483429Y-111699524D02*
X129612572Y-111699524D01*
X130048000Y-111699524D02*
X130048000Y-110429524D01*
X129902857Y-110610952D01*
X129757715Y-110731905D01*
X129612572Y-110792381D01*
X131136572Y-111578571D02*
X131209144Y-111639048D01*
X131136572Y-111699524D01*
X131064001Y-111639048D01*
X131136572Y-111578571D01*
X131136572Y-111699524D01*
X131136572Y-110913333D02*
X131209144Y-110973810D01*
X131136572Y-111034286D01*
X131064001Y-110973810D01*
X131136572Y-110913333D01*
X131136572Y-111034286D01*
X132588000Y-110429524D02*
X131862286Y-110429524D01*
X131789715Y-111034286D01*
X131862286Y-110973810D01*
X132007429Y-110913333D01*
X132370286Y-110913333D01*
X132515429Y-110973810D01*
X132588000Y-111034286D01*
X132660572Y-111155238D01*
X132660572Y-111457619D01*
X132588000Y-111578571D01*
X132515429Y-111639048D01*
X132370286Y-111699524D01*
X132007429Y-111699524D01*
X131862286Y-111639048D01*
X131789715Y-111578571D01*
X145469429Y-111639048D02*
X145687143Y-111699524D01*
X146050000Y-111699524D01*
X146195143Y-111639048D01*
X146267714Y-111578571D01*
X146340286Y-111457619D01*
X146340286Y-111336667D01*
X146267714Y-111215714D01*
X146195143Y-111155238D01*
X146050000Y-111094762D01*
X145759714Y-111034286D01*
X145614572Y-110973810D01*
X145542000Y-110913333D01*
X145469429Y-110792381D01*
X145469429Y-110671429D01*
X145542000Y-110550476D01*
X145614572Y-110490000D01*
X145759714Y-110429524D01*
X146122572Y-110429524D01*
X146340286Y-110490000D01*
X146848286Y-110429524D02*
X147211143Y-111699524D01*
X147501429Y-110792381D01*
X147791715Y-111699524D01*
X148154572Y-110429524D01*
X149533429Y-111699524D02*
X148662572Y-111699524D01*
X149098000Y-111699524D02*
X149098000Y-110429524D01*
X148952857Y-110610952D01*
X148807715Y-110731905D01*
X148662572Y-110792381D01*
X150186572Y-111578571D02*
X150259144Y-111639048D01*
X150186572Y-111699524D01*
X150114001Y-111639048D01*
X150186572Y-111578571D01*
X150186572Y-111699524D01*
X150186572Y-110913333D02*
X150259144Y-110973810D01*
X150186572Y-111034286D01*
X150114001Y-110973810D01*
X150186572Y-110913333D01*
X150186572Y-111034286D01*
X151565429Y-110429524D02*
X151275143Y-110429524D01*
X151130000Y-110490000D01*
X151057429Y-110550476D01*
X150912286Y-110731905D01*
X150839715Y-110973810D01*
X150839715Y-111457619D01*
X150912286Y-111578571D01*
X150984858Y-111639048D01*
X151130000Y-111699524D01*
X151420286Y-111699524D01*
X151565429Y-111639048D01*
X151638000Y-111578571D01*
X151710572Y-111457619D01*
X151710572Y-111155238D01*
X151638000Y-111034286D01*
X151565429Y-110973810D01*
X151420286Y-110913333D01*
X151130000Y-110913333D01*
X150984858Y-110973810D01*
X150912286Y-111034286D01*
X150839715Y-111155238D01*
X164519429Y-111639048D02*
X164737143Y-111699524D01*
X165100000Y-111699524D01*
X165245143Y-111639048D01*
X165317714Y-111578571D01*
X165390286Y-111457619D01*
X165390286Y-111336667D01*
X165317714Y-111215714D01*
X165245143Y-111155238D01*
X165100000Y-111094762D01*
X164809714Y-111034286D01*
X164664572Y-110973810D01*
X164592000Y-110913333D01*
X164519429Y-110792381D01*
X164519429Y-110671429D01*
X164592000Y-110550476D01*
X164664572Y-110490000D01*
X164809714Y-110429524D01*
X165172572Y-110429524D01*
X165390286Y-110490000D01*
X165898286Y-110429524D02*
X166261143Y-111699524D01*
X166551429Y-110792381D01*
X166841715Y-111699524D01*
X167204572Y-110429524D01*
X168583429Y-111699524D02*
X167712572Y-111699524D01*
X168148000Y-111699524D02*
X168148000Y-110429524D01*
X168002857Y-110610952D01*
X167857715Y-110731905D01*
X167712572Y-110792381D01*
X169236572Y-111578571D02*
X169309144Y-111639048D01*
X169236572Y-111699524D01*
X169164001Y-111639048D01*
X169236572Y-111578571D01*
X169236572Y-111699524D01*
X169236572Y-110913333D02*
X169309144Y-110973810D01*
X169236572Y-111034286D01*
X169164001Y-110973810D01*
X169236572Y-110913333D01*
X169236572Y-111034286D01*
X169817143Y-110429524D02*
X170833143Y-110429524D01*
X170180000Y-111699524D01*
X183569429Y-111639048D02*
X183787143Y-111699524D01*
X184150000Y-111699524D01*
X184295143Y-111639048D01*
X184367714Y-111578571D01*
X184440286Y-111457619D01*
X184440286Y-111336667D01*
X184367714Y-111215714D01*
X184295143Y-111155238D01*
X184150000Y-111094762D01*
X183859714Y-111034286D01*
X183714572Y-110973810D01*
X183642000Y-110913333D01*
X183569429Y-110792381D01*
X183569429Y-110671429D01*
X183642000Y-110550476D01*
X183714572Y-110490000D01*
X183859714Y-110429524D01*
X184222572Y-110429524D01*
X184440286Y-110490000D01*
X184948286Y-110429524D02*
X185311143Y-111699524D01*
X185601429Y-110792381D01*
X185891715Y-111699524D01*
X186254572Y-110429524D01*
X187633429Y-111699524D02*
X186762572Y-111699524D01*
X187198000Y-111699524D02*
X187198000Y-110429524D01*
X187052857Y-110610952D01*
X186907715Y-110731905D01*
X186762572Y-110792381D01*
X188286572Y-111578571D02*
X188359144Y-111639048D01*
X188286572Y-111699524D01*
X188214001Y-111639048D01*
X188286572Y-111578571D01*
X188286572Y-111699524D01*
X188286572Y-110913333D02*
X188359144Y-110973810D01*
X188286572Y-111034286D01*
X188214001Y-110973810D01*
X188286572Y-110913333D01*
X188286572Y-111034286D01*
X189230000Y-110973810D02*
X189084858Y-110913333D01*
X189012286Y-110852857D01*
X188939715Y-110731905D01*
X188939715Y-110671429D01*
X189012286Y-110550476D01*
X189084858Y-110490000D01*
X189230000Y-110429524D01*
X189520286Y-110429524D01*
X189665429Y-110490000D01*
X189738000Y-110550476D01*
X189810572Y-110671429D01*
X189810572Y-110731905D01*
X189738000Y-110852857D01*
X189665429Y-110913333D01*
X189520286Y-110973810D01*
X189230000Y-110973810D01*
X189084858Y-111034286D01*
X189012286Y-111094762D01*
X188939715Y-111215714D01*
X188939715Y-111457619D01*
X189012286Y-111578571D01*
X189084858Y-111639048D01*
X189230000Y-111699524D01*
X189520286Y-111699524D01*
X189665429Y-111639048D01*
X189738000Y-111578571D01*
X189810572Y-111457619D01*
X189810572Y-111215714D01*
X189738000Y-111094762D01*
X189665429Y-111034286D01*
X189520286Y-110973810D01*
X202619429Y-111639048D02*
X202837143Y-111699524D01*
X203200000Y-111699524D01*
X203345143Y-111639048D01*
X203417714Y-111578571D01*
X203490286Y-111457619D01*
X203490286Y-111336667D01*
X203417714Y-111215714D01*
X203345143Y-111155238D01*
X203200000Y-111094762D01*
X202909714Y-111034286D01*
X202764572Y-110973810D01*
X202692000Y-110913333D01*
X202619429Y-110792381D01*
X202619429Y-110671429D01*
X202692000Y-110550476D01*
X202764572Y-110490000D01*
X202909714Y-110429524D01*
X203272572Y-110429524D01*
X203490286Y-110490000D01*
X203998286Y-110429524D02*
X204361143Y-111699524D01*
X204651429Y-110792381D01*
X204941715Y-111699524D01*
X205304572Y-110429524D01*
X206683429Y-111699524D02*
X205812572Y-111699524D01*
X206248000Y-111699524D02*
X206248000Y-110429524D01*
X206102857Y-110610952D01*
X205957715Y-110731905D01*
X205812572Y-110792381D01*
X207336572Y-111578571D02*
X207409144Y-111639048D01*
X207336572Y-111699524D01*
X207264001Y-111639048D01*
X207336572Y-111578571D01*
X207336572Y-111699524D01*
X207336572Y-110913333D02*
X207409144Y-110973810D01*
X207336572Y-111034286D01*
X207264001Y-110973810D01*
X207336572Y-110913333D01*
X207336572Y-111034286D01*
X208134858Y-111699524D02*
X208425143Y-111699524D01*
X208570286Y-111639048D01*
X208642858Y-111578571D01*
X208788000Y-111397143D01*
X208860572Y-111155238D01*
X208860572Y-110671429D01*
X208788000Y-110550476D01*
X208715429Y-110490000D01*
X208570286Y-110429524D01*
X208280000Y-110429524D01*
X208134858Y-110490000D01*
X208062286Y-110550476D01*
X207989715Y-110671429D01*
X207989715Y-110973810D01*
X208062286Y-111094762D01*
X208134858Y-111155238D01*
X208280000Y-111215714D01*
X208570286Y-111215714D01*
X208715429Y-111155238D01*
X208788000Y-111094762D01*
X208860572Y-110973810D01*
X220943714Y-111639048D02*
X221161428Y-111699524D01*
X221524285Y-111699524D01*
X221669428Y-111639048D01*
X221741999Y-111578571D01*
X221814571Y-111457619D01*
X221814571Y-111336667D01*
X221741999Y-111215714D01*
X221669428Y-111155238D01*
X221524285Y-111094762D01*
X221233999Y-111034286D01*
X221088857Y-110973810D01*
X221016285Y-110913333D01*
X220943714Y-110792381D01*
X220943714Y-110671429D01*
X221016285Y-110550476D01*
X221088857Y-110490000D01*
X221233999Y-110429524D01*
X221596857Y-110429524D01*
X221814571Y-110490000D01*
X222322571Y-110429524D02*
X222685428Y-111699524D01*
X222975714Y-110792381D01*
X223266000Y-111699524D01*
X223628857Y-110429524D01*
X225007714Y-111699524D02*
X224136857Y-111699524D01*
X224572285Y-111699524D02*
X224572285Y-110429524D01*
X224427142Y-110610952D01*
X224282000Y-110731905D01*
X224136857Y-110792381D01*
X225660857Y-111578571D02*
X225733429Y-111639048D01*
X225660857Y-111699524D01*
X225588286Y-111639048D01*
X225660857Y-111578571D01*
X225660857Y-111699524D01*
X225660857Y-110913333D02*
X225733429Y-110973810D01*
X225660857Y-111034286D01*
X225588286Y-110973810D01*
X225660857Y-110913333D01*
X225660857Y-111034286D01*
X227184857Y-111699524D02*
X226314000Y-111699524D01*
X226749428Y-111699524D02*
X226749428Y-110429524D01*
X226604285Y-110610952D01*
X226459143Y-110731905D01*
X226314000Y-110792381D01*
X228128286Y-110429524D02*
X228273429Y-110429524D01*
X228418572Y-110490000D01*
X228491143Y-110550476D01*
X228563714Y-110671429D01*
X228636286Y-110913333D01*
X228636286Y-111215714D01*
X228563714Y-111457619D01*
X228491143Y-111578571D01*
X228418572Y-111639048D01*
X228273429Y-111699524D01*
X228128286Y-111699524D01*
X227983143Y-111639048D01*
X227910572Y-111578571D01*
X227838000Y-111457619D01*
X227765429Y-111215714D01*
X227765429Y-110913333D01*
X227838000Y-110671429D01*
X227910572Y-110550476D01*
X227983143Y-110490000D01*
X228128286Y-110429524D01*
X251423714Y-111639048D02*
X251641428Y-111699524D01*
X252004285Y-111699524D01*
X252149428Y-111639048D01*
X252221999Y-111578571D01*
X252294571Y-111457619D01*
X252294571Y-111336667D01*
X252221999Y-111215714D01*
X252149428Y-111155238D01*
X252004285Y-111094762D01*
X251713999Y-111034286D01*
X251568857Y-110973810D01*
X251496285Y-110913333D01*
X251423714Y-110792381D01*
X251423714Y-110671429D01*
X251496285Y-110550476D01*
X251568857Y-110490000D01*
X251713999Y-110429524D01*
X252076857Y-110429524D01*
X252294571Y-110490000D01*
X252802571Y-110429524D02*
X253165428Y-111699524D01*
X253455714Y-110792381D01*
X253746000Y-111699524D01*
X254108857Y-110429524D01*
X255487714Y-111699524D02*
X254616857Y-111699524D01*
X255052285Y-111699524D02*
X255052285Y-110429524D01*
X254907142Y-110610952D01*
X254762000Y-110731905D01*
X254616857Y-110792381D01*
X256140857Y-111578571D02*
X256213429Y-111639048D01*
X256140857Y-111699524D01*
X256068286Y-111639048D01*
X256140857Y-111578571D01*
X256140857Y-111699524D01*
X256140857Y-110913333D02*
X256213429Y-110973810D01*
X256140857Y-111034286D01*
X256068286Y-110973810D01*
X256140857Y-110913333D01*
X256140857Y-111034286D01*
X257664857Y-111699524D02*
X256794000Y-111699524D01*
X257229428Y-111699524D02*
X257229428Y-110429524D01*
X257084285Y-110610952D01*
X256939143Y-110731905D01*
X256794000Y-110792381D01*
X259116286Y-111699524D02*
X258245429Y-111699524D01*
X258680857Y-111699524D02*
X258680857Y-110429524D01*
X258535714Y-110610952D01*
X258390572Y-110731905D01*
X258245429Y-110792381D01*
X33709429Y-130689048D02*
X33927143Y-130749524D01*
X34290000Y-130749524D01*
X34435143Y-130689048D01*
X34507714Y-130628571D01*
X34580286Y-130507619D01*
X34580286Y-130386667D01*
X34507714Y-130265714D01*
X34435143Y-130205238D01*
X34290000Y-130144762D01*
X33999714Y-130084286D01*
X33854572Y-130023810D01*
X33782000Y-129963333D01*
X33709429Y-129842381D01*
X33709429Y-129721429D01*
X33782000Y-129600476D01*
X33854572Y-129540000D01*
X33999714Y-129479524D01*
X34362572Y-129479524D01*
X34580286Y-129540000D01*
X35088286Y-129479524D02*
X35451143Y-130749524D01*
X35741429Y-129842381D01*
X36031715Y-130749524D01*
X36394572Y-129479524D01*
X36902572Y-129600476D02*
X36975143Y-129540000D01*
X37120286Y-129479524D01*
X37483143Y-129479524D01*
X37628286Y-129540000D01*
X37700857Y-129600476D01*
X37773429Y-129721429D01*
X37773429Y-129842381D01*
X37700857Y-130023810D01*
X36830000Y-130749524D01*
X37773429Y-130749524D01*
X38426572Y-130628571D02*
X38499144Y-130689048D01*
X38426572Y-130749524D01*
X38354001Y-130689048D01*
X38426572Y-130628571D01*
X38426572Y-130749524D01*
X38426572Y-129963333D02*
X38499144Y-130023810D01*
X38426572Y-130084286D01*
X38354001Y-130023810D01*
X38426572Y-129963333D01*
X38426572Y-130084286D01*
X39442572Y-129479524D02*
X39587715Y-129479524D01*
X39732858Y-129540000D01*
X39805429Y-129600476D01*
X39878000Y-129721429D01*
X39950572Y-129963333D01*
X39950572Y-130265714D01*
X39878000Y-130507619D01*
X39805429Y-130628571D01*
X39732858Y-130689048D01*
X39587715Y-130749524D01*
X39442572Y-130749524D01*
X39297429Y-130689048D01*
X39224858Y-130628571D01*
X39152286Y-130507619D01*
X39079715Y-130265714D01*
X39079715Y-129963333D01*
X39152286Y-129721429D01*
X39224858Y-129600476D01*
X39297429Y-129540000D01*
X39442572Y-129479524D01*
X59109429Y-130689048D02*
X59327143Y-130749524D01*
X59690000Y-130749524D01*
X59835143Y-130689048D01*
X59907714Y-130628571D01*
X59980286Y-130507619D01*
X59980286Y-130386667D01*
X59907714Y-130265714D01*
X59835143Y-130205238D01*
X59690000Y-130144762D01*
X59399714Y-130084286D01*
X59254572Y-130023810D01*
X59182000Y-129963333D01*
X59109429Y-129842381D01*
X59109429Y-129721429D01*
X59182000Y-129600476D01*
X59254572Y-129540000D01*
X59399714Y-129479524D01*
X59762572Y-129479524D01*
X59980286Y-129540000D01*
X60488286Y-129479524D02*
X60851143Y-130749524D01*
X61141429Y-129842381D01*
X61431715Y-130749524D01*
X61794572Y-129479524D01*
X62302572Y-129600476D02*
X62375143Y-129540000D01*
X62520286Y-129479524D01*
X62883143Y-129479524D01*
X63028286Y-129540000D01*
X63100857Y-129600476D01*
X63173429Y-129721429D01*
X63173429Y-129842381D01*
X63100857Y-130023810D01*
X62230000Y-130749524D01*
X63173429Y-130749524D01*
X63826572Y-130628571D02*
X63899144Y-130689048D01*
X63826572Y-130749524D01*
X63754001Y-130689048D01*
X63826572Y-130628571D01*
X63826572Y-130749524D01*
X63826572Y-129963333D02*
X63899144Y-130023810D01*
X63826572Y-130084286D01*
X63754001Y-130023810D01*
X63826572Y-129963333D01*
X63826572Y-130084286D01*
X65350572Y-130749524D02*
X64479715Y-130749524D01*
X64915143Y-130749524D02*
X64915143Y-129479524D01*
X64770000Y-129660952D01*
X64624858Y-129781905D01*
X64479715Y-129842381D01*
X78159429Y-130689048D02*
X78377143Y-130749524D01*
X78740000Y-130749524D01*
X78885143Y-130689048D01*
X78957714Y-130628571D01*
X79030286Y-130507619D01*
X79030286Y-130386667D01*
X78957714Y-130265714D01*
X78885143Y-130205238D01*
X78740000Y-130144762D01*
X78449714Y-130084286D01*
X78304572Y-130023810D01*
X78232000Y-129963333D01*
X78159429Y-129842381D01*
X78159429Y-129721429D01*
X78232000Y-129600476D01*
X78304572Y-129540000D01*
X78449714Y-129479524D01*
X78812572Y-129479524D01*
X79030286Y-129540000D01*
X79538286Y-129479524D02*
X79901143Y-130749524D01*
X80191429Y-129842381D01*
X80481715Y-130749524D01*
X80844572Y-129479524D01*
X81352572Y-129600476D02*
X81425143Y-129540000D01*
X81570286Y-129479524D01*
X81933143Y-129479524D01*
X82078286Y-129540000D01*
X82150857Y-129600476D01*
X82223429Y-129721429D01*
X82223429Y-129842381D01*
X82150857Y-130023810D01*
X81280000Y-130749524D01*
X82223429Y-130749524D01*
X82876572Y-130628571D02*
X82949144Y-130689048D01*
X82876572Y-130749524D01*
X82804001Y-130689048D01*
X82876572Y-130628571D01*
X82876572Y-130749524D01*
X82876572Y-129963333D02*
X82949144Y-130023810D01*
X82876572Y-130084286D01*
X82804001Y-130023810D01*
X82876572Y-129963333D01*
X82876572Y-130084286D01*
X83529715Y-129600476D02*
X83602286Y-129540000D01*
X83747429Y-129479524D01*
X84110286Y-129479524D01*
X84255429Y-129540000D01*
X84328000Y-129600476D01*
X84400572Y-129721429D01*
X84400572Y-129842381D01*
X84328000Y-130023810D01*
X83457143Y-130749524D01*
X84400572Y-130749524D01*
X97209429Y-130689048D02*
X97427143Y-130749524D01*
X97790000Y-130749524D01*
X97935143Y-130689048D01*
X98007714Y-130628571D01*
X98080286Y-130507619D01*
X98080286Y-130386667D01*
X98007714Y-130265714D01*
X97935143Y-130205238D01*
X97790000Y-130144762D01*
X97499714Y-130084286D01*
X97354572Y-130023810D01*
X97282000Y-129963333D01*
X97209429Y-129842381D01*
X97209429Y-129721429D01*
X97282000Y-129600476D01*
X97354572Y-129540000D01*
X97499714Y-129479524D01*
X97862572Y-129479524D01*
X98080286Y-129540000D01*
X98588286Y-129479524D02*
X98951143Y-130749524D01*
X99241429Y-129842381D01*
X99531715Y-130749524D01*
X99894572Y-129479524D01*
X100402572Y-129600476D02*
X100475143Y-129540000D01*
X100620286Y-129479524D01*
X100983143Y-129479524D01*
X101128286Y-129540000D01*
X101200857Y-129600476D01*
X101273429Y-129721429D01*
X101273429Y-129842381D01*
X101200857Y-130023810D01*
X100330000Y-130749524D01*
X101273429Y-130749524D01*
X101926572Y-130628571D02*
X101999144Y-130689048D01*
X101926572Y-130749524D01*
X101854001Y-130689048D01*
X101926572Y-130628571D01*
X101926572Y-130749524D01*
X101926572Y-129963333D02*
X101999144Y-130023810D01*
X101926572Y-130084286D01*
X101854001Y-130023810D01*
X101926572Y-129963333D01*
X101926572Y-130084286D01*
X102507143Y-129479524D02*
X103450572Y-129479524D01*
X102942572Y-129963333D01*
X103160286Y-129963333D01*
X103305429Y-130023810D01*
X103378000Y-130084286D01*
X103450572Y-130205238D01*
X103450572Y-130507619D01*
X103378000Y-130628571D01*
X103305429Y-130689048D01*
X103160286Y-130749524D01*
X102724858Y-130749524D01*
X102579715Y-130689048D01*
X102507143Y-130628571D01*
X116259429Y-130689048D02*
X116477143Y-130749524D01*
X116840000Y-130749524D01*
X116985143Y-130689048D01*
X117057714Y-130628571D01*
X117130286Y-130507619D01*
X117130286Y-130386667D01*
X117057714Y-130265714D01*
X116985143Y-130205238D01*
X116840000Y-130144762D01*
X116549714Y-130084286D01*
X116404572Y-130023810D01*
X116332000Y-129963333D01*
X116259429Y-129842381D01*
X116259429Y-129721429D01*
X116332000Y-129600476D01*
X116404572Y-129540000D01*
X116549714Y-129479524D01*
X116912572Y-129479524D01*
X117130286Y-129540000D01*
X117638286Y-129479524D02*
X118001143Y-130749524D01*
X118291429Y-129842381D01*
X118581715Y-130749524D01*
X118944572Y-129479524D01*
X119452572Y-129600476D02*
X119525143Y-129540000D01*
X119670286Y-129479524D01*
X120033143Y-129479524D01*
X120178286Y-129540000D01*
X120250857Y-129600476D01*
X120323429Y-129721429D01*
X120323429Y-129842381D01*
X120250857Y-130023810D01*
X119380000Y-130749524D01*
X120323429Y-130749524D01*
X120976572Y-130628571D02*
X121049144Y-130689048D01*
X120976572Y-130749524D01*
X120904001Y-130689048D01*
X120976572Y-130628571D01*
X120976572Y-130749524D01*
X120976572Y-129963333D02*
X121049144Y-130023810D01*
X120976572Y-130084286D01*
X120904001Y-130023810D01*
X120976572Y-129963333D01*
X120976572Y-130084286D01*
X122355429Y-129902857D02*
X122355429Y-130749524D01*
X121992572Y-129419048D02*
X121629715Y-130326190D01*
X122573143Y-130326190D01*
X135309429Y-130689048D02*
X135527143Y-130749524D01*
X135890000Y-130749524D01*
X136035143Y-130689048D01*
X136107714Y-130628571D01*
X136180286Y-130507619D01*
X136180286Y-130386667D01*
X136107714Y-130265714D01*
X136035143Y-130205238D01*
X135890000Y-130144762D01*
X135599714Y-130084286D01*
X135454572Y-130023810D01*
X135382000Y-129963333D01*
X135309429Y-129842381D01*
X135309429Y-129721429D01*
X135382000Y-129600476D01*
X135454572Y-129540000D01*
X135599714Y-129479524D01*
X135962572Y-129479524D01*
X136180286Y-129540000D01*
X136688286Y-129479524D02*
X137051143Y-130749524D01*
X137341429Y-129842381D01*
X137631715Y-130749524D01*
X137994572Y-129479524D01*
X138502572Y-129600476D02*
X138575143Y-129540000D01*
X138720286Y-129479524D01*
X139083143Y-129479524D01*
X139228286Y-129540000D01*
X139300857Y-129600476D01*
X139373429Y-129721429D01*
X139373429Y-129842381D01*
X139300857Y-130023810D01*
X138430000Y-130749524D01*
X139373429Y-130749524D01*
X140026572Y-130628571D02*
X140099144Y-130689048D01*
X140026572Y-130749524D01*
X139954001Y-130689048D01*
X140026572Y-130628571D01*
X140026572Y-130749524D01*
X140026572Y-129963333D02*
X140099144Y-130023810D01*
X140026572Y-130084286D01*
X139954001Y-130023810D01*
X140026572Y-129963333D01*
X140026572Y-130084286D01*
X141478000Y-129479524D02*
X140752286Y-129479524D01*
X140679715Y-130084286D01*
X140752286Y-130023810D01*
X140897429Y-129963333D01*
X141260286Y-129963333D01*
X141405429Y-130023810D01*
X141478000Y-130084286D01*
X141550572Y-130205238D01*
X141550572Y-130507619D01*
X141478000Y-130628571D01*
X141405429Y-130689048D01*
X141260286Y-130749524D01*
X140897429Y-130749524D01*
X140752286Y-130689048D01*
X140679715Y-130628571D01*
X154359429Y-130689048D02*
X154577143Y-130749524D01*
X154940000Y-130749524D01*
X155085143Y-130689048D01*
X155157714Y-130628571D01*
X155230286Y-130507619D01*
X155230286Y-130386667D01*
X155157714Y-130265714D01*
X155085143Y-130205238D01*
X154940000Y-130144762D01*
X154649714Y-130084286D01*
X154504572Y-130023810D01*
X154432000Y-129963333D01*
X154359429Y-129842381D01*
X154359429Y-129721429D01*
X154432000Y-129600476D01*
X154504572Y-129540000D01*
X154649714Y-129479524D01*
X155012572Y-129479524D01*
X155230286Y-129540000D01*
X155738286Y-129479524D02*
X156101143Y-130749524D01*
X156391429Y-129842381D01*
X156681715Y-130749524D01*
X157044572Y-129479524D01*
X157552572Y-129600476D02*
X157625143Y-129540000D01*
X157770286Y-129479524D01*
X158133143Y-129479524D01*
X158278286Y-129540000D01*
X158350857Y-129600476D01*
X158423429Y-129721429D01*
X158423429Y-129842381D01*
X158350857Y-130023810D01*
X157480000Y-130749524D01*
X158423429Y-130749524D01*
X159076572Y-130628571D02*
X159149144Y-130689048D01*
X159076572Y-130749524D01*
X159004001Y-130689048D01*
X159076572Y-130628571D01*
X159076572Y-130749524D01*
X159076572Y-129963333D02*
X159149144Y-130023810D01*
X159076572Y-130084286D01*
X159004001Y-130023810D01*
X159076572Y-129963333D01*
X159076572Y-130084286D01*
X160455429Y-129479524D02*
X160165143Y-129479524D01*
X160020000Y-129540000D01*
X159947429Y-129600476D01*
X159802286Y-129781905D01*
X159729715Y-130023810D01*
X159729715Y-130507619D01*
X159802286Y-130628571D01*
X159874858Y-130689048D01*
X160020000Y-130749524D01*
X160310286Y-130749524D01*
X160455429Y-130689048D01*
X160528000Y-130628571D01*
X160600572Y-130507619D01*
X160600572Y-130205238D01*
X160528000Y-130084286D01*
X160455429Y-130023810D01*
X160310286Y-129963333D01*
X160020000Y-129963333D01*
X159874858Y-130023810D01*
X159802286Y-130084286D01*
X159729715Y-130205238D01*
X173409429Y-130689048D02*
X173627143Y-130749524D01*
X173990000Y-130749524D01*
X174135143Y-130689048D01*
X174207714Y-130628571D01*
X174280286Y-130507619D01*
X174280286Y-130386667D01*
X174207714Y-130265714D01*
X174135143Y-130205238D01*
X173990000Y-130144762D01*
X173699714Y-130084286D01*
X173554572Y-130023810D01*
X173482000Y-129963333D01*
X173409429Y-129842381D01*
X173409429Y-129721429D01*
X173482000Y-129600476D01*
X173554572Y-129540000D01*
X173699714Y-129479524D01*
X174062572Y-129479524D01*
X174280286Y-129540000D01*
X174788286Y-129479524D02*
X175151143Y-130749524D01*
X175441429Y-129842381D01*
X175731715Y-130749524D01*
X176094572Y-129479524D01*
X176602572Y-129600476D02*
X176675143Y-129540000D01*
X176820286Y-129479524D01*
X177183143Y-129479524D01*
X177328286Y-129540000D01*
X177400857Y-129600476D01*
X177473429Y-129721429D01*
X177473429Y-129842381D01*
X177400857Y-130023810D01*
X176530000Y-130749524D01*
X177473429Y-130749524D01*
X178126572Y-130628571D02*
X178199144Y-130689048D01*
X178126572Y-130749524D01*
X178054001Y-130689048D01*
X178126572Y-130628571D01*
X178126572Y-130749524D01*
X178126572Y-129963333D02*
X178199144Y-130023810D01*
X178126572Y-130084286D01*
X178054001Y-130023810D01*
X178126572Y-129963333D01*
X178126572Y-130084286D01*
X178707143Y-129479524D02*
X179723143Y-129479524D01*
X179070000Y-130749524D01*
X192459429Y-130689048D02*
X192677143Y-130749524D01*
X193040000Y-130749524D01*
X193185143Y-130689048D01*
X193257714Y-130628571D01*
X193330286Y-130507619D01*
X193330286Y-130386667D01*
X193257714Y-130265714D01*
X193185143Y-130205238D01*
X193040000Y-130144762D01*
X192749714Y-130084286D01*
X192604572Y-130023810D01*
X192532000Y-129963333D01*
X192459429Y-129842381D01*
X192459429Y-129721429D01*
X192532000Y-129600476D01*
X192604572Y-129540000D01*
X192749714Y-129479524D01*
X193112572Y-129479524D01*
X193330286Y-129540000D01*
X193838286Y-129479524D02*
X194201143Y-130749524D01*
X194491429Y-129842381D01*
X194781715Y-130749524D01*
X195144572Y-129479524D01*
X195652572Y-129600476D02*
X195725143Y-129540000D01*
X195870286Y-129479524D01*
X196233143Y-129479524D01*
X196378286Y-129540000D01*
X196450857Y-129600476D01*
X196523429Y-129721429D01*
X196523429Y-129842381D01*
X196450857Y-130023810D01*
X195580000Y-130749524D01*
X196523429Y-130749524D01*
X197176572Y-130628571D02*
X197249144Y-130689048D01*
X197176572Y-130749524D01*
X197104001Y-130689048D01*
X197176572Y-130628571D01*
X197176572Y-130749524D01*
X197176572Y-129963333D02*
X197249144Y-130023810D01*
X197176572Y-130084286D01*
X197104001Y-130023810D01*
X197176572Y-129963333D01*
X197176572Y-130084286D01*
X198120000Y-130023810D02*
X197974858Y-129963333D01*
X197902286Y-129902857D01*
X197829715Y-129781905D01*
X197829715Y-129721429D01*
X197902286Y-129600476D01*
X197974858Y-129540000D01*
X198120000Y-129479524D01*
X198410286Y-129479524D01*
X198555429Y-129540000D01*
X198628000Y-129600476D01*
X198700572Y-129721429D01*
X198700572Y-129781905D01*
X198628000Y-129902857D01*
X198555429Y-129963333D01*
X198410286Y-130023810D01*
X198120000Y-130023810D01*
X197974858Y-130084286D01*
X197902286Y-130144762D01*
X197829715Y-130265714D01*
X197829715Y-130507619D01*
X197902286Y-130628571D01*
X197974858Y-130689048D01*
X198120000Y-130749524D01*
X198410286Y-130749524D01*
X198555429Y-130689048D01*
X198628000Y-130628571D01*
X198700572Y-130507619D01*
X198700572Y-130265714D01*
X198628000Y-130144762D01*
X198555429Y-130084286D01*
X198410286Y-130023810D01*
X211509429Y-130689048D02*
X211727143Y-130749524D01*
X212090000Y-130749524D01*
X212235143Y-130689048D01*
X212307714Y-130628571D01*
X212380286Y-130507619D01*
X212380286Y-130386667D01*
X212307714Y-130265714D01*
X212235143Y-130205238D01*
X212090000Y-130144762D01*
X211799714Y-130084286D01*
X211654572Y-130023810D01*
X211582000Y-129963333D01*
X211509429Y-129842381D01*
X211509429Y-129721429D01*
X211582000Y-129600476D01*
X211654572Y-129540000D01*
X211799714Y-129479524D01*
X212162572Y-129479524D01*
X212380286Y-129540000D01*
X212888286Y-129479524D02*
X213251143Y-130749524D01*
X213541429Y-129842381D01*
X213831715Y-130749524D01*
X214194572Y-129479524D01*
X214702572Y-129600476D02*
X214775143Y-129540000D01*
X214920286Y-129479524D01*
X215283143Y-129479524D01*
X215428286Y-129540000D01*
X215500857Y-129600476D01*
X215573429Y-129721429D01*
X215573429Y-129842381D01*
X215500857Y-130023810D01*
X214630000Y-130749524D01*
X215573429Y-130749524D01*
X216226572Y-130628571D02*
X216299144Y-130689048D01*
X216226572Y-130749524D01*
X216154001Y-130689048D01*
X216226572Y-130628571D01*
X216226572Y-130749524D01*
X216226572Y-129963333D02*
X216299144Y-130023810D01*
X216226572Y-130084286D01*
X216154001Y-130023810D01*
X216226572Y-129963333D01*
X216226572Y-130084286D01*
X217024858Y-130749524D02*
X217315143Y-130749524D01*
X217460286Y-130689048D01*
X217532858Y-130628571D01*
X217678000Y-130447143D01*
X217750572Y-130205238D01*
X217750572Y-129721429D01*
X217678000Y-129600476D01*
X217605429Y-129540000D01*
X217460286Y-129479524D01*
X217170000Y-129479524D01*
X217024858Y-129540000D01*
X216952286Y-129600476D01*
X216879715Y-129721429D01*
X216879715Y-130023810D01*
X216952286Y-130144762D01*
X217024858Y-130205238D01*
X217170000Y-130265714D01*
X217460286Y-130265714D01*
X217605429Y-130205238D01*
X217678000Y-130144762D01*
X217750572Y-130023810D01*
X229833714Y-130689048D02*
X230051428Y-130749524D01*
X230414285Y-130749524D01*
X230559428Y-130689048D01*
X230631999Y-130628571D01*
X230704571Y-130507619D01*
X230704571Y-130386667D01*
X230631999Y-130265714D01*
X230559428Y-130205238D01*
X230414285Y-130144762D01*
X230123999Y-130084286D01*
X229978857Y-130023810D01*
X229906285Y-129963333D01*
X229833714Y-129842381D01*
X229833714Y-129721429D01*
X229906285Y-129600476D01*
X229978857Y-129540000D01*
X230123999Y-129479524D01*
X230486857Y-129479524D01*
X230704571Y-129540000D01*
X231212571Y-129479524D02*
X231575428Y-130749524D01*
X231865714Y-129842381D01*
X232156000Y-130749524D01*
X232518857Y-129479524D01*
X233026857Y-129600476D02*
X233099428Y-129540000D01*
X233244571Y-129479524D01*
X233607428Y-129479524D01*
X233752571Y-129540000D01*
X233825142Y-129600476D01*
X233897714Y-129721429D01*
X233897714Y-129842381D01*
X233825142Y-130023810D01*
X232954285Y-130749524D01*
X233897714Y-130749524D01*
X234550857Y-130628571D02*
X234623429Y-130689048D01*
X234550857Y-130749524D01*
X234478286Y-130689048D01*
X234550857Y-130628571D01*
X234550857Y-130749524D01*
X234550857Y-129963333D02*
X234623429Y-130023810D01*
X234550857Y-130084286D01*
X234478286Y-130023810D01*
X234550857Y-129963333D01*
X234550857Y-130084286D01*
X236074857Y-130749524D02*
X235204000Y-130749524D01*
X235639428Y-130749524D02*
X235639428Y-129479524D01*
X235494285Y-129660952D01*
X235349143Y-129781905D01*
X235204000Y-129842381D01*
X237018286Y-129479524D02*
X237163429Y-129479524D01*
X237308572Y-129540000D01*
X237381143Y-129600476D01*
X237453714Y-129721429D01*
X237526286Y-129963333D01*
X237526286Y-130265714D01*
X237453714Y-130507619D01*
X237381143Y-130628571D01*
X237308572Y-130689048D01*
X237163429Y-130749524D01*
X237018286Y-130749524D01*
X236873143Y-130689048D01*
X236800572Y-130628571D01*
X236728000Y-130507619D01*
X236655429Y-130265714D01*
X236655429Y-129963333D01*
X236728000Y-129721429D01*
X236800572Y-129600476D01*
X236873143Y-129540000D01*
X237018286Y-129479524D01*
X256503714Y-130689048D02*
X256721428Y-130749524D01*
X257084285Y-130749524D01*
X257229428Y-130689048D01*
X257301999Y-130628571D01*
X257374571Y-130507619D01*
X257374571Y-130386667D01*
X257301999Y-130265714D01*
X257229428Y-130205238D01*
X257084285Y-130144762D01*
X256793999Y-130084286D01*
X256648857Y-130023810D01*
X256576285Y-129963333D01*
X256503714Y-129842381D01*
X256503714Y-129721429D01*
X256576285Y-129600476D01*
X256648857Y-129540000D01*
X256793999Y-129479524D01*
X257156857Y-129479524D01*
X257374571Y-129540000D01*
X257882571Y-129479524D02*
X258245428Y-130749524D01*
X258535714Y-129842381D01*
X258826000Y-130749524D01*
X259188857Y-129479524D01*
X259696857Y-129600476D02*
X259769428Y-129540000D01*
X259914571Y-129479524D01*
X260277428Y-129479524D01*
X260422571Y-129540000D01*
X260495142Y-129600476D01*
X260567714Y-129721429D01*
X260567714Y-129842381D01*
X260495142Y-130023810D01*
X259624285Y-130749524D01*
X260567714Y-130749524D01*
X261220857Y-130628571D02*
X261293429Y-130689048D01*
X261220857Y-130749524D01*
X261148286Y-130689048D01*
X261220857Y-130628571D01*
X261220857Y-130749524D01*
X261220857Y-129963333D02*
X261293429Y-130023810D01*
X261220857Y-130084286D01*
X261148286Y-130023810D01*
X261220857Y-129963333D01*
X261220857Y-130084286D01*
X262744857Y-130749524D02*
X261874000Y-130749524D01*
X262309428Y-130749524D02*
X262309428Y-129479524D01*
X262164285Y-129660952D01*
X262019143Y-129781905D01*
X261874000Y-129842381D01*
X264196286Y-130749524D02*
X263325429Y-130749524D01*
X263760857Y-130749524D02*
X263760857Y-129479524D01*
X263615714Y-129660952D01*
X263470572Y-129781905D01*
X263325429Y-129842381D01*
D14*
X265065191Y-137945762D02*
X265208048Y-137993381D01*
X265446144Y-137993381D01*
X265541382Y-137945762D01*
X265589001Y-137898143D01*
X265636620Y-137802905D01*
X265636620Y-137707667D01*
X265589001Y-137612429D01*
X265541382Y-137564810D01*
X265446144Y-137517190D01*
X265255667Y-137469571D01*
X265160429Y-137421952D01*
X265112810Y-137374333D01*
X265065191Y-137279095D01*
X265065191Y-137183857D01*
X265112810Y-137088619D01*
X265160429Y-137041000D01*
X265255667Y-136993381D01*
X265493763Y-136993381D01*
X265636620Y-137041000D01*
X265969953Y-136993381D02*
X266208048Y-137993381D01*
X266398525Y-137279095D01*
X266589001Y-137993381D01*
X266827096Y-136993381D01*
X267160429Y-137088619D02*
X267208048Y-137041000D01*
X267303286Y-136993381D01*
X267541382Y-136993381D01*
X267636620Y-137041000D01*
X267684239Y-137088619D01*
X267731858Y-137183857D01*
X267731858Y-137279095D01*
X267684239Y-137421952D01*
X267112810Y-137993381D01*
X267731858Y-137993381D01*
X268160429Y-137898143D02*
X268208048Y-137945762D01*
X268160429Y-137993381D01*
X268112810Y-137945762D01*
X268160429Y-137898143D01*
X268160429Y-137993381D01*
X268160429Y-137374333D02*
X268208048Y-137421952D01*
X268160429Y-137469571D01*
X268112810Y-137421952D01*
X268160429Y-137374333D01*
X268160429Y-137469571D01*
X269160429Y-137993381D02*
X268589000Y-137993381D01*
X268874714Y-137993381D02*
X268874714Y-136993381D01*
X268779476Y-137136238D01*
X268684238Y-137231476D01*
X268589000Y-137279095D01*
X269541381Y-137088619D02*
X269589000Y-137041000D01*
X269684238Y-136993381D01*
X269922334Y-136993381D01*
X270017572Y-137041000D01*
X270065191Y-137088619D01*
X270112810Y-137183857D01*
X270112810Y-137279095D01*
X270065191Y-137421952D01*
X269493762Y-137993381D01*
X270112810Y-137993381D01*
X266573000Y-142584714D02*
X266573000Y-141822714D01*
X266573000Y-142185571D02*
X267008428Y-142185571D01*
X267008428Y-142584714D02*
X267008428Y-141822714D01*
X267516428Y-141822714D02*
X267661571Y-141822714D01*
X267734143Y-141859000D01*
X267806714Y-141931571D01*
X267843000Y-142076714D01*
X267843000Y-142330714D01*
X267806714Y-142475857D01*
X267734143Y-142548429D01*
X267661571Y-142584714D01*
X267516428Y-142584714D01*
X267443857Y-142548429D01*
X267371286Y-142475857D01*
X267335000Y-142330714D01*
X267335000Y-142076714D01*
X267371286Y-141931571D01*
X267443857Y-141859000D01*
X267516428Y-141822714D01*
X268169572Y-142584714D02*
X268169572Y-141822714D01*
X268423572Y-142367000D01*
X268677572Y-141822714D01*
X268677572Y-142584714D01*
X269040429Y-142185571D02*
X269294429Y-142185571D01*
X269403286Y-142584714D02*
X269040429Y-142584714D01*
X269040429Y-141822714D01*
X269403286Y-141822714D01*
D12*
X26089429Y-149739048D02*
X26307143Y-149799524D01*
X26670000Y-149799524D01*
X26815143Y-149739048D01*
X26887714Y-149678571D01*
X26960286Y-149557619D01*
X26960286Y-149436667D01*
X26887714Y-149315714D01*
X26815143Y-149255238D01*
X26670000Y-149194762D01*
X26379714Y-149134286D01*
X26234572Y-149073810D01*
X26162000Y-149013333D01*
X26089429Y-148892381D01*
X26089429Y-148771429D01*
X26162000Y-148650476D01*
X26234572Y-148590000D01*
X26379714Y-148529524D01*
X26742572Y-148529524D01*
X26960286Y-148590000D01*
X27468286Y-148529524D02*
X27831143Y-149799524D01*
X28121429Y-148892381D01*
X28411715Y-149799524D01*
X28774572Y-148529524D01*
X29210000Y-148529524D02*
X30153429Y-148529524D01*
X29645429Y-149013333D01*
X29863143Y-149013333D01*
X30008286Y-149073810D01*
X30080857Y-149134286D01*
X30153429Y-149255238D01*
X30153429Y-149557619D01*
X30080857Y-149678571D01*
X30008286Y-149739048D01*
X29863143Y-149799524D01*
X29427715Y-149799524D01*
X29282572Y-149739048D01*
X29210000Y-149678571D01*
X30806572Y-149678571D02*
X30879144Y-149739048D01*
X30806572Y-149799524D01*
X30734001Y-149739048D01*
X30806572Y-149678571D01*
X30806572Y-149799524D01*
X30806572Y-149013333D02*
X30879144Y-149073810D01*
X30806572Y-149134286D01*
X30734001Y-149073810D01*
X30806572Y-149013333D01*
X30806572Y-149134286D01*
X31822572Y-148529524D02*
X31967715Y-148529524D01*
X32112858Y-148590000D01*
X32185429Y-148650476D01*
X32258000Y-148771429D01*
X32330572Y-149013333D01*
X32330572Y-149315714D01*
X32258000Y-149557619D01*
X32185429Y-149678571D01*
X32112858Y-149739048D01*
X31967715Y-149799524D01*
X31822572Y-149799524D01*
X31677429Y-149739048D01*
X31604858Y-149678571D01*
X31532286Y-149557619D01*
X31459715Y-149315714D01*
X31459715Y-149013333D01*
X31532286Y-148771429D01*
X31604858Y-148650476D01*
X31677429Y-148590000D01*
X31822572Y-148529524D01*
X45139429Y-149739048D02*
X45357143Y-149799524D01*
X45720000Y-149799524D01*
X45865143Y-149739048D01*
X45937714Y-149678571D01*
X46010286Y-149557619D01*
X46010286Y-149436667D01*
X45937714Y-149315714D01*
X45865143Y-149255238D01*
X45720000Y-149194762D01*
X45429714Y-149134286D01*
X45284572Y-149073810D01*
X45212000Y-149013333D01*
X45139429Y-148892381D01*
X45139429Y-148771429D01*
X45212000Y-148650476D01*
X45284572Y-148590000D01*
X45429714Y-148529524D01*
X45792572Y-148529524D01*
X46010286Y-148590000D01*
X46518286Y-148529524D02*
X46881143Y-149799524D01*
X47171429Y-148892381D01*
X47461715Y-149799524D01*
X47824572Y-148529524D01*
X48260000Y-148529524D02*
X49203429Y-148529524D01*
X48695429Y-149013333D01*
X48913143Y-149013333D01*
X49058286Y-149073810D01*
X49130857Y-149134286D01*
X49203429Y-149255238D01*
X49203429Y-149557619D01*
X49130857Y-149678571D01*
X49058286Y-149739048D01*
X48913143Y-149799524D01*
X48477715Y-149799524D01*
X48332572Y-149739048D01*
X48260000Y-149678571D01*
X49856572Y-149678571D02*
X49929144Y-149739048D01*
X49856572Y-149799524D01*
X49784001Y-149739048D01*
X49856572Y-149678571D01*
X49856572Y-149799524D01*
X49856572Y-149013333D02*
X49929144Y-149073810D01*
X49856572Y-149134286D01*
X49784001Y-149073810D01*
X49856572Y-149013333D01*
X49856572Y-149134286D01*
X51380572Y-149799524D02*
X50509715Y-149799524D01*
X50945143Y-149799524D02*
X50945143Y-148529524D01*
X50800000Y-148710952D01*
X50654858Y-148831905D01*
X50509715Y-148892381D01*
X64189429Y-149739048D02*
X64407143Y-149799524D01*
X64770000Y-149799524D01*
X64915143Y-149739048D01*
X64987714Y-149678571D01*
X65060286Y-149557619D01*
X65060286Y-149436667D01*
X64987714Y-149315714D01*
X64915143Y-149255238D01*
X64770000Y-149194762D01*
X64479714Y-149134286D01*
X64334572Y-149073810D01*
X64262000Y-149013333D01*
X64189429Y-148892381D01*
X64189429Y-148771429D01*
X64262000Y-148650476D01*
X64334572Y-148590000D01*
X64479714Y-148529524D01*
X64842572Y-148529524D01*
X65060286Y-148590000D01*
X65568286Y-148529524D02*
X65931143Y-149799524D01*
X66221429Y-148892381D01*
X66511715Y-149799524D01*
X66874572Y-148529524D01*
X67310000Y-148529524D02*
X68253429Y-148529524D01*
X67745429Y-149013333D01*
X67963143Y-149013333D01*
X68108286Y-149073810D01*
X68180857Y-149134286D01*
X68253429Y-149255238D01*
X68253429Y-149557619D01*
X68180857Y-149678571D01*
X68108286Y-149739048D01*
X67963143Y-149799524D01*
X67527715Y-149799524D01*
X67382572Y-149739048D01*
X67310000Y-149678571D01*
X68906572Y-149678571D02*
X68979144Y-149739048D01*
X68906572Y-149799524D01*
X68834001Y-149739048D01*
X68906572Y-149678571D01*
X68906572Y-149799524D01*
X68906572Y-149013333D02*
X68979144Y-149073810D01*
X68906572Y-149134286D01*
X68834001Y-149073810D01*
X68906572Y-149013333D01*
X68906572Y-149134286D01*
X69559715Y-148650476D02*
X69632286Y-148590000D01*
X69777429Y-148529524D01*
X70140286Y-148529524D01*
X70285429Y-148590000D01*
X70358000Y-148650476D01*
X70430572Y-148771429D01*
X70430572Y-148892381D01*
X70358000Y-149073810D01*
X69487143Y-149799524D01*
X70430572Y-149799524D01*
X85779429Y-149739048D02*
X85997143Y-149799524D01*
X86360000Y-149799524D01*
X86505143Y-149739048D01*
X86577714Y-149678571D01*
X86650286Y-149557619D01*
X86650286Y-149436667D01*
X86577714Y-149315714D01*
X86505143Y-149255238D01*
X86360000Y-149194762D01*
X86069714Y-149134286D01*
X85924572Y-149073810D01*
X85852000Y-149013333D01*
X85779429Y-148892381D01*
X85779429Y-148771429D01*
X85852000Y-148650476D01*
X85924572Y-148590000D01*
X86069714Y-148529524D01*
X86432572Y-148529524D01*
X86650286Y-148590000D01*
X87158286Y-148529524D02*
X87521143Y-149799524D01*
X87811429Y-148892381D01*
X88101715Y-149799524D01*
X88464572Y-148529524D01*
X88900000Y-148529524D02*
X89843429Y-148529524D01*
X89335429Y-149013333D01*
X89553143Y-149013333D01*
X89698286Y-149073810D01*
X89770857Y-149134286D01*
X89843429Y-149255238D01*
X89843429Y-149557619D01*
X89770857Y-149678571D01*
X89698286Y-149739048D01*
X89553143Y-149799524D01*
X89117715Y-149799524D01*
X88972572Y-149739048D01*
X88900000Y-149678571D01*
X90496572Y-149678571D02*
X90569144Y-149739048D01*
X90496572Y-149799524D01*
X90424001Y-149739048D01*
X90496572Y-149678571D01*
X90496572Y-149799524D01*
X90496572Y-149013333D02*
X90569144Y-149073810D01*
X90496572Y-149134286D01*
X90424001Y-149073810D01*
X90496572Y-149013333D01*
X90496572Y-149134286D01*
X91077143Y-148529524D02*
X92020572Y-148529524D01*
X91512572Y-149013333D01*
X91730286Y-149013333D01*
X91875429Y-149073810D01*
X91948000Y-149134286D01*
X92020572Y-149255238D01*
X92020572Y-149557619D01*
X91948000Y-149678571D01*
X91875429Y-149739048D01*
X91730286Y-149799524D01*
X91294858Y-149799524D01*
X91149715Y-149739048D01*
X91077143Y-149678571D01*
X137849429Y-149739048D02*
X138067143Y-149799524D01*
X138430000Y-149799524D01*
X138575143Y-149739048D01*
X138647714Y-149678571D01*
X138720286Y-149557619D01*
X138720286Y-149436667D01*
X138647714Y-149315714D01*
X138575143Y-149255238D01*
X138430000Y-149194762D01*
X138139714Y-149134286D01*
X137994572Y-149073810D01*
X137922000Y-149013333D01*
X137849429Y-148892381D01*
X137849429Y-148771429D01*
X137922000Y-148650476D01*
X137994572Y-148590000D01*
X138139714Y-148529524D01*
X138502572Y-148529524D01*
X138720286Y-148590000D01*
X139228286Y-148529524D02*
X139591143Y-149799524D01*
X139881429Y-148892381D01*
X140171715Y-149799524D01*
X140534572Y-148529524D01*
X140970000Y-148529524D02*
X141913429Y-148529524D01*
X141405429Y-149013333D01*
X141623143Y-149013333D01*
X141768286Y-149073810D01*
X141840857Y-149134286D01*
X141913429Y-149255238D01*
X141913429Y-149557619D01*
X141840857Y-149678571D01*
X141768286Y-149739048D01*
X141623143Y-149799524D01*
X141187715Y-149799524D01*
X141042572Y-149739048D01*
X140970000Y-149678571D01*
X142566572Y-149678571D02*
X142639144Y-149739048D01*
X142566572Y-149799524D01*
X142494001Y-149739048D01*
X142566572Y-149678571D01*
X142566572Y-149799524D01*
X142566572Y-149013333D02*
X142639144Y-149073810D01*
X142566572Y-149134286D01*
X142494001Y-149073810D01*
X142566572Y-149013333D01*
X142566572Y-149134286D01*
X144018000Y-148529524D02*
X143292286Y-148529524D01*
X143219715Y-149134286D01*
X143292286Y-149073810D01*
X143437429Y-149013333D01*
X143800286Y-149013333D01*
X143945429Y-149073810D01*
X144018000Y-149134286D01*
X144090572Y-149255238D01*
X144090572Y-149557619D01*
X144018000Y-149678571D01*
X143945429Y-149739048D01*
X143800286Y-149799524D01*
X143437429Y-149799524D01*
X143292286Y-149739048D01*
X143219715Y-149678571D01*
X189919429Y-149739048D02*
X190137143Y-149799524D01*
X190500000Y-149799524D01*
X190645143Y-149739048D01*
X190717714Y-149678571D01*
X190790286Y-149557619D01*
X190790286Y-149436667D01*
X190717714Y-149315714D01*
X190645143Y-149255238D01*
X190500000Y-149194762D01*
X190209714Y-149134286D01*
X190064572Y-149073810D01*
X189992000Y-149013333D01*
X189919429Y-148892381D01*
X189919429Y-148771429D01*
X189992000Y-148650476D01*
X190064572Y-148590000D01*
X190209714Y-148529524D01*
X190572572Y-148529524D01*
X190790286Y-148590000D01*
X191298286Y-148529524D02*
X191661143Y-149799524D01*
X191951429Y-148892381D01*
X192241715Y-149799524D01*
X192604572Y-148529524D01*
X193040000Y-148529524D02*
X193983429Y-148529524D01*
X193475429Y-149013333D01*
X193693143Y-149013333D01*
X193838286Y-149073810D01*
X193910857Y-149134286D01*
X193983429Y-149255238D01*
X193983429Y-149557619D01*
X193910857Y-149678571D01*
X193838286Y-149739048D01*
X193693143Y-149799524D01*
X193257715Y-149799524D01*
X193112572Y-149739048D01*
X193040000Y-149678571D01*
X194636572Y-149678571D02*
X194709144Y-149739048D01*
X194636572Y-149799524D01*
X194564001Y-149739048D01*
X194636572Y-149678571D01*
X194636572Y-149799524D01*
X194636572Y-149013333D02*
X194709144Y-149073810D01*
X194636572Y-149134286D01*
X194564001Y-149073810D01*
X194636572Y-149013333D01*
X194636572Y-149134286D01*
X195580000Y-149073810D02*
X195434858Y-149013333D01*
X195362286Y-148952857D01*
X195289715Y-148831905D01*
X195289715Y-148771429D01*
X195362286Y-148650476D01*
X195434858Y-148590000D01*
X195580000Y-148529524D01*
X195870286Y-148529524D01*
X196015429Y-148590000D01*
X196088000Y-148650476D01*
X196160572Y-148771429D01*
X196160572Y-148831905D01*
X196088000Y-148952857D01*
X196015429Y-149013333D01*
X195870286Y-149073810D01*
X195580000Y-149073810D01*
X195434858Y-149134286D01*
X195362286Y-149194762D01*
X195289715Y-149315714D01*
X195289715Y-149557619D01*
X195362286Y-149678571D01*
X195434858Y-149739048D01*
X195580000Y-149799524D01*
X195870286Y-149799524D01*
X196015429Y-149739048D01*
X196088000Y-149678571D01*
X196160572Y-149557619D01*
X196160572Y-149315714D01*
X196088000Y-149194762D01*
X196015429Y-149134286D01*
X195870286Y-149073810D01*
X211509429Y-149739048D02*
X211727143Y-149799524D01*
X212090000Y-149799524D01*
X212235143Y-149739048D01*
X212307714Y-149678571D01*
X212380286Y-149557619D01*
X212380286Y-149436667D01*
X212307714Y-149315714D01*
X212235143Y-149255238D01*
X212090000Y-149194762D01*
X211799714Y-149134286D01*
X211654572Y-149073810D01*
X211582000Y-149013333D01*
X211509429Y-148892381D01*
X211509429Y-148771429D01*
X211582000Y-148650476D01*
X211654572Y-148590000D01*
X211799714Y-148529524D01*
X212162572Y-148529524D01*
X212380286Y-148590000D01*
X212888286Y-148529524D02*
X213251143Y-149799524D01*
X213541429Y-148892381D01*
X213831715Y-149799524D01*
X214194572Y-148529524D01*
X214630000Y-148529524D02*
X215573429Y-148529524D01*
X215065429Y-149013333D01*
X215283143Y-149013333D01*
X215428286Y-149073810D01*
X215500857Y-149134286D01*
X215573429Y-149255238D01*
X215573429Y-149557619D01*
X215500857Y-149678571D01*
X215428286Y-149739048D01*
X215283143Y-149799524D01*
X214847715Y-149799524D01*
X214702572Y-149739048D01*
X214630000Y-149678571D01*
X216226572Y-149678571D02*
X216299144Y-149739048D01*
X216226572Y-149799524D01*
X216154001Y-149739048D01*
X216226572Y-149678571D01*
X216226572Y-149799524D01*
X216226572Y-149013333D02*
X216299144Y-149073810D01*
X216226572Y-149134286D01*
X216154001Y-149073810D01*
X216226572Y-149013333D01*
X216226572Y-149134286D01*
X217024858Y-149799524D02*
X217315143Y-149799524D01*
X217460286Y-149739048D01*
X217532858Y-149678571D01*
X217678000Y-149497143D01*
X217750572Y-149255238D01*
X217750572Y-148771429D01*
X217678000Y-148650476D01*
X217605429Y-148590000D01*
X217460286Y-148529524D01*
X217170000Y-148529524D01*
X217024858Y-148590000D01*
X216952286Y-148650476D01*
X216879715Y-148771429D01*
X216879715Y-149073810D01*
X216952286Y-149194762D01*
X217024858Y-149255238D01*
X217170000Y-149315714D01*
X217460286Y-149315714D01*
X217605429Y-149255238D01*
X217678000Y-149194762D01*
X217750572Y-149073810D01*
X229833714Y-149739048D02*
X230051428Y-149799524D01*
X230414285Y-149799524D01*
X230559428Y-149739048D01*
X230631999Y-149678571D01*
X230704571Y-149557619D01*
X230704571Y-149436667D01*
X230631999Y-149315714D01*
X230559428Y-149255238D01*
X230414285Y-149194762D01*
X230123999Y-149134286D01*
X229978857Y-149073810D01*
X229906285Y-149013333D01*
X229833714Y-148892381D01*
X229833714Y-148771429D01*
X229906285Y-148650476D01*
X229978857Y-148590000D01*
X230123999Y-148529524D01*
X230486857Y-148529524D01*
X230704571Y-148590000D01*
X231212571Y-148529524D02*
X231575428Y-149799524D01*
X231865714Y-148892381D01*
X232156000Y-149799524D01*
X232518857Y-148529524D01*
X232954285Y-148529524D02*
X233897714Y-148529524D01*
X233389714Y-149013333D01*
X233607428Y-149013333D01*
X233752571Y-149073810D01*
X233825142Y-149134286D01*
X233897714Y-149255238D01*
X233897714Y-149557619D01*
X233825142Y-149678571D01*
X233752571Y-149739048D01*
X233607428Y-149799524D01*
X233172000Y-149799524D01*
X233026857Y-149739048D01*
X232954285Y-149678571D01*
X234550857Y-149678571D02*
X234623429Y-149739048D01*
X234550857Y-149799524D01*
X234478286Y-149739048D01*
X234550857Y-149678571D01*
X234550857Y-149799524D01*
X234550857Y-149013333D02*
X234623429Y-149073810D01*
X234550857Y-149134286D01*
X234478286Y-149073810D01*
X234550857Y-149013333D01*
X234550857Y-149134286D01*
X236074857Y-149799524D02*
X235204000Y-149799524D01*
X235639428Y-149799524D02*
X235639428Y-148529524D01*
X235494285Y-148710952D01*
X235349143Y-148831905D01*
X235204000Y-148892381D01*
X237018286Y-148529524D02*
X237163429Y-148529524D01*
X237308572Y-148590000D01*
X237381143Y-148650476D01*
X237453714Y-148771429D01*
X237526286Y-149013333D01*
X237526286Y-149315714D01*
X237453714Y-149557619D01*
X237381143Y-149678571D01*
X237308572Y-149739048D01*
X237163429Y-149799524D01*
X237018286Y-149799524D01*
X236873143Y-149739048D01*
X236800572Y-149678571D01*
X236728000Y-149557619D01*
X236655429Y-149315714D01*
X236655429Y-149013333D01*
X236728000Y-148771429D01*
X236800572Y-148650476D01*
X236873143Y-148590000D01*
X237018286Y-148529524D01*
X248883714Y-149739048D02*
X249101428Y-149799524D01*
X249464285Y-149799524D01*
X249609428Y-149739048D01*
X249681999Y-149678571D01*
X249754571Y-149557619D01*
X249754571Y-149436667D01*
X249681999Y-149315714D01*
X249609428Y-149255238D01*
X249464285Y-149194762D01*
X249173999Y-149134286D01*
X249028857Y-149073810D01*
X248956285Y-149013333D01*
X248883714Y-148892381D01*
X248883714Y-148771429D01*
X248956285Y-148650476D01*
X249028857Y-148590000D01*
X249173999Y-148529524D01*
X249536857Y-148529524D01*
X249754571Y-148590000D01*
X250262571Y-148529524D02*
X250625428Y-149799524D01*
X250915714Y-148892381D01*
X251206000Y-149799524D01*
X251568857Y-148529524D01*
X252004285Y-148529524D02*
X252947714Y-148529524D01*
X252439714Y-149013333D01*
X252657428Y-149013333D01*
X252802571Y-149073810D01*
X252875142Y-149134286D01*
X252947714Y-149255238D01*
X252947714Y-149557619D01*
X252875142Y-149678571D01*
X252802571Y-149739048D01*
X252657428Y-149799524D01*
X252222000Y-149799524D01*
X252076857Y-149739048D01*
X252004285Y-149678571D01*
X253600857Y-149678571D02*
X253673429Y-149739048D01*
X253600857Y-149799524D01*
X253528286Y-149739048D01*
X253600857Y-149678571D01*
X253600857Y-149799524D01*
X253600857Y-149013333D02*
X253673429Y-149073810D01*
X253600857Y-149134286D01*
X253528286Y-149073810D01*
X253600857Y-149013333D01*
X253600857Y-149134286D01*
X255124857Y-149799524D02*
X254254000Y-149799524D01*
X254689428Y-149799524D02*
X254689428Y-148529524D01*
X254544285Y-148710952D01*
X254399143Y-148831905D01*
X254254000Y-148892381D01*
X256576286Y-149799524D02*
X255705429Y-149799524D01*
X256140857Y-149799524D02*
X256140857Y-148529524D01*
X255995714Y-148710952D01*
X255850572Y-148831905D01*
X255705429Y-148892381D01*
D14*
X265827191Y-154963762D02*
X265970048Y-155011381D01*
X266208144Y-155011381D01*
X266303382Y-154963762D01*
X266351001Y-154916143D01*
X266398620Y-154820905D01*
X266398620Y-154725667D01*
X266351001Y-154630429D01*
X266303382Y-154582810D01*
X266208144Y-154535190D01*
X266017667Y-154487571D01*
X265922429Y-154439952D01*
X265874810Y-154392333D01*
X265827191Y-154297095D01*
X265827191Y-154201857D01*
X265874810Y-154106619D01*
X265922429Y-154059000D01*
X266017667Y-154011381D01*
X266255763Y-154011381D01*
X266398620Y-154059000D01*
X266731953Y-154011381D02*
X266970048Y-155011381D01*
X267160525Y-154297095D01*
X267351001Y-155011381D01*
X267589096Y-154011381D01*
X267874810Y-154011381D02*
X268493858Y-154011381D01*
X268160524Y-154392333D01*
X268303382Y-154392333D01*
X268398620Y-154439952D01*
X268446239Y-154487571D01*
X268493858Y-154582810D01*
X268493858Y-154820905D01*
X268446239Y-154916143D01*
X268398620Y-154963762D01*
X268303382Y-155011381D01*
X268017667Y-155011381D01*
X267922429Y-154963762D01*
X267874810Y-154916143D01*
X268922429Y-154916143D02*
X268970048Y-154963762D01*
X268922429Y-155011381D01*
X268874810Y-154963762D01*
X268922429Y-154916143D01*
X268922429Y-155011381D01*
X268922429Y-154392333D02*
X268970048Y-154439952D01*
X268922429Y-154487571D01*
X268874810Y-154439952D01*
X268922429Y-154392333D01*
X268922429Y-154487571D01*
X269922429Y-155011381D02*
X269351000Y-155011381D01*
X269636714Y-155011381D02*
X269636714Y-154011381D01*
X269541476Y-154154238D01*
X269446238Y-154249476D01*
X269351000Y-154297095D01*
X270303381Y-154106619D02*
X270351000Y-154059000D01*
X270446238Y-154011381D01*
X270684334Y-154011381D01*
X270779572Y-154059000D01*
X270827191Y-154106619D01*
X270874810Y-154201857D01*
X270874810Y-154297095D01*
X270827191Y-154439952D01*
X270255762Y-155011381D01*
X270874810Y-155011381D01*
X267026572Y-149805571D02*
X267280572Y-149805571D01*
X267389429Y-150204714D02*
X267026572Y-150204714D01*
X267026572Y-149442714D01*
X267389429Y-149442714D01*
X267716001Y-150204714D02*
X267716001Y-149442714D01*
X268151429Y-150204714D01*
X268151429Y-149442714D01*
X268514287Y-150204714D02*
X268514287Y-149442714D01*
X268695715Y-149442714D01*
X268804572Y-149479000D01*
X268877144Y-149551571D01*
X268913429Y-149624143D01*
X268949715Y-149769286D01*
X268949715Y-149878143D01*
X268913429Y-150023286D01*
X268877144Y-150095857D01*
X268804572Y-150168429D01*
X268695715Y-150204714D01*
X268514287Y-150204714D01*
X222242381Y-76017381D02*
X221766190Y-76017381D01*
X221766190Y-75017381D01*
X222575714Y-75493571D02*
X222909048Y-75493571D01*
X223051905Y-76017381D02*
X222575714Y-76017381D01*
X222575714Y-75017381D01*
X223051905Y-75017381D01*
X223480476Y-76017381D02*
X223480476Y-75017381D01*
X223718571Y-75017381D01*
X223861429Y-75065000D01*
X223956667Y-75160238D01*
X224004286Y-75255476D01*
X224051905Y-75445952D01*
X224051905Y-75588810D01*
X224004286Y-75779286D01*
X223956667Y-75874524D01*
X223861429Y-75969762D01*
X223718571Y-76017381D01*
X223480476Y-76017381D01*
X224242381Y-76112619D02*
X225004286Y-76112619D01*
X225766191Y-75065000D02*
X225670953Y-75017381D01*
X225528096Y-75017381D01*
X225385238Y-75065000D01*
X225290000Y-75160238D01*
X225242381Y-75255476D01*
X225194762Y-75445952D01*
X225194762Y-75588810D01*
X225242381Y-75779286D01*
X225290000Y-75874524D01*
X225385238Y-75969762D01*
X225528096Y-76017381D01*
X225623334Y-76017381D01*
X225766191Y-75969762D01*
X225813810Y-75922143D01*
X225813810Y-75588810D01*
X225623334Y-75588810D01*
X226242381Y-76017381D02*
X226242381Y-75017381D01*
X226813810Y-76017381D01*
X226813810Y-75017381D01*
X227290000Y-76017381D02*
X227290000Y-75017381D01*
X227528095Y-75017381D01*
X227670953Y-75065000D01*
X227766191Y-75160238D01*
X227813810Y-75255476D01*
X227861429Y-75445952D01*
X227861429Y-75588810D01*
X227813810Y-75779286D01*
X227766191Y-75874524D01*
X227670953Y-75969762D01*
X227528095Y-76017381D01*
X227290000Y-76017381D01*
M02*
